<svg width="82" height="82" viewBox="0 0 82 82" fill="none" xmlns="http://www.w3.org/2000/svg">
<path d="M75.1654 75.1667H6.83203C5.4312 75.1667 4.26953 74.005 4.26953 72.6042C4.26953 71.2033 5.4312 70.0417 6.83203 70.0417H75.1654C76.5662 70.0417 77.7279 71.2033 77.7279 72.6042C77.7279 74.005 76.5662 75.1667 75.1654 75.1667Z" fill="#FFC800"/>
<path d="M33.3125 13.6667V75.1667H48.6875V13.6667C48.6875 9.90834 47.15 6.83334 42.5375 6.83334H39.4625C34.85 6.83334 33.3125 9.90834 33.3125 13.6667Z" fill="#FFC800"/>
<path d="M10.25 34.1667V75.1667H23.9167V34.1667C23.9167 30.4083 22.55 27.3333 18.45 27.3333H15.7167C11.6167 27.3333 10.25 30.4083 10.25 34.1667Z" fill="#FFC800"/>
<path d="M58.082 51.25V75.1667H71.7487V51.25C71.7487 47.4917 70.382 44.4167 66.282 44.4167H63.5487C59.4487 44.4167 58.082 47.4917 58.082 51.25Z" fill="#FFC800"/>
</svg>
