<svg width="82" height="82" viewBox="0 0 82 82" fill="none" xmlns="http://www.w3.org/2000/svg">
<path d="M55.3165 6.83334H26.6848C14.2482 6.83334 6.83398 14.2475 6.83398 26.6842V55.2817C6.83398 67.7525 14.2482 75.1667 26.6848 75.1667H55.2823C67.719 75.1667 75.1332 67.7525 75.1332 55.3158V26.6842C75.1673 14.2475 67.7532 6.83334 55.3165 6.83334ZM37.4132 59.8258C36.4223 60.8167 34.5432 61.7733 33.1765 61.9783L24.7715 63.1742C24.464 63.2083 24.1565 63.2425 23.849 63.2425C22.4482 63.2425 21.1498 62.7642 20.2273 61.8417C19.0998 60.7142 18.6215 59.0742 18.8948 57.2633L20.0907 48.8583C20.2957 47.4575 21.2182 45.6125 22.2432 44.6217L37.4815 29.3833C37.7548 30.1008 38.0282 30.8183 38.404 31.6383C38.7457 32.3558 39.1215 33.1075 39.5315 33.7908C39.8732 34.3717 40.249 34.9183 40.5565 35.3283C40.9323 35.9092 41.3765 36.4558 41.6498 36.7633C41.8207 37.0025 41.9573 37.1733 42.0257 37.2417C42.8798 38.2667 43.8707 39.2233 44.7248 39.9408C44.964 40.18 45.1007 40.3167 45.169 40.3508C45.6815 40.7608 46.194 41.1708 46.6382 41.4783C47.1848 41.8883 47.7315 42.2642 48.3123 42.5717C48.9957 42.9817 49.7473 43.3575 50.499 43.7333C51.2848 44.075 52.0023 44.3825 52.7198 44.6217L37.4132 59.8258ZM59.3482 37.8908L56.2048 41.0683C55.9998 41.2733 55.7265 41.3758 55.4532 41.3758C55.3507 41.3758 55.214 41.3758 55.1457 41.3417C48.2098 39.36 42.6748 33.825 40.6932 26.8892C40.5907 26.5133 40.6932 26.1033 40.9665 25.8642L44.144 22.6867C49.3373 17.4933 54.2915 17.5958 59.3823 22.6867C61.979 25.2833 63.2432 27.7775 63.2432 30.3742C63.209 32.8342 61.9448 35.2942 59.3482 37.8908Z" fill="#FFC800"/>
</svg>
