<svg width="82" height="82" viewBox="0 0 82 82" fill="none" xmlns="http://www.w3.org/2000/svg">
<path d="M61.4999 20.5C59.4158 20.5 57.5024 19.3042 56.5458 17.4592L54.0858 12.505C52.5141 9.39584 48.4141 6.83334 44.9291 6.83334H37.1049C33.5858 6.83334 29.4858 9.39584 27.9141 12.505L25.4541 17.4592C24.4974 19.3042 22.5841 20.5 20.4999 20.5C13.0858 20.5 7.20909 26.7525 7.68742 34.1325L9.46409 62.3542C9.87409 69.3925 13.6666 75.1667 23.0966 75.1667H58.9033C68.3333 75.1667 72.0916 69.3925 72.5358 62.3542L74.3124 34.1325C74.7908 26.7525 68.9141 20.5 61.4999 20.5ZM35.8749 24.7708H46.1249C47.5258 24.7708 48.6874 25.9325 48.6874 27.3333C48.6874 28.7342 47.5258 29.8958 46.1249 29.8958H35.8749C34.4741 29.8958 33.3124 28.7342 33.3124 27.3333C33.3124 25.9325 34.4741 24.7708 35.8749 24.7708ZM40.9999 61.91C34.6449 61.91 29.4516 56.7508 29.4516 50.3617C29.4516 43.9725 34.6108 38.8133 40.9999 38.8133C47.3891 38.8133 52.5483 43.9725 52.5483 50.3617C52.5483 56.7508 47.3549 61.91 40.9999 61.91Z" fill="#FFC800"/>
</svg>
