<svg width="42" height="46" viewBox="0 0 42 46" fill="none" xmlns="http://www.w3.org/2000/svg">
<path d="M20.75 4.25V8.25H24.9229V12.25H27.75L27.75 32.0947H28.8535V29.0088H31.9395V25.9229H35.0254V22.8369L41.6973 22.8369L41.6973 29.5088H38.6113V32.5947L35.5254 32.5947V35.6816H32.4395L32.4395 38.7676H29.3535V41.8535H27.7842V45.4229L21.1113 45.4229V41.8535H19.5947V38.7676H16.5088V35.6807H13.4219V32.5947H10.3359V29.5088H7.25V22.8369H13.9219V25.9229L17.0088 25.9229V29.0088H20.0947V32.0947H21.25L21.25 14.9229L18.25 14.9229V10.75L10.9219 10.75L10.9219 14.9229L4.25 14.9229L4.25 8.25H8.25V4.25L20.75 4.25Z" fill="black" stroke="black" stroke-width="0.5"/>
<path d="M19 1V5L23.1729 5V9H26L26 25.7588H28.6895V22.6729H31.7754V19.5869L39.9473 19.5869L39.9473 27.7588H36.8613V30.8447L33.7754 30.8447V33.9316H30.6895L30.6895 37.0176H27.6035V40.1035H26.0342V43.6729L17.8613 43.6729V40.1035H16.3447V37.0176H13.2588V33.9307H10.1719V30.8447H7.08594V27.7588H4L4 19.5869H12.1719V22.6729L15.2588 22.6729V25.7588H18L18 13.1729H15V9L9.17188 9L9.17187 13.1729L1 13.1729L1 5H5V1L19 1Z" fill="white" stroke="black" stroke-width="2"/>
</svg>
