<svg width="42" height="39" viewBox="0 0 42 39" fill="none" xmlns="http://www.w3.org/2000/svg">
<path d="M25.0088 3.75V6.83594H28.0947V9.92285H31.1807V13.0088H34.2676V16.0947H37.3535V17.6641H40.9229V24.3359H37.3535V25.8535H34.2676V28.9395H31.1807V32.0254H28.0947V35.1113H25.0088V38.1973H18.3369V31.5254H21.4229V28.4395H24.5088V25.3535H27.5947V24.1641H4.25V17.6641H27.5947V16.5947H24.5088V13.5088H21.4229V10.4229H18.3369V3.75H25.0088Z" fill="black" stroke="black" stroke-width="0.5"/>
<path d="M23.2588 1V4.08594H26.3447V7.17285H29.4307V10.2588H32.5176V13.3447H35.6035V14.9141H39.1729V23.0859H35.6035V24.6035H32.5176V27.6895H29.4307V30.7754H26.3447V33.8613H23.2588V36.9473H15.0869V28.7754H18.1729V25.6895H21.2588V22.9141H1V14.9141H21.2588V12.2588H18.1729V9.17285H15.0869V1H23.2588Z" fill="white" stroke="black" stroke-width="2"/>
</svg>
