<svg width="91" height="62" viewBox="0 0 91 62" fill="none" xmlns="http://www.w3.org/2000/svg">
<path d="M88.8477 52.832H84.1094V55.6748H79.3721V60.4131H10.6641V55.6748H5.9248V53.3057H1.18652V8.52734H5.9248V5.9209H10.6641V1.18262H79.3721V5.9209H84.1094V8.52637L87.6641 8.52734L88.8477 8.52832V52.832Z" fill="#31E300" stroke="black" stroke-width="2.36923"/>
<rect x="14.2148" y="24.0234" width="6.68236" height="6.68236" fill="white"/>
<rect width="6.68236" height="6.68236" transform="matrix(-1 0 0 1 57.6523 24.0234)" fill="white"/>
<rect width="6.68236" height="6.68236" transform="matrix(-1 0 0 1 71.0156 10.6562)" fill="white"/>
<rect x="20.8984" y="30.7031" width="6.68236" height="6.68236" fill="white"/>
<rect width="6.68236" height="6.68236" transform="matrix(-1 0 0 1 50.9688 30.7031)" fill="white"/>
<rect width="6.68236" height="6.68236" transform="matrix(-1 0 0 1 64.332 17.3359)" fill="white"/>
<rect x="27.582" y="37.3828" width="6.68236" height="6.68236" fill="white"/>
<rect width="6.68236" height="6.68236" transform="matrix(-1 0 0 1 44.2852 37.3828)" fill="white"/>
<rect x="17.5586" y="27.3594" width="6.68236" height="6.68236" fill="white"/>
<rect width="6.68236" height="6.68236" transform="matrix(-1 0 0 1 54.3086 27.3594)" fill="white"/>
<rect width="6.68236" height="6.68236" transform="matrix(-1 0 0 1 67.6758 14)" fill="white"/>
<rect x="24.2383" y="34.0469" width="6.68236" height="6.68236" fill="white"/>
<rect width="6.68236" height="6.68236" transform="matrix(-1 0 0 1 47.6289 34.0469)" fill="white"/>
<rect width="6.68236" height="6.68236" transform="matrix(-1 0 0 1 60.9922 20.6797)" fill="white"/>
<rect x="30.9219" y="40.7266" width="6.68236" height="6.68236" fill="white"/>
<rect width="6.68236" height="6.68236" transform="matrix(-1 0 0 1 40.9453 40.7266)" fill="white"/>
</svg>
