<svg width="91" height="62" viewBox="0 0 91 62" fill="none" xmlns="http://www.w3.org/2000/svg">
<path d="M88.8477 52.832H84.1094V55.6748H79.3721V60.4131H10.6641V55.6748H5.9248V53.3057H1.18652V8.52734H5.9248V5.9209H10.6641V1.18262H79.3721V5.9209H84.1094V8.52637L87.6641 8.52734L88.8477 8.52832V52.832Z" fill="#FF594E" stroke="black" stroke-width="2.36923"/>
<rect width="5.68691" height="5.68691" transform="matrix(-1 0 0 1 51.6523 22.0312)" fill="white"/>
<rect width="5.68691" height="5.68691" transform="matrix(-1 0 0 1 63.0273 10.6562)" fill="white"/>
<rect width="5.68691" height="5.68691" transform="matrix(-1 0 0 1 45.9648 27.7188)" fill="white"/>
<rect width="5.68691" height="5.68691" transform="matrix(-1 0 0 1 57.3398 16.3438)" fill="white"/>
<rect width="5.68691" height="5.68691" transform="matrix(-1 0 0 1 40.2773 33.4062)" fill="white"/>
<rect width="5.68691" height="5.68691" transform="matrix(-1 0 0 1 48.8086 24.875)" fill="white"/>
<rect width="5.68691" height="5.68691" transform="matrix(-1 0 0 1 60.1836 13.5)" fill="white"/>
<rect width="5.68691" height="5.68691" transform="matrix(-1 0 0 1 43.1211 30.5625)" fill="white"/>
<rect width="5.68691" height="5.68691" transform="matrix(-1 0 0 1 54.4961 19.1875)" fill="white"/>
<rect width="5.68691" height="5.68691" transform="matrix(-1 0 0 1 37.4375 36.25)" fill="white"/>
<rect width="5.68691" height="5.68691" transform="matrix(-1 0 0 1 34.5938 39.0938)" fill="white"/>
<rect width="5.68691" height="5.68691" transform="matrix(-1 0 0 1 31.75 41.9375)" fill="white"/>
<rect x="37.4375" y="22.0312" width="5.68691" height="5.68691" fill="white"/>
<rect x="26.0625" y="10.6562" width="5.68691" height="5.68691" fill="white"/>
<rect x="43.125" y="27.7188" width="5.68691" height="5.68691" fill="white"/>
<rect x="31.75" y="16.3438" width="5.68691" height="5.68691" fill="white"/>
<rect x="48.8086" y="33.4062" width="5.68691" height="5.68691" fill="white"/>
<rect x="40.2812" y="24.875" width="5.68691" height="5.68691" fill="white"/>
<rect x="28.9062" y="13.5" width="5.68691" height="5.68691" fill="white"/>
<rect x="45.9648" y="30.5625" width="5.68691" height="5.68691" fill="white"/>
<rect x="34.5938" y="19.1875" width="5.68691" height="5.68691" fill="white"/>
<rect x="51.6523" y="36.25" width="5.68691" height="5.68691" fill="white"/>
<rect x="54.4961" y="39.0938" width="5.68691" height="5.68691" fill="white"/>
<rect x="57.3398" y="41.9375" width="5.68691" height="5.68691" fill="white"/>
</svg>
