<svg width="91" height="62" viewBox="0 0 91 62" fill="none" xmlns="http://www.w3.org/2000/svg">
<path d="M88.8477 52.832H84.1094V55.6748H79.3721V60.4131H10.6641V55.6748H5.9248V53.3057H1.18652V8.52734H5.9248V5.9209H10.6641V1.18262H79.3721V5.9209H84.1094V8.52637L87.6641 8.52734L88.8477 8.52832V52.832Z" fill="#2B71FD" stroke="black" stroke-width="2.36923"/>
<path fill-rule="evenodd" clip-rule="evenodd" d="M62.0156 12.0339H65.349V13.7005H67.0156V37.0339H65.349V38.7005H63.6823V40.3672H53.6823V42.0339H52.0156V43.7005H50.349V45.3672H48.6823V48.7005H47.0156V50.3672H43.6823V48.7005H42.0156V47.0339H40.349V43.7005H38.6823V42.0339H37.0156V40.3672H27.0156V38.7005H23.6823V35.3672H22.0156V17.0339H23.6823V13.7005H25.349V12.0339H28.6823V10.3672H62.0156V12.0339ZM33.6823 30.3672H35.349V32.0339H55.349V30.3672H57.0156V28.7005H55.349V27.0339H33.6823V30.3672ZM33.6823 23.7005H35.349V25.3672H53.6823V23.7005H57.0156V22.0339H55.349V20.3672H33.6823V23.7005Z" fill="white"/>
</svg>
