<svg width="74" height="62" viewBox="0 0 74 62" fill="none" xmlns="http://www.w3.org/2000/svg">
<g filter="url(#filter0_d_29_60353)">
<path d="M70 11.1667V26.4444H66.9091V29.5H63.8182V32.5556H60.7273V35.6111H57.6364V38.6667H54.5455V41.7222H51.4545V44.7778H48.3636V47.8333H45.2727V50.8889H42.1818V53.9444H39.0909V57H32.9091V53.9444H29.8182V50.8889H26.7273V47.8333H23.6364V44.7778H20.5455V41.7222H17.4545V38.6667H14.3636V35.6111H11.2727V32.5556H8.18182V29.5H5.09091V26.4444H2V11.1667H5.09091V8.11111H8.18182V5.05556H11.2727V2H29.8182V5.05556H32.9091V8.11111H39.0909V5.05556H42.1818V2H60.7273V5.05556H63.8182V8.11111H66.9091V11.1667H70Z" fill="#EF3124"/>
<path d="M30.8184 1V4.05566H33.9092V7.11133H38.0908V4.05566H41.1816V1H61.7275V4.05566H64.8184V7.11133H67.9092V10.167H71V27.4443H67.9092V30.5H64.8184V33.5557H61.7275V36.6113H58.6367V39.667H55.5459V42.7227H52.4541V45.7773H49.3633V48.833H46.2725V51.8887H43.1816V54.9443H40.0908V58H31.9092V54.9443H28.8184V51.8887H25.7275V48.833H22.6367V45.7773H19.5459V42.7227H16.4541V39.667H13.3633V36.6113H10.2725V33.5557H7.18164V30.5H4.09082V27.4443H1V10.167H4.09082V7.11133H7.18164V4.05566H10.2725V1H30.8184Z" stroke="black" stroke-width="2"/>
</g>
<path d="M17.4302 25V22.75H30.9302V25H17.4302Z" fill="white"/>
<path d="M35.0702 31.75V29.5H39.5702V20.5H37.3202V18.25H39.5702V16H44.0702V29.5H48.5702V31.75H35.0702Z" fill="white"/>
<defs>
<filter id="filter0_d_29_60353" x="0" y="0" width="74" height="62" filterUnits="userSpaceOnUse" color-interpolation-filters="sRGB">
<feFlood flood-opacity="0" result="BackgroundImageFix"/>
<feColorMatrix in="SourceAlpha" type="matrix" values="0 0 0 0 0 0 0 0 0 0 0 0 0 0 0 0 0 0 127 0" result="hardAlpha"/>
<feOffset dx="2" dy="3"/>
<feComposite in2="hardAlpha" operator="out"/>
<feColorMatrix type="matrix" values="0 0 0 0 0 0 0 0 0 0 0 0 0 0 0 0 0 0 1 0"/>
<feBlend mode="normal" in2="BackgroundImageFix" result="effect1_dropShadow_29_60353"/>
<feBlend mode="normal" in="SourceGraphic" in2="effect1_dropShadow_29_60353" result="shape"/>
</filter>
</defs>
</svg>
