<svg width="274" height="164" viewBox="0 0 274 164" fill="none" xmlns="http://www.w3.org/2000/svg">
<g clip-path="url(#clip0_6_24515)">
<rect width="10" height="164" fill="#0543BB"/>
<rect x="10" width="264" height="164" fill="#2B73FE"/>
<path d="M41.42 71V69H39.42V67H43.42V69H49.42V65H41.42V63H39.42V57H43.42V63H49.42V57H53.42V69H51.42V71H41.42ZM55.1 73V69H57.1V65H59.1V57H69.1V69H71.1V73H67.1V71H59.1V73H55.1ZM61.1 69H65.1V59H61.1V69ZM72.78 71V69H70.78V59H72.78V57H82.78V59H84.78V69H82.78V71H72.78ZM74.78 69H80.78V59H74.78V69ZM90.46 71V69H88.46V67H86.46V61H88.46V59H90.46V57H98.46V59H100.46V61H96.46V59H92.46V61H90.46V67H92.46V69H96.46V67H100.46V69H98.46V71H90.46ZM108.14 71V59H104.14V57H116.14V59H112.14V71H108.14ZM119.82 71V69H117.82V59H119.82V57H129.82V59H131.82V69H129.82V71H119.82ZM121.82 69H127.82V59H121.82V69ZM133.5 71V57H145.5V59H147.5V63H145.5V65H147.5V69H145.5V71H133.5ZM137.5 63H143.5V59H137.5V63ZM137.5 69H143.5V65H137.5V69ZM149.18 71V57H163.18V59H153.18V63H161.18V65H153.18V69H163.18V71H149.18ZM164.86 71V57H176.86V59H178.86V65H176.86V67H168.86V71H164.86ZM168.86 65H174.86V59H168.86V65ZM180.54 71V57H194.54V59H184.54V63H192.54V65H184.54V69H194.54V71H180.54ZM196.22 71V57H200.22V63H206.22V57H210.22V71H206.22V65H200.22V71H196.22ZM211.9 71V57H215.9V65H217.9V63H219.9V61H221.9V57H225.9V71H221.9V65H219.9V67H217.9V69H215.9V71H211.9ZM227.58 71V57H241.58V59H231.58V63H239.58V65H231.58V69H241.58V71H227.58ZM78.62 92V88H80.62V86H82.62V84H80.62V82H78.62V78H82.62V82H84.62V84H86.62V82H88.62V78H92.62V82H90.62V84H88.62V86H90.62V88H92.62V92H88.62V88H86.62V86H84.62V88H82.62V92H78.62ZM96.3 92V90H94.3V80H96.3V78H106.3V80H108.3V90H106.3V92H96.3ZM98.3 90H104.3V80H98.3V90ZM109.98 92V78H121.98V80H123.98V86H121.98V88H113.98V92H109.98ZM113.98 86H119.98V80H113.98V86ZM127.66 92V90H125.66V80H127.66V78H137.66V80H139.66V90H137.66V92H127.66ZM129.66 90H135.66V80H129.66V90ZM141.34 92V78H145.34V90H147.34V78H149.34V90H151.34V78H155.34V92H141.34ZM157.02 92V78H171.02V80H161.02V84H169.02V86H161.02V90H171.02V92H157.02ZM174.7 92V78H186.7V82H184.7V80H178.7V92H174.7ZM190.38 92V90H188.38V80H190.38V78H200.38V80H202.38V90H200.38V92H190.38ZM192.38 90H198.38V80H192.38V90ZM113.98 113V111H111.98V109H109.98V103H111.98V101H113.98V99H121.98V101H123.98V103H119.98V101H115.98V103H113.98V109H115.98V111H119.98V109H123.98V111H121.98V113H113.98ZM125.66 113V99H129.66V103H133.66V113H125.66ZM135.66 113V99H139.66V113H135.66ZM129.66 111H131.66V105H129.66V111ZM141.34 113V99H145.34V105H151.34V99H155.34V113H151.34V107H145.34V113H141.34ZM157.02 113V103H159.02V101H161.02V99H167.02V101H169.02V103H171.02V113H167.02V109H161.02V113H157.02ZM161.02 107H167.02V103H165.02V101H163.02V103H161.02V107Z" fill="white"/>
<g opacity="0.3">
<path d="M23.1129 169H19V164.886H21.0564V162.829H23.1129V169Z" fill="black" fill-opacity="0.14"/>
<path d="M29.2828 166.943H27.2264V169H23.1129L23.1135 160.773H25.1699V158.716H27.2264V156.659H29.2828V166.943Z" fill="black" fill-opacity="0.14"/>
<path d="M37.5092 169H33.3963V166.943H35.4527V164.886H37.5092V169Z" fill="black" fill-opacity="0.14"/>
<path d="M45.7355 169H37.5092L37.5098 162.829H39.5662V160.773H41.6226V156.659H43.6791V154.602H45.7355V169Z" fill="black" fill-opacity="0.14"/>
<path d="M51.9054 169H45.7355L45.7361 152.546H47.7926V150.489H49.849V148.432H51.9054V169Z" fill="black" fill-opacity="0.14"/>
<path d="M60.1318 169H51.9054L51.906 146.375H53.9625V142.261H56.0189V140.204H58.0754V138.148H60.1318V169Z" fill="black" fill-opacity="0.14"/>
<path d="M68.3582 169H60.1318L60.1324 136.091H62.1888V134.034H64.2453V131.977H66.3017V127.864H68.3582V169Z" fill="black" fill-opacity="0.14"/>
<path d="M74.5281 169H68.3582L68.3587 125.807H70.4152V123.75H72.4716V121.693H74.5281V169Z" fill="black" fill-opacity="0.14"/>
<path d="M82.7544 169H74.5281L74.5287 119.636H76.5851V115.523H78.6415V113.466H80.698V111.409H82.7544V169Z" fill="black" fill-opacity="0.14"/>
<path d="M84.8115 169H82.7544L82.755 109.352H84.8115V107.296H86.8679V105.239H88.9243V101.125H90.9808V160.773H88.9243V164.886H86.8679V166.943H84.8115V169Z" fill="black" fill-opacity="0.14"/>
<path d="M37.5092 156.659H35.4527V158.716H33.3963V160.773H31.3398V164.886H29.2834V154.602H31.3398V150.489H33.3963V148.432H35.4527V146.375H37.5092V156.659Z" fill="black" fill-opacity="0.14"/>
<path d="M97.1507 154.602H95.0943V156.659H93.0378V158.716H90.9814V99.0683H93.0378V97.0111H95.0943V94.9544H97.1507V154.602Z" fill="black" fill-opacity="0.14"/>
<path d="M45.7355 146.375H43.6791V148.432H41.6226V152.546H39.5662V154.602H37.5098V144.318H39.5662V142.261H41.6226V140.204H43.6791V136.091H45.7355V146.375Z" fill="black" fill-opacity="0.14"/>
<path d="M105.377 144.318H103.321V146.375H101.264V148.432H99.2077V152.546H97.1513V92.8978H99.2077V90.8411H101.264V86.7272H103.321V84.6706H105.377V144.318Z" fill="black" fill-opacity="0.14"/>
<path d="M51.9054 140.204H49.849V142.261H47.7926V144.318H45.7361V134.034H47.7926V131.977H49.849V129.921H51.9054V140.204Z" fill="black" fill-opacity="0.14"/>
<path d="M113.603 134.034H111.547V138.148H109.491V140.204H107.434V142.261H105.378V82.6139H107.434V80.5567H109.491V78.5H111.547V74.3861H113.603V134.034Z" fill="black" fill-opacity="0.14"/>
<path d="M60.1318 129.921H58.0754V131.977H56.0189V134.034H53.9625V138.148H51.906V127.864H53.9625V125.807H56.0189V121.693H58.0754V119.636H60.1318V129.921Z" fill="black" fill-opacity="0.14"/>
<path d="M119.773 127.864H117.717V129.921H115.66V131.977H113.604V72.3294H115.66V70.2728H117.717V68.2161H119.773V127.864Z" fill="black" fill-opacity="0.14"/>
<path d="M68.3582 119.636H66.3017V123.75H64.2453V125.807H62.1888V127.864H60.1324V117.579H62.1888V115.523H64.2453V113.466H66.3017V109.352H68.3582V119.636Z" fill="black" fill-opacity="0.14"/>
<path d="M128 117.579H125.943V119.636H123.887V123.75H121.83V125.807H119.774V66.1589H121.83V64.1022H123.887V59.9889H125.943V57.9317H128V117.579Z" fill="black" fill-opacity="0.14"/>
<path d="M74.5281 113.466H72.4716V115.523H70.4152V117.579H68.3587V107.296H70.4152V105.239H72.4716V103.182H74.5281V113.466Z" fill="black" fill-opacity="0.14"/>
<path d="M134.17 111.409H132.113V113.466H130.057V115.523H128V55.875H130.057V53.8183H132.113V51.7611H134.17V111.409Z" fill="black" fill-opacity="0.14"/>
<path d="M82.7544 103.182H80.698V105.239H78.6415V109.352H76.5851V111.409H74.5287V101.125H76.5851V99.0683H78.6415V94.9544H80.698V92.8978H82.7544V103.182Z" fill="black" fill-opacity="0.14"/>
<path d="M142.396 101.125H140.34V103.182H138.283V105.239H136.227V109.352H134.17V49.7044H136.227V45.5911H138.283V43.5339H140.34V41.4772H142.396V101.125Z" fill="black" fill-opacity="0.14"/>
<path d="M90.9808 92.8978H88.9243V97.0111H86.8679V99.0683H84.8115V101.125H82.755V90.8411H84.8115V88.7839H86.8679V86.7272H88.9243V84.6706H90.9808V92.8978Z" fill="black" fill-opacity="0.14"/>
<path d="M150.622 90.8411H148.566V92.8978H146.509V97.0111H144.453V99.0683H142.397V39.4206H144.453V37.3639H146.509V33.25H148.566V31.1933H150.622V90.8411Z" fill="black" fill-opacity="0.14"/>
<path d="M97.1507 86.7272H95.0943V88.7839H93.0378V90.8411H90.9814V80.5567H93.0378V78.5H95.0943V76.4433H97.1507V86.7272Z" fill="black" fill-opacity="0.14"/>
<path d="M156.792 84.6706H154.736V86.7272H152.679V88.7839H150.623V29.1361H152.679V27.0794H154.736V25.0228H156.792V84.6706Z" fill="black" fill-opacity="0.14"/>
<path d="M105.377 76.4433H103.321V78.5H101.264V82.6139H99.2077V84.6706H97.1513V74.3861H99.2077V72.3294H101.264V68.2161H103.321V66.1589H105.377V76.4433Z" fill="black" fill-opacity="0.14"/>
<path d="M165.019 74.3861H162.962V76.4433H160.906V78.5H158.849V82.6139H156.793V22.9661H158.849V18.8522H160.906V16.7956H162.962V14.7389H165.019V74.3861Z" fill="black" fill-opacity="0.14"/>
<path d="M113.603 68.2161H111.547V70.2728H109.491V72.3294H107.434V74.3861H105.378V64.1022H107.434V62.0456H109.491V59.9889H111.547V57.9317H113.603V68.2161Z" fill="black" fill-opacity="0.14"/>
<path d="M173.245 64.1022H171.189V68.2161H169.132V70.2728H167.076V72.3294H165.019V12.6817H167.076V10.625H169.132V8.56834H171.189V4.45444H173.245V64.1022Z" fill="black" fill-opacity="0.14"/>
<path d="M119.773 59.9889H117.717V62.0456H115.66V64.1022H113.604V53.8183H115.66V51.7611H117.717V49.7044H119.773V59.9889Z" fill="black" fill-opacity="0.14"/>
<path d="M179.415 57.9317H177.358V59.9889H175.302V62.0456H173.246V2.39778H175.302V0.341124H177.358V-1.71612H179.415V57.9317Z" fill="black" fill-opacity="0.14"/>
<path d="M128 49.7044H125.943V51.7611H123.887V55.875H121.83V57.9317H119.774V47.6478H121.83V45.5911H123.887V43.5339H125.943V39.4206H128V49.7044Z" fill="black" fill-opacity="0.14"/>
<path d="M187.641 47.6478H185.585V49.7044H183.528V51.7611H181.472V55.875H179.415V-3.77278H181.472V-7.8861H183.528V-9.94334H185.585V-12H187.641V47.6478Z" fill="black" fill-opacity="0.14"/>
<path d="M134.17 43.5339H132.113V45.5911H130.057V47.6478H128V37.3639H130.057V35.3067H132.113V33.25H134.17V43.5339Z" fill="black" fill-opacity="0.14"/>
<path d="M195.868 37.3639H193.811V41.4772H191.755V43.5339H189.698V45.5911H187.642L187.641 -12H195.868V37.3639Z" fill="black" fill-opacity="0.14"/>
<path d="M142.396 33.25H140.34V35.3067H138.283V37.3639H136.227V41.4772H134.17V31.1933H136.227V27.0794H138.283V25.0228H140.34V22.9661H142.396V33.25Z" fill="black" fill-opacity="0.14"/>
<path d="M202.038 31.1933H199.981V33.25H197.925V35.3067H195.868L195.868 -12H202.038V31.1933Z" fill="black" fill-opacity="0.14"/>
<path d="M150.622 22.9661H148.566V27.0794H146.509V29.1361H144.453V31.1933H142.397V20.9089H144.453V18.8522H146.509V16.7956H148.566V12.6817H150.622V22.9661Z" fill="black" fill-opacity="0.14"/>
<path d="M210.264 20.9089H208.207V22.9661H206.151V27.0794H204.095V29.1361H202.038L202.038 -12H210.264V20.9089Z" fill="black" fill-opacity="0.14"/>
<path d="M156.792 16.7956H154.736V18.8522H152.679V20.9089H150.623V10.625H152.679V8.56834H154.736V6.5111H156.792V16.7956Z" fill="black" fill-opacity="0.14"/>
<path d="M218.49 10.625H216.434V14.7389H214.377V16.7956H212.321V18.8522H210.264L210.264 -12H218.49V10.625Z" fill="black" fill-opacity="0.14"/>
<path d="M165.019 6.5111H162.962V8.56834H160.906V10.625H158.849V14.7389H156.793V4.45444H158.849V2.39778H160.906V-1.71612H162.962V-3.77278H165.019V6.5111Z" fill="black" fill-opacity="0.14"/>
<path d="M224.66 4.45444H222.604V6.5111H220.547V8.56834H218.491L218.49 -12H224.66V4.45444Z" fill="black" fill-opacity="0.14"/>
<path d="M173.245 -3.77278H171.189V0.341124H169.132V2.39778H167.076V4.45444H165.019V-5.82944H167.076V-7.8861H169.132V-9.94334H171.189V-12H173.245V-3.77278Z" fill="black" fill-opacity="0.14"/>
<path d="M232.887 -5.82944H230.83V-3.77278H228.774V0.341124H226.717V2.39778H224.661L224.66 -12H232.887V-5.82944Z" fill="black" fill-opacity="0.14"/>
<path d="M179.415 -9.94334H177.358V-7.8861H175.302V-5.82944H173.246L173.245 -12H179.415V-9.94334Z" fill="black" fill-opacity="0.14"/>
<path d="M237 -9.94334H234.944V-7.8861H232.887L232.887 -12H237V-9.94334Z" fill="black" fill-opacity="0.14"/>
</g>
</g>
<defs>
<clipPath id="clip0_6_24515">
<rect width="274" height="164" fill="white"/>
</clipPath>
</defs>
</svg>
