<svg width="576" height="173" viewBox="0 0 576 173" fill="none" xmlns="http://www.w3.org/2000/svg">
<rect x="274.094" width="5.4892" height="172.727" fill="#0543BB"/>
<rect x="279.582" width="17.1995" height="172.727" fill="#2B73FE"/>
<rect x="296.781" width="5.12325" height="172.727" fill="#0543BB"/>
<rect x="2.68682" y="2.68682" width="268.72" height="167.353" fill="white" stroke="#2B73FE" stroke-width="5.37364"/>
<rect x="304.593" y="2.68682" width="268.72" height="167.353" fill="white" stroke="#2B73FE" stroke-width="5.37364"/>
<path d="M331.663 48.0721V47.1989H329.916V46.3257H329.043V43.706H329.916V42.8328H331.663V41.9596H332.536V42.8328H334.282V43.706H335.155V46.3257H334.282V47.1989H332.536V48.0721H331.663ZM330.789 46.3257H331.663V43.706H330.789V46.3257ZM332.536 46.3257H333.409V43.706H332.536V46.3257ZM335.889 48.0721V43.706H336.762V42.8328H337.635V41.9596H340.255V42.8328H341.128V43.706H342.001V48.0721H340.255V46.3257H337.635V48.0721H335.889ZM337.635 45.4524H340.255V43.706H339.382V42.8328H338.509V43.706H337.635V45.4524ZM345.355 43.706H346.228V44.5792H347.101V45.4524H347.974V47.1989H348.848V48.0721H347.101V47.1989H346.228V45.4524H344.481V48.0721H342.735V41.9596H344.481V44.5792H345.355V43.706ZM348.848 41.9596V42.8328H347.974V43.706H346.228V42.8328H347.101V41.9596H348.848ZM350.454 48.0721V47.1989H349.581V46.3257H351.327V47.1989H353.947V45.4524H350.454V44.5792H349.581V41.9596H351.327V44.5792H353.947V41.9596H355.694V47.1989H354.82V48.0721H350.454ZM356.427 48.0721V46.3257H357.3V45.4524H358.173V41.9596H362.54V48.0721H360.793V42.8328H359.047V47.1989H358.173V48.0721H356.427ZM363.273 48.0721V41.9596H365.019V43.706H368.512V44.5792H369.386V47.1989H368.512V48.0721H363.273ZM365.019 47.1989H367.639V44.5792H365.019V47.1989ZM372.739 48.0721V42.8328H370.992V41.9596H376.232V42.8328H374.485V48.0721H372.739ZM376.965 48.0721V41.9596H383.078V42.8328H378.712V44.5792H382.204V45.4524H378.712V47.1989H383.078V48.0721H376.965ZM386.431 48.0721V42.8328H384.684V41.9596H389.924V42.8328H388.177V48.0721H386.431Z" fill="black"/>
<line x1="392.457" y1="48.0961" x2="549.371" y2="48.0961" stroke="black" stroke-width="0.526558"/>
<path d="M331.663 76.1346V75.2614H329.916V74.3882H329.043V71.7685H329.916V70.8953H331.663V70.0221H332.536V70.8953H334.282V71.7685H335.155V74.3882H334.282V75.2614H332.536V76.1346H331.663ZM330.789 74.3882H331.663V71.7685H330.789V74.3882ZM332.536 74.3882H333.409V71.7685H332.536V74.3882ZM336.762 76.1346V75.2614H335.889V70.8953H336.762V70.0221H341.128V70.8953H342.001V75.2614H341.128V76.1346H336.762ZM337.635 75.2614H340.255V70.8953H337.635V75.2614ZM342.735 76.1346V70.0221H347.974V70.8953H348.848V73.5149H347.974V74.3882H344.481V76.1346H342.735ZM344.481 73.5149H347.101V70.8953H344.481V73.5149ZM349.581 76.1346V70.0221H351.327V70.8953H352.201V71.7685H353.074V70.8953H353.947V70.0221H355.694V76.1346H353.947V72.6417H353.074V74.3882H352.201V72.6417H351.327V76.1346H349.581ZM356.427 76.1346V71.7685H357.3V70.8953H358.173V70.0221H360.793V70.8953H361.666V71.7685H362.54V76.1346H360.793V74.3882H358.173V76.1346H356.427ZM358.173 73.5149H360.793V71.7685H359.92V70.8953H359.047V71.7685H358.173V73.5149ZM370.992 76.1346V75.2614H370.119V70.8953H370.992V70.0221H375.358V70.8953H376.232V75.2614H375.358V76.1346H370.992ZM371.865 75.2614H374.485V70.8953H371.865V75.2614ZM376.965 76.1346V70.0221H382.204V70.8953H378.712V72.6417H382.204V73.5149H383.078V75.2614H382.204V76.1346H376.965ZM378.712 75.2614H381.331V73.5149H378.712V75.2614ZM384.684 76.1346V75.2614H383.811V74.3882H385.558V75.2614H388.177V73.5149H384.684V72.6417H383.811V70.0221H385.558V72.6417H388.177V70.0221H389.924V75.2614H389.05V76.1346H384.684ZM395.023 76.1346V73.5149H391.53V72.6417H390.657V70.0221H392.404V72.6417H395.023V70.0221H396.77V76.1346H395.023ZM397.503 76.1346V70.0221H403.616V70.8953H399.25V72.6417H402.742V73.5149H399.25V75.2614H403.616V76.1346H397.503ZM404.349 76.1346V70.0221H406.096V72.6417H408.715V70.0221H410.462V76.1346H408.715V73.5149H406.096V76.1346H404.349ZM411.195 76.1346V70.0221H412.942V73.5149H413.815V72.6417H414.688V71.7685H415.561V70.0221H417.308V76.1346H415.561V73.5149H414.688V74.3882H413.815V75.2614H412.942V76.1346H411.195ZM418.041 76.1346V75.2614H418.914V74.3882H419.788V73.5149H418.041V70.8953H418.914V70.0221H424.154V76.1346H422.407V74.3882H420.661V76.1346H418.041ZM420.661 73.5149H422.407V70.8953H419.788V72.6417H420.661V73.5149Z" fill="black"/>
<line x1="428.035" y1="77.1195" x2="549.143" y2="77.1195" stroke="black" stroke-width="0.526558"/>
<path d="M329.043 105.445V103.699H329.916V101.952H330.789V98.4596H335.155V103.699H336.029V105.445H334.282V104.572H330.789V105.445H329.043ZM331.663 103.699H333.409V99.3328H331.663V103.699ZM335.889 104.572V98.4596H342.001V99.3328H337.635V101.079H341.128V101.952H337.635V103.699H342.001V104.572H335.889ZM343.608 99.3328V98.4596H347.974V99.3328H343.608ZM342.735 104.572V100.206H344.481V102.826H345.355V101.952H346.228V101.079H347.101V100.206H348.848V104.572H347.101V102.826H346.228V103.699H345.355V104.572H342.735ZM351.327 104.572V103.699H350.454V102.826H349.581V100.206H350.454V99.3328H351.327V98.4596H354.82V99.3328H355.694V100.206H353.947V99.3328H352.201V100.206H351.327V102.826H352.201V103.699H353.947V102.826H355.694V103.699H354.82V104.572H351.327ZM359.047 104.572V99.3328H357.3V98.4596H362.54V99.3328H360.793V104.572H359.047ZM363.273 104.572V98.4596H368.512V99.3328H369.386V101.079H368.512V101.952H369.386V103.699H368.512V104.572H363.273ZM365.019 101.079H367.639V99.3328H365.019V101.079ZM365.019 103.699H367.639V101.952H365.019V103.699ZM370.119 104.572V98.4596H371.865V101.952H372.739V101.079H373.612V100.206H374.485V98.4596H376.232V104.572H374.485V101.952H373.612V102.826H372.739V103.699H371.865V104.572H370.119ZM379.585 104.572V99.3328H377.838V98.4596H383.078V99.3328H381.331V104.572H379.585ZM383.811 104.572V98.4596H389.924V99.3328H385.558V101.079H389.05V101.952H385.558V103.699H389.924V104.572H383.811ZM390.657 104.572V102.826H391.53V101.952H392.404V98.4596H396.77V104.572H395.023V99.3328H393.277V103.699H392.404V104.572H390.657ZM397.503 104.572V98.4596H403.616V99.3328H399.25V101.079H402.742V101.952H399.25V103.699H403.616V104.572H397.503ZM404.349 104.572V98.4596H406.096V101.079H408.715V98.4596H410.462V104.572H408.715V101.952H406.096V104.572H404.349ZM418.041 105.445V103.699H418.914V101.952H419.788V98.4596H424.154V103.699H425.027V105.445H423.28V104.572H419.788V105.445H418.041ZM420.661 103.699H422.407V99.3328H420.661V103.699ZM425.76 104.572V103.699H424.887V99.3328H425.76V98.4596H430.126V99.3328H431V103.699H430.126V104.572H425.76ZM426.634 103.699H429.253V99.3328H426.634V103.699Z" fill="black"/>
<line x1="439.621" y1="105.557" x2="549.145" y2="105.557" stroke="black" stroke-width="0.526558"/>
<path d="M329.043 133.883V132.136H329.916V130.39H330.789V126.897H335.155V132.136H336.029V133.883H334.282V133.01H330.789V133.883H329.043ZM331.663 132.136H333.409V127.77H331.663V132.136ZM335.889 133.01V126.897H342.001V127.77H337.635V129.517H341.128V130.39H337.635V132.136H342.001V133.01H335.889ZM345.355 128.644H346.228V129.517H347.101V130.39H347.974V132.136H348.848V133.01H347.101V132.136H346.228V130.39H344.481V133.01H342.735V126.897H344.481V129.517H345.355V128.644ZM348.848 126.897V127.77H347.974V128.644H346.228V127.77H347.101V126.897H348.848ZM349.581 133.01V128.644H350.454V127.77H351.327V126.897H353.947V127.77H354.82V128.644H355.694V133.01H353.947V131.263H351.327V133.01H349.581ZM351.327 130.39H353.947V128.644H353.074V127.77H352.201V128.644H351.327V130.39ZM356.427 133.01V126.897H358.173V129.517H360.793V126.897H362.54V133.01H360.793V130.39H358.173V133.01H356.427Z" fill="black"/>
<line x1="371.168" y1="133.995" x2="549.144" y2="133.995" stroke="black" stroke-width="0.526558"/>
<path d="M40.5433 24.6344V17.2626H42.6495V18.3157H43.7026V19.3688H44.7557V18.3157H45.8088V17.2626H47.9151V24.6344H45.8088V20.4219H44.7557V22.5282H43.7026V20.4219H42.6495V24.6344H40.5433ZM50.9059 22.5282H51.959V23.5813H50.9059V24.6344H48.7997V19.3688H50.9059V22.5282ZM56.1715 19.3688V24.6344H54.0653V21.475H53.0121V20.4219H54.0653V19.3688H56.1715ZM51.959 21.475H53.0121V22.5282H51.959V21.475ZM57.0561 24.6344V19.3688H59.1623V21.475H62.3217V19.3688H64.4279V24.6344H62.3217V22.5282H59.1623V24.6344H57.0561ZM67.4188 22.5282H68.4719V23.5813H67.4188V24.6344H65.3125V19.3688H67.4188V22.5282ZM72.6843 19.3688V24.6344H70.5781V21.475H69.525V20.4219H70.5781V19.3688H72.6843ZM68.4719 21.475H69.525V22.5282H68.4719V21.475ZM74.6221 24.6344V23.5813H73.569V20.4219H74.6221V19.3688H79.8876V20.4219H80.9408V21.475H78.8345V20.4219H75.6752V23.5813H78.8345V22.5282H80.9408V23.5813H79.8876V24.6344H74.6221ZM84.9847 24.6344V20.4219H82.8785V19.3688H89.1972V20.4219H87.0909V24.6344H84.9847ZM91.1349 24.6344V23.5813H90.0818V20.4219H91.1349V19.3688H96.4005V20.4219H97.4536V22.5282H92.188V23.5813H96.4005V24.6344H91.1349ZM92.188 21.475H95.3474V20.4219H92.188V21.475ZM105.71 20.4219V23.5813H104.657V24.6344H100.444V25.6875H98.3382V19.3688H100.444V20.4219H101.498V21.475H100.444V23.5813H103.604V20.4219H101.498V19.3688H104.657V20.4219H105.71ZM107.648 24.6344V23.5813H106.595V20.4219H107.648V19.3688H112.913V20.4219H113.966V21.475H111.86V20.4219H108.701V23.5813H111.86V22.5282H113.966V23.5813H112.913V24.6344H107.648ZM118.01 24.6344V20.4219H115.904V19.3688H122.223V20.4219H120.117V24.6344H118.01ZM123.107 24.6344V19.3688H129.426V20.4219H130.479V21.475H129.426V22.5282H130.479V23.5813H129.426V24.6344H123.107ZM125.214 21.475H128.373V20.4219H125.214V21.475ZM125.214 23.5813H128.373V22.5282H125.214V23.5813ZM132.417 24.6344V23.5813H131.364V20.4219H132.417V19.3688H137.683V20.4219H138.736V23.5813H137.683V24.6344H132.417ZM133.47 23.5813H136.629V20.4219H133.47V23.5813ZM148.93 24.6344V23.5813H147.877V20.4219H148.93V19.3688H154.195V20.4219H155.249V23.5813H154.195V24.6344H148.93ZM149.983 23.5813H153.142V20.4219H149.983V23.5813ZM163.505 17.2626V18.3157H158.239V20.4219H159.293V21.475H158.239V23.5813H161.399V20.4219H159.293V19.3688H162.452V20.4219H163.505V23.5813H162.452V24.6344H157.186V23.5813H156.133V18.3157H157.186V17.2626H163.505ZM171.761 20.4219V23.5813H170.708V24.6344H166.496V25.6875H164.39V19.3688H166.496V20.4219H167.549V21.475H166.496V23.5813H169.655V20.4219H167.549V19.3688H170.708V20.4219H171.761ZM173.699 24.6344V23.5813H172.646V22.5282H173.699V21.475H177.912V20.4219H173.699V19.3688H178.965V20.4219H180.018V24.6344H173.699ZM174.752 23.5813H177.912V22.5282H174.752V23.5813ZM181.956 24.6344V23.5813H180.902V22.5282H183.009V23.5813H186.168V22.5282H184.062V21.475H186.168V20.4219H183.009V21.475H180.902V20.4219H181.956V19.3688H187.221V20.4219H188.274V21.475H187.221V22.5282H188.274V23.5813H187.221V24.6344H181.956ZM190.212 24.6344V23.5813H189.159V20.4219H190.212V19.3688H195.478V20.4219H196.531V23.5813H195.478V24.6344H190.212ZM191.265 23.5813H194.424V20.4219H191.265V23.5813ZM197.415 24.6344V19.3688H203.734V20.4219H204.787V21.475H203.734V22.5282H204.787V23.5813H203.734V24.6344H197.415ZM199.522 21.475H202.681V20.4219H199.522V21.475ZM199.522 23.5813H202.681V22.5282H199.522V23.5813ZM206.725 24.6344V23.5813H205.672V22.5282H206.725V21.475H210.937V20.4219H206.725V19.3688H211.99V20.4219H213.043V24.6344H206.725ZM207.778 23.5813H210.937V22.5282H207.778V23.5813ZM213.928 24.6344V19.3688H216.034V21.475H219.194V19.3688H221.3V24.6344H219.194V22.5282H216.034V24.6344H213.928ZM224.291 22.5282H225.344V23.5813H224.291V24.6344H222.185V19.3688H224.291V22.5282ZM229.556 19.3688V24.6344H227.45V21.475H226.397V20.4219H227.45V19.3688H229.556ZM225.344 21.475H226.397V22.5282H225.344V21.475ZM230.441 24.6344V22.5282H231.494V21.475H230.441V20.4219H231.494V19.3688H237.813V24.6344H235.707V22.5282H232.547V24.6344H230.441ZM232.547 21.475H235.707V20.4219H232.547V21.475ZM55.1184 33.5282H56.1715V34.5813H55.1184V35.6344H53.0121V30.3688H55.1184V33.5282ZM60.384 30.3688V35.6344H58.2777V32.475H57.2246V31.4219H58.2777V30.3688H60.384ZM56.1715 32.475H57.2246V33.5282H56.1715V32.475ZM69.525 35.6344V30.3688H71.6312V32.475H74.7906V30.3688H76.8968V35.6344H74.7906V33.5282H71.6312V35.6344H69.525ZM78.8345 35.6344V34.5813H77.7814V33.5282H78.8345V32.475H83.047V31.4219H78.8345V30.3688H84.1001V31.4219H85.1532V35.6344H78.8345ZM79.8876 34.5813H83.047V33.5282H79.8876V34.5813ZM87.0909 36.6875V35.6344H91.3034V34.5813H87.0909V33.5282H86.0378V30.3688H88.1441V33.5282H91.3034V30.3688H93.4096V35.6344H92.3565V36.6875H87.0909ZM98.5067 31.4219H99.5598V32.475H100.613V33.5282H101.666V35.6344H99.5598V33.5282H96.4005V35.6344H94.2943V30.3688H96.4005V32.475H98.5067V31.4219ZM101.666 30.3688V31.4219H99.5598V30.3688H101.666ZM104.657 33.5282H105.71V34.5813H104.657V35.6344H102.551V30.3688H104.657V33.5282ZM109.922 30.3688V35.6344H107.816V32.475H106.763V31.4219H107.816V30.3688H109.922ZM105.71 32.475H106.763V33.5282H105.71V32.475ZM119.064 35.6344V30.3688H120.117V29.3157H121.17V28.2626H124.329V29.3157H125.382V30.3688H126.435V35.6344H124.329V33.5282H121.17V35.6344H119.064ZM121.17 32.475H124.329V30.3688H123.276V29.3157H122.223V30.3688H121.17V32.475ZM134.692 30.3688V35.6344H132.586V31.4219H130.479V34.5813H129.426V35.6344H127.32V33.5282H128.373V32.475H129.426V30.3688H134.692ZM135.576 35.6344V30.3688H137.683V32.475H141.895V33.5282H142.948V34.5813H141.895V35.6344H135.576ZM137.683 34.5813H140.842V33.5282H137.683V34.5813ZM146.992 36.6875V35.6344H144.886V34.5813H143.833V31.4219H144.886V30.3688H146.992V29.3157H148.045V30.3688H150.151V31.4219H151.205V34.5813H150.151V35.6344H148.045V36.6875H146.992ZM145.939 34.5813H146.992V31.4219H145.939V34.5813ZM148.045 34.5813H149.098V31.4219H148.045V34.5813ZM153.142 35.6344V34.5813H152.089V33.5282H153.142V32.475H157.355V31.4219H153.142V30.3688H158.408V31.4219H159.461V35.6344H153.142ZM154.195 34.5813H157.355V33.5282H154.195V34.5813ZM161.399 32.475V31.4219H167.717V32.475H161.399ZM168.602 35.6344V28.2626H174.921V29.3157H170.708V31.4219H174.921V32.475H175.974V34.5813H174.921V35.6344H168.602ZM170.708 34.5813H173.868V32.475H170.708V34.5813ZM177.912 36.6875V35.6344H182.124V34.5813H177.912V33.5282H176.858V30.3688H178.965V33.5282H182.124V30.3688H184.23V35.6344H183.177V36.6875H177.912ZM192.487 34.5813H193.54V36.6875H191.434V35.6344H187.221V36.6875H185.115V34.5813H186.168V33.5282H187.221V30.3688H192.487V34.5813ZM188.274 34.5813H190.38V31.4219H188.274V34.5813ZM194.424 36.6875V35.6344H198.637V34.5813H194.424V33.5282H193.371V30.3688H195.478V33.5282H198.637V30.3688H200.743V35.6344H199.69V36.6875H194.424ZM207.946 36.6875V35.6344H201.628V30.3688H203.734V34.5813H204.787V30.3688H205.84V34.5813H206.893V30.3688H209V34.5813H210.053V36.6875H207.946ZM210.937 35.6344V34.5813H209.884V31.4219H210.937V30.3688H216.203V31.4219H217.256V33.5282H211.99V34.5813H216.203V35.6344H210.937ZM211.99 32.475H215.15V31.4219H211.99V32.475ZM219.194 35.6344V34.5813H218.141V31.4219H219.194V30.3688H224.459V31.4219H225.512V33.5282H220.247V34.5813H224.459V35.6344H219.194ZM220.247 32.475H223.406V31.4219H220.247V32.475ZM78.8345 46.6344V39.2626H85.1532V41.3688H84.1001V40.3157H80.9408V46.6344H78.8345ZM87.0909 46.6344V45.5813H86.0378V42.4219H87.0909V41.3688H92.3565V42.4219H93.4096V45.5813H92.3565V46.6344H87.0909ZM88.1441 45.5813H91.3034V42.4219H88.1441V45.5813ZM95.3474 46.6344V45.5813H94.2943V42.4219H95.3474V41.3688H100.613V42.4219H101.666V43.475H99.5598V42.4219H96.4005V45.5813H99.5598V44.5282H101.666V45.5813H100.613V46.6344H95.3474ZM103.604 47.6875V46.6344H107.816V45.5813H103.604V44.5282H102.551V41.3688H104.657V44.5282H107.816V41.3688H109.922V46.6344H108.869V47.6875H103.604ZM118.179 45.5813H119.232V47.6875H117.126V46.6344H112.913V47.6875H110.807V45.5813H111.86V44.5282H112.913V41.3688H118.179V45.5813ZM113.966 45.5813H116.073V42.4219H113.966V45.5813ZM120.117 46.6344V45.5813H119.064V44.5282H120.117V43.475H124.329V42.4219H120.117V41.3688H125.382V42.4219H126.435V46.6344H120.117ZM121.17 45.5813H124.329V44.5282H121.17V45.5813ZM134.692 42.4219V45.5813H133.639V46.6344H129.426V47.6875H127.32V41.3688H129.426V42.4219H130.479V43.475H129.426V45.5813H132.586V42.4219H130.479V41.3688H133.639V42.4219H134.692ZM136.629 46.6344V45.5813H135.576V42.4219H136.629V41.3688H141.895V42.4219H142.948V43.475H140.842V42.4219H137.683V45.5813H140.842V44.5282H142.948V45.5813H141.895V46.6344H136.629ZM146.992 46.6344V42.4219H144.886V41.3688H151.205V42.4219H149.098V46.6344H146.992ZM152.089 46.6344V41.3688H158.408V42.4219H159.461V43.475H158.408V44.5282H159.461V45.5813H158.408V46.6344H152.089ZM154.195 43.475H157.355V42.4219H154.195V43.475ZM154.195 45.5813H157.355V44.5282H154.195V45.5813ZM161.399 46.6344V45.5813H160.346V42.4219H161.399V41.3688H166.664V42.4219H167.717V44.5282H162.452V45.5813H166.664V46.6344H161.399ZM162.452 43.475H165.611V42.4219H162.452V43.475ZM168.602 46.6344V41.3688H170.708V43.475H173.868V41.3688H175.974V46.6344H173.868V44.5282H170.708V46.6344H168.602ZM176.858 46.6344V41.3688H178.965V43.475H182.124V41.3688H184.23V46.6344H182.124V44.5282H178.965V46.6344H176.858ZM185.115 46.6344V41.3688H187.221V43.475H189.327V46.6344H185.115ZM190.38 46.6344V41.3688H192.487V46.6344H190.38ZM187.221 45.5813H188.274V44.5282H187.221V45.5813ZM199.69 39.2626V40.3157H194.424V39.2626H199.69ZM195.478 44.5282H196.531V45.5813H195.478V46.6344H193.371V41.3688H195.478V44.5282ZM200.743 41.3688V46.6344H198.637V43.475H197.584V42.4219H198.637V41.3688H200.743ZM196.531 43.475H197.584V44.5282H196.531V43.475ZM95.2631 56.6344V55.5813H94.21V54.5282H96.3162V55.5813H99.4756V53.475H95.2631V52.4219H94.21V49.2626H96.3162V52.4219H99.4756V49.2626H101.582V55.5813H100.529V56.6344H95.2631ZM102.466 56.6344V51.3688H104.573V53.475H107.732V51.3688H109.838V56.6344H107.732V54.5282H104.573V56.6344H102.466ZM112.829 54.5282H113.882V55.5813H112.829V56.6344H110.723V51.3688H112.829V54.5282ZM118.095 51.3688V56.6344H115.988V53.475H114.935V52.4219H115.988V51.3688H118.095ZM113.882 53.475H114.935V54.5282H113.882V53.475ZM118.979 56.6344V51.3688H125.298V52.4219H126.351V53.475H125.298V54.5282H126.351V55.5813H125.298V56.6344H118.979ZM121.086 53.475H124.245V52.4219H121.086V53.475ZM121.086 55.5813H124.245V54.5282H121.086V55.5813ZM128.289 56.6344V55.5813H127.236V52.4219H128.289V51.3688H133.554V52.4219H134.608V54.5282H129.342V55.5813H133.554V56.6344H128.289ZM129.342 53.475H132.501V52.4219H129.342V53.475ZM142.864 52.4219V55.5813H141.811V56.6344H137.598V57.6875H135.492V51.3688H137.598V52.4219H138.651V53.475H137.598V55.5813H140.758V52.4219H138.651V51.3688H141.811V52.4219H142.864ZM144.802 56.6344V55.5813H143.749V52.4219H144.802V51.3688H150.067V52.4219H151.12V53.475H149.014V52.4219H145.855V55.5813H149.014V54.5282H151.12V55.5813H150.067V56.6344H144.802ZM154.111 54.5282H155.164V55.5813H154.111V56.6344H152.005V51.3688H154.111V54.5282ZM159.377 51.3688V56.6344H157.271V53.475H156.217V52.4219H157.271V51.3688H159.377ZM155.164 53.475H156.217V54.5282H155.164V53.475ZM163.421 56.6344V52.4219H161.314V51.3688H167.633V52.4219H165.527V56.6344H163.421ZM169.571 56.6344V55.5813H168.518V52.4219H169.571V51.3688H174.836V52.4219H175.89V54.5282H170.624V55.5813H174.836V56.6344H169.571ZM170.624 53.475H173.783V52.4219H170.624V53.475ZM179.934 56.6344V52.4219H177.827V51.3688H184.146V52.4219H182.04V56.6344H179.934Z" fill="black"/>
<path d="M96.0923 86.1815V85.3083H94.3459V84.435H93.4727V81.8154H94.3459V80.9422H96.0923V80.069H96.9655V80.9422H98.712V81.8154H99.5852V84.435H98.712V85.3083H96.9655V86.1815H96.0923ZM95.2191 84.435H96.0923V81.8154H95.2191V84.435ZM96.9655 84.435H97.8387V81.8154H96.9655V84.435ZM100.319 86.1815V81.8154H101.192V80.9422H102.065V80.069H104.685V80.9422H105.558V81.8154H106.431V86.1815H104.685V84.435H102.065V86.1815H100.319ZM102.065 83.5618H104.685V81.8154H103.812V80.9422H102.938V81.8154H102.065V83.5618ZM107.165 86.1815V80.069H108.911V80.9422H109.784V81.8154H110.658V80.9422H111.531V80.069H113.277V86.1815H111.531V82.6886H110.658V84.435H109.784V82.6886H108.911V86.1815H107.165ZM114.011 86.1815V80.069H115.757V83.5618H116.63V82.6886H117.504V81.8154H118.377V80.069H120.123V86.1815H118.377V83.5618H117.504V84.435H116.63V85.3083H115.757V86.1815H114.011ZM120.857 86.1815V84.435H121.73V83.5618H122.603V80.069H126.969V86.1815H125.223V80.9422H123.476V85.3083H122.603V86.1815H120.857ZM127.703 86.1815V80.069H129.449V83.5618H130.322V82.6886H131.196V81.8154H132.069V80.069H133.815V86.1815H132.069V83.5618H131.196V84.435H130.322V85.3083H129.449V86.1815H127.703ZM134.549 86.1815V85.3083H135.422V84.435H136.295V83.5618H134.549V80.9422H135.422V80.069H140.661V86.1815H138.915V84.435H137.168V86.1815H134.549ZM137.168 83.5618H138.915V80.9422H136.295V82.6886H137.168V83.5618Z" fill="black"/>
<line x1="145.301" y1="86.4242" x2="259.037" y2="86.4242" stroke="black" stroke-width="0.526558"/>
<path d="M93.4727 114.244V108.131H95.2191V111.624H96.0923V110.751H96.9655V109.878H97.8387V108.131H99.5852V114.244H97.8387V111.624H96.9655V112.498H96.0923V113.371H95.2191V114.244H93.4727ZM100.319 114.244V108.131H102.065V109.005H102.938V109.878H103.812V109.005H104.685V108.131H106.431V114.244H104.685V110.751H103.812V112.498H102.938V110.751H102.065V114.244H100.319ZM107.165 114.244V113.371H108.038V112.498H108.911V111.624H107.165V109.005H108.038V108.131H113.277V114.244H111.531V112.498H109.784V114.244H107.165ZM109.784 111.624H111.531V109.005H108.911V110.751H109.784V111.624Z" fill="black"/>
<line x1="116.867" y1="115.541" x2="259.038" y2="115.541" stroke="black" stroke-width="0.526558"/>
<path d="M94.3459 142.994V136.881H99.5852V138.628H98.712V137.755H96.0923V142.994H94.3459ZM100.319 142.994V136.881H105.558V137.755H106.431V140.374H105.558V141.248H102.065V142.994H100.319ZM102.065 140.374H104.685V137.755H102.065V140.374ZM108.038 142.994V142.121H107.165V141.248H108.911V142.121H111.531V140.374H108.038V139.501H107.165V136.881H108.911V139.501H111.531V136.881H113.277V142.121H112.404V142.994H108.038ZM114.011 142.994V136.881H120.123V142.994H118.377V137.755H115.757V142.994H114.011ZM120.857 142.994V136.881H126.969V142.994H125.223V137.755H122.603V142.994H120.857ZM127.703 142.994V138.628H128.576V137.755H129.449V136.881H132.069V137.755H132.942V138.628H133.815V142.994H132.069V141.248H129.449V142.994H127.703ZM129.449 140.374H132.069V138.628H131.196V137.755H130.322V138.628H129.449V140.374Z" fill="black"/>
<line x1="137.93" y1="143.237" x2="259.038" y2="143.237" stroke="black" stroke-width="0.526558"/>
<g clip-path="url(#clip0_522_82026)">
<rect x="10.7188" y="64.7734" width="75.2309" height="93.5013" fill="#FFE4E2"/>
</g>
<defs>
<clipPath id="clip0_522_82026">
<rect width="75.2792" height="93.5013" fill="white" transform="translate(10.7188 64.7734)"/>
</clipPath>
</defs>
</svg>
