<svg width="43" height="37" viewBox="0 0 43 37" fill="none" xmlns="http://www.w3.org/2000/svg">
<g filter="url(#filter0_d_514_81174)">
<path d="M39 7V15.3333H37.3182V17H35.6364V18.6667H33.9545V20.3333H32.2727V22H30.5909V23.6667H28.9091V25.3333H27.2273V27H25.5455V28.6667H23.8636V30.3333H22.1818V32H18.8182V30.3333H17.1364V28.6667H15.4545V27H13.7727V25.3333H12.0909V23.6667H10.4091V22H8.72727V20.3333H7.04545V18.6667H5.36364V17H3.68182V15.3333H2V7H3.68182V5.33333H5.36364V3.66667H7.04545V2H17.1364V3.66667H18.8182V5.33333H22.1818V3.66667H23.8636V2H33.9545V3.66667H35.6364V5.33333H37.3182V7H39Z" fill="#A8F000"/>
<path d="M18.1367 1V2.66699H19.8184V4.33301H21.1816V2.66699H22.8633V1H34.9541V2.66699H36.6367V4.33301H38.3184V6H40V16.333H38.3184V18H36.6367V19.667H34.9541V21.333H33.2725V23H31.5908V24.667H29.9092V26.333H28.2275V28H26.5459V29.667H24.8633V31.333H23.1816V33H17.8184V31.333H16.1367V29.667H14.4541V28H12.7725V26.333H11.0908V24.667H9.40918V23H7.72754V21.333H6.0459V19.667H4.36328V18H2.68164V16.333H1V6H2.68164V4.33301H4.36328V2.66699H6.0459V1H18.1367Z" stroke="black" stroke-width="2"/>
</g>
<defs>
<filter id="filter0_d_514_81174" x="0" y="0" width="43" height="37" filterUnits="userSpaceOnUse" color-interpolation-filters="sRGB">
<feFlood flood-opacity="0" result="BackgroundImageFix"/>
<feColorMatrix in="SourceAlpha" type="matrix" values="0 0 0 0 0 0 0 0 0 0 0 0 0 0 0 0 0 0 127 0" result="hardAlpha"/>
<feOffset dx="2" dy="3"/>
<feComposite in2="hardAlpha" operator="out"/>
<feColorMatrix type="matrix" values="0 0 0 0 0 0 0 0 0 0 0 0 0 0 0 0 0 0 1 0"/>
<feBlend mode="normal" in2="BackgroundImageFix" result="effect1_dropShadow_514_81174"/>
<feBlend mode="normal" in="SourceGraphic" in2="effect1_dropShadow_514_81174" result="shape"/>
</filter>
</defs>
</svg>
