<svg width="37" height="30" viewBox="0 0 37 30" fill="none" xmlns="http://www.w3.org/2000/svg">
<path opacity="0.2" d="M37 5V13.3333H35.3182V15H33.6364V16.6667H31.9545V18.3333H30.2727V20H28.5909V21.6667H26.9091V23.3333H25.2273V25H23.5455V26.6667H21.8636V28.3333H20.1818V30H16.8182V28.3333H15.1364V26.6667H13.4545V25H11.7727V23.3333H10.0909V21.6667H8.40909V20H6.72727V18.3333H5.04545V16.6667H3.36364V15H1.68182V13.3333H0V5H1.68182V3.33333H3.36364V1.66667H5.04545V0H15.1364V1.66667H16.8182V3.33333H20.1818V1.66667H21.8636V0H31.9545V1.66667H33.6364V3.33333H35.3182V5H37Z" fill="#EF3124"/>
</svg>
