<svg width="358" height="488" viewBox="0 0 358 488" fill="none" xmlns="http://www.w3.org/2000/svg">
<path d="M330.63 487H28.3703V478.617H20V60.3833H28.3703V52H330.63V60.3833H339V478.617H330.63V487Z" fill="#DFDFDF"/>
<rect y="7" width="358" height="481" fill="#EF3124"/>
<path d="M342 479H17V470H8V21H17V12H342V21H351V470H342V479Z" fill="white"/>
<path d="M31 6.68182H24V21H17V6.68182H10V0H31V6.68182Z" fill="white"/>
<path d="M60 6.68182H53V21H46V6.68182H39V0H60V6.68182Z" fill="white"/>
<path d="M89 6.68182H82V21H75V6.68182H68V0H89V6.68182Z" fill="white"/>
<path d="M118 6.68182H111V21H104V6.68182H97V0H118V6.68182Z" fill="white"/>
<path d="M147 6.68182H140V21H133V6.68182H126V0H147V6.68182Z" fill="white"/>
<path d="M176 6.68182H169V21H162V6.68182H155V0H176V6.68182Z" fill="white"/>
<path d="M205 6.68182H198V21H191V6.68182H184V0H205V6.68182Z" fill="white"/>
<path d="M234 6.68182H227V21H220V6.68182H213V0H234V6.68182Z" fill="white"/>
<path d="M263 6.68182H256V21H249V6.68182H242V0H263V6.68182Z" fill="white"/>
<path d="M292 6.68182H285V21H278V6.68182H271V0H292V6.68182Z" fill="white"/>
<path d="M321 6.68182H314V21H307V6.68182H300V0H321V6.68182Z" fill="white"/>
<path d="M350 6.68182H343V21H336V6.68182H329V0H350V6.68182Z" fill="white"/>
<rect x="26" y="114" width="6.45833" height="6.45833" fill="#D9D9D9"/>
<rect x="32.457" y="107.539" width="6.45833" height="6.45833" fill="#D9D9D9"/>
<rect x="38.918" y="114" width="6.45833" height="6.45833" fill="#D9D9D9"/>
<rect x="45.375" y="107.539" width="6.45833" height="6.45833" fill="#D9D9D9"/>
<rect x="51.832" y="114" width="6.45833" height="6.45833" fill="#D9D9D9"/>
<rect x="58.2891" y="107.539" width="6.45833" height="6.45833" fill="#D9D9D9"/>
<rect x="64.75" y="114" width="6.45833" height="6.45833" fill="#D9D9D9"/>
<rect x="71.207" y="107.539" width="6.45833" height="6.45833" fill="#D9D9D9"/>
<rect x="77.668" y="114" width="6.45833" height="6.45833" fill="#D9D9D9"/>
<rect x="84.125" y="107.539" width="6.45833" height="6.45833" fill="#D9D9D9"/>
<rect x="90.582" y="114" width="6.45833" height="6.45833" fill="#D9D9D9"/>
<rect x="97.0391" y="107.539" width="6.45833" height="6.45833" fill="#D9D9D9"/>
<rect x="103.5" y="114" width="6.45833" height="6.45833" fill="#D9D9D9"/>
<rect x="109.957" y="107.539" width="6.45833" height="6.45833" fill="#D9D9D9"/>
<rect x="116.418" y="114" width="6.45833" height="6.45833" fill="#D9D9D9"/>
<rect x="122.875" y="107.539" width="6.45833" height="6.45833" fill="#D9D9D9"/>
<rect x="129.332" y="114" width="6.45833" height="6.45833" fill="#D9D9D9"/>
<rect x="135.789" y="107.539" width="6.45833" height="6.45833" fill="#D9D9D9"/>
<rect x="142.25" y="114" width="6.45833" height="6.45833" fill="#D9D9D9"/>
<rect x="148.707" y="107.539" width="6.45833" height="6.45833" fill="#D9D9D9"/>
<rect x="155.168" y="114" width="6.45833" height="6.45833" fill="#D9D9D9"/>
<rect x="161.625" y="107.539" width="6.45833" height="6.45833" fill="#D9D9D9"/>
<rect x="168.082" y="114" width="6.45833" height="6.45833" fill="#D9D9D9"/>
<rect x="174.539" y="107.539" width="6.45833" height="6.45833" fill="#D9D9D9"/>
<rect x="181" y="114" width="6.45833" height="6.45833" fill="#D9D9D9"/>
<rect x="187.457" y="107.539" width="6.45833" height="6.45833" fill="#D9D9D9"/>
<rect x="193.918" y="114" width="6.45833" height="6.45833" fill="#D9D9D9"/>
<rect x="200.375" y="107.539" width="6.45833" height="6.45833" fill="#D9D9D9"/>
<rect x="206.832" y="114" width="6.45833" height="6.45833" fill="#D9D9D9"/>
<rect x="213.289" y="107.539" width="6.45833" height="6.45833" fill="#D9D9D9"/>
<rect x="219.75" y="114" width="6.45833" height="6.45833" fill="#D9D9D9"/>
<rect x="226.207" y="107.539" width="6.45833" height="6.45833" fill="#D9D9D9"/>
<rect x="232.668" y="114" width="6.45833" height="6.45833" fill="#D9D9D9"/>
<rect x="239.125" y="107.539" width="6.45833" height="6.45833" fill="#D9D9D9"/>
<rect x="245.582" y="114" width="6.45833" height="6.45833" fill="#D9D9D9"/>
<rect x="252.039" y="107.539" width="6.45833" height="6.45833" fill="#D9D9D9"/>
<rect x="258.5" y="114" width="6.45833" height="6.45833" fill="#D9D9D9"/>
<rect x="264.957" y="107.539" width="6.45833" height="6.45833" fill="#D9D9D9"/>
<rect x="271.418" y="114" width="6.45833" height="6.45833" fill="#D9D9D9"/>
<rect x="277.875" y="107.539" width="6.45833" height="6.45833" fill="#D9D9D9"/>
<rect x="284.332" y="114" width="6.45833" height="6.45833" fill="#D9D9D9"/>
<rect x="290.789" y="107.539" width="6.45833" height="6.45833" fill="#D9D9D9"/>
<rect x="297.25" y="114" width="6.45833" height="6.45833" fill="#D9D9D9"/>
<rect x="303.707" y="107.539" width="6.45833" height="6.45833" fill="#D9D9D9"/>
<rect x="310.168" y="114" width="6.45833" height="6.45833" fill="#D9D9D9"/>
<rect x="316.625" y="107.539" width="6.45833" height="6.45833" fill="#D9D9D9"/>
<rect x="323.082" y="114" width="6.45833" height="6.45833" fill="#D9D9D9"/>
<rect x="329.539" y="107.539" width="6.45833" height="6.45833" fill="#D9D9D9"/>
</svg>
