<svg width="90" height="75" viewBox="0 0 90 75" fill="none" xmlns="http://www.w3.org/2000/svg">
<g filter="url(#filter0_d_514_81097)">
<mask id="path-1-outside-1_514_81097" maskUnits="userSpaceOnUse" x="-3.0598e-06" y="-0.234379" width="98" height="71" fill="black">
<rect fill="white" x="-3.0598e-06" y="-0.234379" width="98" height="71"/>
<path d="M4 62.7314L4 64.7314L5.5 64.7314L5.5 57.7314L4 57.7314L4 59.7314L1 59.7314L0.999999 52.7314L4 52.7314L4 54.7314L5.5 54.7314L5.5 47.7314L4 47.7314L4 49.7314L0.999999 49.7314L0.999999 42.7314L4 42.7314L4 44.7314L5.5 44.7314L5.5 37.7314L4 37.7314L4 39.7314L0.999999 39.7314L0.999998 32.7314L4 32.7314L4 34.7314L5.5 34.7314L5.5 27.7314L4 27.7314L4 29.7314L0.999998 29.7314L0.999998 22.7314L4 22.7314L4 24.7314L5.5 24.7314L5.5 17.7314L4 17.7314L4 19.7314L0.999998 19.7314L0.999998 12.7314L4 12.7314L4 14.7314L5.5 14.7314L5.5 6.73145L4 6.73145L4 8.73145L0.999997 8.73145L0.999997 1.73145L4 1.73145L4 3.73145L5.5 3.73145L5.5 0.99707L94.999 0.997066L94.999 2.5332L96.7275 2.5332L96.7275 68.4209L95 68.4209L95 69.7656L5.5 69.7646L5.5 67.7314L4 67.7314L4 69.7314L1 69.7314L1 62.7314L4 62.7314Z"/>
</mask>
<path d="M4 62.7314L4 64.7314L5.5 64.7314L5.5 57.7314L4 57.7314L4 59.7314L1 59.7314L0.999999 52.7314L4 52.7314L4 54.7314L5.5 54.7314L5.5 47.7314L4 47.7314L4 49.7314L0.999999 49.7314L0.999999 42.7314L4 42.7314L4 44.7314L5.5 44.7314L5.5 37.7314L4 37.7314L4 39.7314L0.999999 39.7314L0.999998 32.7314L4 32.7314L4 34.7314L5.5 34.7314L5.5 27.7314L4 27.7314L4 29.7314L0.999998 29.7314L0.999998 22.7314L4 22.7314L4 24.7314L5.5 24.7314L5.5 17.7314L4 17.7314L4 19.7314L0.999998 19.7314L0.999998 12.7314L4 12.7314L4 14.7314L5.5 14.7314L5.5 6.73145L4 6.73145L4 8.73145L0.999997 8.73145L0.999997 1.73145L4 1.73145L4 3.73145L5.5 3.73145L5.5 0.99707L94.999 0.997066L94.999 2.5332L96.7275 2.5332L96.7275 68.4209L95 68.4209L95 69.7656L5.5 69.7646L5.5 67.7314L4 67.7314L4 69.7314L1 69.7314L1 62.7314L4 62.7314Z" fill="white"/>
<path d="M4 62.7314L5 62.7314L5 61.7314L4 61.7314L4 62.7314ZM4 64.7314L3 64.7314L3 65.7314L4 65.7314L4 64.7314ZM5.5 64.7314L5.5 65.7314L6.5 65.7314L6.5 64.7314L5.5 64.7314ZM5.5 57.7314L6.5 57.7314L6.5 56.7314L5.5 56.7314L5.5 57.7314ZM4 57.7314L4 56.7314L3 56.7314L3 57.7314L4 57.7314ZM4 59.7314L4 60.7314L5 60.7314L5 59.7314L4 59.7314ZM1 59.7314L-4.38608e-07 59.7314L-3.94897e-07 60.7314L1 60.7314L1 59.7314ZM0.999999 52.7314L0.999999 51.7314L-7.88299e-07 51.7314L-7.44588e-07 52.7314L0.999999 52.7314ZM4 52.7314L5 52.7314L5 51.7314L4 51.7314L4 52.7314ZM4 54.7314L3 54.7314L3 55.7314L4 55.7314L4 54.7314ZM5.5 54.7314L5.5 55.7314L6.5 55.7314L6.5 54.7314L5.5 54.7314ZM5.5 47.7314L6.5 47.7314L6.5 46.7314L5.5 46.7314L5.5 47.7314ZM4 47.7314L4 46.7314L3 46.7314L3 47.7314L4 47.7314ZM4 49.7314L4 50.7314L5 50.7314L5 49.7314L4 49.7314ZM0.999999 49.7314L-8.75722e-07 49.7314L-8.3201e-07 50.7314L0.999999 50.7314L0.999999 49.7314ZM0.999999 42.7314L0.999999 41.7314L-1.22541e-06 41.7314L-1.1817e-06 42.7314L0.999999 42.7314ZM4 42.7314L5 42.7314L5 41.7314L4 41.7314L4 42.7314ZM4 44.7314L3 44.7314L3 45.7314L4 45.7314L4 44.7314ZM5.5 44.7314L5.5 45.7314L6.5 45.7314L6.5 44.7314L5.5 44.7314ZM5.5 37.7314L6.5 37.7314L6.5 36.7314L5.5 36.7314L5.5 37.7314ZM4 37.7314L4 36.7314L3 36.7314L3 37.7314L4 37.7314ZM4 39.7314L4 40.7314L5 40.7314L5 39.7314L4 39.7314ZM0.999999 39.7314L-1.31284e-06 39.7314L-1.26912e-06 40.7314L0.999999 40.7314L0.999999 39.7314ZM0.999998 32.7314L0.999998 31.7314L-1.66253e-06 31.7314L-1.61882e-06 32.7314L0.999998 32.7314ZM4 32.7314L5 32.7314L5 31.7314L4 31.7314L4 32.7314ZM4 34.7314L3 34.7314L3 35.7314L4 35.7314L4 34.7314ZM5.5 34.7314L5.5 35.7314L6.5 35.7314L6.5 34.7314L5.5 34.7314ZM5.5 27.7314L6.5 27.7314L6.5 26.7314L5.5 26.7314L5.5 27.7314ZM4 27.7314L4 26.7314L3 26.7314L3 27.7314L4 27.7314ZM4 29.7314L4 30.7314L5 30.7314L5 29.7314L4 29.7314ZM0.999998 29.7314L-1.74995e-06 29.7314L-1.70624e-06 30.7314L0.999998 30.7314L0.999998 29.7314ZM0.999998 22.7314L0.999998 21.7314L-2.09964e-06 21.7314L-2.05593e-06 22.7314L0.999998 22.7314ZM4 22.7314L5 22.7314L5 21.7314L4 21.7314L4 22.7314ZM4 24.7314L3 24.7314L3 25.7314L4 25.7314L4 24.7314ZM5.5 24.7314L5.5 25.7314L6.5 25.7314L6.5 24.7314L5.5 24.7314ZM5.5 17.7314L6.5 17.7314L6.5 16.7314L5.5 16.7314L5.5 17.7314ZM4 17.7314L4 16.7314L3 16.7314L3 17.7314L4 17.7314ZM4 19.7314L4 20.7314L5 20.7314L5 19.7314L4 19.7314ZM0.999998 19.7314L-2.18706e-06 19.7314L-2.14335e-06 20.7314L0.999998 20.7314L0.999998 19.7314ZM0.999998 12.7314L0.999997 11.7314L-2.53675e-06 11.7314L-2.49304e-06 12.7314L0.999998 12.7314ZM4 12.7314L5 12.7314L5 11.7314L4 11.7314L4 12.7314ZM4 14.7314L3 14.7314L3 15.7314L4 15.7314L4 14.7314ZM5.5 14.7314L5.5 15.7314L6.5 15.7314L6.5 14.7314L5.5 14.7314ZM5.5 6.73145L6.5 6.73145L6.5 5.73145L5.5 5.73145L5.5 6.73145ZM4 6.73145L4 5.73145L3 5.73145L3 6.73145L4 6.73145ZM4 8.73145L4 9.73145L5 9.73145L5 8.73145L4 8.73145ZM0.999997 8.73145L-2.66789e-06 8.73145L-2.62418e-06 9.73145L0.999997 9.73145L0.999997 8.73145ZM0.999997 1.73145L0.999997 0.731445L-3.01758e-06 0.731445L-2.97387e-06 1.73145L0.999997 1.73145ZM4 1.73145L5 1.73145L5 0.731445L4 0.731445L4 1.73145ZM4 3.73145L3 3.73145L3 4.73145L4 4.73145L4 3.73145ZM5.5 3.73145L5.5 4.73145L6.5 4.73145L6.5 3.73145L5.5 3.73145ZM5.5 0.99707L5.5 -0.00292988L4.5 -0.00292984L4.5 0.99707L5.5 0.99707ZM94.999 0.997066L95.999 0.997066L95.999 -0.00293384L94.999 -0.0029338L94.999 0.997066ZM94.999 2.5332L93.999 2.5332L93.999 3.5332L94.999 3.5332L94.999 2.5332ZM96.7275 2.5332L97.7275 2.5332L97.7275 1.5332L96.7275 1.5332L96.7275 2.5332ZM96.7275 68.4209L96.7275 69.4209L97.7275 69.4209L97.7275 68.4209L96.7275 68.4209ZM95 68.4209L95 67.4209L94 67.4209L94 68.4209L95 68.4209ZM95 69.7656L95 70.7656L96 70.7656L96 69.7656L95 69.7656ZM5.5 69.7646L4.5 69.7646L4.5 70.7646L5.49999 70.7646L5.5 69.7646ZM5.5 67.7314L6.5 67.7314L6.5 66.7314L5.5 66.7314L5.5 67.7314ZM4 67.7314L4 66.7314L3 66.7314L3 67.7314L4 67.7314ZM4 69.7314L4 70.7314L5 70.7314L5 69.7314L4 69.7314ZM1 69.7314L-1.49404e-09 69.7314L4.22173e-08 70.7314L1 70.7314L1 69.7314ZM1 62.7314L1 61.7314L-3.51185e-07 61.7314L-3.07474e-07 62.7314L1 62.7314ZM4 62.7314L3 62.7314L3 64.7314L4 64.7314L5 64.7314L5 62.7314L4 62.7314ZM4 64.7314L4 65.7314L5.5 65.7314L5.5 64.7314L5.5 63.7314L4 63.7314L4 64.7314ZM5.5 64.7314L6.5 64.7314L6.5 57.7314L5.5 57.7314L4.5 57.7314L4.5 64.7314L5.5 64.7314ZM5.5 57.7314L5.5 56.7314L4 56.7314L4 57.7314L4 58.7314L5.5 58.7314L5.5 57.7314ZM4 57.7314L3 57.7314L3 59.7314L4 59.7314L5 59.7314L5 57.7314L4 57.7314ZM4 59.7314L4 58.7314L1 58.7314L1 59.7314L1 60.7314L4 60.7314L4 59.7314ZM1 59.7314L2 59.7314L2 52.7314L0.999999 52.7314L-7.44588e-07 52.7314L-4.38608e-07 59.7314L1 59.7314ZM0.999999 52.7314L0.999999 53.7314L4 53.7314L4 52.7314L4 51.7314L0.999999 51.7314L0.999999 52.7314ZM4 52.7314L3 52.7314L3 54.7314L4 54.7314L5 54.7314L5 52.7314L4 52.7314ZM4 54.7314L4 55.7314L5.5 55.7314L5.5 54.7314L5.5 53.7314L4 53.7314L4 54.7314ZM5.5 54.7314L6.5 54.7314L6.5 47.7314L5.5 47.7314L4.5 47.7314L4.5 54.7314L5.5 54.7314ZM5.5 47.7314L5.5 46.7314L4 46.7314L4 47.7314L4 48.7314L5.5 48.7314L5.5 47.7314ZM4 47.7314L3 47.7314L3 49.7314L4 49.7314L5 49.7314L5 47.7314L4 47.7314ZM4 49.7314L4 48.7314L0.999999 48.7314L0.999999 49.7314L0.999999 50.7314L4 50.7314L4 49.7314ZM0.999999 49.7314L2 49.7314L2 42.7314L0.999999 42.7314L-1.1817e-06 42.7314L-8.75722e-07 49.7314L0.999999 49.7314ZM0.999999 42.7314L0.999999 43.7314L4 43.7314L4 42.7314L4 41.7314L0.999999 41.7314L0.999999 42.7314ZM4 42.7314L3 42.7314L3 44.7314L4 44.7314L5 44.7314L5 42.7314L4 42.7314ZM4 44.7314L4 45.7314L5.5 45.7314L5.5 44.7314L5.5 43.7314L4 43.7314L4 44.7314ZM5.5 44.7314L6.5 44.7314L6.5 37.7314L5.5 37.7314L4.5 37.7314L4.5 44.7314L5.5 44.7314ZM5.5 37.7314L5.5 36.7314L4 36.7314L4 37.7314L4 38.7314L5.5 38.7314L5.5 37.7314ZM4 37.7314L3 37.7314L3 39.7314L4 39.7314L5 39.7314L5 37.7314L4 37.7314ZM4 39.7314L4 38.7314L0.999999 38.7314L0.999999 39.7314L0.999999 40.7314L4 40.7314L4 39.7314ZM0.999999 39.7314L2 39.7314L2 32.7314L0.999998 32.7314L-1.61882e-06 32.7314L-1.31284e-06 39.7314L0.999999 39.7314ZM0.999998 32.7314L0.999998 33.7314L4 33.7314L4 32.7314L4 31.7314L0.999998 31.7314L0.999998 32.7314ZM4 32.7314L3 32.7314L3 34.7314L4 34.7314L5 34.7314L5 32.7314L4 32.7314ZM4 34.7314L4 35.7314L5.5 35.7314L5.5 34.7314L5.5 33.7314L4 33.7314L4 34.7314ZM5.5 34.7314L6.5 34.7314L6.5 27.7314L5.5 27.7314L4.5 27.7314L4.5 34.7314L5.5 34.7314ZM5.5 27.7314L5.5 26.7314L4 26.7314L4 27.7314L4 28.7314L5.5 28.7314L5.5 27.7314ZM4 27.7314L3 27.7314L3 29.7314L4 29.7314L5 29.7314L5 27.7314L4 27.7314ZM4 29.7314L4 28.7314L0.999998 28.7314L0.999998 29.7314L0.999998 30.7314L4 30.7314L4 29.7314ZM0.999998 29.7314L2 29.7314L2 22.7314L0.999998 22.7314L-2.05593e-06 22.7314L-1.74995e-06 29.7314L0.999998 29.7314ZM0.999998 22.7314L0.999998 23.7314L4 23.7314L4 22.7314L4 21.7314L0.999998 21.7314L0.999998 22.7314ZM4 22.7314L3 22.7314L3 24.7314L4 24.7314L5 24.7314L5 22.7314L4 22.7314ZM4 24.7314L4 25.7314L5.5 25.7314L5.5 24.7314L5.5 23.7314L4 23.7314L4 24.7314ZM5.5 24.7314L6.5 24.7314L6.5 17.7314L5.5 17.7314L4.5 17.7314L4.5 24.7314L5.5 24.7314ZM5.5 17.7314L5.5 16.7314L4 16.7314L4 17.7314L4 18.7314L5.5 18.7314L5.5 17.7314ZM4 17.7314L3 17.7314L3 19.7314L4 19.7314L5 19.7314L5 17.7314L4 17.7314ZM4 19.7314L4 18.7314L0.999998 18.7314L0.999998 19.7314L0.999998 20.7314L4 20.7314L4 19.7314ZM0.999998 19.7314L2 19.7314L2 12.7314L0.999998 12.7314L-2.49304e-06 12.7314L-2.18706e-06 19.7314L0.999998 19.7314ZM0.999998 12.7314L0.999998 13.7314L4 13.7314L4 12.7314L4 11.7314L0.999997 11.7314L0.999998 12.7314ZM4 12.7314L3 12.7314L3 14.7314L4 14.7314L5 14.7314L5 12.7314L4 12.7314ZM4 14.7314L4 15.7314L5.5 15.7314L5.5 14.7314L5.5 13.7314L4 13.7314L4 14.7314ZM5.5 14.7314L6.5 14.7314L6.5 6.73145L5.5 6.73145L4.5 6.73145L4.5 14.7314L5.5 14.7314ZM5.5 6.73145L5.5 5.73145L4 5.73145L4 6.73145L4 7.73145L5.5 7.73145L5.5 6.73145ZM4 6.73145L3 6.73145L3 8.73145L4 8.73145L5 8.73145L5 6.73145L4 6.73145ZM4 8.73145L4 7.73145L0.999997 7.73145L0.999997 8.73145L0.999997 9.73145L4 9.73145L4 8.73145ZM0.999997 8.73145L2 8.73145L2 1.73145L0.999997 1.73145L-2.97387e-06 1.73145L-2.66789e-06 8.73145L0.999997 8.73145ZM0.999997 1.73145L0.999997 2.73145L4 2.73145L4 1.73145L4 0.731445L0.999997 0.731445L0.999997 1.73145ZM4 1.73145L3 1.73145L3 3.73145L4 3.73145L5 3.73145L5 1.73145L4 1.73145ZM4 3.73145L4 4.73145L5.5 4.73145L5.5 3.73145L5.5 2.73145L4 2.73145L4 3.73145ZM5.5 3.73145L6.5 3.73145L6.5 0.99707L5.5 0.99707L4.5 0.99707L4.5 3.73145L5.5 3.73145ZM5.5 0.99707L5.5 1.99707L94.999 1.99707L94.999 0.997066L94.999 -0.0029338L5.5 -0.00292988L5.5 0.99707ZM94.999 0.997066L93.999 0.997066L93.999 2.5332L94.999 2.5332L95.999 2.5332L95.999 0.997066L94.999 0.997066ZM94.999 2.5332L94.999 3.5332L96.7275 3.5332L96.7275 2.5332L96.7275 1.5332L94.999 1.5332L94.999 2.5332ZM96.7275 2.5332L95.7275 2.5332L95.7275 68.4209L96.7275 68.4209L97.7275 68.4209L97.7275 2.5332L96.7275 2.5332ZM96.7275 68.4209L96.7275 67.4209L95 67.4209L95 68.4209L95 69.4209L96.7275 69.4209L96.7275 68.4209ZM95 68.4209L94 68.4209L94 69.7656L95 69.7656L96 69.7656L96 68.4209L95 68.4209ZM95 69.7656L95 68.7656L5.50001 68.7646L5.5 69.7646L5.49999 70.7646L95 70.7656L95 69.7656ZM5.5 69.7646L6.5 69.7646L6.5 67.7314L5.5 67.7314L4.5 67.7314L4.5 69.7646L5.5 69.7646ZM5.5 67.7314L5.5 66.7314L4 66.7314L4 67.7314L4 68.7314L5.5 68.7314L5.5 67.7314ZM4 67.7314L3 67.7314L3 69.7314L4 69.7314L5 69.7314L5 67.7314L4 67.7314ZM4 69.7314L4 68.7314L1 68.7314L1 69.7314L1 70.7314L4 70.7314L4 69.7314ZM1 69.7314L2 69.7314L2 62.7314L1 62.7314L-3.07474e-07 62.7314L-1.49404e-09 69.7314L1 69.7314ZM1 62.7314L1 63.7314L4 63.7314L4 62.7314L4 61.7314L1 61.7314L1 62.7314Z" fill="black" mask="url(#path-1-outside-1_514_81097)"/>
</g>
<path d="M15.4844 38.9756V32.7344H20.8774V33.626H21.7763V36.3008H20.8774V37.1924H17.2821V38.9756H15.4844ZM17.2821 36.3008H19.9786V33.626H17.2821V36.3008Z" fill="black"/>
<path d="M22.5313 38.9756V34.5176H23.4302V33.626H24.329V32.7344H27.0255V33.626H27.9244V34.5176H28.8232V38.9756H27.0255V37.1924H24.329V38.9756H22.5313ZM24.329 36.3008H27.0255V34.5176H26.1267V33.626H25.2278V34.5176H24.329V36.3008Z" fill="black"/>
<path d="M31.3759 38.9756V38.084H30.4771V37.1924H29.5783V34.5176H30.4771V33.626H31.3759V32.7344H34.9713V33.626H35.8702V34.5176H34.0725V33.626H32.2748V34.5176H31.3759V37.1924H32.2748V38.084H34.0725V37.1924H35.8702V38.084H34.9713V38.9756H31.3759Z" fill="black"/>
<path d="M36.6252 38.9756V32.7344H42.9171V38.9756H41.1194V33.626H38.4229V38.9756H36.6252Z" fill="black"/>
<path d="M43.6721 38.9756V32.7344H45.4698V36.3008H46.3687V35.4092H47.2675V34.5176H48.1664V32.7344H49.964V38.9756H48.1664V36.3008H47.2675V37.1924H46.3687V38.084H45.4698V38.9756H43.6721Z" fill="black"/>
<path d="M52.5168 38.9756V38.084H51.6179V37.1924H50.7191V34.5176H51.6179V33.626H52.5168V32.7344H56.1121V33.626H57.011V34.5176H55.2133V33.626H53.4156V34.5176H52.5168V37.1924H53.4156V38.084H55.2133V37.1924H57.011V38.084H56.1121V38.9756H52.5168Z" fill="black"/>
<path d="M57.766 38.9756V34.5176H58.6649V33.626H59.5637V32.7344H62.2602V33.626H63.1591V34.5176H64.0579V38.9756H62.2602V37.1924H59.5637V38.9756H57.766ZM59.5637 36.3008H62.2602V34.5176H61.3614V33.626H60.4626V34.5176H59.5637V36.3008Z" fill="black"/>
<path d="M64.813 38.9756V32.7344H66.6106V35.4092H69.3072V32.7344H71.1049V38.9756H69.3072V36.3008H66.6106V38.9756H64.813Z" fill="black"/>
<path d="M71.8599 38.9756V32.7344H73.6576V36.3008H74.5564V35.4092H75.4553V34.5176H76.3541V32.7344H78.1518V38.9756H76.3541V36.3008H75.4553V37.1924H74.5564V38.084H73.6576V38.9756H71.8599Z" fill="black"/>
<path d="M78.9068 38.9756V32.7344H85.1987V33.626H80.7045V35.4092H84.2999V36.3008H80.7045V38.084H85.1987V38.9756H78.9068Z" fill="black"/>
<defs>
<filter id="filter0_d_514_81097" x="0" y="0" width="97.7266" height="74.2368" filterUnits="userSpaceOnUse" color-interpolation-filters="sRGB">
<feFlood flood-opacity="0" result="BackgroundImageFix"/>
<feColorMatrix in="SourceAlpha" type="matrix" values="0 0 0 0 0 0 0 0 0 0 0 0 0 0 0 0 0 0 127 0" result="hardAlpha"/>
<feOffset dy="3.47114"/>
<feComposite in2="hardAlpha" operator="out"/>
<feColorMatrix type="matrix" values="0 0 0 0 0 0 0 0 0 0 0 0 0 0 0 0 0 0 1 0"/>
<feBlend mode="normal" in2="BackgroundImageFix" result="effect1_dropShadow_514_81097"/>
<feBlend mode="normal" in="SourceGraphic" in2="effect1_dropShadow_514_81097" result="shape"/>
</filter>
</defs>
</svg>
