<svg width="108" height="48" viewBox="0 0 108 48" fill="none" xmlns="http://www.w3.org/2000/svg">
<path fill-rule="evenodd" clip-rule="evenodd" d="M53.5462 2.82353H52.6387V4.70588H51.7311V6.58824H50.8235V7.52941H49.916V9.41177H49.0084V10.3529H48.1008V12.2353H47.1933V13.1765H46.2857V14.1176H45.3782V16H44.4706V16.9412H43.563V18.8235H42.6555V21.6471H41.7479V24.4706H40.8403V26.3529H44.4706V27.2941H41.7479V28.2353H39.9328V31.0588H39.0252V32H39.9328V32.9412H41.7479V32H42.6555V31.0588H43.563V30.1176H45.3782V31.0588H44.4706V32.9412H46.2857V32H47.1933V31.0588H48.1008V30.1176H49.0084V31.0588H49.916V30.1176H51.7311V29.1765H52.6387V28.2353H54.4538V31.0588H55.3613V30.1176H57.1765V29.1765H58.084V31.0588H59.8992V28.2353H60.8067V26.3529H64.437V25.4118H65.3445V24.4706H66.2521V22.5882H67.1597V21.6471H64.437V19.7647H65.3445V20.7059H66.2521V19.7647H67.1597V18.8235H68.0672V17.8824H68.9748V16.9412H69.8824V15.0588H70.7899V14.1176H71.6975V12.2353H72.605V11.2941H73.5126V9.41177H74.4202V8.47059H75.3277V7.52941H76.2353V5.64706H77.1429V3.76471H78.958V4.70588H78.0504V6.58824H77.1429V8.47059H76.2353V10.3529H75.3277V11.2941H74.4202V13.1765H73.5126V15.0588H72.605V16H71.6975V17.8824H70.7899V19.7647H69.8824V20.7059H68.9748V22.5882H68.0672V24.4706H67.1597V25.4118H66.2521V26.3529H69.8824V25.4118H70.7899V24.4706H72.605V22.5882H73.5126V21.6471H74.4202V19.7647H75.3277V18.8235H76.2353V16.9412H77.1429V16H78.0504V14.1176H78.958V13.1765H79.8655V11.2941H80.7731V10.3529H81.6807V9.41177H82.5882V12.2353H81.6807V14.1176H80.7731V16H79.8655V16.9412H78.958V18.8235H78.0504V19.7647H77.1429V20.7059H76.2353V22.5882H75.3277V23.5294H74.4202V24.4706H73.5126V25.4118H72.605V27.2941H71.6975V28.2353H70.7899V29.1765H71.6975V28.2353H72.605V27.2941H74.4202V29.1765H75.3277V28.2353H76.2353V29.1765H77.1429V28.2353H78.0504V27.2941H78.958V26.3529H79.8655V25.4118H80.7731V24.4706H81.6807V23.5294H82.5882V25.4118H81.6807V26.3529H80.7731V28.2353H81.6807V27.2941H83.4958V29.1765H85.3109V28.2353H90.7563V29.1765H97.1092V28.2353H101.647V27.2941H105.277V26.3529H108V28.2353H106.185V29.1765H103.462V30.1176H99.8319V31.0588H90.7563V32H86.2185V32.9412H80.7731V33.8824H74.4202V34.8235H67.1597V35.7647H66.2521V37.6471H76.2353V39.5294H64.437V40.4706H63.5294V42.3529H62.6218V44.2353H61.7143V46.1176H60.8067V48H58.9916V45.1765H59.8992V44.2353H60.8067V42.3529H61.7143V40.4706H62.6218V39.5294H58.084V41.4118H57.1765V43.2941H56.2689V44.2353H54.4538V42.3529H55.3613V41.4118H56.2689V40.4706H37.2101V41.4118H18.1513V42.3529H0V41.4118H0.907563V40.4706H7.2605V39.5294H14.521V38.5882H22.6891V37.6471H31.7647V36.7059H34.4874V35.7647H33.5798V33.8824H32.6723V32H31.7647V32.9412H30.8571V33.8824H29.042V34.8235H28.1345V35.7647H26.3193V36.7059H23.5966V35.7647H25.4118V34.8235H26.3193V33.8824H28.1345V32.9412H29.042V32H30.8571V31.0588H31.7647V30.1176H30.8571V28.2353H29.9496V26.3529H29.042V23.5294H29.9496V24.4706H30.8571V25.4118H32.6723V26.3529H30.8571V27.2941H31.7647V29.1765H33.5798V28.2353H34.4874V27.2941H32.6723V26.3529H36.3025V25.4118H37.2101V23.5294H38.1176V22.5882H39.0252V21.6471H39.9328V19.7647H40.8403V18.8235H41.7479V17.8824H42.6555V16H43.563V13.1765H44.4706V11.2941H45.3782V9.41177H46.2857V7.52941H47.1933V5.64706H48.1008V4.70588H49.0084V3.76471H49.916V5.64706H49.0084V6.58824H48.1008V8.47059H47.1933V9.41177H48.1008V8.47059H49.0084V6.58824H49.916V5.64706H50.8235V3.76471H51.7311V2.82353H50.8235V3.76471H49.916V1.88235H50.8235V0.941176H52.6387V0H53.5462V2.82353ZM21.7815 40.4706H22.6891V39.5294H21.7815V40.4706ZM49.916 37.6471H40.8403V38.5882H30.8571V39.5294H43.563V38.5882H57.1765V37.6471H58.084V36.7059H49.916V37.6471ZM60.8067 36.7059H59.8992V38.5882H63.5294V37.6471H64.437V35.7647H60.8067V36.7059ZM52.6387 31.0588H50.8235V32H49.916V32.9412H47.1933V33.8824H45.3782V34.8235H42.6555V33.8824H40.8403V34.8235H39.0252V35.7647H38.1176V34.8235H37.2101V35.7647H36.3025V36.7059H40.8403V35.7647H50.8235V34.8235H58.9916V32.9412H58.084V32H57.1765V31.0588H56.2689V32H55.3613V32.9412H53.5462V30.1176H52.6387V31.0588ZM35.395 29.1765H34.4874V30.1176H33.5798V32.9412H34.4874V34.8235H36.3025V32.9412H37.2101V32H38.1176V29.1765H39.0252V28.2353H35.395V29.1765ZM68.9748 28.2353H65.3445V29.1765H64.437V30.1176H63.5294V32H62.6218V33.8824H66.2521V32.9412H67.1597V31.0588H68.0672V30.1176H68.9748V28.2353H69.8824V27.2941H68.9748V28.2353ZM74.4202 32H71.6975V32.9412H74.4202V32H76.2353V31.0588H74.4202V32ZM61.7143 29.1765H60.8067V32H61.7143V30.1176H62.6218V29.1765H63.5294V27.2941H61.7143V29.1765ZM80.7731 30.1176H79.8655V31.0588H78.958V32H81.6807V31.0588H82.5882V30.1176H81.6807V29.1765H80.7731V30.1176ZM87.1261 30.1176H83.4958V31.0588H87.1261V30.1176H89.8487V29.1765H87.1261V30.1176ZM39.9328 23.5294H39.0252V25.4118H38.1176V26.3529H37.2101V27.2941H39.0252V26.3529H39.9328V23.5294H40.8403V22.5882H39.9328V23.5294ZM46.2857 11.2941H47.1933V10.3529H46.2857V11.2941Z" fill="black"/>
<path d="M40.8403 32H39.9328V31.0588H40.8403V32Z" fill="black"/>
<path d="M41.7479 31.0588H40.8403V30.1176H41.7479V31.0588Z" fill="black"/>
<path d="M43.563 30.1176H42.6555V29.1765H43.563V30.1176Z" fill="black"/>
<path d="M77.1429 28.2353H76.2353V27.2941H77.1429V28.2353Z" fill="black"/>
<path d="M75.3277 27.2941H74.4202V26.3529H75.3277V27.2941Z" fill="black"/>
<path d="M84.4034 22.5882H83.4958V23.5294H82.5882V21.6471H83.4958V20.7059H84.4034V22.5882Z" fill="black"/>
</svg>
