<svg width="56" height="40" viewBox="0 0 56 40" fill="none" xmlns="http://www.w3.org/2000/svg">
<path fill-rule="evenodd" clip-rule="evenodd" d="M31.3333 0.655738H32V1.31148H32.6667V2.62295H33.3333V7.86885H32.6667V9.83607H32V11.1475H31.3333V12.459H30.6667V13.7705H30V14.4262H29.3333V15.7377H28.6667V16.3934H28V17.0492H27.3333V17.7049H26.6667V18.3607H26V19.0164H25.3333V19.6721H24.6667V20.3279H23.3333V20.9836H22.6667V21.6393H22V22.2951H20.6667V22.9508H20V23.6066H18.6667V24.2623H17.3333V24.918H16.6667V25.5738H16V27.541H15.3333V28.1967H14.6667V29.5082H16.6667V30.8197H17.3333V31.4754H18V33.4426H18.6667V34.7541H19.3333V33.4426H20V32.1311H20.6667V30.8197H21.3333V30.1639H22V29.5082H22.6667V30.1639H23.3333V30.8197H24V31.4754H24.6667V32.1311H25.3333V32.7869H26V33.4426H26.6667V35.4098H25.3333V34.7541H24.6667V34.0984H24V33.4426H23.3333V32.7869H22.6667V32.1311H22V33.4426H21.3333V34.7541H20.6667V36.0656H20V36.7213H17.3333V34.7541H16.6667V32.7869H16V31.4754H15.3333V30.8197H14.6667V31.4754H14V32.7869H13.3333V34.0984H12.6667V36.0656H12V37.377H11.3333V38.0328H10V36.0656H9.33333V36.7213H8.66667V37.377H7.33333V38.0328H6.66667V38.6885H5.33333V39.3443H4V40H2V39.3443H0.666667V38.0328H0V35.4098H0.666667V33.4426H1.33333V32.1311H2V31.4754H2.66667V30.8197H3.33333V30.1639H4V29.5082H4.66667V28.8525H5.33333V28.1967H7.33333V27.541H6.66667V25.5738H8.66667V24.918H11.3333V24.2623H14.6667V23.6066H15.3333V22.9508H16V21.6393H16.6667V20.3279H17.3333V19.0164H18V17.0492H18.6667V15.7377H19.3333V14.4262H20V12.459H20.6667V11.1475H21.3333V9.83607H22V8.52459H22.6667V7.21311H23.3333V6.55738H24V5.2459H24.6667V4.59016H25.3333V3.27869H26V2.62295H26.6667V1.96721H27.3333V1.31148H28V0.655738H29.3333V0H31.3333V0.655738ZM6.66667 30.1639H5.33333V30.8197H4.66667V31.4754H4V32.1311H3.33333V33.4426H2.66667V34.7541H2V38.0328H4V37.377H5.33333V36.7213H6.66667V36.0656H7.33333V35.4098H8V34.7541H8.66667V34.0984H9.33333V33.4426H10V31.4754H9.33333V30.1639H8.66667V29.5082H6.66667V30.1639ZM11.3333 27.541H9.33333V28.8525H10V29.5082H10.6667V30.1639H11.3333V30.8197H12V29.5082H12.6667V28.1967H13.3333V27.541H14V26.8852H11.3333V27.541ZM29.3333 2.62295H28.6667V3.27869H28V3.93443H27.3333V4.59016H26.6667V5.2459H26V6.55738H25.3333V7.21311H24.6667V8.52459H24V9.83607H23.3333V11.1475H22.6667V12.459H22V13.7705H21.3333V15.7377H20.6667V17.0492H20V18.3607H19.3333V20.3279H18.6667V21.6393H18V22.2951H18.6667V21.6393H19.3333V20.9836H20.6667V20.3279H21.3333V19.6721H22V19.0164H23.3333V18.3607H24V17.7049H24.6667V17.0492H25.3333V16.3934H26V15.7377H26.6667V15.082H27.3333V14.4262H28V13.7705H28.6667V12.459H29.3333V11.1475H30V9.83607H30.6667V8.52459H31.3333V1.96721H29.3333V2.62295Z" fill="#0A3763"/>
<path fill-rule="evenodd" clip-rule="evenodd" d="M33.3333 15.7377H34V19.0164H34.6667V23.6066H35.3333V25.5738H36V24.918H36.6667V24.2623H38V23.6066H40.6667V24.2623H42V24.918H42.6667V25.5738H43.3333V26.2295H44V26.8852H44.6667V28.1967H45.3333V28.8525H46V28.1967H46.6667V26.8852H47.3333V26.2295H48V25.5738H48.6667V24.918H49.3333V24.2623H50V23.6066H50.6667V22.9508H52V22.2951H54.6667V21.6393H56V23.6066H53.3333V24.2623H52V24.918H50.6667V25.5738H50V26.2295H49.3333V27.541H48.6667V28.1967H48V28.8525H47.3333V29.5082H46.6667V30.1639H46V30.8197H45.3333V30.1639H44V28.8525H43.3333V28.1967H42.6667V27.541H42V26.8852H41.3333V26.2295H40.6667V25.5738H38V26.2295H37.3333V28.1967H38V29.5082H38.6667V31.4754H38V32.7869H37.3333V33.4426H36.6667V34.0984H34.6667V36.0656H34V38.0328H33.3333V39.3443H32.6667V40H29.3333V39.3443H28.6667V38.6885H31.3333V38.0328H32V36.7213H32.6667V33.4426H33.3333V25.5738H32.6667V24.918H31.3333V24.2623H29.3333V23.6066H26V24.2623H25.3333V24.918H24.6667V26.2295H24V26.8852H23.3333V23.6066H24V22.9508H24.6667V22.2951H26.6667V21.6393H28V22.2951H31.3333V22.9508H32.6667V23.6066H33.3333V19.6721H32.6667V16.3934H31.3333V15.082H33.3333V15.7377ZM36 30.8197H35.3333V32.1311H36V31.4754H36.6667V29.5082H36V30.8197Z" fill="#0A3763"/>
<path d="M31.3333 17.0492H30.6667V16.3934H31.3333V17.0492Z" fill="#0A3763"/>
</svg>
