<svg width="55" height="46" viewBox="0 0 55 46" fill="none" xmlns="http://www.w3.org/2000/svg">
<path d="M54.3452 39.4286H55V40.7429H46.4881V41.4H41.9048V42.0571H36.6667V42.7143H32.0833V43.3714H27.5V44.0286H22.9167V44.6857H18.9881V45.3429H15.7143V46H11.7857V44.6857H13.75V44.0286H17.0238V43.3714H20.2976V42.7143H24.881V42.0571H29.4643V41.4H34.0476V40.7429H38.631V40.0857H43.2143V39.4286H47.7976V38.7714H54.3452V39.4286Z" fill="#0A3763"/>
<path fill-rule="evenodd" clip-rule="evenodd" d="M46.4881 0.657143H45.1786V1.31429H42.5595V1.97143H40.5952V2.62857H38.631V3.28571H37.3214V3.94286H35.3571V4.6H34.0476V5.25714H32.0833V5.91429H30.7738V6.57143H29.4643V7.22857H28.1548V7.88571H27.5V8.54286H26.1905V9.2H25.5357V9.85714H24.2262V10.5143H23.5714V11.1714H22.9167V12.4857H23.5714V13.1429H24.2262V13.8H25.5357V14.4571H28.1548V15.1143H35.3571V15.7714H43.2143V16.4286H47.1429V17.0857H49.1071V17.7429H49.7619V18.4H51.0714V19.7143H51.7262V24.3143H51.0714V25.6286H50.4167V26.9429H49.7619V27.6H49.1071V28.9143H48.4524V29.5714H47.7976V30.2286H46.4881V30.8857H45.8333V31.5429H45.1786V32.2H44.5238V32.8571H43.2143V33.5143H41.9048V34.1714H41.25V34.8286H39.9405V35.4857H38.631V36.1429H37.3214V36.8H36.0119V37.4571H34.0476V38.1143H32.7381V38.7714H31.4286V39.4286H29.4643V40.0857H27.5V40.7429H25.5357V41.4H23.5714V42.0571H20.2976V42.7143H15.7143V43.3714H11.7857V42.7143H7.85714V42.0571H5.89286V41.4H4.58333V40.7429H3.92857V40.0857H3.27381V39.4286H2.61905V38.7714H1.96429V38.1143H1.30952V36.8H0.654762V34.8286H0V32.2H0.654762V29.5714H1.30952V28.2571H1.96429V26.9429H2.61905V25.6286H3.27381V24.9714H3.92857V24.3143H4.58333V23.6571H5.2381V23H5.89286V22.3429H7.20238V21.6857H7.85714V21.0286H9.16667V20.3714H11.131V19.7143H17.6786V20.3714H18.9881V21.0286H19.6429V21.6857H20.2976V23H20.9524V24.9714H21.6071V28.9143H22.2619V29.5714H23.5714V28.9143H24.2262V28.2571H26.1905V29.5714H26.8452V30.2286H27.5V28.9143H32.0833V30.8857H28.8095V31.5429H28.1548V32.2H27.5V32.8571H26.1905V32.2H25.5357V30.8857H24.2262V31.5429H23.5714V32.2H22.2619V31.5429H21.6071V30.8857H20.2976V32.2H19.6429V32.8571H18.9881V33.5143H18.3333V34.1714H17.6786V34.8286H16.369V35.4857H15.0595V36.1429H13.0952V35.4857H12.4405V34.1714H11.7857V32.2H12.4405V30.2286H13.0952V29.5714H13.75V28.2571H15.0595V27.6H17.0238V28.2571H17.6786V28.9143H18.3333V29.5714H18.9881V28.9143H19.6429V24.3143H18.9881V23H18.3333V22.3429H17.6786V21.6857H16.369V21.0286H13.0952V21.6857H11.131V22.3429H9.16667V23H8.5119V23.6571H7.20238V24.3143H6.54762V24.9714H5.89286V25.6286H5.2381V26.2857H4.58333V26.9429H3.92857V27.6H3.27381V28.9143H2.61905V30.8857H1.96429V35.4857H2.61905V36.8H3.27381V38.1143H3.92857V38.7714H5.2381V39.4286H5.89286V40.0857H7.85714V40.7429H9.82143V41.4H18.3333V40.7429H21.6071V40.0857H24.2262V39.4286H26.1905V38.7714H28.1548V38.1143H30.119V37.4571H31.4286V36.8H33.3929V36.1429H34.7024V35.4857H36.0119V34.8286H37.3214V34.1714H38.631V33.5143H39.9405V32.8571H40.5952V32.2H41.9048V31.5429H43.2143V30.8857H43.869V30.2286H44.5238V29.5714H45.1786V28.9143H45.8333V28.2571H46.4881V27.6H47.1429V26.9429H47.7976V26.2857H48.4524V25.6286H49.1071V24.3143H49.7619V23H50.4167V21.0286H49.7619V19.7143H49.1071V19.0571H47.7976V18.4H45.1786V17.7429H38.631V17.0857H30.119V16.4286H26.1905V15.7714H24.2262V15.1143H22.9167V14.4571H22.2619V13.8H21.6071V10.5143H22.2619V9.2H22.9167V8.54286H24.2262V7.88571H24.881V7.22857H26.1905V6.57143H27.5V5.91429H28.8095V5.25714H30.7738V4.6H32.7381V3.94286H34.0476V3.28571H36.0119V2.62857H37.9762V1.97143H39.9405V1.31429H41.9048V0.657143H43.869V0H46.4881V0.657143ZM15.0595 30.2286H14.4048V31.5429H13.75V34.1714H15.0595V33.5143H16.369V32.8571H17.0238V32.2H17.6786V31.5429H17.0238V29.5714H15.0595V30.2286Z" fill="#0A3763"/>
<path d="M36.6667 20.3714H37.3214V22.3429H36.6667V26.9429H37.3214V27.6H38.631V26.9429H39.2857V26.2857H39.9405V25.6286H41.9048V26.2857H42.5595V26.9429H43.2143V27.6H42.5595V28.2571H39.9405V28.9143H39.2857V29.5714H38.631V30.2286H36.6667V29.5714H36.0119V30.8857H35.3571V32.8571H34.7024V34.1714H33.3929V30.2286H34.0476V26.9429H34.7024V23.6571H35.3571V20.3714H36.0119V19.7143H36.6667V20.3714Z" fill="#0A3763"/>
<path d="M47.1429 1.31429H46.4881V0.657143H47.1429V1.31429Z" fill="#0A3763"/>
</svg>
