<svg width="291" height="159" viewBox="0 0 291 159" fill="none" xmlns="http://www.w3.org/2000/svg">
<path d="M282.501 4.00014H286.5V6.19956L290.5 6.20037V41.6003H286.5V43.9999H282.501V48H8.00027V43.9999H4.00014V41.9998H0V6.20037H4.00014V4.00014H8.00027V0H282.501V4.00014Z" fill="white"/>
<path d="M106.546 148.434L105.062 148.654L104.84 147.165L106.324 146.944L106.546 148.434Z" fill="white"/>
<path d="M104.619 145.675L103.135 145.896L102.914 144.407L104.398 144.186L104.619 145.675Z" fill="white"/>
<path d="M102.914 144.407L101.43 144.627L100.987 141.648L102.471 141.428L102.914 144.407Z" fill="white"/>
<path d="M73.1099 25.5313L71.6262 25.7519L71.8476 27.2413L70.3639 27.4618L70.5853 28.9512L69.1016 29.1718L69.323 30.6612L67.8393 30.8817L68.0607 32.3711L66.577 32.5917L66.7984 34.0811L65.3148 34.3016L65.5362 35.791L64.0525 36.0116L64.2739 37.501L62.7902 37.7215L63.0116 39.2109L61.5279 39.4315L61.7493 40.9209L60.2656 41.1414L60.487 42.6308L59.0033 42.8514L59.2248 44.3407L57.7411 44.5613L57.9625 46.0507L56.4788 46.2713L56.7002 47.7606L55.2165 47.9812L55.4379 49.4706L53.9542 49.6912L54.1756 51.1805L52.6919 51.4011L52.9134 52.8905L49.946 53.3316L50.1674 54.821L48.6837 55.0416L48.9051 56.5309L47.4214 56.7515L47.6428 58.2409L46.1591 58.4615L46.3805 59.9508L44.8968 60.1714L45.1182 61.6608L43.6346 61.8814L43.856 63.3707L45.3397 63.1502L45.7825 66.1289L47.2662 65.9084L47.709 68.8871L49.1927 68.6665L49.6355 71.6453L51.1192 71.4247L51.5621 74.4035L53.0457 74.1829L53.4886 77.1617L54.9723 76.9411L55.4151 79.9199L56.8988 79.6993L57.1202 81.1887L58.6039 80.9681L59.0467 83.9469L60.5304 83.7263L60.9732 86.7051L62.4569 86.4845L62.8998 89.4633L64.3835 89.2427L64.8263 92.2215L66.31 92.0009L66.7528 94.9796L68.2365 94.7591L68.6793 97.7378L70.163 97.5173L70.6058 100.496L72.0895 100.275L72.5324 103.254L74.0161 103.034L74.2375 104.523L75.7212 104.302L76.164 107.281L77.6477 107.061L78.0905 110.039L79.5742 109.819L80.017 112.798L81.5007 112.577L81.9436 115.556L83.4273 115.335L83.8701 118.314L85.3538 118.093L85.7966 121.072L87.2803 120.852L87.7231 123.83L89.2068 123.61L89.6496 126.589L91.1333 126.368L91.3547 127.857L92.8384 127.637L93.2813 130.616L94.765 130.395L95.2078 133.374L96.6915 133.153L97.1343 136.132L98.618 135.911L99.0608 138.89L100.545 138.67L100.987 141.648L99.5037 141.869L99.2822 140.38L97.7985 140.6L97.5771 139.111L96.0934 139.331L95.6506 136.353L94.1669 136.573L93.9455 135.084L92.4618 135.304L92.019 132.325L90.5353 132.546L90.3139 131.057L88.8302 131.277L88.3874 128.298L86.9037 128.519L86.6823 127.03L85.1986 127.25L84.9771 125.761L83.4934 125.981L83.0506 123.003L81.5669 123.223L81.3455 121.734L79.8618 121.954L79.419 118.976L77.9353 119.196L77.7139 117.707L76.2302 117.927L75.7874 114.949L74.3037 115.169L74.0823 113.68L72.5986 113.9L72.3771 112.411L70.8935 112.632L70.4506 109.653L68.9669 109.873L68.7455 108.384L67.2618 108.605L66.819 105.626L65.3353 105.846L65.1139 104.357L63.6302 104.578L63.1874 101.599L61.7037 101.819L61.4823 100.33L59.9986 100.551L59.7772 99.0612L58.2935 99.2818L57.8506 96.303L56.3669 96.5236L56.1455 95.0342L54.6618 95.2548L54.219 92.276L52.7353 92.4966L52.5139 91.0072L51.0302 91.2278L50.5874 88.249L49.1037 88.4696L48.8823 86.9802L47.3986 87.2008L47.1772 85.7114L45.6935 85.932L45.2506 82.9532L43.7669 83.1738L43.5455 81.6844L42.0618 81.905L41.619 78.9262L40.1353 79.1468L39.9139 77.6574L38.4302 77.878L37.9874 74.8992L36.5037 75.1198L36.2823 73.6304L34.7986 73.851L34.5772 72.3616L33.0935 72.5822L32.6506 69.6034L31.167 69.824L30.9455 68.3346L29.4618 68.5552L29.019 65.5764L27.5353 65.797L27.3139 64.3076L30.2813 63.8665L30.0599 62.3771L31.5436 62.1565L31.3222 60.6671L34.2896 60.226L34.0681 58.7366L35.5518 58.5161L35.3304 57.0267L38.2978 56.5855L38.0764 55.0962L39.5601 54.8756L39.3387 53.3862L40.8224 53.1656L40.601 51.6763L43.5684 51.2351L43.3469 49.7458L44.8306 49.5252L44.6092 48.0358L47.5766 47.5947L47.3552 46.1053L48.8389 45.8847L48.6175 44.3953L51.5849 43.9542L51.3635 42.4648L52.8472 42.2443L52.6257 40.7549L55.5931 40.3137L55.3717 38.8244L56.8554 38.6038L56.634 37.1144L58.1177 36.8939L57.8963 35.4045L60.8637 34.9633L60.6423 33.474L62.126 33.2534L61.9045 31.764L64.8719 31.3229L64.6505 29.8335L66.1342 29.6129L65.9128 28.1235L68.8802 27.6824L68.6588 26.193L70.1425 25.9725L69.9211 24.4831L72.8884 24.0419L73.1099 25.5313Z" fill="white"/>
<path d="M74.3721 23.8214L72.8884 24.0419L72.667 22.5526L74.1507 22.332L74.3721 23.8214Z" fill="white"/>
<path d="M75.6344 22.1114L74.1507 22.332L73.9293 20.8426L75.413 20.6221L75.6344 22.1114Z" fill="white"/>
</svg>
