<svg width="332" height="332" viewBox="0 0 332 332" fill="none" xmlns="http://www.w3.org/2000/svg">
<path d="M230.029 315.4H227.657V313.029H230.029V315.4Z" fill="#00E8F0"/>
<path d="M234.771 315.4H232.4V313.029H234.771V315.4Z" fill="#00E8F0"/>
<path d="M154.143 313.029H151.771V310.657H154.143V313.029Z" fill="#00E8F0"/>
<path d="M258.486 282.2H260.857V284.571H263.229V279.829H267.971V282.2H265.6V286.943H270.343V289.314H272.714V286.943H275.086V291.686H272.714V294.057H267.971V296.429H265.6V298.8H263.229V301.171H258.486V303.543H256.114V305.914H251.371V308.286H246.629V310.657H237.143V313.029H234.771V310.657H232.4V308.286H237.143V305.914H227.657V308.286H225.286V305.914H222.914V308.286H225.286V310.657H218.171V308.286H220.543V305.914H218.171V308.286H215.8V303.543H222.914V301.171H225.286V303.543H227.657V301.171H225.286V298.8H230.029V296.429H234.771V294.057H239.514V291.686H244.257V289.314H246.629V286.943H249V284.571H251.371V282.2H256.114V279.829H258.486V282.2Z" fill="#00E8F0"/>
<path d="M170.743 296.429H168.371V294.057H170.743V296.429Z" fill="#00E8F0"/>
<path d="M194.457 291.686H189.714V289.314H192.086V286.943H194.457V291.686Z" fill="#00E8F0"/>
<path fill-rule="evenodd" clip-rule="evenodd" d="M211.057 284.571H208.686V291.686H203.943V289.314H201.571V284.571H196.829V282.2H194.457V284.571H189.714V279.829H192.086V282.2H194.457V279.829H196.829V277.457H199.2V279.829H206.314V275.086H211.057V284.571ZM203.943 286.943H206.314V282.2H203.943V286.943Z" fill="#00E8F0"/>
<path d="M182.6 289.314H180.229V284.571H182.6V289.314Z" fill="#00E8F0"/>
<path d="M189.714 289.314H184.971V286.943H189.714V289.314Z" fill="#00E8F0"/>
<path d="M227.657 277.457H230.029V282.2H227.657V284.571H222.914V286.943H218.171V284.571H215.8V282.2H213.429V272.714H215.8V275.086H218.171V282.2H222.914V267.971H227.657V277.457Z" fill="#00E8F0"/>
<path d="M272.714 286.943H270.343V284.571H267.971V282.2H272.714V286.943Z" fill="#00E8F0"/>
<path d="M277.457 286.943H275.086V279.829H277.457V286.943Z" fill="#00E8F0"/>
<path d="M263.229 279.829H260.857V277.457H263.229V279.829Z" fill="#00E8F0"/>
<path d="M275.086 279.829H270.343V277.457H272.714V275.086H275.086V279.829Z" fill="#00E8F0"/>
<path d="M284.571 279.829H277.457V277.457H284.571V279.829Z" fill="#00E8F0"/>
<path d="M232.4 267.971H234.771V270.343H237.143V272.714H241.886V267.971H244.257V270.343H246.629V272.714H244.257V275.086H241.886V277.457H234.771V272.714H232.4V270.343H230.029V267.971H227.657V265.6H232.4V267.971Z" fill="#00E8F0"/>
<path d="M272.714 275.086H270.343V277.457H263.229V275.086H265.6V272.714H272.714V275.086Z" fill="#00E8F0"/>
<path d="M213.429 251.371H211.057V256.114H213.429V258.486H208.686V260.857H203.943V263.229H192.086V265.6H187.343V267.971H173.114V270.343H170.743V267.971H161.257V263.229H158.886V267.971H156.514V265.6H151.771V267.971H149.4V265.6H147.029V263.229H149.4V260.857H142.286V258.486H147.029V256.114H149.4V258.486H151.771V263.229H156.514V260.857H154.143V258.486H156.514V256.114H158.886V258.486H173.114V256.114H175.486V258.486H180.229V256.114H189.714V253.743H199.2V251.371H201.571V249H213.429V251.371Z" fill="#00E8F0"/>
<path d="M246.629 267.971H244.257V265.6H246.629V267.971Z" fill="#00E8F0"/>
<path d="M142.286 263.229H144.657V265.6H139.914V263.229H137.543V260.857H142.286V263.229Z" fill="#00E8F0"/>
<path d="M244.257 265.6H239.514V263.229H244.257V265.6Z" fill="#00E8F0"/>
<path d="M253.743 263.229H249V260.857H253.743V263.229Z" fill="#00E8F0"/>
<path d="M54.5429 260.857H52.1714V258.486H54.5429V260.857Z" fill="#00E8F0"/>
<path d="M132.8 260.857H130.429V258.486H132.8V260.857Z" fill="#00E8F0"/>
<path d="M137.543 256.114H139.914V253.743H142.286V258.486H137.543V260.857H135.171V256.114H132.8V253.743H137.543V256.114Z" fill="#00E8F0"/>
<path d="M239.514 260.857H237.143V258.486H239.514V260.857Z" fill="#00E8F0"/>
<path d="M249 260.857H246.629V258.486H249V260.857Z" fill="#00E8F0"/>
<path d="M123.314 249H125.686V251.371H128.057V253.743H130.429V258.486H128.057V256.114H125.686V253.743H123.314V251.371H120.943V249H118.571V246.629H123.314V249Z" fill="#00E8F0"/>
<path d="M132.8 253.743H130.429V251.371H132.8V253.743Z" fill="#00E8F0"/>
<path d="M218.171 251.371H220.543V253.743H215.8V249H218.171V251.371Z" fill="#00E8F0"/>
<path d="M225.286 251.371H222.914V249H225.286V251.371Z" fill="#00E8F0"/>
<path d="M116.2 249H113.829V246.629H116.2V249Z" fill="#00E8F0"/>
<path d="M215.8 249H213.429V244.257H215.8V249Z" fill="#00E8F0"/>
<path d="M227.657 249H225.286V246.629H227.657V249Z" fill="#00E8F0"/>
<path d="M111.457 246.629H109.086V244.257H111.457V246.629Z" fill="#00E8F0"/>
<path d="M118.571 246.629H116.2V244.257H118.571V246.629Z" fill="#00E8F0"/>
<path d="M220.543 244.257H222.914V246.629H218.171V244.257H215.8V241.886H220.543V244.257Z" fill="#00E8F0"/>
<path d="M94.8571 232.4H99.6V234.771H104.343V237.143H106.714V241.886H109.086V244.257H104.343V241.886H101.971V239.514H99.6V237.143H97.2286V234.771H94.8571V237.143H92.4857V230.029H94.8571V232.4Z" fill="#00E8F0"/>
<path d="M113.829 244.257H111.457V241.886H113.829V244.257Z" fill="#00E8F0"/>
<path d="M263.229 244.257H260.857V241.886H263.229V244.257Z" fill="#00E8F0"/>
<path d="M68.7714 156.514H73.5143V161.257H71.1429V158.886H68.7714V161.257H66.4V166H68.7714V161.257H71.1429V166H73.5143V173.114H71.1429V175.486H73.5143V180.229H75.8857V194.457H78.2571V199.2H80.6286V203.943H83V208.686H85.3714V213.429H87.7429V218.171H90.1143V220.543H87.7429V225.286H90.1143V220.543H92.4857V222.914H94.8571V227.657H92.4857V225.286H90.1143V232.4H85.3714V227.657H83V222.914H85.3714V218.171H83V215.8H78.2571V218.171H75.8857V213.429H73.5143V208.686H71.1429V206.314H68.7714V196.829H66.4V192.086H64.0286V154.143H68.7714V156.514Z" fill="#00E8F0"/>
<path d="M101.971 232.4H99.6V230.029H101.971V232.4Z" fill="#00E8F0"/>
<path d="M99.6 230.029H94.8571V227.657H99.6V230.029Z" fill="#00E8F0"/>
<path d="M83 220.543H78.2571V218.171H83V220.543Z" fill="#00E8F0"/>
<path fill-rule="evenodd" clip-rule="evenodd" d="M130.429 192.086H128.057V194.457H130.429V196.829H128.057V206.314H132.8V203.943H137.543V206.314H142.286V208.686H139.914V211.057H142.286V213.429H147.029V215.8H128.057V213.429H123.314V211.057H120.943V203.943H125.686V199.2H123.314V196.829H120.943V192.086H123.314V189.714H130.429V192.086ZM132.8 208.686H135.171V206.314H132.8V208.686Z" fill="#00E8F0"/>
<path d="M161.257 215.8H158.886V213.429H161.257V215.8Z" fill="#00E8F0"/>
<path d="M156.514 206.314H161.257V208.686H158.886V213.429H154.143V211.057H149.4V208.686H151.771V206.314H154.143V203.943H156.514V206.314Z" fill="#00E8F0"/>
<path d="M163.629 211.057H168.371V213.429H161.257V208.686H163.629V211.057Z" fill="#00E8F0"/>
<path d="M147.029 211.057H142.286V208.686H147.029V211.057Z" fill="#00E8F0"/>
<path d="M147.029 201.571H149.4V203.943H151.771V206.314H149.4V208.686H147.029V206.314H144.657V199.2H147.029V201.571Z" fill="#00E8F0"/>
<path d="M123.314 201.571H120.943V199.2H123.314V201.571Z" fill="#00E8F0"/>
<path d="M21.3429 194.457H18.9714V192.086H21.3429V194.457Z" fill="#00E8F0"/>
<path d="M135.171 194.457H132.8V192.086H135.171V194.457Z" fill="#00E8F0"/>
<path d="M16.6 189.714H9.48571V187.343H14.2286V184.971H16.6V189.714Z" fill="#00E8F0"/>
<path d="M9.48571 187.343H7.11429V184.971H9.48571V187.343Z" fill="#00E8F0"/>
<path d="M21.3429 187.343H18.9714V184.971H21.3429V187.343Z" fill="#00E8F0"/>
<path d="M14.2286 135.171H16.6V132.8H18.9714V137.543H11.8571V139.914H14.2286V142.286H18.9714V144.657H21.3429V151.771H18.9714V161.257H21.3429V163.629H18.9714V180.229H14.2286V177.857H11.8571V180.229H7.11429V184.971H2.37143V182.6H4.74286V175.486H9.48571V173.114H2.37143V175.486H0V144.657H2.37143V132.8H4.74286V135.171H7.11429V137.543H9.48571V132.8H11.8571V130.429H14.2286V135.171Z" fill="#00E8F0"/>
<path d="M14.2286 184.971H11.8571V180.229H14.2286V184.971Z" fill="#00E8F0"/>
<path d="M2.37143 180.229H0V177.857H2.37143V180.229Z" fill="#00E8F0"/>
<path d="M45.0571 163.629H47.4286V170.743H45.0571V173.114H42.6857V170.743H37.9429V163.629H40.3143V161.257H45.0571V163.629Z" fill="#00E8F0"/>
<path d="M21.3429 142.286H18.9714V139.914H21.3429V142.286Z" fill="#00E8F0"/>
<path d="M23.7143 132.8H21.3429V130.429H23.7143V132.8Z" fill="#00E8F0"/>
<path d="M11.8571 130.429H4.74286V128.057H11.8571V130.429Z" fill="#00E8F0"/>
<path d="M16.6 128.057H21.3429V130.429H14.2286V128.057H11.8571V125.686H16.6V128.057Z" fill="#00E8F0"/>
<path d="M11.8571 125.686H7.11429V120.943H9.48571V118.571H11.8571V125.686Z" fill="#00E8F0"/>
<path d="M320.143 104.343H317.771V101.971H320.143V104.343Z" fill="#00E8F0"/>
<path d="M315.4 101.971H310.657V99.6H315.4V101.971Z" fill="#00E8F0"/>
<path d="M313.029 92.4857H310.657V99.6H305.914V97.2286H308.286V94.8571H305.914V92.4857H308.286V87.7429H313.029V92.4857Z" fill="#00E8F0"/>
<path d="M305.914 97.2286H303.543V94.8571H305.914V97.2286Z" fill="#00E8F0"/>
<path d="M303.543 94.8571H301.171V90.1143H303.543V94.8571Z" fill="#00E8F0"/>
<path d="M315.4 94.8571H313.029V92.4857H315.4V94.8571Z" fill="#00E8F0"/>
<path d="M296.429 90.1143H298.8V92.4857H294.057V87.7429H296.429V90.1143Z" fill="#00E8F0"/>
<path fill-rule="evenodd" clip-rule="evenodd" d="M177.857 2.37143H196.829V4.74286H203.943V7.11429H206.314V4.74286H208.686V7.11429H213.429V9.48571H220.543V11.8571H227.657V14.2286H234.771V16.6H239.514V18.9714H244.257V21.3429H246.629V23.7143H251.371V26.0857H256.114V28.4571H258.486V30.8286H260.857V33.2H263.229V35.5714H270.343V37.9429H272.714V40.3143H275.086V42.6857H277.457V45.0571H279.829V49.8H284.571V52.1714H286.943V54.5429H289.314V56.9143H291.686V59.2857H294.057V61.6571H296.429V66.4H298.8V68.7714H301.171V73.5143H303.543V75.8857H305.914V78.2571H308.286V80.6286H303.543V85.3714H301.171V90.1143H298.8V87.7429H296.429V85.3714H294.057V87.7429H289.314V85.3714H291.686V83H294.057V80.6286H296.429V78.2571H298.8V75.8857H296.429V78.2571H294.057V75.8857H291.686V73.5143H289.314V78.2571H286.943V75.8857H284.571V73.5143H286.943V71.1429H284.571V73.5143H279.829V71.1429H277.457V66.4H279.829V64.0286H272.714V61.6571H270.343V64.0286H267.971V61.6571H265.6V56.9143H260.857V54.5429H258.486V52.1714H256.114V49.8H253.743V47.4286H251.371V45.0571H246.629V42.6857H244.257V40.3143H239.514V37.9429H237.143V35.5714H230.029V33.2H227.657V30.8286H220.543V28.4571H215.8V26.0857H208.686V23.7143H203.943V21.3429H196.829V16.6H192.086V18.9714H187.343V16.6H189.714V11.8571H187.343V14.2286H182.6V11.8571H180.229V16.6H177.857V11.8571H175.486V16.6H173.114V11.8571H163.629V16.6H161.257V11.8571H154.143V9.48571H151.771V7.11429H147.029V4.74286H139.914V2.37143H149.4V0H177.857V2.37143ZM298.8 83H301.171V80.6286H298.8V83ZM282.2 68.7714H284.571V66.4H282.2V68.7714Z" fill="#00E8F0"/>
<path d="M305.914 87.7429H303.543V85.3714H305.914V87.7429Z" fill="#00E8F0"/>
<path d="M308.286 85.3714H305.914V83H308.286V85.3714Z" fill="#00E8F0"/>
<path d="M289.314 83H286.943V80.6286H289.314V83Z" fill="#00E8F0"/>
<path d="M256.114 80.6286H253.743V78.2571H256.114V80.6286Z" fill="#00E8F0"/>
<path d="M284.571 78.2571H282.2V75.8857H284.571V78.2571Z" fill="#00E8F0"/>
<path d="M275.086 68.7714H272.714V66.4H275.086V68.7714Z" fill="#00E8F0"/>
<path d="M227.657 66.4H225.286V64.0286H227.657V66.4Z" fill="#00E8F0"/>
<path d="M244.257 61.6571H239.514V59.2857H244.257V61.6571Z" fill="#00E8F0"/>
<path d="M237.143 56.9143H234.771V54.5429H237.143V56.9143Z" fill="#00E8F0"/>
<path d="M244.257 56.9143H239.514V54.5429H244.257V56.9143Z" fill="#00E8F0"/>
<path d="M230.029 52.1714H227.657V49.8H230.029V52.1714Z" fill="#00E8F0"/>
<path d="M182.6 49.8H180.229V47.4286H182.6V49.8Z" fill="#00E8F0"/>
<path d="M128.057 47.4286H125.686V45.0571H128.057V47.4286Z" fill="#00E8F0"/>
<path d="M177.857 21.3429H175.486V16.6H177.857V21.3429Z" fill="#00E8F0"/>
<path d="M194.457 21.3429H192.086V18.9714H194.457V21.3429Z" fill="#00E8F0"/>
<path d="M170.743 18.9714H168.371V16.6H170.743V18.9714Z" fill="#00E8F0"/>
<path d="M184.971 18.9714H182.6V16.6H184.971V18.9714Z" fill="#00E8F0"/>
<path d="M168.371 16.6H166V14.2286H168.371V16.6Z" fill="#00E8F0"/>
<path d="M215.8 320.143V317.772H218.171V315.4H220.543V313.029H218.171V315.4H215.8V313.029H213.429V315.4H215.8V317.772H206.314V313.029H208.686V310.657H211.057V313.029H213.429V305.914H211.057V303.543H215.8V308.286H218.171V310.657H225.286V308.286H227.657V305.914H237.143V308.286H232.4V310.657H234.771V313.029H232.4V315.4H234.771V317.772H227.657V315.4H230.029V313.029H227.657V315.4H222.914V317.772H220.543V320.143H218.171V322.514H213.429V320.143H215.8Z" fill="#CAFAFC"/>
<path d="M227.657 320.143H225.286V317.772H227.657V320.143Z" fill="#CAFAFC"/>
<path d="M241.886 313.029H239.514V315.4H234.771V313.029H237.143V310.657H241.886V313.029Z" fill="#CAFAFC"/>
<path d="M206.314 310.657H203.943V313.029H199.2V308.286H206.314V310.657Z" fill="#CAFAFC"/>
<path d="M208.686 308.286H206.314V305.914H208.686V308.286Z" fill="#CAFAFC"/>
<path d="M220.543 308.286H218.171V305.914H220.543V308.286Z" fill="#CAFAFC"/>
<path d="M225.286 308.286H222.914V305.914H225.286V308.286Z" fill="#CAFAFC"/>
<path d="M222.914 303.543H220.543V301.172H222.914V303.543Z" fill="#CAFAFC"/>
<path d="M227.657 303.543H225.286V301.172H227.657V303.543Z" fill="#CAFAFC"/>
<path d="M225.286 301.172H222.914V298.8H225.286V301.172Z" fill="#CAFAFC"/>
<path d="M168.371 296.429H166V294.057H168.371V296.429Z" fill="#CAFAFC"/>
<path d="M175.486 296.429H170.743V294.057H173.114V291.686H170.743V289.314H173.114V282.2H175.486V296.429Z" fill="#CAFAFC"/>
<path d="M194.457 296.429H192.086V294.057H189.714V291.686H194.457V296.429Z" fill="#CAFAFC"/>
<path d="M170.743 294.057H168.371V291.686H170.743V294.057Z" fill="#CAFAFC"/>
<path d="M184.971 289.314H189.714V291.686H180.229V289.314H182.6V286.943H184.971V289.314Z" fill="#CAFAFC"/>
<path d="M182.6 284.572H180.229V289.314H177.857V282.2H182.6V284.572Z" fill="#CAFAFC"/>
<path d="M194.457 286.943H192.086V289.314H189.714V284.572H194.457V286.943Z" fill="#CAFAFC"/>
<path d="M272.714 289.314H270.343V286.943H272.714V289.314Z" fill="#CAFAFC"/>
<path d="M277.457 289.314H275.086V286.943H277.457V289.314Z" fill="#CAFAFC"/>
<path d="M163.629 286.943H161.257V282.2H163.629V286.943Z" fill="#CAFAFC"/>
<path d="M168.371 286.943H166V284.572H168.371V286.943Z" fill="#CAFAFC"/>
<path d="M201.571 286.943H199.2V284.572H201.571V286.943Z" fill="#CAFAFC"/>
<path d="M267.971 284.572H270.343V286.943H265.6V282.2H267.971V284.572Z" fill="#CAFAFC"/>
<path d="M260.857 279.829H263.229V277.457H270.343V279.829H275.086V286.943H272.714V282.2H267.971V279.829H263.229V284.572H260.857V282.2H258.486V277.457H260.857V279.829Z" fill="#CAFAFC"/>
<path d="M284.571 282.2H282.2V284.572H279.829V286.943H277.457V279.829H284.571V282.2Z" fill="#CAFAFC"/>
<path d="M156.514 284.572H151.771V282.2H156.514V284.572Z" fill="#CAFAFC"/>
<path d="M284.571 270.343H282.2V267.972H275.086V270.343H282.2V272.714H286.943V270.343H291.686V275.086H289.314V272.714H286.943V279.829H284.571V275.086H282.2V277.457H277.457V279.829H275.086V275.086H279.829V272.714H275.086V275.086H272.714V272.714H267.971V270.343H270.343V267.972H272.714V265.6H277.457V263.229H279.829V265.6H282.2V260.857H284.571V270.343Z" fill="#CAFAFC"/>
<path d="M272.714 277.457H270.343V275.086H272.714V277.457Z" fill="#CAFAFC"/>
<path d="M249 270.343H244.257V267.972H249V270.343Z" fill="#CAFAFC"/>
<path d="M149.4 263.229H147.029V265.6H149.4V267.972H144.657V263.229H142.286V260.857H149.4V263.229Z" fill="#CAFAFC"/>
<path d="M156.514 267.972H151.771V265.6H156.514V267.972Z" fill="#CAFAFC"/>
<path d="M161.257 267.972H158.886V263.229H161.257V267.972Z" fill="#CAFAFC"/>
<path d="M244.257 267.972H241.886V265.6H244.257V267.972Z" fill="#CAFAFC"/>
<path d="M294.057 267.972H291.686V265.6H294.057V267.972Z" fill="#CAFAFC"/>
<path fill-rule="evenodd" clip-rule="evenodd" d="M132.8 256.114H135.171V260.857H137.543V263.229H139.914V265.6H135.171V263.229H128.057V260.857H125.686V256.114H128.057V258.486H130.429V253.743H132.8V256.114ZM130.429 260.857H132.8V258.486H130.429V260.857Z" fill="#CAFAFC"/>
<path d="M232.4 265.6H230.029V263.229H232.4V265.6Z" fill="#CAFAFC"/>
<path d="M154.143 260.857H156.514V263.229H151.771V258.486H154.143V260.857Z" fill="#CAFAFC"/>
<path d="M244.257 263.229H237.143V260.857H244.257V263.229Z" fill="#CAFAFC"/>
<path d="M249 263.229H246.629V260.857H249V263.229Z" fill="#CAFAFC"/>
<path d="M258.486 253.743H260.857V256.114H258.486V258.486H260.857V260.857H256.114V263.229H253.743V258.486H256.114V249H258.486V253.743Z" fill="#CAFAFC"/>
<path d="M142.286 260.857H137.543V258.486H142.286V260.857Z" fill="#CAFAFC"/>
<path d="M237.143 260.857H234.771V258.486H237.143V260.857Z" fill="#CAFAFC"/>
<path d="M246.629 260.857H244.257V256.114H246.629V260.857Z" fill="#CAFAFC"/>
<path d="M251.371 260.857H249V258.486H251.371V260.857Z" fill="#CAFAFC"/>
<path d="M279.829 260.857H277.457V258.486H279.829V260.857Z" fill="#CAFAFC"/>
<path d="M104.343 244.257H109.086V246.629H111.457V244.257H116.2V246.629H113.829V249H116.2V246.629H118.571V249H120.943V251.372H123.314V253.743H125.686V256.114H123.314V258.486H120.943V256.114H118.571V253.743H116.2V256.114H113.829V253.743H109.086V251.372H106.714V246.629H101.971V241.886H104.343V244.257Z" fill="#CAFAFC"/>
<path d="M144.657 256.114H147.029V258.486H142.286V253.743H144.657V256.114Z" fill="#CAFAFC"/>
<path d="M139.914 256.114H137.543V253.743H139.914V256.114Z" fill="#CAFAFC"/>
<path d="M215.8 253.743H218.171V256.114H211.057V251.372H213.429V249H215.8V253.743Z" fill="#CAFAFC"/>
<path d="M249 256.114H246.629V251.372H249V256.114Z" fill="#CAFAFC"/>
<path d="M130.429 253.743H128.057V251.372H130.429V253.743Z" fill="#CAFAFC"/>
<path d="M135.171 253.743H132.8V251.372H135.171V253.743Z" fill="#CAFAFC"/>
<path d="M230.029 244.257H232.4V246.629H225.286V249H222.914V253.743H220.543V251.372H218.171V249H215.8V244.257H218.171V246.629H222.914V244.257H227.657V241.886H230.029V244.257Z" fill="#CAFAFC"/>
<path d="M253.743 251.372H249V246.629H253.743V251.372Z" fill="#CAFAFC"/>
<path d="M265.6 251.372H263.229V249H265.6V251.372Z" fill="#CAFAFC"/>
<path d="M213.429 249H206.314V246.629H213.429V249Z" fill="#CAFAFC"/>
<path d="M97.2286 237.143H99.6V239.514H101.971V241.886H99.6V244.257H97.2286V241.886H94.8571V239.514H92.4857V237.143H94.8571V234.772H97.2286V237.143Z" fill="#CAFAFC"/>
<path d="M111.457 244.257H109.086V241.886H111.457V244.257Z" fill="#CAFAFC"/>
<path d="M234.771 244.257H232.4V237.143H234.771V244.257Z" fill="#CAFAFC"/>
<path d="M109.086 241.886H106.714V237.143H109.086V241.886Z" fill="#CAFAFC"/>
<path d="M225.286 239.514H227.657V241.886H222.914V239.514H220.543V237.143H225.286V239.514Z" fill="#CAFAFC"/>
<path d="M73.5143 237.143H71.1429V234.772H73.5143V237.143Z" fill="#CAFAFC"/>
<path d="M92.4857 227.657H94.8571V230.029H92.4857V237.143H90.1143V234.772H87.7429V232.4H90.1143V225.286H92.4857V227.657Z" fill="#CAFAFC"/>
<path d="M106.714 237.143H104.343V234.772H106.714V237.143Z" fill="#CAFAFC"/>
<path d="M227.657 237.143H225.286V234.772H227.657V237.143Z" fill="#CAFAFC"/>
<path d="M104.343 234.772H99.6V232.4H104.343V234.772Z" fill="#CAFAFC"/>
<path d="M234.771 234.772H232.4V232.4H234.771V234.772Z" fill="#CAFAFC"/>
<path d="M99.6 232.4H94.8571V230.029H99.6V232.4Z" fill="#CAFAFC"/>
<path d="M234.771 230.029H232.4V227.657H234.771V230.029Z" fill="#CAFAFC"/>
<path d="M52.1714 227.657H49.8V225.286H52.1714V227.657Z" fill="#CAFAFC"/>
<path d="M59.2857 227.657H54.5429V225.286H59.2857V227.657Z" fill="#CAFAFC"/>
<path d="M97.2286 227.657H94.8571V225.286H97.2286V227.657Z" fill="#CAFAFC"/>
<path d="M56.9143 222.914H54.5429V225.286H52.1714V222.914H49.8V220.543H56.9143V222.914Z" fill="#CAFAFC"/>
<path d="M66.4 225.286H64.0286V222.914H66.4V225.286Z" fill="#CAFAFC"/>
<path d="M90.1143 225.286H87.7429V220.543H90.1143V225.286Z" fill="#CAFAFC"/>
<path d="M61.6571 222.914H59.2857V220.543H56.9143V218.172H61.6571V222.914Z" fill="#CAFAFC"/>
<path d="M85.3714 222.914H80.6286V220.543H83V218.172H85.3714V222.914Z" fill="#CAFAFC"/>
<path d="M83 218.172H78.2571V215.8H83V218.172Z" fill="#CAFAFC"/>
<path d="M158.886 215.8H154.143V213.429H158.886V215.8Z" fill="#CAFAFC"/>
<path fill-rule="evenodd" clip-rule="evenodd" d="M168.371 206.314H173.114V208.686H170.743V211.057H173.114V213.429H177.857V208.686H182.6V203.943H184.971V206.314H189.714V208.686H184.971V215.8H168.371V208.686H166V211.057H163.629V203.943H166V194.457H168.371V206.314ZM180.229 213.429H182.6V211.057H180.229V213.429Z" fill="#CAFAFC"/>
<path d="M203.943 215.8H196.829V213.429H203.943V215.8Z" fill="#CAFAFC"/>
<path d="M149.4 211.057H154.143V213.429H142.286V211.057H147.029V208.686H149.4V211.057Z" fill="#CAFAFC"/>
<path d="M161.257 213.429H158.886V208.686H161.257V213.429Z" fill="#CAFAFC"/>
<path d="M194.457 213.429H187.343V211.057H189.714V208.686H194.457V213.429Z" fill="#CAFAFC"/>
<path d="M142.286 211.057H139.914V208.686H142.286V211.057Z" fill="#CAFAFC"/>
<path d="M26.0857 208.686H23.7143V206.314H26.0857V208.686Z" fill="#CAFAFC"/>
<path d="M135.171 208.686H132.8V206.314H135.171V208.686Z" fill="#CAFAFC"/>
<path d="M144.657 206.314H147.029V208.686H142.286V206.314H137.543V203.943H144.657V206.314Z" fill="#CAFAFC"/>
<path d="M151.771 208.686H149.4V206.314H151.771V208.686Z" fill="#CAFAFC"/>
<path d="M18.9714 206.314H16.6V203.943H18.9714V206.314Z" fill="#CAFAFC"/>
<path d="M23.7143 206.314H21.3429V203.943H23.7143V206.314Z" fill="#CAFAFC"/>
<path d="M128.057 187.343H130.429V180.229H135.171V182.6H132.8V184.972H135.171V187.343H137.543V189.714H135.171V192.086H132.8V206.314H128.057V196.829H130.429V194.457H128.057V192.086H130.429V189.714H132.8V187.343H130.429V189.714H120.943V184.972H125.686V180.229H128.057V187.343Z" fill="#CAFAFC"/>
<path fill-rule="evenodd" clip-rule="evenodd" d="M147.029 192.086H149.4V194.457H151.771V196.829H154.143V199.2H158.886V194.457H161.257V196.829H163.629V203.943H161.257V206.314H156.514V201.572H154.143V206.314H151.771V203.943H149.4V201.572H147.029V199.2H149.4V196.829H147.029V194.457H142.286V192.086H139.914V194.457H137.543V189.714H147.029V192.086ZM158.886 201.572H161.257V199.2H158.886V201.572Z" fill="#CAFAFC"/>
<path d="M16.6 203.943H11.8571V201.572H16.6V203.943Z" fill="#CAFAFC"/>
<path d="M21.3429 203.943H18.9714V201.572H21.3429V203.943Z" fill="#CAFAFC"/>
<path d="M125.686 203.943H120.943V201.572H123.314V199.2H125.686V203.943Z" fill="#CAFAFC"/>
<path d="M180.229 203.943H177.857V199.2H180.229V203.943Z" fill="#CAFAFC"/>
<path d="M11.8571 199.2H9.48571V201.572H7.11429V199.2H4.74286V196.829H11.8571V199.2Z" fill="#CAFAFC"/>
<path d="M18.9714 199.2H16.6V194.457H18.9714V199.2Z" fill="#CAFAFC"/>
<path d="M123.314 199.2H120.943V196.829H123.314V199.2Z" fill="#CAFAFC"/>
<path d="M14.2286 196.829H11.8571V194.457H14.2286V196.829Z" fill="#CAFAFC"/>
<path fill-rule="evenodd" clip-rule="evenodd" d="M11.8571 184.972H14.2286V180.229H18.9714V182.6H21.3429V184.972H18.9714V187.343H21.3429V192.086H16.6V194.457H14.2286V192.086H4.74286V194.457H2.37143V189.714H4.74286V187.343H0V182.6H2.37143V184.972H7.11429V180.229H11.8571V184.972ZM7.11429 189.714H16.6V184.972H14.2286V187.343H9.48571V184.972H7.11429V189.714Z" fill="#CAFAFC"/>
<path d="M158.886 194.457H154.143V192.086H156.514V189.714H158.886V194.457Z" fill="#CAFAFC"/>
<path d="M154.143 187.343H156.514V189.714H154.143V192.086H151.771V184.972H154.143V187.343Z" fill="#CAFAFC"/>
<path d="M163.629 192.086H161.257V189.714H163.629V192.086Z" fill="#CAFAFC"/>
<path d="M149.4 189.714H147.029V184.972H149.4V189.714Z" fill="#CAFAFC"/>
<path d="M144.657 187.343H142.286V184.972H144.657V187.343Z" fill="#CAFAFC"/>
<path d="M9.48571 175.486H4.74286V182.6H2.37143V177.857H0V175.486H2.37143V173.114H9.48571V175.486Z" fill="#CAFAFC"/>
<path d="M14.2286 180.229H11.8571V177.857H14.2286V180.229Z" fill="#CAFAFC"/>
<path d="M125.686 180.229H123.314V177.857H125.686V180.229Z" fill="#CAFAFC"/>
<path d="M130.429 180.229H128.057V177.857H130.429V180.229Z" fill="#CAFAFC"/>
<path d="M128.057 177.857H125.686V173.114H128.057V177.857Z" fill="#CAFAFC"/>
<path d="M135.171 177.857H132.8V175.486H135.171V177.857Z" fill="#CAFAFC"/>
<path d="M73.5143 175.486H71.1429V173.114H73.5143V175.486Z" fill="#CAFAFC"/>
<path d="M68.7714 166H66.4V161.257H68.7714V166Z" fill="#CAFAFC"/>
<path d="M73.5143 166H71.1429V161.257H73.5143V166Z" fill="#CAFAFC"/>
<path d="M64.0286 161.257H61.6571V158.886H64.0286V161.257Z" fill="#CAFAFC"/>
<path d="M71.1429 161.257H68.7714V158.886H71.1429V161.257Z" fill="#CAFAFC"/>
<path d="M64.0286 156.514H61.6571V154.143H64.0286V156.514Z" fill="#CAFAFC"/>
<path d="M66.4 151.772H71.1429V156.514H68.7714V154.143H64.0286V149.4H66.4V151.772Z" fill="#CAFAFC"/>
<path d="M75.8857 151.772H71.1429V149.4H75.8857V151.772Z" fill="#CAFAFC"/>
<path d="M68.7714 149.4H66.4V147.029H68.7714V149.4Z" fill="#CAFAFC"/>
<path d="M75.8857 144.657H73.5143V142.286H71.1429V144.657H73.5143V147.029H68.7714V144.657H64.0286V142.286H68.7714V139.914H75.8857V144.657Z" fill="#CAFAFC"/>
<path d="M21.3429 144.657H18.9714V142.286H21.3429V144.657Z" fill="#CAFAFC"/>
<path d="M21.3429 139.914H18.9714V142.286H14.2286V139.914H11.8571V137.543H18.9714V132.8H16.6V135.172H14.2286V130.429H21.3429V139.914Z" fill="#CAFAFC"/>
<path d="M11.8571 132.8H9.48571V137.543H7.11429V135.172H4.74286V132.8H2.37143V130.429H11.8571V132.8Z" fill="#CAFAFC"/>
<path d="M14.2286 130.429H11.8571V128.057H14.2286V130.429Z" fill="#CAFAFC"/>
<path d="M23.7143 130.429H21.3429V128.057H23.7143V130.429Z" fill="#CAFAFC"/>
<path d="M11.8571 128.057H4.74286V125.686H11.8571V128.057Z" fill="#CAFAFC"/>
<path d="M16.6 118.572H18.9714V120.943H16.6V123.314H18.9714V125.686H21.3429V128.057H16.6V125.686H11.8571V116.2H16.6V118.572Z" fill="#CAFAFC"/>
<path d="M324.886 128.057H322.514V123.314H324.886V128.057Z" fill="#CAFAFC"/>
<path d="M26.0857 125.686H23.7143V123.314H26.0857V125.686Z" fill="#CAFAFC"/>
<path d="M23.7143 123.314H18.9714V120.943H23.7143V123.314Z" fill="#CAFAFC"/>
<path d="M317.771 123.314H315.4V120.943H317.771V123.314Z" fill="#CAFAFC"/>
<path d="M9.48571 120.943H7.11429V116.2H9.48571V120.943Z" fill="#CAFAFC"/>
<path d="M28.4571 116.2H26.0857V120.943H23.7143V113.829H26.0857V111.457H28.4571V116.2Z" fill="#CAFAFC"/>
<path d="M308.286 113.829H317.771V111.457H320.143V116.2H322.514V118.572H324.886V120.943H317.771V116.2H315.4V120.943H313.029V118.572H310.657V116.2H305.914V113.829H303.543V111.457H308.286V113.829Z" fill="#CAFAFC"/>
<path d="M11.8571 111.457H14.2286V109.086H16.6V113.829H11.8571V116.2H9.48571V109.086H11.8571V111.457Z" fill="#CAFAFC"/>
<path d="M23.7143 111.457H21.3429V116.2H18.9714V109.086H23.7143V111.457Z" fill="#CAFAFC"/>
<path d="M313.029 94.8573H315.4V97.2287H317.771V104.343H320.143V109.086H315.4V111.457H313.029V106.714H315.4V104.343H313.029V106.714H310.657V109.086H303.543V111.457H301.171V106.714H305.914V104.343H303.543V101.972H305.914V99.6001H310.657V101.972H315.4V99.6001H310.657V92.4858H313.029V94.8573Z" fill="#CAFAFC"/>
<path d="M18.9714 109.086H16.6V106.714H18.9714V109.086Z" fill="#CAFAFC"/>
<path d="M14.2286 106.714H11.8571V104.343H14.2286V106.714Z" fill="#CAFAFC"/>
<path d="M301.171 106.714H298.8V104.343H301.171V106.714Z" fill="#CAFAFC"/>
<path d="M298.8 101.972H296.429V99.6001H298.8V101.972Z" fill="#CAFAFC"/>
<path d="M303.543 97.2287H305.914V99.6001H298.8V97.2287H301.171V94.8573H303.543V97.2287Z" fill="#CAFAFC"/>
<path d="M301.171 94.8573H298.8V97.2287H294.057V92.4858H298.8V90.1144H301.171V94.8573Z" fill="#CAFAFC"/>
<path d="M308.286 97.2287H305.914V94.8573H308.286V97.2287Z" fill="#CAFAFC"/>
<path d="M270.343 94.8573H267.971V92.4858H270.343V94.8573Z" fill="#CAFAFC"/>
<path d="M275.086 94.8573H272.714V92.4858H275.086V94.8573Z" fill="#CAFAFC"/>
<path d="M310.657 87.743H308.286V92.4858H305.914V94.8573H303.543V90.1144H301.171V85.3716H303.543V87.743H305.914V85.3716H308.286V83.0001H310.657V87.743Z" fill="#CAFAFC"/>
<path d="M294.057 92.4858H291.686V87.743H294.057V92.4858Z" fill="#CAFAFC"/>
<path d="M315.4 92.4858H313.029V90.1144H315.4V92.4858Z" fill="#CAFAFC"/>
<path d="M267.971 90.1144H263.229V87.743H265.6V85.3716H267.971V90.1144Z" fill="#CAFAFC"/>
<path d="M298.8 90.1144H296.429V87.743H298.8V90.1144Z" fill="#CAFAFC"/>
<path d="M258.486 87.743H256.114V85.3716H253.743V83.0001H258.486V87.743Z" fill="#CAFAFC"/>
<path d="M296.429 87.743H294.057V85.3716H296.429V87.743Z" fill="#CAFAFC"/>
<path d="M291.686 75.8858H294.057V78.2573H296.429V80.6287H294.057V83.0001H291.686V85.3716H286.943V83.0001H289.314V80.6287H284.571V75.8858H286.943V78.2573H289.314V73.5144H291.686V75.8858Z" fill="#CAFAFC"/>
<path d="M308.286 83.0001H305.914V85.3716H303.543V80.6287H308.286V83.0001Z" fill="#CAFAFC"/>
<path d="M253.743 83.0001H251.371V80.6287H253.743V83.0001Z" fill="#CAFAFC"/>
<path d="M267.971 83.0001H265.6V80.6287H267.971V83.0001Z" fill="#CAFAFC"/>
<path d="M301.171 83.0001H298.8V80.6287H301.171V83.0001Z" fill="#CAFAFC"/>
<path d="M251.371 80.6287H244.257V78.2573H251.371V80.6287Z" fill="#CAFAFC"/>
<path d="M258.486 78.2573H263.229V80.6287H256.114V75.8858H258.486V78.2573Z" fill="#CAFAFC"/>
<path d="M298.8 78.2573H296.429V75.8858H298.8V78.2573Z" fill="#CAFAFC"/>
<path d="M239.514 75.8858H237.143V73.5144H239.514V75.8858Z" fill="#CAFAFC"/>
<path d="M260.857 75.8858H258.486V73.5144H260.857V75.8858Z" fill="#CAFAFC"/>
<path d="M284.571 75.8858H282.2V73.5144H284.571V75.8858Z" fill="#CAFAFC"/>
<path d="M237.143 73.5144H234.771V71.143H237.143V73.5144Z" fill="#CAFAFC"/>
<path d="M258.486 73.5144H251.371V71.143H256.114V68.7716H258.486V73.5144Z" fill="#CAFAFC"/>
<path d="M286.943 73.5144H284.571V71.143H286.943V73.5144Z" fill="#CAFAFC"/>
<path d="M246.629 64.0287H244.257V68.7716H239.514V71.143H237.143V66.4001H241.886V64.0287H239.514V61.6573H244.257V59.2858H246.629V64.0287Z" fill="#CAFAFC"/>
<path d="M232.4 66.4001H230.029V68.7716H227.657V64.0287H232.4V66.4001Z" fill="#CAFAFC"/>
<path d="M272.714 64.0287H279.829V66.4001H277.457V68.7716H275.086V66.4001H270.343V61.6573H272.714V64.0287Z" fill="#CAFAFC"/>
<path d="M284.571 68.7716H282.2V66.4001H284.571V68.7716Z" fill="#CAFAFC"/>
<path d="M222.914 59.2858H225.286V61.6573H222.914V64.0287H220.543V61.6573H218.171V59.2858H220.543V56.9144H222.914V59.2858Z" fill="#CAFAFC"/>
<path d="M215.8 61.6573H213.429V59.2858H215.8V61.6573Z" fill="#CAFAFC"/>
<path d="M232.4 61.6573H230.029V59.2858H232.4V61.6573Z" fill="#CAFAFC"/>
<path d="M213.429 59.2858H208.686V56.9144H213.429V59.2858Z" fill="#CAFAFC"/>
<path d="M227.657 52.1716H230.029V54.543H227.657V59.2858H225.286V56.9144H222.914V52.1716H225.286V49.8001H227.657V52.1716Z" fill="#CAFAFC"/>
<path d="M237.143 59.2858H232.4V56.9144H237.143V59.2858Z" fill="#CAFAFC"/>
<path d="M208.686 56.9144H206.314V54.543H208.686V56.9144Z" fill="#CAFAFC"/>
<path d="M246.629 56.9144H244.257V54.543H246.629V56.9144Z" fill="#CAFAFC"/>
<path d="M211.057 54.543H208.686V52.1716H211.057V54.543Z" fill="#CAFAFC"/>
<path d="M220.543 54.543H218.171V52.1716H220.543V54.543Z" fill="#CAFAFC"/>
<path d="M241.886 54.543H239.514V52.1716H241.886V54.543Z" fill="#CAFAFC"/>
<path d="M201.571 52.1716H199.2V49.8001H201.571V52.1716Z" fill="#CAFAFC"/>
<path d="M208.686 52.1716H206.314V49.8001H208.686V52.1716Z" fill="#CAFAFC"/>
<path d="M215.8 49.8001H213.429V52.1716H211.057V49.8001H208.686V47.4287H213.429V45.0573H211.057V42.6858H215.8V49.8001Z" fill="#CAFAFC"/>
<path d="M218.171 52.1716H215.8V49.8001H218.171V52.1716Z" fill="#CAFAFC"/>
<path d="M194.457 49.8001H192.086V47.4287H194.457V49.8001Z" fill="#CAFAFC"/>
<path d="M203.943 49.8001H201.571V47.4287H203.943V49.8001Z" fill="#CAFAFC"/>
<path d="M206.314 47.4287H203.943V42.6858H201.571V40.3144H206.314V47.4287Z" fill="#CAFAFC"/>
<path d="M192.086 42.6858H196.829V45.0573H189.714V40.3144H192.086V42.6858Z" fill="#CAFAFC"/>
<path d="M180.229 42.6858H177.857V37.943H180.229V42.6858Z" fill="#CAFAFC"/>
<path d="M196.829 40.3144H194.457V37.943H192.086V35.5716H196.829V40.3144Z" fill="#CAFAFC"/>
<path d="M168.371 37.943H166V35.5716H168.371V37.943Z" fill="#CAFAFC"/>
<path d="M182.6 37.943H180.229V35.5716H177.857V37.943H175.486V33.2001H182.6V37.943Z" fill="#CAFAFC"/>
<path d="M170.743 35.5716H168.371V33.2001H170.743V35.5716Z" fill="#CAFAFC"/>
<path d="M227.657 33.2001H225.286V30.8287H227.657V33.2001Z" fill="#CAFAFC"/>
<path d="M203.943 23.7144H199.2V21.343H203.943V23.7144Z" fill="#CAFAFC"/>
<path d="M173.114 16.6001H175.486V21.343H173.114V18.9716H170.743V16.6001H168.371V14.2287H166V16.6001H163.629V11.8573H173.114V16.6001Z" fill="#CAFAFC"/>
<path d="M192.086 21.343H187.343V18.9716H192.086V21.343Z" fill="#CAFAFC"/>
<path d="M196.829 21.343H194.457V18.9716H192.086V16.6001H196.829V21.343Z" fill="#CAFAFC"/>
<path d="M139.914 16.6001H142.286V14.2287H144.657V18.9716H137.543V16.6001H135.171V14.2287H139.914V16.6001Z" fill="#CAFAFC"/>
<path d="M149.4 18.9716H147.029V16.6001H149.4V18.9716Z" fill="#CAFAFC"/>
<path d="M154.143 11.8573H161.257V16.6001H163.629V18.9716H156.514V16.6001H158.886V14.2287H156.514V16.6001H154.143V14.2287H149.4V9.48584H154.143V11.8573Z" fill="#CAFAFC"/>
<path d="M168.371 18.9716H166V16.6001H168.371V18.9716Z" fill="#CAFAFC"/>
<path d="M182.6 14.2287H187.343V11.8573H189.714V16.6001H187.343V18.9716H184.971V16.6001H182.6V18.9716H177.857V16.6001H180.229V11.8573H182.6V14.2287Z" fill="#CAFAFC"/>
<path d="M177.857 16.6001H175.486V11.8573H177.857V16.6001Z" fill="#CAFAFC"/>
<path d="M137.543 329.629H135.171V327.257H137.543V329.629Z" fill="#00E8F0"/>
<path d="M49.7999 279.829H52.1714V282.2H56.9142V284.572H61.6571V286.943H66.3999V289.314H68.7714V291.686H73.5142V294.057H78.2571V296.429H82.9999V298.8H85.3714V301.172H90.1142V303.543H92.4856V305.914H99.5999V308.286H101.971V310.657H106.714V313.029H111.457V315.4H116.2V317.772H120.943V320.143H123.314V322.514H130.428V324.886H128.057V327.257H123.314V324.886H113.828V322.514H109.086V320.143H104.343V317.772H97.2285V315.4H92.4856V313.029H87.7428V310.657H82.9999V308.286H78.2571V305.914H75.8856V303.543H73.5142V301.172H68.7714V298.8H66.3999V296.429H64.0285V294.057H61.6571V291.686H56.9142V289.314H54.5428V286.943H52.1714V284.572H49.7999V282.2H47.4285V279.829H45.0571V277.457H49.7999V279.829Z" fill="#00E8F0"/>
<path d="M132.8 327.257H130.428V324.886H132.8V327.257Z" fill="#00E8F0"/>
<path d="M45.0571 277.457H42.6856V275.086H45.0571V277.457Z" fill="#00E8F0"/>
<path d="M42.6856 275.086H40.3142V272.714H42.6856V275.086Z" fill="#00E8F0"/>
<path d="M322.514 222.914H320.143V220.543H322.514V222.914Z" fill="#00E8F0"/>
<path d="M313.029 187.343H315.4V189.714H317.771V192.086H322.514V194.457H329.629V196.829H327.257V206.314H324.886V213.429H320.143V211.057H317.771V208.686H310.657V206.314H305.914V203.943H308.286V196.829H310.657V184.972H313.029V187.343Z" fill="#00E8F0"/>
<path d="M215.8 208.686H213.429V206.314H215.8V208.686Z" fill="#00E8F0"/>
<path d="M263.229 158.886H270.343V166H267.971V182.6H265.6V180.229H260.857V175.486H258.486V156.514H263.229V158.886Z" fill="#00E8F0"/>
<path d="M284.571 173.114H282.2V170.743H284.571V173.114Z" fill="#00E8F0"/>
<path d="M282.2 170.743H279.829V168.372H282.2V170.743Z" fill="#00E8F0"/>
<path d="M310.657 135.172H308.286V132.8H310.657V135.172Z" fill="#00E8F0"/>
<path d="M168.371 104.343H173.114V106.714H175.486V109.086H177.857V111.457H180.229V118.572H182.6V125.686H184.971V132.8H182.6V130.429H175.486V125.686H168.371V123.314H166V120.943H161.257V118.572H156.514V116.2H158.886V109.086H161.257V106.714H163.629V104.343H166V101.972H168.371V104.343Z" fill="#00E8F0"/>
<path d="M249 123.314H246.629V120.943H249V123.314Z" fill="#00E8F0"/>
<path d="M56.9142 116.2H54.5428V113.829H56.9142V116.2Z" fill="#00E8F0"/>
<path d="M234.771 104.343H232.4V101.972H234.771V104.343Z" fill="#00E8F0"/>
<path d="M90.1142 99.6002H87.7428V97.2287H90.1142V99.6002Z" fill="#00E8F0"/>
<path d="M120.943 75.8859H123.314V78.2573H128.057V80.6287H125.686V83.0002H123.314V85.3716H118.571V87.743H113.828V90.1145H109.086V87.743H101.971V85.3716H104.343V83.0002H106.714V80.6287H109.086V78.2573H113.828V75.8859H116.2V73.5145H120.943V75.8859Z" fill="#00E8F0"/>
<path d="M194.457 78.2573H192.086V75.8859H194.457V78.2573Z" fill="#00E8F0"/>
<path d="M85.3714 73.5145H87.7428V75.8859H82.9999V73.5145H80.6285V71.143H78.2571V73.5145H75.8856V68.7716H85.3714V73.5145Z" fill="#00E8F0"/>
<path d="M92.4856 61.6573H90.1142V66.4002H92.4856V71.143H94.8571V75.8859H92.4856V73.5145H90.1142V71.143H87.7428V66.4002H85.3714V64.0287H82.9999V61.6573H87.7428V59.2859H92.4856V61.6573Z" fill="#00E8F0"/>
<path d="M101.971 68.7716H99.5999V64.0287H101.971V68.7716Z" fill="#00E8F0"/>
<path d="M99.5999 64.0287H97.2285V61.6573H99.5999V64.0287Z" fill="#00E8F0"/>
<path d="M61.6571 42.6859H66.3999V45.0573H68.7714V47.4287H75.8856V49.8002H73.5142V52.1716H71.1428V54.543H68.7714V56.9145H66.3999V59.2859H64.0285V61.6573H56.9142V59.2859H52.1714V56.9145H49.7999V54.543H47.4285V49.8002H49.7999V47.4287H52.1714V45.0573H54.5428V42.6859H56.9142V40.3145H61.6571V42.6859Z" fill="#00E8F0"/>
<path d="M85.3714 45.0573H82.9999V42.6859H85.3714V45.0573Z" fill="#00E8F0"/>
<path d="M184.971 332H182.6V329.629H173.114V332H166V329.629H161.257V332H156.514V329.629H137.543V327.257H132.8V324.886H130.428V322.514H123.314V320.143H120.943V317.772H116.2V315.4H111.457V313.029H106.714V310.657H101.971V308.286H99.5999V305.914H92.4856V303.543H90.1142V301.172H85.3713V298.8H82.9999V296.429H78.257V294.057H73.5142V291.686H68.7713V289.314H66.3999V286.943H61.6571V284.572H56.9142V282.2H52.1713V279.829H49.7999V277.457H45.0571V275.086H42.6856V272.714H40.3142V270.343H37.9428V267.972H35.5713V265.6H33.1999V263.229H30.8285V258.486H28.4571V253.743H26.0856V249H23.7142V246.629H21.3428V244.257H18.9713V239.514H16.5999V234.772H14.2285V230.029H11.8571V220.543H9.48562V215.8H7.11419V213.429H4.74277V199.2H7.11419V201.572H9.48562V199.2H11.8571V196.829H14.2285V194.457H16.5999V199.2H18.9713V194.457H21.3428V199.2H23.7142V203.943H21.3428V201.572H18.9713V203.943H16.5999V201.572H11.8571V203.943H16.5999V206.314H18.9713V203.943H21.3428V206.314H23.7142V208.686H26.0856V213.429H28.4571V218.172H30.8285V225.286H33.1999V232.4H35.5713V234.772H37.9428V239.514H40.3142V244.257H42.6856V246.629H45.0571V251.372H47.4285V253.743H49.7999V258.486H52.1713V260.857H56.9142V267.972H59.2856V270.343H64.0285V272.714H66.3999V275.086H68.7713V277.457H71.1428V279.829H73.5142V282.2H78.257V284.572H82.9999V286.943H85.3713V289.314H90.1142V291.686H92.4856V294.057H97.2285V296.429H101.971V298.8H104.343V301.172H111.457V303.543H118.571V305.914H128.057V308.286H139.914V310.657H151.771V313.029H168.371V310.657H199.2V313.029H203.943V310.657H206.314V308.286H208.686V305.914H213.428V313.029H211.057V310.657H208.686V313.029H206.314V317.772H215.8V320.143H213.428V322.514H215.8V324.886H208.686V327.257H196.828V329.629H184.971V332Z" fill="#70F2F6"/>
<path d="M220.543 322.514H218.171V320.143H220.543V322.514Z" fill="#70F2F6"/>
<path d="M227.657 317.772H225.286V320.143H220.543V317.772H222.914V315.4H227.657V317.772Z" fill="#70F2F6"/>
<path d="M218.171 317.772H215.8V315.4H218.171V317.772Z" fill="#70F2F6"/>
<path d="M215.8 315.4H213.428V313.029H215.8V315.4Z" fill="#70F2F6"/>
<path d="M220.543 315.4H218.171V313.029H220.543V315.4Z" fill="#70F2F6"/>
<path d="M220.543 303.543H218.171V301.172H220.543V303.543Z" fill="#70F2F6"/>
<path d="M154.143 294.057H156.514V296.429H161.257V298.8H154.143V296.429H144.657V294.057H149.4V289.314H151.771V284.572H154.143V294.057Z" fill="#70F2F6"/>
<path d="M166 296.429H175.486V298.8H163.628V294.057H166V296.429Z" fill="#70F2F6"/>
<path d="M132.8 284.572H139.914V279.829H142.286V289.314H139.914V296.429H135.171V294.057H137.543V289.314H132.8V286.943H130.428V291.686H125.686V289.314H128.057V277.457H132.8V284.572Z" fill="#70F2F6"/>
<path d="M182.6 294.057H184.971V296.429H180.228V291.686H182.6V294.057Z" fill="#70F2F6"/>
<path d="M173.114 294.057H170.743V291.686H173.114V294.057Z" fill="#70F2F6"/>
<path d="M170.743 291.686H166V289.314H170.743V291.686Z" fill="#70F2F6"/>
<path d="M180.228 291.686H177.857V289.314H180.228V291.686Z" fill="#70F2F6"/>
<path fill-rule="evenodd" clip-rule="evenodd" d="M120.943 275.086H125.686V279.829H123.314V284.572H120.943V289.314H116.2V282.2H113.828V279.829H111.457V272.714H120.943V275.086ZM116.2 279.829H118.571V282.2H120.943V277.457H116.2V279.829Z" fill="#70F2F6"/>
<path d="M173.114 289.314H170.743V286.943H168.371V284.572H173.114V289.314Z" fill="#70F2F6"/>
<path d="M166 286.943H163.628V284.572H166V286.943Z" fill="#70F2F6"/>
<path d="M111.457 272.714H109.086V277.457H106.714V282.2H101.971V277.457H104.343V275.086H106.714V267.972H111.457V272.714Z" fill="#70F2F6"/>
<path d="M92.4856 279.829H90.1142V277.457H85.3713V275.086H92.4856V279.829Z" fill="#70F2F6"/>
<path d="M94.857 263.229H92.4856V267.972H94.857V265.6H106.714V267.972H104.343V270.343H101.971V272.714H99.5999V277.457H97.2285V279.829H94.857V272.714H97.2285V270.343H92.4856V272.714H85.3713V267.972H87.7428V265.6H90.1142V260.857H92.4856V258.486H94.857V263.229Z" fill="#70F2F6"/>
<path d="M284.571 277.457H282.2V275.086H284.571V277.457Z" fill="#70F2F6"/>
<path d="M289.314 277.457H286.943V272.714H289.314V277.457Z" fill="#70F2F6"/>
<path d="M279.828 275.086H275.086V272.714H279.828V275.086Z" fill="#70F2F6"/>
<path d="M310.657 208.686H317.771V211.057H320.143V213.429H322.514V220.543H320.143V227.657H317.771V234.772H315.4V237.143H313.028V241.886H310.657V246.629H308.286V251.372H305.914V256.114H303.543V258.486H301.171V260.857H298.8V265.6H296.428V267.972H294.057V265.6H291.686V267.972H294.057V270.343H286.943V272.714H282.2V270.343H284.571V260.857H282.2V265.6H279.828V263.229H277.457V260.857H279.828V256.114H282.2V253.743H284.571V251.372H286.943V246.629H289.314V244.257H291.686V239.514H294.057V234.772H296.428V230.029H298.8V227.657H301.171V220.543H303.543V215.8H305.914V206.314H310.657V208.686Z" fill="#70F2F6"/>
<path d="M282.2 270.343H275.086V267.972H282.2V270.343Z" fill="#70F2F6"/>
<path d="M277.457 265.6H275.086V263.229H277.457V265.6Z" fill="#70F2F6"/>
<path fill-rule="evenodd" clip-rule="evenodd" d="M80.6285 246.629H82.9999V249H85.3713V256.114H82.9999V258.486H80.6285V260.857H78.257V263.229H73.5142V260.857H71.1428V256.114H68.7713V249H73.5142V244.257H80.6285V246.629ZM75.8856 251.372H73.5142V258.486H78.257V256.114H75.8856V251.372H78.257V253.743H80.6285V249H75.8856V251.372Z" fill="#70F2F6"/>
<path d="M258.486 263.229H256.114V260.857H258.486V263.229Z" fill="#70F2F6"/>
<path d="M125.686 260.857H123.314V256.114H125.686V260.857Z" fill="#70F2F6"/>
<path d="M249 258.486H246.628V256.114H249V258.486Z" fill="#70F2F6"/>
<path d="M260.857 258.486H258.486V256.114H260.857V258.486Z" fill="#70F2F6"/>
<path d="M118.571 256.114H116.2V253.743H118.571V256.114Z" fill="#70F2F6"/>
<path d="M246.628 256.114H244.257V251.372H246.628V256.114Z" fill="#70F2F6"/>
<path d="M256.114 253.743H253.743V249H256.114V253.743Z" fill="#70F2F6"/>
<path d="M260.857 253.743H258.486V251.372H260.857V253.743Z" fill="#70F2F6"/>
<path d="M73.5142 239.514H68.7713V246.629H66.3999V251.372H61.6571V246.629H64.0285V241.886H66.3999V239.514H61.6571V241.886H56.9142V239.514H54.5428V237.143H73.5142V239.514Z" fill="#70F2F6"/>
<path d="M249 251.372H246.628V249H249V251.372Z" fill="#70F2F6"/>
<path fill-rule="evenodd" clip-rule="evenodd" d="M275.086 218.172H279.828V220.543H284.571V225.286H279.828V222.914H277.457V227.657H279.828V237.143H277.457V234.772H272.714V237.143H275.086V241.886H272.714V239.514H267.971V244.257H265.6V246.629H267.971V251.372H265.6V249H260.857V246.629H258.486V244.257H256.114V239.514H258.486V241.886H260.857V244.257H263.228V241.886H265.6V237.143H263.228V234.772H260.857V232.4H265.6V234.772H272.714V232.4H270.343V230.029H265.6V225.286H267.971V227.657H272.714V222.914H270.343V218.172H272.714V215.8H275.086V218.172ZM272.714 230.029H275.086V227.657H272.714V230.029Z" fill="#70F2F6"/>
<path d="M106.714 249H104.343V246.629H106.714V249Z" fill="#70F2F6"/>
<path d="M101.971 244.257H99.5999V241.886H101.971V244.257Z" fill="#70F2F6"/>
<path d="M260.857 180.229H265.6V182.6H267.971V187.343H265.6V194.457H263.228V203.943H260.857V208.686H258.486V213.429H256.114V218.172H253.743V220.543H251.371V222.914H249V230.029H246.628V232.4H244.257V234.772H241.886V237.143H239.514V239.514H237.143V241.886H234.771V237.143H232.4V244.257H230.028V241.886H227.657V244.257H220.543V241.886H218.171V239.514H222.914V241.886H227.657V239.514H225.286V237.143H227.657V234.772H230.028V232.4H232.4V234.772H234.771V232.4H232.4V230.029H234.771V225.286H237.143V222.914H239.514V220.543H241.886V215.8H244.257V213.429H246.628V211.057H249V201.572H251.371V196.829H253.743V189.714H256.114V177.857H258.486V175.486H260.857V180.229Z" fill="#70F2F6"/>
<path d="M54.5428 232.4H56.9142V234.772H52.1713V232.4H49.7999V227.657H54.5428V232.4Z" fill="#70F2F6"/>
<path d="M64.0285 232.4H61.6571V220.543H64.0285V232.4Z" fill="#70F2F6"/>
<path d="M52.1713 225.286H49.7999V222.914H52.1713V225.286Z" fill="#70F2F6"/>
<path d="M56.9142 225.286H54.5428V222.914H56.9142V225.286Z" fill="#70F2F6"/>
<path d="M82.9999 225.286H80.6285V222.914H82.9999V225.286Z" fill="#70F2F6"/>
<path d="M56.9142 220.543H54.5428V218.172H56.9142V220.543Z" fill="#70F2F6"/>
<path d="M189.714 211.057H187.343V215.8H184.971V208.686H189.714V211.057Z" fill="#70F2F6"/>
<path d="M156.514 192.086H154.143V189.714H156.514V192.086Z" fill="#70F2F6"/>
<path fill-rule="evenodd" clip-rule="evenodd" d="M161.257 120.943H166V123.314H168.371V125.686H163.628V132.8H166V130.429H168.371V132.8H173.114V130.429H182.6V132.8H184.971V180.229H187.343V182.6H189.714V184.972H201.571V175.486H199.2V170.743H196.828V168.372H194.457V166H192.086V144.657H194.457V149.4H196.828V151.772H199.2V154.143H201.571V158.886H203.943V163.629H206.314V168.372H208.686V173.114H211.057V177.857H213.428V182.6H215.8V187.343H213.428V189.714H215.8V192.086H213.428V194.457H215.8V206.314H213.428V213.429H208.686V215.8H203.943V213.429H194.457V208.686H189.714V206.314H184.971V203.943H182.6V208.686H177.857V213.429H173.114V211.057H170.743V208.686H173.114V206.314H168.371V194.457H166V203.943H163.628V196.829H161.257V194.457H158.886V199.2H154.143V196.829H151.771V194.457H149.4V192.086H147.028V189.714H149.4V184.972H147.028V182.6H149.4V180.229H151.771V120.943H154.143V118.572H161.257V120.943ZM177.857 203.943H180.228V199.2H177.857V203.943ZM192.086 203.943H203.943V194.457H192.086V203.943ZM151.771 192.086H154.143V194.457H158.886V189.714H156.514V187.343H154.143V184.972H151.771V192.086ZM161.257 192.086H163.628V189.714H161.257V192.086Z" fill="#70F2F6"/>
<path d="M182.6 213.429H180.228V211.057H182.6V213.429Z" fill="#70F2F6"/>
<path d="M168.371 211.057H166V208.686H168.371V211.057Z" fill="#70F2F6"/>
<path d="M163.628 208.686H161.257V203.943H163.628V208.686Z" fill="#70F2F6"/>
<path d="M327.257 208.686H324.886V206.314H327.257V208.686Z" fill="#70F2F6"/>
<path d="M156.514 203.943H154.143V201.572H156.514V203.943Z" fill="#70F2F6"/>
<path d="M161.257 201.572H158.886V199.2H161.257V201.572Z" fill="#70F2F6"/>
<path d="M147.028 196.829H149.4V199.2H144.657V194.457H147.028V196.829Z" fill="#70F2F6"/>
<path d="M14.2285 194.457H11.8571V196.829H2.37134V194.457H4.74277V192.086H14.2285V194.457Z" fill="#70F2F6"/>
<path d="M18.9713 194.457H16.5999V192.086H18.9713V194.457Z" fill="#70F2F6"/>
<path d="M137.543 194.457H135.171V189.714H137.543V194.457Z" fill="#70F2F6"/>
<path d="M142.286 194.457H139.914V192.086H142.286V194.457Z" fill="#70F2F6"/>
<path d="M305.914 116.2H310.657V118.572H313.028V120.943H315.4V123.314H317.771V120.943H324.886V123.314H322.514V128.057H324.886V125.686H327.257V137.543H329.628V166H332V180.229H329.628V194.457H322.514V192.086H317.771V189.714H315.4V187.343H313.028V184.972H310.657V180.229H313.028V177.857H310.657V175.486H313.028V156.514H310.657V132.8H308.286V125.686H305.914V118.572H303.543V113.829H305.914V116.2Z" fill="#70F2F6"/>
<path d="M4.74277 189.714H2.37134V187.343H4.74277V189.714Z" fill="#70F2F6"/>
<path d="M9.48562 189.714H7.11419V187.343H9.48562V189.714Z" fill="#70F2F6"/>
<path d="M132.8 189.714H130.428V187.343H132.8V189.714Z" fill="#70F2F6"/>
<path d="M142.286 187.343H144.657V184.972H147.028V189.714H137.543V187.343H135.171V184.972H142.286V187.343Z" fill="#70F2F6"/>
<path d="M130.428 187.343H128.057V180.229H130.428V187.343Z" fill="#70F2F6"/>
<path d="M125.686 184.972H123.314V180.229H125.686V184.972Z" fill="#70F2F6"/>
<path d="M128.057 180.229H125.686V177.857H128.057V180.229Z" fill="#70F2F6"/>
<path d="M144.657 163.629H142.286V168.372H139.914V170.743H137.543V175.486H132.8V177.857H135.171V180.229H130.428V177.857H128.057V168.372H130.428V163.629H132.8V158.886H135.171V156.514H137.543V154.143H139.914V149.4H142.286V147.029H144.657V163.629Z" fill="#70F2F6"/>
<path d="M286.943 163.629H289.314V168.372H286.943V170.743H282.2V168.372H277.457V166H279.828V163.629H282.2V161.257H286.943V163.629Z" fill="#70F2F6"/>
<path d="M173.114 64.0287H187.343V66.4002H196.828V68.7716H203.943V71.143H211.057V73.5144H215.8V75.8859H218.171V78.2573H222.914V80.6287H225.286V83.0002H227.657V85.3716H230.028V87.743H234.771V90.1144H237.143V92.4859H239.514V94.8573H241.886V99.6002H244.257V101.972H249V106.714H251.371V109.086H253.743V113.829H256.114V118.572H258.486V125.686H260.857V128.057H263.228V135.172H265.6V144.657H267.971V158.886H263.228V156.514H258.486V154.143H256.114V142.286H253.743V132.8H251.371V128.057H249V120.943H246.628V118.572H244.257V116.2H241.886V111.457H239.514V109.086H237.143V106.714H234.771V101.972H232.4V99.6002H230.028V97.2287H225.286V94.8573H222.914V92.4859H218.171V90.1144H215.8V87.743H213.428V85.3716H208.686V83.0002H201.571V80.6287H196.828V78.2573H194.457V75.8859H180.228V73.5144H154.143V75.8859H142.286V78.2573H135.171V80.6287H128.057V78.2573H123.314V75.8859H120.943V73.5144H118.571V71.143H128.057V68.7716H135.171V66.4002H142.286V64.0287H163.628V61.6573H173.114V64.0287Z" fill="#70F2F6"/>
<path d="M73.5142 156.514H71.1428V151.772H73.5142V156.514Z" fill="#70F2F6"/>
<path d="M75.8856 149.4H71.1428V151.772H66.3999V149.4H68.7713V147.029H73.5142V144.657H75.8856V149.4Z" fill="#70F2F6"/>
<path d="M68.7713 147.029H66.3999V149.4H64.0285V144.657H68.7713V147.029Z" fill="#70F2F6"/>
<path d="M73.5142 144.657H71.1428V142.286H73.5142V144.657Z" fill="#70F2F6"/>
<path d="M147.028 144.657H144.657V142.286H147.028V144.657Z" fill="#70F2F6"/>
<path d="M109.086 90.1144H111.457V92.4859H106.714V94.8573H104.343V97.2287H101.971V99.6002H99.5999V101.972H97.2285V104.343H94.857V106.714H92.4856V111.457H90.1142V113.829H87.7428V120.943H85.3713V123.314H82.9999V128.057H80.6285V132.8H78.257V137.543H75.8856V139.914H68.7713V142.286H64.0285V139.914H66.3999V135.172H68.7713V132.8H71.1428V123.314H73.5142V116.2H75.8856V113.829H78.257V109.086H80.6285V104.343H85.3713V101.972H87.7428V99.6002H90.1142V94.8573H92.4856V92.4859H94.857V90.1144H97.2285V87.743H109.086V90.1144Z" fill="#70F2F6"/>
<path d="M78.257 142.286H75.8856V139.914H78.257V142.286Z" fill="#70F2F6"/>
<path d="M23.7142 128.057H21.3428V125.686H18.9713V123.314H23.7142V128.057Z" fill="#70F2F6"/>
<path d="M18.9713 123.314H16.5999V120.943H18.9713V123.314Z" fill="#70F2F6"/>
<path d="M26.0856 123.314H23.7142V120.943H26.0856V123.314Z" fill="#70F2F6"/>
<path d="M47.4285 54.543H49.7999V56.9144H52.1713V59.2859H56.9142V61.6573H61.6571V64.0287H59.2856V66.4002H56.9142V68.7716H54.5428V71.143H52.1713V73.5144H49.7999V75.8859H47.4285V80.6287H45.0571V83.0002H42.6856V87.743H40.3142V92.4859H37.9428V94.8573H35.5713V99.6002H33.1999V106.714H30.8285V111.457H26.0856V113.829H23.7142V120.943H18.9713V118.572H16.5999V116.2H11.8571V113.829H16.5999V109.086H18.9713V116.2H21.3428V111.457H23.7142V109.086H18.9713V106.714H16.5999V109.086H14.2285V111.457H11.8571V109.086H9.48562V106.714H14.2285V97.2287H16.5999V90.1144H18.9713V87.743H21.3428V83.0002H23.7142V80.6287H26.0856V75.8859H28.4571V73.5144H30.8285V68.7716H33.1999V66.4002H35.5713V61.6573H37.9428V59.2859H40.3142V56.9144H42.6856V54.543H45.0571V52.1716H47.4285V54.543Z" fill="#70F2F6"/>
<path d="M317.771 120.943H315.4V116.2H317.771V120.943Z" fill="#70F2F6"/>
<path d="M11.8571 118.572H9.48562V116.2H11.8571V118.572Z" fill="#70F2F6"/>
<path d="M28.4571 118.572H26.0856V116.2H28.4571V118.572Z" fill="#70F2F6"/>
<path d="M9.48562 116.2H7.11419V113.829H9.48562V116.2Z" fill="#70F2F6"/>
<path fill-rule="evenodd" clip-rule="evenodd" d="M56.9142 99.6002H61.6571V101.972H66.3999V106.714H61.6571V104.343H59.2856V111.457H61.6571V116.2H56.9142V113.829H49.7999V111.457H45.0571V109.086H47.4285V106.714H52.1713V109.086H54.5428V104.343H52.1713V97.2287H56.9142V99.6002ZM54.5428 111.457H56.9142V109.086H54.5428V111.457ZM56.9142 104.343H59.2856V101.972H56.9142V104.343Z" fill="#70F2F6"/>
<path d="M158.886 116.2H156.514V113.829H158.886V116.2Z" fill="#70F2F6"/>
<path d="M322.514 116.2H320.143V111.457H322.514V116.2Z" fill="#70F2F6"/>
<path d="M282.2 104.343H284.571V109.086H282.2V111.457H277.457V113.829H270.343V111.457H267.971V101.972H270.343V109.086H275.086V104.343H277.457V106.714H279.828V101.972H277.457V99.6002H282.2V104.343Z" fill="#70F2F6"/>
<path d="M313.028 111.457H315.4V109.086H320.143V111.457H317.771V113.829H308.286V111.457H303.543V109.086H310.657V106.714H313.028V111.457Z" fill="#70F2F6"/>
<path d="M305.914 101.972H303.543V104.343H305.914V106.714H301.171V104.343H298.8V99.6002H305.914V101.972Z" fill="#70F2F6"/>
<path d="M315.4 106.714H313.028V104.343H315.4V106.714Z" fill="#70F2F6"/>
<path d="M170.743 104.343H168.371V101.972H170.743V104.343Z" fill="#70F2F6"/>
<path d="M68.7713 83.0002H71.1428V85.3716H75.8856V92.4859H73.5142V90.1144H71.1428V87.743H68.7713V92.4859H66.3999V94.8573H68.7713V97.2287H71.1428V99.6002H64.0285V97.2287H61.6571V94.8573H59.2856V92.4859H56.9142V90.1144H66.3999V83.0002H64.0285V80.6287H68.7713V83.0002Z" fill="#70F2F6"/>
<path d="M277.457 99.6002H275.086V97.2287H277.457V99.6002Z" fill="#70F2F6"/>
<path d="M298.8 99.6002H296.428V97.2287H298.8V99.6002Z" fill="#70F2F6"/>
<path d="M301.171 97.2287H298.8V94.8573H301.171V97.2287Z" fill="#70F2F6"/>
<path d="M270.343 92.4859H267.971V94.8573H256.114V92.4859H263.228V90.1144H270.343V92.4859Z" fill="#70F2F6"/>
<path d="M272.714 94.8573H270.343V92.4859H272.714V94.8573Z" fill="#70F2F6"/>
<path d="M277.457 94.8573H275.086V92.4859H277.457V94.8573Z" fill="#70F2F6"/>
<path d="M251.371 83.0002H253.743V85.3716H256.114V90.1144H253.743V87.743H251.371V85.3716H249V80.6287H251.371V83.0002Z" fill="#70F2F6"/>
<path d="M270.343 87.743H267.971V85.3716H265.6V83.0002H270.343V87.743Z" fill="#70F2F6"/>
<path d="M75.8856 78.2573H78.257V80.6287H80.6285V78.2573H82.9999V75.8859H87.7428V78.2573H85.3713V83.0002H80.6285V85.3716H78.257V83.0002H73.5142V78.2573H71.1428V73.5144H73.5142V71.143H75.8856V78.2573Z" fill="#70F2F6"/>
<path d="M258.486 83.0002H256.114V80.6287H258.486V83.0002Z" fill="#70F2F6"/>
<path d="M258.486 75.8859H256.114V78.2573H246.628V75.8859H249V73.5144H258.486V75.8859Z" fill="#70F2F6"/>
<path d="M263.228 78.2573H260.857V73.5144H263.228V78.2573Z" fill="#70F2F6"/>
<path d="M239.514 73.5144H237.143V71.143H239.514V73.5144Z" fill="#70F2F6"/>
<path d="M241.886 71.143H239.514V68.7716H241.886V71.143Z" fill="#70F2F6"/>
<path d="M256.114 71.143H253.743V68.7716H256.114V71.143Z" fill="#70F2F6"/>
<path d="M232.4 68.7716H230.028V66.4002H232.4V68.7716Z" fill="#70F2F6"/>
<path d="M104.343 66.4002H101.971V64.0287H104.343V66.4002Z" fill="#70F2F6"/>
<path d="M239.514 64.0287H241.886V66.4002H232.4V64.0287H234.771V61.6573H239.514V64.0287Z" fill="#70F2F6"/>
<path d="M101.971 64.0287H99.5999V61.6573H101.971V64.0287Z" fill="#70F2F6"/>
<path d="M113.828 47.4287H116.2V52.1716H118.571V56.9144H120.943V59.2859H116.2V56.9144H113.828V54.543H111.457V49.8002H106.714V54.543H109.086V59.2859H111.457V64.0287H104.343V61.6573H106.714V59.2859H104.343V52.1716H101.971V49.8002H104.343V47.4287H109.086V45.0573H113.828V47.4287Z" fill="#70F2F6"/>
<path d="M225.286 64.0287H222.914V61.6573H225.286V64.0287Z" fill="#70F2F6"/>
<path d="M232.4 64.0287H230.028V61.6573H232.4V64.0287Z" fill="#70F2F6"/>
<path d="M97.2285 56.9144H99.5999V61.6573H97.2285V59.2859H90.1142V56.9144H92.4856V54.543H97.2285V56.9144Z" fill="#70F2F6"/>
<path d="M220.543 59.2859H218.171V61.6573H215.8V59.2859H213.428V56.9144H218.171V54.543H220.543V59.2859Z" fill="#70F2F6"/>
<path d="M234.771 61.6573H232.4V59.2859H234.771V61.6573Z" fill="#70F2F6"/>
<path d="M225.286 59.2859H222.914V56.9144H225.286V59.2859Z" fill="#70F2F6"/>
<path fill-rule="evenodd" clip-rule="evenodd" d="M128.057 42.6859H130.428V45.0573H132.8V47.4287H135.171V54.543H132.8V52.1716H130.428V54.543H125.686V56.9144H120.943V54.543H123.314V40.3144H125.686V37.943H128.057V42.6859ZM128.057 49.8002H130.428V47.4287H128.057V49.8002ZM125.686 47.4287H128.057V45.0573H125.686V47.4287Z" fill="#70F2F6"/>
<path d="M213.428 56.9144H208.686V54.543H213.428V56.9144Z" fill="#70F2F6"/>
<path d="M203.943 54.543H201.571V49.8002H203.943V54.543Z" fill="#70F2F6"/>
<path d="M208.686 54.543H206.314V52.1716H208.686V54.543Z" fill="#70F2F6"/>
<path d="M151.771 45.0573H154.143V49.8002H149.4V45.0573H142.286V49.8002H144.657V52.1716H137.543V35.5716H139.914V40.3144H147.028V37.943H149.4V33.2002H151.771V45.0573Z" fill="#70F2F6"/>
<path d="M199.2 45.0573H201.571V42.6859H203.943V47.4287H192.086V52.1716H189.714V45.0573H196.828V42.6859H199.2V45.0573Z" fill="#70F2F6"/>
<path d="M211.057 52.1716H208.686V49.8002H211.057V52.1716Z" fill="#70F2F6"/>
<path d="M215.8 52.1716H213.428V49.8002H215.8V52.1716Z" fill="#70F2F6"/>
<path d="M220.543 52.1716H218.171V49.8002H220.543V52.1716Z" fill="#70F2F6"/>
<path d="M168.371 35.5716H166V37.943H161.257V40.3144H166V42.6859H161.257V45.0573H168.371V47.4287H170.743V49.8002H156.514V33.2002H168.371V35.5716Z" fill="#70F2F6"/>
<path d="M180.228 45.0573H182.6V47.4287H180.228V49.8002H177.857V42.6859H180.228V45.0573Z" fill="#70F2F6"/>
<path fill-rule="evenodd" clip-rule="evenodd" d="M139.914 4.74301H147.028V7.11444H151.771V9.48587H149.4V14.2287H154.143V16.6002H156.514V18.9716H149.4V16.6002H147.028V21.343H132.8V23.7144H125.686V26.0859H120.943V28.4573H111.457V30.8287H106.714V33.2002H99.5999V35.5716H94.857V37.943H92.4856V40.3144H90.1142V42.6859H82.9999V45.0573H80.6285V47.4287H68.7713V45.0573H66.3999V42.6859H61.6571V40.3144H59.2856V37.943H61.6571V35.5716H66.3999V33.2002H68.7713V30.8287H73.5142V28.4573H75.8856V26.0859H78.257V23.7144H82.9999V21.343H90.1142V18.9716H92.4856V16.6002H97.2285V14.2287H99.5999V11.8573H106.714V9.48587H118.571V7.11444H123.314V4.74301H132.8V2.37158H139.914V4.74301ZM135.171 16.6002H137.543V18.9716H144.657V14.2287H142.286V16.6002H139.914V14.2287H135.171V16.6002Z" fill="#70F2F6"/>
<path d="M213.428 47.4287H208.686V45.0573H213.428V47.4287Z" fill="#70F2F6"/>
<path d="M194.457 42.6859H192.086V37.943H194.457V42.6859Z" fill="#70F2F6"/>
<path d="M182.6 40.3144H180.228V37.943H182.6V40.3144Z" fill="#70F2F6"/>
<path d="M170.743 37.943H168.371V35.5716H170.743V37.943Z" fill="#70F2F6"/>
<path d="M175.486 37.943H173.114V33.2002H175.486V37.943Z" fill="#70F2F6"/>
<path d="M180.228 37.943H177.857V35.5716H180.228V37.943Z" fill="#70F2F6"/>
<path d="M187.343 37.943H182.6V35.5716H187.343V37.943Z" fill="#70F2F6"/>
<path d="M166 18.9716H163.628V16.6002H166V18.9716Z" fill="#70F2F6"/>
<path d="M158.886 16.6002H156.514V14.2287H158.886V16.6002Z" fill="#70F2F6"/>
</svg>
