<svg width="24" height="33" viewBox="0 0 24 33" fill="none" xmlns="http://www.w3.org/2000/svg">
<g filter="url(#filter0_d_58_61348)">
<path d="M16.625 18.9565V17.2609H18.3125V15.5652H20V7.08696H18.3125V5.39132H16.625V3.69564H14.9375V2H7.0625V3.69564H5.37502V5.39132H3.68748V7.08696H2V15.5652H3.68748V17.2609H5.37502V18.9565H7.0625V20.6522H3.68748V22.3478H2V28H20V22.3478H18.3125V20.6522H14.9375V18.9565H16.625Z" fill="#A8F000"/>
<path d="M17.625 19.6523H19.3125V21.3477H21V29H1V21.3477H2.6875V19.6523H4.375V18.2607H2.6875V16.5654H1V6.08691H2.6875V4.3916H4.375V2.69531H6.0625V1H15.9375V2.69531H17.625V4.3916H19.3125V6.08691H21V16.5654H19.3125V18.2607H17.625V19.6523Z" stroke="black" stroke-width="2"/>
</g>
<defs>
<filter id="filter0_d_58_61348" x="0" y="0" width="24" height="33" filterUnits="userSpaceOnUse" color-interpolation-filters="sRGB">
<feFlood flood-opacity="0" result="BackgroundImageFix"/>
<feColorMatrix in="SourceAlpha" type="matrix" values="0 0 0 0 0 0 0 0 0 0 0 0 0 0 0 0 0 0 127 0" result="hardAlpha"/>
<feOffset dx="2" dy="3"/>
<feComposite in2="hardAlpha" operator="out"/>
<feColorMatrix type="matrix" values="0 0 0 0 0 0 0 0 0 0 0 0 0 0 0 0 0 0 1 0"/>
<feBlend mode="normal" in2="BackgroundImageFix" result="effect1_dropShadow_58_61348"/>
<feBlend mode="normal" in="SourceGraphic" in2="effect1_dropShadow_58_61348" result="shape"/>
</filter>
</defs>
</svg>
