<svg width="140" height="57" viewBox="0 0 140 57" fill="none" xmlns="http://www.w3.org/2000/svg">
<g opacity="0.1">
<rect width="10.0107" height="119.16" transform="matrix(-7.75287e-08 -1 -1 2.46449e-08 127.875 48.7656)" fill="black"/>
<rect width="8.719" height="118.514" transform="matrix(-8.31453e-08 -1 -1 2.29801e-08 118.512 43.2734)" fill="black"/>
<rect width="12.917" height="121.097" transform="matrix(-4.37114e-08 -1 -1 4.37114e-08 134.656 56.1875)" fill="black"/>
</g>
<rect x="20.9922" width="112.055" height="9.68777" fill="#2B2B2B"/>
<rect x="30.6797" y="9.6875" width="108.503" height="45.2096" fill="white"/>
<rect x="136.277" y="6.46094" width="3.22926" height="3.22926" fill="#2B2B2B"/>
<rect x="24.2227" y="2.90625" width="3.22926" height="48.4389" fill="black"/>
<rect x="27.4492" y="6.46094" width="3.22926" height="48.4389" fill="black"/>
<rect x="30.6797" y="9.6875" width="3.22926" height="45.2096" fill="#2B2B2B"/>
<rect x="136.277" y="9.6875" width="3.22926" height="45.2096" fill="#2B2B2B"/>
<rect x="139.828" y="51.6719" width="3.22926" height="106.243" transform="rotate(90 139.828 51.6719)" fill="#2B2B2B"/>
<rect x="133.047" y="3.22656" width="3.22926" height="6.45851" fill="#2B2B2B"/>
<rect x="20.9922" width="3.22926" height="48.4389" fill="black"/>
<rect x="136.277" y="6.46094" width="3.22926" height="102.69" transform="rotate(90 136.277 6.46094)" fill="black"/>
</svg>
