<svg width="58" height="39" viewBox="0 0 58 39" fill="none" xmlns="http://www.w3.org/2000/svg">
<g filter="url(#filter0_d_189_11035)">
<path d="M50.3689 8.18767V5.27841H47.3687V2.36914H8.36961V5.27841H5.36937V8.18767H2.36914V28.5506H5.36937V31.4599H8.36961V34.3691H47.3687V31.4599H50.3689V28.5506H53.3691V8.18767H50.3689ZM47.3687 25.6413H44.3694V11.0969H47.3687V25.6413ZM35.3687 19.8238H32.3695V22.733H29.3693V25.6413H26.369V22.733H23.3688V19.8238H20.3696V16.9145H23.3688V14.0052H26.369V11.0969H29.3693V14.0052H32.3695V16.9145H35.3687V19.8238ZM8.36961 22.733H17.3693V25.6413H8.36961V22.733ZM8.36961 16.9145H17.3693V19.8238H8.36961V16.9145ZM8.36961 11.0969H17.3693V14.0052H8.36961V11.0969ZM38.369 31.4599V5.27841H41.3692V31.4599H38.369Z" fill="#A8F000"/>
<path d="M29.3693 16.9145V14.0052H26.369V16.9145H23.3688V19.8238H26.369V22.733H29.3693V19.8238H32.3695V16.9145H29.3693Z" fill="#A8F000"/>
<path d="M48.5537 1.18457V4.09375H51.5537V7.00293H54.5537V29.7354H51.5537V32.6445H48.5537V35.5537H7.18457V32.6445H4.18457V29.7354H1.18457V7.00293H4.18457V4.09375H7.18457V1.18457H48.5537ZM39.5537 30.2754H40.1846V6.46289H39.5537V30.2754ZM45.5537 24.457H46.1836V12.2812H45.5537V24.457ZM27.5537 24.457H28.1846V23.918H27.5537V24.457ZM9.55469 24.457H16.1846V23.918H9.55469V24.457ZM30.5537 21.5488H31.1846V21.0088H30.5537V21.5488ZM24.5537 21.5488H25.1846V21.0088H24.5537V21.5488ZM33.5537 18.6387H34.1846V18.0996H33.5537V18.6387ZM21.5537 18.6387H22.1846V18.0996H21.5537V18.6387ZM9.55469 18.6387H16.1846V18.0996H9.55469V18.6387ZM30.5537 15.7295H31.1846V15.1895H30.5537V15.7295ZM24.5537 15.7295H25.1846V15.1895H24.5537V15.7295ZM27.5537 12.8203H28.1846V12.2812H27.5537V12.8203ZM9.55469 12.8203H16.1846V12.2812H9.55469V12.8203Z" stroke="black" stroke-width="2.36923"/>
</g>
<defs>
<filter id="filter0_d_189_11035" x="0" y="0" width="57.7383" height="38.7383" filterUnits="userSpaceOnUse" color-interpolation-filters="sRGB">
<feFlood flood-opacity="0" result="BackgroundImageFix"/>
<feColorMatrix in="SourceAlpha" type="matrix" values="0 0 0 0 0 0 0 0 0 0 0 0 0 0 0 0 0 0 127 0" result="hardAlpha"/>
<feOffset dx="2" dy="2"/>
<feComposite in2="hardAlpha" operator="out"/>
<feColorMatrix type="matrix" values="0 0 0 0 0 0 0 0 0 0 0 0 0 0 0 0 0 0 1 0"/>
<feBlend mode="normal" in2="BackgroundImageFix" result="effect1_dropShadow_189_11035"/>
<feBlend mode="normal" in="SourceGraphic" in2="effect1_dropShadow_189_11035" result="shape"/>
</filter>
</defs>
</svg>
