<svg width="257" height="306" viewBox="0 0 257 306" fill="none" xmlns="http://www.w3.org/2000/svg">
<path d="M153.61 12.2308C153.61 18.9856 159.086 24.4615 165.841 24.4615H177.131H59.5273H70.8173C77.5721 24.4615 83.0481 18.9856 83.0481 12.2308V12.2308C83.0481 5.4759 88.524 0 95.2788 0H141.379C148.134 0 153.61 5.4759 153.61 12.2308V12.2308Z" fill="#D9D9D9"/>
<path d="M153.61 12.2308C153.61 18.9856 159.086 24.4615 165.841 24.4615H177.131H59.5273H70.8173C77.5721 24.4615 83.0481 18.9856 83.0481 12.2308V12.2308C83.0481 5.4759 88.524 0 95.2788 0H141.379C148.134 0 153.61 5.4759 153.61 12.2308V12.2308Z" fill="url(#paint0_radial_200_63149)"/>
<path d="M0.253906 71.5024C0.253906 45.5221 21.3151 24.4609 47.2953 24.4609H194.065C220.045 24.4609 241.106 45.5221 241.106 71.5024V94.7879V120.306C241.106 126.67 242.397 132.968 244.902 138.819L256.159 165.115L244.902 191.411C242.397 197.262 241.106 203.56 241.106 209.924V235.442V258.727C241.106 284.707 220.045 305.769 194.065 305.769H47.2953C21.3151 305.769 0.253906 284.707 0.253906 258.727V71.5024Z" fill="#EBE2D4"/>
<path d="M250.882 152.788L251.585 154.432H251.586L251.153 154.617L251.857 156.261L252.289 156.075L252.992 157.719L252.561 157.904L253.265 159.548L253.696 159.362V159.361L254.399 161.006L253.968 161.191L254.672 162.835L255.104 162.649V162.648L255.807 164.293L255.375 164.479L255.646 165.114L255.375 165.751L255.807 165.936L255.104 167.58L254.672 167.395L253.968 169.038L254.4 169.224L253.696 170.867L253.265 170.682L252.561 172.325L252.993 172.511L252.289 174.153L251.857 173.969L251.153 175.612L251.586 175.798L250.882 177.44L250.45 177.256L249.746 178.899L250.179 179.085L249.475 180.728L249.043 180.543L248.339 182.187L248.771 182.372L248.068 184.015L247.636 183.83L246.932 185.474L247.364 185.658L246.661 187.302L246.229 187.117L245.525 188.761L245.957 188.945L245.254 190.589L244.821 190.404L244.47 191.226C244.344 191.52 244.221 191.816 244.101 192.113L244.536 192.289H244.537C244.299 192.878 244.073 193.471 243.859 194.067L243.416 193.908C243.2 194.512 242.996 195.119 242.805 195.73L243.253 195.87C243.063 196.476 242.89 197.086 242.726 197.698H242.723L242.269 197.576C242.102 198.195 241.948 198.817 241.807 199.441L242.266 199.545H242.268C242.128 200.164 242 200.785 241.885 201.409H241.883L241.421 201.323C241.305 201.953 241.202 202.586 241.111 203.22L241.576 203.286H241.579C241.49 203.914 241.41 204.543 241.346 205.174L240.878 205.128C240.813 205.765 240.762 206.403 240.723 207.043L241.192 207.071C241.154 207.704 241.129 208.338 241.116 208.973H241.115L240.646 208.963C240.639 209.283 240.636 209.603 240.636 209.924V210.835H241.106V212.658H240.636V214.48H241.106V216.304H240.636V218.126H241.106V219.949H240.636V221.771H241.106V223.594H240.636V225.417H241.106V227.239H240.636V229.062H241.106V230.885H240.636V232.708H241.106V234.53H240.636V236.412H241.106V238.353H240.636V240.293H241.106V242.233H240.636V244.174H241.106V246.114H240.636V248.055H241.106V249.995H240.636V251.936H241.106V253.876H240.636V255.816H241.106V257.757H240.636V258.728C240.636 259.034 240.633 259.34 240.627 259.646L241.096 259.653C241.084 260.271 241.06 260.886 241.024 261.498L240.556 261.472C240.52 262.082 240.473 262.69 240.414 263.294L240.882 263.339C240.822 263.955 240.747 264.566 240.664 265.175L240.201 265.112C240.118 265.718 240.024 266.321 239.918 266.919L240.38 267C240.272 267.608 240.15 268.212 240.019 268.812L239.562 268.713C239.432 269.31 239.291 269.902 239.138 270.49L239.591 270.607C239.435 271.205 239.267 271.798 239.089 272.387L238.642 272.251C238.464 272.836 238.276 273.416 238.077 273.99L238.519 274.144C238.316 274.727 238.104 275.305 237.88 275.877L237.443 275.706C237.221 276.275 236.987 276.838 236.743 277.396L237.17 277.582C236.922 278.147 236.666 278.707 236.397 279.26L235.977 279.055C235.71 279.604 235.433 280.148 235.146 280.685L235.558 280.905C235.267 281.449 234.964 281.985 234.652 282.516L234.25 282.279C233.941 282.805 233.622 283.325 233.293 283.838L233.688 284.092C233.356 284.611 233.01 285.12 232.658 285.625L232.275 285.357C231.926 285.858 231.567 286.35 231.199 286.836L231.571 287.118C231.199 287.609 230.819 288.094 230.429 288.569L230.066 288.271C229.679 288.743 229.282 289.207 228.877 289.662L229.226 289.973C228.816 290.433 228.399 290.885 227.973 291.329L227.636 291.005C227.213 291.444 226.781 291.875 226.342 292.298L226.666 292.636C226.222 293.062 225.77 293.48 225.31 293.889L224.999 293.54C224.544 293.945 224.08 294.341 223.609 294.729L223.907 295.09C223.432 295.481 222.947 295.861 222.456 296.233L222.174 295.862C221.688 296.23 221.195 296.589 220.695 296.938L220.962 297.32C220.457 297.673 219.947 298.018 219.429 298.351L219.175 297.955C218.662 298.284 218.143 298.603 217.617 298.912L217.853 299.314C217.322 299.626 216.786 299.929 216.242 300.22L216.021 299.808C215.485 300.095 214.942 300.373 214.393 300.64L214.597 301.061C214.044 301.329 213.485 301.586 212.92 301.833L212.732 301.406C212.175 301.65 211.612 301.884 211.044 302.106L211.214 302.543C210.642 302.767 210.064 302.979 209.481 303.181L209.328 302.739C208.753 302.939 208.173 303.127 207.588 303.305L207.723 303.751C207.134 303.929 206.542 304.098 205.944 304.254L205.827 303.8C205.239 303.953 204.647 304.095 204.05 304.226L204.149 304.681C203.55 304.812 202.946 304.934 202.338 305.042L202.257 304.58C201.658 304.686 201.055 304.781 200.449 304.864L200.513 305.326C199.904 305.41 199.292 305.484 198.676 305.544L198.632 305.077C198.027 305.136 197.42 305.183 196.809 305.219L196.835 305.687C196.223 305.722 195.608 305.746 194.99 305.758L194.982 305.289C194.677 305.295 194.371 305.298 194.064 305.298H193.124V305.769H191.242V305.298H189.36V305.769H187.479V305.298H185.597V305.769H183.716V305.298H181.834V305.769H179.952V305.298H178.07V305.769H176.188V305.298H174.308V305.769H172.426V305.298H170.544V305.769H168.662V305.298H166.78V305.769H164.898V305.298H163.018V305.769H161.136V305.298H159.254V305.769H157.372V305.298H155.49V305.769H153.609V305.298H151.728V305.769H149.846V305.298H147.964V305.769H146.082V305.298H144.2V305.769H142.319V305.298H140.438V305.769H138.556V305.298H136.674V305.769H134.792V305.298H132.911V305.769H131.029V305.298H129.147V305.769H127.266V305.298H125.384V305.769H123.503V305.298H121.621V305.769H119.739V305.298H117.857V305.769H115.976V305.298H114.094V305.769H112.213V305.298H110.331V305.769H108.449V305.298H106.567V305.769H104.686V305.298H102.805V305.769H100.923V305.298H99.041V305.769H97.1592V305.298H95.2773V305.769H93.3955V305.298H91.5146V305.769H89.6328V305.298H87.751V305.769H85.8691V305.298H83.9873V305.769H82.1064V305.298H80.2246V305.769H78.3428V305.298H76.4609V305.769H74.5791V305.298H72.6982V305.769H70.8164V305.298H68.9346V305.769H67.0527V305.298H65.1709V305.769H63.2891V305.298H61.4082V305.769H59.5264V305.298H57.6445V305.769H55.7627V305.298H53.8809V305.769H52V305.298H50.1182V305.769H48.2363V305.298H47.2949C46.9885 305.298 46.6829 305.295 46.3779 305.289L46.3682 305.758C45.7506 305.746 45.136 305.722 44.5244 305.687L44.5518 305.219C43.9409 305.183 43.3328 305.136 42.7285 305.077L42.6826 305.544C42.0669 305.484 41.4552 305.41 40.8467 305.326L40.9102 304.864C40.3041 304.781 39.7019 304.686 39.1035 304.58L39.0205 305.043C38.4126 304.935 37.8096 304.812 37.21 304.681L37.3105 304.226C36.7137 304.095 36.1203 303.953 35.5322 303.8L35.4141 304.254C34.8163 304.098 34.224 303.929 33.6357 303.751L33.7715 303.305C33.1867 303.128 32.607 302.939 32.0322 302.739L31.8779 303.181C31.295 302.979 30.7168 302.767 30.1445 302.543L30.3164 302.106C29.7479 301.884 29.1843 301.65 28.627 301.406L28.4395 301.833C27.8746 301.586 27.3147 301.329 26.7617 301.061L26.9678 300.64C26.4186 300.373 25.8747 300.095 25.3379 299.808L25.1172 300.22C24.5734 299.928 24.0366 299.626 23.5059 299.314L23.7432 298.912C23.217 298.603 22.6972 298.284 22.1846 297.955L21.9307 298.351C21.4117 298.018 20.9012 297.673 20.3965 297.32L20.665 296.938C20.165 296.589 19.672 296.23 19.1865 295.862L18.9033 296.234C18.4121 295.862 17.928 295.481 17.4521 295.09L17.751 294.729C17.2797 294.341 16.8159 293.945 16.3604 293.54L16.0498 293.889C15.5895 293.479 15.1362 293.063 14.6924 292.636L15.0176 292.298C14.5782 291.875 14.1471 291.444 13.7246 291.005L13.3867 291.329C12.9597 290.885 12.5423 290.432 12.1328 289.972L12.4824 289.662C12.0773 289.207 11.6811 288.743 11.2939 288.271L10.9307 288.569C10.5398 288.094 10.1594 287.609 9.78711 287.118L10.1611 286.836C9.79305 286.35 9.43417 285.858 9.08496 285.357L8.70117 285.625C8.34873 285.12 8.00377 284.61 7.6709 284.091L8.06738 283.838C7.7385 283.325 7.41941 282.805 7.11035 282.279L6.70703 282.516C6.39531 281.985 6.09299 281.448 5.80176 280.904L6.21484 280.685C5.92736 280.148 5.64961 279.605 5.38281 279.056L4.96094 279.26C4.69222 278.707 4.4359 278.147 4.18848 277.582L4.61621 277.396C4.37206 276.838 4.13871 276.275 3.91602 275.706L3.47852 275.877C3.25438 275.305 3.04293 274.726 2.84082 274.144L3.2832 273.991C3.08385 273.416 2.89498 272.836 2.71777 272.251L2.27051 272.386C2.09233 271.798 1.92407 271.205 1.76855 270.607L2.22266 270.49C2.06965 269.902 1.92724 269.31 1.79688 268.713L1.34082 268.812C1.20985 268.212 1.08638 267.609 0.978516 267.001L1.44238 266.919C1.33622 266.321 1.24129 265.718 1.1582 265.112L0.695312 265.175C0.611904 264.566 0.537443 263.955 0.477539 263.339L0.945312 263.294C0.886526 262.69 0.839194 262.082 0.803711 261.472L0.334961 261.498C0.299421 260.886 0.275604 260.271 0.263672 259.653L0.733398 259.646L0.724609 258.728V257.791H0.253906V255.919H0.724609V254.047H0.253906V252.175H0.724609V250.302H0.253906V248.43H0.724609V246.558H0.253906V244.686H0.724609V242.813H0.253906V240.94H0.724609V239.068H0.253906V237.196H0.724609V235.324H0.253906V233.452H0.724609V231.58H0.253906V229.707H0.724609V227.835H0.253906V225.963H0.724609V224.091H0.253906V222.219H0.724609V220.346H0.253906V218.474H0.724609V216.602H0.253906V214.729H0.724609V212.857H0.253906V210.985H0.724609V209.112H0.253906V207.24H0.724609V205.368H0.253906V203.496H0.724609V201.624H0.253906V199.751H0.724609V197.879H0.253906V196.007H0.724609V194.135H0.253906V192.263H0.724609V190.39H0.253906V188.518H0.724609V186.646H0.253906V184.773H0.724609V182.901H0.253906V181.029H0.724609V179.156H0.253906V177.284H0.724609V175.412H0.253906V173.54H0.724609V171.668H0.253906V169.796H0.724609V167.923H0.253906V166.051H0.724609V164.179H0.253906V162.307H0.724609V160.435H0.253906V158.562H0.724609V156.689H0.253906V154.817H0.724609V152.945H0.253906V151.073H0.724609V149.201H0.253906V147.328H0.724609V145.456H0.253906V143.584H0.724609V141.712H0.253906V139.84H0.724609V137.967H0.253906V136.095H0.724609V134.223H0.253906V132.351H0.724609V130.479H0.253906V128.606H0.724609V126.733H0.253906V124.861H0.724609V122.989H0.253906V121.117H0.724609V119.245H0.253906V117.372H0.724609V115.5H0.253906V113.628H0.724609V111.756H0.253906V109.884H0.724609V108.011H0.253906V106.139H0.724609V104.267H0.253906V102.395H0.724609V100.522H0.253906V98.6504H0.724609V96.7773H0.253906V94.9053H0.724609V93.0332H0.253906V91.1611H0.724609V89.2891H0.253906V87.416H0.724609V85.5439H0.253906V83.6719H0.724609V81.7998H0.253906V79.9277H0.724609V78.0547H0.253906V76.1826H0.724609V74.3105H0.253906V72.4385H0.724609V71.502C0.724612 71.1956 0.727508 70.8899 0.733398 70.585L0.263672 70.5752C0.275611 69.9576 0.299438 69.343 0.334961 68.7314L0.803711 68.7578C0.839195 68.1471 0.886525 67.5396 0.945312 66.9355L0.477539 66.8896C0.537457 66.274 0.61189 65.6622 0.695312 65.0537L1.1582 65.1172C1.24129 64.5112 1.33621 63.9089 1.44238 63.3105L0.978516 63.2275C1.08639 62.6196 1.20984 62.0166 1.34082 61.417L1.79688 61.5176C1.92726 60.9207 2.06963 60.3273 2.22266 59.7393L1.76855 59.6211C1.92408 59.0235 2.09232 58.4309 2.27051 57.8428L2.71777 57.9785C2.89494 57.3938 3.0839 56.814 3.2832 56.2393L2.84082 56.085C3.04294 55.5021 3.25437 54.9238 3.47852 54.3516L3.91602 54.5234C4.13871 53.9549 4.37206 53.3914 4.61621 52.834L4.18848 52.6465C4.43591 52.0816 4.69221 51.5218 4.96094 50.9688L5.38281 51.1748C5.64964 50.6257 5.92732 50.0817 6.21484 49.5449L5.80176 49.3242C6.093 48.7805 6.3953 48.2436 6.70703 47.7129L7.11035 47.9502C7.4194 47.424 7.73852 46.9043 8.06738 46.3916L7.6709 46.1377C8.00378 45.6187 8.34873 45.1083 8.70117 44.6035L9.08496 44.8721C9.43415 44.372 9.79307 43.879 10.1611 43.3936L9.78711 43.1104C10.1595 42.6192 10.5407 42.135 10.9316 41.6592L11.2939 41.958C11.6812 41.4867 12.0773 41.0229 12.4824 40.5674L12.1328 40.2568C12.5423 39.7964 12.9597 39.3434 13.3867 38.8994L13.7246 39.2246C14.1471 38.7853 14.5782 38.3542 15.0176 37.9316L14.6924 37.5938C15.1364 37.1668 15.5894 36.7493 16.0498 36.3398L16.3604 36.6895C16.8159 36.2844 17.2797 35.8882 17.751 35.501L17.4521 35.1387C17.928 34.7477 18.4121 34.3665 18.9033 33.9941L19.1865 34.3682C19.672 34.0001 20.1649 33.6412 20.665 33.292L20.3965 32.9082C20.9012 32.5558 21.4117 32.2108 21.9307 31.8779L22.1846 32.2744C22.6973 31.9455 23.217 31.6264 23.7432 31.3174L23.5059 30.9141C24.0366 30.6023 24.5734 30.3 25.1172 30.0088L25.3379 30.4219C25.8747 30.1343 26.4186 29.8567 26.9678 29.5898L26.7617 29.168C27.3147 28.8992 27.8746 28.6429 28.4395 28.3955L28.627 28.8232C29.1843 28.5791 29.7479 28.3457 30.3164 28.123L30.1445 27.6855C30.7167 27.4614 31.295 27.25 31.8779 27.0479L32.0322 27.4902C32.607 27.2909 33.1867 27.102 33.7715 26.9248L33.6357 26.4775C34.2239 26.2993 34.8164 26.1311 35.4141 25.9756L35.5322 26.4297C36.1203 26.2767 36.7137 26.1343 37.3105 26.0039L37.21 25.5479C37.8096 25.4169 38.4126 25.2934 39.0205 25.1855L39.1035 25.6494C39.7019 25.5432 40.3041 25.4483 40.9102 25.3652L40.8467 24.9023C41.4552 24.8189 42.067 24.7445 42.6826 24.6846L42.7285 25.1523C43.3326 25.0936 43.9401 25.0462 44.5508 25.0107L44.5244 24.542C45.1359 24.5065 45.7506 24.4826 46.3682 24.4707L46.3779 24.9404C46.6829 24.9345 46.9886 24.9316 47.2949 24.9316H48.2363V24.4609H50.1182V24.9316H51.999V24.4609H53.8809V24.9316H55.7627V24.4609H57.6445V24.9316H59.5264V24.4609H61.4082V24.9316H63.2891V24.4609H65.1709V24.9316H67.0527V24.4609H68.9346V24.9316H70.8164V24.4609H72.6973V24.9316H74.5791V24.4609H76.4609V24.9316H78.3428V24.4609H80.2246V24.9316H82.1064V24.4609H83.9873V24.9316H85.8691V24.4609H87.751V24.9316H89.6328V24.4609H91.5146V24.9316H93.3955V24.4609H95.2773V24.9316H97.1592V24.4609H99.041V24.9316H100.923V24.4609H102.804V24.9316H104.686V24.4609H106.567V24.9316H108.449V24.4609H110.331V24.9316H112.213V24.4609H114.094V24.9316H115.976V24.4609H117.857V24.9316H119.739V24.4609H121.621V24.9316H123.502V24.4609H125.384V24.9316H127.266V24.4609H129.147V24.9316H131.029V24.4609H132.911V24.9316H134.792V24.4609H136.674V24.9316H138.556V24.4609H140.438V24.9316H142.319V24.4609H144.2V24.9316H146.082V24.4609H147.964V24.9316H149.846V24.4609H151.728V24.9316H153.608V24.4609H155.49V24.9316H157.372V24.4609H159.254V24.9316H161.136V24.4609H163.018V24.9316H164.898V24.4609H166.78V24.9316H168.662V24.4609H170.544V24.9316H172.426V24.4609H174.307V24.9316H176.188V24.4609H178.07V24.9316H179.952V24.4609H181.834V24.9316H183.715V24.4609H185.597V24.9316H187.479V24.4609H189.36V24.9316H191.242V24.4609H193.124V24.9316H194.064C194.371 24.9316 194.677 24.9345 194.982 24.9404L194.99 24.4707C195.608 24.4826 196.223 24.5065 196.835 24.542L196.809 25.0107C197.42 25.0462 198.027 25.0935 198.632 25.1523L198.676 24.6846C199.292 24.7445 199.904 24.8189 200.513 24.9023L200.449 25.3652C201.055 25.4483 201.658 25.5432 202.257 25.6494L202.338 25.1865C202.946 25.2944 203.55 25.4168 204.149 25.5479L204.05 26.0039C204.647 26.1343 205.239 26.2767 205.827 26.4297L205.944 25.9756C206.542 26.1311 207.135 26.2994 207.723 26.4775L207.588 26.9248C208.173 27.102 208.753 27.2909 209.328 27.4902L209.481 27.0479C210.064 27.2499 210.642 27.4615 211.214 27.6855L211.044 28.123C211.612 28.3457 212.175 28.5792 212.732 28.8232L212.92 28.3955C213.485 28.6428 214.044 28.8994 214.597 29.168L214.393 29.5898C214.942 29.8567 215.485 30.1344 216.021 30.4219L216.242 30.0088C216.786 30.2999 217.322 30.6025 217.853 30.9141L217.616 31.3174C218.142 31.6264 218.662 31.9456 219.175 32.2744L219.429 31.8779C219.947 32.2107 220.457 32.5559 220.962 32.9082L220.695 33.292C221.195 33.6411 221.688 34.0002 222.174 34.3682L222.456 33.9951C222.947 34.3674 223.432 34.7478 223.907 35.1387L223.609 35.501C224.08 35.8881 224.544 36.2845 224.999 36.6895L225.31 36.3398C225.77 36.7491 226.223 37.166 226.667 37.5928L226.342 37.9316C226.781 38.3543 227.213 38.7851 227.636 39.2246L227.973 38.8994C228.399 39.3431 228.816 39.7958 229.226 40.2559L228.877 40.5674C229.282 41.0229 229.679 41.4867 230.066 41.958L230.428 41.6592C230.819 42.1349 231.199 42.6193 231.571 43.1104L231.199 43.3936C231.567 43.879 231.926 44.372 232.275 44.8721L232.658 44.6035C233.01 45.108 233.356 45.618 233.688 46.1367L233.293 46.3916C233.622 46.9043 233.941 47.424 234.25 47.9502L234.652 47.7129C234.964 48.2435 235.265 48.7806 235.557 49.3242L235.146 49.5449C235.433 50.0817 235.71 50.6257 235.977 51.1748L236.397 50.9688C236.666 51.5218 236.922 52.0816 237.17 52.6465L236.743 52.834C236.987 53.3914 237.221 53.9549 237.443 54.5234L237.88 54.3516C238.104 54.9239 238.316 55.502 238.519 56.085L238.077 56.2393C238.276 56.814 238.464 57.3938 238.642 57.9785L239.089 57.8428C239.267 58.4309 239.435 59.0235 239.591 59.6211L239.138 59.7393C239.291 60.3273 239.432 60.9207 239.562 61.5176L240.019 61.417C240.15 62.0168 240.272 62.6203 240.38 63.2285L239.918 63.3105C240.024 63.9088 240.118 64.5112 240.201 65.1172L240.664 65.0537C240.747 65.6622 240.822 66.274 240.882 66.8896L240.414 66.9355C240.473 67.5397 240.52 68.1471 240.556 68.7578L241.024 68.7314C241.06 69.343 241.084 69.9576 241.096 70.5752H241.097L240.627 70.585C240.633 70.8899 240.636 71.1956 240.636 71.502V72.4727H241.106V74.4131H240.636V76.3535H241.106V78.2939H240.636V80.2344H241.106V82.1748H240.636V84.1152H241.106V86.0557H240.636V87.9961H241.106V89.9365H240.636V91.877H241.106V93.8174H240.636V95.6992H241.106V97.5215H240.636V99.3447H241.106V101.167H240.636V102.99H241.106V104.812H240.636V106.636H241.106V108.458H240.636V110.281H241.106V112.104H240.636V113.926H241.106V115.749H240.636V117.571H241.106V119.395H240.636V120.306C240.636 120.626 240.639 120.947 240.646 121.267L241.115 121.257L241.116 121.256C241.129 121.891 241.154 122.525 241.192 123.157L240.723 123.187C240.762 123.826 240.813 124.465 240.878 125.102L241.346 125.055C241.41 125.686 241.49 126.315 241.579 126.942L241.576 126.943L241.111 127.01C241.202 127.644 241.305 128.276 241.421 128.906L241.883 128.821L241.885 128.82C242 129.444 242.128 130.065 242.268 130.684L242.266 130.685L241.807 130.788C241.948 131.413 242.102 132.036 242.269 132.654L242.723 132.531L242.726 132.53C242.89 133.143 243.063 133.753 243.253 134.358H243.254L242.805 134.499C242.996 135.11 243.2 135.718 243.416 136.321L243.859 136.162V136.161C244.073 136.758 244.299 137.351 244.537 137.939L244.536 137.94L244.101 138.116C244.221 138.413 244.344 138.709 244.47 139.004L244.821 139.825L245.254 139.641V139.64L245.957 141.283L245.525 141.469L246.229 143.112L246.661 142.928V142.927L247.364 144.57L246.932 144.756L247.636 146.399L248.068 146.215V146.214L248.771 147.857L248.339 148.043L249.043 149.687L249.475 149.501L250.179 151.144V151.145L249.746 151.33L250.45 152.974L250.882 152.788Z" stroke="black" stroke-opacity="0.28" stroke-width="0.940828" stroke-dasharray="1.88 1.88"/>
<rect opacity="0.3" x="24.2458" y="47.5114" width="188.166" height="233.325" rx="23.9911" stroke="#441500" stroke-width="0.940828" stroke-dasharray="8.47 8.47"/>
<defs>
<radialGradient id="paint0_radial_200_63149" cx="0" cy="0" r="1" gradientTransform="matrix(131.065 24.302 -92.0531 90.1598 81.5688 7.52483)" gradientUnits="userSpaceOnUse">
<stop stop-color="#441500"/>
<stop offset="1" stop-color="#AA3500"/>
</radialGradient>
</defs>
</svg>
