<svg width="241" height="306" viewBox="0 0 241 306" fill="none" xmlns="http://www.w3.org/2000/svg">
<path d="M153.352 12.2308C153.352 18.9856 158.828 24.4615 165.583 24.4615H176.873H59.2695H70.5595C77.3143 24.4615 82.7902 18.9856 82.7902 12.2308V12.2308C82.7902 5.4759 88.2661 0 95.021 0H141.122C147.876 0 153.352 5.4759 153.352 12.2308V12.2308Z" fill="#D9D9D9"/>
<path d="M153.352 12.2308C153.352 18.9856 158.828 24.4615 165.583 24.4615H176.873H59.2695H70.5595C77.3143 24.4615 82.7902 18.9856 82.7902 12.2308V12.2308C82.7902 5.4759 88.2661 0 95.021 0H141.122C147.876 0 153.352 5.4759 153.352 12.2308V12.2308Z" fill="url(#paint0_radial_202_63168)"/>
<path d="M0 71.5024C0 45.5221 21.0612 24.4609 47.0414 24.4609H193.811C219.791 24.4609 240.852 45.5221 240.852 71.5024V94.7879V129.951V200.278V235.442V258.727C240.852 284.707 219.791 305.769 193.811 305.769H47.0414C21.0612 305.769 0 284.707 0 258.727V235.442V209.924C0 203.56 1.29141 197.262 3.79605 191.411L15.0533 165.115L3.79605 138.819C1.29141 132.968 0 126.67 0 120.306V94.7879V71.5024Z" fill="#EBE2D4"/>
<path d="M240.771 68.7314C240.806 69.343 240.83 69.9576 240.842 70.5752H240.843L240.373 70.585C240.379 70.8899 240.382 71.1956 240.382 71.502V72.4727H240.853V74.4131H240.382V76.3535H240.853V78.2939H240.382V80.2344H240.853V82.1748H240.382V84.1152H240.853V86.0557H240.382V87.9961H240.853V89.9365H240.382V91.877H240.853V93.8174H240.382V95.7646H240.853V97.7178H240.382V99.6719H240.853V101.625H240.382V103.579H240.853V105.532H240.382V107.485H240.853V109.439H240.382V111.393H240.853V113.347H240.382V115.3H240.853V117.253H240.382V119.207H240.853V121.16H240.382V123.114H240.853V125.067H240.382V127.021H240.853V128.975H240.382V130.877H240.853V132.728H240.382V134.578H240.853V136.429H240.382V138.279H240.853V140.13H240.382V141.98H240.853V143.832H240.382V145.683H240.853V147.533H240.382V149.384H240.853V151.234H240.382V153.085H240.853V154.936H240.382V156.786H240.853V158.638H240.382V160.488H240.853V162.339H240.382V164.189H240.853V166.04H240.382V167.891H240.853V169.741H240.382V171.592H240.853V173.443H240.382V175.294H240.853V177.145H240.382V178.995H240.853V180.846H240.382V182.696H240.853V184.547H240.382V186.397H240.853V188.249H240.382V190.1H240.853V191.95H240.382V193.801H240.853V195.651H240.382V197.502H240.853V199.353H240.382V201.255H240.853V203.209H240.382V205.162H240.853V207.115H240.382V209.069H240.853V211.022H240.382V212.977H240.853V214.93H240.382V216.883H240.853V218.837H240.382V220.79H240.853V222.744H240.382V224.697H240.853V226.65H240.382V228.604H240.853V230.558H240.382V232.512H240.853V234.465H240.382V236.412H240.853V238.353H240.382V240.293H240.853V242.233H240.382V244.174H240.853V246.114H240.382V248.055H240.853V249.995H240.382V251.936H240.853V253.876H240.382V255.816H240.853V257.757H240.382V258.728C240.382 259.034 240.379 259.34 240.373 259.646L240.842 259.653C240.83 260.271 240.806 260.886 240.771 261.498L240.302 261.472C240.266 262.082 240.219 262.69 240.16 263.294L240.628 263.339C240.568 263.955 240.494 264.566 240.41 265.175L239.947 265.112C239.864 265.718 239.77 266.321 239.664 266.919L240.126 267C240.018 267.608 239.896 268.212 239.765 268.812L239.309 268.713C239.178 269.31 239.037 269.902 238.884 270.49L239.337 270.607C239.181 271.205 239.013 271.798 238.835 272.387L238.388 272.251C238.211 272.836 238.023 273.416 237.823 273.99L238.265 274.144C238.062 274.727 237.85 275.305 237.626 275.877L237.189 275.706C236.967 276.275 236.733 276.838 236.489 277.396L236.916 277.582C236.669 278.147 236.412 278.707 236.144 279.26L235.723 279.055C235.456 279.604 235.179 280.148 234.892 280.685L235.304 280.905C235.013 281.449 234.71 281.985 234.398 282.516L233.996 282.279C233.687 282.805 233.368 283.325 233.039 283.838L233.435 284.092C233.102 284.611 232.757 285.12 232.404 285.625L232.021 285.357C231.672 285.858 231.313 286.35 230.945 286.836L231.317 287.118C230.945 287.609 230.566 288.094 230.175 288.569L229.812 288.271C229.425 288.743 229.028 289.207 228.623 289.662L228.972 289.973C228.563 290.433 228.145 290.885 227.719 291.329L227.382 291.005C226.959 291.444 226.527 291.875 226.088 292.298L226.412 292.636C225.968 293.062 225.516 293.48 225.056 293.889L224.745 293.54C224.29 293.945 223.827 294.341 223.355 294.729L223.653 295.09C223.178 295.481 222.693 295.861 222.202 296.233L221.92 295.862C221.434 296.23 220.942 296.589 220.441 296.938L220.708 297.32C220.203 297.673 219.694 298.018 219.175 298.351L218.921 297.955C218.408 298.284 217.889 298.603 217.363 298.912L217.599 299.314C217.068 299.626 216.532 299.929 215.988 300.22L215.768 299.808C215.231 300.095 214.688 300.373 214.139 300.64L214.343 301.061C213.79 301.329 213.231 301.586 212.666 301.833L212.479 301.406C211.921 301.65 211.358 301.884 210.79 302.106L210.96 302.543C210.388 302.767 209.81 302.979 209.228 303.181L209.074 302.739C208.499 302.939 207.919 303.127 207.334 303.305L207.469 303.751C206.881 303.929 206.288 304.098 205.69 304.254L205.573 303.8C204.985 303.953 204.393 304.095 203.796 304.226L203.896 304.681C203.296 304.812 202.692 304.934 202.084 305.042L202.003 304.58C201.405 304.686 200.801 304.781 200.195 304.864L200.259 305.326C199.65 305.41 199.038 305.484 198.422 305.544L198.378 305.077C197.774 305.136 197.166 305.183 196.555 305.219L196.581 305.687C195.969 305.722 195.354 305.746 194.736 305.758L194.729 305.289C194.423 305.295 194.117 305.298 193.811 305.298H192.87V305.769H190.988V305.298H189.106V305.769H187.225V305.298H185.343V305.769H183.461V305.298H181.58V305.769H179.698V305.298H177.816V305.769H175.935V305.298H174.053V305.769H172.172V305.298H170.29V305.769H168.408V305.298H166.526V305.769H164.645V305.298H162.764V305.769H160.882V305.298H159V305.769H157.118V305.298H155.236V305.769H153.354V305.298H151.474V305.769H149.592V305.298H147.71V305.769H145.828V305.298H143.946V305.769H142.065V305.298H140.184V305.769H138.302V305.298H136.42V305.769H134.538V305.298H132.657V305.769H130.775V305.298H128.894V305.769H127.012V305.298H125.13V305.769H123.248V305.298H121.367V305.769H119.485V305.298H117.604V305.769H115.722V305.298H113.84V305.769H111.959V305.298H110.077V305.769H108.195V305.298H106.313V305.769H104.432V305.298H102.551V305.769H100.669V305.298H98.7871V305.769H96.9053V305.298H95.0234V305.769H93.1416V305.298H91.2607V305.769H89.3789V305.298H87.4971V305.769H85.6152V305.298H83.7334V305.769H81.8525V305.298H79.9707V305.769H78.0889V305.298H76.207V305.769H74.3252V305.298H72.4434V305.769H70.5625V305.298H68.6807V305.769H66.7988V305.298H64.917V305.769H63.0352V305.298H61.1543V305.769H59.2725V305.298H57.3906V305.769H55.5088V305.298H53.627V305.769H51.7451V305.298H49.8643V305.769H47.9824V305.298H47.041C46.7346 305.298 46.429 305.295 46.124 305.289L46.1143 305.758C45.4967 305.746 44.8821 305.722 44.2705 305.687L44.2979 305.219C43.687 305.183 43.0789 305.136 42.4746 305.077L42.4287 305.544C41.813 305.484 41.2013 305.41 40.5928 305.326L40.6562 304.864C40.0502 304.781 39.448 304.686 38.8496 304.58L38.7676 305.043H38.7666C38.1587 304.935 37.5557 304.812 36.9561 304.681L37.0566 304.226C36.4598 304.095 35.8664 303.953 35.2783 303.8L35.1602 304.254C34.5624 304.098 33.9701 303.929 33.3818 303.751L33.5176 303.305C32.9328 303.128 32.3531 302.939 31.7783 302.739L31.624 303.181C31.0411 302.979 30.4628 302.767 29.8906 302.543L30.0625 302.106C29.494 301.884 28.9304 301.65 28.373 301.406L28.1855 301.833C27.6207 301.586 27.0608 301.329 26.5078 301.061L26.7139 300.64C26.1647 300.373 25.6208 300.095 25.084 299.808L24.8633 300.22C24.3195 299.928 23.7827 299.626 23.252 299.314L23.4893 298.912C22.9631 298.603 22.4433 298.284 21.9307 297.955L21.6768 298.351C21.1578 298.018 20.6473 297.673 20.1426 297.32L20.4111 296.938C19.9111 296.589 19.418 296.23 18.9326 295.862L18.6494 296.234C18.1582 295.862 17.6741 295.481 17.1982 295.09L17.4971 294.729C17.0258 294.341 16.562 293.945 16.1064 293.54L15.7959 293.889C15.3356 293.479 14.8823 293.063 14.4385 292.636L14.7637 292.298C14.3243 291.875 13.8932 291.444 13.4707 291.005L13.1328 291.329C12.7058 290.885 12.2883 290.432 11.8789 289.972L12.2285 289.662C11.8234 289.207 11.4272 288.743 11.04 288.271L10.6768 288.569C10.2859 288.094 9.90547 287.609 9.5332 287.118L9.90723 286.836C9.53915 286.35 9.18026 285.858 8.83105 285.357L8.44727 285.625C8.09482 285.12 7.74987 284.61 7.41699 284.091L7.81348 283.838C7.4846 283.325 7.1655 282.805 6.85645 282.279L6.45312 282.516C6.1414 281.985 5.83909 281.448 5.54785 280.904L5.96094 280.685C5.67341 280.148 5.39574 279.604 5.12891 279.055L4.70703 279.26C4.43831 278.707 4.18199 278.147 3.93457 277.582L4.3623 277.396C4.11815 276.838 3.8848 276.275 3.66211 275.706L3.22461 275.877C3.00047 275.305 2.78903 274.726 2.58691 274.144L3.0293 273.99C2.82999 273.415 2.64103 272.836 2.46387 272.251L2.0166 272.386C1.83842 271.798 1.67016 271.205 1.51465 270.607L1.96875 270.49C1.81575 269.902 1.67333 269.31 1.54297 268.713L1.08691 268.812C0.955942 268.212 0.832471 267.609 0.724609 267.001L1.18848 266.919C1.08231 266.321 0.987382 265.718 0.904297 265.112L0.441406 265.175C0.357997 264.566 0.283537 263.955 0.223633 263.339L0.691406 263.294C0.632619 262.69 0.585288 262.082 0.549805 261.472L0.0810547 261.498C0.0455144 260.886 0.0216976 260.271 0.00976562 259.653L0.479492 259.646L0.470703 258.728V257.757H0V255.816H0.470703V253.876H0V251.936H0.470703V249.995H0V248.055H0.470703V246.114H0V244.174H0.470703V242.233H0V240.293H0.470703V238.353H0V236.412H0.470703V234.53H0V232.708H0.470703V230.885H0V229.062H0.470703V227.239H0V225.417H0.470703V223.594H0V221.771H0.470703V219.949H0V218.126H0.470703V216.304H0V214.48H0.470703V212.658H0V210.835H0.470703V209.924C0.470704 209.61 0.473151 209.296 0.479492 208.982L0.00976562 208.973C0.0226043 208.338 0.048476 207.704 0.0869141 207.071L0.555664 207.1C0.593758 206.473 0.644674 205.847 0.708008 205.223L0.240234 205.175C0.304311 204.543 0.384141 203.914 0.473633 203.286L0.936523 203.353C1.02512 202.731 1.12663 202.111 1.24023 201.494L0.779297 201.409C0.894135 200.785 1.02115 200.164 1.16113 199.545L1.61816 199.648C1.75665 199.036 1.90712 198.427 2.07031 197.82L1.61914 197.698C1.78395 197.086 1.95786 196.476 2.14746 195.87L2.14844 195.871L2.59668 196.012C2.78415 195.413 2.9845 194.817 3.19629 194.226L2.75293 194.067C2.96661 193.471 3.19263 192.878 3.43066 192.289L3.86621 192.466L4.22852 191.596L4.58008 190.774L4.14746 190.589L4.85156 188.945L5.28418 189.131L5.9873 187.487L5.55469 187.302L6.25879 185.658L6.69141 185.844L7.39453 184.2L6.96191 184.015L7.66504 182.371L7.66602 182.372L8.09863 182.557L8.80176 180.913L8.36914 180.729L9.07227 179.084L9.07324 179.085L9.50488 179.27L10.209 177.626L9.77637 177.441L10.4795 175.797L10.4805 175.798L10.9121 175.982L11.6162 174.339L11.1836 174.154L11.8867 172.511L12.3193 172.695L13.0234 171.052L12.5908 170.867L13.2939 169.224L13.7266 169.408L14.4307 167.766L13.998 167.58L14.7012 165.937L15.1338 166.122L15.4854 165.3L15.5654 165.115L15.4854 164.93L15.1338 164.107L14.7012 164.292L13.998 162.648L14.4307 162.465L13.7266 160.821L13.2939 161.005L12.5908 159.361L13.0234 159.178L12.3193 157.534L11.8867 157.718L11.1836 156.074L11.6162 155.891L10.9121 154.247L10.4795 154.432L9.77637 152.787L10.209 152.604L9.50488 150.96L9.07227 151.145L8.36914 149.5L8.80176 149.316L8.09863 147.673L7.66504 147.858L6.96191 146.214L7.39453 146.029L6.69141 144.386L6.25781 144.571L5.55469 142.927L5.9873 142.742L5.28418 141.099L4.85059 141.284L4.14746 139.64L4.58008 139.455L4.22852 138.634L3.86621 137.764L3.43066 137.939C3.19264 137.351 2.96659 136.758 2.75293 136.161L3.19629 136.004C2.9845 135.412 2.78415 134.817 2.59668 134.218L2.14746 134.358C1.95787 133.753 1.78394 133.143 1.61914 132.53L2.07031 132.409C1.90712 131.803 1.75665 131.193 1.61816 130.581L1.16113 130.684C1.02124 130.065 0.894077 129.444 0.779297 128.82L1.24023 128.735C1.12663 128.118 1.02512 127.499 0.936523 126.877L0.473633 126.942C0.384155 126.315 0.304297 125.685 0.240234 125.054L0.708008 125.007C0.644675 124.383 0.593757 123.757 0.555664 123.13L0.0869141 123.157C0.0484901 122.525 0.0225901 121.891 0.00976562 121.256L0.479492 121.247L0.470703 120.306V119.395H0V117.571H0.470703V115.749H0V113.926H0.470703V112.104H0V110.281H0.470703V108.458H0V106.636H0.470703V104.812H0V102.99H0.470703V101.167H0V99.3447H0.470703V97.5215H0V95.6992H0.470703V93.8174H0V91.877H0.470703V89.9365H0V87.9961H0.470703V86.0557H0V84.1152H0.470703V82.1748H0V80.2344H0.470703V78.2939H0V76.3535H0.470703V74.4131H0V72.4727H0.470703V71.502C0.470706 71.1956 0.473601 70.8899 0.479492 70.585L0.00976562 70.5752C0.0217048 69.9576 0.0455321 69.343 0.0810547 68.7314L0.549805 68.7578C0.585289 68.1471 0.632618 67.5396 0.691406 66.9355L0.223633 66.8896C0.283551 66.274 0.357984 65.6622 0.441406 65.0537L0.904297 65.1172C0.987383 64.5112 1.08231 63.9089 1.18848 63.3105L0.725586 63.2285L0.724609 63.2275C0.832484 62.6196 0.955929 62.0166 1.08691 61.417L1.54297 61.5176C1.67335 60.9207 1.81572 60.3273 1.96875 59.7393L1.51465 59.6211C1.67018 59.0235 1.83841 58.4309 2.0166 57.8428L2.46387 57.9785C2.64104 57.3938 2.82999 56.814 3.0293 56.2393L2.58691 56.085C2.78904 55.5021 3.00046 54.9238 3.22461 54.3516L3.66211 54.5234C3.88481 53.9549 4.11815 53.3914 4.3623 52.834L3.93457 52.6465C4.182 52.0816 4.43831 51.5218 4.70703 50.9688L5.12891 51.1748C5.39574 50.6257 5.67341 50.0817 5.96094 49.5449L5.54785 49.3242C5.83909 48.7805 6.1414 48.2436 6.45312 47.7129L6.85645 47.9502C7.16549 47.424 7.48461 46.9043 7.81348 46.3916L7.41699 46.1377C7.74987 45.6187 8.09482 45.1083 8.44727 44.6035L8.83105 44.8721C9.18025 44.372 9.53916 43.879 9.90723 43.3936L9.5332 43.1104C9.9056 42.6192 10.2868 42.135 10.6777 41.6592L11.04 41.958C11.4272 41.4867 11.8234 41.0229 12.2285 40.5674L11.8789 40.2568C12.2883 39.7964 12.7058 39.3434 13.1328 38.8994L13.4707 39.2246C13.8932 38.7853 14.3243 38.3542 14.7637 37.9316L14.4385 37.5938C14.8824 37.1668 15.3355 36.7493 15.7959 36.3398L16.1064 36.6895C16.562 36.2844 17.0258 35.8882 17.4971 35.501L17.1982 35.1387C17.6741 34.7477 18.1582 34.3665 18.6494 33.9941L18.9326 34.3682C19.4181 34.0001 19.911 33.6412 20.4111 33.292L20.1426 32.9082C20.6473 32.5558 21.1578 32.2108 21.6768 31.8779L21.9307 32.2744C22.4433 31.9455 22.9631 31.6264 23.4893 31.3174L23.252 30.9141C23.7827 30.6023 24.3195 30.3 24.8633 30.0088L25.084 30.4219C25.6208 30.1343 26.1647 29.8567 26.7139 29.5898L26.5078 29.168C27.0608 28.8992 27.6207 28.6429 28.1855 28.3955L28.373 28.8232C28.9304 28.5791 29.494 28.3457 30.0625 28.123L29.8906 27.6855C30.4628 27.4614 31.0411 27.25 31.624 27.0479L31.7783 27.4902C32.3531 27.2909 32.9328 27.102 33.5176 26.9248L33.3818 26.4775C33.97 26.2993 34.5625 26.1311 35.1602 25.9756L35.2783 26.4297C35.8664 26.2767 36.4598 26.1343 37.0566 26.0039L36.9561 25.5479C37.5556 25.4169 38.1587 25.2934 38.7666 25.1855L38.7676 25.1865L38.8496 25.6494C39.448 25.5432 40.0502 25.4483 40.6562 25.3652L40.5928 24.9023C41.2012 24.8189 41.8131 24.7445 42.4287 24.6846L42.4746 25.1523C43.0787 25.0936 43.6862 25.0462 44.2969 25.0107L44.2705 24.542C44.882 24.5065 45.4967 24.4826 46.1143 24.4707L46.124 24.9404C46.429 24.9345 46.7346 24.9316 47.041 24.9316H47.9824V24.4609H49.8643V24.9316H51.7461V24.4609H53.627V24.9316H55.5088V24.4609H57.3906V24.9316H59.2725V24.4609H61.1543V24.9316H63.0352V24.4609H64.917V24.9316H66.7988V24.4609H68.6807V24.9316H70.5625V24.4609H72.4443V24.9316H74.3252V24.4609H76.207V24.9316H78.0889V24.4609H79.9707V24.9316H81.8525V24.4609H83.7334V24.9316H85.6152V24.4609H87.4971V24.9316H89.3789V24.4609H91.2607V24.9316H93.1416V24.4609H95.0234V24.9316H96.9053V24.4609H98.7871V24.9316H100.669V24.4609H102.551V24.9316H104.432V24.4609H106.313V24.9316H108.195V24.4609H110.077V24.9316H111.959V24.4609H113.84V24.9316H115.722V24.4609H117.604V24.9316H119.485V24.4609H121.367V24.9316H123.248V24.4609H125.13V24.9316H127.012V24.4609H128.894V24.9316H130.775V24.4609H132.657V24.9316H134.538V24.4609H136.42V24.9316H138.302V24.4609H140.184V24.9316H142.065V24.4609H143.946V24.9316H145.828V24.4609H147.71V24.9316H149.592V24.4609H151.474V24.9316H153.355V24.4609H155.236V24.9316H157.118V24.4609H159V24.9316H160.882V24.4609H162.764V24.9316H164.645V24.4609H166.526V24.9316H168.408V24.4609H170.29V24.9316H172.172V24.4609H174.054V24.9316H175.935V24.4609H177.816V24.9316H179.698V24.4609H181.58V24.9316H183.462V24.4609H185.343V24.9316H187.225V24.4609H189.106V24.9316H190.988V24.4609H192.87V24.9316H193.811C194.117 24.9316 194.423 24.9345 194.729 24.9404L194.736 24.4707C195.354 24.4826 195.969 24.5065 196.581 24.542L196.555 25.0107C197.166 25.0462 197.774 25.0935 198.378 25.1523L198.422 24.6846C199.038 24.7445 199.65 24.8189 200.259 24.9023L200.195 25.3652C200.801 25.4483 201.405 25.5432 202.003 25.6494L202.084 25.1865C202.692 25.2944 203.296 25.4168 203.896 25.5479L203.796 26.0039C204.393 26.1343 204.985 26.2767 205.573 26.4297L205.69 25.9756C206.288 26.1311 206.881 26.2994 207.469 26.4775L207.334 26.9248C207.919 27.102 208.499 27.2909 209.074 27.4902L209.228 27.0479C209.81 27.2499 210.388 27.4615 210.96 27.6855L210.79 28.123C211.358 28.3457 211.921 28.5792 212.479 28.8232L212.666 28.3955C213.231 28.6428 213.79 28.8994 214.343 29.168L214.139 29.5898C214.688 29.8567 215.231 30.1344 215.768 30.4219L215.988 30.0088C216.532 30.2999 217.068 30.6025 217.599 30.9141L217.362 31.3174C217.888 31.6264 218.408 31.9456 218.921 32.2744L219.175 31.8779C219.694 32.2107 220.203 32.5559 220.708 32.9082L220.441 33.292C220.941 33.6411 221.435 34.0002 221.92 34.3682L222.202 33.9951C222.693 34.3674 223.178 34.7478 223.653 35.1387L223.355 35.501C223.827 35.8881 224.29 36.2845 224.745 36.6895L225.056 36.3398C225.516 36.7491 225.969 37.166 226.413 37.5928L226.088 37.9316C226.527 38.3543 226.959 38.7851 227.382 39.2246L227.719 38.8994C228.145 39.3431 228.563 39.7958 228.972 40.2559L228.623 40.5674C229.028 41.0229 229.425 41.4867 229.812 41.958L230.174 41.6592C230.565 42.1349 230.945 42.6193 231.317 43.1104L230.945 43.3936C231.313 43.879 231.672 44.372 232.021 44.8721L232.404 44.6035C232.757 45.108 233.102 45.618 233.435 46.1367V46.1377L233.039 46.3916C233.368 46.9043 233.687 47.424 233.996 47.9502L234.398 47.7129C234.71 48.2435 235.012 48.7806 235.303 49.3242L234.892 49.5449C235.179 50.0817 235.456 50.6257 235.723 51.1748L236.144 50.9688C236.412 51.5218 236.669 52.0816 236.916 52.6465L236.489 52.834C236.733 53.3914 236.967 53.9549 237.189 54.5234L237.626 54.3516C237.85 54.9239 238.062 55.502 238.265 56.085L237.823 56.2393C238.023 56.814 238.211 57.3938 238.388 57.9785L238.835 57.8428C239.013 58.4309 239.181 59.0235 239.337 59.6211L238.884 59.7393C239.037 60.3273 239.178 60.9207 239.309 61.5176L239.765 61.417C239.896 62.0168 240.018 62.6203 240.126 63.2285L239.664 63.3105C239.77 63.9088 239.864 64.5112 239.947 65.1172L240.41 65.0537C240.494 65.6622 240.568 66.274 240.628 66.8896L240.16 66.9355C240.219 67.5397 240.266 68.1471 240.302 68.7578L240.771 68.7314Z" stroke="black" stroke-opacity="0.28" stroke-width="0.940828" stroke-dasharray="1.88 1.88"/>
<rect opacity="0.3" x="26.8093" y="47.5114" width="188.166" height="233.325" rx="23.9911" stroke="#441500" stroke-width="0.940828" stroke-dasharray="8.47 8.47"/>
<defs>
<radialGradient id="paint0_radial_202_63168" cx="0" cy="0" r="1" gradientTransform="matrix(131.065 24.302 -92.0531 90.1598 81.311 7.52483)" gradientUnits="userSpaceOnUse">
<stop stop-color="#441500"/>
<stop offset="1" stop-color="#AA3500"/>
</radialGradient>
</defs>
</svg>
