<svg width="356" height="272" viewBox="0 0 356 272" fill="none" xmlns="http://www.w3.org/2000/svg">
<g clip-path="url(#clip0_2086_32411)">
<path d="M289.569 112.4L330.507 117.718C335.013 160.525 301.144 168.431 294.923 147.389C287.497 151.715 278.503 138.55 289.569 112.4Z" fill="#005A5B"/>
<path d="M120.998 117.407C133.244 128.243 152.329 142.912 194.844 141.774L170.855 157.474C159.314 163.246 146.75 160.599 151.075 156.458C131.544 163.265 119.705 155.54 129.027 152.205C119.244 152.683 120.963 148.884 125.989 148.943C113.459 145.837 107.336 136.862 115.08 136.588C102.001 122.808 105.621 103.797 120.993 117.402L120.998 117.407Z" fill="#005A5B"/>
<path d="M178.384 211.229C179.344 207.987 180.236 206.024 186.08 199.778C201.843 182.941 194.383 171.201 209.916 147.078L243.883 186.398C238.592 198.308 229.868 202.879 217.093 209.911C208.98 214.374 200.761 218.393 197.229 225.513C194.642 230.723 195.338 233.799 195.524 241.959C198.008 244.801 201.432 245.309 203.347 249.235C205.444 253.533 202.916 257.737 199.453 258.094C196.7 260.833 192.262 260.491 189.474 259.007C182.783 261.38 180.427 257.556 178.555 252.185C176.14 245.26 175.577 220.703 178.384 211.224V211.229Z" fill="#005A5B"/>
<path d="M282.236 203.209C281.026 198.57 280.345 193.814 279.679 189.932L311.902 187.051C324.124 197.926 334.401 192.979 341.763 201.188C348.612 208.83 347.828 221.424 348.043 231.054C348.2 237.968 347.989 249.361 338.418 250.171C334.362 250.513 332.167 247.378 331.785 245.777C324.094 239.707 333.886 226.864 328.371 221.546C320.009 223.734 308.296 224.447 310.471 220.726C301.09 223.729 286.135 223.226 291.068 213.865C283.392 214.04 274.893 213.752 282.236 203.214V203.209Z" fill="#005A5B"/>
<path d="M282.238 203.209C281.028 198.57 280.347 193.814 279.681 189.932L311.903 187.051C314.47 189.336 309.464 200.099 311.34 198.39C313.216 196.681 314.759 197.042 312.991 199.391C309.077 204.591 302.15 208.073 299.343 205.949C294.46 209.362 289.179 211.833 283.389 213.435C279.382 212.551 277.476 210.036 282.238 203.209Z" fill="#005A5B"/>
<path d="M184.734 141.539C210.912 126.748 242.513 146.339 268.417 134.019C279.811 107.469 296.446 101.169 319.048 117.948C312.239 135.982 328.762 150.275 328.052 165.696C327.714 173.006 325.196 172.035 324.084 167.977C322.58 186.816 313.028 198.189 306.63 202.115C301.688 205.148 299.332 204.894 301.497 201.109C289.074 211.457 275.392 213.908 260.28 212.932C220.19 210.334 214.483 183.061 181.021 201.964L163.406 168.016C166.448 162.942 170.862 149.376 184.739 141.539H184.734Z" fill="#005A5B"/>
<path d="M200.535 190.93C199.937 192.644 199.104 194.27 198.051 195.647C197.16 195.769 196.253 195.925 195.318 196.135C196.464 194.431 197.703 192.702 198.629 190.895C200.647 186.955 201.485 188.195 200.535 190.93Z" fill="#005A5B"/>
<path d="M298.414 108.406C303.969 109.466 312.512 113.099 319.047 117.953C318.66 118.978 318.356 119.989 318.116 120.985C313.046 119.042 305.63 116.669 300.917 115.409L298.414 108.406Z" fill="#005A5B"/>
<path d="M244.975 199.47C247.551 196.086 248.595 196.964 247.498 199.25L283.615 200.246C283.772 197.345 285.334 195.866 285.373 199.802C285.427 204.719 285.883 211.287 285.883 211.287C285.883 211.287 269.433 213.524 260.278 212.933C252.323 212.415 245.734 210.921 240.003 209.016C240.899 206.228 242.423 202.819 244.975 199.465V199.47Z" fill="#005A5B"/>
<path d="M249.339 196.076L284.138 192.164C282.155 214.256 285.613 233.266 289.605 245.938C291.31 251.349 292.422 252.721 297.649 255.27C306.363 259.514 304.203 269.295 299.491 269.788C297.174 272.747 292.299 272.381 288.934 270.774C282.277 273.338 276.482 269.241 273.224 263.41C270.731 258.952 268.693 254.162 266.837 248.629C265.48 251.085 261.968 248.199 263.697 241.475C259.812 246.71 255.227 244.888 256.78 236.377C254.365 237.456 253.405 234.887 254.625 231.621C246.184 239.277 239.988 232.441 247.855 215.276C236.603 219.71 242.981 206.443 249.339 196.08V196.076Z" fill="#005A5B"/>
<path d="M147.321 266.292C147.654 265.384 147.88 264.437 147.963 263.445C148.218 260.349 149.653 260.867 149.579 263.352C149.56 264.109 149.442 264.837 149.276 265.545C148.678 265.931 148.041 266.18 147.39 266.243C147.37 266.263 147.346 266.273 147.321 266.292Z" fill="#005A5B"/>
<path d="M137 264.553C136.99 265.281 137.074 266.189 137.27 267.156C136.682 267.361 136.118 267.503 135.57 267.615C135.398 266.516 135.335 265.423 135.384 264.646C135.55 262.161 137.039 261.467 137 264.553Z" fill="#005A5B"/>
<path d="M134.48 217.562C135.627 214.867 136.626 213.04 140.76 208.909C136.317 208.577 140.084 204.592 143.244 202.454C138.061 202.434 142.191 198.469 145.968 196.75C135.201 197.414 142.852 188.058 154.447 180.65C151.278 180.474 149.039 179.17 154.648 174.751C166.287 165.575 164.734 162.113 173.424 151.102L198.52 191.007C191.691 202.918 186.175 206.902 172.493 213.934C163.803 218.402 155.064 222.416 150.616 229.536C147.359 234.746 146.433 241.944 145.566 250.104C147.687 252.946 151.043 253.454 152.448 257.38C153.992 261.677 150.92 265.882 147.413 266.238C144.307 268.978 139.913 268.636 137.317 267.152C130.317 269.53 128.46 265.701 127.28 260.33C125.756 253.405 130.459 227.036 134.485 217.557L134.48 217.562Z" fill="#005A5B"/>
<path d="M287.793 267.361C287.96 268.289 288.357 269.514 288.93 270.779C288.366 270.994 287.818 271.145 287.269 271.272C286.72 269.915 286.319 268.435 286.196 267.459C285.878 264.973 287.235 264.28 287.793 267.366V267.361Z" fill="#005A5B"/>
<path d="M299.873 265.9C299.53 262.804 301.063 263.322 301.469 265.808C301.646 266.887 301.616 267.907 301.494 268.894C300.926 269.367 300.274 269.685 299.549 269.773C299.892 268.571 300.024 267.272 299.873 265.9Z" fill="#005A5B"/>
<path d="M330.434 244.405C330.586 243.868 330.748 243.374 330.909 242.994C331.889 240.684 333.413 240.767 332.34 243.716C332.134 244.283 331.948 245.02 331.801 245.831C331.247 245.357 330.811 244.893 330.434 244.41V244.405Z" fill="#005A5B"/>
<path d="M147.261 266.35C147.486 265.457 147.633 264.631 147.672 263.967C147.878 260.842 149.303 261.374 149.269 263.879C149.264 264.387 149.191 265.037 149.078 265.735C148.544 265.989 147.986 266.184 147.407 266.243C147.358 266.287 147.305 266.311 147.256 266.35H147.261Z" fill="#005A5B"/>
<path d="M137.578 264.529C137.554 265.227 137.407 266.194 137.176 267.195C136.495 267.42 135.868 267.581 135.281 267.688C135.658 266.521 135.903 265.418 135.976 264.578C136.255 261.457 137.666 262.024 137.578 264.529Z" fill="#005A5B"/>
<path d="M330.894 71.2902C334.876 69.6739 337.277 76.7887 333.931 78.1463C330.595 79.4989 327.132 72.8187 330.894 71.2902Z" fill="#005A5B"/>
<path d="M330.413 66.9194C329.625 65.8548 328.229 65.2005 327.229 65.01C324.516 64.4875 323.418 66.5727 325.706 67.9009C326.784 68.5259 327.528 68.7848 328.552 69.3805C330.242 70.3669 331.721 68.692 330.413 66.9242V66.9194Z" fill="#005A5B"/>
<path d="M352.046 82.2327C355.618 89.1571 356.69 95.4663 351.591 99.993C348.505 102.733 346.648 97.8737 346.129 94.2455C341.608 101.6 334.186 102.977 323.62 102.547C325.8 105.648 330.61 110.878 333.775 112.064C334.436 113.168 335.215 117.412 336.92 119.209C332.967 121.494 327.225 121.279 320.029 119.033L280.106 106.175L279.136 75.445C287.478 61.2495 300.068 53.7342 314.484 56.6055C323.694 58.4416 327.98 64.3747 330.934 70.9329C334.554 78.9805 337.689 78.0868 342.475 77.9892L352.046 82.2278V82.2327Z" fill="#005A5B"/>
<path d="M308.688 56.0195C310.584 56.0342 312.514 56.2149 314.488 56.6055C323.697 58.4416 327.984 64.3699 330.938 70.9329C332.686 74.82 334.322 76.6121 336.086 77.4227C334.381 77.4618 332.476 77.8085 330.242 76.2312C324.902 72.4614 327.695 61.3618 308.688 56.0195Z" fill="#005A5B"/>
<path d="M298.977 57.6351C308.691 57.2054 321.31 66.7228 322.388 79.7805C322.858 85.4451 319.992 88.5752 314.574 90.1281C303.117 93.4145 298.321 98.4589 301.52 117.948L280.088 105.388L279.143 75.4345C284.316 66.6349 291.12 60.4136 298.982 57.6302L298.977 57.6351Z" fill="#005A5B"/>
<path d="M344.82 88.0196L348.601 87.5312C347.617 97.0291 349.503 100.296 352.922 98.5771C352.53 99.0654 352.099 99.5391 351.589 99.9933C348.503 102.733 346.617 99.2608 346.103 95.6325C342.174 102.381 336.757 103.729 329.943 103.348C329.943 103.348 330.104 108.891 336.384 110.302L334.841 115.2C325.705 113.886 318.887 110.551 315.791 104.969C312.136 98.3867 315.169 97.9277 317.76 98.626C341.004 104.876 344.34 95.5984 344.82 88.0245V88.0196Z" fill="#005A5B"/>
<path d="M324.611 107.195C329.383 106.429 336.485 106.668 341.188 109.529C346.483 112.747 348.276 118.739 346.013 123.217C343.721 127.749 337.602 129.912 334.546 125.253C332.807 122.602 333.669 119.652 332.679 116.107C331.621 112.323 328.579 111.585 324.004 109.544C321.368 108.367 322.049 107.605 324.606 107.195H324.611Z" fill="#005A5B"/>
<path d="M326.398 106.971C327.77 106.839 329.254 106.79 330.782 106.849C335.504 108.279 339.835 110.804 340.859 115.458C341.476 118.266 340.687 119.184 339.521 115.814C337.709 110.57 332.139 108.177 326.393 106.966L326.398 106.971Z" fill="#005A5B"/>
<path d="M352.017 79.6046C353.83 83.3549 350.954 89.3808 347.183 90.0889C344.047 90.6748 337.052 84.7027 337.082 81.5871C337.096 79.5899 338.375 78.2372 342.686 77.4657C348.887 76.3572 351.278 78.0663 352.022 79.6046H352.017Z" fill="#005A5B"/>
<path d="M310.196 76.7678C314.453 76.1574 315.065 83.6337 311.494 84.1513C307.928 84.664 306.179 77.3489 310.196 76.7678Z" fill="#005A5B"/>
<path d="M310.213 70.0632C308.895 69.8971 307.46 70.4489 306.632 71.0398C304.383 72.6366 305.133 74.8683 307.675 74.1358C308.875 73.7891 309.576 73.4326 310.712 73.1054C312.593 72.5682 312.402 70.3415 310.213 70.068V70.0632Z" fill="#005A5B"/>
<path d="M145.97 196.75C135.203 197.414 142.854 188.057 154.449 180.65C151.28 180.474 149.041 179.17 154.65 174.751C164.971 166.615 164.932 162.962 170.845 154.568C171.55 153.533 172.319 152.498 173.152 151.462C173.245 151.34 173.328 151.228 173.426 151.106C176.302 147.634 179.946 144.245 184.732 141.54C207.658 128.589 234.742 141.999 258.51 137.262L275.566 154.309C256.437 162.821 253.322 196.247 233.096 191.08C226.194 189.317 219.027 183.091 216.72 170.927C214.898 161.312 211.469 159.075 203.832 171.01C195.46 184.092 190.052 195.485 172.055 196.994C160.249 197.985 154.915 196.608 145.965 196.75H145.97Z" fill="#005A5B"/>
<path d="M254.848 137.839C255.51 137.756 256.171 137.663 256.832 137.556C257.018 137.526 257.2 137.492 257.381 137.458C257.758 137.395 258.14 137.336 258.517 137.258L275.574 154.305C271.528 156.107 268.202 159.027 265.277 162.455C263.921 161.22 262.725 159.779 261.804 158.114C259.11 158.588 256.342 157.738 254.158 155.668C250.92 152.611 248.75 146.746 249.92 138.244C251.488 138.176 253.046 138.054 254.594 137.868C254.682 137.858 254.77 137.844 254.853 137.834L254.848 137.839Z" fill="#005A5B"/>
<path d="M290.404 109.485L283.002 107.102L280.474 105.618L292.01 87.9989C291.251 84.8785 292.912 84.2583 293.98 87.2322C296.096 93.1263 297.678 97.3747 299.927 102.609C300.196 103.235 300.465 103.864 300.735 104.499C300.372 108.01 300.612 112.376 301.523 117.953L288.322 110.218C289.008 109.939 289.703 109.69 290.409 109.49L290.404 109.485Z" fill="#005A5B"/>
<path d="M256.553 125.098C252.169 125.748 252.693 121.788 255.515 119.029C269.079 105.751 272.738 83.0977 281.663 71.5391L291.264 79.152C290.329 94.4414 302.022 107.831 303.824 122.989C304.985 132.75 299.67 133.908 297.608 129.498C303.633 166.103 270.112 172.993 263.156 155.013C255.902 158.739 246.457 147.517 256.563 125.103L256.553 125.098Z" fill="#005A5B"/>
</g>
<path d="M124.023 71.4123L126.873 59.7743C130.309 60.539 133.736 61.3438 137.153 62.1887L135.354 69.8437C135.042 71.1616 134.785 72.5433 134.349 73.8251L124.023 71.4123Z" fill="#008490"/>
<path d="M69.3703 64.3347C68.8545 63.0914 68.5567 61.5787 68.879 60.2484C69.2242 58.8244 70.3952 57.9246 71.5801 57.1885C77.3941 53.5764 84.2327 51.8975 91.0454 52.8007C94.5265 53.2622 97.9936 54.2357 101.41 55.0456C109.6 56.917 117.773 58.8616 125.929 60.8792C125.265 63.7745 124.554 66.6582 123.796 69.5303C123.013 69.3648 122.216 69.2513 121.423 69.1437C119.851 68.9305 118.109 68.7184 116.536 68.9849C113.126 69.5626 106.886 74.1334 103.518 75.8218C101.649 76.759 99.2008 77.1054 97.5619 78.3529C97.8835 78.6247 98.4644 78.6163 98.8828 78.6819C98.8182 80.8788 98.0237 83.2177 97.5022 85.3498L88.889 83.3735L81.2496 81.524C81.6789 79.6507 82.1192 77.78 82.5704 75.9119C82.5977 75.8961 82.6251 75.8805 82.6519 75.8642C83.3402 75.448 84.0699 75.5244 84.707 75.1706C84.6835 75.1196 84.6436 75.0272 84.6118 74.9744C84.1011 74.1234 83.1913 73.2704 82.5373 72.5108C78.7359 68.0946 75.0227 65.7514 69.3703 64.3347Z" fill="#008490"/>
<path d="M101.977 77.3911C104.657 76.0092 107.259 74.4615 109.859 72.9346C111.52 71.9587 113.233 70.8511 115.015 70.118C114.341 79.2134 116.526 86.9121 121.04 94.7851C121.752 95.933 123.1 97.3989 122.774 98.8203C122.691 99.1824 122.493 99.6248 122.162 99.8244C121.941 99.9578 121.724 99.9729 121.476 99.9122C119.181 99.3526 112.195 88.1286 110.904 85.5404C109.407 82.5395 108.206 79.5413 107.21 76.3415C105.574 76.7963 103.679 77.5205 101.977 77.3911Z" fill="#008490"/>
<path d="M95.9731 102.986C90.613 101.649 85.2089 100.424 79.8274 99.1734C77.9806 98.7444 74.9317 98.3685 73.3008 97.5616C73.2417 97.4504 73.1929 97.3583 73.1697 97.233C73.0746 96.7226 73.1366 96.1112 73.2156 95.6026C73.4808 93.8994 75.7892 83.7571 76.478 82.7726C76.8761 82.2036 77.3482 82.0161 77.9971 81.8929C82.5979 82.7068 87.2147 84.0198 91.7678 85.0905C93.7475 85.5562 98.3672 86.3622 100.035 87.1674C100.723 87.4997 100.883 88.0058 101.115 88.6784C100.736 90.3529 98.0155 102.438 97.6378 102.92C97.5667 103.01 97.4515 103.055 97.3584 103.123C96.868 103.241 96.4475 103.105 95.9731 102.986Z" fill="#008490"/>
<path d="M70.7364 208.903C65.3448 207.978 60.0054 206.812 54.7183 205.407C50.6226 204.348 34.0217 199.388 32.1912 196.178C30.9181 193.945 30.3809 187.022 30.3246 184.265C30.066 171.603 34.3245 159.401 41.8426 149.255C43.8246 146.581 46.0858 144.123 48.2348 141.585C50.2579 139.196 52.1857 136.71 54.1227 134.25C61.2164 125.242 66.4485 117.162 70.8941 106.535C71.9677 103.969 73.0941 101.336 73.8254 98.6465C81.3534 100.234 88.8395 102.202 96.3368 103.943C94.3896 115.417 94.1122 125.958 96.0419 137.501C98.6552 153.133 104.266 166.764 102.079 182.998C101.01 190.931 98.0622 198.047 93.6269 204.688C92.5552 206.293 91.254 208.279 89.6933 209.445C87.1067 211.376 74.3024 209.45 70.7364 208.903Z" fill="#008490"/>
<path d="M147.535 69.2832L176.604 72.8806" stroke="#008490" stroke-width="3" stroke-linecap="round" stroke-dasharray="5 5"/>
<path d="M148.379 61.4688L178.192 56.3576" stroke="#008490" stroke-width="3" stroke-linecap="round" stroke-dasharray="5 5"/>
<path d="M169.082 87.9219L145.623 76.3689" stroke="#008490" stroke-width="3" stroke-linecap="round" stroke-dasharray="5 5"/>
<defs>
<clipPath id="clip0_2086_32411">
<rect width="248" height="216" fill="white" transform="matrix(-1 0 0 1 355.074 56)"/>
</clipPath>
</defs>
</svg>
