<svg width="69" height="72" viewBox="0 0 69 72" fill="none" xmlns="http://www.w3.org/2000/svg">
<path d="M34.1667 5.125C29.1556 5.125 24.3437 6.00764 19.7312 7.77292C15.1187 9.53819 10.9333 12.0722 7.175 15.375H14.5208C15.2611 15.375 15.8738 15.6176 16.359 16.1027C16.8442 16.5879 17.0856 17.1995 17.0833 17.9375C17.0811 18.6755 16.8385 19.2882 16.3556 19.7757C15.8727 20.2631 15.2611 20.5046 14.5208 20.5H3.41667C2.44861 20.5 1.63772 20.172 0.984 19.516C0.330278 18.86 0.00227778 18.0491 0 17.0833V5.97917C0 5.23889 0.242584 4.62731 0.72775 4.14442C1.21292 3.66153 1.8245 3.41894 2.5625 3.41667C3.3005 3.41439 3.91322 3.65697 4.40067 4.14442C4.88811 4.63186 5.12956 5.24344 5.125 5.97917V10.3354C9.225 6.97569 13.7521 4.41319 18.7062 2.64792C23.6604 0.882639 28.8139 0 34.1667 0C39.5194 0 44.6729 0.882639 49.6271 2.64792C54.5812 4.41319 59.1083 6.97569 63.2083 10.3354V5.97917C63.2083 5.23889 63.4509 4.62731 63.9361 4.14442C64.4212 3.66153 65.0328 3.41894 65.7708 3.41667C66.5088 3.41439 67.1216 3.65697 67.609 4.14442C68.0964 4.63186 68.3379 5.24344 68.3333 5.97917V17.0833C68.3333 18.0514 68.0053 18.8634 67.3493 19.5194C66.6933 20.1754 65.8824 20.5023 64.9167 20.5H53.8125C53.0722 20.5 52.4606 20.2574 51.9777 19.7723C51.4949 19.2871 51.2523 18.6755 51.25 17.9375C51.2477 17.1995 51.4903 16.5879 51.9777 16.1027C52.4652 15.6176 53.0768 15.375 53.8125 15.375H61.1583C57.4 12.0722 53.2146 9.53819 48.6021 7.77292C43.9896 6.00764 39.1778 5.125 34.1667 5.125ZM33.5687 71.75C32.2021 71.75 30.8924 71.4937 29.6396 70.9812C28.3868 70.4688 27.2764 69.7285 26.3083 68.7604L11.275 53.6417C10.6486 53.0153 10.3217 52.2329 10.2944 51.2944C10.2671 50.356 10.5655 49.5439 11.1896 48.8583L11.4458 48.6021C12.3569 47.691 13.4252 47.0794 14.6507 46.7673C15.8761 46.4553 17.0856 46.4689 18.2792 46.8083L23.9167 48.4313V20.5C23.9167 19.5319 24.2447 18.7211 24.9007 18.0673C25.5567 17.4136 26.3676 17.0856 27.3333 17.0833C28.2991 17.0811 29.1111 17.4091 29.7694 18.0673C30.4277 18.7256 30.7546 19.5365 30.75 20.5V44.4167H34.1667V34.1667C34.1667 33.1986 34.4947 32.3877 35.1507 31.734C35.8067 31.0803 36.6176 30.7523 37.5833 30.75C38.5491 30.7477 39.3611 31.0757 40.0194 31.734C40.6777 32.3923 41.0046 33.2032 41 34.1667V44.4167H44.4167V37.5833C44.4167 36.6153 44.7447 35.8044 45.4007 35.1507C46.0567 34.4969 46.8676 34.1689 47.8333 34.1667C48.7991 34.1644 49.6111 34.4924 50.2694 35.1507C50.9277 35.8089 51.2546 36.6198 51.25 37.5833V44.4167H54.6667C54.6667 43.4486 54.9947 42.6377 55.6507 41.984C56.3067 41.3303 57.1176 41.0023 58.0833 41C59.0491 40.9977 59.8611 41.3257 60.5194 41.984C61.1777 42.6423 61.5046 43.4532 61.5 44.4167V58.0833C61.5 61.8417 60.1618 65.059 57.4854 67.7354C54.809 70.4118 51.5917 71.75 47.8333 71.75H33.5687Z" fill="white"/>
</svg>
