<svg width="16" height="17" viewBox="0 0 16 17" fill="none" xmlns="http://www.w3.org/2000/svg">
<path d="M2.36046 1.25236C1.91639 0.808296 1.19642 0.808296 0.752359 1.25236C0.308296 1.69642 0.308296 2.41639 0.752359 2.86046L6.39186 8.49996L0.752361 14.1395C0.308297 14.5835 0.308297 15.3035 0.752361 15.7476C1.19642 16.1916 1.91639 16.1916 2.36046 15.7476L7.99996 10.1081L13.6395 15.7476C14.0835 16.1916 14.8035 16.1916 15.2476 15.7476C15.6916 15.3035 15.6916 14.5835 15.2476 14.1395L9.60805 8.49996L15.2476 2.86046C15.6916 2.41639 15.6916 1.69642 15.2476 1.25236C14.8035 0.808296 14.0835 0.808296 13.6395 1.25236L7.99996 6.89186L2.36046 1.25236Z" fill="#0077FF"/>
</svg>
