<svg width="1440" height="150" viewBox="0 0 1440 150" fill="none" xmlns="http://www.w3.org/2000/svg">
<path d="M1705.2 39.7654C1691.47 45.2453 1678.04 50.5646 1665.87 54.6195C1604.31 75.1388 1592.68 40.2559 1586.18 25.5504C1578.32 7.08307 1545.83 6.74109 1470.59 38.888C1445.96 49.4896 1426.81 56.3294 1412.45 58.7233C1399.79 60.7752 1380.3 61.4592 1366.62 51.5416C1349.86 39.23 1355.33 16.6587 1332.76 13.2389C1308.14 9.47699 1265.39 27.6024 1231.53 40.9399C1196.3 54.9614 1179.89 62.8272 1153.9 58.7233C1127.9 54.6195 1124.14 32.7322 1120.04 25.2085C1114.57 14.9488 1102.6 6.05711 1055.74 20.4206C1001.71 37.178 972.636 55.3034 942.882 59.4073C900.132 64.8791 891.924 43.3338 886.452 31.7062C880.296 18.0267 871.746 1.61126 808.476 23.4985C745.89 45.3858 728.79 59.7493 696.3 60.0913C638.844 60.4333 663.81 17.0007 629.268 13.5809C600.54 10.8449 569.76 24.1825 533.85 38.888C518.694 45.6891 503.028 51.2921 486.996 55.6454C435.354 68.641 423.042 46.4117 415.86 30.6803C414.492 27.6024 411.756 19.3947 404.916 15.9748C390.894 9.135 361.482 12.5549 339.594 22.4725C312.918 34.4421 276.666 60.7752 250.332 62.8272C232.89 64.1951 227.076 56.6714 226.05 50.1736C225.752 47.1069 226.346 44.0193 227.76 41.2819C229.812 36.8361 232.89 28.6283 227.076 21.4466C219.894 12.2129 195.27 13.9228 195.27 13.9228C144.996 16.3168 123.45 32.3902 85.8303 49.8316C61.8903 60.7752 44.7903 64.1951 31.7943 61.4592C27.7482 60.4596 23.9219 58.7205 20.5083 56.3294C15.7203 52.5675 9.90631 44.7018 13.6683 36.1521C15.2798 32.4411 17.8832 29.2462 21.1923 26.9184C22.8469 25.4918 24.338 23.886 25.6383 22.1306C30.4263 15.6328 28.3743 4.68915 15.7203 1.61126C4.27465 -0.31251 -7.48312 1.11263 -18.1377 5.71512C-30.7917 11.1869 -41.0517 16.3168 -52.6797 22.1306V149.177H1705.2V39.7654Z" fill="#F3410E"/>
<path d="M180.906 46.4116C177.849 45.6596 174.641 45.8084 171.667 46.8401C168.693 47.8717 166.082 49.7421 164.148 52.2254C160.467 56.8387 158.209 62.4238 157.65 68.2988C157.307 69.8763 157.307 71.5091 157.65 73.0867C157.946 74.5335 158.529 75.9063 159.364 77.1241C160.2 78.3419 161.271 79.38 162.514 80.1769C163.757 80.9739 165.148 81.5137 166.603 81.7643C168.059 82.015 169.55 81.9715 170.988 81.6364C179.88 80.2684 185.694 68.9828 186.378 59.4071C187.062 48.4635 180.906 46.4116 180.906 46.4116Z" fill="white"/>
<path d="M137.812 47.7798C134.734 49.1477 131.656 50.8577 128.578 52.5676C117.852 60.1585 108.388 69.3913 100.534 79.9267C88.5641 96.0001 85.8281 109.68 85.8281 119.597C86.102 126.221 88.8563 132.501 93.5444 137.188C98.2325 141.876 104.512 144.631 111.136 144.904C130.972 145.93 140.89 131.225 140.89 115.835C140.89 103.182 135.76 92.9222 137.47 76.5068C138.059 70.7215 139.56 65.0658 141.916 59.7494C142.6 58.7234 143.284 57.3554 143.968 56.3295C147.73 51.8836 147.73 49.1477 145.678 47.4378C144.425 46.9013 143.068 46.6535 141.706 46.7127C140.345 46.7719 139.014 47.1366 137.812 47.7798Z" fill="white"/>
</svg>
