<svg width="113" height="104" viewBox="0 0 113 104" fill="none" xmlns="http://www.w3.org/2000/svg">
<path fill-rule="evenodd" clip-rule="evenodd" d="M108.125 38.9907C98.2636 10.3729 63.8397 -7.44383 33.4431 3.02992C3.04642 13.5037 -6.13235 55.9394 3.88602 84.5003C9.94827 101.762 42.7641 104.836 74.84 102.502C114.913 99.599 117.987 67.5943 108.125 38.9907Z" fill="white"/>
<path fill-rule="evenodd" clip-rule="evenodd" d="M110.716 47.8135C116.977 73.8271 110.829 99.8834 74.8401 102.502C42.7785 104.821 9.94844 101.762 3.88619 84.5001C2.13582 79.4909 0.968914 74.0548 0.399689 68.4479C0.442381 68.576 0.470844 68.6898 0.513536 68.8179C9.57845 97.6207 43.8743 100.595 74.8401 94.8457C106.703 88.9258 110.531 74.9513 110.716 47.8277V47.8135Z" fill="#D4E6ED"/>
<path fill-rule="evenodd" clip-rule="evenodd" d="M39.5052 39.7314C39.8325 41.4391 38.5802 43.1183 36.7018 43.4741C34.8376 43.8299 33.0587 42.7199 32.7314 41.0122C32.4041 39.3045 33.6564 37.6253 35.5349 37.2695C37.3991 36.9138 39.1779 38.0237 39.5052 39.7314Z" fill="#CDDAE1"/>
<path fill-rule="evenodd" clip-rule="evenodd" d="M39.7897 38.664C40.117 40.3717 38.8647 42.0509 36.9862 42.4067C35.122 42.7625 33.3432 41.6525 33.0159 39.9448C32.6886 38.2371 33.9409 36.5579 35.8193 36.2021C37.6835 35.8464 39.4624 36.9564 39.7897 38.664Z" fill="black"/>
<path fill-rule="evenodd" clip-rule="evenodd" d="M39.6758 40.1444C39.3058 41.2544 38.2954 42.1509 36.9862 42.3928C35.122 42.7486 33.3432 41.6386 33.0159 39.9309C32.8166 38.8779 33.2151 37.839 33.9835 37.1133C33.827 37.5829 33.7843 38.0952 33.8839 38.6075C34.2112 40.3152 35.9901 41.4252 37.8543 41.0694C38.58 40.9271 39.2062 40.5998 39.69 40.1444H39.6758Z" fill="black"/>
<path fill-rule="evenodd" clip-rule="evenodd" d="M73.6305 21.6443C74.2851 25.1165 71.9939 28.475 68.5217 29.1296C65.0494 29.7842 61.6909 27.4931 61.0363 24.0208C60.3817 20.5485 62.6729 17.1901 66.1451 16.5355C69.6174 15.8809 72.9758 18.172 73.6305 21.6443Z" fill="#CDDAE1"/>
<path fill-rule="evenodd" clip-rule="evenodd" d="M74.1144 19.4812C74.769 22.9535 72.4779 26.3119 69.0056 26.9665C65.5333 27.6211 62.1749 25.33 61.5203 21.8577C60.8657 18.3854 63.1568 15.027 66.6291 14.3724C70.1014 13.7178 73.4598 16.0089 74.1144 19.4812Z" fill="black"/>
<path fill-rule="evenodd" clip-rule="evenodd" d="M73.9578 22.4978C73.289 24.732 71.439 26.5108 69.0056 26.9804C65.5333 27.635 62.1749 25.3439 61.5203 21.8716C61.1218 19.737 61.8333 17.6451 63.2421 16.1936C62.9575 17.1471 62.9006 18.1717 63.0856 19.1963C63.7402 22.6685 67.0987 24.9597 70.5709 24.3051C71.9086 24.0489 73.0755 23.3943 73.9578 22.4978Z" fill="black"/>
<path fill-rule="evenodd" clip-rule="evenodd" d="M71.3962 16.5066C71.2396 15.6812 70.4427 15.1405 69.6316 15.297C68.8204 15.4535 68.2654 16.2504 68.4219 17.0616C68.5785 17.887 69.3754 18.4277 70.1866 18.2712C70.9977 18.1147 71.5527 17.3177 71.3962 16.5066Z" fill="white"/>
<path fill-rule="evenodd" clip-rule="evenodd" d="M75.879 56.4524C76.5336 59.9247 74.2425 63.2831 70.7702 63.9377C67.2979 64.5923 63.9395 62.3012 63.2849 58.8289C62.6303 55.3566 64.9214 51.9982 68.3937 51.3436C71.866 50.689 75.2244 52.9801 75.879 56.4524Z" fill="#CDDAE1"/>
<path fill-rule="evenodd" clip-rule="evenodd" d="M76.3486 54.2888C77.0032 57.7611 74.712 61.1195 71.2398 61.7741C67.7675 62.4287 64.4091 60.1376 63.7544 56.6653C63.0998 53.1931 65.391 49.8346 68.8632 49.18C72.3355 48.5254 75.694 50.8165 76.3486 54.2888Z" fill="black"/>
<path fill-rule="evenodd" clip-rule="evenodd" d="M76.2064 57.2915C75.5517 59.5257 73.6875 61.3045 71.2541 61.7741C67.7818 62.4287 64.4234 60.1376 63.7688 56.6653C63.3703 54.5307 64.0819 52.4388 65.4907 50.9873C65.2061 51.9408 65.1491 52.9654 65.3341 53.99C65.9888 57.4622 69.3472 59.7534 72.8195 59.0988C74.1572 58.8426 75.3241 58.188 76.2064 57.2915Z" fill="black"/>
<path fill-rule="evenodd" clip-rule="evenodd" d="M73.6303 51.3152C73.4738 50.4898 72.6769 49.949 71.8657 50.1056C71.0546 50.2621 70.4996 51.059 70.6561 51.8702C70.8127 52.6956 71.6096 53.2363 72.435 53.0798C73.2603 52.9233 73.8011 52.1263 73.6446 51.3152H73.6303Z" fill="white"/>
<path fill-rule="evenodd" clip-rule="evenodd" d="M49.9079 26.4545C49.3102 28.1622 34.425 54.5031 40.7718 59.3984C45.1833 62.7996 57.3505 45.5805 58.7024 43.4174C60.5951 40.3863 50.7191 24.1207 49.9079 26.4545Z" fill="#D4E6ED"/>
<path fill-rule="evenodd" clip-rule="evenodd" d="M61.5058 40.6138C56.582 48.4691 47.8017 45.5234 46.6064 40.7703C44.9983 34.3808 46.1083 10.0891 52.8251 8.86524C53.7644 8.69447 67.9381 30.88 61.5058 40.6138Z" fill="#ED1C24"/>
<path fill-rule="evenodd" clip-rule="evenodd" d="M55.8422 45.1676C57.8772 44.5984 59.898 43.1753 61.506 40.6138C67.9383 30.88 53.7503 8.69447 52.8253 8.86524C52.6688 8.8937 52.5123 8.93638 52.3699 8.97907C51.2457 15.5252 54.4049 29.955 54.4761 36.1027C54.5045 38.9061 54.1772 42.6915 55.8565 45.1676H55.8422Z" fill="#E0131B"/>
</svg>
