<svg width="122" height="188" viewBox="0 0 122 188" fill="none" xmlns="http://www.w3.org/2000/svg">
<g clip-path="url(#clip0_125_879)">
<path d="M103.83 67.3973C103.282 78.6784 81.3979 77.219 59.1851 77.219C36.9722 77.219 16.266 82.3134 15.0375 61.773C14.7326 56.7053 -2.21417 36.7687 9.72112 21.3405C15.4815 13.8898 13.2259 39.4684 59.1851 32.3344C87.3745 29.6348 93.3214 37.9261 98.3388 42.9406C103.353 47.9521 109.534 66.6632 103.827 67.3943L103.83 67.3973Z" fill="#E30613"/>
<g style="mix-blend-mode:multiply">
<path d="M82.8454 44.3169C76.9755 43.2809 71.0078 43.0411 65.058 42.8398C59.6883 42.6533 54.2771 42.4757 48.9222 42.9819C43.3897 43.5058 38.0822 44.5596 33.6716 48.1177C30.6789 50.5332 27.7217 53.893 23.8676 54.8846C23.6486 54.9408 23.3466 54.7692 23.3792 54.5146C23.7936 51.2703 27.0024 48.84 26.7774 45.5306C23.693 46.7413 22.4467 50.4207 19.4215 51.7113C16.9705 52.7533 14.9665 50.0477 14.3004 48.0437C13.0365 44.2251 13.0809 39.9892 12.7612 36.0226C12.326 30.6766 11.8702 25.3246 11.6245 19.9668C11.0413 19.9875 10.4434 20.4019 9.7211 21.3403C-2.21418 36.7686 14.7356 56.7051 15.0375 61.7729C16.266 82.3133 36.9721 77.2189 59.185 77.2189C81.3979 77.2189 103.282 78.6782 103.83 67.3971C106.728 67.0271 106.559 62.0215 105.035 56.5245C99.286 49.8879 91.5749 45.8532 82.8454 44.3139V44.3169Z" fill="#C2AEAE"/>
</g>
<path d="M107.808 83.3968C107.258 94.6838 85.3763 93.2215 63.1605 93.2215C40.9446 93.2215 20.2444 98.3189 19.013 77.7755C18.3351 66.5033 31.336 51.3888 63.1605 48.3399C91.3499 45.6402 100.784 52.5817 105.795 57.5962C110.81 62.6107 113.512 82.6657 107.808 83.3938V83.3968Z" fill="white"/>
<path d="M105.63 71.9407C101.888 69.0161 97.4626 67.092 92.9484 65.7037C88.6887 64.3923 84.3285 63.4628 79.9445 62.6725C74.6725 61.7193 69.4922 60.9704 64.1137 61.3611C58.3029 61.7815 52.5395 62.9892 47.0662 64.9873C41.8149 66.9055 37.3066 70.0817 33.3874 74.0453C31.5018 75.9428 29.7109 77.932 27.9911 79.9804C26.8751 81.3036 25.7029 82.8577 23.9238 83.2514C22.2898 83.6096 20.6943 81.9844 19.8033 80.8537C19.5606 80.5458 19.38 80.2113 19.2231 79.865C21.7156 97.9603 41.738 93.2241 63.1605 93.2241C84.583 93.2241 107.258 94.6864 107.808 83.3994C109.552 83.1774 110.508 81.1378 110.851 78.2724C109.602 75.854 107.888 73.7079 105.63 71.9407Z" fill="#BFDAEA"/>
<path d="M108.158 87.671C108.158 98.9669 90.1481 108.123 67.9352 108.123C45.7223 108.123 27.7069 98.9669 27.7069 87.671C27.7069 76.3751 45.7549 68.4626 67.9352 67.2164C101.82 65.313 108.158 76.3721 108.158 87.671Z" fill="#E4B58B"/>
<g style="mix-blend-mode:multiply">
<path d="M82.061 103.351C80.7349 99.8964 78.8315 96.6136 75.8773 94.3077C73.0592 92.1083 69.6432 90.5927 66.0644 90.2256C62.4293 89.8527 58.9897 90.5868 55.4434 91.3061C52.4182 91.9159 49.3988 92.4014 46.3558 92.8631C44.411 93.1621 42.3034 93.5676 40.3526 93.1473C36.7442 92.3747 33.9765 88.9794 33.6183 85.3355C33.2039 81.1025 35.5424 77.6687 38.8134 75.1615C42.7207 72.1688 47.306 71.1801 52.1577 71.0262C58.0187 70.8456 63.8976 71.2008 69.7468 71.488C73.0207 71.6478 76.3094 71.7958 79.5834 71.6241C82.6589 71.4613 85.6753 70.8042 88.6947 70.2388C90.2251 69.9487 91.7436 69.5846 93.203 69.111C87.262 67.3793 79.1038 66.5948 67.9352 67.2224C45.7549 68.4657 27.7069 76.3781 27.7069 87.677C27.7069 98.9758 45.7194 108.129 67.9352 108.129C73.2398 108.129 78.2987 107.602 82.9313 106.654C82.7477 105.527 82.4813 104.455 82.061 103.36V103.351Z" fill="#E8CDD0"/>
</g>
<path d="M107.077 92.3896C140.512 118.539 114.643 171.384 58.4568 187.582C63.1605 181.025 57.3793 173.225 52.5662 169.072C29.5155 149.135 -3.36273 124.33 27.7069 87.6711C41.7676 108.123 54.8455 87.4106 77.0613 87.4106C99.2772 87.4106 103.341 90.1547 107.077 92.3896Z" fill="white"/>
<path d="M108.794 147.475C102.332 156.506 93.869 163.767 85.1988 170.611C81.6022 173.453 77.0524 177.348 72.106 176.94C68.5095 176.65 66.1591 174.231 64.6199 171.114C62.8231 167.479 61.8048 163.542 59.8866 159.958C57.631 155.751 54.7892 151.941 51.3703 148.608C39.6511 137.197 20.4871 127.896 23.4621 108.531C24.0837 104.502 24.7172 100.234 27.4967 97.099C28.0118 96.5129 28.5121 96.0511 29.3083 96.4033C31.2295 97.2499 33.2187 97.9308 35.2227 98.5702C40.3408 100.204 45.9799 99.6595 49.5735 95.2578C49.6179 95.1986 49.6563 95.1364 49.7067 95.0772C41.7439 97.8213 34.8527 98.0551 27.7069 87.668C-3.35975 124.323 29.5156 149.132 52.5662 169.069C57.3794 173.225 63.1605 181.025 58.4568 187.579C95.3698 176.934 119.199 150.476 121.718 126.159C117.529 133.337 113.631 140.705 108.797 147.472L108.794 147.475Z" fill="#BFDAEA"/>
<path d="M44.9556 83.3965C44.9556 83.3965 45.4056 77.3164 52.3116 77.3164C59.2176 77.3164 65.1852 82.8341 65.1852 82.8341" stroke="#66200E" stroke-width="3.78306" stroke-linecap="round" stroke-linejoin="round"/>
<path d="M101.82 82.9378C101.82 82.9378 101.435 77.7783 95.5859 77.7783C89.7367 77.7783 84.6778 82.4553 84.6778 82.4553" stroke="#66200E" stroke-width="3.78306" stroke-linecap="round" stroke-linejoin="round"/>
<path d="M88.1589 91.0782C88.1589 94.438 82.5612 97.1643 75.6582 97.1643C68.7552 97.1643 63.1575 94.441 63.1575 91.0782C63.1575 87.7155 68.7552 84.9922 75.6582 84.9922C82.5612 84.9922 88.1589 87.7185 88.1589 91.0782Z" fill="#DE8979"/>
<g style="mix-blend-mode:multiply">
<path d="M75.6582 93.5675C70.0399 93.5675 65.2918 91.7648 63.717 89.2812C63.3529 89.8466 63.1575 90.4505 63.1575 91.0781C63.1575 94.4378 68.7552 97.1641 75.6582 97.1641C82.5612 97.1641 88.1589 94.4408 88.1589 91.0781C88.1589 90.4535 87.9605 89.8496 87.6053 89.2812C86.0276 91.7648 81.2765 93.5675 75.6582 93.5675Z" fill="#D5B6BA"/>
</g>
<path d="M81.7531 87.4103C81.7531 88.4464 79.6514 89.2811 77.0613 89.2811C74.4712 89.2811 72.3665 88.4434 72.3665 87.4103C72.3665 86.3772 74.4712 85.5425 77.0613 85.5425C79.6514 85.5425 81.7531 86.3802 81.7531 87.4103Z" fill="#E09B96"/>
<path d="M91.2966 100.13C91.8176 105.112 88.2566 113.12 80.578 113.925C72.8994 114.73 64.019 108.025 63.495 103.043C62.974 98.0613 72.26 103.541 79.9356 102.741C87.6142 101.933 90.7757 95.1515 91.2966 100.13Z" fill="#E4B58B"/>
<path d="M73.2753 103.845C73.2753 103.845 73.6631 108.999 79.5123 108.999C85.3616 108.999 85.2047 103.845 85.2047 103.845" stroke="#66200E" stroke-width="3.78306" stroke-linecap="round" stroke-linejoin="round"/>
<path d="M17.6189 1.30027C23.6398 4.30481 26.0878 11.6193 23.0833 17.6373C20.0847 23.6612 12.7702 26.1062 6.74627 23.1047C0.728308 20.1001 -1.71973 12.7886 1.28185 6.76468C4.2864 0.740798 11.6009 -1.70428 17.6189 1.30027Z" fill="#EDEDED"/>
<path d="M9.42804 17.7291C4.33068 15.1922 1.79976 9.56501 2.95421 4.24268C2.30594 4.99455 1.74055 5.83819 1.28173 6.76176C-1.71985 12.7886 0.725226 20.1001 6.74911 23.1017C12.773 26.1033 20.0845 23.6582 23.0861 17.6343C23.5509 16.7078 23.8794 15.7517 24.0926 14.7837C20.5434 18.9102 14.5224 20.2689 9.42804 17.7291Z" fill="#BFDAEA"/>
<path d="M14.2531 27.5151C13.3295 29.6523 15.893 34.1932 16.3252 36.5139C16.7603 38.8554 16.4199 43.4614 18.1723 45.2079C20.5227 47.5493 23.7847 42.7983 26.0966 41.5935C29.48 39.8322 32.6592 38.9916 31.2591 43.6715C33.2749 43.7367 35.5898 42.1885 37.4547 41.4722C39.6748 40.6196 41.7261 40.223 44.0913 39.8441C48.7802 39.0922 53.6851 38.5712 58.4805 39.03C68.7611 40.0039 79.6603 39.3083 89.0825 43.263C91.8857 44.4412 94.7659 46.6998 97.7853 47.0165C97.7971 45.2789 93.8868 43.1298 92.6257 41.9783C90.7964 40.3059 88.9404 38.9738 86.7617 37.8578C83.0467 35.9574 79.3791 35.2499 75.454 34.4625C67.4675 32.8641 58.3473 33.3199 50.5118 34.5158C43.8959 35.5223 37.6826 35.9574 31.4841 33.684C25.398 31.4521 19.8359 29.5487 14.5136 25.7153L14.256 27.5151H14.2531Z" fill="#E7362F"/>
</g>
<defs>
<clipPath id="clip0_125_879">
<rect width="121.94" height="187.569" fill="white" transform="translate(0 0.015625)"/>
</clipPath>
</defs>
</svg>
