<svg width="37" height="43" viewBox="0 0 37 43" fill="none" xmlns="http://www.w3.org/2000/svg">
<path d="M3.83991 33.1499C3.83991 31.4546 4.97101 29.945 7.02473 28.8994C7.76032 28.5248 8.59318 28.2212 9.49072 27.9924V19.032H8.42285C3.77848 19.032 0 23.3257 0 28.6033V36.5247H3.83991V33.1499Z" fill="white"/>
<path d="M13.6121 42.5001C18.2566 42.5001 21.2205 40.6077 21.2205 39.305V36.7898C20.9109 37.0073 20.5705 37.2116 20.1994 37.4006C18.4219 38.3055 16.0825 38.8039 13.6121 38.8039C11.1417 38.8039 8.80222 38.3055 7.02478 37.4005C6.65369 37.2116 6.31325 37.0073 6.00366 36.7898V39.305C6.00366 40.6077 8.96756 42.5001 13.6121 42.5001Z" fill="white"/>
<path d="M37 0.5L26.2318 19.032H11.6545V27.6037C12.2922 27.5332 12.947 27.496 13.6121 27.496C16.0825 27.496 18.4219 27.9944 20.1994 28.8994C22.2532 29.945 23.3843 31.4545 23.3843 33.1499V36.5247H28.0844L37 21.1808V0.5Z" fill="white"/>
<path d="M13.6121 36.3451C17.8141 36.3451 21.2205 34.9146 21.2205 33.15C21.2205 31.3853 17.8141 29.9548 13.6121 29.9548C9.41006 29.9548 6.00366 31.3853 6.00366 33.15C6.00366 34.9146 9.41006 36.3451 13.6121 36.3451Z" fill="white"/>
</svg>
