<svg width="18" height="18" viewBox="0 0 18 18" fill="none" xmlns="http://www.w3.org/2000/svg">
<path fill-rule="evenodd" clip-rule="evenodd" d="M3 9.0415C3 8.51107 3.21071 8.00236 3.58579 7.62729C3.96086 7.25222 4.46957 7.0415 5 7.0415H13C13.5304 7.0415 14.0391 7.25222 14.4142 7.62729C14.7893 8.00236 15 8.51107 15 9.0415V13.7082C15 14.2386 14.7893 14.7473 14.4142 15.1224C14.0391 15.4975 13.5304 15.7082 13 15.7082H5C4.46957 15.7082 3.96086 15.4975 3.58579 15.1224C3.21071 14.7473 3 14.2386 3 13.7082V9.0415ZM9.66667 10.3748C9.66667 10.198 9.59643 10.0285 9.4714 9.90343C9.34638 9.77841 9.17681 9.70817 9 9.70817C8.82319 9.70817 8.65362 9.77841 8.5286 9.90343C8.40357 10.0285 8.33333 10.198 8.33333 10.3748V12.3748C8.33333 12.5516 8.40357 12.7212 8.5286 12.8462C8.65362 12.9713 8.82319 13.0415 9 13.0415C9.17681 13.0415 9.34638 12.9713 9.4714 12.8462C9.59643 12.7212 9.66667 12.5516 9.66667 12.3748V10.3748Z" fill="#35A2EB"/>
<path d="M6.33203 7.70817V5.70817C6.33203 5.00093 6.61298 4.32265 7.11308 3.82255C7.61318 3.32246 8.29145 3.0415 8.9987 3.0415C9.70594 3.0415 10.3842 3.32246 10.8843 3.82255C11.3844 4.32265 11.6654 5.00093 11.6654 5.70817V7.70817" stroke="#35A2EB" stroke-width="2" stroke-linecap="round" stroke-linejoin="round"/>
</svg>
