<svg width="151" height="34" viewBox="0 0 151 34" fill="none" xmlns="http://www.w3.org/2000/svg">
<g clip-path="url(#clip0_52_12567)">
<path d="M0 0.697266V32.0763H30.852V0.697266H0ZM14.7882 25.7524L10.2525 26.57V11.5417L8.97685 11.7821V26.8104L4.41755 27.6039V9.13715L14.7882 7.28567V25.7524ZM26.4345 23.6605L21.8988 24.478V16.495L20.6231 16.7355V24.7185L16.0875 25.536V7.04521L20.6231 6.22768V13.0806L21.8988 12.8401V6.01127L26.4345 5.19373V23.6605Z" fill="#E4161E"/>
<path d="M53.3177 3.94342H52.7508C51.3806 3.94342 50.4593 4.23197 49.727 4.88119C49.0892 5.43423 48.8057 6.27581 48.8057 7.5983C48.8057 8.99293 49.2545 10.3154 50.2703 11.3253C51.2861 12.4554 52.3728 13.0085 53.7666 13.0085H55.4202L56.1525 10.5799H54.239C54.0501 10.5799 53.7666 10.4837 53.4122 10.4837C54.6879 9.73833 55.5383 9.08911 55.9872 8.34371C56.3651 7.69448 56.5305 7.1174 56.5305 6.37199C56.5305 5.98727 56.3415 5.62659 55.9872 5.14569C55.4202 4.59265 54.4989 4.20792 53.3177 3.94342ZM52.9398 7.8628C52.6799 8.15134 52.2074 8.41584 51.7586 8.70439C51.6641 8.31966 51.5696 7.95898 51.5696 7.67044C51.5696 6.73267 52.0185 6.37199 52.9398 6.37199H53.4831C53.6721 6.37199 53.7666 6.56436 53.7666 6.75672C53.7666 7.1174 53.4831 7.50212 52.9398 7.8628ZM59.885 6.49222H57.2392L57.9007 3.99151H64.6333L65.3892 6.49222H62.7434V13.0566H59.9086V6.49222H59.885ZM65.8853 23.0354H64.2789C63.334 23.0354 62.5781 23.1315 61.893 23.3239C61.0425 23.5163 60.3811 23.9972 59.8141 24.4781C59.2472 25.0552 58.7747 25.7525 58.4912 26.5219C58.2078 27.1952 58.1133 28.0849 58.1133 28.8543L58.2078 29.7199H57.3101L57.9715 32.1485H66.0507L66.8066 29.7199H65.8617V23.0354H65.8853ZM63.0269 29.7199H61.0189C60.9244 29.5276 60.9244 29.4314 60.9244 29.239V28.662C60.9244 27.7963 61.1134 27.1231 61.3969 26.6422C61.7749 26.1612 62.271 25.8727 63.0269 25.6803V29.7199ZM128.345 13.0325H125.51V3.89533H128.345V13.0325ZM72.5943 13.0325L73.3267 10.5799H71.3895C71.2006 10.5799 70.9407 10.4837 70.5627 10.4837C71.7675 9.73833 72.6888 9.06506 73.1377 8.31966C73.5156 7.67044 73.7046 7.09335 73.7046 6.34795C73.7046 5.96323 73.5156 5.60255 73.1377 5.12164C72.5943 4.54455 71.673 4.18388 70.4682 3.89533H69.9013C68.5075 3.89533 67.5862 4.18388 66.8539 4.8331C66.216 5.38614 65.9326 6.25177 65.9326 7.57426C65.9326 8.99293 66.405 10.2914 67.4208 11.3253C68.4366 12.4554 69.5469 13.0325 70.9407 13.0325H72.5943ZM68.9091 8.70439C68.8146 8.31966 68.7201 7.95898 68.7201 7.67044C68.7201 6.73267 69.169 6.34795 70.1139 6.34795H70.6809C70.8698 6.34795 70.9643 6.54031 70.9643 6.73267C70.9643 7.1174 70.6808 7.47808 70.1375 7.8628C69.8304 8.15134 69.3579 8.41584 68.9091 8.70439ZM130.542 13.0325L128.345 7.98303L130.164 3.89533H133.306L131.393 7.88685L133.684 13.0325H130.542ZM111.195 13.4173C111.148 13.0325 111.148 12.6478 111.148 12.3593V3.91938H116.841L117.502 6.42009H114.006V12.2631C114.006 12.4554 114.006 12.6478 114.1 12.8402L114.195 13.0325L111.644 14.5714C111.644 14.5714 111.455 14.355 111.431 14.2829C111.266 13.9703 111.218 13.7058 111.195 13.4173ZM55.8927 27.4597C56.2706 26.8105 56.436 26.2334 56.436 25.488C56.436 25.1033 56.247 24.7426 55.8927 24.2617C55.3493 23.7086 54.428 23.3239 53.2232 23.0354H52.6563C51.2861 23.0354 50.3648 23.3239 49.6325 23.9731C48.9947 24.5262 48.7112 25.3678 48.7112 26.6902C48.7112 28.0849 49.16 29.4074 50.1758 30.4173C51.1916 31.5474 52.2783 32.1004 53.6721 32.1004H55.3257L56.058 29.6719H54.1209C53.9319 29.6719 53.6485 29.5757 53.2941 29.5757C54.5934 28.8543 55.4202 28.2051 55.8927 27.4597ZM52.8453 26.9788C52.5854 27.2673 52.113 27.5318 51.6641 27.8204C51.5696 27.4356 51.4751 27.075 51.4751 26.7864C51.4751 25.8487 51.924 25.488 52.8453 25.488H53.3886C53.5776 25.488 53.6721 25.6803 53.6721 25.8727C53.6957 26.2334 53.4122 26.6181 52.8453 26.9788ZM38.2933 0.697313H47.9553V13.0325H44.837V3.51061H41.5297V12.2871C41.5297 12.4795 41.6242 12.768 41.7187 13.0566L38.7894 14.884C38.6004 14.4993 38.4587 14.1146 38.4115 13.6337C38.3642 13.2489 38.317 12.6719 38.317 12.1909V0.697313H38.2933ZM77.8859 13.0806C79.5868 12.6959 80.7916 11.9505 81.7365 10.8925C82.587 9.83451 83.0358 8.70439 83.0358 7.35785C83.0358 6.29986 82.7523 5.53041 82.1854 4.97737C81.5239 4.20792 80.6026 3.91938 79.2797 3.91938H75.0512V15.9661H77.8623V13.0806H77.8859ZM77.8859 6.29986H78.7364C79.2088 6.29986 79.4923 6.29986 79.6813 6.49222C79.9648 6.68458 80.1538 6.97313 80.1538 7.55021C80.1538 8.22348 79.9648 8.89675 79.4923 9.47383C79.1144 10.0509 78.5474 10.3395 77.8859 10.4356V6.29986ZM95.816 12.1188L92.6269 3.91938H95.9105L97.2334 8.1273L98.5563 3.91938H101.651L97.4224 15.942H94.4222L95.816 12.1188ZM44.837 19.8373H47.9789V32.1726H44.8606V26.4738H41.5533V31.4031C41.5533 31.5955 41.6478 31.884 41.7423 32.1726L38.813 34C38.6241 33.6153 38.4823 33.2306 38.4351 32.7496C38.3878 32.3649 38.3406 31.7878 38.3406 31.3069V19.8373H41.577V23.6846H44.8842L44.837 19.8373ZM123.597 23.0594H122.416C121.329 23.0594 120.526 23.4201 119.888 24.0693C119.25 24.6223 118.896 25.4399 118.896 26.3536C118.896 27.8204 119.25 29.1188 119.983 30.297C120.786 31.4993 121.802 32.1485 122.959 32.1485C124.235 32.1485 125.227 31.4993 125.936 30.297C126.668 29.0948 127.022 27.8204 127.022 26.3536C127.022 25.5361 126.668 24.6945 125.936 23.9731C125.298 23.3239 124.471 23.0594 123.597 23.0594ZM123.857 28.7581C123.597 29.4074 123.219 29.6719 122.959 29.6719C122.699 29.6719 122.416 29.4074 122.156 28.7581C121.802 28.2051 121.707 27.4597 121.707 26.546C121.707 25.8006 122.156 25.4399 122.959 25.4399C123.857 25.4399 124.329 25.8006 124.329 26.546C124.306 27.4597 124.117 28.2051 123.857 28.7581ZM133.188 29.6959H134.227L133.472 32.1004H133.094C131.676 32.1004 130.448 31.6195 129.408 30.4653C128.369 29.4074 127.896 28.0608 127.896 26.4979C127.896 25.5361 128.085 24.7666 128.652 24.0934C129.314 23.4201 130.259 23.0354 131.582 23.0354H133.377L134.038 25.5361H132.149C131.771 25.5361 131.487 25.5361 131.298 25.6322C130.92 25.8246 130.731 26.2093 130.731 26.7864C130.731 27.4597 131.015 28.133 131.487 28.71C131.96 29.4074 132.527 29.6959 133.188 29.6959ZM138.669 12.9844H141.503V3.91938H137.157C135.834 3.91938 134.889 4.20792 134.322 4.97737C133.755 5.55446 133.472 6.3239 133.472 7.3819C133.472 8.92079 133.944 10.1711 134.889 11.133C135.739 12.215 137.062 12.7921 138.669 12.9844ZM136.873 6.51627C137.062 6.3239 137.346 6.3239 137.724 6.3239H138.669V10.4597C138.007 10.3635 137.44 10.075 137.062 9.49788C136.59 8.92079 136.401 8.24753 136.401 7.57426C136.401 6.99717 136.59 6.61245 136.873 6.51627ZM119.534 11.2291C118.494 10.1711 118.022 8.82461 118.022 7.3819C118.022 6.3239 118.211 5.55446 118.778 4.97737C119.345 4.20792 120.384 3.91938 121.707 3.91938H123.408L124.164 6.3239H122.274C121.896 6.3239 121.613 6.3239 121.424 6.51627C121.046 6.70863 120.857 6.99717 120.857 7.57426C120.857 8.24753 121.14 8.92079 121.613 9.59406C122.085 10.1711 122.652 10.4597 123.314 10.4597H124.353L123.597 12.9604H123.125C121.707 12.9844 120.479 12.4074 119.534 11.2291ZM146.677 25.0792V23.0354H143.842V32.1004H147.716C148.756 32.1004 149.63 31.8119 150.197 31.2348C150.669 30.6577 150.953 30.0806 150.953 29.3112C150.953 28.4455 150.575 27.7723 149.913 27.099C149.346 26.4257 148.189 25.7525 146.677 25.0792ZM147.929 29.5997C147.74 29.6959 147.551 29.6959 147.268 29.6959H146.795V27.8685C147.268 28.2532 147.645 28.4455 147.834 28.6379C148.023 28.9265 148.118 29.1188 148.118 29.3112C148.118 29.5035 148.118 29.5997 147.929 29.5997ZM151 3.91938V12.9844H148.165V6.3239H146.37C146.275 6.42008 146.181 6.51627 146.181 6.61245C146.181 6.90099 146.464 7.28572 147.126 7.8628C147.409 8.05516 147.693 8.24753 148.165 8.53607C147.504 9.8826 147.031 10.8444 146.653 11.5177C146.086 12.4795 145.519 13.3451 144.763 14.1146L144.574 14.3069L142.212 12.6719L142.496 12.4795C142.874 11.9986 143.252 11.5177 143.63 10.8444C144.007 10.3635 144.291 9.78642 144.669 9.11316C144.196 8.82461 143.819 8.34371 143.535 7.8628C143.252 7.3819 143.063 6.90099 143.063 6.3239C143.063 5.65064 143.252 5.07355 143.724 4.68883C144.196 4.11174 144.952 3.91938 145.992 3.91938H151ZM115.282 23.0835H117.786V32.1485H114.998V27.5078L113.51 29.5035L112.022 27.5078V32.1485H109.234V23.0835H111.738L113.486 25.5361L115.282 23.0835ZM142.401 23.0354L143.063 25.5361H140.393V32.1004H137.558V25.5361H134.913L135.668 23.0354H142.401ZM90.9732 11.157C91.6819 10.0509 92.0599 8.68034 92.0599 7.21358C92.0599 6.1075 91.7056 5.28996 91.0677 4.73692C90.5244 4.18388 89.6267 3.91938 88.54 3.91938C88.3511 3.91938 87.9967 4.01556 87.4534 4.01556C87.0045 4.11174 86.6502 4.11174 86.5557 4.20792C86.5557 3.65488 86.6502 3.19802 87.0045 2.93352C87.3589 2.66902 88.0912 2.47666 89.1542 2.47666H91.493L90.7606 0H88.4219C87.0754 0 85.9887 0.264498 85.3509 0.817539C84.7367 1.37058 84.3587 2.18812 84.0989 3.2942C84.0044 4.11174 83.9099 5.41018 83.9099 7.23762C83.9099 8.70439 84.2642 10.075 84.9966 11.181C85.7052 12.4795 86.7919 13.0085 87.9731 13.0085C89.1542 13.0085 90.1701 12.4314 90.9732 11.157ZM87.1463 9.83451C86.8864 9.28147 86.6974 8.56011 86.6974 7.71853C86.6974 6.87695 87.1463 6.54031 88.044 6.54031C88.9416 6.54031 89.296 6.90099 89.296 7.71853C89.296 8.53607 89.2015 9.28147 88.8471 9.83451C88.5637 10.4837 88.3038 10.7482 88.044 10.7482C87.7841 10.7482 87.5242 10.4837 87.1463 9.83451ZM109.518 4.97737C108.856 4.20792 107.911 3.91938 106.612 3.91938H102.407V15.942H105.124V13.0806C106.801 12.6959 108.124 11.9505 109.069 10.8925C109.919 9.83451 110.297 8.70439 110.297 7.35785C110.273 6.3239 109.99 5.55446 109.518 4.97737ZM106.801 9.47383C106.328 10.0509 105.856 10.3395 105.124 10.4356V6.34795H106.069C106.446 6.34795 106.73 6.34795 106.919 6.54031C107.297 6.73267 107.486 7.02122 107.486 7.5983C107.462 8.22348 107.179 8.89675 106.801 9.47383ZM90.1464 23.0354L91.2803 27.1711L89.8629 32.1004H86.5557L88.2566 27.075L86.9337 23.0354H90.1464ZM82.4452 23.0354H85.28V32.1004H80.7207C79.4923 32.1004 78.5474 31.7157 77.8859 31.0424C77.4135 30.3692 77.13 29.5035 77.13 28.3494C77.13 27.7723 77.2245 27.099 77.4135 26.3296C77.697 25.4639 78.0749 24.3098 78.6419 23.0594H81.5712C81.0042 24.6945 80.7207 25.5601 80.7207 25.5601C80.3428 26.7143 80.1538 27.4837 80.1538 28.157C80.1538 28.8303 80.3428 29.215 80.7207 29.5035C80.9097 29.5997 81.3822 29.6959 82.1381 29.6959H82.4216V23.0354H82.4452ZM74.6732 27.1952C74.9567 27.0028 75.2401 26.7143 75.4291 26.3296C75.6181 26.041 75.7126 25.6563 75.7126 25.3678C75.7126 24.6945 75.4291 24.2136 75.0512 23.8289C74.5787 23.3479 73.8227 23.0594 72.8778 23.0594H68.035V32.1245H72.7833C74.0117 32.1245 74.8622 31.9321 75.4291 31.355C75.9016 30.9703 76.0906 30.4894 76.0906 29.8161C76.0906 29.3352 75.9961 28.8543 75.7126 28.4696C75.4291 27.9646 75.0512 27.5799 74.6732 27.1952ZM72.2164 29.6959H70.8935V25.5361H71.7439C72.3109 25.5361 72.5943 25.6323 72.5943 25.9208C72.5943 26.1132 72.3109 26.4979 71.7439 26.8826C71.5549 27.075 71.3659 27.1711 70.9879 27.4597L71.9329 28.0368C72.2164 28.2291 72.4998 28.4215 72.5943 28.6139C72.8778 28.8062 72.9723 28.9986 72.9723 29.191C72.9723 29.5035 72.6888 29.6959 72.2164 29.6959ZM94.2333 23.0354V32.1004H91.3985V23.0354H94.2333ZM104.864 23.0354H107.699V32.1004H103.139C101.911 32.1004 100.966 31.7157 100.399 31.0424C99.832 30.3692 99.643 29.5035 99.643 28.3494C99.643 27.7723 99.7375 27.099 99.9265 26.3296C100.115 25.4639 100.493 24.3098 101.155 23.0594H103.99C103.423 24.6945 103.139 25.5601 103.139 25.5601C102.761 26.7143 102.572 27.4837 102.572 28.157C102.572 28.8303 102.761 29.215 103.139 29.5035C103.423 29.5997 103.895 29.6959 104.557 29.6959H104.84V23.0354H104.864ZM97.257 27.099L99.0524 32.1245H95.6507L94.2333 27.1952L95.4617 23.0594H98.5799L97.257 27.099Z" fill="black"/>
</g>
<defs>
<clipPath id="clip0_52_12567">
<rect width="151" height="34" fill="white"/>
</clipPath>
</defs>
</svg>
