<svg width="146" height="21" viewBox="0 0 146 21" fill="none" xmlns="http://www.w3.org/2000/svg">
<path d="M3.84832 0.405528V6.60729L7.85977 0.405528H12.5304L5.74586 7.67355L18.1331 0.405528V5.02014L7.01087 9.40403L18.1331 8.30981V12.6937L7.01087 11.5995L18.1331 15.9834V20.598L5.74586 13.3299L12.5304 20.598H7.85644L3.845 14.3962V20.598H0V0.405528H3.84832Z" fill="white"/>
<path d="M3.84832 0.405528V6.60729L7.85977 0.405528H12.5304L5.74586 7.67355L18.1331 0.405528V5.02014L7.01087 9.40403L18.1331 8.30981V12.6937L7.01087 11.5995L18.1331 15.9834V20.598L5.74586 13.3299L12.5304 20.598H7.85644L3.845 14.3962V20.598H0V0.405528H3.84832Z" fill="url(#paint0_radial_271_10491)"/>
<path d="M20.8762 0.405528H25.4069L24.7212 13.4698L30.3505 0.405528H34.059V20.5945H29.5282L30.214 7.53022L24.5847 20.5945H20.8762V0.405528Z" fill="white"/>
<path d="M20.8762 0.405528H25.4069L24.7212 13.4698L30.3505 0.405528H34.059V20.5945H29.5282L30.214 7.53022L24.5847 20.5945H20.8762V0.405528Z" fill="url(#paint1_radial_271_10491)"/>
<path d="M36.8054 0.405528H41.3362V8.19444H45.1812V0.405528H49.712V20.5945H45.1812V11.3652H41.3362V20.5945H36.8054V0.405528Z" fill="white"/>
<path d="M36.8054 0.405528H41.3362V8.19444H45.1812V0.405528H49.712V20.5945H45.1812V11.3652H41.3362V20.5945H36.8054V0.405528Z" fill="url(#paint2_radial_271_10491)"/>
<path d="M51.7992 10.5017C51.7992 4.73348 54.326 0.00349933 59.406 0.00349933C64.4861 0.00349933 67.0128 4.73348 67.0128 10.5017C67.0128 16.27 64.4861 21 59.406 21C54.326 21 51.7992 16.27 51.7992 10.5017ZM59.406 18.0005C61.1904 18.0005 62.2357 14.6829 62.2357 10.5017C62.2357 6.32063 61.1904 3.003 59.406 3.003C57.6217 3.003 56.5764 6.32063 56.5764 10.5017C56.5797 14.6829 57.6217 18.0005 59.406 18.0005Z" fill="white"/>
<path d="M51.7992 10.5017C51.7992 4.73348 54.326 0.00349933 59.406 0.00349933C64.4861 0.00349933 67.0128 4.73348 67.0128 10.5017C67.0128 16.27 64.4861 21 59.406 21C54.326 21 51.7992 16.27 51.7992 10.5017ZM59.406 18.0005C61.1904 18.0005 62.2357 14.6829 62.2357 10.5017C62.2357 6.32063 61.1904 3.003 59.406 3.003C57.6217 3.003 56.5764 6.32063 56.5764 10.5017C56.5797 14.6829 57.6217 18.0005 59.406 18.0005Z" fill="url(#paint3_radial_271_10491)"/>
<path d="M69.1001 0.405528H82.1464V20.5945H77.6157V3.57633H73.6342V20.5945H69.1034V0.405528H69.1001Z" fill="white"/>
<path d="M69.1001 0.405528H82.1464V20.5945H77.6157V3.57633H73.6342V20.5945H69.1034V0.405528H69.1001Z" fill="url(#paint4_radial_271_10491)"/>
<path d="M84.2337 10.5017C84.2337 4.73348 86.7604 0.00349933 91.8405 0.00349933C96.9205 0.00349933 99.4472 4.73348 99.4472 10.5017C99.4472 16.27 96.9205 21 91.8405 21C86.7604 21 84.2337 16.27 84.2337 10.5017ZM91.8438 18.0005C93.6282 18.0005 94.6735 14.6829 94.6735 10.5017C94.6735 6.32063 93.6282 3.003 91.8438 3.003C90.0595 3.003 89.0142 6.32063 89.0142 10.5017C89.0142 14.6829 90.0561 18.0005 91.8438 18.0005Z" fill="white"/>
<path d="M84.2337 10.5017C84.2337 4.73348 86.7604 0.00349933 91.8405 0.00349933C96.9205 0.00349933 99.4472 4.73348 99.4472 10.5017C99.4472 16.27 96.9205 21 91.8405 21C86.7604 21 84.2337 16.27 84.2337 10.5017ZM91.8438 18.0005C93.6282 18.0005 94.6735 14.6829 94.6735 10.5017C94.6735 6.32063 93.6282 3.003 91.8438 3.003C90.0595 3.003 89.0142 6.32063 89.0142 10.5017C89.0142 14.6829 90.0561 18.0005 91.8438 18.0005Z" fill="url(#paint5_radial_271_10491)"/>
<path d="M101.538 0.405528H106.069L105.383 13.4698L111.012 0.405528H114.721V20.5945H110.19L110.876 7.53022L105.246 20.5945H101.538V0.405528Z" fill="white"/>
<path d="M101.538 0.405528H106.069L105.383 13.4698L111.012 0.405528H114.721V20.5945H110.19L110.876 7.53022L105.246 20.5945H101.538V0.405528Z" fill="url(#paint6_radial_271_10491)"/>
<path d="M126.775 13.4698L131.086 14.162L130.95 14.8542C130.207 18.6053 127.957 20.9965 124.248 20.9965C119.168 20.9965 116.805 16.2665 116.805 10.4983C116.805 4.72998 119.168 0 124.248 0C127.82 0 130.097 2.39471 130.896 5.9116L131.033 6.5164L126.612 7.55469C126.282 4.75795 125.487 2.99601 124.248 2.99601C122.464 2.99601 121.585 6.31363 121.585 10.4948C121.585 14.6759 122.464 17.9935 124.248 17.9935C125.597 18.0005 126.445 16.1232 126.775 13.4698Z" fill="white"/>
<path d="M126.775 13.4698L131.086 14.162L130.95 14.8542C130.207 18.6053 127.957 20.9965 124.248 20.9965C119.168 20.9965 116.805 16.2665 116.805 10.4983C116.805 4.72998 119.168 0 124.248 0C127.82 0 130.097 2.39471 130.896 5.9116L131.033 6.5164L126.612 7.55469C126.282 4.75795 125.487 2.99601 124.248 2.99601C122.464 2.99601 121.585 6.31363 121.585 10.4948C121.585 14.6759 122.464 17.9935 124.248 17.9935C125.597 18.0005 126.445 16.1232 126.775 13.4698Z" fill="url(#paint7_radial_271_10491)"/>
<path d="M132.954 0.405528H137.484V9.49143L141.193 0.405528H145.863L140.507 10.1836L146 20.5945H140.92L137.488 11.5086V20.5945H132.957V0.405528H132.954Z" fill="white"/>
<path d="M132.954 0.405528H137.484V9.49143L141.193 0.405528H145.863L140.507 10.1836L146 20.5945H140.92L137.488 11.5086V20.5945H132.957V0.405528H132.954Z" fill="url(#paint8_radial_271_10491)"/>
<defs>
<radialGradient id="paint0_radial_271_10491" cx="0" cy="0" r="1" gradientUnits="userSpaceOnUse" gradientTransform="translate(4.68166e-06 0.405581) rotate(2.10012) scale(174.958 26.9367)">
<stop offset="0.5" stop-color="#FF5500"/>
<stop offset="1" stop-color="#BBFF00"/>
</radialGradient>
<radialGradient id="paint1_radial_271_10491" cx="0" cy="0" r="1" gradientUnits="userSpaceOnUse" gradientTransform="translate(4.68166e-06 0.405581) rotate(2.10012) scale(174.958 26.9367)">
<stop offset="0.5" stop-color="#FF5500"/>
<stop offset="1" stop-color="#BBFF00"/>
</radialGradient>
<radialGradient id="paint2_radial_271_10491" cx="0" cy="0" r="1" gradientUnits="userSpaceOnUse" gradientTransform="translate(4.68166e-06 0.405581) rotate(2.10012) scale(174.958 26.9367)">
<stop offset="0.5" stop-color="#FF5500"/>
<stop offset="1" stop-color="#BBFF00"/>
</radialGradient>
<radialGradient id="paint3_radial_271_10491" cx="0" cy="0" r="1" gradientUnits="userSpaceOnUse" gradientTransform="translate(4.68166e-06 0.405581) rotate(2.10012) scale(174.958 26.9367)">
<stop offset="0.5" stop-color="#FF5500"/>
<stop offset="1" stop-color="#BBFF00"/>
</radialGradient>
<radialGradient id="paint4_radial_271_10491" cx="0" cy="0" r="1" gradientUnits="userSpaceOnUse" gradientTransform="translate(4.68166e-06 0.405581) rotate(2.10012) scale(174.958 26.9367)">
<stop offset="0.5" stop-color="#FF5500"/>
<stop offset="1" stop-color="#BBFF00"/>
</radialGradient>
<radialGradient id="paint5_radial_271_10491" cx="0" cy="0" r="1" gradientUnits="userSpaceOnUse" gradientTransform="translate(4.68166e-06 0.405581) rotate(2.10012) scale(174.958 26.9367)">
<stop offset="0.5" stop-color="#FF5500"/>
<stop offset="1" stop-color="#BBFF00"/>
</radialGradient>
<radialGradient id="paint6_radial_271_10491" cx="0" cy="0" r="1" gradientUnits="userSpaceOnUse" gradientTransform="translate(4.68166e-06 0.405581) rotate(2.10012) scale(174.958 26.9367)">
<stop offset="0.5" stop-color="#FF5500"/>
<stop offset="1" stop-color="#BBFF00"/>
</radialGradient>
<radialGradient id="paint7_radial_271_10491" cx="0" cy="0" r="1" gradientUnits="userSpaceOnUse" gradientTransform="translate(4.68166e-06 0.405581) rotate(2.10012) scale(174.958 26.9367)">
<stop offset="0.5" stop-color="#FF5500"/>
<stop offset="1" stop-color="#BBFF00"/>
</radialGradient>
<radialGradient id="paint8_radial_271_10491" cx="0" cy="0" r="1" gradientUnits="userSpaceOnUse" gradientTransform="translate(4.68166e-06 0.405581) rotate(2.10012) scale(174.958 26.9367)">
<stop offset="0.5" stop-color="#FF5500"/>
<stop offset="1" stop-color="#BBFF00"/>
</radialGradient>
</defs>
</svg>
