<svg width="169" height="30" viewBox="0 0 169 30" fill="none" xmlns="http://www.w3.org/2000/svg">
<path d="M121.412 14.5762C121.412 26.2403 118.5 29.1523 106.835 29.1523C95.1713 29.1523 92.2593 26.2403 92.2593 14.5762C92.2593 2.91205 95.1713 0 106.835 0C118.5 0 121.412 2.91205 121.412 14.5762Z" fill="#FFD700"/>
<path d="M114.761 20.7261C113.001 22.2926 110.705 23.2373 108.201 23.2373C102.946 23.2373 99.0093 19.1337 99.0093 14.4431C99.0093 10.0322 102.497 6.43059 106.821 6.43059C110.902 6.43059 113.846 9.62116 113.846 13.0757C113.846 16.3139 111.313 18.9405 108.201 18.9405C105.353 18.9405 103.343 16.7653 103.343 14.4431C103.343 12.3588 104.942 10.7275 106.822 10.7275C108.486 10.7275 109.513 11.9506 109.513 13.0757C109.513 14.0522 108.832 14.6421 108.201 14.6421C107.977 14.6421 107.892 14.5945 107.802 14.5383C108.006 14.2743 108.107 13.931 108.056 13.5733C107.955 12.8824 107.32 12.405 106.639 12.5074C106.054 12.5954 105.683 12.9964 105.5 13.2935C105.292 13.6267 105.181 14.0277 105.181 14.4431C105.181 16.1004 106.713 17.1721 108.201 17.1721C110.374 17.1735 112.008 15.2595 112.008 13.0757C112.008 10.4029 109.711 8.19752 106.822 8.19752C103.467 8.19752 100.848 11.0621 100.848 14.4431C100.848 18.2741 104.087 21.469 108.202 21.469C112.751 21.469 116.342 17.6495 116.342 13.0743C116.342 8.15569 112.213 3.90063 106.822 3.90063C101.087 3.90063 96.5159 8.66918 96.5159 14.4431C96.5159 20.6079 101.648 25.7673 108.202 25.7673C111.337 25.7673 114.213 24.5802 116.408 22.6272L114.761 20.7261Z" fill="#230F0A"/>
<path d="M10.6528 25.2673H14.4328V3.5556H8.9346C3.40514 3.5556 0.499838 6.39843 0.499838 10.5846C0.499838 13.9272 2.09307 15.8953 4.9359 17.9259L0 25.2673H4.09242L9.59063 17.0512L7.685 15.7704C5.37325 14.2084 4.24862 12.99 4.24862 10.3659C4.24862 8.05414 5.87309 6.49215 8.96584 6.49215H10.6528V25.2673ZM60.2929 24.2051V21.1749C59.137 21.9559 57.2002 22.6432 55.3882 22.6432C52.6704 22.6432 51.6395 21.3623 51.4833 18.7382H60.4491V16.7701C60.4491 11.3031 58.0436 9.24126 54.3261 9.24126C49.7963 9.24126 47.6408 12.7089 47.6408 17.4573C47.6408 22.9243 50.3274 25.5797 55.0759 25.5797C57.4501 25.5797 59.1995 24.9549 60.2929 24.2051ZM83.5354 25.5797C85.2535 25.5797 86.4719 25.2673 87.3779 24.6113V21.581C86.4407 22.237 85.316 22.6432 83.754 22.6432C81.0987 22.6432 80.0052 20.5813 80.0052 17.3324C80.0052 13.9272 81.3486 12.1778 83.7853 12.1778C85.2223 12.1778 86.6281 12.6776 87.3779 13.1462V9.99101C86.5969 9.55366 85.2223 9.24126 83.3792 9.24126C78.6307 9.24126 76.1628 12.6464 76.1628 17.4261C76.1628 22.6744 78.5682 25.5797 83.5354 25.5797ZM26.2415 9.55365V15.7704H21.2743V9.55365H17.5568V25.2673H21.2743V18.7069H26.2415V25.2673H29.959V9.55365H26.2415ZM46.7348 22.3308H45.0791V9.55365H34.2389V10.897C34.2389 14.7395 33.989 19.7066 32.6769 22.3308H31.521V28.8599H34.9574V25.2673H43.2984V28.8599H46.7348V22.3308ZM72.1641 25.2673H76.3814L70.4146 16.8013L75.6629 9.55365H71.9141L66.6658 16.8013V9.55365H62.9483V25.2673H66.6658V17.5511L72.1641 25.2673ZM54.2636 12.1778C56.1068 12.1778 56.6691 13.7086 56.6691 15.6767V15.9891H51.4833C51.577 13.4899 52.483 12.1778 54.2636 12.1778ZM41.3616 22.3308H36.1133C37.1442 19.9565 37.4253 15.6767 37.4253 12.9588V12.4902H41.3616V22.3308Z" fill="black"/>
<path d="M126.388 3.59813V25.287H138.429V22.3536H130.077V15.8625H137.027V12.929H130.077V6.5316H138.277V3.59813H126.388ZM154.984 22.3536H153.369V9.58988H142.791V10.9318C142.791 14.7703 142.547 19.7322 141.267 22.3536H140.139V28.8758H143.492V25.287H151.631V28.8758H154.984V22.3536ZM149.741 22.3536H144.62C145.626 19.9818 145.9 15.7065 145.9 12.9915V12.5234H149.741V22.3536ZM168.273 14.583C168.273 10.7758 166.383 9.34024 162.543 9.34024C160.134 9.34024 158.244 10.1204 157.147 10.7758V13.8653C158.123 13.1163 160.256 12.3049 162.116 12.3049C163.853 12.3049 164.646 12.929 164.646 14.6142V15.488H164.067C158.519 15.488 156.05 17.3604 156.05 20.5436C156.05 23.7268 157.94 25.5055 160.744 25.5055C162.878 25.5055 163.792 24.7876 164.493 24.0389H164.646C164.676 24.4445 164.798 24.9749 164.92 25.287H168.456C168.334 24.0075 168.273 22.7281 168.273 21.4485V14.583ZM164.646 21.5422C164.189 22.2288 163.335 22.7905 162.055 22.7905C160.531 22.7905 159.769 21.8543 159.769 20.45C159.769 18.6087 161.018 17.9534 164.128 17.9534H164.646V21.5422Z" fill="black"/>
</svg>
