<svg width="171" height="30" viewBox="0 0 171 30" fill="none" xmlns="http://www.w3.org/2000/svg">
<path d="M11.7644 25.884H15.5908V3.90135H10.0252C4.42786 3.90135 1.48693 6.77966 1.48693 11.0181C1.48693 14.4024 3.09969 16.3951 5.9774 18.451L0.980957 25.884H5.12357L10.6892 17.5654L8.76023 16.2686C6.42011 14.6871 5.28169 13.4535 5.28169 10.7966C5.28169 8.45605 6.9261 6.87456 10.0568 6.87456H11.7644V25.884ZM62.0135 24.8085V21.7404C60.8433 22.5313 58.8829 23.2272 57.0487 23.2272C54.2975 23.2272 53.2538 21.9302 53.0958 19.2734H62.1715V17.2807C62.1715 11.7455 59.7366 9.65798 55.9734 9.65798C51.3881 9.65798 49.2061 13.1689 49.2061 17.9766C49.2061 23.5118 51.9258 26.2003 56.7324 26.2003C59.1356 26.2003 60.9066 25.5676 62.0135 24.8085ZM85.541 26.2003C87.2802 26.2003 88.5136 25.884 89.4306 25.2198V22.1517C88.4819 22.8159 87.3434 23.2272 85.7622 23.2272C83.0743 23.2272 81.9676 21.1396 81.9676 17.8501C81.9676 14.4024 83.3273 12.6312 85.794 12.6312C87.2487 12.6312 88.6717 13.1373 89.4306 13.6117V10.4171C88.6401 9.97426 87.2487 9.65798 85.383 9.65798C80.5761 9.65798 78.0779 13.1056 78.0779 17.945C78.0779 23.2587 80.5129 26.2003 85.541 26.2003ZM27.5444 9.97426V16.2686H22.5162V9.97426H18.7531V25.884H22.5162V19.2418H27.5444V25.884H31.3075V9.97426H27.5444ZM48.2891 22.9109H46.6129V9.97426H35.6399V11.3343C35.6399 15.2248 35.3869 20.2539 34.0587 22.9109H32.8885V29.5214H36.3672V25.884H44.8105V29.5214H48.2891V22.9109ZM74.0303 25.884H78.2994L72.2593 17.3124L77.5719 9.97426H73.7772L68.4646 17.3124V9.97426H64.7015V25.884H68.4646V18.0715L74.0303 25.884ZM55.9102 12.6312C57.7759 12.6312 58.3451 14.181 58.3451 16.1737V16.49H53.0958C53.1905 13.9596 54.1077 12.6312 55.9102 12.6312ZM42.8498 22.9109H37.5371C38.5808 20.507 38.8654 16.1737 38.8654 13.4219V12.9475H42.8498V22.9109Z" fill="#200300"/>
<path d="M126.722 3.90105V25.8837H139.213V22.9106H130.548V16.3316H137.758V13.3583H130.548V6.87426H139.055V3.90105H126.722ZM156.387 22.9106H154.711V9.97396H143.738V11.334C143.738 15.2245 143.485 20.2536 142.157 22.9106H140.987V29.5211H144.465V25.8837H152.909V29.5211H156.387V22.9106ZM150.948 22.9106H145.635C146.679 20.5067 146.964 16.1734 146.964 13.4216V12.9472H150.948V22.9106ZM170.174 15.0347C170.174 11.1759 168.213 9.72094 164.229 9.72094C161.73 9.72094 159.77 10.5117 158.631 11.1759V14.3072C159.643 13.5481 161.857 12.7258 163.786 12.7258C165.588 12.7258 166.41 13.3583 166.41 15.0664V15.952H165.81C160.054 15.952 157.493 17.8498 157.493 21.076C157.493 24.3023 159.453 26.1052 162.363 26.1052C164.576 26.1052 165.525 25.3776 166.252 24.6186H166.41C166.442 25.0297 166.568 25.5673 166.695 25.8837H170.363C170.237 24.5869 170.174 23.2901 170.174 21.9932V15.0347ZM166.41 22.0882C165.936 22.7841 165.051 23.3534 163.723 23.3534C162.141 23.3534 161.351 22.4045 161.351 20.9812C161.351 19.115 162.647 18.4507 165.873 18.4507H166.41V22.0882Z" fill="#200300"/>
<path d="M119.351 22.8552C116.963 24.9641 113.847 26.2361 110.447 26.2361C103.315 26.2361 97.9706 20.7112 97.9706 14.396C97.9706 8.4575 102.705 3.60846 108.574 3.60846C114.114 3.60846 118.11 7.90404 118.11 12.555C118.11 16.9147 114.671 20.451 110.447 20.451C106.582 20.451 103.854 17.5225 103.854 14.396C103.854 11.5899 106.024 9.39352 108.576 9.39352C110.835 9.39352 112.229 11.0403 112.229 12.555C112.229 13.8697 111.304 14.664 110.447 14.664C110.144 14.664 110.028 14.5999 109.906 14.5242C110.183 14.1688 110.32 13.7066 110.25 13.225C110.113 12.2948 109.252 11.652 108.327 11.7899C107.534 11.9083 107.03 12.4482 106.781 12.8483C106.499 13.2968 106.348 13.8367 106.348 14.396C106.348 16.6273 108.427 18.0702 110.447 18.0702C113.397 18.0721 115.616 15.4951 115.616 12.555C115.616 8.95659 112.497 5.98734 108.576 5.98734C104.022 5.98734 100.467 9.84406 100.467 14.396C100.467 19.5538 104.863 23.8552 110.449 23.8552C116.623 23.8552 121.498 18.7129 121.498 12.5531C121.498 5.93103 115.894 0.202271 108.576 0.202271C100.791 0.202271 94.5861 6.62237 94.5861 14.396C94.5861 22.6958 101.552 29.6422 110.449 29.6422C114.704 29.6422 118.608 28.0441 121.587 25.4146L119.351 22.8552Z" fill="#200300"/>
</svg>
