<svg width="254" height="35" viewBox="0 0 254 35" fill="none" xmlns="http://www.w3.org/2000/svg">
<path d="M6.69503 0.67588V11.0122L13.6738 0.67588H21.7994L9.99622 12.7893L31.5466 0.67588V8.36691L12.197 15.6734L31.5466 13.8497V21.1562L12.197 19.3324L31.5466 26.6389V34.3299L9.99622 22.2166L21.7994 34.3299H13.6681L6.68924 23.9937V34.3299H0V0.67588H6.69503Z" fill="white"/>
<path d="M36.3188 0.67588H44.2011L43.0081 22.4496L52.8016 0.67588H59.2533V34.3241H51.371L52.5641 12.5504L42.7706 34.3241H36.3188V0.67588Z" fill="white"/>
<path d="M64.0314 0.67588H71.9137V13.6574H78.6029V0.67588H86.4852V34.3241H78.6029V18.9421H71.9137V34.3241H64.0314V0.67588Z" fill="white"/>
<path d="M90.1165 17.5029C90.1165 7.88913 94.5123 0.00583223 103.35 0.00583223C112.188 0.00583223 116.584 7.88913 116.584 17.5029C116.584 27.1167 112.188 35 103.35 35C94.5123 35 90.1165 27.1167 90.1165 17.5029ZM103.35 30.0008C106.454 30.0008 108.273 24.4715 108.273 17.5029C108.273 10.5344 106.454 5.005 103.35 5.005C100.246 5.005 98.4274 10.5344 98.4274 17.5029C98.4332 24.4715 100.246 30.0008 103.35 30.0008Z" fill="white"/>
<path d="M120.215 0.67588H142.912V34.3241H135.03V5.96055H128.103V34.3241H120.221V0.67588H120.215Z" fill="white"/>
<path d="M146.544 17.5029C146.544 7.88913 150.939 0.00583223 159.777 0.00583223C168.615 0.00583223 173.011 7.88913 173.011 17.5029C173.011 27.1167 168.615 35 159.777 35C150.939 35 146.544 27.1167 146.544 17.5029ZM159.783 30.0008C162.887 30.0008 164.706 24.4715 164.706 17.5029C164.706 10.5344 162.887 5.005 159.783 5.005C156.679 5.005 154.86 10.5344 154.86 17.5029C154.86 24.4715 156.673 30.0008 159.783 30.0008Z" fill="white"/>
<path d="M176.648 0.67588H184.53L183.337 22.4496L193.131 0.67588H199.583V34.3241H191.7L192.893 12.5504L183.1 34.3241H176.648V0.67588Z" fill="white"/>
<path d="M220.554 22.4496L228.054 23.6033L227.816 24.757C226.525 31.0088 222.61 34.9942 216.158 34.9942C207.32 34.9942 203.208 27.1109 203.208 17.4971C203.208 7.8833 207.32 0 216.158 0C222.372 0 226.334 3.99118 227.724 9.85267L227.961 10.8607L220.27 12.5911C219.697 7.92991 218.312 4.99334 216.158 4.99334C213.054 4.99334 211.525 10.5227 211.525 17.4913C211.525 24.4598 213.054 29.9892 216.158 29.9892C218.504 30.0008 219.98 26.872 220.554 22.4496Z" fill="white"/>
<path d="M231.303 0.67588H239.185V15.819L245.637 0.67588H253.763L244.444 16.9727L254 34.3241H245.162L239.191 19.181V34.3241H231.309V0.67588H231.303Z" fill="white"/>
</svg>
