<svg width="241" height="54" viewBox="0 0 241 54" fill="none" xmlns="http://www.w3.org/2000/svg">
<g clip-path="url(#clip0_1_997)">
<path d="M0 1.10754V50.9449H49.2406V1.10754H0ZM23.6023 40.901L16.3633 42.1995V18.331L14.3273 18.7129V42.5814L7.05053 43.8416V14.5121L23.6023 11.5715V40.901ZM42.1901 37.5785L34.951 38.877V26.1981L32.9151 26.58V39.2589L25.676 40.5573V11.1896L32.9151 9.89114V20.7752L34.951 20.3933V9.54743L42.1901 8.24899V37.5785Z" fill="white"/>
<path d="M85.0965 6.26308H84.1917C82.0049 6.26308 80.5344 6.72136 79.3656 7.75248C78.3476 8.63083 77.8952 9.96747 77.8952 12.0679C77.8952 14.2829 78.6116 16.3833 80.2328 17.9873C81.854 19.7822 83.5884 20.6605 85.8129 20.6605H88.4521L89.6209 16.8034H86.567C86.2653 16.8034 85.8129 16.6506 85.2473 16.6506C87.2833 15.4668 88.6406 14.4356 89.357 13.2518C89.9603 12.2207 90.2242 11.3041 90.2242 10.1202C90.2242 9.50919 89.9226 8.93635 89.357 8.17256C88.4521 7.2942 86.9817 6.68317 85.0965 6.26308ZM84.4933 12.488C84.0785 12.9463 83.3245 13.3663 82.6081 13.8246C82.4573 13.2136 82.3065 12.6407 82.3065 12.1825C82.3065 10.6931 83.0229 10.1202 84.4933 10.1202H85.3605C85.6621 10.1202 85.8129 10.4257 85.8129 10.7313C85.8129 11.3041 85.3605 11.9151 84.4933 12.488ZM95.5781 10.3112H91.3553L92.411 6.33946H103.156L104.363 10.3112H100.14V20.7369H95.6158V10.3112H95.5781ZM105.155 36.5856H102.591C101.083 36.5856 99.8763 36.7383 98.7829 37.0438C97.4255 37.3494 96.3698 38.1132 95.465 38.8769C94.5601 39.7935 93.806 40.901 93.3536 42.1231C92.9011 43.1924 92.7503 44.6054 92.7503 45.8274L92.9011 47.2023H91.4684L92.5241 51.0594H105.419L106.625 47.2023H105.117V36.5856H105.155ZM100.593 47.2023H97.3878C97.237 46.8968 97.237 46.744 97.237 46.4385V45.5219C97.237 44.1471 97.5386 43.0778 97.9911 42.314C98.5943 41.5502 99.3861 41.0919 100.593 40.7864V47.2023ZM204.842 20.6987H200.318V6.18671H204.842V20.6987ZM115.862 20.6987L117.031 16.8034H113.94C113.638 16.8034 113.223 16.6506 112.62 16.6506C114.543 15.4668 116.013 14.3975 116.73 13.2136C117.333 12.1825 117.635 11.2659 117.635 10.082C117.635 9.471 117.333 8.89816 116.73 8.13437C115.862 7.21782 114.392 6.64498 112.469 6.18671H111.564C109.34 6.18671 107.869 6.64498 106.701 7.6761C105.683 8.55446 105.23 9.92928 105.23 12.0297C105.23 14.2829 105.984 16.3451 107.605 17.9873C109.227 19.7822 110.999 20.6987 113.223 20.6987H115.862ZM109.981 13.8246C109.83 13.2136 109.679 12.6407 109.679 12.1825C109.679 10.6931 110.395 10.082 111.904 10.082H112.809C113.11 10.082 113.261 10.3876 113.261 10.6931C113.261 11.3041 112.809 11.8769 111.941 12.488C111.451 12.9463 110.697 13.3663 109.981 13.8246ZM208.349 20.6987L204.842 12.6789L207.746 6.18671H212.76L209.706 12.5262L213.363 20.6987H208.349ZM177.47 21.3098C177.394 20.6987 177.394 20.0877 177.394 19.6294V6.22489H186.481L187.537 10.1966H181.957V19.4767C181.957 19.7822 181.957 20.0877 182.107 20.3932L182.258 20.6987L178.186 23.1429C178.186 23.1429 177.885 22.7992 177.847 22.6846C177.583 22.1881 177.508 21.768 177.47 21.3098ZM89.2062 43.6124C89.8095 42.5813 90.0734 41.6648 90.0734 40.4809C90.0734 39.8699 89.7718 39.297 89.2062 38.5332C88.339 37.6549 86.8686 37.0438 84.9457 36.5856H84.0408C81.854 36.5856 80.3836 37.0438 79.2148 38.075C78.1968 38.9533 77.7444 40.29 77.7444 42.3904C77.7444 44.6054 78.4607 46.7058 80.082 48.3098C81.7032 50.1047 83.4376 50.983 85.6621 50.983H88.3013L89.4701 47.1259H86.3785C86.0768 47.1259 85.6244 46.9731 85.0588 46.9731C87.1325 45.8274 88.4521 44.7963 89.2062 43.6124ZM84.3425 42.8487C83.9277 43.3069 83.1737 43.727 82.4573 44.1853C82.3065 43.5743 82.1557 43.0014 82.1557 42.5431C82.1557 41.0538 82.872 40.4809 84.3425 40.4809H85.2096C85.5113 40.4809 85.6621 40.7864 85.6621 41.0919C85.6998 41.6648 85.2473 42.2758 84.3425 42.8487ZM61.1172 1.1075H76.5379V20.6987H71.561V5.57567H66.2825V19.5149C66.2825 19.8204 66.4334 20.2786 66.5842 20.7369L61.909 23.6393C61.6073 23.0283 61.3811 22.4173 61.3057 21.6535C61.2303 21.0424 61.1549 20.1259 61.1549 19.3621V1.1075H61.1172ZM124.308 20.7751C127.023 20.1641 128.946 18.9802 130.454 17.2999C131.811 15.6195 132.527 13.8246 132.527 11.686C132.527 10.0057 132.075 8.78359 131.17 7.90523C130.114 6.68317 128.644 6.22489 126.533 6.22489H119.784V25.3579H124.27V20.7751H124.308ZM124.308 10.0057H125.665C126.419 10.0057 126.872 10.0057 127.174 10.3112C127.626 10.6167 127.928 11.075 127.928 11.9915C127.928 13.0608 127.626 14.1301 126.872 15.0467C126.269 15.9632 125.364 16.4215 124.308 16.5743V10.0057ZM152.925 19.2475L147.835 6.22489H153.076L155.187 12.9081L157.299 6.22489H162.238L155.489 25.3197H150.7L152.925 19.2475ZM71.561 31.5064H76.5756V51.0976H71.5987V42.0467H66.3202V49.8755C66.3202 50.1811 66.4711 50.6393 66.6219 51.0976L61.9467 54C61.645 53.389 61.4188 52.7779 61.3434 52.0141C61.268 51.4031 61.1926 50.4866 61.1926 49.7228V31.5064H66.358V37.6167H71.6364L71.561 31.5064ZM197.264 36.6238H195.379C193.645 36.6238 192.363 37.1966 191.345 38.2277C190.327 39.1061 189.761 40.4045 189.761 41.8557C189.761 44.1853 190.327 46.2475 191.495 48.1188C192.777 50.0283 194.399 51.0594 196.246 51.0594C198.282 51.0594 199.866 50.0283 200.997 48.1188C202.166 46.2093 202.731 44.1853 202.731 41.8557C202.731 40.5573 202.166 39.2207 200.997 38.075C199.979 37.0438 198.659 36.6238 197.264 36.6238ZM197.679 45.6747C197.264 46.7058 196.661 47.1259 196.246 47.1259C195.831 47.1259 195.379 46.7058 194.964 45.6747C194.399 44.7963 194.248 43.6124 194.248 42.1612C194.248 40.9774 194.964 40.4045 196.246 40.4045C197.679 40.4045 198.433 40.9774 198.433 42.1612C198.395 43.6124 198.094 44.7963 197.679 45.6747ZM212.572 47.1641H214.231L213.024 50.983H212.421C210.159 50.983 208.198 50.2192 206.539 48.3861C204.88 46.7058 204.126 44.5672 204.126 42.0849C204.126 40.5573 204.428 39.3352 205.333 38.2659C206.388 37.1966 207.896 36.5856 210.008 36.5856H212.873L213.929 40.5573H210.913C210.309 40.5573 209.857 40.5573 209.555 40.71C208.952 41.0156 208.651 41.6266 208.651 42.5431C208.651 43.6124 209.103 44.6818 209.857 45.5983C210.611 46.7058 211.516 47.1641 212.572 47.1641ZM221.319 20.6223H225.843V6.22489H218.906C216.794 6.22489 215.286 6.68317 214.381 7.90523C213.477 8.82178 213.024 10.0438 213.024 11.7242C213.024 14.1683 213.778 16.1542 215.286 17.6818C216.644 19.4003 218.755 20.3168 221.319 20.6223ZM218.453 10.3494C218.755 10.0438 219.207 10.0438 219.811 10.0438H221.319V16.6124C220.263 16.4597 219.358 16.0014 218.755 15.0849C218.001 14.1683 217.699 13.099 217.699 12.0297C217.699 11.1132 218.001 10.5021 218.453 10.3494ZM190.779 17.8345C189.12 16.1542 188.366 14.0156 188.366 11.7242C188.366 10.0438 188.668 8.82178 189.573 7.90523C190.477 6.68317 192.136 6.22489 194.248 6.22489H196.962L198.169 10.0438H195.153C194.549 10.0438 194.097 10.0438 193.795 10.3494C193.192 10.6549 192.89 11.1132 192.89 12.0297C192.89 13.099 193.343 14.1683 194.097 15.2376C194.851 16.1542 195.756 16.6124 196.812 16.6124H198.471L197.264 20.5842H196.51C194.248 20.6224 192.287 19.7058 190.779 17.8345ZM234.1 39.8317V36.5856H229.576V50.983H235.759C237.418 50.983 238.813 50.5248 239.718 49.6082C240.472 48.6917 240.925 47.7751 240.925 46.553C240.925 45.1782 240.321 44.1089 239.266 43.0396C238.361 41.9703 236.513 40.901 234.1 39.8317ZM236.099 47.0113C235.797 47.1641 235.495 47.1641 235.043 47.1641H234.289V44.2617C235.043 44.8727 235.646 45.1782 235.948 45.4837C236.249 45.942 236.4 46.2475 236.4 46.553C236.4 46.8586 236.4 47.0113 236.099 47.0113ZM241 6.22489V20.6223H236.476V10.0438H233.61C233.459 10.1966 233.309 10.3494 233.309 10.5021C233.309 10.9604 233.761 11.5714 234.817 12.488C235.269 12.7935 235.722 13.099 236.476 13.5573C235.42 15.6959 234.666 17.2235 234.063 18.2928C233.158 19.8204 232.253 21.1952 231.046 22.4173L230.745 22.7228L226.974 20.1259L227.427 19.8204C228.03 19.0566 228.633 18.2928 229.237 17.2235C229.84 16.4597 230.292 15.5431 230.896 14.4738C230.141 14.0156 229.538 13.2518 229.086 12.488C228.633 11.7242 228.332 10.9604 228.332 10.0438C228.332 8.97454 228.633 8.05799 229.387 7.44696C230.141 6.53041 231.348 6.22489 233.007 6.22489H241ZM183.992 36.662H187.989V51.0594H183.54V43.6888L181.165 46.8586L178.789 43.6888V51.0594H174.34V36.662H178.337L181.127 40.5573L183.992 36.662ZM227.276 36.5856L228.332 40.5573H224.071V50.983H219.547V40.5573H215.324L216.531 36.5856H227.276ZM145.196 17.7199C146.327 15.9632 146.93 13.7864 146.93 11.4569C146.93 9.70014 146.365 8.4017 145.347 7.52334C144.479 6.64498 143.047 6.22489 141.312 6.22489C141.011 6.22489 140.445 6.37765 139.578 6.37765C138.862 6.53041 138.296 6.53041 138.145 6.68317C138.145 5.80481 138.296 5.07921 138.862 4.65912C139.427 4.23904 140.596 3.93352 142.293 3.93352H146.025L144.856 0H141.124C138.975 0 137.24 0.420085 136.222 1.29844C135.242 2.1768 134.639 3.47525 134.224 5.23197C134.073 6.53041 133.922 8.59265 133.922 11.4951C133.922 13.8246 134.488 16.0014 135.657 17.7581C136.788 19.8204 138.522 20.6605 140.407 20.6605C142.293 20.6605 143.914 19.744 145.196 17.7199ZM139.088 15.6195C138.673 14.7412 138.371 13.5955 138.371 12.2588C138.371 10.9222 139.088 10.3876 140.521 10.3876C141.953 10.3876 142.519 10.9604 142.519 12.2588C142.519 13.5573 142.368 14.7412 141.802 15.6195C141.35 16.6506 140.935 17.0707 140.521 17.0707C140.106 17.0707 139.691 16.6506 139.088 15.6195ZM174.793 7.90523C173.737 6.68317 172.229 6.22489 170.155 6.22489H163.444V25.3197H167.78V20.7751C170.457 20.1641 172.568 18.9802 174.077 17.2999C175.434 15.6195 176.037 13.8246 176.037 11.686C175.999 10.0438 175.547 8.82178 174.793 7.90523ZM170.457 15.0467C169.703 15.9632 168.949 16.4215 167.78 16.5743V10.082H169.288C169.891 10.082 170.344 10.082 170.646 10.3876C171.249 10.6931 171.55 11.1513 171.55 12.0679C171.513 13.0608 171.06 14.1301 170.457 15.0467ZM143.876 36.5856L145.686 43.1542L143.424 50.983H138.145L140.86 43.0014L138.748 36.5856H143.876ZM131.585 36.5856H136.109V50.983H128.832C126.872 50.983 125.364 50.372 124.308 49.3027C123.554 48.2334 123.102 46.8586 123.102 45.0255C123.102 44.1089 123.252 43.0396 123.554 41.8175C124.006 40.4427 124.61 38.6096 125.515 36.6238H130.19C129.285 39.2207 128.832 40.5955 128.832 40.5955C128.229 42.4286 127.928 43.6506 127.928 44.7199C127.928 45.7893 128.229 46.4003 128.832 46.8586C129.134 47.0113 129.888 47.1641 131.095 47.1641H131.547V36.5856H131.585ZM119.18 43.1924C119.633 42.8868 120.085 42.4286 120.387 41.8175C120.689 41.3593 120.839 40.7482 120.839 40.29C120.839 39.2207 120.387 38.4569 119.784 37.8458C119.03 37.082 117.823 36.6238 116.315 36.6238H108.586V51.0212H116.164C118.125 51.0212 119.482 50.7157 120.387 49.7992C121.141 49.1881 121.443 48.4243 121.443 47.355C121.443 46.5912 121.292 45.8274 120.839 45.2164C120.387 44.4144 119.784 43.8034 119.18 43.1924ZM115.259 47.1641H113.148V40.5573H114.505C115.41 40.5573 115.862 40.71 115.862 41.1683C115.862 41.4738 115.41 42.0849 114.505 42.6959C114.204 43.0014 113.902 43.1542 113.299 43.6124L114.807 44.529C115.259 44.8345 115.712 45.14 115.862 45.4455C116.315 45.7511 116.466 46.0566 116.466 46.3621C116.466 46.8586 116.013 47.1641 115.259 47.1641ZM150.399 36.5856V50.983H145.874V36.5856H150.399ZM167.365 36.5856H171.89V50.983H164.613C162.652 50.983 161.144 50.372 160.239 49.3027C159.334 48.2334 159.033 46.8586 159.033 45.0255C159.033 44.1089 159.184 43.0396 159.485 41.8175C159.787 40.4427 160.39 38.6096 161.446 36.6238H165.97C165.065 39.2207 164.613 40.5955 164.613 40.5955C164.01 42.4286 163.708 43.6506 163.708 44.7199C163.708 45.7893 164.01 46.4003 164.613 46.8586C165.065 47.0113 165.819 47.1641 166.875 47.1641H167.328V36.5856H167.365ZM155.225 43.0396L158.09 51.0212H152.661L150.399 43.1924L152.359 36.6238H157.336L155.225 43.0396Z" fill="white"/>
</g>
<defs>
<clipPath id="clip0_1_997">
<rect width="241" height="54" fill="white"/>
</clipPath>
</defs>
</svg>
