<svg width="248" height="249" viewBox="0 0 248 249" fill="none" xmlns="http://www.w3.org/2000/svg">
<path d="M9.36745 131.66C9.36745 131.66 -2.78289 128.96 0.592342 121.805C3.96758 114.649 13.8233 121.805 13.8233 121.805C13.8233 121.805 28.1341 115.999 72.2813 115.999C116.428 115.999 160.98 92.6431 170.97 96.0183C180.961 99.3936 195.812 113.839 211.337 131.12C226.863 148.401 232.669 162.036 232.669 162.036C232.669 162.036 244.144 160.01 245.089 165.276C246.034 170.541 234.963 169.731 234.558 170.947C234.153 172.161 214.24 202.403 174.953 216.174C135.666 229.945 118.588 232.374 118.588 232.374C118.588 232.374 116.563 249.79 109.948 247.9C103.332 246.009 105.493 235.209 105.493 235.209C105.493 235.209 48.183 220.224 28.3366 182.355C8.49093 144.486 9.36828 131.659 9.36828 131.659L9.36745 131.66Z" fill="black"/>
<path d="M57.2766 133.244C57.2766 133.244 131.152 103.584 176.163 126.599C221.173 149.615 188.535 186.573 138.862 199.717L57.2766 133.243V133.244Z" fill="white"/>
<path d="M182.697 159.166C205.786 136.077 205.786 98.6426 182.697 75.5536C159.608 52.4647 122.174 52.4647 99.0846 75.5536C75.9957 98.6426 75.9957 136.077 99.0847 159.166C122.174 182.255 159.608 182.255 182.697 159.166Z" fill="#AB090F"/>
<path d="M136.927 31.588C138.193 31.039 139.728 31.2637 140.737 32.3304C142.509 34.3674 141.202 37.1903 140.988 39.5401L135.041 39.1212C135.029 37.8274 134.992 36.1212 135.035 34.8019C135.112 33.4003 135.462 32.1542 136.926 31.588H136.927Z" fill="white"/>
<path d="M51.3796 72.1573C51.2908 70.6907 52.1755 69.4183 53.443 68.8693C54.8577 68.187 56.0059 68.7845 57.0807 69.6866C58.0725 70.5565 59.2955 71.6437 60.2305 72.5375L56.4684 77.2708C54.6084 75.8198 51.6545 74.8437 51.3788 72.1573H51.3796Z" fill="white"/>
<path d="M105.036 72.9337L106.199 72.4297L101.074 60.603L99.9108 61.107L105.036 72.9337Z" fill="#321F15"/>
<path d="M135.825 39.8878C129.534 39.6705 127.37 38.2524 123.144 33.7249C118.917 29.1975 111.881 25.0634 103.053 26.4165C94.2257 27.7704 81.7437 33.0632 72.599 40.5594C63.4552 48.0563 65.0634 56.187 65.3037 61.2675C65.544 66.3481 61.6322 72.2591 60.1837 73.5002C58.7351 74.7413 60.4544 76.2656 62.3458 74.8244C64.2371 73.3833 68.539 68.5834 68.5258 59.7556C68.5127 50.9287 70.7497 46.1905 79.4631 40.1758C88.1773 34.1611 104.788 25.1943 114.817 32.3884C120.261 36.1521 122.769 40.8367 131.338 42.1857C137.945 42.8556 137.672 40.8532 135.825 39.8878Z" fill="white"/>
<path d="M136.362 37.1737C129.874 37.042 127.66 35.6454 123.362 31.1492C119.062 26.6538 111.86 22.5913 102.732 24.0744C93.6051 25.5583 80.6515 31.0545 71.1126 38.7218C61.5737 46.39 63.121 54.547 63.2988 59.6547C63.4765 64.7616 59.3581 70.7631 57.847 72.0314C56.3351 73.2997 58.0882 74.8099 60.0602 73.3334C62.0321 71.8577 66.5366 66.9689 66.6452 58.0893C66.7538 49.2097 69.1266 44.4122 78.2013 38.2412C87.276 32.0701 104.539 22.821 114.789 29.9196C120.355 33.6306 122.878 38.3087 131.701 39.5473C138.509 40.13 138.256 38.1194 136.362 37.1737Z" fill="white"/>
<path d="M162.907 56.6498C163.598 52.2466 161.381 42.3991 151.849 40.9218C142.316 39.4444 131.301 38.3366 125.385 38.5745C119.469 38.8132 112.259 41.1176 111.211 51.0112C111.104 52.9733 113.796 54.1322 116.023 54.5363C118.249 54.9387 152.856 57.4514 156.781 57.6646C161.776 57.8251 162.961 57.7214 162.907 56.6498Z" fill="#C6141B"/>
<path d="M134.352 62.4063C135.407 62.4689 136.457 62.5594 137.503 62.6779C137.819 62.7141 138.102 62.4763 138.113 62.1586C138.113 62.1569 138.113 62.1545 138.113 62.1528C138.235 59.9093 138.737 57.3867 138.861 55.1456L134.71 54.7769C134.552 56.6937 134.196 59.3562 133.841 61.7825C133.795 62.1001 134.031 62.3866 134.352 62.4055V62.4063Z" fill="white"/>
<path d="M71.8838 83.1038C75.0804 85.6412 81.3346 89.8188 82.5091 90.6328C82.2581 91.1069 80.8367 92.771 79.9988 94.7307C78.2351 93.3974 76.5487 92.0311 74.9381 90.6303C73.2188 89.1867 71.1678 87.66 69.4485 86.2156L71.8846 83.1038H71.8838Z" fill="white"/>
<path d="M111.211 51.0101C111.215 50.9788 111.219 50.9475 111.222 50.9163C112.171 51.9549 113.964 52.6249 115.54 52.9286C117.86 53.3746 153.972 56.3976 158.069 56.6659C160.392 56.7663 161.925 56.8026 162.909 56.7137C162.91 57.7235 161.673 57.8206 156.781 57.6634C152.857 57.4495 118.25 54.9376 116.023 54.5351C113.796 54.131 111.105 52.9722 111.212 51.0101H111.211Z" fill="#ED1C24"/>
<path d="M53.9705 104.963C50.2842 102.457 44.6127 94.1066 50.0529 86.1389C55.4923 78.172 62.2139 69.3763 66.4328 65.2216C70.6516 61.067 77.2622 57.3798 85.1986 63.3805C86.7031 64.6431 85.7097 67.4002 84.4818 69.2997C83.253 71.2001 61.4255 98.1732 58.8996 101.184C55.6017 104.94 54.7145 105.733 53.9705 104.962V104.963Z" fill="#C6141B"/>
<path d="M57.5861 100.645C60.1992 97.5288 82.7888 69.6151 84.0604 67.648C84.8003 66.5032 85.4571 65.0588 85.5698 63.793C86.5056 65.1757 85.5896 67.5863 84.4818 69.3007C83.253 71.201 61.4255 98.1741 58.8996 101.185C55.6018 104.941 54.7145 105.734 53.9705 104.963C53.8397 104.874 53.7063 104.777 53.5714 104.674C54.3294 104.269 55.4841 103.038 57.5861 100.645Z" fill="#ED1C24"/>
<path d="M105.114 54.8088C106.608 54.3241 107.862 54.2599 108.575 56.3611C109.289 58.4631 106.769 59.6005 105.033 60.3396C103.297 61.0787 96.0996 64.0951 94.1655 64.5823C92.2322 65.0703 91.6635 63.8103 91.1804 62.579C90.6956 61.347 90.9993 60.4178 93.0725 59.6491C95.1449 58.8795 103.182 55.4385 105.115 54.8088H105.114Z" fill="#C6141B"/>
<path d="M149.859 177.869L164.404 171.566L155.312 150.586L140.767 156.889L149.859 177.869Z" fill="#ED1C24"/>
<path d="M104.234 72.6273L118.78 66.324L117.38 63.0934L102.834 69.3967L104.234 72.6273Z" fill="#ED1C24"/>
<path d="M180.395 158.199C180.147 158.447 180.165 158.858 180.436 159.08C182.586 160.842 185.212 161.94 187.687 163.381C190.465 165 193.544 167.403 197.053 167.661C198.207 167.772 198.854 167.566 199.148 167.18C199.9 166.196 198.353 164.044 197.048 163C193.152 159.451 188.253 157.261 183.879 154.373C182.939 155.501 181.953 156.597 180.924 157.657C180.749 157.838 180.573 158.019 180.395 158.198V158.199Z" fill="#C6141B"/>
<path d="M180.696 157.895C182.969 160.069 186.051 161.271 188.827 162.889C191.606 164.508 194.685 166.91 198.194 167.168C198.562 167.204 198.879 167.207 199.149 167.182C201.883 166.931 199.841 163.829 198.188 162.508C194.326 158.988 189.475 156.807 185.131 153.953C184.796 153.733 184.35 153.804 184.095 154.113C184.024 154.2 183.951 154.287 183.879 154.375C182.939 155.503 181.953 156.599 180.924 157.659L180.695 157.895H180.696Z" fill="#C6141B"/>
<path d="M112.343 190.138C112.921 186.423 113.889 182.315 114.093 178.579L119.723 180.785C118.715 186.877 117.206 193.916 113.843 199.205C110.009 202.142 112.041 191.548 112.342 190.138H112.343Z" fill="white"/>
<path d="M111.333 190.576C111.912 186.861 112.879 182.753 113.084 179.017L118.713 181.223C117.705 187.315 116.196 194.354 112.833 199.643C108.999 202.58 111.031 191.986 111.333 190.576Z" fill="white"/>
<path d="M169.37 164.944C192.459 141.855 192.459 104.42 169.37 81.3314C146.281 58.2425 108.846 58.2425 85.7574 81.3314C62.6684 104.42 62.6684 141.855 85.7574 164.944C108.846 188.033 146.281 188.033 169.37 164.944Z" fill="#C6141B"/>
<path d="M163.613 159.187C183.522 139.278 183.522 106.998 163.613 87.0883C143.703 67.1787 111.424 67.1787 91.5141 87.0883C71.6046 106.998 71.6046 139.278 91.5141 159.187C111.424 179.097 143.703 179.097 163.613 159.187Z" fill="#ED1C24"/>
<path d="M82.872 142.514C84.8522 147.082 87.448 151.194 90.5212 154.791C96.6527 161.973 104.684 167.115 113.504 169.779C121.292 172.133 129.698 172.554 137.957 170.739C140.983 170.077 143.988 169.113 146.937 167.835C157.022 163.464 164.878 156.091 169.914 147.215C172.957 141.853 174.97 135.946 175.823 129.818C175.973 128.751 176.085 127.677 176.163 126.599C176.544 121.321 176.065 115.926 174.647 110.621C174.031 108.313 173.237 106.024 172.259 103.769C163.241 82.9609 141.442 71.6385 120.032 75.0039C116.044 75.6302 112.069 76.7676 108.192 78.4474C107.037 78.9486 105.911 79.4885 104.816 80.0663C103.853 80.5716 102.914 81.1074 101.999 81.6704C96.6206 84.9773 92.0652 89.2192 88.4562 94.089C80.3593 105.012 77.0178 119.088 79.8185 132.822C80.4819 136.088 81.495 139.334 82.8728 142.513L82.872 142.514Z" fill="white"/>
<path d="M110.959 126.535C109.27 125.999 102.318 124.295 102.318 124.295C103.695 124.067 109.279 122.648 110.971 122.12C112.889 121.522 114.528 121.368 115.535 124.329H115.543C115.543 124.329 115.54 124.335 115.538 124.339C115.54 124.343 115.541 124.346 115.543 124.349H115.535C114.513 127.305 112.875 127.142 110.959 126.535Z" fill="#321F15"/>
<path d="M115.765 124.325C115.765 124.283 115.753 124.242 115.728 124.205C115.726 124.201 115.724 124.198 115.721 124.195C114.624 121.045 112.74 121.337 110.904 121.909C109.252 122.425 103.645 123.851 102.281 124.077C102.178 124.094 102.101 124.182 102.097 124.287C102.086 124.391 102.163 124.484 102.265 124.51C102.334 124.527 109.229 126.218 110.892 126.745C112.73 127.329 114.617 127.632 115.729 124.461C115.746 124.432 115.757 124.4 115.761 124.367C115.763 124.354 115.765 124.339 115.765 124.326V124.325ZM103.327 124.316C105.459 123.846 109.605 122.777 111.036 122.331C112.797 121.782 114.335 121.556 115.304 124.34C114.321 127.117 112.784 126.883 111.026 126.325C109.709 125.907 105.299 124.805 103.328 124.316H103.327Z" fill="#321F15"/>
<path d="M124.659 124.362C124.659 124.241 124.561 124.141 124.438 124.141L111.007 124.106C110.885 124.106 110.786 124.204 110.786 124.327C110.786 124.449 110.884 124.548 111.006 124.548L124.437 124.583C124.559 124.583 124.659 124.485 124.659 124.362Z" fill="#321F15"/>
<path d="M128.915 136.158C128.844 139.588 128.343 151.64 128.002 155.241H127.986C127.634 151.641 127.089 139.592 127.006 136.162C126.954 134.055 127.027 119.017 127.336 113.206C127.614 113.259 127.767 113.104 127.919 113.132C128.07 113.103 128.223 113.257 128.501 113.203C128.832 119.014 128.958 134.051 128.914 136.158H128.915Z" fill="white"/>
<path d="M129.577 136.16C129.436 142.511 129.237 148.914 128.664 155.243C128.632 155.602 128.385 155.904 128 155.904C127.995 155.904 127.99 155.904 127.985 155.904C127.597 155.903 127.357 155.599 127.324 155.239C126.02 141.352 125.965 127.126 126.673 113.204C126.693 112.821 126.964 112.574 127.338 112.543C127.79 112.507 128.051 112.506 128.504 112.541C128.88 112.57 129.143 112.823 129.165 113.205C129.581 120.825 129.709 128.528 129.577 136.16C129.562 137.013 128.237 137.012 128.252 136.157C128.383 128.526 128.256 120.822 127.84 113.202C128.06 113.423 128.28 113.644 128.501 113.866C128.086 113.835 127.749 113.835 127.334 113.868C127.556 113.648 127.777 113.428 127.999 113.207C127.29 127.129 127.345 141.356 128.649 155.243C128.428 155.021 128.208 154.8 127.988 154.578C127.993 154.578 127.999 154.578 128.004 154.578C127.782 154.799 127.561 155.019 127.339 155.239C127.911 148.911 128.11 142.509 128.252 136.157C128.271 135.303 129.596 135.305 129.577 136.16Z" fill="black"/>
<path d="M128.005 128.302C130.176 128.307 131.939 126.553 131.945 124.383C131.951 122.213 130.196 120.45 128.026 120.444C125.855 120.438 124.093 122.193 124.088 124.363C124.082 126.533 125.836 128.297 128.006 128.302L128.005 128.302Z" fill="#C6141B"/>
<path d="M130.351 124.379C130.354 123.092 129.31 122.043 128.022 122.039C126.735 122.036 125.685 123.08 125.682 124.368C125.678 125.655 126.723 126.704 128.009 126.708C129.297 126.711 130.347 125.666 130.35 124.379H130.351ZM126.124 124.368C126.126 123.325 126.977 122.478 128.021 122.48C129.064 122.483 129.912 123.334 129.909 124.378C129.906 125.421 129.055 126.268 128.011 126.265C126.968 126.262 126.121 125.411 126.124 124.368V124.368Z" fill="#321F15"/>
<path d="M108.992 83.7856C109.282 84.4555 110.061 84.7641 110.733 84.4728C111.404 84.1823 111.712 83.4029 111.421 82.7321C111.13 82.0605 110.35 81.7519 109.68 82.0424C109.008 82.3337 108.7 83.1131 108.992 83.7847V83.7856Z" fill="#321F15"/>
<path d="M131.127 79.793C131.043 80.5197 131.564 81.1757 132.291 81.2596C133.016 81.3436 133.672 80.8226 133.756 80.0967C133.84 79.37 133.319 78.7132 132.593 78.6301C131.867 78.5469 131.21 79.0671 131.127 79.7938V79.793Z" fill="#321F15"/>
<path d="M152.292 87.4047C151.857 87.9924 151.979 88.8203 152.567 89.2565C153.153 89.6919 153.982 89.5693 154.418 88.9816C154.854 88.394 154.73 87.5644 154.143 87.129C153.556 86.6936 152.727 86.8162 152.291 87.4039L152.292 87.4047Z" fill="#321F15"/>
<path d="M166.817 104.578C166.145 104.868 165.838 105.648 166.128 106.319C166.419 106.99 167.198 107.298 167.869 107.008C168.541 106.718 168.848 105.937 168.557 105.267C168.267 104.595 167.487 104.287 166.817 104.578Z" fill="#321F15"/>
<path d="M170.808 126.714C170.082 126.63 169.426 127.149 169.342 127.878C169.258 128.604 169.779 129.26 170.505 129.344C171.231 129.427 171.888 128.906 171.971 128.18C172.056 127.452 171.535 126.797 170.807 126.714H170.808Z" fill="#321F15"/>
<path d="M163.197 147.879C162.61 147.444 161.781 147.566 161.345 148.154C160.911 148.742 161.033 149.569 161.62 150.005C162.207 150.441 163.036 150.317 163.472 149.73C163.909 149.143 163.785 148.314 163.197 147.879Z" fill="#321F15"/>
<path d="M146.023 162.404C145.732 161.733 144.953 161.424 144.281 161.716C143.611 162.006 143.304 162.785 143.594 163.456C143.884 164.128 144.664 164.434 145.335 164.144C146.006 163.854 146.313 163.075 146.022 162.404H146.023Z" fill="#321F15"/>
<path d="M123.888 166.396C123.972 165.669 123.451 165.013 122.724 164.929C121.998 164.846 121.343 165.366 121.258 166.093C121.174 166.819 121.697 167.475 122.423 167.56C123.149 167.644 123.805 167.122 123.888 166.396Z" fill="#321F15"/>
<path d="M102.723 158.784C103.158 158.197 103.036 157.368 102.448 156.932C101.861 156.498 101.033 156.62 100.596 157.207C100.16 157.795 100.284 158.623 100.872 159.059C101.458 159.495 102.287 159.373 102.723 158.784Z" fill="#321F15"/>
<path d="M88.1978 141.611C88.8694 141.319 89.1772 140.541 88.885 139.869C88.5945 139.199 87.8167 138.892 87.1451 139.182C86.4735 139.473 86.1674 140.252 86.4579 140.924C86.7476 141.594 87.527 141.902 88.1978 141.611Z" fill="#321F15"/>
<path d="M84.2069 119.475C84.9345 119.558 85.5904 119.038 85.6727 118.311C85.7559 117.585 85.2357 116.93 84.5098 116.845C83.7831 116.761 83.1271 117.283 83.0432 118.009C82.9592 118.735 83.4802 119.391 84.2069 119.475V119.475Z" fill="#321F15"/>
<path d="M91.8174 98.3087C92.4067 98.7449 93.233 98.6214 93.6692 98.0338C94.1046 97.447 93.9812 96.619 93.3935 96.1828C92.8067 95.7466 91.9779 95.8709 91.5409 96.4577C91.1055 97.0445 91.229 97.8733 91.8166 98.3087H91.8174Z" fill="#321F15"/>
<g opacity="0.17">
<path opacity="0.49" d="M104.815 80.0663L176.163 126.598C176.544 121.32 176.065 115.926 174.647 110.62L120.032 75.0022C116.044 75.6285 112.069 76.7659 108.192 78.4457C107.037 78.947 105.911 79.4869 104.815 80.0646L104.815 80.0663Z" fill="#626262"/>
<path opacity="0.49" d="M88.4545 94.0892L169.914 147.216C172.956 141.854 174.969 135.946 175.822 129.818L101.997 81.6714C96.6189 84.9783 92.0635 89.2202 88.4545 94.09V94.0892Z" fill="#626262"/>
<path opacity="0.49" d="M82.8719 142.514C84.8522 147.082 87.448 151.194 90.5212 154.791L113.504 169.779C121.292 172.132 129.698 172.554 137.957 170.739L79.8169 132.822C80.4802 136.089 81.4934 139.335 82.8711 142.514H82.8719Z" fill="black"/>
</g>
<path d="M17.7574 131.309C17.7574 131.309 36.0335 183.397 60.2305 197.645C84.4275 211.893 101.901 217.001 106.741 224.796C106.741 224.796 103.499 188.325 68.4246 169.687C33.3496 151.047 17.7574 131.309 17.7574 131.309Z" fill="white"/>
<path d="M57.2766 133.244C57.2766 133.244 133.615 141.84 138.862 199.717C138.862 199.717 123.595 219.959 93.9301 185.28C64.2658 150.601 57.2766 133.244 57.2766 133.244Z" fill="black"/>
<path d="M183.488 49.7743L185.53 39.4058C185.743 38.4469 185.969 37.5795 186.209 36.6067L186.182 36.554L179.282 39.9786L178.354 38.1087L188.072 33.2849L188.765 34.7466L186.749 44.9702C186.576 45.9431 186.363 46.836 186.11 47.7825L186.136 47.8352L193.59 44.1357L194.505 45.9793L184.154 51.1166L183.488 49.7734V49.7743Z" fill="white"/>
<path d="M197.627 39.7423L200.769 23.7912C201.096 22.3155 201.445 20.9814 201.813 19.486L201.773 19.4053L191.158 24.6743L189.73 21.7979L204.68 14.3774L205.746 16.626L202.645 32.3548C202.378 33.8511 202.05 35.2255 201.662 36.6806L201.702 36.7613L213.169 31.0701L214.576 33.9062L198.653 41.8089L197.627 39.7423Z" fill="white"/>
<path d="M221.373 39.023L226.206 14.4836C226.711 12.2137 227.246 10.1611 227.813 7.85991L227.751 7.73563L211.421 15.8408L209.224 11.4154L232.223 0L233.863 3.45918L229.093 27.6562C228.681 29.9582 228.177 32.0725 227.579 34.3112L227.641 34.4354L245.28 25.6801L247.445 30.0429L222.949 42.2007L221.372 39.0222L221.373 39.023Z" fill="white"/>
</svg>
