<svg width="375" height="124" viewBox="0 0 375 124" fill="none" xmlns="http://www.w3.org/2000/svg">
<g clip-path="url(#clip0_1493_13012)">
<path d="M1518 553H-412V-134C-395.345 -132.081 -378.859 -127.055 -362.877 -121.687C-229.638 -76.915 -105.475 -5.35682 0.0337727 87.4736C-6.39355 52.9399 21.5611 19.1578 54.871 7.94953C88.1808 -3.25878 124.741 2.97932 158.64 12.2635C247.208 36.5201 330.129 81.1289 399.157 141.658C389.328 125.547 411.955 108.959 430.508 105.436C530.263 86.4918 628.284 141.703 710.296 201.543C799.56 266.678 882.655 339.823 964.318 414.259C974.49 384.14 1011.36 370.268 1042.85 374.817C1074.33 379.372 1101.87 397.537 1129.08 414.018C1247.6 485.845 1380.82 533.248 1518 553Z" fill="white"/>
</g>
<defs>
<clipPath id="clip0_1493_13012">
<rect width="375" height="124" fill="white"/>
</clipPath>
</defs>
</svg>
