<svg width="25" height="25" viewBox="0 0 25 25" fill="none" xmlns="http://www.w3.org/2000/svg">
<rect width="25" height="25" rx="12.5" transform="matrix(1 0 0 -1 -0.00195312 25)" fill="white"/>
<path d="M6.99832 6.87584C6.99402 7.03214 7.04045 7.18529 7.1299 7.30979C7.21934 7.43429 7.3464 7.52262 7.48992 7.56009C8.64388 7.86818 9.67937 8.54662 10.4542 9.50226C11.229 10.4579 11.7052 11.6438 11.8172 12.8972H11.0928C10.8662 12.8973 10.6447 12.9682 10.456 13.1008C10.2673 13.2335 10.1198 13.4221 10.032 13.6431C9.92787 13.8826 9.89141 14.1489 9.92698 14.4099C9.96255 14.6709 10.0686 14.9155 10.2325 15.1142L13.085 18.5765C13.1919 18.7093 13.3248 18.8159 13.4744 18.889C13.6241 18.9621 13.787 19 13.9518 19C14.1166 19 14.2795 18.9621 14.4292 18.889C14.5788 18.8159 14.7117 18.7093 14.8186 18.5765L17.6776 15.1142C17.8443 14.9129 17.9515 14.6643 17.986 14.3991C18.0205 14.134 17.9807 13.864 17.8716 13.6225C17.7838 13.4016 17.6363 13.213 17.4476 13.0803C17.2589 12.9476 17.0374 12.8768 16.8108 12.8767H16.054C15.9182 11.0181 15.1287 9.28093 13.8415 8.00788C12.5542 6.73483 10.8626 6.01842 9.10054 6C8.5575 6.00101 8.01661 6.07224 7.48992 6.21212C7.3464 6.24958 7.21934 6.33791 7.1299 6.46241C7.04045 6.58691 6.99402 6.74006 6.99832 6.89637L6.99832 6.87584Z" fill="#441500"/>
</svg>
