<svg width="43" height="43" viewBox="0 0 43 43" fill="none" xmlns="http://www.w3.org/2000/svg">
<path d="M15.1344 11L17.3656 7.12811L15.305 4.21436C12.8074 5.10188 10.5324 6.52151 8.63751 8.37498L10.5013 11H15.1344Z" fill="white"/>
<path d="M32.1969 11L33.9031 7.98127C32.0385 6.26208 29.8405 4.94422 27.4456 4.10939L27.0913 4.00439L25.4375 7.06252L27.7212 11H32.1969Z" fill="white"/>
<path d="M33.995 34.9269L32.2231 32H27.6556L25.4375 35.9375L27.275 38.9694L27.4981 38.9037C29.9178 38.0465 32.1309 36.6918 33.995 34.9269Z" fill="white"/>
<path d="M34.0081 21.5L36.2919 25.4375H39.3894C39.5402 24.8362 39.6585 24.2272 39.7437 23.6131C39.7508 23.517 39.7508 23.4205 39.7437 23.3244C39.7437 22.9044 39.7437 22.4844 39.8225 22.0119C39.8225 21.8281 39.8225 21.6312 39.8225 21.4475C39.8225 21.2638 39.8225 21.0669 39.8225 20.8831C39.8225 20.4631 39.8225 20.0431 39.7437 19.5706C39.7508 19.4745 39.7508 19.378 39.7437 19.2819C39.6549 18.7031 39.5366 18.1292 39.3894 17.5625H36.2919L34.0081 21.5Z" fill="white"/>
<path d="M8.99186 21.5L6.70811 17.5625H3.55811C2.98055 20.1557 2.98055 22.8443 3.55811 25.4375H6.70811L8.99186 21.5Z" fill="white"/>
<path d="M10.5013 32L8.62439 34.625C10.5183 36.486 12.793 37.9144 15.2919 38.8119L17.3656 35.885L15.1344 32H10.5013Z" fill="white"/>
<path d="M22.7338 36.62C22.6186 36.4205 22.5579 36.1942 22.5579 35.9638C22.5579 35.7334 22.6186 35.5071 22.7338 35.3075L25.7656 30.0575C25.8813 29.8572 26.0478 29.6911 26.2483 29.5758C26.4488 29.4606 26.6762 29.4004 26.9075 29.4013H32.9713C33.1956 29.4022 33.4159 29.4606 33.6112 29.5709C33.8065 29.6812 33.9703 29.8397 34.0869 30.0313L35.8719 32.945C37.035 31.4681 37.9646 29.8215 38.6281 28.0625H35.5306C35.2994 28.0635 35.0719 28.0032 34.8714 27.888C34.6709 27.7728 34.5044 27.6066 34.3888 27.4063L31.3569 22.1563C31.2417 21.9568 31.181 21.7304 31.181 21.5C31.181 21.2696 31.2417 21.0433 31.3569 20.8438L34.3888 15.5938C34.5044 15.3935 34.6709 15.2273 34.8714 15.1121C35.0719 14.9968 35.2994 14.9366 35.5306 14.9375H38.6281C37.9424 13.1498 36.9814 11.4803 35.78 9.98942L34.1 12.9557C33.9861 13.1584 33.8203 13.3272 33.6196 13.4448C33.419 13.5624 33.1907 13.6246 32.9581 13.625H26.8944C26.6631 13.626 26.4357 13.5657 26.2352 13.4505C26.0347 13.3353 25.8681 13.1691 25.7525 12.9688L22.7206 7.71879C22.6054 7.51927 22.5448 7.29293 22.5448 7.06254C22.5448 6.83215 22.6054 6.60582 22.7206 6.40629L24.4269 3.37442C22.2984 3.03177 20.1265 3.06286 18.0088 3.46629L20.0038 6.28817C20.1494 6.4933 20.233 6.73597 20.2447 6.98728C20.2563 7.23859 20.1955 7.48795 20.0694 7.70567L17.0375 12.9557C16.9219 13.156 16.7554 13.3221 16.5548 13.4374C16.3543 13.5526 16.1269 13.6128 15.8956 13.6119H9.83189C9.62366 13.611 9.41865 13.5605 9.23379 13.4646C9.04893 13.3688 8.88954 13.2303 8.76876 13.0607L6.86564 10.4357C5.82402 11.812 4.98021 13.3273 4.35876 14.9375H7.46939C7.70066 14.9366 7.92808 14.9968 8.1286 15.1121C8.32912 15.2273 8.49563 15.3935 8.61126 15.5938L11.6431 20.8438C11.7583 21.0433 11.819 21.2696 11.819 21.5C11.819 21.7304 11.7583 21.9568 11.6431 22.1563L8.61126 27.4063C8.49563 27.6066 8.32912 27.7728 8.1286 27.888C7.92808 28.0032 7.70066 28.0635 7.46939 28.0625H4.35876C4.97471 29.6727 5.81419 31.1882 6.85251 32.5644L8.76876 29.9394C8.8881 29.7674 9.04687 29.6264 9.23182 29.5282C9.41676 29.43 9.62251 29.3775 9.83189 29.375H15.8956C16.1269 29.3741 16.3543 29.4343 16.5548 29.5496C16.7554 29.6648 16.9219 29.831 17.0375 30.0313L20.0694 35.2813C20.1936 35.5002 20.2522 35.7503 20.2382 36.0016C20.2242 36.2529 20.1383 36.4949 19.9906 36.6988L17.9956 39.5075C19.1487 39.7459 20.3226 39.869 21.5 39.875C22.521 39.8697 23.5397 39.7775 24.545 39.5994L22.7338 36.62ZM18.4681 28.0625C18.2369 28.0635 18.0094 28.0032 17.8089 27.888C17.6084 27.7728 17.4419 27.6066 17.3263 27.4063L14.3075 22.1563C14.1923 21.9568 14.1317 21.7304 14.1317 21.5C14.1317 21.2696 14.1923 21.0433 14.3075 20.8438L17.3263 15.5938C17.4419 15.3935 17.6084 15.2273 17.8089 15.1121C18.0094 14.9968 18.2369 14.9366 18.4681 14.9375H24.5319C24.7632 14.9366 24.9906 14.9968 25.1911 15.1121C25.3916 15.2273 25.5581 15.3935 25.6738 15.5938L28.6925 20.8438C28.8077 21.0433 28.8684 21.2696 28.8684 21.5C28.8684 21.7304 28.8077 21.9568 28.6925 22.1563L25.6738 27.4063C25.5581 27.6066 25.3916 27.7728 25.1911 27.888C24.9906 28.0032 24.7632 28.0635 24.5319 28.0625H18.4681Z" fill="white"/>
<path d="M23.7706 17.5625H19.2294L16.9587 21.5L19.2294 25.4375H23.7706L26.0412 21.5L23.7706 17.5625Z" fill="white"/>
</svg>
