<svg width="223" height="217" viewBox="0 0 223 217" fill="none" xmlns="http://www.w3.org/2000/svg">
<g clip-path="url(#clip0_1490_12887)">
<g clip-path="url(#clip1_1490_12887)">
<path d="M190.772 88.9123L218.502 46.5374" stroke="black" stroke-width="2" stroke-miterlimit="10" stroke-linecap="round"/>
<path d="M194.344 95.6237L196.47 118.371C196.611 119.874 197.159 121.301 198.043 122.52L211.555 140.951C214.72 145.259 213.056 151.393 208.134 153.515L187.152 162.566C185.769 163.156 184.577 164.128 183.694 165.346L170.346 183.894C167.222 188.232 160.873 188.551 157.337 184.528L142.238 167.367C141.243 166.231 139.966 165.396 138.528 164.938L116.758 157.973C111.665 156.35 109.405 150.397 112.13 145.798L123.783 126.14C124.546 124.844 124.96 123.363 124.947 121.858L124.841 99.0081C124.818 93.665 129.764 89.6781 134.985 90.8437L157.284 95.8477C158.748 96.1791 160.281 96.0998 161.716 95.628L183.421 88.4757C188.496 86.7957 193.822 90.2815 194.314 95.6041L194.344 95.6237Z" fill="black"/>
<path d="M163.36 179.265L148.261 162.104C147.29 160.998 146.167 160.036 144.94 159.233C143.713 158.43 142.375 157.797 140.973 157.349L119.203 150.383C119.203 150.383 119.173 150.363 119.163 150.357C119.053 150.285 118.906 150.118 119.027 149.912L130.68 130.254C132.182 127.718 132.971 124.815 132.965 121.863L132.866 99.0023C132.866 99.0023 132.868 98.8469 132.986 98.7533C133.111 98.6497 133.194 98.6755 133.257 98.6882L155.556 103.692C158.438 104.339 161.439 104.194 164.241 103.264L185.937 96.1054C185.937 96.1054 186.082 96.0579 186.212 96.1428C186.341 96.2276 186.352 96.3201 186.356 96.3796L188.485 119.143C188.755 122.084 189.833 124.898 191.58 127.28L205.092 145.711C205.092 145.711 205.179 145.839 205.141 145.985C205.096 146.141 205.017 146.175 204.961 146.195L183.979 155.246C181.268 156.406 178.923 158.291 177.194 160.693L163.846 179.241C163.679 179.474 163.417 179.331 163.417 179.331C163.397 179.318 163.367 179.298 163.343 179.268L163.36 179.265Z" stroke="#F1474E" stroke-width="2" stroke-linecap="round" stroke-linejoin="round"/>
<path d="M140.042 131.95L182.474 134.315" stroke="#F1474E" stroke-miterlimit="10" stroke-linecap="round"/>
<path d="M139.679 125.885L145.357 132.252L139.008 137.927" stroke="#F1474E" stroke-miterlimit="10" stroke-linecap="round"/>
<path d="M145.326 138.286L151.683 132.601L145.997 126.245L149.333 121.147" stroke="#F1474E" stroke-miterlimit="10" stroke-linecap="round"/>
<path d="M138.185 129.737L140.171 131.949L137.959 133.935" stroke="#F1474E" stroke-miterlimit="10" stroke-linecap="round"/>
<path d="M184.297 134.425L141.87 132.05" stroke="#F1474E" stroke-miterlimit="10" stroke-linecap="round"/>
<path d="M185.337 128.438L178.981 134.123L184.666 140.479" stroke="#F1474E" stroke-miterlimit="10" stroke-linecap="round"/>
<path d="M179.012 128.089L172.656 133.774L178.342 140.13L175.006 145.227" stroke="#F1474E" stroke-miterlimit="10" stroke-linecap="round"/>
<path d="M186.386 132.43L184.175 134.416L186.155 136.638" stroke="#F1474E" stroke-miterlimit="10" stroke-linecap="round"/>
<path d="M150.03 151.736L173.302 116.175" stroke="#F1474E" stroke-miterlimit="10" stroke-linecap="round"/>
<path d="M144.597 149.022L152.948 147.277L154.692 155.628" stroke="#F1474E" stroke-miterlimit="10" stroke-linecap="round"/>
<path d="M158.166 150.321L156.421 141.971L148.071 143.715L145.326 138.286" stroke="#F1474E" stroke-miterlimit="10" stroke-linecap="round"/>
<path d="M147.198 152.233L150.102 151.627L150.709 154.531" stroke="#F1474E" stroke-miterlimit="10" stroke-linecap="round"/>
<path d="M174.308 114.638L151.036 150.2" stroke="#F1474E" stroke-miterlimit="10" stroke-linecap="round"/>
<path d="M169.645 110.747L171.389 119.097L179.739 117.353" stroke="#F1474E" stroke-miterlimit="10" stroke-linecap="round"/>
<path d="M166.172 116.054L167.923 124.394L176.267 122.66L179.011 128.089" stroke="#F1474E" stroke-miterlimit="10" stroke-linecap="round"/>
<path d="M173.629 111.844L174.236 114.748L177.14 114.142" stroke="#F1474E" stroke-miterlimit="10" stroke-linecap="round"/>
<path d="M172.161 152.969L153.007 115.032" stroke="#F1474E" stroke-miterlimit="10" stroke-linecap="round"/>
<path d="M167.099 156.309L169.758 148.218L177.865 150.874" stroke="#F1474E" stroke-miterlimit="10" stroke-linecap="round"/>
<path d="M175.005 145.228L166.905 142.562L164.24 150.663L158.166 150.321" stroke="#F1474E" stroke-miterlimit="10" stroke-linecap="round"/>
<path d="M171.177 155.672L172.112 152.851L174.933 153.785" stroke="#F1474E" stroke-miterlimit="10" stroke-linecap="round"/>
<path d="M152.177 113.406L171.338 151.333" stroke="#F1474E" stroke-miterlimit="10" stroke-linecap="round"/>
<path d="M146.481 115.491L154.581 118.157L157.247 110.056" stroke="#F1474E" stroke-miterlimit="10" stroke-linecap="round"/>
<path d="M149.333 121.147L157.433 123.813L160.099 115.712L166.172 116.054" stroke="#F1474E" stroke-miterlimit="10" stroke-linecap="round"/>
<path d="M149.406 112.59L152.234 113.514L153.169 110.693" stroke="#F1474E" stroke-miterlimit="10" stroke-linecap="round"/>
<path d="M167.538 124.983L167.655 130.16L171.752 133.326L167.328 136.015L166.634 141.146L162.093 138.659L157.302 140.624L157.185 135.447L153.088 132.281L157.512 129.592L158.206 124.461L162.747 126.948L167.538 124.983Z" stroke="#F1474E" stroke-miterlimit="10" stroke-linecap="round"/>
<path d="M178.015 111.737C177.558 112.435 176.618 112.631 175.919 112.175C175.221 111.718 175.025 110.777 175.482 110.079C175.938 109.38 176.879 109.184 177.577 109.641C178.276 110.098 178.472 111.038 178.015 111.737Z" stroke="#F1474E" stroke-miterlimit="10" stroke-linecap="round"/>
<path d="M149.211 110.753C149.911 111.211 150.849 111.015 151.307 110.315C151.765 109.615 151.569 108.677 150.869 108.219C150.17 107.761 149.231 107.957 148.774 108.657C148.316 109.357 148.512 110.295 149.211 110.753Z" stroke="#F1474E" stroke-miterlimit="10" stroke-linecap="round"/>
<path d="M134.693 132.938C135.392 133.396 136.331 133.2 136.789 132.5C137.247 131.8 137.051 130.862 136.351 130.404C135.651 129.946 134.713 130.142 134.255 130.842C133.797 131.541 133.993 132.48 134.693 132.938Z" stroke="#F1474E" stroke-miterlimit="10" stroke-linecap="round"/>
<path d="M171.669 129.054C172.369 129.512 173.307 129.316 173.765 128.616C174.223 127.917 174.027 126.978 173.327 126.52C172.628 126.063 171.689 126.259 171.232 126.958C170.774 127.658 170.97 128.596 171.669 129.054Z" stroke="#F1474E" stroke-miterlimit="10" stroke-linecap="round"/>
<path d="M173.009 139.918C172.552 140.616 171.612 140.813 170.913 140.356C170.215 139.899 170.019 138.958 170.476 138.26C170.933 137.562 171.873 137.365 172.572 137.822C173.27 138.279 173.466 139.22 173.009 139.918Z" stroke="#F1474E" stroke-miterlimit="10" stroke-linecap="round"/>
<path d="M162.866 144.706C162.409 145.405 161.468 145.601 160.77 145.144C160.072 144.687 159.875 143.747 160.332 143.048C160.789 142.35 161.73 142.154 162.428 142.611C163.126 143.067 163.323 144.008 162.866 144.706Z" stroke="#F1474E" stroke-miterlimit="10" stroke-linecap="round"/>
<path d="M153.785 136.812C154.323 137.449 154.255 138.402 153.618 138.939C152.982 139.477 152.029 139.409 151.491 138.772C150.953 138.136 151.021 137.183 151.658 136.645C152.295 136.107 153.248 136.175 153.785 136.812Z" stroke="#F1474E" stroke-miterlimit="10" stroke-linecap="round"/>
<path d="M153.805 125.613C154.343 126.25 154.275 127.202 153.638 127.74C153.001 128.278 152.048 128.21 151.51 127.573C150.973 126.936 151.041 125.983 151.677 125.446C152.314 124.908 153.267 124.976 153.805 125.613Z" stroke="#F1474E" stroke-miterlimit="10" stroke-linecap="round"/>
<path d="M163.991 120.496C164.529 121.133 164.461 122.086 163.824 122.624C163.188 123.162 162.235 123.094 161.697 122.457C161.159 121.82 161.227 120.867 161.864 120.329C162.501 119.792 163.454 119.86 163.991 120.496Z" stroke="#F1474E" stroke-miterlimit="10" stroke-linecap="round"/>
<path d="M148.948 156.157C148.491 156.855 147.55 157.051 146.852 156.594C146.154 156.137 145.957 155.197 146.414 154.499C146.871 153.8 147.812 153.604 148.51 154.061C149.208 154.518 149.405 155.458 148.948 156.157Z" stroke="#F1474E" stroke-miterlimit="10" stroke-linecap="round"/>
<path d="M175.234 157.658C174.777 158.356 173.836 158.553 173.138 158.096C172.44 157.639 172.243 156.698 172.7 156C173.157 155.302 174.098 155.105 174.796 155.562C175.494 156.019 175.691 156.96 175.234 157.658Z" stroke="#F1474E" stroke-miterlimit="10" stroke-linecap="round"/>
<path d="M189.915 135.224C189.458 135.922 188.517 136.119 187.819 135.662C187.12 135.205 186.924 134.264 187.381 133.566C187.838 132.867 188.779 132.671 189.477 133.128C190.175 133.585 190.372 134.525 189.915 135.224Z" stroke="#F1474E" stroke-miterlimit="10" stroke-linecap="round"/>
<path d="M201.506 61.1453C202.247 64.7364 198.213 77.8679 198.213 77.8679C198.213 77.8679 189.259 67.4496 188.501 63.8619C187.743 60.2742 190.048 56.7529 193.645 56.0014C197.243 55.2498 200.748 57.5576 201.506 61.1453Z" stroke="black" stroke-width="2" stroke-miterlimit="10" stroke-linecap="round"/>
<path d="M211.91 67.9538C208.312 68.7054 197.904 77.6656 197.904 77.6656C197.904 77.6656 211.035 81.6998 214.626 80.9582C218.217 80.2167 220.512 76.6889 219.77 73.0977C219.022 69.5166 215.501 67.2123 211.91 67.9538Z" stroke="black" stroke-width="2" stroke-miterlimit="10" stroke-linecap="round"/>
<path d="M205.474 91.3955C202.279 90.8144 199.774 88.3064 199.208 85.1006L197.904 77.6655L190.289 83.4243C187.559 85.4845 183.713 85.0908 181.456 82.531" stroke="black" stroke-width="2" stroke-miterlimit="10" stroke-linecap="round"/>
</g>
<path d="M140.912 126.657C151.016 164.689 128.355 203.724 90.3237 213.828C52.2751 223.937 13.2566 201.272 3.15243 163.24C-6.95624 125.192 15.7087 86.173 53.7404 76.0688C91.789 65.9602 130.808 88.6251 140.912 126.657Z" fill="white"/>
<path d="M69.2445 63.9894C68.5026 61.2214 65.6302 59.5491 62.8622 60.2911L56.4148 62.0193C56.779 60.7458 56.8492 59.3883 56.4873 58.038C55.4467 54.1561 51.4783 51.8369 47.575 52.8651C43.693 53.9057 41.3784 57.891 42.4189 61.773C42.7809 63.1232 43.5039 64.2681 44.4517 65.1719L38.0043 66.9001C35.2318 67.6252 33.555 70.4807 34.297 73.2487L37.584 85.6462C37.6337 85.8318 37.7173 86.0084 37.7839 86.1896C37.8337 86.3752 37.8328 86.5744 37.8871 86.777C38.8417 90.3382 42.4846 92.4552 46.0458 91.5006C48.1218 90.9441 49.6822 89.4766 50.452 87.624L51.2959 87.3978C52.889 88.617 54.9788 89.1242 57.0548 88.5677C59.1308 88.0112 60.6866 86.5268 61.4609 84.6911L62.3048 84.4649C63.8811 85.6886 65.9708 86.1958 68.0514 85.6562C71.6126 84.7016 73.7296 81.0587 72.7795 77.5143C72.7524 77.4131 72.7084 77.3163 72.6598 77.2027C72.6381 76.9191 72.5994 76.64 72.527 76.3699L69.24 63.9725L69.2445 63.9894ZM48.706 57.0846C50.2588 56.6684 51.8808 57.5904 52.2847 59.1646C52.7055 60.7342 51.762 62.3439 50.2048 62.7433C48.6351 63.164 47.0299 62.2375 46.6261 60.6633C46.2098 59.1105 47.1319 57.4885 48.706 57.0846Z" fill="white"/>
<path d="M56.7018 15.5761C50.5709 13.9632 46.0655 23.7459 44.4794 27.952C42.3537 33.5872 42.7747 39.6795 44.0103 45.5714C40.1751 40.1049 35.4313 35.2981 29.6569 31.7082C26.1659 29.5505 18.4651 27.3453 15.9288 32.2584C7.72144 48.2073 33.5833 54.5896 45.9404 54.9316C46.175 55.2667 46.5434 55.4936 46.9644 55.5797C47.7057 56.0504 48.8958 55.4962 49.1422 54.5256C49.2962 54.3577 49.4074 54.1651 49.4544 53.9354C55.5662 46.906 60.784 39.646 63.1517 30.5268C64.5125 25.2776 62.7393 17.1779 56.7063 15.593L56.7018 15.5761ZM17.612 36.0404C18.1349 26.1132 32.2831 37.1189 34.2574 38.8148C38.5754 42.5056 41.9818 47.1825 44.7144 52.1124C34.0536 51.8223 16.9791 47.9871 17.612 36.0404ZM57.6158 37.2751C55.6458 42.3439 51.9776 46.7464 48.3305 50.8899C46.8523 45.4428 45.7433 40.0234 46.1039 34.2825C46.2791 31.3591 51.9166 13.5844 58.1997 19.6792C63.0909 24.4285 59.6553 32.061 57.6158 37.2751Z" fill="white"/>
<path d="M47.7239 55.3763L33.5586 2.53149" stroke="white" stroke-width="2" stroke-miterlimit="10" stroke-linecap="round"/>
<path d="M29.3984 119.427L47.4953 186.938L113.319 169.294L95.2224 101.782L29.3984 119.427ZM75.3993 164.875L66.1938 169.228L57.5267 136.895L54.9437 138.142L63.6108 170.475L54.341 174.789L43.6909 135.058L64.7492 125.144L75.3993 164.875ZM99.0407 153.714L89.8351 158.067L85.2312 140.891L82.6482 142.138L87.2521 159.313L78.0466 163.666L67.3826 123.884L76.5882 119.531L80.5403 134.275L83.1233 133.028L79.185 118.335L88.3906 113.983L99.0407 153.714Z" fill="#ED1C24"/>
<path opacity="0.2" d="M102.997 80.7753C112.727 89.6729 120.126 101.348 123.757 115.028C133.861 153.06 111.2 192.095 73.1688 202.2C56.0455 206.753 38.7245 204.63 23.9295 197.489C41.2491 213.307 65.9851 220.28 90.3412 213.824C128.394 203.732 151.038 164.701 140.929 126.652C135.379 105.744 121.069 89.4808 103.009 80.7539L102.997 80.7753Z" fill="#2F2B4F"/>
</g>
<defs>
<clipPath id="clip0_1490_12887">
<rect width="223" height="217" fill="white"/>
</clipPath>
<clipPath id="clip1_1490_12887">
<rect width="102.297" height="150.459" fill="white" transform="translate(176.49 17.6206) rotate(33.2006)"/>
</clipPath>
</defs>
</svg>
