<svg width="23" height="23" viewBox="0 0 23 23" fill="none" xmlns="http://www.w3.org/2000/svg">
<path d="M16.2923 8.62533H8.62565V6.70866C8.62565 5.94199 8.91315 5.27116 9.48815 4.69616C10.6382 3.54616 12.459 3.54616 13.5132 4.69616C13.8965 5.07949 14.0882 5.55866 14.2798 6.03783C14.3757 6.51699 14.9507 6.80449 15.4298 6.70866C15.909 6.61283 16.2923 6.03783 16.1006 5.55866C15.909 4.69616 15.4298 3.92949 14.8548 3.35449C13.9923 2.39616 12.7465 1.91699 11.5007 1.91699C8.81732 1.91699 6.70898 4.02533 6.70898 6.70866V8.62533C5.07982 8.62533 3.83398 9.87116 3.83398 11.5003V18.2087C3.83398 19.8378 5.07982 21.0837 6.70898 21.0837H16.2923C17.9215 21.0837 19.1673 19.8378 19.1673 18.2087V11.5003C19.1673 9.87116 17.9215 8.62533 16.2923 8.62533Z" fill="white"/>
</svg>
