<svg preserveAspectRatio="none" width="100%" height="100%" overflow="visible" style="display: block;" viewBox="0 0 122 64.3424" fill="none" xmlns="http://www.w3.org/2000/svg">
<g id="Group 2136140427">
<g id="Raiffeisen">
<path d="M2.93002 16.3046V21.0019H0.000152588V7.65744H4.342C5.87165 7.65744 7.08948 8.04295 7.99551 8.81396C8.90153 9.58497 9.35454 10.6169 9.35454 11.9099C9.35454 12.7165 9.14274 13.44 8.71915 14.0806C8.30732 14.7211 7.72488 15.2193 6.97182 15.5751L10.0252 19.6141V21.0019H7.50131L4.11255 16.3046H2.93002ZM2.87707 10.1662V13.9204H4.32435C4.97151 13.9204 5.48335 13.7425 5.85988 13.3867C6.23641 13.0189 6.42467 12.5385 6.42467 11.9455C6.42467 11.4235 6.23641 10.9965 5.85988 10.6644C5.49512 10.3323 4.98328 10.1662 4.32435 10.1662H2.87707Z" fill="var(--fill-0, #2B2D33)"/>
<path d="M13.7077 21.2688C12.7311 21.2688 12.0015 20.99 11.5191 20.4325C11.0249 19.8869 10.7778 19.2345 10.7778 18.4753C10.7778 17.5976 11.0955 16.9155 11.7309 16.4292C12.3781 15.931 13.337 15.6819 14.6078 15.6819C14.8785 15.6819 15.1491 15.6997 15.4197 15.7353C15.7021 15.759 15.9139 15.7827 16.0551 15.8064L16.2669 15.8598V15.4684C16.2669 14.472 15.7786 13.9738 14.802 13.9738C14.5902 13.9738 14.3902 14.0035 14.2019 14.0628C14.0254 14.1102 13.8842 14.1755 13.7783 14.2585C13.6724 14.3415 13.5783 14.4246 13.4959 14.5076C13.4135 14.5906 13.3606 14.6559 13.337 14.7033L13.2841 14.7923H11.272V13.6002L11.2897 13.5824C11.6309 12.8707 12.2486 12.3547 13.1429 12.0344C13.6489 11.8446 14.2195 11.7497 14.8549 11.7497C16.1963 11.7497 17.2082 12.0759 17.8907 12.7283C18.5849 13.3689 18.932 14.3119 18.932 15.5574V21.0019H16.5317L16.3552 19.8632C15.7904 20.8002 14.9079 21.2688 13.7077 21.2688ZM14.5725 19.2048C15.1491 19.2048 15.5786 19.0388 15.861 18.7066C16.1316 18.3745 16.2669 18.0542 16.2669 17.7458V17.3544C15.8551 17.2595 15.3609 17.2121 14.7843 17.2121C13.8665 17.2121 13.4076 17.5501 13.4076 18.2262C13.4076 18.8786 13.7959 19.2048 14.5725 19.2048Z" fill="var(--fill-0, #2B2D33)"/>
<path d="M23.4112 10.3263H20.6578V7.83537H23.4112V10.3263ZM23.3759 21.0019H20.7284V12.0166H23.3759V21.0019Z" fill="var(--fill-0, #2B2D33)"/>
<path d="M28.7824 21.0019H26.1173V14.2051H24.6171V12.0166H26.1173V11.0202C26.1173 9.94083 26.435 9.08085 27.0704 8.44032C27.7175 7.79978 28.6 7.47952 29.7178 7.47952C31.2004 7.47952 32.1359 8.01923 32.5242 9.09864V10.3085H30.5474C30.5474 10.1899 30.4827 10.0713 30.3532 9.95269C30.2238 9.82221 30.0179 9.75697 29.7355 9.75697C29.1001 9.75697 28.7824 10.1721 28.7824 11.0024V12.0166H31.624V14.2051H28.7824V21.0019Z" fill="var(--fill-0, #2B2D33)"/>
<path d="M36.1684 21.0019H33.5033V14.2051H32.0031V12.0166H33.5033V11.0202C33.5033 9.94083 33.821 9.08085 34.4564 8.44032C35.1036 7.79978 35.986 7.47952 37.1039 7.47952C38.5864 7.47952 39.5219 8.01923 39.9102 9.09864V10.3085H37.9334C37.9334 10.1899 37.8687 10.0713 37.7393 9.95269C37.6098 9.82221 37.4039 9.75697 37.1215 9.75697C36.4861 9.75697 36.1684 10.1721 36.1684 11.0024V12.0166H39.01V14.2051H36.1684V21.0019Z" fill="var(--fill-0, #2B2D33)"/>
<path d="M44.125 21.2688C42.5836 21.2688 41.3952 20.8299 40.5598 19.9521C39.7361 19.0744 39.3243 17.9356 39.3243 16.5359C39.3243 15.1718 39.742 14.0331 40.5774 13.1198C41.4246 12.2064 42.5719 11.7497 44.0191 11.7497C45.4664 11.7497 46.5489 12.1412 47.2667 12.924C47.9845 13.6951 48.3433 14.7152 48.3433 15.9844C48.3433 16.1742 48.3316 16.364 48.308 16.5537C48.2963 16.7435 48.2786 16.8859 48.2551 16.9808L48.2198 17.1231H42.0071C42.0894 17.7399 42.313 18.2262 42.6778 18.5821C43.0543 18.9379 43.5544 19.1159 44.178 19.1159C44.4721 19.1159 44.7369 19.0921 44.9722 19.0447C45.2193 18.9854 45.4076 18.9142 45.537 18.8312C45.6664 18.7482 45.7723 18.6651 45.8547 18.5821C45.9488 18.4991 46.0077 18.4279 46.0312 18.3686L46.0842 18.2974H48.1668V19.4895C48.1433 19.537 48.1021 19.6022 48.0433 19.6852C47.9962 19.7683 47.8668 19.9106 47.655 20.1123C47.4432 20.3139 47.1961 20.4918 46.9137 20.646C46.6431 20.8002 46.2548 20.9426 45.7488 21.0731C45.2546 21.2035 44.7134 21.2688 44.125 21.2688ZM42.06 15.504H45.7841C45.7841 15.0414 45.6311 14.6559 45.3252 14.3475C45.0193 14.0391 44.578 13.8848 44.0015 13.8848C42.9543 13.8848 42.3071 14.4246 42.06 15.504Z" fill="var(--fill-0, #2B2D33)"/>
<path d="M52.4382 10.3263H49.6849V7.83537H52.4382V10.3263ZM52.4029 21.0019H49.7555V12.0166H52.4029V21.0019Z" fill="var(--fill-0, #2B2D33)"/>
<path d="M57.7388 21.2688C56.6681 21.2688 55.7856 21.0731 55.0913 20.6816C54.4089 20.2783 54.0029 19.881 53.8735 19.4895V18.2796H55.8679C55.9032 18.4694 56.0974 18.6888 56.4504 18.9379C56.8034 19.187 57.2446 19.3116 57.7741 19.3116C58.6919 19.3116 59.1508 19.0269 59.1508 18.4575C59.1508 18.1847 59.039 17.9831 58.8154 17.8526C58.5919 17.7221 58.2507 17.6154 57.7918 17.5323L56.6622 17.39C54.8854 17.1528 53.9971 16.2572 53.9971 14.7033C53.9971 13.8374 54.3265 13.1316 54.9854 12.586C55.6444 12.0285 56.5269 11.7497 57.6329 11.7497C58.5978 11.7497 59.3744 11.9099 59.9627 12.2301C60.551 12.5504 60.9452 12.9596 61.1452 13.4578V14.6677H59.1331C59.0861 14.4779 58.9331 14.2704 58.6742 14.045C58.4154 13.8196 58.0506 13.7069 57.58 13.7069C56.7798 13.7069 56.3798 13.9916 56.3798 14.561C56.3798 15.0117 56.7563 15.3023 57.5094 15.4328L58.639 15.5929C60.5687 15.8539 61.5335 16.7317 61.5335 18.2262C61.5335 19.1277 61.1923 19.8632 60.5098 20.4325C59.8391 20.99 58.9155 21.2688 57.7388 21.2688Z" fill="var(--fill-0, #2B2D33)"/>
<path d="M67.2311 21.2688C65.6897 21.2688 64.5013 20.8299 63.6658 19.9521C62.8422 19.0744 62.4303 17.9356 62.4303 16.5359C62.4303 15.1718 62.8481 14.0331 63.6835 13.1198C64.5307 12.2064 65.6779 11.7497 67.1252 11.7497C68.5725 11.7497 69.655 12.1412 70.3728 12.924C71.0905 13.6951 71.4494 14.7152 71.4494 15.9844C71.4494 16.1742 71.4376 16.364 71.4141 16.5537C71.4023 16.7435 71.3847 16.8859 71.3611 16.9808L71.3258 17.1231H65.1131C65.1955 17.7399 65.419 18.2262 65.7838 18.5821C66.1603 18.9379 66.6604 19.1159 67.284 19.1159C67.5782 19.1159 67.8429 19.0921 68.0783 19.0447C68.3254 18.9854 68.5136 18.9142 68.6431 18.8312C68.7725 18.7482 68.8784 18.6651 68.9608 18.5821C69.0549 18.4991 69.1137 18.4279 69.1373 18.3686L69.1902 18.2974H71.2729V19.4895C71.2494 19.537 71.2082 19.6022 71.1493 19.6852C71.1023 19.7683 70.9728 19.9106 70.761 20.1123C70.5492 20.3139 70.3022 20.4918 70.0198 20.646C69.7491 20.8002 69.3608 20.9426 68.8549 21.0731C68.3607 21.2035 67.8194 21.2688 67.2311 21.2688ZM65.1661 15.504H68.8902C68.8902 15.0414 68.7372 14.6559 68.4313 14.3475C68.1253 14.0391 67.6841 13.8848 67.1075 13.8848C66.0603 13.8848 65.4132 14.4246 65.1661 15.504Z" fill="var(--fill-0, #2B2D33)"/>
<path d="M75.5266 21.0019H72.8615V12.0166H75.3501L75.4737 13.2087C75.6972 12.8173 76.0385 12.4792 76.4974 12.1946C76.9563 11.898 77.5034 11.7497 78.1388 11.7497C79.2331 11.7497 80.0391 12.0937 80.5568 12.7817C81.0745 13.4697 81.3334 14.3475 81.3334 15.415V21.0019H78.6859V15.9132C78.6859 14.7389 78.1976 14.1517 77.221 14.1517C76.5856 14.1517 76.1444 14.3415 75.8973 14.7211C75.6502 15.0888 75.5266 15.498 75.5266 15.9488V21.0019Z" fill="var(--fill-0, #2B2D33)"/>
</g>
<g id="TIME">
<path d="M19.6211 64.3424H11.0746V32.9868H0.056781V25.7271H30.6904V32.9868H19.6211V64.3424Z" fill="var(--fill-0, #2B2D33)"/>
<path d="M43.4467 64.3424H34.9002V25.7271H43.4467V64.3424Z" fill="var(--fill-0, #2B2D33)"/>
<path d="M73.2091 56.1559H67.4943L58.8962 37.981V64.3424H50.8646V25.7271H61.3675L70.7378 45.3952L79.9022 25.7271H90.3537V64.3424H81.8586V37.981L73.2091 56.1559Z" fill="var(--fill-0, #2B2D33)"/>
<path d="M122 64.3424H97.7502V25.7271H122V32.9868H106.297V41.1732H120.198V47.8665H106.297V57.0827H122V64.3424Z" fill="var(--fill-0, #2B2D33)"/>
</g>
<g id="26">
<path d="M105.134 16.7851V20.913H91.7259V17.1951L97.7212 11.0716C99.3927 9.39496 100.228 7.78208 100.228 6.23299C100.228 5.48577 100.01 4.90258 99.5743 4.48342C99.1383 4.06425 98.5842 3.85467 97.912 3.85467C97.4215 3.85467 96.9945 3.96401 96.6312 4.18271C96.2678 4.40141 95.9862 4.67478 95.7864 5.00282C95.6047 5.31264 95.4593 5.60423 95.3503 5.8776C95.2595 6.13275 95.205 6.36967 95.1868 6.58836H91.6169V4.53809C91.6896 4.13715 91.8621 3.70887 92.1347 3.25325C92.4072 2.77941 92.7796 2.28734 93.252 1.77705C93.7425 1.26676 94.4238 0.847597 95.2958 0.519553C96.1679 0.173284 97.1399 0.000149846 98.2118 0.000149846C100.119 0.000149846 101.682 0.519553 102.899 1.55836C104.116 2.57894 104.725 3.94579 104.725 5.65891C104.725 7.09866 104.434 8.33793 103.853 9.37674C103.29 10.4155 102.272 11.7095 100.801 13.2586L97.5305 16.7851H105.134Z" fill="var(--fill-0, #2B2D33)"/>
<path d="M114.424 21.2683C112.099 21.2683 110.255 20.594 108.892 19.2454C107.548 17.8968 106.875 16.2292 106.875 14.2427C106.875 12.6025 107.221 11.0807 107.911 9.67745C108.601 8.27415 109.846 6.46079 111.644 4.23738L114.996 0.136835H118.73V1.99575L116.686 4.42874C116.25 4.93903 115.687 5.58601 114.996 6.36967C114.324 7.13511 113.952 7.56339 113.879 7.65451C114.315 7.47226 114.733 7.38114 115.133 7.38114C117.258 7.45404 118.93 8.11012 120.147 9.3494C121.382 10.5887 122 12.1833 122 14.1334C122 16.1745 121.31 17.8785 119.929 19.2454C118.548 20.594 116.713 21.2683 114.424 21.2683ZM114.451 17.4138C115.414 17.4138 116.177 17.1131 116.74 16.5117C117.322 15.8921 117.613 15.1266 117.613 14.2154C117.613 13.2859 117.331 12.5205 116.768 11.9191C116.205 11.2994 115.423 10.9896 114.424 10.9896C113.443 10.9896 112.671 11.2994 112.108 11.9191C111.544 12.5205 111.263 13.2859 111.263 14.2154C111.263 15.1448 111.544 15.9103 112.108 16.5117C112.671 17.1131 113.452 17.4138 114.451 17.4138Z" fill="var(--fill-0, #2B2D33)"/>
</g>
</g>
</svg>
