<svg width="25" height="25" viewBox="0 0 25 25" fill="none" xmlns="http://www.w3.org/2000/svg">
<path fill-rule="evenodd" clip-rule="evenodd" d="M18.8371 1.08709C19.2032 0.720971 19.7968 0.720971 20.1629 1.08709L23.9129 4.83709C24.279 5.2032 24.279 5.7968 23.9129 6.16291L12.6629 17.4129C12.4871 17.5887 12.2486 17.6875 12 17.6875H8.25C7.73223 17.6875 7.3125 17.2678 7.3125 16.75V13C7.3125 12.7514 7.41127 12.5129 7.58709 12.3371L18.8371 1.08709ZM9.1875 13.3883V15.8125H11.6117L21.9242 5.5L19.5 3.07582L9.1875 13.3883Z" fill="white"/>
<path fill-rule="evenodd" clip-rule="evenodd" d="M16.0246 3.89959C16.3907 3.53347 16.9843 3.53347 17.3504 3.89959L21.1004 7.64959C21.4665 8.0157 21.4665 8.6093 21.1004 8.97541C20.7343 9.34153 20.1407 9.34153 19.7746 8.97541L16.0246 5.22541C15.6585 4.8593 15.6585 4.2657 16.0246 3.89959Z" fill="white"/>
<path fill-rule="evenodd" clip-rule="evenodd" d="M1.29917 2.29918C1.65081 1.94754 2.12772 1.75 2.625 1.75H12.9375C13.4553 1.75 13.875 2.16973 13.875 2.6875C13.875 3.20527 13.4553 3.625 12.9375 3.625L2.625 3.625L2.625 22.375H21.375V12.0625C21.375 11.5447 21.7947 11.125 22.3125 11.125C22.8303 11.125 23.25 11.5447 23.25 12.0625V22.375C23.25 22.8723 23.0525 23.3492 22.7008 23.7008C22.3492 24.0525 21.8723 24.25 21.375 24.25H2.625C2.12772 24.25 1.65081 24.0525 1.29917 23.7008C0.947544 23.3492 0.75 22.8723 0.75 22.375V3.625C0.75 3.12772 0.947545 2.65081 1.29917 2.29918Z" fill="white"/>
</svg>
