<svg width="53" height="48" viewBox="0 0 53 48" fill="none" xmlns="http://www.w3.org/2000/svg">
<path d="M49.2143 5.67857H29.1879L24.7964 1.15464C24.4452 0.791243 24.0247 0.501856 23.5598 0.303549C23.0949 0.105242 22.5951 0.00203051 22.0896 0H11.3571C10.3531 0 9.3902 0.398851 8.68024 1.10881C7.97028 1.81877 7.57143 2.78168 7.57143 3.78571V7.57143H3.78571C2.78168 7.57143 1.81877 7.97028 1.10881 8.68024C0.398851 9.3902 0 10.3531 0 11.3571V43.5357C0 44.5397 0.398851 45.5027 1.10881 46.2126C1.81877 46.9226 2.78168 47.3214 3.78571 47.3214H41.6429C42.6469 47.3214 43.6098 46.9226 44.3198 46.2126C45.0297 45.5027 45.4286 44.5397 45.4286 43.5357V39.75H49.2143C50.2183 39.75 51.1812 39.3512 51.8912 38.6412C52.6012 37.9312 53 36.9683 53 35.9643V9.46429C53 8.46025 52.6012 7.49734 51.8912 6.78738C51.1812 6.07742 50.2183 5.67857 49.2143 5.67857ZM3.78571 43.5357V11.3571H14.4993L18.9286 15.8811C19.2798 16.2445 19.7003 16.5339 20.1652 16.7322C20.6301 16.9305 21.1299 17.0337 21.6354 17.0357H41.6429V37.8571V43.5357H3.78571ZM49.2143 35.9643H45.4286V17.0357C45.4286 16.0317 45.0297 15.0688 44.3198 14.3588C43.6098 13.6489 42.6469 13.25 41.6429 13.25H21.6164L17.225 8.72607C16.8715 8.36038 16.448 8.06967 15.9797 7.87129C15.5114 7.67291 15.0079 7.57093 14.4993 7.57143H11.3571V3.78571H22.0896L26.5 8.30964C26.8513 8.67304 27.2717 8.96243 27.7366 9.16074C28.2015 9.35904 28.7014 9.46226 29.2068 9.46429H49.2143V35.9643ZM18.9286 37.8571C18.9286 38.3592 18.7291 38.8406 18.3742 39.1956C18.0192 39.5506 17.5377 39.75 17.0357 39.75H9.46429C8.96227 39.75 8.48081 39.5506 8.12583 39.1956C7.77085 38.8406 7.57143 38.3592 7.57143 37.8571C7.57143 37.3551 7.77085 36.8737 8.12583 36.5187C8.48081 36.1637 8.96227 35.9643 9.46429 35.9643H17.0357C17.5377 35.9643 18.0192 36.1637 18.3742 36.5187C18.7291 36.8737 18.9286 37.3551 18.9286 37.8571Z" fill="white"/>
</svg>
