<svg width="1440" height="149" viewBox="0 0 1440 149" fill="none" xmlns="http://www.w3.org/2000/svg">
<path d="M1726.88 38.9871C1713.15 44.467 1699.71 49.7863 1687.55 53.8411C1625.99 74.3604 1614.36 39.4776 1607.86 24.7721C1600 6.30475 1567.51 5.96277 1492.27 38.1097C1467.64 48.7113 1448.49 55.5511 1434.13 57.945C1421.47 59.9969 1401.98 60.6809 1388.3 50.7632C1371.54 38.4517 1377.01 15.8804 1354.44 12.4605C1329.82 8.69867 1287.07 26.8241 1253.21 40.1616C1217.98 54.1831 1201.57 62.0489 1175.58 57.945C1149.58 53.8411 1145.82 31.9539 1141.72 24.4301C1136.25 14.1705 1124.28 5.27879 1077.42 19.6423C1023.39 36.3997 994.316 54.5251 964.562 58.629C921.812 64.1008 913.604 42.5555 908.132 30.9279C901.976 17.2484 893.426 0.832937 830.156 22.7202C767.57 44.6074 750.47 58.971 717.98 59.313C660.524 59.6549 685.49 16.2224 650.948 12.8025C622.22 10.0666 591.44 23.4042 555.53 38.1097C540.374 44.9108 524.708 50.5138 508.676 54.8671C457.034 67.8627 444.722 45.6334 437.54 29.902C436.172 26.8241 433.436 18.6163 426.596 15.1964C412.574 8.35668 383.162 11.7766 361.274 21.6942C334.598 33.6638 298.346 59.9969 272.012 62.0489C254.57 63.4168 248.756 55.8931 247.73 49.3953C247.432 46.3286 248.026 43.241 249.44 40.5036C251.492 36.0577 254.57 27.85 248.756 20.6683C241.574 11.4346 216.95 13.1445 216.95 13.1445C166.676 15.5384 145.13 31.6119 107.51 49.0533C83.57 59.9969 66.47 63.4168 53.474 60.6809C49.4279 59.6813 45.6016 57.9421 42.188 55.5511C37.4 51.7892 31.586 43.9235 35.348 35.3738C36.9595 31.6628 39.5629 28.4679 42.872 26.1401C44.5265 24.7135 46.0177 23.1077 47.318 21.3522C52.106 14.8545 50.054 3.91083 37.4 0.832938C25.9543 -1.09083 14.1966 0.334305 3.542 4.9368C-9.112 10.4086 -19.372 15.5384 -31 21.3522V148.399H1726.88V38.9871Z" fill="#F9F4EC"/>
</svg>
