<svg width="794" height="255" viewBox="0 0 794 255" fill="none" xmlns="http://www.w3.org/2000/svg">
<g opacity="0.5" clip-path="url(#clip0_514_1272)">
<path d="M762.82 16.9127C762.748 14.4217 765.63 12.3477 767.969 13.2057C768.493 13.3981 768.967 13.7001 769.435 13.9995C771.151 15.0979 772.865 16.1964 774.581 17.2949C775.99 18.1982 777.41 19.1069 778.616 20.2669C779.699 21.3066 780.637 22.675 780.56 24.1743C780.458 26.1521 778.688 27.5793 777.076 28.7313C775.52 29.8458 773.964 30.9576 772.408 32.0721C771.007 33.0743 769.52 34.1087 767.809 34.2851C766.095 34.4588 764.13 33.4165 763.935 31.7059C763.753 30.121 765.058 28.8061 765.71 27.3468C767.665 22.9743 762.935 20.8201 762.823 16.91L762.82 16.9127Z" fill="#EBEBEB"/>
<path d="M774.91 14.2187C774.956 14.6436 775.1 15.0712 775.381 15.392C775.688 15.7448 776.129 15.9479 776.576 16.0842C777.985 16.5172 779.562 16.3702 780.867 15.6833C781.223 15.4962 781.554 15.2744 781.88 15.0392C782.137 14.8548 782.391 14.665 782.602 14.4298C784.322 12.5322 782.354 9.58958 780.068 9.58157C777.699 9.57355 774.63 11.5994 774.91 14.216V14.2187Z" fill="#EBEBEB"/>
<path d="M783.693 19.0107C782.985 19.695 782.439 20.7747 782.905 21.6433C783.044 21.9053 783.263 22.1164 783.487 22.3115C784.501 23.1988 785.731 23.8857 787.067 24.0434C788.404 24.2011 789.851 23.7654 790.717 22.7365C792.078 21.1248 791.343 18.6633 789.554 17.6878C787.781 16.7229 785.025 17.7225 783.691 19.0081L783.693 19.0107Z" fill="#EBEBEB"/>
<path d="M787.201 26.2671C786.329 25.9544 785.399 25.7432 784.479 25.8475C783.56 25.9517 782.645 26.406 782.15 27.1891C781.527 28.1754 781.688 29.5224 782.33 30.4952C782.971 31.4708 784.017 32.1149 785.108 32.5318C786.853 33.1973 790.185 33.2294 790.514 30.693C790.792 28.5549 788.995 26.9085 787.201 26.2644V26.2671Z" fill="#EBEBEB"/>
<path d="M782.156 37.8317C781.487 38.2273 780.68 38.3315 779.904 38.278C778.06 38.1551 776.209 37.1208 775.21 35.5492C774.263 34.0579 774.624 31.7193 776.602 31.2997C779.156 30.7571 786 35.5653 782.156 37.8317Z" fill="#EBEBEB"/>
<path d="M721.335 40.5872C722.833 41.1912 724.03 42.3431 725.383 43.2251C727.076 44.3289 729.038 45.0265 730.578 46.3361C732.116 47.6484 733.148 49.9202 732.196 51.7029C731.87 52.3149 731.348 52.796 730.838 53.2637C728.95 54.9929 727.065 56.7248 725.177 58.454C723.135 60.3276 720.092 61.6666 717.846 59.1997C716.18 57.3689 717.255 54.4236 718.036 52.4539C718.531 51.2057 718.827 49.6609 717.985 48.6159C717.67 48.2257 717.234 47.9558 716.86 47.6217C713.496 44.5962 717.106 38.8767 721.338 40.5845L721.335 40.5872Z" fill="#EBEBEB"/>
<path d="M727.865 38.2567C727.135 39.0157 726.517 40.0982 726.891 41.0844C727.113 41.667 727.637 42.0786 728.175 42.394C730.926 44.0083 737.639 44.1018 736.696 39.2723C735.928 35.3381 729.955 36.0865 727.865 38.2567Z" fill="#EBEBEB"/>
<path d="M739.698 43.4631C738.233 43.9148 736.982 45.2404 736.947 46.7719C736.939 47.0498 736.974 47.3358 737.094 47.587C737.281 47.9773 737.655 48.2419 738.032 48.461C739.479 49.3029 741.179 49.7038 742.85 49.5942C743.874 49.5274 744.925 49.2548 745.7 48.5813C746.476 47.9104 746.909 46.7772 746.545 45.8177C745.553 43.2012 742.064 42.7335 739.701 43.4631H739.698Z" fill="#EBEBEB"/>
<path d="M741.671 51.4302C740.374 50.9812 738.92 50.7995 737.645 51.31C736.372 51.8205 735.372 53.1648 735.594 54.5172C735.786 55.6932 736.778 56.5564 737.757 57.2326C739.016 58.1039 740.447 58.8656 741.979 58.8416C743.511 58.8202 745.115 57.7645 745.281 56.2437C745.58 53.5069 744.094 52.2668 741.671 51.4276V51.4302Z" fill="#EBEBEB"/>
<path d="M730.808 57.8928C729.797 57.9436 728.755 58.3578 728.193 59.1997C726.054 62.4149 731.565 64.7749 733.995 64.6119C736.899 64.4194 737.816 61.5437 735.848 59.5017C734.658 58.267 732.468 57.8099 730.808 57.8901V57.8928Z" fill="#EBEBEB"/>
<path d="M681.909 12.9277C681.388 10.4902 683.845 7.92981 686.302 8.34942C686.85 8.44296 687.372 8.6541 687.888 8.86524C689.773 9.63497 691.66 10.4047 693.545 11.1744C695.096 11.8079 696.657 12.444 698.053 13.3687C699.304 14.1972 700.475 15.3705 700.671 16.8592C700.927 18.8236 699.449 20.5448 698.072 21.972C696.743 23.3485 695.414 24.7276 694.085 26.104C692.89 27.3441 691.615 28.6297 689.963 29.1134C688.31 29.5945 686.187 28.9263 685.685 27.28C685.219 25.7539 686.265 24.2224 686.639 22.6723C687.77 18.0192 682.728 16.755 681.909 12.9304V12.9277Z" fill="#EBEBEB"/>
<path d="M693.313 8.09018C693.436 8.50177 693.652 8.89198 693.989 9.15925C694.355 9.45057 694.826 9.56817 695.291 9.62429C696.754 9.79534 698.28 9.36504 699.438 8.45366C699.753 8.2051 700.04 7.92447 700.318 7.63849C700.537 7.41132 700.751 7.17612 700.919 6.90885C702.267 4.7333 699.799 2.19158 697.548 2.59783C695.216 3.02011 692.564 5.56717 693.315 8.09018H693.313Z" fill="#EBEBEB"/>
<path d="M702.82 11.2118C702.248 12.0136 701.906 13.1736 702.521 13.9433C702.705 14.1758 702.959 14.3415 703.213 14.4939C704.371 15.1834 705.705 15.6378 707.05 15.5496C708.395 15.4614 709.737 14.7745 710.403 13.6039C711.448 11.7731 710.28 9.48529 708.347 8.84919C706.43 8.22111 703.9 9.70445 702.82 11.2092V11.2118Z" fill="#EBEBEB"/>
<path d="M707.585 17.7145C706.67 17.5648 705.718 17.5274 704.831 17.7946C703.943 18.0646 703.128 18.6766 702.785 19.5345C702.352 20.617 702.753 21.9132 703.561 22.7551C704.368 23.597 705.513 24.0434 706.662 24.2545C708.499 24.5912 711.782 24.0193 711.646 21.4669C711.534 19.3127 709.464 18.0191 707.585 17.7118V17.7145Z" fill="#EBEBEB"/>
<path d="M704.718 29.9981C704.133 30.5086 703.358 30.7572 702.585 30.8454C700.748 31.0592 698.74 30.3777 697.473 29.0119C696.27 27.7157 696.203 25.3504 698.072 24.5806C700.483 23.5864 708.087 27.0742 704.718 30.0008V29.9981Z" fill="#EBEBEB"/>
<path d="M645.403 43.7223C646.986 44.0457 648.371 44.9624 649.86 45.5851C651.727 46.3656 653.783 46.6943 655.534 47.7046C657.285 48.7175 658.71 50.7648 658.095 52.6891C657.884 53.3493 657.459 53.9185 657.042 54.4718C655.499 56.5164 653.959 58.5583 652.416 60.6029C650.745 62.8159 647.997 64.6841 645.342 62.6635C643.371 61.1642 643.895 58.0719 644.304 55.9952C644.564 54.6776 644.577 53.106 643.559 52.2294C643.179 51.9033 642.7 51.7163 642.272 51.4543C638.417 49.089 640.93 42.8109 645.401 43.7223H645.403Z" fill="#EBEBEB"/>
<path d="M651.403 40.2505C650.823 41.1298 650.411 42.3058 650.957 43.2065C651.28 43.741 651.871 44.0511 652.456 44.2622C655.454 45.3527 662.074 44.2275 660.272 39.6492C658.804 35.9181 653.066 37.7382 651.403 40.2505Z" fill="#EBEBEB"/>
<path d="M663.983 43.2279C662.624 43.9388 661.635 45.4676 661.876 46.9803C661.919 47.2556 662.004 47.5309 662.17 47.7554C662.426 48.1055 662.841 48.2979 663.25 48.4449C664.825 49.0115 666.571 49.0971 668.194 48.6855C669.188 48.4342 670.172 47.9745 670.814 47.1754C671.455 46.3736 671.675 45.1816 671.143 44.305C669.691 41.9129 666.178 42.0813 663.985 43.2279H663.983Z" fill="#EBEBEB"/>
<path d="M667.365 50.7034C666.009 50.4976 664.544 50.5831 663.384 51.3155C662.223 52.0478 661.485 53.5498 661.948 54.8407C662.349 55.9606 663.483 56.6314 664.568 57.1205C665.964 57.7486 667.509 58.2377 669.012 57.9383C670.514 57.639 671.899 56.3134 671.787 54.7846C671.584 52.0397 669.899 51.0883 667.365 50.7007V50.7034Z" fill="#EBEBEB"/>
<path d="M657.857 59.0287C656.873 59.2612 655.921 59.8599 655.523 60.7873C654.002 64.3366 659.849 65.6596 662.21 65.0583C665.031 64.342 665.413 61.3486 663.106 59.6969C661.713 58.7 659.475 58.6438 657.857 59.026V59.0287Z" fill="#EBEBEB"/>
<path d="M598.9 40.4321C597.232 38.58 598.088 35.1349 600.427 34.2743C600.948 34.0819 601.507 34.007 602.058 33.9322C604.077 33.6596 606.095 33.387 608.114 33.1143C609.771 32.8898 611.445 32.6653 613.114 32.7696C614.611 32.8631 616.212 33.2988 617.124 34.4908C618.327 36.065 617.902 38.2967 617.418 40.2183C616.953 42.0732 616.488 43.9307 616.023 45.7855C615.603 47.4559 615.14 49.2065 613.948 50.4466C612.755 51.6894 610.579 52.1652 609.325 50.9865C608.159 49.8961 608.304 48.0493 607.857 46.5151C606.518 41.9181 601.515 43.332 598.9 40.4268V40.4321Z" fill="#EBEBEB"/>
<path d="M606.376 30.5566C606.686 30.8506 607.071 31.0832 607.496 31.1473C607.959 31.2168 608.427 31.0858 608.857 30.9014C610.213 30.3214 611.32 29.1882 611.87 27.8225C612.02 27.451 612.13 27.0661 612.226 26.6759C612.304 26.3686 612.373 26.0585 612.384 25.7432C612.467 23.1854 609.06 22.2126 607.312 23.6852C605.499 25.2113 604.472 28.7419 606.379 30.554L606.376 30.5566Z" fill="#EBEBEB"/>
<path d="M616.175 28.5281C616.076 29.509 616.362 30.6849 617.276 31.0458C617.552 31.1553 617.854 31.174 618.151 31.1794C619.498 31.2008 620.88 30.9282 622.003 30.1852C623.124 29.4395 623.944 28.1753 623.942 26.8283C623.934 24.7195 621.781 23.319 619.79 23.7306C617.814 24.1396 616.359 26.6866 616.175 28.5308V28.5281Z" fill="#EBEBEB"/>
<path d="M623.546 31.7941C622.68 32.1201 621.835 32.5611 621.199 33.2346C620.565 33.9081 620.161 34.8463 620.292 35.763C620.455 36.9176 621.45 37.8397 622.57 38.1684C623.69 38.4971 624.904 38.3127 626.006 37.9252C627.768 37.3024 630.327 35.1723 628.939 33.0262C627.768 31.2168 625.329 31.1232 623.546 31.7941Z" fill="#EBEBEB"/>
<path d="M627.185 43.8719C626.931 44.6042 626.383 45.2083 625.76 45.668C624.273 46.7691 622.193 47.178 620.413 46.6248C618.723 46.1009 617.485 44.0831 618.723 42.4848C620.319 40.4215 628.648 39.6571 627.185 43.8719Z" fill="#EBEBEB"/>
<path d="M582.599 85.3172C584.131 84.8094 585.791 84.9136 587.393 84.7105C589.398 84.4566 591.345 83.7189 593.369 83.7243C595.39 83.7296 597.646 84.796 598.074 86.7711C598.221 87.45 598.136 88.1529 598.05 88.8398C597.732 91.3788 597.414 93.9205 597.096 96.4596C596.751 99.2098 595.296 102.198 591.992 101.77C589.534 101.452 588.449 98.5095 587.77 96.505C587.339 95.2328 586.564 93.8644 585.246 93.6105C584.754 93.517 584.246 93.5945 583.743 93.5811C579.22 93.4501 578.27 86.7551 582.602 85.3172H582.599Z" fill="#EBEBEB"/>
<path d="M586.07 79.317C586.003 80.3673 586.235 81.5914 587.158 82.1019C587.703 82.4039 588.369 82.3772 588.984 82.2703C592.125 81.7224 597.307 77.4515 593.46 74.3779C590.326 71.8763 586.259 76.3102 586.07 79.317Z" fill="#EBEBEB"/>
<path d="M598.459 75.6314C597.636 76.9223 597.54 78.7424 598.502 79.9344C598.679 80.1509 598.887 80.346 599.144 80.4609C599.539 80.6373 599.997 80.5972 600.424 80.5224C602.071 80.2284 603.627 79.4319 604.831 78.2693C605.569 77.5557 606.192 76.6684 606.349 75.6554C606.507 74.6425 606.101 73.4986 605.202 73.0015C602.751 71.6491 599.791 73.5467 598.459 75.634V75.6314Z" fill="#EBEBEB"/>
<path d="M605.122 80.4289C603.844 80.926 602.617 81.7278 601.975 82.9412C601.333 84.1546 601.443 85.825 602.488 86.715C603.395 87.4874 604.71 87.5034 605.897 87.3858C607.421 87.2335 609.007 86.8914 610.159 85.8838C611.312 84.8762 611.854 83.0347 610.993 81.7679C609.451 79.4881 607.515 79.5014 605.122 80.4289Z" fill="#EBEBEB"/>
<path d="M601.026 92.3837C600.288 93.0759 599.761 94.0675 599.879 95.0724C600.328 98.9077 606.058 97.1411 607.806 95.4439C609.894 93.418 608.734 90.6331 605.911 90.3498C604.205 90.1788 602.24 91.2452 601.026 92.3837Z" fill="#EBEBEB"/>
<path d="M536.7 90.9859C534.786 89.3876 535.144 85.857 537.336 84.673C537.826 84.4084 538.369 84.2561 538.903 84.1037C540.863 83.5478 542.823 82.9919 544.783 82.436C546.392 81.9789 548.015 81.5192 549.683 81.3856C551.181 81.2653 552.828 81.4685 553.897 82.5215C555.312 83.9113 555.207 86.1777 555.001 88.1502C554.804 90.0531 554.606 91.956 554.411 93.859C554.234 95.5722 554.023 97.3709 553.02 98.7687C552.015 100.167 549.929 100.947 548.52 99.9607C547.213 99.0467 547.093 97.1972 546.432 95.7432C544.454 91.3814 539.703 93.4928 536.7 90.9859Z" fill="#EBEBEB"/>
<path d="M542.697 80.1509C543.048 80.3994 543.462 80.5732 543.89 80.5758C544.358 80.5785 544.801 80.3834 545.2 80.1402C546.459 79.3731 547.395 78.0956 547.745 76.663C547.841 76.2755 547.895 75.8773 547.935 75.479C547.967 75.1663 547.994 74.8483 547.959 74.5356C547.678 71.9912 544.168 71.5128 542.646 73.218C541.069 74.9873 540.553 78.6274 542.7 80.1509H542.697Z" fill="#EBEBEB"/>
<path d="M552.111 76.7512C552.154 77.7348 552.6 78.86 553.56 79.0845C553.849 79.154 554.151 79.1299 554.445 79.0925C555.782 78.9215 557.111 78.4564 558.116 77.5611C559.121 76.6657 559.752 75.2946 559.557 73.9636C559.25 71.8763 556.921 70.7939 555.007 71.4887C553.108 72.1756 552.031 74.9018 552.111 76.7512Z" fill="#EBEBEB"/>
<path d="M559.87 78.9374C559.057 79.3838 558.285 79.9397 557.753 80.6987C557.221 81.4578 556.956 82.4413 557.215 83.3313C557.541 84.4512 558.656 85.2236 559.811 85.3893C560.966 85.555 562.143 85.2022 563.178 84.6596C564.833 83.7937 567.065 81.3215 565.383 79.3945C563.966 77.7695 561.541 78.0234 559.87 78.9401V78.9374Z" fill="#EBEBEB"/>
<path d="M565.188 90.3765C565.041 91.1382 564.584 91.8117 564.03 92.357C562.715 93.6559 560.715 94.3561 558.873 94.0621C557.127 93.7815 555.616 91.9614 556.611 90.2028C557.897 87.9337 566.036 85.996 565.185 90.3765H565.188Z" fill="#EBEBEB"/>
<path d="M526.936 137.728C528.38 137.007 530.037 136.876 531.593 136.448C533.542 135.914 535.366 134.906 537.368 134.623C539.371 134.342 541.756 135.074 542.459 136.969C542.7 137.619 542.716 138.33 542.729 139.022C542.775 141.582 542.82 144.14 542.866 146.701C542.914 149.472 541.9 152.637 538.566 152.682C536.09 152.714 534.596 149.959 533.639 148.069C533.032 146.872 532.072 145.626 530.73 145.562C530.23 145.538 529.738 145.688 529.241 145.744C524.746 146.257 522.853 139.762 526.938 137.726L526.936 137.728Z" fill="#EBEBEB"/>
<path d="M529.521 131.295C529.604 132.346 530.008 133.524 530.992 133.898C531.575 134.12 532.23 134 532.823 133.808C535.858 132.819 540.376 127.855 536.133 125.359C532.676 123.325 529.281 128.294 529.521 131.295Z" fill="#EBEBEB"/>
<path d="M541.261 125.891C540.63 127.286 540.791 129.101 541.914 130.143C542.117 130.333 542.355 130.496 542.622 130.574C543.039 130.691 543.486 130.587 543.898 130.451C545.486 129.927 546.913 128.919 547.94 127.596C548.568 126.786 549.06 125.819 549.071 124.793C549.082 123.766 548.52 122.692 547.561 122.328C544.943 121.337 542.28 123.635 541.261 125.891Z" fill="#EBEBEB"/>
<path d="M548.539 129.694C547.344 130.368 546.242 131.338 545.78 132.629C545.317 133.92 545.662 135.558 546.823 136.29C547.831 136.927 549.135 136.756 550.29 136.472C551.777 136.106 553.295 135.539 554.295 134.379C555.293 133.22 555.568 131.319 554.539 130.186C552.689 128.149 550.774 128.438 548.539 129.694Z" fill="#EBEBEB"/>
<path d="M546.181 142.109C545.55 142.897 545.168 143.956 545.427 144.931C546.416 148.662 551.836 146.102 553.328 144.175C555.108 141.874 553.563 139.281 550.729 139.401C549.015 139.474 547.221 140.81 546.181 142.106V142.109Z" fill="#EBEBEB"/>
<path d="M478.537 128.938C477.278 126.789 478.81 123.584 481.275 123.213C481.826 123.13 482.388 123.168 482.944 123.208C484.976 123.347 487.008 123.488 489.04 123.627C490.711 123.742 492.392 123.86 494.007 124.298C495.456 124.691 496.938 125.439 497.587 126.792C498.448 128.577 497.582 130.675 496.721 132.46C495.892 134.184 495.061 135.908 494.232 137.632C493.486 139.182 492.678 140.805 491.261 141.78C489.842 142.756 487.617 142.785 486.623 141.379C485.703 140.075 486.214 138.295 486.085 136.705C485.7 131.931 480.516 132.311 478.54 128.938H478.537Z" fill="#EBEBEB"/>
<path d="M487.85 120.773C488.096 121.126 488.425 121.428 488.828 121.577C489.267 121.738 489.753 121.706 490.211 121.609C491.654 121.313 492.967 120.428 493.783 119.199C494.004 118.864 494.189 118.509 494.363 118.148C494.499 117.865 494.63 117.574 494.705 117.266C495.301 114.778 492.162 113.14 490.152 114.23C488.069 115.361 486.35 118.611 487.855 120.77L487.85 120.773Z" fill="#EBEBEB"/>
<path d="M497.855 120.757C497.561 121.698 497.603 122.906 498.427 123.443C498.676 123.606 498.967 123.683 499.258 123.75C500.574 124.041 501.983 124.055 503.231 123.552C504.48 123.05 505.539 121.973 505.806 120.655C506.223 118.589 504.4 116.782 502.363 116.785C500.344 116.788 498.408 118.99 497.855 120.759V120.757Z" fill="#EBEBEB"/>
<path d="M504.419 125.439C503.504 125.584 502.587 125.845 501.828 126.377C501.071 126.909 500.488 127.748 500.429 128.671C500.357 129.836 501.143 130.94 502.175 131.485C503.207 132.033 504.435 132.097 505.59 131.937C507.44 131.683 510.378 130.111 509.448 127.727C508.664 125.717 506.295 125.137 504.416 125.434L504.419 125.439Z" fill="#EBEBEB"/>
<path d="M505.549 138.004C505.151 138.672 504.496 139.15 503.79 139.476C502.111 140.254 499.994 140.235 498.36 139.335C496.812 138.479 496.005 136.256 497.539 134.938C499.518 133.238 507.83 134.168 505.549 138.004Z" fill="#EBEBEB"/>
<path d="M453.523 169.619C455.127 169.429 456.731 169.865 458.34 169.99C460.356 170.145 462.412 169.814 464.391 170.225C466.369 170.637 468.367 172.136 468.388 174.157C468.396 174.849 468.169 175.523 467.947 176.18C467.123 178.604 466.3 181.028 465.476 183.45C464.583 186.074 462.56 188.71 459.405 187.625C457.062 186.817 456.592 183.717 456.33 181.616C456.164 180.283 455.683 178.789 454.44 178.273C453.977 178.08 453.464 178.056 452.974 177.941C448.571 176.902 448.988 170.153 453.523 169.619Z" fill="#EBEBEB"/>
<path d="M458.132 164.442C457.857 165.457 457.835 166.703 458.635 167.39C459.108 167.796 459.766 167.906 460.389 167.924C463.578 168.02 469.511 164.88 466.362 161.096C463.798 158.014 458.918 161.539 458.129 164.444L458.132 164.442Z" fill="#EBEBEB"/>
<path d="M471.011 163.327C469.944 164.426 469.482 166.19 470.185 167.55C470.313 167.799 470.479 168.031 470.706 168.194C471.059 168.448 471.514 168.499 471.95 168.512C473.623 168.555 475.308 168.09 476.719 167.192C477.586 166.641 478.374 165.898 478.733 164.936C479.091 163.974 478.925 162.774 478.144 162.106C476.016 160.288 472.733 161.55 471.011 163.325V163.327Z" fill="#EBEBEB"/>
<path d="M476.569 169.368C475.217 169.595 473.853 170.137 472.981 171.196C472.11 172.254 471.88 173.914 472.722 174.994C473.455 175.932 474.741 176.215 475.925 176.338C477.449 176.496 479.069 176.48 480.401 175.723C481.732 174.969 482.633 173.275 482.048 171.861C480.994 169.317 479.096 168.943 476.567 169.368H476.569Z" fill="#EBEBEB"/>
<path d="M470.147 180.251C469.287 180.78 468.57 181.646 468.482 182.653C468.15 186.499 474.118 185.925 476.171 184.615C478.626 183.052 478.048 180.09 475.342 179.243C473.706 178.733 471.565 179.382 470.147 180.251Z" fill="#EBEBEB"/>
<path d="M412.493 140.428C412.311 137.942 415.099 135.743 417.474 136.499C418.006 136.667 418.49 136.948 418.974 137.229C420.735 138.25 422.497 139.273 424.259 140.294C425.706 141.133 427.166 141.981 428.422 143.087C429.548 144.079 430.548 145.404 430.534 146.904C430.518 148.884 428.815 150.386 427.257 151.61C425.751 152.792 424.246 153.973 422.738 155.154C421.382 156.218 419.944 157.316 418.241 157.568C416.538 157.819 414.527 156.862 414.257 155.162C414.006 153.585 415.252 152.214 415.837 150.731C417.597 146.276 412.779 144.333 412.495 140.43L412.493 140.428Z" fill="#EBEBEB"/>
<path d="M424.452 137.207C424.516 137.63 424.679 138.049 424.973 138.359C425.294 138.696 425.746 138.88 426.198 138.998C427.623 139.369 429.195 139.153 430.468 138.41C430.813 138.207 431.136 137.969 431.452 137.723C431.7 137.528 431.946 137.325 432.147 137.084C433.78 135.115 431.687 132.257 429.401 132.351C427.032 132.447 424.056 134.607 424.452 137.207Z" fill="#EBEBEB"/>
<path d="M433.438 141.609C432.759 142.323 432.264 143.427 432.767 144.274C432.919 144.528 433.147 144.728 433.376 144.915C434.427 145.757 435.686 146.391 437.029 146.489C438.371 146.588 439.796 146.091 440.617 145.025C441.905 143.354 441.063 140.928 439.234 140.032C437.422 139.145 434.713 140.267 433.435 141.609H433.438Z" fill="#EBEBEB"/>
<path d="M437.261 148.705C436.376 148.43 435.438 148.261 434.524 148.406C433.609 148.55 432.716 149.044 432.256 149.849C431.676 150.862 431.895 152.201 432.58 153.144C433.264 154.091 434.336 154.689 435.443 155.055C437.216 155.643 440.545 155.528 440.764 152.981C440.948 150.833 439.079 149.266 437.259 148.705H437.261Z" fill="#EBEBEB"/>
<path d="M432.73 160.478C432.08 160.903 431.278 161.042 430.5 161.023C428.65 160.981 426.757 160.032 425.69 158.503C424.676 157.054 424.936 154.703 426.893 154.195C429.42 153.543 436.47 158.043 432.73 160.478Z" fill="#EBEBEB"/>
<path d="M372.088 165.904C373.609 166.441 374.858 167.539 376.248 168.363C377.989 169.392 379.981 170.001 381.574 171.244C383.168 172.487 384.299 174.713 383.424 176.536C383.125 177.161 382.625 177.664 382.136 178.155C380.326 179.967 378.518 181.779 376.708 183.592C374.748 185.553 371.767 187.023 369.417 184.661C367.671 182.905 368.618 179.914 369.31 177.912C369.749 176.643 369.979 175.087 369.091 174.08C368.759 173.703 368.31 173.454 367.922 173.136C364.428 170.263 367.783 164.388 372.088 165.909V165.904Z" fill="#EBEBEB"/>
<path d="M378.51 163.29C377.815 164.081 377.245 165.19 377.663 166.158C377.909 166.73 378.451 167.12 379.002 167.411C381.82 168.905 388.534 168.702 387.379 163.918C386.437 160.021 380.505 161.031 378.513 163.293L378.51 163.29Z" fill="#EBEBEB"/>
<path d="M390.56 167.97C389.117 168.486 387.927 169.865 387.956 171.396C387.962 171.674 388.007 171.96 388.141 172.206C388.347 172.588 388.732 172.837 389.117 173.037C390.598 173.815 392.314 174.138 393.98 173.957C395.001 173.844 396.036 173.526 396.782 172.821C397.528 172.115 397.91 170.966 397.504 170.022C396.397 167.451 392.892 167.136 390.563 167.97H390.56Z" fill="#EBEBEB"/>
<path d="M392.881 175.843C391.566 175.451 390.103 175.336 388.855 175.9C387.606 176.466 386.665 177.853 386.946 179.195C387.189 180.36 388.218 181.181 389.226 181.814C390.523 182.629 391.985 183.327 393.515 183.236C395.044 183.145 396.6 182.023 396.699 180.497C396.878 177.749 395.338 176.576 392.881 175.843Z" fill="#EBEBEB"/>
<path d="M382.315 182.779C381.307 182.873 380.283 183.335 379.759 184.201C377.762 187.507 383.371 189.621 385.793 189.354C388.686 189.033 389.475 186.12 387.419 184.169C386.176 182.988 383.967 182.627 382.312 182.782L382.315 182.779Z" fill="#EBEBEB"/>
<path d="M344.769 122.692C345.381 120.276 348.72 119.068 350.736 120.532C351.188 120.858 351.56 121.281 351.929 121.698C353.279 123.221 354.629 124.747 355.979 126.271C357.089 127.524 358.206 128.786 359.049 130.231C359.805 131.528 360.335 133.099 359.851 134.521C359.212 136.397 357.121 137.285 355.255 137.956C353.453 138.602 351.651 139.249 349.851 139.896C348.231 140.479 346.517 141.069 344.822 140.77C343.127 140.471 341.52 138.928 341.798 137.231C342.057 135.657 343.672 134.746 344.696 133.524C347.771 129.852 343.811 126.487 344.769 122.697V122.692Z" fill="#EBEBEB"/>
<path d="M357.134 123.403C357.062 123.825 357.083 124.274 357.265 124.662C357.463 125.084 357.835 125.399 358.225 125.653C359.46 126.455 361.019 126.744 362.463 126.439C362.856 126.356 363.236 126.233 363.613 126.097C363.909 125.99 364.206 125.875 364.473 125.709C366.647 124.354 365.559 120.984 363.359 120.353C361.081 119.699 357.575 120.81 357.132 123.403H357.134Z" fill="#EBEBEB"/>
<path d="M364.278 130.411C363.409 130.876 362.591 131.766 362.8 132.728C362.864 133.016 363.016 133.278 363.177 133.53C363.909 134.66 364.904 135.657 366.147 136.173C367.39 136.689 368.898 136.665 370.016 135.914C371.765 134.735 371.732 132.167 370.278 130.742C368.837 129.328 365.912 129.539 364.278 130.413V130.411Z" fill="#EBEBEB"/>
<path d="M365.669 138.348C364.915 137.809 364.078 137.354 363.163 137.202C362.249 137.049 361.246 137.239 360.557 137.857C359.688 138.637 359.474 139.973 359.824 141.088C360.174 142.2 361.003 143.108 361.939 143.806C363.436 144.923 366.631 145.861 367.642 143.512C368.495 141.532 367.214 139.458 365.666 138.348H365.669Z" fill="#EBEBEB"/>
<path d="M357.656 148.096C356.904 148.293 356.099 148.173 355.367 147.911C353.624 147.289 352.129 145.789 351.597 144.004C351.092 142.309 352.081 140.158 354.097 140.294C356.701 140.471 361.974 146.962 357.656 148.096Z" fill="#EBEBEB"/>
<path d="M298.394 134.144C299.669 135.133 300.506 136.568 301.565 137.787C302.891 139.313 304.592 140.516 305.712 142.2C306.832 143.881 307.204 146.35 305.8 147.804C305.319 148.304 304.685 148.625 304.065 148.935C301.776 150.084 299.49 151.233 297.202 152.383C294.723 153.628 291.432 154.085 289.945 151.1C288.844 148.884 290.683 146.342 291.969 144.661C292.787 143.595 293.493 142.192 292.969 140.954C292.774 140.492 292.426 140.115 292.159 139.69C289.75 135.863 294.785 131.346 298.389 134.142L298.394 134.144Z" fill="#EBEBEB"/>
<path d="M305.314 133.687C304.404 134.219 303.514 135.09 303.605 136.141C303.659 136.761 304.052 137.301 304.482 137.752C306.688 140.056 313.121 141.981 313.532 137.076C313.867 133.081 307.918 132.172 305.316 133.69L305.314 133.687Z" fill="#EBEBEB"/>
<path d="M315.273 141.924C313.741 141.959 312.174 142.892 311.722 144.354C311.639 144.621 311.594 144.904 311.642 145.18C311.717 145.607 312.003 145.966 312.305 146.276C313.468 147.481 314.992 148.328 316.631 148.681C317.634 148.897 318.719 148.919 319.65 148.486C320.58 148.053 321.305 147.08 321.216 146.056C320.976 143.269 317.749 141.866 315.275 141.922L315.273 141.924Z" fill="#EBEBEB"/>
<path d="M314.995 150.127C313.869 149.341 312.519 148.769 311.155 148.913C309.792 149.058 308.463 150.076 308.305 151.439C308.169 152.623 308.888 153.724 309.645 154.644C310.618 155.825 311.786 156.948 313.265 157.346C314.744 157.741 316.575 157.167 317.15 155.748C318.184 153.198 317.096 151.597 314.995 150.127Z" fill="#EBEBEB"/>
<path d="M302.782 153.379C301.798 153.152 300.677 153.267 299.91 153.922C296.974 156.429 301.629 160.206 304.014 160.713C306.862 161.32 308.527 158.805 307.193 156.303C306.386 154.791 304.405 153.754 302.784 153.379H302.782Z" fill="#EBEBEB"/>
<path d="M261.233 100.22C260.712 97.7825 263.171 95.222 265.628 95.6417C266.176 95.7352 266.698 95.9463 267.214 96.1575C269.099 96.9272 270.986 97.6969 272.871 98.4667C274.422 99.1001 275.981 99.7389 277.379 100.661C278.63 101.489 279.801 102.663 279.997 104.151C280.253 106.116 278.772 107.837 277.398 109.264C276.069 110.641 274.74 112.017 273.411 113.394C272.216 114.631 270.941 115.919 269.289 116.4C267.636 116.881 265.513 116.211 265.011 114.564C264.546 113.038 265.591 111.507 265.968 109.957C267.099 105.303 262.059 104.039 261.238 100.215L261.233 100.22Z" fill="#EBEBEB"/>
<path d="M272.639 95.3851C272.762 95.7967 272.978 96.1896 273.315 96.4542C273.681 96.7455 274.152 96.8631 274.617 96.9192C276.08 97.0903 277.606 96.66 278.764 95.7513C279.08 95.5027 279.366 95.2247 279.644 94.9361C279.863 94.7089 280.077 94.4737 280.245 94.2065C281.593 92.0309 279.125 89.4892 276.874 89.8954C274.542 90.315 271.89 92.8648 272.641 95.3851H272.639Z" fill="#EBEBEB"/>
<path d="M282.146 98.5068C281.571 99.3086 281.232 100.469 281.847 101.238C282.031 101.471 282.285 101.637 282.539 101.789C283.697 102.478 285.031 102.933 286.373 102.845C287.716 102.756 289.06 102.069 289.726 100.899C290.772 99.0681 289.606 96.7803 287.67 96.1442C285.753 95.5161 283.224 96.9967 282.144 98.5041L282.146 98.5068Z" fill="#EBEBEB"/>
<path d="M286.908 105.012C285.994 104.862 285.042 104.825 284.154 105.092C283.266 105.36 282.451 105.974 282.109 106.832C281.676 107.915 282.077 109.211 282.884 110.053C283.692 110.895 284.836 111.341 285.986 111.552C287.822 111.892 291.106 111.32 290.969 108.765C290.857 106.61 288.79 105.317 286.911 105.009L286.908 105.012Z" fill="#EBEBEB"/>
<path d="M284.039 117.296C283.454 117.804 282.678 118.055 281.906 118.143C280.069 118.354 278.061 117.675 276.794 116.307C275.59 115.011 275.524 112.645 277.393 111.876C279.804 110.881 287.408 114.369 284.037 117.296H284.039Z" fill="#EBEBEB"/>
<path d="M224.721 131.009C226.304 131.333 227.689 132.249 229.178 132.872C231.045 133.653 233.101 133.981 234.849 134.994C236.6 136.007 238.025 138.054 237.411 139.981C237.199 140.642 236.774 141.211 236.357 141.764C234.814 143.806 233.272 145.851 231.729 147.893C230.058 150.106 227.309 151.971 224.654 149.953C222.684 148.454 223.208 145.362 223.62 143.285C223.879 141.967 223.892 140.396 222.874 139.519C222.494 139.193 222.016 139.006 221.588 138.744C217.732 136.379 220.246 130.098 224.719 131.012L224.721 131.009Z" fill="#EBEBEB"/>
<path d="M230.721 127.537C230.141 128.417 229.729 129.593 230.275 130.493C230.598 131.028 231.189 131.338 231.774 131.549C234.772 132.64 241.392 131.517 239.59 126.936C238.122 123.205 232.384 125.022 230.721 127.535V127.537Z" fill="#EBEBEB"/>
<path d="M243.301 130.515C241.942 131.223 240.95 132.752 241.194 134.264C241.236 134.54 241.322 134.815 241.488 135.04C241.744 135.39 242.159 135.582 242.568 135.729C244.143 136.296 245.889 136.381 247.512 135.972C248.506 135.721 249.49 135.261 250.132 134.462C250.773 133.66 250.993 132.468 250.461 131.592C249.011 129.197 245.496 129.368 243.303 130.515H243.301Z" fill="#EBEBEB"/>
<path d="M246.683 137.993C245.327 137.784 243.862 137.873 242.702 138.602C241.541 139.335 240.803 140.837 241.266 142.128C241.667 143.247 242.801 143.918 243.886 144.407C245.282 145.035 246.827 145.527 248.33 145.228C249.832 144.928 251.217 143.603 251.108 142.077C250.907 139.332 249.22 138.38 246.685 137.993H246.683Z" fill="#EBEBEB"/>
<path d="M237.173 146.316C236.189 146.548 235.237 147.144 234.838 148.074C233.314 151.624 239.162 152.947 241.525 152.348C244.346 151.632 244.728 148.638 242.424 146.989C241.031 145.99 238.793 145.936 237.175 146.318L237.173 146.316Z" fill="#EBEBEB"/>
<path d="M179.036 125.88C177.48 123.935 178.534 120.543 180.921 119.821C181.453 119.661 182.015 119.618 182.571 119.576C184.603 119.421 186.632 119.268 188.664 119.113C190.333 118.988 192.014 118.859 193.677 119.062C195.167 119.244 196.741 119.771 197.581 121.016C198.691 122.66 198.134 124.859 197.541 126.752C196.969 128.577 196.394 130.403 195.822 132.228C195.306 133.872 194.742 135.59 193.48 136.761C192.215 137.931 190.017 138.279 188.833 137.031C187.734 135.874 187.985 134.037 187.627 132.482C186.557 127.813 181.483 128.935 179.042 125.88H179.036Z" fill="#EBEBEB"/>
<path d="M187.076 116.459C187.37 116.772 187.739 117.026 188.159 117.114C188.616 117.21 189.092 117.106 189.531 116.948C190.916 116.449 192.089 115.382 192.718 114.048C192.889 113.688 193.02 113.308 193.14 112.926C193.234 112.624 193.322 112.319 193.351 112.004C193.584 109.454 190.239 108.286 188.408 109.655C186.509 111.074 185.277 114.538 187.076 116.457V116.459Z" fill="#EBEBEB"/>
<path d="M196.977 115.005C196.822 115.978 197.036 117.167 197.931 117.582C198.201 117.707 198.501 117.742 198.797 117.766C200.14 117.865 201.538 117.675 202.701 116.996C203.864 116.318 204.757 115.101 204.832 113.757C204.947 111.651 202.88 110.128 200.867 110.424C198.87 110.718 197.271 113.174 196.979 115.005H196.977Z" fill="#EBEBEB"/>
<path d="M204.145 118.696C203.26 118.971 202.391 119.362 201.717 119.998C201.043 120.634 200.589 121.545 200.664 122.47C200.76 123.633 201.698 124.611 202.797 125.004C203.896 125.397 205.121 125.284 206.241 124.961C208.035 124.442 210.717 122.465 209.455 120.241C208.391 118.365 205.963 118.132 204.145 118.696Z" fill="#EBEBEB"/>
<path d="M207.075 130.966C206.778 131.683 206.195 132.252 205.546 132.677C203.998 133.687 201.899 133.976 200.153 133.318C198.498 132.696 197.38 130.611 198.707 129.085C200.42 127.118 208.781 126.84 207.075 130.964V130.966Z" fill="#EBEBEB"/>
<path d="M160.144 169.739C161.703 169.322 163.353 169.523 164.965 169.413C166.984 169.277 168.97 168.654 170.986 168.777C173.005 168.9 175.194 170.094 175.507 172.094C175.614 172.778 175.489 173.475 175.36 174.16C174.895 176.677 174.427 179.192 173.962 181.71C173.457 184.436 171.831 187.333 168.556 186.713C166.123 186.251 165.208 183.252 164.647 181.21C164.291 179.914 163.599 178.503 162.297 178.174C161.81 178.051 161.299 178.099 160.799 178.056C156.292 177.663 155.733 170.923 160.142 169.742L160.144 169.739Z" fill="#EBEBEB"/>
<path d="M163.957 163.95C163.829 164.995 163.989 166.232 164.879 166.794C165.406 167.128 166.075 167.141 166.692 167.069C169.861 166.705 175.283 162.742 171.62 159.452C168.639 156.771 164.318 160.962 163.954 163.95H163.957Z" fill="#EBEBEB"/>
<path d="M176.542 160.994C175.644 162.237 175.44 164.046 176.333 165.292C176.497 165.519 176.694 165.727 176.943 165.856C177.328 166.056 177.788 166.043 178.218 165.989C179.881 165.791 181.48 165.089 182.748 163.998C183.526 163.33 184.199 162.48 184.416 161.475C184.633 160.473 184.296 159.308 183.427 158.76C181.061 157.266 177.991 158.99 176.542 160.994Z" fill="#EBEBEB"/>
<path d="M182.913 166.174C181.609 166.593 180.336 167.326 179.625 168.499C178.914 169.672 178.924 171.345 179.916 172.294C180.777 173.117 182.09 173.211 183.28 173.163C184.809 173.101 186.41 172.85 187.622 171.912C188.83 170.974 189.48 169.167 188.696 167.852C187.29 165.487 185.354 165.388 182.913 166.174Z" fill="#EBEBEB"/>
<path d="M178.125 177.867C177.347 178.513 176.764 179.473 176.823 180.483C177.047 184.337 182.871 182.91 184.715 181.317C186.918 179.417 185.921 176.568 183.122 176.121C181.429 175.851 179.403 176.803 178.125 177.867Z" fill="#EBEBEB"/>
<path d="M115.264 166.147C113.885 164.073 115.23 160.785 117.668 160.275C118.213 160.16 118.775 160.165 119.331 160.173C121.368 160.197 123.406 160.219 125.44 160.243C127.114 160.262 128.801 160.283 130.437 160.628C131.905 160.938 133.427 161.601 134.156 162.913C135.119 164.645 134.373 166.791 133.616 168.622C132.886 170.391 132.157 172.16 131.427 173.927C130.769 175.517 130.058 177.185 128.697 178.238C127.336 179.294 125.114 179.449 124.042 178.102C123.047 176.854 123.456 175.047 123.237 173.465C122.579 168.721 117.425 169.397 115.259 166.141L115.264 166.147Z" fill="#EBEBEB"/>
<path d="M124.095 157.461C124.36 157.797 124.708 158.083 125.117 158.206C125.563 158.343 126.047 158.281 126.496 158.161C127.921 157.784 129.181 156.822 129.924 155.55C130.125 155.205 130.29 154.839 130.443 154.467C130.563 154.176 130.678 153.879 130.734 153.569C131.189 151.049 127.959 149.592 126.012 150.798C123.999 152.046 122.467 155.389 124.093 157.458L124.095 157.461Z" fill="#EBEBEB"/>
<path d="M134.084 156.875C133.846 157.829 133.956 159.035 134.811 159.524C135.068 159.671 135.365 159.735 135.659 159.783C136.988 160 138.397 159.93 139.613 159.358C140.83 158.784 141.827 157.65 142.017 156.317C142.316 154.229 140.391 152.53 138.357 152.65C136.341 152.77 134.533 155.077 134.084 156.875Z" fill="#EBEBEB"/>
<path d="M140.905 161.173C139.998 161.368 139.1 161.684 138.373 162.258C137.648 162.833 137.114 163.701 137.108 164.629C137.103 165.797 137.95 166.852 139.012 167.339C140.073 167.825 141.3 167.82 142.447 167.595C144.282 167.235 147.124 165.497 146.06 163.172C145.164 161.21 142.766 160.767 140.905 161.17V161.173Z" fill="#EBEBEB"/>
<path d="M142.752 173.652C142.394 174.341 141.766 174.857 141.081 175.223C139.45 176.095 137.333 176.199 135.654 175.394C134.06 174.63 133.127 172.454 134.581 171.051C136.458 169.242 144.814 169.694 142.752 173.652Z" fill="#EBEBEB"/>
<path d="M82.6233 196.193C84.2142 195.913 85.8398 196.258 87.4546 196.29C89.4759 196.33 91.5106 195.881 93.5105 196.18C95.5104 196.479 97.5878 197.861 97.7242 199.876C97.7696 200.569 97.5851 201.253 97.398 201.921C96.7135 204.388 96.0317 206.855 95.3473 209.322C94.6067 211.994 92.7351 214.739 89.5267 213.836C87.1418 213.165 86.4948 210.097 86.1125 208.015C85.8692 206.694 85.305 205.227 84.035 204.786C83.5618 204.62 83.0485 204.626 82.5538 204.538C78.0968 203.752 78.1289 196.99 82.6233 196.196V196.193Z" fill="#EBEBEB"/>
<path d="M86.928 190.76C86.7114 191.792 86.7622 193.034 87.5991 193.673C88.0964 194.05 88.7594 194.122 89.3824 194.106C92.5721 194.021 98.3151 190.543 94.957 186.946C92.2191 184.017 87.5509 187.815 86.9306 190.76H86.928Z" fill="#EBEBEB"/>
<path d="M99.7214 188.91C98.7188 190.07 98.3605 191.856 99.1385 193.173C99.2803 193.414 99.4594 193.638 99.6973 193.788C100.064 194.021 100.521 194.047 100.957 194.034C102.63 193.983 104.283 193.422 105.644 192.444C106.478 191.845 107.224 191.057 107.526 190.076C107.828 189.095 107.593 187.906 106.777 187.285C104.55 185.591 101.342 187.04 99.7241 188.91H99.7214Z" fill="#EBEBEB"/>
<path d="M105.617 194.622C104.28 194.927 102.949 195.544 102.138 196.653C101.328 197.762 101.195 199.43 102.098 200.462C102.884 201.357 104.184 201.566 105.374 201.622C106.903 201.694 108.52 201.582 109.806 200.753C111.092 199.925 111.895 198.179 111.232 196.803C110.036 194.323 108.119 194.058 105.617 194.627V194.622Z" fill="#EBEBEB"/>
<path d="M99.8284 205.855C98.9969 206.432 98.3312 207.338 98.3017 208.349C98.1895 212.208 104.114 211.291 106.093 209.867C108.454 208.164 107.708 205.24 104.956 204.551C103.293 204.134 101.192 204.906 99.8284 205.855Z" fill="#EBEBEB"/>
<path d="M36.8851 182.62C35.8932 180.335 37.7969 177.338 40.2887 177.264C40.8448 177.248 41.3983 177.352 41.9437 177.456C43.9436 177.838 45.9462 178.22 47.9461 178.603C49.5904 178.915 51.2454 179.233 52.7988 179.864C54.1891 180.428 55.5714 181.347 56.0553 182.769C56.697 184.646 55.5847 186.623 54.5179 188.294C53.4886 189.905 52.4565 191.52 51.4272 193.131C50.4994 194.583 49.5048 196.095 47.9808 196.894C46.4568 197.694 44.2404 197.456 43.4249 195.94C42.6683 194.537 43.3875 192.829 43.4516 191.236C43.6388 186.45 38.4492 186.206 36.8905 182.622L36.8851 182.62Z" fill="#EBEBEB"/>
<path d="M47.1093 175.628C47.3098 176.007 47.6012 176.347 47.9835 176.542C48.398 176.756 48.8846 176.78 49.3498 176.74C50.8176 176.62 52.2293 175.895 53.1838 174.775C53.4432 174.471 53.6704 174.139 53.8843 173.803C54.0554 173.538 54.2185 173.265 54.3281 172.969C55.2185 170.569 52.2988 168.567 50.1706 169.409C47.9675 170.283 45.8714 173.303 47.1066 175.628H47.1093Z" fill="#EBEBEB"/>
<path d="M57.0472 176.809C56.6434 177.707 56.5392 178.913 57.2931 179.546C57.5204 179.736 57.8011 179.851 58.0819 179.95C59.3519 180.396 60.7502 180.578 62.0496 180.228C63.349 179.878 64.5281 178.937 64.9532 177.659C65.6162 175.657 64.0201 173.645 61.9961 173.404C59.9909 173.166 57.8065 175.12 57.0445 176.809H57.0472Z" fill="#EBEBEB"/>
<path d="M63.0015 182.243C62.0764 182.278 61.1352 182.427 60.3171 182.866C59.5016 183.304 58.8225 184.066 58.6541 184.977C58.4429 186.124 59.0926 187.316 60.0497 187.981C61.0069 188.647 62.2181 188.858 63.3865 188.839C65.2554 188.807 68.3595 187.599 67.7232 185.121C67.1857 183.034 64.9051 182.173 63.0015 182.243Z" fill="#EBEBEB"/>
<path d="M62.6191 194.852C62.1459 195.467 61.4347 195.865 60.6968 196.103C58.9375 196.675 56.836 196.403 55.3227 195.315C53.887 194.281 53.3549 191.977 55.034 190.851C57.2023 189.4 65.3436 191.317 62.6191 194.852Z" fill="#EBEBEB"/>
</g>
<defs>
<clipPath id="clip0_514_1272">
<rect width="794" height="255" fill="white"/>
</clipPath>
</defs>
</svg>
