<svg width="27" height="29" viewBox="0 0 27 29" fill="none" xmlns="http://www.w3.org/2000/svg">
<path fill-rule="evenodd" clip-rule="evenodd" d="M0.375 4.5625C0.375 3.35438 1.35438 2.375 2.5625 2.375H24.4375C25.6456 2.375 26.625 3.35438 26.625 4.5625V26.4375C26.625 27.6456 25.6456 28.625 24.4375 28.625H2.5625C1.35438 28.625 0.375 27.6456 0.375 26.4375V4.5625ZM24.4375 4.5625H2.5625V26.4375H24.4375V4.5625Z" fill="white"/>
<path fill-rule="evenodd" clip-rule="evenodd" d="M20.0625 0.1875C20.6666 0.1875 21.1562 0.677189 21.1562 1.28125V5.65625C21.1562 6.26031 20.6666 6.75 20.0625 6.75C19.4584 6.75 18.9688 6.26031 18.9688 5.65625V1.28125C18.9688 0.677189 19.4584 0.1875 20.0625 0.1875Z" fill="white"/>
<path fill-rule="evenodd" clip-rule="evenodd" d="M6.9375 0.1875C7.54156 0.1875 8.03125 0.677189 8.03125 1.28125V5.65625C8.03125 6.26031 7.54156 6.75 6.9375 6.75C6.33344 6.75 5.84375 6.26031 5.84375 5.65625V1.28125C5.84375 0.677189 6.33344 0.1875 6.9375 0.1875Z" fill="white"/>
<path fill-rule="evenodd" clip-rule="evenodd" d="M0.375 10.0312C0.375 9.42719 0.864689 8.9375 1.46875 8.9375H25.5312C26.1353 8.9375 26.625 9.42719 26.625 10.0312C26.625 10.6353 26.1353 11.125 25.5312 11.125H1.46875C0.864689 11.125 0.375 10.6353 0.375 10.0312Z" fill="white"/>
<path fill-rule="evenodd" clip-rule="evenodd" d="M7.48438 15.5C7.48438 14.8959 7.97406 14.4062 8.57812 14.4062H12.4062C12.8267 14.4062 13.2099 14.6473 13.3921 15.0262C13.5742 15.4051 13.523 15.8549 13.2603 16.1833L12.0497 17.6965C12.4044 17.9343 12.7102 18.2397 12.949 18.5962C13.2494 19.0449 13.4345 19.5609 13.4877 20.0982C13.541 20.6356 13.4608 21.1778 13.2543 21.6768C13.0478 22.1757 12.7213 22.616 12.3038 22.9585C11.8863 23.3011 11.3908 23.5353 10.8611 23.6404C10.3314 23.7455 9.78397 23.7182 9.26735 23.561C8.75072 23.4038 8.28088 23.1216 7.8995 22.7393C7.47288 22.3116 7.47371 21.6191 7.90136 21.1925C8.32902 20.7658 9.02154 20.7667 9.44816 21.1943C9.57529 21.3218 9.7319 21.4159 9.90411 21.4683C10.0763 21.5207 10.2588 21.5297 10.4354 21.4947C10.6119 21.4597 10.7771 21.3816 10.9163 21.2674C11.0554 21.1533 11.1642 21.0065 11.2331 20.8402C11.3019 20.6739 11.3287 20.4931 11.3109 20.314C11.2932 20.1349 11.2315 19.9629 11.1313 19.8133C11.0312 19.6638 10.8956 19.5412 10.7368 19.4566C10.5779 19.3719 10.4006 19.3278 10.2206 19.3281C9.79984 19.3288 9.41596 19.0881 9.23336 18.709C9.05075 18.3299 9.10182 17.8797 9.36468 17.5511L10.1306 16.5938H8.57812C7.97406 16.5938 7.48438 16.1041 7.48438 15.5Z" fill="white"/>
<path fill-rule="evenodd" clip-rule="evenodd" d="M18.3642 14.5217C18.7347 14.707 18.9688 15.0857 18.9688 15.5V22.6094C18.9688 23.2134 18.4791 23.7031 17.8751 23.7031C17.271 23.7031 16.7813 23.2134 16.7813 22.6094V17.6875L16.3438 18.0156C15.8606 18.3781 15.175 18.2801 14.8126 17.7969C14.4501 17.3136 14.5481 16.6281 15.0313 16.2656L17.2188 14.625C17.5502 14.3764 17.9937 14.3365 18.3642 14.5217Z" fill="white"/>
</svg>
