<svg width="25" height="25" viewBox="0 0 25 25" fill="none" xmlns="http://www.w3.org/2000/svg">
<path fill-rule="evenodd" clip-rule="evenodd" d="M8.72496 3.47289C8.86986 3.25555 9.11379 3.125 9.375 3.125H15.625C15.8862 3.125 16.1301 3.25555 16.275 3.47289L17.6056 5.46875H20.3125C20.9341 5.46875 21.5302 5.71568 21.9698 6.15522C22.4093 6.59476 22.6562 7.1909 22.6562 7.8125V18.75C22.6562 19.3716 22.4093 19.9677 21.9698 20.4073C21.5302 20.8468 20.9341 21.0938 20.3125 21.0938H4.6875C4.0659 21.0938 3.46976 20.8468 3.03022 20.4073C2.59068 19.9677 2.34375 19.3716 2.34375 18.75V7.8125C2.34375 7.1909 2.59068 6.59476 3.03022 6.15522C3.46976 5.71568 4.0659 5.46875 4.6875 5.46875H7.39439L8.72496 3.47289ZM9.79311 4.6875L8.46254 6.68336C8.31764 6.9007 8.07371 7.03125 7.8125 7.03125H4.6875C4.4803 7.03125 4.28159 7.11356 4.13507 7.26007C3.98856 7.40659 3.90625 7.6053 3.90625 7.8125V18.75C3.90625 18.9572 3.98856 19.1559 4.13507 19.3024C4.28159 19.4489 4.4803 19.5312 4.6875 19.5312H20.3125C20.5197 19.5312 20.7184 19.4489 20.8649 19.3024C21.0114 19.1559 21.0938 18.9572 21.0938 18.75V7.8125C21.0938 7.6053 21.0114 7.40659 20.8649 7.26007C20.7184 7.11356 20.5197 7.03125 20.3125 7.03125H17.1875C16.9263 7.03125 16.6824 6.9007 16.5375 6.68336L15.2069 4.6875H9.79311Z" fill="#CEB999"/>
<path fill-rule="evenodd" clip-rule="evenodd" d="M12.5 10.1562C10.9898 10.1562 9.76562 11.3805 9.76562 12.8906C9.76562 14.4008 10.9898 15.625 12.5 15.625C14.0102 15.625 15.2344 14.4008 15.2344 12.8906C15.2344 11.3805 14.0102 10.1562 12.5 10.1562ZM8.20312 12.8906C8.20312 10.5175 10.1269 8.59375 12.5 8.59375C14.8731 8.59375 16.7969 10.5175 16.7969 12.8906C16.7969 15.2637 14.8731 17.1875 12.5 17.1875C10.1269 17.1875 8.20312 15.2637 8.20312 12.8906Z" fill="#CEB999"/>
</svg>
