<svg width="65" height="65" viewBox="0 0 65 65" fill="none" xmlns="http://www.w3.org/2000/svg">
<path fill-rule="evenodd" clip-rule="evenodd" d="M58.354 13.8422C59.1156 14.604 59.5434 15.6371 59.5434 16.7144C59.5434 17.7916 59.1156 18.8247 58.354 19.5865L27.9042 50.0363C27.5018 50.4388 27.024 50.7581 26.4982 50.9759C25.9724 51.1938 25.4089 51.3059 24.8397 51.3059C24.2706 51.3059 23.707 51.1938 23.1812 50.9759C22.6554 50.7581 22.1776 50.4388 21.7752 50.0363L6.64648 34.9103C6.25847 34.5355 5.94898 34.0873 5.73607 33.5916C5.52316 33.096 5.41109 32.5629 5.4064 32.0235C5.40172 31.4841 5.5045 30.9491 5.70877 30.4499C5.91304 29.9506 6.21469 29.497 6.59613 29.1156C6.97757 28.7341 7.43115 28.4325 7.93042 28.2282C8.42969 28.0239 8.96463 27.9211 9.50405 27.9258C10.0435 27.9305 10.5765 28.0426 11.0722 28.2555C11.5678 28.4684 12.0161 28.7779 12.3909 29.1659L24.8384 41.6134L52.6069 13.8422C52.9842 13.4647 53.4321 13.1652 53.9252 12.9609C54.4182 12.7565 54.9467 12.6514 55.4804 12.6514C56.0142 12.6514 56.5426 12.7565 57.0357 12.9609C57.5288 13.1652 57.9767 13.4647 58.354 13.8422Z" fill="#35A2EB"/>
</svg>
