<svg width="13" height="11" viewBox="0 0 13 11" fill="none" xmlns="http://www.w3.org/2000/svg">
<path d="M12.6979 1.12473C12.2957 0.721969 11.6426 0.722223 11.2398 1.12473L4.67723 7.68756L1.76045 4.7708C1.35769 4.36804 0.704826 4.36804 0.302068 4.7708C-0.100689 5.17356 -0.100689 5.82642 0.302068 6.22918L3.94789 9.875C4.14914 10.0763 4.41303 10.1771 4.67695 10.1771C4.94087 10.1771 5.20502 10.0765 5.40627 9.875L12.6979 2.58308C13.1007 2.1806 13.1007 1.52746 12.6979 1.12473Z" fill="white"/>
<path d="M12.6979 1.12473C12.2957 0.721969 11.6426 0.722223 11.2398 1.12473L4.67723 7.68756L1.76045 4.7708C1.35769 4.36804 0.704826 4.36804 0.302068 4.7708C-0.100689 5.17356 -0.100689 5.82642 0.302068 6.22918L3.94789 9.875C4.14914 10.0763 4.41303 10.1771 4.67695 10.1771C4.94087 10.1771 5.20502 10.0765 5.40627 9.875L12.6979 2.58308C13.1007 2.1806 13.1007 1.52746 12.6979 1.12473Z" fill="url(#paint0_linear_514_1784)"/>
<path d="M12.6979 1.12473C12.2957 0.721969 11.6426 0.722223 11.2398 1.12473L4.67723 7.68756L1.76045 4.7708C1.35769 4.36804 0.704826 4.36804 0.302068 4.7708C-0.100689 5.17356 -0.100689 5.82642 0.302068 6.22918L3.94789 9.875C4.14914 10.0763 4.41303 10.1771 4.67695 10.1771C4.94087 10.1771 5.20502 10.0765 5.40627 9.875L12.6979 2.58308C13.1007 2.1806 13.1007 1.52746 12.6979 1.12473Z" fill="url(#paint1_linear_514_1784)"/>
<defs>
<linearGradient id="paint0_linear_514_1784" x1="0" y1="0.822754" x2="2.65244" y2="12.6245" gradientUnits="userSpaceOnUse">
<stop stop-color="#1A99FB"/>
<stop offset="1" stop-color="#0C5E9A"/>
</linearGradient>
<linearGradient id="paint1_linear_514_1784" x1="6.50037" y1="10.1771" x2="6.50037" y2="0.822754" gradientUnits="userSpaceOnUse">
<stop stop-color="#005357"/>
<stop offset="1" stop-color="#007F85"/>
</linearGradient>
</defs>
</svg>
