<svg width="23" height="23" viewBox="0 0 23 23" fill="none" xmlns="http://www.w3.org/2000/svg">
<path fill-rule="evenodd" clip-rule="evenodd" d="M16.8028 8.35621C17.1276 8.69666 17.1149 9.23595 16.7744 9.56075L10.5231 15.5246C10.1937 15.8388 9.67546 15.8386 9.34635 15.5241L6.22599 12.5422C5.88581 12.2171 5.87358 11.6778 6.19866 11.3376C6.52375 10.9974 7.06305 10.9852 7.40323 11.3103L9.93546 13.7301L15.5982 8.32785C15.9387 8.00306 16.478 8.01575 16.8028 8.35621Z" fill="#1D8164"/>
<path fill-rule="evenodd" clip-rule="evenodd" d="M11.5005 2.12851C6.32461 2.12851 2.12875 6.32437 2.12875 11.5002C2.12875 16.6761 6.32461 20.8719 11.5005 20.8719C16.6763 20.8719 20.8722 16.6761 20.8722 11.5002C20.8722 6.32437 16.6763 2.12851 11.5005 2.12851ZM0.424805 11.5002C0.424805 5.3833 5.38355 0.424561 11.5005 0.424561C17.6174 0.424561 22.5761 5.3833 22.5761 11.5002C22.5761 17.6171 17.6174 22.5759 11.5005 22.5759C5.38355 22.5759 0.424805 17.6171 0.424805 11.5002Z" fill="#1D8164"/>
</svg>
