<svg width="22" height="22" viewBox="0 0 22 22" fill="none" xmlns="http://www.w3.org/2000/svg">
<rect width="3.24761" height="3.24761" transform="matrix(-1 0 0 1 14.6142 6.4953)" fill="black"/>
<rect width="3.24761" height="3.24761" transform="matrix(-1 0 0 1 21.1098 0.000244141)" fill="black"/>
<rect width="3.24761" height="3.24761" transform="matrix(-1 0 0 1 11.3666 9.74292)" fill="black"/>
<rect width="3.24761" height="3.24761" transform="matrix(-1 0 0 1 17.8617 3.24774)" fill="black"/>
<rect width="3.24761" height="3.24761" transform="matrix(-1 0 0 1 8.11907 12.9906)" fill="black"/>
<rect width="3.24761" height="3.24761" transform="matrix(-1 0 0 1 12.9907 8.11914)" fill="black"/>
<rect width="3.24761" height="3.24761" transform="matrix(-1 0 0 1 19.4858 1.62396)" fill="black"/>
<rect width="3.24761" height="3.24761" transform="matrix(-1 0 0 1 9.7431 11.3668)" fill="black"/>
<rect width="3.24761" height="3.24761" transform="matrix(-1 0 0 1 16.2382 4.87152)" fill="black"/>
<rect width="3.24761" height="3.24761" transform="matrix(-1 0 0 1 6.49505 14.6144)" fill="black"/>
<rect width="3.24761" height="3.24761" transform="matrix(-1 0 0 1 4.87151 16.2382)" fill="black"/>
<rect width="3.24761" height="3.24761" transform="matrix(-1 0 0 1 3.24798 17.862)" fill="black"/>
<rect x="6.49505" y="6.49524" width="3.24761" height="3.24761" fill="black"/>
<rect x="0.000908821" width="3.24761" height="3.24761" fill="black"/>
<rect x="9.7431" y="9.74286" width="3.24761" height="3.24761" fill="black"/>
<rect x="3.24896" y="3.24762" width="3.24761" height="3.24761" fill="black"/>
<rect x="12.9907" y="12.9905" width="3.24761" height="3.24761" fill="black"/>
<rect x="8.11907" y="8.11908" width="3.24761" height="3.24761" fill="black"/>
<rect x="1.62493" y="1.62384" width="3.24761" height="3.24761" fill="black"/>
<rect x="11.3666" y="11.3667" width="3.24761" height="3.24761" fill="black"/>
<rect x="4.87151" y="4.87146" width="3.24761" height="3.24761" fill="black"/>
<rect x="14.6147" y="14.6143" width="3.24761" height="3.24761" fill="black"/>
<rect x="16.2382" y="16.2382" width="3.24761" height="3.24761" fill="black"/>
<rect x="17.8617" y="17.8619" width="3.24761" height="3.24761" fill="black"/>
</svg>
