<svg width="103" height="106" viewBox="0 0 103 106" fill="none" xmlns="http://www.w3.org/2000/svg">
<path d="M0 0V5.88731C0 22.1755 5.86854 33.9228 11.165 43.0049C16.4615 52.0871 20.6 58.546 20.6 64.7604H30.9C30.9 64.6652 30.8807 64.5792 30.8799 64.4844C35.9191 77.5132 41.2 82.4223 41.2 82.4223H61.8C61.8 82.4223 67.0809 77.5132 72.1201 64.4844C72.1193 64.5792 72.1 64.6652 72.1 64.7604H82.4C82.4 58.546 86.5385 52.0871 91.835 43.0049C97.1315 33.9228 103 22.1755 103 5.88731V0H0ZM11.2857 11.7746H22.0082C22.337 25.9517 23.7866 37.5624 25.7902 46.949C23.8784 43.3705 21.7489 39.9271 19.735 36.4737C15.5976 29.3792 12.4588 21.518 11.2857 11.7746ZM80.9918 11.7746H91.7143C90.5412 21.518 87.4024 29.3792 83.265 36.4737C81.2511 39.9271 79.1216 43.3705 77.2098 46.949C79.2134 37.5624 80.663 25.9517 80.9918 11.7746ZM25.75 94.1969V105.972H77.25V94.1969H25.75Z" fill="#404040" fill-opacity="0.1"/>
</svg>
