<svg width="187" height="195" viewBox="0 0 187 195" fill="none" xmlns="http://www.w3.org/2000/svg">
<path d="M22.5951 142.71C21.5987 147.293 24.503 151.815 29.0858 152.811C40.1188 155.21 59.256 159.371 68.1029 161.295C86.8713 165.376 102.409 164.766 108.896 163.117C109.045 163.08 121.004 158.935 132.754 151.57C142.167 145.669 151.785 134.876 152.656 133.517C157.914 125.303 160.614 120.131 163.738 105.762C166.311 93.9204 171.662 69.3109 174.467 56.4109C175.464 51.828 172.556 47.3051 167.973 46.3087L57.4691 22.2832C52.8863 21.2868 48.3635 24.1941 47.3671 28.7769L22.5951 142.71Z" fill="#35A2EB"/>
<path d="M57.5281 86.6844L59.6872 76.7326L69.0277 78.7591L66.8686 88.7109L64.0821 88.1063L65.8926 79.7611L66.3825 80.5223L61.3639 79.4335L62.111 78.9406L60.3004 87.2859L57.5281 86.6844ZM72.9067 83.6348L77.5271 84.6372L77.0706 86.7413L72.4502 85.7389L72.9067 83.6348ZM72.2544 87.6018L77.4578 88.7307L76.9858 90.9059L68.996 89.1724L71.1551 79.2207L78.9601 80.914L78.4882 83.0892L73.4697 82.0004L72.2544 87.6018ZM78.5896 91.2538L80.7487 81.302L85.298 82.289C86.2079 82.4864 86.958 82.803 87.5482 83.2387C88.1479 83.6764 88.5672 84.214 88.806 84.8513C89.0469 85.4792 89.0851 86.1722 88.9206 86.9304C88.7582 87.6792 88.4372 88.2894 87.9578 88.7609C87.4784 89.2325 86.874 89.548 86.1448 89.7073C85.4271 89.8593 84.6133 89.8365 83.7034 89.6391L80.7179 88.9914L82.2342 88.0402L81.4045 91.8645L78.5896 91.2538ZM82.1694 88.3387L81.199 86.7736L84.014 87.3843C84.6016 87.5118 85.0653 87.4784 85.4052 87.2842C85.7545 87.0921 85.9785 86.7685 86.0772 86.3136C86.178 85.8491 86.1092 85.4571 85.8709 85.1375C85.6421 84.8199 85.2339 84.5973 84.6463 84.4699L81.8313 83.8591L83.3631 82.8368L82.1694 88.3387ZM92.7463 87.9391L97.3668 88.9415L96.9103 91.0456L92.2898 90.0432L92.7463 87.9391ZM92.0941 91.9061L97.2974 93.035L96.8255 95.2102L88.8357 93.4767L90.9948 83.525L98.7998 85.2183L98.3279 87.3935L93.3093 86.3047L92.0941 91.9061ZM103.234 96.8089C102.447 96.6383 101.744 96.3567 101.125 95.9643C100.517 95.5645 100.017 95.0789 99.6248 94.5075C99.2421 93.9382 98.9813 93.311 98.8421 92.6258C98.705 91.9312 98.7187 91.2048 98.8832 90.4465C99.0477 89.6883 99.3353 89.0262 99.7459 88.4603C100.158 87.8849 100.657 87.4175 101.241 87.0579C101.835 86.7004 102.49 86.4704 103.207 86.368C103.935 86.258 104.693 86.2884 105.479 86.4591C106.399 86.6586 107.184 86.9976 107.834 87.4761C108.494 87.9567 109 88.5527 109.352 89.2641L107.209 90.4962C106.969 90.0472 106.676 89.681 106.33 89.3977C105.995 89.1164 105.59 88.9243 105.116 88.8215C104.708 88.7331 104.319 88.7182 103.949 88.7769C103.579 88.8355 103.243 88.9661 102.942 89.1685C102.651 89.3635 102.397 89.621 102.179 89.9408C101.97 90.2627 101.819 90.6369 101.727 91.0634C101.634 91.4899 101.616 91.8929 101.673 92.2724C101.739 92.6539 101.863 92.9983 102.044 93.3056C102.237 93.6055 102.49 93.8588 102.802 94.0655C103.114 94.2722 103.474 94.4198 103.882 94.5082C104.356 94.611 104.804 94.6041 105.226 94.4873C105.658 94.3725 106.076 94.1606 106.481 93.8514L107.92 95.8607C107.307 96.353 106.6 96.6858 105.798 96.8592C105.008 97.0251 104.153 97.0084 103.234 96.8089ZM110.948 98.2742L112.759 89.9289L113.249 90.6902L109.567 89.8913L110.051 87.6593L118.922 89.584L118.438 91.816L114.77 91.0202L115.531 90.5304L113.721 98.8757L110.948 98.2742ZM116.566 99.4929L123.118 90.4942L125.89 91.0957L128.138 102.004L125.209 101.368L123.629 92.0491L124.738 92.2897L119.437 100.116L116.566 99.4929ZM119.388 98.0807L120.563 96.1623L125.425 97.2172L125.7 99.4502L119.388 98.0807ZM138.091 93.7428L140.906 94.3535L138.747 104.305L135.932 103.695L138.091 93.7428ZM132.094 102.862L129.279 102.251L131.438 92.2993L134.253 92.91L132.094 102.862ZM136.973 99.8566L132.737 98.9374L133.242 96.6058L137.479 97.525L136.973 99.8566ZM141.938 102.661C142.462 102.943 142.906 103.094 143.269 103.113C143.644 103.125 144.013 102.957 144.376 102.609L145.013 102.003L145.314 101.785L149.755 96.2733L152.499 96.8686L146.707 103.665C146.135 104.335 145.519 104.817 144.86 105.111C144.211 105.406 143.543 105.51 142.858 105.42C142.173 105.331 141.493 105.055 140.82 104.591L141.938 102.661ZM144.781 104.036L142.063 94.6046L145.035 95.2492L146.748 102.379L144.781 104.036Z" fill="white"/>
<path d="M53.5016 98.5006C52.8426 98.3576 52.2576 98.1198 51.7465 97.7871C51.2355 97.4545 50.8138 97.0508 50.4814 96.5762C50.1585 96.0954 49.9395 95.5715 49.8243 95.0044C49.7092 94.4372 49.7188 93.8438 49.8533 93.224C49.9877 92.6042 50.2249 92.0601 50.5647 91.5917C50.9046 91.1233 51.3202 90.7411 51.8115 90.4452C52.3124 90.1432 52.8643 89.9467 53.4673 89.8557C54.0703 89.7647 54.7012 89.7907 55.3602 89.9337C56.0271 90.0784 56.6121 90.3162 57.1153 90.6471C57.6264 90.9798 58.0433 91.3865 58.3661 91.8673C58.6907 92.3402 58.9106 92.8602 59.0257 93.4274C59.1487 93.9962 59.143 94.5905 59.0086 95.2103C58.8741 95.8301 58.6322 96.3772 58.2828 96.8518C57.9429 97.3202 57.5273 97.7024 57.036 97.9983C56.5446 98.2942 55.9975 98.4876 55.3945 98.5786C54.7994 98.6713 54.1684 98.6453 53.5016 98.5006ZM53.9203 96.5707C54.2341 96.6388 54.5363 96.6468 54.8269 96.5949C55.1253 96.5446 55.3947 96.4388 55.635 96.2773C55.885 96.1098 56.0963 95.8928 56.2691 95.6263C56.4498 95.3616 56.5784 95.0527 56.655 94.6997C56.7333 94.3388 56.7443 94.0044 56.6879 93.6964C56.641 93.3823 56.5377 93.1012 56.378 92.8529C56.2278 92.5986 56.0274 92.3867 55.7766 92.2173C55.5337 92.0496 55.2553 91.9317 54.9415 91.8636C54.6277 91.7955 54.3216 91.7866 54.0232 91.8369C53.7326 91.8888 53.4624 91.9986 53.2125 92.1662C52.9721 92.3276 52.7616 92.5407 52.5809 92.8054C52.4098 93.064 52.2851 93.3737 52.2068 93.7346C52.1302 94.0876 52.1153 94.4212 52.1622 94.7353C52.2169 95.0511 52.3193 95.3362 52.4695 95.5906C52.6292 95.8388 52.8306 96.0468 53.0735 96.2145C53.3242 96.3839 53.6065 96.5026 53.9203 96.5707ZM61.0699 99.9701L62.5685 93.0624L62.974 93.6925L59.9261 93.0313L60.327 91.1837L67.67 92.7769L67.2692 94.6244L64.2331 93.9657L64.8633 93.5603L63.3646 100.468L61.0699 99.9701ZM72.1583 102.376L70.6902 97.9542L72.8013 97.2539L74.7825 102.945L72.1583 102.376ZM66.9099 101.237L68.6971 92.9997L71.0153 93.5026L69.2282 101.74L66.9099 101.237ZM69.2416 98.4408L69.6501 96.5579L72.6391 97.2064L72.2306 99.0893L69.2416 98.4408ZM72.7747 98.4557L70.6723 97.7531L74.0985 94.1715L76.5461 94.7026L72.7747 98.4557ZM76.0704 103.372C75.9135 103.338 75.7474 103.29 75.5721 103.227C75.4046 103.166 75.2279 103.091 75.042 103.001L75.585 101.123C75.6897 101.17 75.7931 101.205 75.8951 101.227C76.2167 101.297 76.4872 101.224 76.7064 101.009C76.9273 100.786 77.1193 100.45 77.2825 100C77.4536 99.5529 77.6141 99.021 77.7643 98.4046L78.5943 95.1469L85.2313 96.5869L83.4441 104.824L81.1494 104.326L82.6481 97.4188L83.0418 98.0463L79.7115 97.3238L80.2996 96.8846L79.8323 98.7547C79.6352 99.5498 79.4237 100.26 79.1978 100.884C78.9736 101.501 78.718 102.016 78.431 102.431C78.1457 102.837 77.808 103.125 77.4179 103.295C77.0374 103.459 76.5882 103.485 76.0704 103.372ZM84.3824 105.028L89.8058 97.5793L92.1005 98.0772L93.9614 107.106L91.5372 106.58L90.2289 98.8663L91.1468 99.0655L86.7595 105.544L84.3824 105.028ZM86.7184 103.859L87.6913 102.271L91.7159 103.144L91.9433 104.992L86.7184 103.859ZM100.642 107.496L101.809 102.118L99.4435 101.605L99.2142 102.491C99.0947 102.967 98.9663 103.407 98.829 103.813C98.6995 104.22 98.5582 104.588 98.4048 104.916C98.2593 105.246 98.0966 105.522 97.9166 105.746C97.7462 105.964 97.5602 106.121 97.3586 106.217L94.9395 105.384C95.2123 105.451 95.4555 105.409 95.669 105.259C95.8919 105.102 96.0919 104.862 96.2688 104.539C96.4535 104.217 96.6204 103.826 96.7696 103.366C96.9267 102.907 97.0774 102.402 97.2218 101.85L97.8674 99.3283L104.504 100.768L102.937 107.994L100.642 107.496ZM93.9315 108.837L94.6923 105.33L104.236 107.401L103.475 110.907L101.345 110.445L101.705 108.786L96.4332 107.642L96.0733 109.302L93.9315 108.837ZM110.368 104.788C111.372 105.006 112.101 105.398 112.553 105.964C113.013 106.532 113.146 107.264 112.952 108.158C112.742 109.123 112.274 109.785 111.547 110.145C110.82 110.505 109.919 110.568 108.844 110.335L104.949 109.49L106.736 101.253L109.031 101.75L108.462 104.375L110.368 104.788ZM109.054 108.631C109.446 108.716 109.779 108.677 110.053 108.515C110.334 108.354 110.516 108.081 110.6 107.697C110.685 107.305 110.627 107.005 110.425 106.797C110.234 106.583 109.942 106.433 109.549 106.348L108.102 106.034L107.607 108.317L109.054 108.631ZM113.222 111.285L115.009 103.047L117.304 103.545L115.517 111.783L113.222 111.285ZM117.292 112.168L119.079 103.93L123.08 104.798C124.068 105.013 124.792 105.367 125.252 105.861C125.721 106.349 125.882 106.934 125.734 107.617C125.589 108.283 125.22 108.754 124.627 109.028C124.035 109.293 123.312 109.334 122.456 109.148L122.812 108.646C123.738 108.847 124.419 109.188 124.857 109.669C125.304 110.144 125.452 110.734 125.298 111.44C125.142 112.162 124.735 112.674 124.078 112.975C123.429 113.278 122.575 113.314 121.516 113.084L117.292 112.168ZM119.949 110.995L121.785 111.393C122.122 111.466 122.388 111.45 122.584 111.344C122.789 111.233 122.922 111.036 122.983 110.753C123.044 110.471 123.003 110.244 122.859 110.073C122.725 109.897 122.49 109.771 122.152 109.698L120.317 109.3L119.949 110.995ZM120.659 107.723L122.141 108.045C122.471 108.116 122.732 108.103 122.926 108.006C123.122 107.9 123.248 107.714 123.306 107.447C123.364 107.181 123.325 106.963 123.189 106.793C123.055 106.617 122.823 106.492 122.494 106.421L121.011 106.099L120.659 107.723ZM125.225 113.889L130.648 106.44L132.943 106.938L134.804 115.967L132.38 115.441L131.071 107.727L131.989 107.926L127.602 114.405L125.225 113.889ZM127.561 112.72L128.534 111.132L132.558 112.005L132.786 113.853L127.561 112.72ZM137.158 116.478L138.657 109.57L139.062 110.2L136.014 109.539L136.415 107.691L143.758 109.285L143.357 111.132L140.321 110.473L140.951 110.068L139.453 116.976L137.158 116.478ZM148.464 113.053C149.468 113.271 150.196 113.663 150.648 114.23C151.108 114.798 151.241 115.529 151.047 116.423C150.838 117.388 150.37 118.05 149.643 118.41C148.916 118.77 148.015 118.833 146.94 118.6L143.045 117.755L144.832 109.518L147.127 110.015L146.558 112.64L148.464 113.053ZM147.15 116.896C147.542 116.981 147.875 116.942 148.148 116.78C148.43 116.619 148.612 116.347 148.695 115.962C148.781 115.57 148.722 115.27 148.521 115.062C148.329 114.848 148.037 114.698 147.645 114.613L146.198 114.299L145.702 116.582L147.15 116.896Z" fill="white"/>
<path d="M136.385 149.857C152.721 137.55 158.874 122.23 158.874 122.23C158.874 122.23 147.644 133.782 130.487 134.236C130.487 134.236 118.289 157.517 103.881 163.962C103.881 163.962 120.302 161.975 136.384 149.859L136.385 149.857Z" fill="#1E8DD8"/>
<path d="M173.047 62.9362L45.9493 35.3011L47.3674 28.7774C48.3636 24.1944 52.8866 21.2868 57.4695 22.2833L167.972 46.3086C172.556 47.305 175.463 51.8277 174.467 56.411C174.046 58.3496 173.567 60.5526 173.049 62.937L173.047 62.9362Z" fill="#44B4FF"/>
</svg>
