<svg width="24" height="26" viewBox="0 0 24 26" fill="none" xmlns="http://www.w3.org/2000/svg">
<path fill-rule="evenodd" clip-rule="evenodd" d="M0.75 5.5625C0.75 5.04473 1.16973 4.625 1.6875 4.625H22.3125C22.8303 4.625 23.25 5.04473 23.25 5.5625C23.25 6.08027 22.8303 6.5 22.3125 6.5H1.6875C1.16973 6.5 0.75 6.08027 0.75 5.5625Z" fill="#3E3236"/>
<path fill-rule="evenodd" clip-rule="evenodd" d="M9.1875 10.25C9.70527 10.25 10.125 10.6697 10.125 11.1875V18.6875C10.125 19.2053 9.70527 19.625 9.1875 19.625C8.66973 19.625 8.25 19.2053 8.25 18.6875V11.1875C8.25 10.6697 8.66973 10.25 9.1875 10.25Z" fill="#3E3236"/>
<path fill-rule="evenodd" clip-rule="evenodd" d="M14.8125 10.25C15.3303 10.25 15.75 10.6697 15.75 11.1875V18.6875C15.75 19.2053 15.3303 19.625 14.8125 19.625C14.2947 19.625 13.875 19.2053 13.875 18.6875V11.1875C13.875 10.6697 14.2947 10.25 14.8125 10.25Z" fill="#3E3236"/>
<path fill-rule="evenodd" clip-rule="evenodd" d="M3.5625 4.625C4.08027 4.625 4.5 5.04473 4.5 5.5625V23.375H19.5V5.5625C19.5 5.04473 19.9197 4.625 20.4375 4.625C20.9553 4.625 21.375 5.04473 21.375 5.5625V23.375C21.375 23.8723 21.1775 24.3492 20.8258 24.7008C20.4742 25.0525 19.9973 25.25 19.5 25.25H4.5C4.00272 25.25 3.52581 25.0525 3.17418 24.7008C2.82254 24.3492 2.625 23.8723 2.625 23.375V5.5625C2.625 5.04473 3.04473 4.625 3.5625 4.625Z" fill="#3E3236"/>
<path fill-rule="evenodd" clip-rule="evenodd" d="M7.19876 1.69876C7.72621 1.17132 8.44158 0.875 9.1875 0.875H14.8125C15.5584 0.875 16.2738 1.17132 16.8012 1.69876C17.3287 2.22621 17.625 2.94158 17.625 3.6875V5.5625C17.625 6.08027 17.2053 6.5 16.6875 6.5C16.1697 6.5 15.75 6.08027 15.75 5.5625V3.6875C15.75 3.43886 15.6512 3.2004 15.4754 3.02459C15.2996 2.84877 15.0611 2.75 14.8125 2.75H9.1875C8.93886 2.75 8.7004 2.84877 8.52459 3.02459C8.34877 3.2004 8.25 3.43886 8.25 3.6875V5.5625C8.25 6.08027 7.83027 6.5 7.3125 6.5C6.79473 6.5 6.375 6.08027 6.375 5.5625V3.6875C6.375 2.94158 6.67132 2.22621 7.19876 1.69876Z" fill="#3E3236"/>
</svg>
