<svg width="23" height="23" viewBox="0 0 23 23" fill="none" xmlns="http://www.w3.org/2000/svg">
<path fill-rule="evenodd" clip-rule="evenodd" d="M11.5005 2.12826C6.32461 2.12826 2.12875 6.32412 2.12875 11.5C2.12875 16.6758 6.32461 20.8717 11.5005 20.8717C16.6763 20.8717 20.8722 16.6758 20.8722 11.5C20.8722 6.32412 16.6763 2.12826 11.5005 2.12826ZM0.424805 11.5C0.424805 5.38306 5.38355 0.424316 11.5005 0.424316C17.6174 0.424316 22.5761 5.38306 22.5761 11.5C22.5761 17.6169 17.6174 22.5756 11.5005 22.5756C5.38355 22.5756 0.424805 17.6169 0.424805 11.5Z" fill="#D94A44"/>
<path fill-rule="evenodd" clip-rule="evenodd" d="M15.5108 7.48964C15.8435 7.82236 15.8435 8.3618 15.5108 8.69452L8.695 15.5103C8.36229 15.843 7.82285 15.843 7.49013 15.5103C7.15741 15.1776 7.15741 14.6381 7.49013 14.3054L14.3059 7.48964C14.6386 7.15693 15.1781 7.15693 15.5108 7.48964Z" fill="#D94A44"/>
<path fill-rule="evenodd" clip-rule="evenodd" d="M7.49013 7.48964C7.82285 7.15693 8.36229 7.15693 8.695 7.48964L15.5108 14.3054C15.8435 14.6381 15.8435 15.1776 15.5108 15.5103C15.1781 15.843 14.6386 15.843 14.3059 15.5103L7.49013 8.69452C7.15741 8.3618 7.15741 7.82236 7.49013 7.48964Z" fill="#D94A44"/>
</svg>
