<svg width="23" height="23" viewBox="0 0 23 23" fill="none" xmlns="http://www.w3.org/2000/svg">
<path fill-rule="evenodd" clip-rule="evenodd" d="M11.5005 2.12826C6.32461 2.12826 2.12875 6.32412 2.12875 11.5C2.12875 16.6758 6.32461 20.8717 11.5005 20.8717C16.6763 20.8717 20.8722 16.6758 20.8722 11.5C20.8722 6.32412 16.6763 2.12826 11.5005 2.12826ZM0.424805 11.5C0.424805 5.38306 5.38355 0.424316 11.5005 0.424316C17.6174 0.424316 22.5761 5.38306 22.5761 11.5C22.5761 17.6169 17.6174 22.5756 11.5005 22.5756C5.38355 22.5756 0.424805 17.6169 0.424805 11.5Z" fill="#404040"/>
<path fill-rule="evenodd" clip-rule="evenodd" d="M11.5005 6.38813C8.67727 6.38813 6.38862 8.67678 6.38862 11.5C6.38862 14.3232 8.67727 16.6118 11.5005 16.6118C14.3237 16.6118 16.6123 14.3232 16.6123 11.5C16.6123 8.67678 14.3237 6.38813 11.5005 6.38813ZM4.68467 11.5C4.68467 7.73572 7.73621 4.68418 11.5005 4.68418C15.2647 4.68418 18.3163 7.73572 18.3163 11.5C18.3163 15.2642 15.2647 18.3158 11.5005 18.3158C7.73621 18.3158 4.68467 15.2642 4.68467 11.5Z" fill="#404040"/>
</svg>
