<svg width="25" height="19" viewBox="0 0 25 19" fill="none" xmlns="http://www.w3.org/2000/svg">
<path d="M0.904297 3.5316L12.4999 9.3287L24.0956 3.5316C24.0527 2.79275 23.7289 2.09826 23.1905 1.59038C22.6522 1.0825 21.9401 0.799669 21.1999 0.799805H3.79995C3.05984 0.799669 2.3477 1.0825 1.80935 1.59038C1.27101 2.09826 0.947223 2.79275 0.904297 3.5316Z" fill="#E73F0C"/>
<path d="M24.1004 6.77051L12.5004 12.5705L0.900391 6.77051V15.2994C0.900391 16.0685 1.20593 16.8062 1.74978 17.35C2.29364 17.8939 3.03126 18.1994 3.80039 18.1994H21.2004C21.9695 18.1994 22.7071 17.8939 23.251 17.35C23.7949 16.8062 24.1004 16.0685 24.1004 15.2994V6.77051Z" fill="#E73F0C"/>
</svg>
