<svg width="30" height="30" viewBox="0 0 30 30" fill="none" xmlns="http://www.w3.org/2000/svg">
<g clip-path="url(#clip0_514_768)">
<path d="M0.0585938 13.1445V28.691L10.0528 20.9178L0.0585938 13.1445Z" fill="black"/>
<path d="M0.0585938 13.1445V28.691L10.0528 20.9178L0.0585938 13.1445Z" fill="url(#paint0_linear_514_768)"/>
<path d="M0.0585938 13.1445V28.691L10.0528 20.9178L0.0585938 13.1445Z" fill="url(#paint1_linear_514_768)"/>
<path d="M26.1328 9.1001V13.8799L29.0844 11.5843L26.1328 9.1001Z" fill="black"/>
<path d="M26.1328 9.1001V13.8799L29.0844 11.5843L26.1328 9.1001Z" fill="url(#paint2_linear_514_768)"/>
<path d="M26.1328 9.1001V13.8799L29.0844 11.5843L26.1328 9.1001Z" fill="url(#paint3_linear_514_768)"/>
<path d="M15.566 0.206411C15.2389 -0.0688037 14.7612 -0.0688037 14.4341 0.206411L12.1035 2.16795H17.8965L15.566 0.206411Z" fill="black"/>
<path d="M15.566 0.206411C15.2389 -0.0688037 14.7612 -0.0688037 14.4341 0.206411L12.1035 2.16795H17.8965L15.566 0.206411Z" fill="url(#paint4_linear_514_768)"/>
<path d="M15.566 0.206411C15.2389 -0.0688037 14.7612 -0.0688037 14.4341 0.206411L12.1035 2.16795H17.8965L15.566 0.206411Z" fill="url(#paint5_linear_514_768)"/>
<path d="M3.86756 9.1001L0.916016 11.5843L3.86756 13.8799V9.1001Z" fill="black"/>
<path d="M3.86756 9.1001L0.916016 11.5843L3.86756 13.8799V9.1001Z" fill="url(#paint6_linear_514_768)"/>
<path d="M3.86756 9.1001L0.916016 11.5843L3.86756 13.8799V9.1001Z" fill="url(#paint7_linear_514_768)"/>
<path d="M11.7859 21.7969L1.23901 30H28.761L18.2141 21.7969H11.7859Z" fill="black"/>
<path d="M11.7859 21.7969L1.23901 30H28.761L18.2141 21.7969H11.7859Z" fill="url(#paint8_linear_514_768)"/>
<path d="M11.7859 21.7969L1.23901 30H28.761L18.2141 21.7969H11.7859Z" fill="url(#paint9_linear_514_768)"/>
<path d="M19.9471 20.9179L29.9414 28.6912V13.1445L19.9471 20.9179Z" fill="black"/>
<path d="M19.9471 20.9179L29.9414 28.6912V13.1445L19.9471 20.9179Z" fill="url(#paint10_linear_514_768)"/>
<path d="M19.9471 20.9179L29.9414 28.6912V13.1445L19.9471 20.9179Z" fill="url(#paint11_linear_514_768)"/>
<path d="M14.7784 10.5098C14.0655 10.5098 13.3281 11.2029 13.3281 12.3629C13.3281 13.5421 14.0474 14.3343 14.7193 14.3343C15.4267 14.3343 16.0069 13.5065 16.0486 12.4658L16.0497 12.2448C16.0181 11.218 15.5043 10.5098 14.7784 10.5098Z" fill="black"/>
<path d="M14.7784 10.5098C14.0655 10.5098 13.3281 11.2029 13.3281 12.3629C13.3281 13.5421 14.0474 14.3343 14.7193 14.3343C15.4267 14.3343 16.0069 13.5065 16.0486 12.4658L16.0497 12.2448C16.0181 11.218 15.5043 10.5098 14.7784 10.5098Z" fill="url(#paint12_linear_514_768)"/>
<path d="M14.7784 10.5098C14.0655 10.5098 13.3281 11.2029 13.3281 12.3629C13.3281 13.5421 14.0474 14.3343 14.7193 14.3343C15.4267 14.3343 16.0069 13.5065 16.0486 12.4658L16.0497 12.2448C16.0181 11.218 15.5043 10.5098 14.7784 10.5098Z" fill="url(#paint13_linear_514_768)"/>
<path d="M18.2141 20.0391L24.375 15.2472V4.80469C24.375 4.3193 23.9815 3.92578 23.4961 3.92578H6.50391C6.01852 3.92578 5.625 4.3193 5.625 4.80469V15.2473L11.7859 20.0391H18.2141ZM8.80418 14.0571C8.38447 12.4613 8.59553 10.779 9.39855 9.32004C10.2012 7.86164 11.5093 6.78281 13.0818 6.28225C14.7407 5.75402 16.5022 5.90965 18.0415 6.72041C19.5811 7.53123 20.7059 8.89506 21.2085 10.5607C21.2113 10.5697 21.2139 10.5789 21.2163 10.588C21.5504 11.8396 21.4515 13.0211 20.8955 14.4188C20.5198 15.3636 19.5985 16.3731 18.1398 16.3731C17.6106 16.3731 17.1031 16.1561 16.7109 15.762C16.6181 15.6687 16.5345 15.5671 16.4596 15.4594C15.967 15.8601 15.3696 16.0919 14.7193 16.0919C13.8698 16.0919 13.0439 15.6795 12.4533 14.9604C11.8839 14.2672 11.5704 13.3446 11.5704 12.3626C11.5704 11.3763 11.904 10.4636 12.5099 9.79271C13.1073 9.13119 13.9342 8.75174 14.7785 8.75174C15.2429 8.75174 15.6841 8.86242 16.0806 9.07096C16.1575 8.66356 16.5146 8.35576 16.9435 8.35576H16.9479C17.4333 8.35816 17.8249 8.75361 17.8225 9.239L17.7983 14.1219C17.7976 14.2719 17.8569 14.4214 17.9569 14.5219C17.9916 14.5568 18.0614 14.6152 18.1398 14.6152C18.849 14.6152 19.161 14.0235 19.2621 13.7691C19.6727 12.7369 19.7505 11.9241 19.5215 11.0548C19.1539 9.84979 18.3379 8.86313 17.2225 8.27566C16.1031 7.68609 14.8218 7.57307 13.615 7.95715C11.2361 8.71441 9.86971 11.1974 10.5042 13.6099C11.0311 15.6134 12.8421 17.0525 14.9081 17.1097C15.3933 17.1231 15.7758 17.5273 15.7624 18.0125C15.7492 18.4895 15.3584 18.8671 14.8843 18.8671C14.876 18.8671 14.8678 18.867 14.8595 18.8668C13.4975 18.8291 12.153 18.3453 11.0736 17.5044C9.95227 16.6308 9.16758 15.4388 8.80418 14.0571Z" fill="black"/>
<path d="M18.2141 20.0391L24.375 15.2472V4.80469C24.375 4.3193 23.9815 3.92578 23.4961 3.92578H6.50391C6.01852 3.92578 5.625 4.3193 5.625 4.80469V15.2473L11.7859 20.0391H18.2141ZM8.80418 14.0571C8.38447 12.4613 8.59553 10.779 9.39855 9.32004C10.2012 7.86164 11.5093 6.78281 13.0818 6.28225C14.7407 5.75402 16.5022 5.90965 18.0415 6.72041C19.5811 7.53123 20.7059 8.89506 21.2085 10.5607C21.2113 10.5697 21.2139 10.5789 21.2163 10.588C21.5504 11.8396 21.4515 13.0211 20.8955 14.4188C20.5198 15.3636 19.5985 16.3731 18.1398 16.3731C17.6106 16.3731 17.1031 16.1561 16.7109 15.762C16.6181 15.6687 16.5345 15.5671 16.4596 15.4594C15.967 15.8601 15.3696 16.0919 14.7193 16.0919C13.8698 16.0919 13.0439 15.6795 12.4533 14.9604C11.8839 14.2672 11.5704 13.3446 11.5704 12.3626C11.5704 11.3763 11.904 10.4636 12.5099 9.79271C13.1073 9.13119 13.9342 8.75174 14.7785 8.75174C15.2429 8.75174 15.6841 8.86242 16.0806 9.07096C16.1575 8.66356 16.5146 8.35576 16.9435 8.35576H16.9479C17.4333 8.35816 17.8249 8.75361 17.8225 9.239L17.7983 14.1219C17.7976 14.2719 17.8569 14.4214 17.9569 14.5219C17.9916 14.5568 18.0614 14.6152 18.1398 14.6152C18.849 14.6152 19.161 14.0235 19.2621 13.7691C19.6727 12.7369 19.7505 11.9241 19.5215 11.0548C19.1539 9.84979 18.3379 8.86313 17.2225 8.27566C16.1031 7.68609 14.8218 7.57307 13.615 7.95715C11.2361 8.71441 9.86971 11.1974 10.5042 13.6099C11.0311 15.6134 12.8421 17.0525 14.9081 17.1097C15.3933 17.1231 15.7758 17.5273 15.7624 18.0125C15.7492 18.4895 15.3584 18.8671 14.8843 18.8671C14.876 18.8671 14.8678 18.867 14.8595 18.8668C13.4975 18.8291 12.153 18.3453 11.0736 17.5044C9.95227 16.6308 9.16758 15.4388 8.80418 14.0571Z" fill="url(#paint14_linear_514_768)"/>
<path d="M18.2141 20.0391L24.375 15.2472V4.80469C24.375 4.3193 23.9815 3.92578 23.4961 3.92578H6.50391C6.01852 3.92578 5.625 4.3193 5.625 4.80469V15.2473L11.7859 20.0391H18.2141ZM8.80418 14.0571C8.38447 12.4613 8.59553 10.779 9.39855 9.32004C10.2012 7.86164 11.5093 6.78281 13.0818 6.28225C14.7407 5.75402 16.5022 5.90965 18.0415 6.72041C19.5811 7.53123 20.7059 8.89506 21.2085 10.5607C21.2113 10.5697 21.2139 10.5789 21.2163 10.588C21.5504 11.8396 21.4515 13.0211 20.8955 14.4188C20.5198 15.3636 19.5985 16.3731 18.1398 16.3731C17.6106 16.3731 17.1031 16.1561 16.7109 15.762C16.6181 15.6687 16.5345 15.5671 16.4596 15.4594C15.967 15.8601 15.3696 16.0919 14.7193 16.0919C13.8698 16.0919 13.0439 15.6795 12.4533 14.9604C11.8839 14.2672 11.5704 13.3446 11.5704 12.3626C11.5704 11.3763 11.904 10.4636 12.5099 9.79271C13.1073 9.13119 13.9342 8.75174 14.7785 8.75174C15.2429 8.75174 15.6841 8.86242 16.0806 9.07096C16.1575 8.66356 16.5146 8.35576 16.9435 8.35576H16.9479C17.4333 8.35816 17.8249 8.75361 17.8225 9.239L17.7983 14.1219C17.7976 14.2719 17.8569 14.4214 17.9569 14.5219C17.9916 14.5568 18.0614 14.6152 18.1398 14.6152C18.849 14.6152 19.161 14.0235 19.2621 13.7691C19.6727 12.7369 19.7505 11.9241 19.5215 11.0548C19.1539 9.84979 18.3379 8.86313 17.2225 8.27566C16.1031 7.68609 14.8218 7.57307 13.615 7.95715C11.2361 8.71441 9.86971 11.1974 10.5042 13.6099C11.0311 15.6134 12.8421 17.0525 14.9081 17.1097C15.3933 17.1231 15.7758 17.5273 15.7624 18.0125C15.7492 18.4895 15.3584 18.8671 14.8843 18.8671C14.876 18.8671 14.8678 18.867 14.8595 18.8668C13.4975 18.8291 12.153 18.3453 11.0736 17.5044C9.95227 16.6308 9.16758 15.4388 8.80418 14.0571Z" fill="url(#paint15_linear_514_768)"/>
</g>
<defs>
<linearGradient id="paint0_linear_514_768" x1="0.0585937" y1="13.1445" x2="8.15774" y2="29.8142" gradientUnits="userSpaceOnUse">
<stop stop-color="#1A99FB"/>
<stop offset="1" stop-color="#0C5E9A"/>
</linearGradient>
<linearGradient id="paint1_linear_514_768" x1="5.05596" y1="28.691" x2="5.05596" y2="13.1445" gradientUnits="userSpaceOnUse">
<stop stop-color="#005357"/>
<stop offset="1" stop-color="#007F85"/>
</linearGradient>
<linearGradient id="paint2_linear_514_768" x1="26.1328" y1="9.1001" x2="28.6843" y2="14.1445" gradientUnits="userSpaceOnUse">
<stop stop-color="#1A99FB"/>
<stop offset="1" stop-color="#0C5E9A"/>
</linearGradient>
<linearGradient id="paint3_linear_514_768" x1="27.6087" y1="13.8799" x2="27.6087" y2="9.1001" gradientUnits="userSpaceOnUse">
<stop stop-color="#005357"/>
<stop offset="1" stop-color="#007F85"/>
</linearGradient>
<linearGradient id="paint4_linear_514_768" x1="12.1035" y1="0" x2="12.4348" y2="2.83459" gradientUnits="userSpaceOnUse">
<stop stop-color="#1A99FB"/>
<stop offset="1" stop-color="#0C5E9A"/>
</linearGradient>
<linearGradient id="paint5_linear_514_768" x1="15.0002" y1="2.16795" x2="15.0002" y2="0" gradientUnits="userSpaceOnUse">
<stop stop-color="#005357"/>
<stop offset="1" stop-color="#007F85"/>
</linearGradient>
<linearGradient id="paint6_linear_514_768" x1="0.916016" y1="9.1001" x2="3.46755" y2="14.1445" gradientUnits="userSpaceOnUse">
<stop stop-color="#1A99FB"/>
<stop offset="1" stop-color="#0C5E9A"/>
</linearGradient>
<linearGradient id="paint7_linear_514_768" x1="2.39187" y1="13.8799" x2="2.39187" y2="9.1001" gradientUnits="userSpaceOnUse">
<stop stop-color="#005357"/>
<stop offset="1" stop-color="#007F85"/>
</linearGradient>
<linearGradient id="paint8_linear_514_768" x1="1.23901" y1="21.7969" x2="2.24246" y2="32.5756" gradientUnits="userSpaceOnUse">
<stop stop-color="#1A99FB"/>
<stop offset="1" stop-color="#0C5E9A"/>
</linearGradient>
<linearGradient id="paint9_linear_514_768" x1="15.0008" y1="30" x2="15.0008" y2="21.7969" gradientUnits="userSpaceOnUse">
<stop stop-color="#005357"/>
<stop offset="1" stop-color="#007F85"/>
</linearGradient>
<linearGradient id="paint10_linear_514_768" x1="19.9471" y1="13.1445" x2="28.0464" y2="29.8143" gradientUnits="userSpaceOnUse">
<stop stop-color="#1A99FB"/>
<stop offset="1" stop-color="#0C5E9A"/>
</linearGradient>
<linearGradient id="paint11_linear_514_768" x1="24.9445" y1="28.6912" x2="24.9445" y2="13.1445" gradientUnits="userSpaceOnUse">
<stop stop-color="#005357"/>
<stop offset="1" stop-color="#007F85"/>
</linearGradient>
<linearGradient id="paint12_linear_514_768" x1="13.3281" y1="10.5098" x2="15.1936" y2="14.7599" gradientUnits="userSpaceOnUse">
<stop stop-color="#1A99FB"/>
<stop offset="1" stop-color="#0C5E9A"/>
</linearGradient>
<linearGradient id="paint13_linear_514_768" x1="14.689" y1="14.3343" x2="14.689" y2="10.5098" gradientUnits="userSpaceOnUse">
<stop stop-color="#005357"/>
<stop offset="1" stop-color="#007F85"/>
</linearGradient>
<linearGradient id="paint14_linear_514_768" x1="5.625" y1="3.92578" x2="10.972" y2="23.8464" gradientUnits="userSpaceOnUse">
<stop stop-color="#1A99FB"/>
<stop offset="1" stop-color="#0C5E9A"/>
</linearGradient>
<linearGradient id="paint15_linear_514_768" x1="15.0005" y1="20.0391" x2="15.0005" y2="3.92578" gradientUnits="userSpaceOnUse">
<stop stop-color="#005357"/>
<stop offset="1" stop-color="#007F85"/>
</linearGradient>
<clipPath id="clip0_514_768">
<rect width="30" height="30" fill="white"/>
</clipPath>
</defs>
</svg>
