<svg width="80" height="64" viewBox="0 0 80 64" fill="none" xmlns="http://www.w3.org/2000/svg">
<path d="M48.3343 19.4997C48.3343 16.0479 51.1325 13.2497 54.5843 13.2497C58.0361 13.2497 60.8343 16.0479 60.8343 19.4997C60.8343 22.9515 58.0361 25.7497 54.5843 25.7497C51.1325 25.7497 48.3343 22.9515 48.3343 19.4997Z" fill="#A1AEB3"/>
<path fill-rule="evenodd" clip-rule="evenodd" d="M20.2823 1.41031C33.4034 0.269725 46.5986 0.269724 59.7196 1.41031L66.0123 1.95732C72.0334 2.48072 76.9112 7.06257 77.8099 13.0392C79.7001 25.6088 79.7001 38.3905 77.8099 50.9601C76.9112 56.9367 72.0334 61.5186 66.0123 62.042L59.7197 62.589C46.5986 63.7296 33.4034 63.7296 20.2823 62.589L13.9897 62.042C7.96858 61.5186 3.09078 56.9367 2.19204 50.9601C0.301871 38.3905 0.301871 25.6088 2.19204 13.0392C3.09078 7.06257 7.96858 2.48072 13.9897 1.95732L20.2823 1.41031ZM59.1784 7.63683C46.4175 6.52755 33.5845 6.52755 20.8236 7.63683L14.531 8.18384C11.3879 8.45705 8.8417 10.8488 8.37255 13.9686C7.29949 21.1045 6.86701 28.3123 7.07512 35.5061L23.2079 19.3733C23.8165 18.7647 24.6491 18.4341 25.5094 18.4594C26.3697 18.4846 27.1815 18.8636 27.7533 19.5069L43.0509 36.7167L53.5961 33.2017C54.7753 32.8086 56.0755 33.1519 56.9071 34.0758L71.5701 50.3681C71.5926 50.2566 71.6124 50.1441 71.6294 50.0307C73.4269 38.0772 73.4269 25.9221 71.6294 13.9686C71.1603 10.8488 68.6141 8.45705 65.471 8.18384L59.1784 7.63683ZM67.585 55.283L53.6307 39.7782L43.0725 43.2976C41.8865 43.693 40.5791 43.3435 39.7486 42.4091L25.2838 26.1362L7.60176 43.8183C7.80502 45.8937 8.06195 47.9652 8.37255 50.0307C8.8417 53.1505 11.3879 55.5423 14.531 55.8155L20.8236 56.3625C33.5845 57.4718 46.4175 57.4718 59.1784 56.3625L65.471 55.8155C66.2157 55.7507 66.9269 55.5671 67.585 55.283Z" fill="#A1AEB3"/>
</svg>
