<svg width="28" height="28" viewBox="0 0 28 28" fill="none" xmlns="http://www.w3.org/2000/svg">
<g opacity="0.4">
<path fill-rule="evenodd" clip-rule="evenodd" d="M10.5 1.75H7V5.25H10.5V1.75Z" fill="black"/>
<path fill-rule="evenodd" clip-rule="evenodd" d="M15.75 7H12.25V10.5H15.75V7Z" fill="black"/>
<path fill-rule="evenodd" clip-rule="evenodd" d="M15.75 12.25H12.25V21H15.75V12.25Z" fill="black"/>
<path fill-rule="evenodd" clip-rule="evenodd" d="M21 1.75H17.5V5.25H21V1.75Z" fill="black"/>
<path fill-rule="evenodd" clip-rule="evenodd" d="M10.5 22.75H7V26.25H10.5V22.75Z" fill="black"/>
<path fill-rule="evenodd" clip-rule="evenodd" d="M5.25 7H1.75V10.5H5.25V7Z" fill="black"/>
<path fill-rule="evenodd" clip-rule="evenodd" d="M24.5 3.5H21V7H24.5V3.5Z" fill="black"/>
<path fill-rule="evenodd" clip-rule="evenodd" d="M26.25 7H22.75V10.5H26.25V7Z" fill="black"/>
<path fill-rule="evenodd" clip-rule="evenodd" d="M7 21H3.5V24.5H7V21Z" fill="black"/>
<path fill-rule="evenodd" clip-rule="evenodd" d="M5.25 17.5H1.75V21H5.25V17.5Z" fill="black"/>
<path fill-rule="evenodd" clip-rule="evenodd" d="M24.5 21H21V24.5H24.5V21Z" fill="black"/>
<path fill-rule="evenodd" clip-rule="evenodd" d="M21 22.75H17.5V26.25H21V22.75Z" fill="black"/>
<path fill-rule="evenodd" clip-rule="evenodd" d="M26.25 17.5H22.75V21H26.25V17.5Z" fill="black"/>
<path fill-rule="evenodd" clip-rule="evenodd" d="M3.5 10.5H0V17.5H3.5V10.5Z" fill="black"/>
<path fill-rule="evenodd" clip-rule="evenodd" d="M28 10.5H24.5V17.5H28V10.5Z" fill="black"/>
<path fill-rule="evenodd" clip-rule="evenodd" d="M17.5 24.5H10.5V28H17.5V24.5Z" fill="black"/>
<path fill-rule="evenodd" clip-rule="evenodd" d="M17.5 0H10.5V3.5H17.5V0Z" fill="black"/>
<path fill-rule="evenodd" clip-rule="evenodd" d="M7 3.5H3.5V7H7V3.5Z" fill="black"/>
</g>
</svg>
