<svg width="25" height="22" viewBox="0 0 25 22" fill="none" xmlns="http://www.w3.org/2000/svg">
<path d="M23.0769 0H1.92308C1.41305 0 0.923903 0.210719 0.563256 0.585801C0.202609 0.960882 0 1.4696 0 2.00005V21.0005C8.74907e-05 21.171 0.0420607 21.3385 0.121935 21.4874C0.201809 21.6362 0.316933 21.7613 0.456377 21.8509C0.595821 21.9404 0.754958 21.9914 0.918678 21.999C1.0824 22.0066 1.24527 21.9706 1.39183 21.8943L4.80769 20.118L8.22356 21.8943C8.35714 21.9638 8.50447 22 8.65385 22C8.80322 22 8.95055 21.9638 9.08413 21.8943L12.5 20.118L15.9159 21.8943C16.0495 21.9638 16.1968 22 16.3462 22C16.4955 22 16.6429 21.9638 16.7764 21.8943L20.1923 20.118L23.6082 21.8943C23.7547 21.9706 23.9176 22.0066 24.0813 21.999C24.245 21.9914 24.4042 21.9404 24.5436 21.8509C24.6831 21.7613 24.7982 21.6362 24.8781 21.4874C24.9579 21.3385 24.9999 21.171 25 21.0005V2.00005C25 1.4696 24.7974 0.960882 24.4367 0.585801C24.0761 0.210719 23.587 0 23.0769 0ZM18.2692 13.0003H6.73077C6.47575 13.0003 6.23118 12.895 6.05086 12.7074C5.87054 12.5199 5.76923 12.2655 5.76923 12.0003C5.76923 11.7351 5.87054 11.4807 6.05086 11.2932C6.23118 11.1056 6.47575 11.0003 6.73077 11.0003H18.2692C18.5242 11.0003 18.7688 11.1056 18.9491 11.2932C19.1295 11.4807 19.2308 11.7351 19.2308 12.0003C19.2308 12.2655 19.1295 12.5199 18.9491 12.7074C18.7688 12.895 18.5242 13.0003 18.2692 13.0003ZM18.2692 9.00022H6.73077C6.47575 9.00022 6.23118 8.89486 6.05086 8.70732C5.87054 8.51978 5.76923 8.26542 5.76923 8.00019C5.76923 7.73497 5.87054 7.48061 6.05086 7.29307C6.23118 7.10553 6.47575 7.00017 6.73077 7.00017H18.2692C18.5242 7.00017 18.7688 7.10553 18.9491 7.29307C19.1295 7.48061 19.2308 7.73497 19.2308 8.00019C19.2308 8.26542 19.1295 8.51978 18.9491 8.70732C18.7688 8.89486 18.5242 9.00022 18.2692 9.00022Z" fill="#753BBD"/>
</svg>
