<svg width="42" height="38" viewBox="0 0 42 38" fill="none" xmlns="http://www.w3.org/2000/svg">
<g clip-path="url(#clip0_2069_33431)">
<path d="M27.7174 0.614733C30.068 0.614733 32.2402 1.86881 33.4155 3.90455L40.2315 15.7102C41.4068 17.7459 41.4068 20.2541 40.2315 22.2898L33.4155 34.0954C32.2402 36.1312 30.068 37.3852 27.7174 37.3852L14.0854 37.3852C11.7347 37.3852 9.56261 36.1312 8.38727 34.0954L1.5713 22.2898C0.395955 20.2541 0.395958 17.7459 1.5713 15.7102L8.38727 3.90455C9.56261 1.8688 11.7347 0.614733 14.0854 0.614733L27.7174 0.614733Z" fill="white"/>
<g clip-path="url(#clip1_2069_33431)">
<path d="M16.5032 22.7496L16.1114 28.2607C16.672 28.2607 16.9148 28.0199 17.206 27.7307L19.8342 25.2189L25.2802 29.2072C26.279 29.7638 26.9827 29.4707 27.2521 28.2883L30.8268 11.5379L30.8278 11.5369C31.1446 10.0604 30.2939 9.48304 29.3207 9.84525L8.30862 17.8899C6.87458 18.4465 6.8963 19.2459 8.06484 19.6081L13.4368 21.279L25.9148 13.4713C26.502 13.0824 27.0359 13.2976 26.5968 13.6864L16.5032 22.7496Z" fill="white"/>
<path d="M16.5032 22.7496L16.1114 28.2607C16.672 28.2607 16.9148 28.0199 17.206 27.7307L19.8342 25.2189L25.2802 29.2072C26.279 29.7638 26.9827 29.4707 27.2521 28.2883L30.8268 11.5379L30.8278 11.5369C31.1446 10.0604 30.2939 9.48304 29.3207 9.84525L8.30862 17.8899C6.87458 18.4465 6.8963 19.2459 8.06484 19.6081L13.4368 21.279L25.9148 13.4713C26.502 13.0824 27.0359 13.2976 26.5968 13.6864L16.5032 22.7496Z" fill="url(#paint0_linear_2069_33431)"/>
</g>
</g>
<defs>
<linearGradient id="paint0_linear_2069_33431" x1="19.0527" y1="29.4793" x2="19.0527" y2="9.74023" gradientUnits="userSpaceOnUse">
<stop stop-color="#005357"/>
<stop offset="1" stop-color="#007F85"/>
</linearGradient>
<clipPath id="clip0_2069_33431">
<rect width="42" height="38" fill="white"/>
</clipPath>
<clipPath id="clip1_2069_33431">
<rect width="23.6867" height="23.6867" fill="white" transform="translate(7.20898 7.76562)"/>
</clipPath>
</defs>
</svg>
