<svg width="42" height="38" viewBox="0 0 42 38" fill="none" xmlns="http://www.w3.org/2000/svg">
<g clip-path="url(#clip0_2069_33431)">
<path d="M27.817 0.614733C30.1677 0.614733 32.3398 1.86881 33.5151 3.90455L40.3311 15.7102C41.5064 17.7459 41.5064 20.2541 40.3311 22.2898L33.5151 34.0954C32.3398 36.1312 30.1676 37.3852 27.817 37.3852L14.185 37.3852C11.8343 37.3852 9.66222 36.1312 8.48688 34.0954L1.6709 22.2898C0.495564 20.2541 0.495567 17.7459 1.67091 15.7102L8.48688 3.90455C9.66222 1.8688 11.8343 0.614733 14.185 0.614733L27.817 0.614733Z" fill="white"/>
<path d="M32.9747 25.3237C32.9039 25.2052 32.4664 24.2544 30.3607 22.3001C28.1564 20.2537 28.4525 20.586 31.1076 17.0475C32.7246 14.8925 33.3711 13.5765 33.1688 13.0139C32.9763 12.4776 31.787 12.6191 31.787 12.6191L27.8323 12.6421C27.8323 12.6421 27.5395 12.6026 27.3207 12.7326C27.1085 12.8609 26.9719 13.157 26.9719 13.157C26.9719 13.157 26.3452 14.8251 25.5095 16.2431C23.7477 19.2354 23.0419 19.3933 22.7541 19.2075C22.0845 18.7748 22.2523 17.467 22.2523 16.5392C22.2523 13.639 22.6916 12.4299 21.3953 12.1174C20.9643 12.0137 20.6484 11.9446 19.5479 11.9331C18.1365 11.9183 16.9405 11.9381 16.2644 12.2687C15.8137 12.4891 15.4666 12.981 15.6788 13.009C15.9403 13.0435 16.5325 13.1685 16.8467 13.5962C17.2531 14.1473 17.2383 15.3877 17.2383 15.3877C17.2383 15.3877 17.4719 18.8011 16.6938 19.2256C16.1591 19.5167 15.4271 18.9229 13.8561 16.2069C13.0516 14.8169 12.443 13.2788 12.443 13.2788C12.443 13.2788 12.3262 12.9925 12.1173 12.8395C11.8639 12.6536 11.5086 12.5944 11.5086 12.5944L7.74806 12.6175C7.74806 12.6175 7.18381 12.6339 6.97653 12.879C6.79229 13.0978 6.96173 13.5485 6.96173 13.5485C6.96173 13.5485 9.90634 20.4363 13.2392 23.909C16.2973 27.0921 19.7683 26.8832 19.7683 26.8832H21.341C21.341 26.8832 21.8164 26.8305 22.0582 26.569C22.2819 26.3288 22.2737 25.8781 22.2737 25.8781C22.2737 25.8781 22.2425 23.7675 23.2229 23.4566C24.1885 23.1506 25.4289 25.4964 26.7433 26.3995C27.7369 27.0822 28.4919 26.9325 28.4919 26.9325L32.0074 26.8832C32.0074 26.8832 33.8465 26.7697 32.9747 25.3237Z" fill="white"/>
<path d="M32.9747 25.3237C32.9039 25.2052 32.4664 24.2544 30.3607 22.3001C28.1564 20.2537 28.4525 20.586 31.1076 17.0475C32.7246 14.8925 33.3711 13.5765 33.1688 13.0139C32.9763 12.4776 31.787 12.6191 31.787 12.6191L27.8323 12.6421C27.8323 12.6421 27.5395 12.6026 27.3207 12.7326C27.1085 12.8609 26.9719 13.157 26.9719 13.157C26.9719 13.157 26.3452 14.8251 25.5095 16.2431C23.7477 19.2354 23.0419 19.3933 22.7541 19.2075C22.0845 18.7748 22.2523 17.467 22.2523 16.5392C22.2523 13.639 22.6916 12.4299 21.3953 12.1174C20.9643 12.0137 20.6484 11.9446 19.5479 11.9331C18.1365 11.9183 16.9405 11.9381 16.2644 12.2687C15.8137 12.4891 15.4666 12.981 15.6788 13.009C15.9403 13.0435 16.5325 13.1685 16.8467 13.5962C17.2531 14.1473 17.2383 15.3877 17.2383 15.3877C17.2383 15.3877 17.4719 18.8011 16.6938 19.2256C16.1591 19.5167 15.4271 18.9229 13.8561 16.2069C13.0516 14.8169 12.443 13.2788 12.443 13.2788C12.443 13.2788 12.3262 12.9925 12.1173 12.8395C11.8639 12.6536 11.5086 12.5944 11.5086 12.5944L7.74806 12.6175C7.74806 12.6175 7.18381 12.6339 6.97653 12.879C6.79229 13.0978 6.96173 13.5485 6.96173 13.5485C6.96173 13.5485 9.90634 20.4363 13.2392 23.909C16.2973 27.0921 19.7683 26.8832 19.7683 26.8832H21.341C21.341 26.8832 21.8164 26.8305 22.0582 26.569C22.2819 26.3288 22.2737 25.8781 22.2737 25.8781C22.2737 25.8781 22.2425 23.7675 23.2229 23.4566C24.1885 23.1506 25.4289 25.4964 26.7433 26.3995C27.7369 27.0822 28.4919 26.9325 28.4919 26.9325L32.0074 26.8832C32.0074 26.8832 33.8465 26.7697 32.9747 25.3237Z" fill="url(#paint0_linear_2069_33431)"/>
</g>
<defs>
<linearGradient id="paint0_linear_2069_33431" x1="20.0507" y1="26.9464" x2="20.0507" y2="11.9297" gradientUnits="userSpaceOnUse">
<stop stop-color="#005357"/>
<stop offset="1" stop-color="#007F85"/>
</linearGradient>
<clipPath id="clip0_2069_33431">
<rect width="42" height="38" fill="white"/>
</clipPath>
</defs>
</svg>
