<svg width="42" height="38" viewBox="0 0 42 38" fill="none" xmlns="http://www.w3.org/2000/svg">
<g clip-path="url(#clip0_2069_33431)">
<path d="M27.6158 0.614733C29.9665 0.614733 32.1386 1.86881 33.3139 3.90455L40.1299 15.7102C41.3052 17.7459 41.3052 20.2541 40.1299 22.2898L33.3139 34.0954C32.1386 36.1312 29.9665 37.3852 27.6158 37.3852L13.9838 37.3852C11.6332 37.3852 9.46105 36.1312 8.28571 34.0954L1.46973 22.2898C0.294393 20.2541 0.294395 17.7459 1.46974 15.7102L8.28571 3.90455C9.46105 1.8688 11.6332 0.614733 13.9838 0.614733L27.6158 0.614733Z" fill="white"/>
<path d="M20.8935 18.6816C22.4738 18.6816 23.9018 18.0343 24.9299 17.0061C25.9581 15.978 26.6054 14.55 26.6054 12.9697C26.6054 11.3894 25.9581 9.96144 24.9299 8.9333C23.9018 7.90516 22.4738 7.25781 20.8935 7.25781C19.3132 7.25781 17.8853 7.90516 16.8571 8.9333C15.829 9.96144 15.1816 11.3894 15.1816 12.9697C15.1816 14.55 15.829 15.978 16.8571 17.0061C17.8853 18.0343 19.3323 18.6816 20.8935 18.6816ZM19.0657 11.1229C19.5417 10.6469 20.1891 10.3613 20.8935 10.3613C21.617 10.3613 22.2644 10.6469 22.7213 11.1229C23.1973 11.5989 23.4829 12.2462 23.4829 12.9507C23.4829 13.6742 23.1973 14.3215 22.7213 14.7785C22.2454 15.2545 21.598 15.5401 20.8935 15.5401C20.17 15.5401 19.5227 15.2545 19.0657 14.7785C18.5897 14.3025 18.3041 13.6551 18.3041 12.9507C18.3041 12.2462 18.6088 11.5989 19.0657 11.1229Z" fill="white"/>
<path d="M20.8935 18.6816C22.4738 18.6816 23.9018 18.0343 24.9299 17.0061C25.9581 15.978 26.6054 14.55 26.6054 12.9697C26.6054 11.3894 25.9581 9.96144 24.9299 8.9333C23.9018 7.90516 22.4738 7.25781 20.8935 7.25781C19.3132 7.25781 17.8853 7.90516 16.8571 8.9333C15.829 9.96144 15.1816 11.3894 15.1816 12.9697C15.1816 14.55 15.829 15.978 16.8571 17.0061C17.8853 18.0343 19.3323 18.6816 20.8935 18.6816ZM19.0657 11.1229C19.5417 10.6469 20.1891 10.3613 20.8935 10.3613C21.617 10.3613 22.2644 10.6469 22.7213 11.1229C23.1973 11.5989 23.4829 12.2462 23.4829 12.9507C23.4829 13.6742 23.1973 14.3215 22.7213 14.7785C22.2454 15.2545 21.598 15.5401 20.8935 15.5401C20.17 15.5401 19.5227 15.2545 19.0657 14.7785C18.5897 14.3025 18.3041 13.6551 18.3041 12.9507C18.3041 12.2462 18.6088 11.5989 19.0657 11.1229Z" fill="url(#paint0_linear_2069_33431)"/>
<path d="M28.5873 20.9857L26.9118 18.701C26.8166 18.5677 26.6262 18.5487 26.512 18.6629C24.9317 20.0147 22.9896 20.8905 20.8953 20.8905C18.8009 20.8905 16.8589 20.0147 15.2786 18.6629C15.1643 18.5677 14.9739 18.5867 14.8787 18.701L13.2032 20.9857C13.1271 21.1 13.1461 21.2523 13.2413 21.3475C14.6503 22.4899 16.2877 23.2705 18.0012 23.6703L14.4599 29.9153C14.3647 30.0867 14.4979 30.3152 14.6883 30.3152H18.1536C18.2678 30.3152 18.363 30.2581 18.4011 30.1438L20.8762 24.6223L23.3514 30.1438C23.3895 30.239 23.4847 30.3152 23.5989 30.3152H27.0641C27.2735 30.3152 27.3878 30.1057 27.2926 29.9153L23.7512 23.6703C25.4648 23.2705 27.1022 22.5089 28.5111 21.3475C28.6634 21.2523 28.6825 21.1 28.5873 20.9857Z" fill="white"/>
<path d="M28.5873 20.9857L26.9118 18.701C26.8166 18.5677 26.6262 18.5487 26.512 18.6629C24.9317 20.0147 22.9896 20.8905 20.8953 20.8905C18.8009 20.8905 16.8589 20.0147 15.2786 18.6629C15.1643 18.5677 14.9739 18.5867 14.8787 18.701L13.2032 20.9857C13.1271 21.1 13.1461 21.2523 13.2413 21.3475C14.6503 22.4899 16.2877 23.2705 18.0012 23.6703L14.4599 29.9153C14.3647 30.0867 14.4979 30.3152 14.6883 30.3152H18.1536C18.2678 30.3152 18.363 30.2581 18.4011 30.1438L20.8762 24.6223L23.3514 30.1438C23.3895 30.239 23.4847 30.3152 23.5989 30.3152H27.0641C27.2735 30.3152 27.3878 30.1057 27.2926 29.9153L23.7512 23.6703C25.4648 23.2705 27.1022 22.5089 28.5111 21.3475C28.6634 21.2523 28.6825 21.1 28.5873 20.9857Z" fill="url(#paint1_linear_2069_33431)"/>
</g>
<defs>
<linearGradient id="paint0_linear_2069_33431" x1="20.8939" y1="18.6816" x2="20.8939" y2="7.25781" gradientUnits="userSpaceOnUse">
<stop stop-color="#005357"/>
<stop offset="1" stop-color="#007F85"/>
</linearGradient>
<linearGradient id="paint1_linear_2069_33431" x1="20.9013" y1="30.3152" x2="20.9013" y2="18.5879" gradientUnits="userSpaceOnUse">
<stop stop-color="#005357"/>
<stop offset="1" stop-color="#007F85"/>
</linearGradient>
<clipPath id="clip0_2069_33431">
<rect width="42" height="38" fill="white"/>
</clipPath>
</defs>
</svg>
