<svg width="453" height="435" viewBox="0 0 453 435" fill="none" xmlns="http://www.w3.org/2000/svg">
<g opacity="0.35">
<path d="M71.0373 380.377C51.1295 382.77 28.0166 376.259 9.62703 344.407C-8.76252 312.556 2.53936 275.144 16.8353 263.03C16.8353 263.03 98.4727 196.592 118.795 184.859C139.118 173.126 167.623 163.429 207.476 174.198C234.789 184.226 260.353 205.442 276.059 242.704C291.766 279.965 304.879 349.61 304.879 349.61C313.768 398.529 281.76 426.896 255.706 432.052C217.319 439.648 200.278 428.594 171.466 403.472C142.519 383.506 109.043 375.808 71.0373 380.377Z" fill="#1687DD"/>
<path d="M71.0373 380.377C51.1295 382.77 28.0166 376.259 9.62703 344.407C-8.76252 312.556 2.53936 275.144 16.8353 263.03C16.8353 263.03 98.4727 196.592 118.795 184.859C139.118 173.126 167.623 163.429 207.476 174.198C234.789 184.226 260.353 205.442 276.059 242.704C291.766 279.965 304.879 349.61 304.879 349.61C313.768 398.529 281.76 426.896 255.706 432.052C217.319 439.648 200.278 428.594 171.466 403.472C142.519 383.506 109.043 375.808 71.0373 380.377Z" fill="url(#paint0_linear_514_797)"/>
<path d="M404.276 335.778C367.97 349.681 329.189 336.477 317.656 306.288C306.124 276.098 326.207 240.354 362.513 226.451C398.819 212.549 437.599 225.752 449.132 255.942C460.665 286.131 440.582 321.875 404.276 335.778Z" fill="#1687DD"/>
<path d="M404.276 335.778C367.97 349.681 329.189 336.477 317.656 306.288C306.124 276.098 326.207 240.354 362.513 226.451C398.819 212.549 437.599 225.752 449.132 255.942C460.665 286.131 440.582 321.875 404.276 335.778Z" fill="url(#paint1_linear_514_797)"/>
<path d="M374.238 196.659C342.974 224.826 298.253 226.199 274.353 199.727C250.452 173.254 256.422 128.96 287.687 100.793C318.952 72.6263 363.672 71.253 387.572 97.7257C411.473 124.198 405.503 168.492 374.238 196.659Z" fill="#1687DD"/>
<path d="M374.238 196.659C342.974 224.826 298.253 226.199 274.353 199.727C250.452 173.254 256.422 128.96 287.687 100.793C318.952 72.6263 363.672 71.253 387.572 97.7257C411.473 124.198 405.503 168.492 374.238 196.659Z" fill="url(#paint2_linear_514_797)"/>
<path d="M262.217 86.3163C255.721 127.831 221.837 157.082 186.534 151.65C151.232 146.218 127.88 108.16 134.375 66.6454C140.871 25.1306 174.755 -4.12036 210.058 1.31163C245.36 6.74362 268.712 44.8015 262.217 86.3163Z" fill="#1687DD"/>
<path d="M262.217 86.3163C255.721 127.831 221.837 157.082 186.534 151.65C151.232 146.218 127.88 108.16 134.375 66.6454C140.871 25.1306 174.755 -4.12036 210.058 1.31163C245.36 6.74362 268.712 44.8015 262.217 86.3163Z" fill="url(#paint3_linear_514_797)"/>
<path d="M123.205 108.604C128.044 145.897 105.395 179.627 72.6171 183.941C39.8391 188.256 9.34441 161.522 4.50532 124.229C-0.333739 86.9357 22.3153 53.2062 55.0933 48.8916C87.8714 44.577 118.366 71.3112 123.205 108.604Z" fill="#1687DD"/>
<path d="M123.205 108.604C128.044 145.897 105.395 179.627 72.6171 183.941C39.8391 188.256 9.34441 161.522 4.50532 124.229C-0.333739 86.9357 22.3153 53.2062 55.0933 48.8916C87.8714 44.577 118.366 71.3112 123.205 108.604Z" fill="url(#paint4_linear_514_797)"/>
</g>
<defs>
<linearGradient id="paint0_linear_514_797" x1="0.790078" y1="329.101" x2="392.129" y2="103.162" gradientUnits="userSpaceOnUse">
<stop stop-color="#005357"/>
<stop offset="1" stop-color="#007F85"/>
</linearGradient>
<linearGradient id="paint1_linear_514_797" x1="0.790078" y1="329.101" x2="392.129" y2="103.162" gradientUnits="userSpaceOnUse">
<stop stop-color="#005357"/>
<stop offset="1" stop-color="#007F85"/>
</linearGradient>
<linearGradient id="paint2_linear_514_797" x1="0.790078" y1="329.101" x2="392.129" y2="103.162" gradientUnits="userSpaceOnUse">
<stop stop-color="#005357"/>
<stop offset="1" stop-color="#007F85"/>
</linearGradient>
<linearGradient id="paint3_linear_514_797" x1="0.790078" y1="329.101" x2="392.129" y2="103.162" gradientUnits="userSpaceOnUse">
<stop stop-color="#005357"/>
<stop offset="1" stop-color="#007F85"/>
</linearGradient>
<linearGradient id="paint4_linear_514_797" x1="0.790078" y1="329.101" x2="392.129" y2="103.162" gradientUnits="userSpaceOnUse">
<stop stop-color="#005357"/>
<stop offset="1" stop-color="#007F85"/>
</linearGradient>
</defs>
</svg>
