<svg width="372" height="596" viewBox="0 0 372 596" fill="none" xmlns="http://www.w3.org/2000/svg">
<path d="M265.558 593.5C324.681 593.5 371.544 543.617 367.857 484.608L343.741 98.6084C340.366 44.5865 295.569 2.50014 241.441 2.50001L130.559 2.50001C76.4314 2.50019 31.634 44.5866 28.2588 98.6084L4.14257 484.608C0.455919 543.617 47.3193 593.5 106.442 593.5L265.558 593.5Z" fill="white"/>
<path d="M265.558 593.5C324.681 593.5 371.544 543.617 367.857 484.608L343.741 98.6084C340.366 44.5865 295.569 2.50014 241.441 2.50001L130.559 2.50001C76.4314 2.50019 31.634 44.5866 28.2588 98.6084L4.14257 484.608C0.455919 543.617 47.3193 593.5 106.442 593.5L265.558 593.5Z" stroke="#FFFBB4" stroke-width="5"/>
<path d="M265.558 593.5C324.681 593.5 371.544 543.617 367.857 484.608L343.741 98.6084C340.366 44.5865 295.569 2.50014 241.441 2.50001L130.559 2.50001C76.4314 2.50019 31.634 44.5866 28.2588 98.6084L4.14257 484.608C0.455919 543.617 47.3193 593.5 106.442 593.5L265.558 593.5Z" stroke="url(#paint0_linear_142_153618)" stroke-width="5"/>
<defs>
<linearGradient id="paint0_linear_142_153618" x1="981.836" y1="212.807" x2="650.756" y2="-439.841" gradientUnits="userSpaceOnUse">
<stop stop-color="#FFFBB4"/>
<stop offset="0.495192" stop-color="#C38500"/>
<stop offset="0.875147" stop-color="white"/>
</linearGradient>
</defs>
</svg>
