<svg width="1290" height="570" viewBox="0 0 1290 570" fill="none" xmlns="http://www.w3.org/2000/svg">
<path d="M1287.5 159.374C1287.5 71.3959 1214.14 1.17612 1126.25 5.02148L150.247 47.7207C67.6248 51.3355 2.50039 119.372 2.50024 202.073V368.083C2.50038 450.785 67.6247 518.821 150.247 522.436L1126.25 565.135C1214.14 568.98 1287.5 498.761 1287.5 410.783V159.374Z" fill="white"/>
<path d="M1287.5 159.374C1287.5 71.3959 1214.14 1.17612 1126.25 5.02148L150.247 47.7207C67.6248 51.3355 2.50039 119.372 2.50024 202.073V368.083C2.50038 450.785 67.6247 518.821 150.247 522.436L1126.25 565.135C1214.14 568.98 1287.5 498.761 1287.5 410.783V159.374Z" stroke="#FFFBB4" stroke-width="5"/>
<path d="M1287.5 159.374C1287.5 71.3959 1214.14 1.17612 1126.25 5.02148L150.247 47.7207C67.6248 51.3355 2.50039 119.372 2.50024 202.073V368.083C2.50038 450.785 67.6247 518.821 150.247 522.436L1126.25 565.135C1214.14 568.98 1287.5 498.761 1287.5 410.783V159.374Z" stroke="url(#paint0_linear_104_2457)" stroke-width="5"/>
<mask id="mask0_104_2457" style="mask-type:alpha" maskUnits="userSpaceOnUse" x="0" y="2" width="1291" height="566">
<path d="M1287.5 159.374C1287.5 71.3959 1214.14 1.17612 1126.25 5.02148L150.247 47.7207C67.6246 51.3355 2.50027 119.372 2.50012 202.073V368.083C2.50026 450.785 67.6246 518.821 150.247 522.436L1126.25 565.135C1214.14 568.98 1287.5 498.761 1287.5 410.783V159.374Z" fill="white"/>
<path d="M1287.5 159.374C1287.5 71.3959 1214.14 1.17612 1126.25 5.02148L150.247 47.7207C67.6246 51.3355 2.50027 119.372 2.50012 202.073V368.083C2.50026 450.785 67.6246 518.821 150.247 522.436L1126.25 565.135C1214.14 568.98 1287.5 498.761 1287.5 410.783V159.374Z" stroke="#FFFBB4" stroke-width="5"/>
<path d="M1287.5 159.374C1287.5 71.3959 1214.14 1.17612 1126.25 5.02148L150.247 47.7207C67.6246 51.3355 2.50027 119.372 2.50012 202.073V368.083C2.50026 450.785 67.6246 518.821 150.247 522.436L1126.25 565.135C1214.14 568.98 1287.5 498.761 1287.5 410.783V159.374Z" stroke="url(#paint1_linear_104_2457)" stroke-width="5"/>
</mask>
<g mask="url(#mask0_104_2457)">
<path opacity="0.08" d="M157.53 323C148.335 202.416 176.248 -5.19401 361.455 129.035C592.963 296.821 982.423 173.956 804.441 39.7867C626.458 -94.3825 488.538 222.745 789.663 300.39C1030.56 362.507 1179.3 72.8649 1177.99 -133" stroke="#8B350E" stroke-width="2" stroke-linecap="round" stroke-dasharray="13 13"/>
</g>
<defs>
<linearGradient id="paint0_linear_104_2457" x1="458.913" y1="-932.209" x2="-716.61" y2="-80.6237" gradientUnits="userSpaceOnUse">
<stop stop-color="#FFFBB4"/>
<stop offset="0.495192" stop-color="#C38500"/>
<stop offset="0.875147" stop-color="white"/>
</linearGradient>
<linearGradient id="paint1_linear_104_2457" x1="458.913" y1="-932.209" x2="-716.61" y2="-80.6237" gradientUnits="userSpaceOnUse">
<stop stop-color="#FFFBB4"/>
<stop offset="0.495192" stop-color="#C38500"/>
<stop offset="0.875147" stop-color="white"/>
</linearGradient>
</defs>
</svg>
