<svg width="30" height="28" viewBox="0 0 30 28" fill="none" xmlns="http://www.w3.org/2000/svg">
<path d="M19.9653 0.695299C21.6695 0.695299 23.2442 1.60446 24.0963 3.0803L29.0376 11.6389C29.8897 13.1148 29.8897 14.9331 29.0376 16.4089L24.0963 24.9676C23.2442 26.4434 21.6695 27.3526 19.9653 27.3526L10.0826 27.3526C8.37848 27.3526 6.80377 26.4434 5.95169 24.9676L1.01036 16.4089C0.158281 14.9331 0.15828 13.1148 1.01036 11.6389L5.95169 3.0803C6.80377 1.60446 8.37848 0.695298 10.0826 0.695298L19.9653 0.695299Z" fill="white"/>
<path d="M19.9653 0.695299C21.6695 0.695299 23.2442 1.60446 24.0963 3.0803L29.0376 11.6389C29.8897 13.1148 29.8897 14.9331 29.0376 16.4089L24.0963 24.9676C23.2442 26.4434 21.6695 27.3526 19.9653 27.3526L10.0826 27.3526C8.37848 27.3526 6.80377 26.4434 5.95169 24.9676L1.01036 16.4089C0.158281 14.9331 0.15828 13.1148 1.01036 11.6389L5.95169 3.0803C6.80377 1.60446 8.37848 0.695298 10.0826 0.695298L19.9653 0.695299Z" fill="url(#paint0_linear_514_1085)"/>
<defs>
<linearGradient id="paint0_linear_514_1085" x1="7.32943" y1="27.353" x2="22.72" y2="0.695733" gradientUnits="userSpaceOnUse">
<stop stop-color="#005357"/>
<stop offset="1" stop-color="#007F85"/>
</linearGradient>
</defs>
</svg>
