<svg width="193" height="202" viewBox="0 0 193 202" fill="none" xmlns="http://www.w3.org/2000/svg">
<path d="M72.7131 185.772C75.1471 190.052 80.5868 191.549 84.8664 189.115C95.1694 183.256 113.041 173.091 121.302 168.393C138.829 158.424 150.543 147.055 154.456 141.219C154.546 141.086 160.985 129.463 165.004 115.471C168.222 104.261 168.172 89.0857 167.899 87.4126C166.25 77.3081 164.735 71.3733 157.103 57.9556C150.812 46.8991 137.741 23.9175 130.89 11.8708C128.456 7.59095 123.013 6.09496 118.734 8.52915L15.5418 67.2214C11.2623 69.6555 9.76617 75.098 12.2002 79.3775L72.7131 185.772Z" fill="#E73F0C"/>
<path d="M166.641 111.587C170.779 90.5173 164.847 74.2331 164.847 74.2331C164.847 74.2331 164.17 91.1322 151.081 103.514C151.081 103.514 157.87 130.257 151.13 145.395C151.13 145.395 162.568 132.33 166.642 111.589L166.641 111.587Z" fill="#D13100"/>
<path d="M134.355 17.9653L15.666 85.4695L12.2008 79.3777C9.76646 75.0981 11.2625 69.6554 15.5422 67.2212L118.733 8.52954C123.013 6.0952 128.456 7.59085 130.89 11.8708C131.92 13.6811 133.09 15.7382 134.357 17.9645L134.355 17.9653Z" fill="#F14A17"/>
<path d="M67.1679 126.332L64.9725 122.476L66.2225 122.729L63.0772 124.52C61.9636 125.154 60.8995 125.517 59.8849 125.608C58.8702 125.699 57.9481 125.526 57.1186 125.089C56.3009 124.645 55.6223 123.949 55.0827 123.001C54.5229 122.018 54.2691 121.048 54.3213 120.093C54.3786 119.119 54.714 118.207 55.3274 117.355C55.9527 116.497 56.828 115.748 57.9535 115.107L63.5509 111.92L70.6331 124.359L67.1679 126.332ZM59.5092 130.693L60.0592 124.426L63.5954 122.413L63.2053 128.588L59.5092 130.693ZM64.3351 121.357L61.1684 115.795L62.4993 116.19L59.6028 117.839C58.9157 118.23 58.4855 118.687 58.3123 119.209C58.1441 119.713 58.2421 120.284 58.6063 120.924C58.9638 121.552 59.4087 121.934 59.9411 122.07C60.4787 122.188 61.0791 122.057 61.7425 121.68L64.6745 120.01L64.3351 121.357ZM84.6768 116.693C83.6935 117.253 82.6937 117.618 81.6772 117.789C80.6658 117.941 79.6869 117.902 78.7404 117.673C77.8057 117.436 76.944 117.025 76.1553 116.439C75.3598 115.84 74.6923 115.068 74.1527 114.12C73.6131 113.172 73.2925 112.209 73.1909 111.232C73.0826 110.243 73.1652 109.286 73.4389 108.361C73.7244 107.43 74.1941 106.574 74.848 105.794C75.507 104.996 76.3281 104.316 77.3114 103.756C78.4605 103.102 79.5999 102.72 80.7296 102.61C81.8711 102.494 82.9597 102.643 83.9956 103.057L82.91 106.357C82.2374 106.113 81.5874 106.004 80.9601 106.032C80.3446 106.053 79.7407 106.232 79.1483 106.569C78.6389 106.86 78.2182 107.209 77.8862 107.618C77.5541 108.026 77.3251 108.478 77.1992 108.973C77.0784 109.45 77.054 109.958 77.1258 110.498C77.2095 111.03 77.4032 111.563 77.7067 112.096C78.0102 112.629 78.3697 113.068 78.7851 113.412C79.2123 113.749 79.6651 113.993 80.1434 114.144C80.6267 114.277 81.1289 114.305 81.6498 114.228C82.1707 114.151 82.6858 113.967 83.1952 113.677C83.7876 113.34 84.2498 112.912 84.5821 112.394C84.9261 111.868 85.1647 111.254 85.2976 110.551L88.69 111.302C88.5108 112.392 88.0831 113.404 87.407 114.338C86.736 115.254 85.8259 116.039 84.6768 116.693ZM91.4733 112.494L84.3912 100.055L87.2877 98.4058L97.239 103.94L95.7108 104.81L95.9238 93.4888L98.8203 91.8397L105.938 104.258L102.686 106.11L98.3886 98.6033L98.9395 98.2897L98.7716 106.715L97.2079 107.605L89.7703 103.51L90.4278 103.136L94.7074 110.652L91.4733 112.494ZM114.838 99.5204C113.843 100.087 112.834 100.45 111.811 100.609C110.787 100.768 109.797 100.736 108.838 100.513C107.885 100.271 107.014 99.8573 106.225 99.271C105.437 98.6848 104.776 97.9237 104.243 96.9878C103.71 96.0519 103.393 95.0953 103.291 94.1178C103.19 93.1403 103.282 92.186 103.567 91.2548C103.858 90.305 104.333 89.4307 104.992 88.6319C105.651 87.8332 106.478 87.1505 107.473 86.584C108.48 86.0107 109.489 85.6479 110.5 85.4956C111.523 85.3366 112.512 85.3778 113.465 85.6194C114.411 85.8492 115.279 86.2572 116.068 86.8435C116.868 87.423 117.535 88.1807 118.068 89.1166C118.601 90.0524 118.915 91.0184 119.012 92.0145C119.114 92.9919 119.022 93.9463 118.736 94.8775C118.451 95.8087 117.978 96.6737 117.319 97.4724C116.672 98.2644 115.845 98.9471 114.838 99.5204ZM113.179 96.6061C113.653 96.3363 114.044 96.0039 114.352 95.6087C114.672 95.2068 114.893 94.7675 115.014 94.2909C115.14 93.7956 115.161 93.2816 115.077 92.7489C115.005 92.2094 114.817 91.6731 114.514 91.14C114.204 90.5951 113.838 90.16 113.418 89.8347C113.002 89.4908 112.553 89.2525 112.07 89.1198C111.591 88.9686 111.098 88.9281 110.589 88.9983C110.091 89.0618 109.606 89.2284 109.132 89.4982C108.658 89.768 108.261 90.1039 107.941 90.5058C107.633 90.901 107.415 91.3462 107.289 91.8414C107.169 92.318 107.144 92.8261 107.216 93.3656C107.293 93.8865 107.487 94.4194 107.797 94.9644C108.1 95.4974 108.46 95.9359 108.875 96.2798C109.303 96.617 109.755 96.8612 110.234 97.0124C110.717 97.1451 111.207 97.1796 111.704 97.1162C112.214 97.0459 112.705 96.8759 113.179 96.6061ZM123.49 94.2649L116.408 81.826L125.524 76.6359L127.095 79.4358L120.68 83.0882L121.016 81.8612L126.955 92.292L123.49 94.2649ZM133.302 84.9842C134.116 84.7876 134.722 84.529 135.119 84.2084C135.522 83.8691 135.751 83.347 135.804 82.642L135.902 81.4095L136.012 80.8999L135.485 70.9645L138.915 69.0119L139.235 81.5593C139.265 82.7971 139.073 83.8789 138.659 84.8049C138.257 85.7241 137.656 86.4586 136.855 87.0086C136.054 87.5586 135.084 87.9071 133.944 88.0541L133.302 84.9842ZM137.568 83.7557L125.872 76.4379L129.585 74.3234L138.07 80.1752L137.568 83.7557ZM144.979 76.0298L139.82 68.4966L143.836 66.2101L147.663 74.5021L144.979 76.0298ZM149.001 79.9521C148.408 80.2894 147.818 80.3823 147.23 80.2309C146.642 80.0795 146.203 79.7491 145.913 79.2397C145.616 78.7184 145.559 78.1781 145.743 77.6187C145.92 77.0475 146.304 76.5932 146.896 76.256C147.489 75.9188 148.07 75.8233 148.639 75.9696C149.214 76.0973 149.65 76.4218 149.946 76.943C150.236 77.4524 150.296 77.9987 150.126 78.5818C149.968 79.1581 149.593 79.6149 149.001 79.9521Z" fill="white"/>
</svg>
