<svg width="586" height="189" viewBox="0 0 586 189" fill="none" xmlns="http://www.w3.org/2000/svg">
<g opacity="0.35" clip-path="url(#clip0_514_586)">
<path d="M562.988 12.5352C562.935 10.6889 565.062 9.15174 566.789 9.78762C567.175 9.93025 567.525 10.1541 567.87 10.376C569.137 11.1901 570.402 12.0043 571.668 12.8184C572.708 13.488 573.756 14.1615 574.646 15.0212C575.445 15.7918 576.138 16.806 576.081 17.9173C576.006 19.3832 574.699 20.441 573.509 21.2948C572.361 22.1209 571.213 22.9449 570.064 23.771C569.03 24.5138 567.933 25.2804 566.67 25.4112C565.405 25.5399 563.955 24.7674 563.811 23.4996C563.677 22.3249 564.64 21.3503 565.121 20.2687C566.564 17.0279 563.073 15.4313 562.99 12.5332L562.988 12.5352Z" fill="#EBEBEB"/>
<path d="M571.911 10.5385C571.945 10.8535 572.051 11.1704 572.258 11.4081C572.485 11.6696 572.811 11.8201 573.141 11.9212C574.18 12.2421 575.345 12.1331 576.308 11.624C576.57 11.4854 576.815 11.3209 577.055 11.1466C577.245 11.0099 577.432 10.8693 577.588 10.695C578.857 9.28852 577.405 7.10752 575.718 7.10158C573.969 7.09564 571.704 8.59718 571.911 10.5365V10.5385Z" fill="#EBEBEB"/>
<path d="M578.393 14.0903C577.87 14.5975 577.468 15.3978 577.811 16.0416C577.914 16.2357 578.076 16.3922 578.241 16.5368C578.989 17.1944 579.897 17.7035 580.884 17.8204C581.87 17.9373 582.938 17.6144 583.577 16.8517C584.581 15.6573 584.039 13.8328 582.719 13.1098C581.41 12.3947 579.376 13.1355 578.391 14.0884L578.393 14.0903Z" fill="#EBEBEB"/>
<path d="M580.982 19.4686C580.339 19.2369 579.652 19.0804 578.973 19.1576C578.295 19.2349 577.62 19.5716 577.255 20.1521C576.795 20.883 576.913 21.8814 577.387 22.6025C577.861 23.3255 578.632 23.8029 579.437 24.1119C580.726 24.6052 583.184 24.6289 583.427 22.749C583.632 21.1643 582.306 19.9441 580.982 19.4667V19.4686Z" fill="#EBEBEB"/>
<path d="M577.259 28.0398C576.765 28.3329 576.169 28.4102 575.597 28.3706C574.235 28.2795 572.87 27.5128 572.132 26.3481C571.433 25.2427 571.7 23.5094 573.16 23.1984C575.045 22.7963 580.096 26.3599 577.259 28.0398Z" fill="#EBEBEB"/>
<path d="M532.371 30.0829C533.476 30.5306 534.36 31.3843 535.358 32.0381C536.608 32.8562 538.056 33.3732 539.192 34.3438C540.327 35.3165 541.089 37.0003 540.386 38.3215C540.146 38.7752 539.761 39.1317 539.384 39.4784C537.991 40.7601 536.6 42.0437 535.207 43.3254C533.699 44.714 531.453 45.7064 529.796 43.878C528.566 42.5211 529.36 40.3381 529.936 38.8782C530.301 37.9531 530.52 36.8081 529.898 36.0336C529.666 35.7444 529.344 35.5443 529.068 35.2967C526.585 33.0543 529.249 28.8151 532.373 30.0809L532.371 30.0829Z" fill="#EBEBEB"/>
<path d="M537.19 28.3553C536.651 28.9179 536.195 29.7201 536.471 30.4511C536.635 30.8829 537.022 31.188 537.419 31.4218C539.449 32.6182 544.404 32.6876 543.707 29.108C543.141 26.1921 538.733 26.7468 537.19 28.3553Z" fill="#EBEBEB"/>
<path d="M545.923 32.2145C544.842 32.5493 543.919 33.5318 543.893 34.6669C543.887 34.8729 543.913 35.0849 544.001 35.2711C544.14 35.5603 544.416 35.7564 544.694 35.9189C545.762 36.5428 547.017 36.84 548.25 36.7588C549.006 36.7092 549.781 36.5072 550.353 36.008C550.926 35.5108 551.245 34.6709 550.977 33.9597C550.245 32.0204 547.67 31.6737 545.925 32.2145H545.923Z" fill="#EBEBEB"/>
<path d="M547.379 38.1195C546.422 37.7867 545.349 37.652 544.408 38.0303C543.468 38.4087 542.73 39.4051 542.894 40.4074C543.036 41.279 543.768 41.9189 544.491 42.4201C545.42 43.0658 546.476 43.6304 547.606 43.6126C548.737 43.5967 549.921 42.8143 550.043 41.6871C550.264 39.6587 549.167 38.7395 547.379 38.1175V38.1195Z" fill="#EBEBEB"/>
<path d="M539.362 42.909C538.616 42.9466 537.847 43.2536 537.432 43.8776C535.854 46.2607 539.921 48.0098 541.714 47.889C543.857 47.7464 544.534 45.6149 543.082 44.1015C542.204 43.1863 540.588 42.8475 539.362 42.907V42.909Z" fill="#EBEBEB"/>
<path d="M503.273 9.58131C502.888 7.77471 504.702 5.87699 506.515 6.18799C506.92 6.25732 507.304 6.41382 507.685 6.57031C509.076 7.14082 510.47 7.71132 511.861 8.28183C513.005 8.75131 514.158 9.22277 515.188 9.90817C516.111 10.5223 516.975 11.3919 517.119 12.4953C517.309 13.9512 516.218 15.2269 515.201 16.2848C514.221 17.3049 513.24 18.3271 512.259 19.3473C511.377 20.2664 510.436 21.2192 509.217 21.5778C507.997 21.9344 506.43 21.4391 506.059 20.2189C505.716 19.0878 506.487 17.9527 506.764 16.8038C507.598 13.355 503.877 12.418 503.273 9.5833V9.58131Z" fill="#EBEBEB"/>
<path d="M511.689 5.99633C511.78 6.30139 511.939 6.59061 512.188 6.7887C512.458 7.00462 512.806 7.09178 513.149 7.13338C514.228 7.26016 515.355 6.94123 516.21 6.26573C516.442 6.08151 516.654 5.87351 516.859 5.66155C517.021 5.49317 517.179 5.31885 517.303 5.12076C518.297 3.50829 516.476 1.62443 514.815 1.92553C513.094 2.23852 511.136 4.12634 511.691 5.99633H511.689Z" fill="#EBEBEB"/>
<path d="M518.706 8.30997C518.283 8.90425 518.031 9.76397 518.485 10.3345C518.621 10.5068 518.808 10.6296 518.996 10.7425C519.85 11.2536 520.835 11.5904 521.827 11.525C522.82 11.4596 523.811 10.9505 524.302 10.0829C525.073 8.72597 524.211 7.0303 522.784 6.55884C521.37 6.09332 519.503 7.19273 518.706 8.30799V8.30997Z" fill="#EBEBEB"/>
<path d="M522.222 13.1294C521.547 13.0185 520.845 12.9908 520.19 13.1889C519.535 13.3889 518.933 13.8426 518.68 14.4785C518.361 15.2807 518.657 16.2415 519.252 16.8655C519.848 17.4895 520.693 17.8203 521.541 17.9768C522.897 18.2264 525.32 17.8024 525.22 15.9107C525.137 14.314 523.609 13.3553 522.222 13.1275V13.1294Z" fill="#EBEBEB"/>
<path d="M520.107 22.2344C519.675 22.6128 519.103 22.797 518.532 22.8624C517.177 23.0208 515.695 22.5157 514.759 21.5034C513.871 20.5427 513.822 18.7896 515.201 18.2191C516.981 17.4822 522.593 20.0673 520.107 22.2364V22.2344Z" fill="#EBEBEB"/>
<path d="M476.33 32.4054C477.498 32.645 478.521 33.3245 479.62 33.7861C480.997 34.3645 482.514 34.6081 483.807 35.3569C485.099 36.1077 486.151 37.6251 485.697 39.0514C485.541 39.5406 485.228 39.9626 484.92 40.3726C483.781 41.888 482.645 43.4015 481.506 44.9169C480.273 46.5571 478.244 47.9417 476.285 46.4442C474.831 45.3329 475.217 43.0409 475.519 41.5018C475.711 40.5252 475.72 39.3604 474.969 38.7106C474.688 38.469 474.335 38.3303 474.02 38.1362C471.174 36.3831 473.029 31.7299 476.328 32.4054H476.33Z" fill="#EBEBEB"/>
<path d="M480.758 29.832C480.33 30.4837 480.026 31.3553 480.429 32.0229C480.667 32.4191 481.104 32.6488 481.536 32.8053C483.748 33.6135 488.633 32.7796 487.303 29.3863C486.22 26.6209 481.986 27.9699 480.758 29.832Z" fill="#EBEBEB"/>
<path d="M490.042 32.0384C489.04 32.5653 488.31 33.6984 488.487 34.8196C488.519 35.0237 488.582 35.2277 488.704 35.3941C488.894 35.6536 489.2 35.7962 489.502 35.9052C490.664 36.3251 491.952 36.3885 493.15 36.0835C493.884 35.8973 494.61 35.5565 495.084 34.9642C495.558 34.37 495.719 33.4865 495.327 32.8367C494.255 31.0638 491.662 31.1886 490.044 32.0384H490.042Z" fill="#EBEBEB"/>
<path d="M492.539 37.5797C491.538 37.4271 490.457 37.4905 489.6 38.0333C488.744 38.5761 488.199 39.6894 488.541 40.6462C488.837 41.4762 489.673 41.9734 490.474 42.3359C491.505 42.8014 492.645 43.1639 493.754 42.942C494.863 42.7202 495.885 41.7376 495.802 40.6045C495.652 38.5701 494.409 37.8649 492.539 37.5777V37.5797Z" fill="#EBEBEB"/>
<path d="M485.522 43.7502C484.796 43.9225 484.093 44.3662 483.799 45.0536C482.676 47.6843 486.992 48.6648 488.734 48.2191C490.816 47.6882 491.098 45.4696 489.395 44.2454C488.367 43.5065 486.716 43.4649 485.522 43.7482V43.7502Z" fill="#EBEBEB"/>
<path d="M442.009 29.9673C440.778 28.5946 441.409 26.0412 443.136 25.4033C443.521 25.2607 443.933 25.2052 444.34 25.1497C445.83 24.9477 447.319 24.7456 448.809 24.5436C450.033 24.3772 451.268 24.2108 452.499 24.288C453.604 24.3574 454.786 24.6803 455.459 25.5638C456.347 26.7305 456.033 28.3846 455.676 29.8089C455.333 31.1836 454.989 32.5604 454.646 33.9351C454.336 35.1732 453.995 36.4707 453.115 37.3899C452.235 38.311 450.629 38.6636 449.703 37.79C448.843 36.9818 448.949 35.613 448.62 34.4759C447.631 31.0687 443.939 32.1166 442.009 29.9634V29.9673Z" fill="#EBEBEB"/>
<path d="M447.527 22.6478C447.755 22.8657 448.04 23.0381 448.353 23.0856C448.695 23.1371 449.04 23.0401 449.358 22.9034C450.358 22.4735 451.175 21.6336 451.582 20.6214C451.692 20.346 451.773 20.0608 451.844 19.7715C451.901 19.5437 451.953 19.314 451.96 19.0802C452.022 17.1845 449.508 16.4634 448.217 17.5549C446.879 18.686 446.122 21.3028 447.529 22.6459L447.527 22.6478Z" fill="#EBEBEB"/>
<path d="M454.759 21.1441C454.686 21.8711 454.897 22.7428 455.572 23.0102C455.775 23.0914 455.998 23.1053 456.217 23.1092C457.211 23.1251 458.231 22.923 459.06 22.3723C459.887 21.8196 460.493 20.8827 460.491 19.8843C460.485 18.3213 458.896 17.2833 457.426 17.5884C455.968 17.8915 454.895 19.7793 454.759 21.1461V21.1441Z" fill="#EBEBEB"/>
<path d="M460.199 23.5651C459.56 23.8067 458.936 24.1336 458.466 24.6328C457.999 25.132 457.701 25.8273 457.798 26.5067C457.918 27.3625 458.652 28.0459 459.479 28.2896C460.306 28.5332 461.201 28.3965 462.014 28.1093C463.315 27.6478 465.203 26.069 464.179 24.4783C463.315 23.1372 461.515 23.0679 460.199 23.5651Z" fill="#EBEBEB"/>
<path d="M462.884 32.5172C462.697 33.06 462.292 33.5077 461.833 33.8484C460.736 34.6646 459.2 34.9676 457.886 34.5576C456.639 34.1693 455.725 32.6737 456.639 31.4891C457.817 29.9599 463.964 29.3933 462.884 32.5172Z" fill="#EBEBEB"/>
<path d="M429.978 63.2353C431.109 62.859 432.334 62.9362 433.516 62.7857C434.996 62.5975 436.433 62.0507 437.927 62.0547C439.418 62.0587 441.084 62.8491 441.4 64.313C441.508 64.8161 441.445 65.3371 441.382 65.8462C441.147 67.7281 440.912 69.6119 440.677 71.4938C440.423 73.5322 439.349 75.7469 436.91 75.4299C435.097 75.1942 434.296 73.0132 433.795 71.5275C433.477 70.5846 432.905 69.5703 431.932 69.3821C431.569 69.3128 431.194 69.3703 430.823 69.3604C427.484 69.2633 426.784 64.3011 429.98 63.2353H429.978Z" fill="#EBEBEB"/>
<path d="M432.54 58.7884C432.49 59.5669 432.662 60.4742 433.343 60.8525C433.745 61.0764 434.237 61.0566 434.69 60.9773C437.009 60.5712 440.833 57.4057 437.994 55.1277C435.681 53.2735 432.68 56.5599 432.54 58.7884Z" fill="#EBEBEB"/>
<path d="M441.684 56.0568C441.076 57.0135 441.005 58.3625 441.715 59.246C441.846 59.4065 441.999 59.5511 442.189 59.6363C442.481 59.767 442.818 59.7373 443.134 59.6818C444.35 59.4639 445.498 58.8736 446.386 58.0119C446.931 57.483 447.39 56.8254 447.507 56.0746C447.623 55.3238 447.323 54.476 446.66 54.1075C444.851 53.1052 442.666 54.5116 441.684 56.0587V56.0568Z" fill="#EBEBEB"/>
<path d="M446.601 59.6122C445.658 59.9807 444.752 60.5749 444.279 61.4743C443.805 62.3736 443.886 63.6117 444.657 64.2714C445.326 64.8438 446.297 64.8557 447.173 64.7686C448.298 64.6556 449.468 64.4021 450.319 63.6553C451.169 62.9085 451.57 61.5436 450.934 60.6047C449.796 58.9149 448.367 58.9248 446.601 59.6122Z" fill="#EBEBEB"/>
<path d="M443.578 68.4731C443.034 68.9861 442.645 69.7211 442.732 70.4659C443.063 73.3085 447.292 71.9991 448.582 70.7412C450.123 69.2397 449.267 67.1756 447.183 66.9656C445.924 66.8388 444.474 67.6292 443.578 68.4731Z" fill="#EBEBEB"/>
<path d="M396.104 67.4361C394.691 66.2515 394.955 63.6347 396.573 62.7572C396.934 62.5611 397.335 62.4482 397.73 62.3352C399.176 61.9232 400.622 61.5112 402.069 61.0991C403.257 60.7604 404.454 60.4197 405.686 60.3206C406.791 60.2315 408.006 60.3821 408.796 61.1625C409.84 62.1926 409.763 63.8724 409.611 65.3344C409.465 66.7448 409.319 68.1552 409.175 69.5656C409.044 70.8354 408.888 72.1686 408.148 73.2046C407.406 74.2406 405.867 74.819 404.827 74.0881C403.863 73.4106 403.774 72.0398 403.286 70.9622C401.826 67.7293 398.32 69.2942 396.104 67.4361Z" fill="#EBEBEB"/>
<path d="M400.53 59.4055C400.788 59.5897 401.094 59.7185 401.41 59.7204C401.755 59.7224 402.083 59.5778 402.377 59.3975C403.306 58.829 403.997 57.8821 404.255 56.8204C404.326 56.5331 404.366 56.238 404.395 55.9428C404.419 55.711 404.439 55.4753 404.413 55.2436C404.206 53.3577 401.615 53.0031 400.492 54.267C399.328 55.5783 398.947 58.2763 400.532 59.4055H400.53Z" fill="#EBEBEB"/>
<path d="M407.477 56.8861C407.509 57.6151 407.839 58.4491 408.547 58.6155C408.76 58.667 408.983 58.6491 409.2 58.6214C410.187 58.4946 411.167 58.15 411.909 57.4863C412.651 56.8227 413.117 55.8065 412.973 54.82C412.746 53.2729 411.027 52.4706 409.615 52.9857C408.213 53.4948 407.418 55.5153 407.477 56.8861Z" fill="#EBEBEB"/>
<path d="M413.204 58.5069C412.604 58.8377 412.034 59.2498 411.641 59.8124C411.249 60.3749 411.053 61.1039 411.245 61.7636C411.485 62.5936 412.308 63.1661 413.161 63.2889C414.013 63.4117 414.881 63.1502 415.645 62.7481C416.866 62.1063 418.514 60.2739 417.273 58.8457C416.227 57.6413 414.437 57.8294 413.204 58.5089V58.5069Z" fill="#EBEBEB"/>
<path d="M417.129 66.9849C417.02 67.5495 416.683 68.0487 416.274 68.4528C415.303 69.4155 413.827 69.9345 412.468 69.7166C411.179 69.5086 410.064 68.1596 410.799 66.8562C411.748 65.1744 417.754 63.7382 417.127 66.9849H417.129Z" fill="#EBEBEB"/>
<path d="M388.897 102.081C389.963 101.546 391.186 101.449 392.335 101.132C393.773 100.736 395.119 99.9892 396.597 99.7793C398.075 99.5713 399.835 100.114 400.354 101.519C400.532 102 400.544 102.527 400.553 103.04C400.587 104.938 400.62 106.833 400.654 108.731C400.69 110.785 399.942 113.131 397.481 113.164C395.654 113.188 394.551 111.146 393.844 109.745C393.396 108.858 392.688 107.935 391.697 107.887C391.328 107.869 390.965 107.98 390.598 108.022C387.281 108.402 385.884 103.589 388.899 102.079L388.897 102.081Z" fill="#EBEBEB"/>
<path d="M390.806 97.3125C390.867 98.091 391.165 98.9645 391.891 99.2419C392.321 99.4063 392.804 99.3172 393.243 99.1745C395.482 98.4416 398.817 94.763 395.685 92.9128C393.134 91.4053 390.628 95.0879 390.806 97.3125Z" fill="#EBEBEB"/>
<path d="M399.47 93.3075C399.004 94.3415 399.123 95.6866 399.952 96.4592C400.102 96.5998 400.277 96.7206 400.475 96.7781C400.782 96.8652 401.112 96.788 401.416 96.687C402.588 96.2987 403.642 95.5519 404.399 94.5713C404.863 93.9711 405.226 93.254 405.234 92.4933C405.242 91.7327 404.828 90.9363 404.119 90.6669C402.187 89.932 400.222 91.6356 399.47 93.3075Z" fill="#EBEBEB"/>
<path d="M404.841 96.1264C403.959 96.6256 403.146 97.3447 402.805 98.3014C402.463 99.2582 402.718 100.473 403.574 101.015C404.318 101.487 405.281 101.36 406.134 101.15C407.231 100.879 408.352 100.459 409.09 99.599C409.826 98.7392 410.029 97.3308 409.269 96.4909C407.904 94.9814 406.491 95.1954 404.841 96.1264Z" fill="#EBEBEB"/>
<path d="M403.101 105.328C402.635 105.912 402.353 106.697 402.544 107.42C403.274 110.185 407.274 108.288 408.375 106.859C409.689 105.154 408.549 103.232 406.457 103.321C405.192 103.375 403.868 104.365 403.101 105.326V105.328Z" fill="#EBEBEB"/>
<path d="M353.178 95.566C352.248 93.9733 353.379 91.5982 355.198 91.3228C355.605 91.2614 356.019 91.2892 356.429 91.3189C357.929 91.4219 359.429 91.5269 360.928 91.6299C362.162 91.7151 363.403 91.8022 364.595 92.1271C365.664 92.4183 366.757 92.973 367.237 93.9753C367.872 95.2986 367.233 96.8536 366.598 98.1768C365.986 99.4545 365.372 100.732 364.761 102.01C364.21 103.159 363.614 104.361 362.568 105.084C361.52 105.807 359.879 105.829 359.145 104.787C358.466 103.82 358.843 102.501 358.748 101.323C358.464 97.7846 354.638 98.0659 353.18 95.566H353.178Z" fill="#EBEBEB"/>
<path d="M360.05 89.5141C360.232 89.7756 360.475 89.9995 360.773 90.1104C361.096 90.2292 361.455 90.2055 361.793 90.1342C362.858 89.9143 363.827 89.2586 364.429 88.3474C364.593 88.0997 364.729 87.8363 364.857 87.5689C364.958 87.3589 365.055 87.143 365.11 86.9152C365.55 85.0709 363.233 83.8566 361.749 84.6648C360.212 85.5028 358.943 87.9116 360.054 89.5121L360.05 89.5141Z" fill="#EBEBEB"/>
<path d="M367.434 89.5023C367.217 90.1995 367.249 91.0949 367.857 91.4931C368.04 91.6139 368.255 91.6714 368.47 91.7209C369.441 91.9368 370.481 91.9467 371.403 91.5743C372.324 91.2019 373.105 90.4036 373.303 89.427C373.611 87.8957 372.265 86.5566 370.761 86.5586C369.271 86.5606 367.843 88.1929 367.434 89.5042V89.5023Z" fill="#EBEBEB"/>
<path d="M372.279 92.973C371.604 93.0799 370.927 93.2741 370.366 93.6683C369.808 94.0625 369.378 94.6845 369.334 95.3679C369.281 96.2316 369.861 97.0497 370.623 97.4538C371.385 97.8599 372.29 97.9074 373.143 97.7886C374.508 97.6004 376.677 96.4356 375.99 94.6686C375.412 93.179 373.664 92.7491 372.277 92.969L372.279 92.973Z" fill="#EBEBEB"/>
<path d="M373.113 102.285C372.819 102.781 372.336 103.135 371.815 103.377C370.576 103.953 369.013 103.939 367.807 103.272C366.665 102.638 366.069 100.99 367.202 100.013C368.662 98.7533 374.797 99.4427 373.113 102.285Z" fill="#EBEBEB"/>
<path d="M334.716 125.718C335.9 125.577 337.084 125.9 338.271 125.993C339.759 126.108 341.277 125.862 342.737 126.167C344.197 126.472 345.671 127.584 345.687 129.081C345.693 129.594 345.525 130.093 345.361 130.581C344.754 132.377 344.146 134.174 343.538 135.969C342.879 137.914 341.385 139.867 339.057 139.063C337.328 138.465 336.981 136.167 336.788 134.61C336.665 133.621 336.31 132.514 335.392 132.132C335.051 131.989 334.672 131.971 334.311 131.886C331.061 131.116 331.369 126.114 334.716 125.718Z" fill="#EBEBEB"/>
<path d="M338.118 121.88C337.914 122.633 337.898 123.556 338.489 124.065C338.838 124.367 339.323 124.448 339.783 124.462C342.137 124.533 346.516 122.205 344.191 119.4C342.299 117.116 338.698 119.729 338.116 121.882L338.118 121.88Z" fill="#EBEBEB"/>
<path d="M347.623 121.055C346.835 121.869 346.494 123.176 347.013 124.185C347.108 124.369 347.23 124.541 347.398 124.662C347.658 124.85 347.994 124.888 348.315 124.898C349.551 124.93 350.794 124.585 351.836 123.919C352.475 123.511 353.057 122.961 353.322 122.247C353.586 121.534 353.464 120.645 352.887 120.15C351.317 118.803 348.894 119.738 347.623 121.053V121.055Z" fill="#EBEBEB"/>
<path d="M351.725 125.531C350.727 125.699 349.72 126.102 349.077 126.886C348.434 127.67 348.264 128.901 348.885 129.701C349.426 130.396 350.375 130.606 351.249 130.697C352.374 130.814 353.57 130.802 354.553 130.242C355.535 129.683 356.2 128.427 355.768 127.379C354.991 125.493 353.59 125.216 351.723 125.531H351.725Z" fill="#EBEBEB"/>
<path d="M346.985 133.598C346.35 133.99 345.821 134.632 345.756 135.379C345.511 138.23 349.916 137.804 351.431 136.833C353.243 135.674 352.816 133.479 350.82 132.851C349.612 132.473 348.031 132.954 346.985 133.598Z" fill="#EBEBEB"/>
<path d="M304.434 104.082C304.3 102.239 306.358 100.609 308.11 101.17C308.503 101.295 308.86 101.503 309.217 101.711C310.518 102.467 311.818 103.226 313.118 103.983C314.186 104.605 315.263 105.233 316.191 106.053C317.021 106.788 317.759 107.77 317.749 108.881C317.738 110.349 316.481 111.463 315.33 112.37C314.219 113.245 313.108 114.121 311.995 114.997C310.995 115.785 309.933 116.599 308.676 116.785C307.42 116.972 305.936 116.262 305.736 115.003C305.551 113.834 306.47 112.818 306.903 111.718C308.201 108.416 304.645 106.976 304.436 104.084L304.434 104.082Z" fill="#EBEBEB"/>
<path d="M313.26 101.695C313.308 102.008 313.428 102.319 313.645 102.549C313.882 102.798 314.216 102.935 314.549 103.022C315.601 103.297 316.761 103.137 317.7 102.586C317.955 102.436 318.194 102.259 318.426 102.077C318.61 101.932 318.792 101.782 318.94 101.604C320.145 100.144 318.6 98.0261 316.913 98.0954C315.165 98.1667 312.968 99.7673 313.26 101.695Z" fill="#EBEBEB"/>
<path d="M319.892 104.957C319.391 105.486 319.026 106.304 319.397 106.932C319.51 107.12 319.677 107.269 319.847 107.408C320.622 108.032 321.552 108.501 322.542 108.574C323.533 108.648 324.585 108.279 325.191 107.489C326.142 106.251 325.52 104.452 324.17 103.788C322.833 103.131 320.834 103.963 319.89 104.957H319.892Z" fill="#EBEBEB"/>
<path d="M322.714 110.217C322.061 110.013 321.369 109.888 320.694 109.995C320.019 110.102 319.36 110.469 319.02 111.065C318.592 111.816 318.754 112.808 319.259 113.507C319.764 114.209 320.556 114.652 321.372 114.924C322.681 115.36 325.137 115.274 325.299 113.387C325.435 111.794 324.056 110.633 322.712 110.217H322.714Z" fill="#EBEBEB"/>
<path d="M319.369 118.943C318.89 119.258 318.298 119.361 317.724 119.347C316.358 119.315 314.961 118.612 314.174 117.479C313.426 116.405 313.617 114.662 315.062 114.286C316.927 113.802 322.13 117.138 319.369 118.943Z" fill="#EBEBEB"/>
<path d="M274.614 122.963C275.737 123.362 276.658 124.176 277.685 124.786C278.969 125.549 280.439 126 281.615 126.921C282.791 127.843 283.626 129.493 282.981 130.844C282.76 131.307 282.391 131.68 282.03 132.044C280.694 133.387 279.36 134.73 278.024 136.073C276.578 137.527 274.377 138.617 272.643 136.866C271.354 135.564 272.053 133.347 272.564 131.864C272.888 130.923 273.057 129.77 272.402 129.023C272.157 128.744 271.826 128.56 271.54 128.324C268.961 126.194 271.437 121.84 274.614 122.967V122.963Z" fill="#EBEBEB"/>
<path d="M279.354 121.026C278.841 121.613 278.421 122.435 278.728 123.152C278.91 123.576 279.311 123.865 279.717 124.081C281.797 125.188 286.752 125.038 285.899 121.492C285.205 118.604 280.826 119.352 279.356 121.028L279.354 121.026Z" fill="#EBEBEB"/>
<path d="M288.248 124.495C287.182 124.878 286.304 125.9 286.326 127.035C286.33 127.241 286.363 127.453 286.462 127.635C286.614 127.918 286.898 128.103 287.182 128.251C288.275 128.828 289.542 129.067 290.771 128.933C291.525 128.849 292.289 128.614 292.839 128.091C293.39 127.568 293.672 126.716 293.372 126.017C292.555 124.111 289.968 123.877 288.25 124.495H288.248Z" fill="#EBEBEB"/>
<path d="M289.96 130.33C288.989 130.039 287.91 129.954 286.988 130.372C286.067 130.792 285.372 131.82 285.58 132.814C285.759 133.678 286.519 134.286 287.263 134.756C288.22 135.36 289.299 135.877 290.428 135.81C291.557 135.742 292.705 134.91 292.778 133.779C292.91 131.743 291.774 130.873 289.96 130.33Z" fill="#EBEBEB"/>
<path d="M282.162 135.471C281.418 135.541 280.662 135.883 280.276 136.525C278.802 138.976 282.941 140.543 284.729 140.345C286.864 140.107 287.446 137.948 285.929 136.502C285.011 135.626 283.381 135.359 282.16 135.473L282.162 135.471Z" fill="#EBEBEB"/>
<path d="M254.451 90.9363C254.903 89.1456 257.368 88.2502 258.856 89.3357C259.189 89.5774 259.463 89.8904 259.736 90.1994C260.732 91.3285 261.729 92.4596 262.725 93.5888C263.544 94.5178 264.369 95.4528 264.991 96.5245C265.549 97.4852 265.94 98.65 265.583 99.7039C265.111 101.094 263.568 101.752 262.19 102.249C260.861 102.729 259.531 103.208 258.203 103.688C257.007 104.119 255.742 104.557 254.491 104.335C253.24 104.113 252.054 102.97 252.259 101.713C252.451 100.546 253.642 99.8703 254.398 98.965C256.667 96.2432 253.745 93.7492 254.451 90.9403V90.9363Z" fill="#EBEBEB"/>
<path d="M263.578 91.4629C263.524 91.7759 263.54 92.1087 263.674 92.396C263.82 92.7089 264.095 92.9427 264.383 93.1309C265.294 93.7252 266.445 93.9391 267.51 93.7133C267.801 93.6519 268.081 93.5607 268.359 93.4597C268.578 93.3805 268.797 93.2953 268.994 93.1725C270.599 92.1681 269.796 89.6702 268.172 89.2027C266.49 88.7174 263.903 89.5414 263.576 91.4629H263.578Z" fill="#EBEBEB"/>
<path d="M268.85 96.657C268.209 97.0017 267.605 97.6613 267.759 98.3745C267.806 98.5884 267.919 98.7826 268.037 98.9688C268.578 99.8067 269.312 100.546 270.23 100.928C271.147 101.31 272.26 101.292 273.085 100.736C274.375 99.8622 274.352 97.9585 273.278 96.9027C272.215 95.8547 270.056 96.0112 268.85 96.659V96.657Z" fill="#EBEBEB"/>
<path d="M269.876 102.54C269.32 102.14 268.702 101.803 268.027 101.69C267.353 101.577 266.613 101.718 266.103 102.176C265.462 102.754 265.304 103.745 265.563 104.571C265.821 105.395 266.433 106.068 267.124 106.585C268.229 107.413 270.587 108.109 271.333 106.367C271.962 104.899 271.017 103.362 269.874 102.54H269.876Z" fill="#EBEBEB"/>
<path d="M263.962 109.765C263.408 109.912 262.814 109.823 262.273 109.629C260.987 109.167 259.884 108.056 259.491 106.733C259.118 105.477 259.848 103.882 261.336 103.983C263.258 104.114 267.149 108.925 263.962 109.765Z" fill="#EBEBEB"/>
<path d="M220.225 99.4251C221.166 100.158 221.784 101.222 222.566 102.125C223.544 103.256 224.799 104.148 225.626 105.396C226.453 106.642 226.727 108.472 225.691 109.55C225.336 109.92 224.868 110.158 224.411 110.388C222.721 111.239 221.034 112.091 219.345 112.943C217.516 113.866 215.087 114.205 213.99 111.992C213.177 110.35 214.534 108.466 215.483 107.22C216.087 106.43 216.608 105.39 216.221 104.473C216.077 104.13 215.821 103.851 215.624 103.536C213.846 100.699 217.561 97.3511 220.221 99.4232L220.225 99.4251Z" fill="#EBEBEB"/>
<path d="M225.332 99.086C224.661 99.4802 224.004 100.126 224.071 100.905C224.111 101.364 224.401 101.764 224.718 102.099C226.346 103.807 231.094 105.233 231.398 101.598C231.645 98.6364 227.254 97.9628 225.334 99.088L225.332 99.086Z" fill="#EBEBEB"/>
<path d="M232.682 105.192C231.552 105.217 230.395 105.909 230.062 106.992C230.001 107.19 229.967 107.4 230.003 107.604C230.058 107.921 230.269 108.187 230.492 108.417C231.351 109.31 232.475 109.938 233.685 110.199C234.425 110.36 235.226 110.376 235.913 110.055C236.599 109.734 237.134 109.013 237.069 108.254C236.891 106.188 234.51 105.148 232.684 105.19L232.682 105.192Z" fill="#EBEBEB"/>
<path d="M232.477 111.27C231.647 110.688 230.65 110.264 229.644 110.371C228.637 110.478 227.657 111.233 227.54 112.243C227.44 113.121 227.97 113.937 228.529 114.618C229.247 115.494 230.109 116.326 231.201 116.621C232.292 116.914 233.643 116.488 234.068 115.436C234.831 113.546 234.028 112.36 232.477 111.27Z" fill="#EBEBEB"/>
<path d="M223.463 113.682C222.737 113.513 221.91 113.598 221.344 114.084C219.177 115.942 222.613 118.741 224.373 119.117C226.474 119.567 227.704 117.703 226.719 115.849C226.123 114.728 224.661 113.959 223.465 113.682H223.463Z" fill="#EBEBEB"/>
<path d="M192.799 74.2805C192.414 72.4739 194.229 70.5762 196.043 70.8872C196.447 70.9565 196.832 71.113 197.213 71.2695C198.604 71.84 199.997 72.4105 201.388 72.981C202.533 73.4505 203.683 73.924 204.715 74.6074C205.639 75.2215 206.503 76.0911 206.647 77.1945C206.837 78.6505 205.743 79.9262 204.729 80.984C203.748 82.0042 202.768 83.0243 201.787 84.0445C200.905 84.9617 199.964 85.9165 198.744 86.273C197.525 86.6296 195.958 86.1324 195.587 84.9122C195.244 83.781 196.015 82.646 196.294 81.497C197.128 78.0483 193.409 77.1113 192.803 74.2766L192.799 74.2805Z" fill="#EBEBEB"/>
<path d="M201.217 70.6975C201.307 71.0025 201.467 71.2937 201.716 71.4898C201.986 71.7058 202.334 71.7929 202.677 71.8345C203.756 71.9613 204.883 71.6424 205.737 70.9689C205.97 70.7846 206.181 70.5786 206.387 70.3647C206.548 70.1963 206.706 70.022 206.831 69.8239C207.825 68.2114 206.004 66.3276 204.342 66.6287C202.622 66.9397 200.664 68.8295 201.219 70.6975H201.217Z" fill="#EBEBEB"/>
<path d="M208.234 73.0113C207.809 73.6056 207.559 74.4653 208.013 75.0358C208.149 75.2081 208.336 75.3309 208.524 75.4439C209.378 75.9549 210.363 76.2917 211.353 76.2263C212.344 76.1609 213.336 75.6518 213.828 74.7842C214.599 73.4273 213.739 71.7316 212.31 71.2601C210.896 70.7946 209.029 71.8921 208.232 73.0093L208.234 73.0113Z" fill="#EBEBEB"/>
<path d="M211.748 77.8326C211.073 77.7216 210.371 77.6939 209.716 77.892C209.061 78.0901 208.459 78.5457 208.206 79.1816C207.886 79.9839 208.182 80.9446 208.778 81.5686C209.374 82.1926 210.219 82.5234 211.067 82.6799C212.423 82.9315 214.846 82.5076 214.745 80.6138C214.663 79.0172 213.137 78.0584 211.75 77.8306L211.748 77.8326Z" fill="#EBEBEB"/>
<path d="M209.631 86.9376C209.199 87.3139 208.626 87.5001 208.056 87.5655C206.701 87.722 205.219 87.2188 204.283 86.2046C203.395 85.2439 203.346 83.4907 204.725 82.9202C206.505 82.1833 212.117 84.7684 209.629 86.9376H209.631Z" fill="#EBEBEB"/>
<path d="M165.852 97.101C167.02 97.3407 168.042 98.0201 169.142 98.4817C170.519 99.0601 172.036 99.3038 173.327 100.055C174.619 100.805 175.671 102.323 175.217 103.751C175.061 104.24 174.748 104.662 174.44 105.072C173.301 106.586 172.163 108.101 171.024 109.614C169.791 111.255 167.762 112.637 165.803 111.142C164.348 110.03 164.735 107.739 165.039 106.199C165.231 105.223 165.24 104.058 164.489 103.408C164.208 103.167 163.855 103.028 163.539 102.834C160.694 101.081 162.549 96.4255 165.85 97.103L165.852 97.101Z" fill="#EBEBEB"/>
<path d="M170.28 94.528C169.852 95.1797 169.548 96.0513 169.951 96.7189C170.189 97.1151 170.625 97.3449 171.058 97.5014C173.27 98.3096 178.155 97.4776 176.825 94.0823C175.742 91.3169 171.508 92.664 170.28 94.526V94.528Z" fill="#EBEBEB"/>
<path d="M179.564 96.7344C178.562 97.2593 177.83 98.3924 178.009 99.5136C178.041 99.7176 178.104 99.9217 178.226 100.088C178.416 100.348 178.722 100.49 179.024 100.599C180.186 101.019 181.474 101.082 182.672 100.779C183.406 100.593 184.132 100.252 184.606 99.6602C185.08 99.0659 185.241 98.1824 184.849 97.5327C183.779 95.7578 181.184 95.8845 179.566 96.7344H179.564Z" fill="#EBEBEB"/>
<path d="M182.06 102.277C181.06 102.122 179.979 102.188 179.122 102.729C178.266 103.271 177.721 104.385 178.063 105.341C178.359 106.171 179.195 106.669 179.996 107.031C181.026 107.497 182.167 107.861 183.276 107.639C184.385 107.417 185.407 106.435 185.326 105.304C185.178 103.269 183.933 102.564 182.062 102.277H182.06Z" fill="#EBEBEB"/>
<path d="M175.042 108.446C174.315 108.618 173.613 109.06 173.319 109.749C172.194 112.38 176.51 113.361 178.254 112.917C180.336 112.386 180.618 110.167 178.917 108.945C177.889 108.204 176.237 108.165 175.044 108.448L175.042 108.446Z" fill="#EBEBEB"/>
<path d="M132.135 93.3001C130.987 91.858 131.764 89.3442 133.526 88.8094C133.919 88.6905 134.333 88.6588 134.744 88.6271C136.244 88.5122 137.741 88.3993 139.241 88.2844C140.472 88.1913 141.713 88.0962 142.941 88.2468C144.04 88.3815 145.202 88.7717 145.822 89.6948C146.641 90.9131 146.23 92.5434 145.792 93.9459C145.37 95.2989 144.946 96.6518 144.523 98.0048C144.143 99.2231 143.726 100.497 142.795 101.364C141.861 102.232 140.239 102.49 139.365 101.565C138.554 100.707 138.74 99.3459 138.475 98.193C137.686 94.7323 133.941 95.5643 132.139 93.3001H132.135Z" fill="#EBEBEB"/>
<path d="M138.069 86.3171C138.286 86.5489 138.558 86.7371 138.868 86.8025C139.205 86.8738 139.557 86.7965 139.88 86.6796C140.902 86.3092 141.769 85.5188 142.232 84.5303C142.359 84.2629 142.455 83.9816 142.544 83.6983C142.613 83.4745 142.678 83.2487 142.7 83.0149C142.872 81.1251 140.403 80.2595 139.052 81.2737C137.651 82.3256 136.741 84.8928 138.069 86.3151V86.3171Z" fill="#EBEBEB"/>
<path d="M145.376 85.2391C145.261 85.9602 145.419 86.8417 146.08 87.1487C146.279 87.2418 146.5 87.2676 146.72 87.2854C147.71 87.3587 148.742 87.2181 149.6 86.7149C150.459 86.2117 151.118 85.3104 151.173 84.314C151.258 82.753 149.733 81.6239 148.247 81.8438C146.773 82.0617 145.593 83.8822 145.378 85.2391H145.376Z" fill="#EBEBEB"/>
<path d="M150.666 87.9753C150.013 88.1793 149.372 88.4685 148.874 88.94C148.377 89.4115 148.042 90.0869 148.097 90.7723C148.168 91.6341 148.861 92.3591 149.672 92.6503C150.483 92.9415 151.386 92.8583 152.213 92.6186C153.537 92.2343 155.516 90.7684 154.585 89.1203C153.8 87.7296 152.008 87.5573 150.666 87.9753Z" fill="#EBEBEB"/>
<path d="M152.829 97.0695C152.61 97.6004 152.18 98.0223 151.7 98.3373C150.558 99.0861 149.009 99.3 147.72 98.8127C146.499 98.3512 145.674 96.806 146.653 95.6749C147.918 94.217 154.088 94.0109 152.829 97.0675V97.0695Z" fill="#EBEBEB"/>
<path d="M118.192 125.807C119.343 125.498 120.56 125.647 121.75 125.565C123.24 125.464 124.706 125.003 126.194 125.094C127.684 125.185 129.3 126.07 129.53 127.552C129.609 128.059 129.517 128.576 129.422 129.083C129.079 130.949 128.733 132.814 128.39 134.68C128.017 136.7 126.817 138.847 124.4 138.388C122.604 138.045 121.929 135.823 121.515 134.309C121.253 133.348 120.742 132.302 119.781 132.059C119.421 131.968 119.045 132.003 118.676 131.972C115.349 131.68 114.936 126.685 118.19 125.809L118.192 125.807Z" fill="#EBEBEB"/>
<path d="M121.006 121.517C120.911 122.291 121.03 123.208 121.687 123.624C122.075 123.872 122.569 123.882 123.025 123.828C125.363 123.559 129.365 120.621 126.661 118.183C124.461 116.196 121.272 119.302 121.004 121.517H121.006Z" fill="#EBEBEB"/>
<path d="M130.294 119.325C129.631 120.247 129.481 121.588 130.14 122.511C130.261 122.679 130.407 122.834 130.59 122.929C130.874 123.077 131.214 123.067 131.531 123.028C132.759 122.881 133.939 122.36 134.874 121.552C135.448 121.057 135.945 120.427 136.105 119.682C136.265 118.939 136.017 118.075 135.375 117.669C133.629 116.562 131.364 117.84 130.294 119.325Z" fill="#EBEBEB"/>
<path d="M134.996 123.165C134.033 123.476 133.094 124.018 132.569 124.888C132.044 125.758 132.052 126.998 132.784 127.701C133.42 128.311 134.389 128.38 135.267 128.345C136.395 128.299 137.577 128.113 138.471 127.418C139.363 126.722 139.843 125.383 139.264 124.409C138.227 122.655 136.798 122.582 134.996 123.165Z" fill="#EBEBEB"/>
<path d="M131.462 131.831C130.888 132.31 130.458 133.021 130.501 133.77C130.667 136.627 134.965 135.569 136.326 134.388C137.952 132.98 137.216 130.868 135.15 130.537C133.901 130.337 132.405 131.042 131.462 131.831Z" fill="#EBEBEB"/>
<path d="M85.069 123.143C84.0508 121.606 85.0434 119.169 86.843 118.791C87.2455 118.706 87.6599 118.71 88.0703 118.716C89.574 118.733 91.0776 118.749 92.5792 118.767C93.8145 118.781 95.0596 118.797 96.2673 119.052C97.3506 119.282 98.4734 119.773 99.0121 120.746C99.7224 122.03 99.1719 123.62 98.6135 124.977C98.0748 126.289 97.5361 127.6 96.9974 128.909C96.5119 130.088 95.9871 131.324 94.9827 132.105C93.9783 132.887 92.3385 133.002 91.5472 132.004C90.8132 131.079 91.1151 129.739 90.9533 128.567C90.4679 125.051 86.6634 125.552 85.0651 123.139L85.069 123.143Z" fill="#EBEBEB"/>
<path d="M91.5866 116.705C91.782 116.955 92.0385 117.167 92.3404 117.258C92.6699 117.359 93.0271 117.314 93.3586 117.224C94.4103 116.945 95.3397 116.232 95.8883 115.289C96.0363 115.034 96.1586 114.762 96.2711 114.487C96.3599 114.271 96.4448 114.051 96.4862 113.821C96.8217 111.953 94.438 110.874 93.0014 111.767C91.5156 112.692 90.3849 115.17 91.5846 116.703L91.5866 116.705Z" fill="#EBEBEB"/>
<path d="M98.9588 116.272C98.7832 116.979 98.8641 117.873 99.4956 118.235C99.685 118.344 99.904 118.392 100.121 118.427C101.102 118.588 102.142 118.536 103.04 118.112C103.937 117.686 104.673 116.847 104.813 115.858C105.034 114.311 103.614 113.051 102.112 113.14C100.624 113.229 99.2903 114.939 98.9588 116.272Z" fill="#EBEBEB"/>
<path d="M103.992 119.457C103.324 119.602 102.661 119.836 102.124 120.262C101.589 120.688 101.194 121.331 101.19 122.019C101.187 122.884 101.812 123.667 102.595 124.027C103.379 124.388 104.285 124.384 105.131 124.218C106.485 123.95 108.582 122.663 107.797 120.939C107.136 119.485 105.366 119.156 103.992 119.455V119.457Z" fill="#EBEBEB"/>
<path d="M105.356 128.706C105.092 129.217 104.628 129.599 104.123 129.87C102.919 130.516 101.356 130.593 100.117 129.997C98.9409 129.431 98.2523 127.818 99.3257 126.778C100.711 125.437 106.877 125.772 105.356 128.706Z" fill="#EBEBEB"/>
<path d="M60.979 145.414C62.1531 145.206 63.3528 145.461 64.5447 145.485C66.0364 145.515 67.5381 145.182 69.0141 145.404C70.4901 145.626 72.0233 146.65 72.1239 148.144C72.1575 148.657 72.0213 149.164 71.8832 149.659C71.378 151.487 70.8749 153.316 70.3697 155.144C69.8231 157.125 68.4418 159.159 66.0739 158.49C64.3138 157.993 63.8363 155.719 63.5541 154.175C63.3745 153.197 62.9582 152.109 62.0209 151.782C61.6716 151.66 61.2927 151.664 60.9277 151.598C57.6383 151.016 57.6619 146.004 60.979 145.416V145.414Z" fill="#EBEBEB"/>
<path d="M64.156 141.387C63.9962 142.151 64.0337 143.072 64.6513 143.546C65.0184 143.825 65.5077 143.879 65.9675 143.867C68.3216 143.803 72.5601 141.226 70.0817 138.56C68.0611 136.389 64.6158 139.204 64.158 141.387H64.156Z" fill="#EBEBEB"/>
<path d="M73.598 140.016C72.858 140.875 72.5936 142.199 73.1678 143.175C73.2724 143.354 73.4046 143.52 73.5802 143.631C73.8505 143.803 74.188 143.823 74.5096 143.813C75.7449 143.776 76.9643 143.36 77.9687 142.635C78.5844 142.191 79.1349 141.606 79.3579 140.879C79.5809 140.152 79.4072 139.271 78.8054 138.811C77.1617 137.555 74.7938 138.629 73.5999 140.016H73.598Z" fill="#EBEBEB"/>
<path d="M77.9489 144.249C76.9623 144.475 75.9796 144.932 75.3817 145.755C74.7838 146.577 74.6851 147.813 75.3521 148.577C75.9322 149.241 76.8912 149.395 77.7693 149.437C78.898 149.491 80.0919 149.407 81.041 148.793C81.9901 148.179 82.5821 146.886 82.0927 145.865C81.2107 144.027 79.7959 143.831 77.9489 144.253V144.249Z" fill="#EBEBEB"/>
<path d="M73.677 152.575C73.0633 153.003 72.5719 153.674 72.5502 154.423C72.4674 157.284 76.8401 156.604 78.3003 155.548C80.0427 154.287 79.4921 152.119 77.4617 151.608C76.2343 151.299 74.6833 151.872 73.677 152.575Z" fill="#EBEBEB"/>
<path d="M27.2226 135.354C26.4905 133.66 27.8954 131.439 29.7345 131.384C30.145 131.372 30.5534 131.449 30.956 131.527C32.432 131.81 33.9099 132.093 35.3859 132.376C36.5995 132.608 37.8209 132.844 38.9674 133.311C39.9935 133.729 41.0137 134.411 41.3708 135.465C41.8444 136.855 41.0235 138.321 40.2362 139.559C39.4765 140.754 38.7148 141.95 37.9551 143.145C37.2704 144.22 36.5363 145.342 35.4116 145.934C34.2868 146.526 32.651 146.35 32.0492 145.227C31.4907 144.187 32.0215 142.921 32.0689 141.74C32.207 138.192 28.3769 138.012 27.2265 135.356L27.2226 135.354Z" fill="#EBEBEB"/>
<path d="M34.7683 130.172C34.9163 130.453 35.1314 130.705 35.4135 130.849C35.7194 131.008 36.0785 131.025 36.4219 130.996C37.5052 130.907 38.5471 130.37 39.2515 129.54C39.4429 129.314 39.6107 129.068 39.7685 128.819C39.8948 128.623 40.0152 128.421 40.0961 128.201C40.7532 126.422 38.5984 124.938 37.0277 125.562C35.4017 126.21 33.8547 128.448 34.7663 130.172H34.7683Z" fill="#EBEBEB"/>
<path d="M42.1029 131.047C41.805 131.713 41.728 132.606 42.2845 133.076C42.4522 133.216 42.6594 133.301 42.8666 133.375C43.8039 133.706 44.8359 133.84 45.7949 133.581C46.7539 133.321 47.6241 132.624 47.9378 131.677C48.4272 130.193 47.2492 128.702 45.7554 128.523C44.2755 128.347 42.6633 129.795 42.1009 131.047H42.1029Z" fill="#EBEBEB"/>
<path d="M46.4973 135.074C45.8145 135.1 45.1199 135.211 44.5161 135.536C43.9143 135.861 43.4131 136.425 43.2888 137.101C43.1329 137.95 43.6124 138.834 44.3188 139.327C45.0252 139.82 45.9191 139.977 46.7814 139.963C48.1607 139.939 50.4517 139.044 49.9821 137.208C49.5854 135.661 47.9022 135.023 46.4973 135.074Z" fill="#EBEBEB"/>
<path d="M46.2153 144.42C45.866 144.876 45.3411 145.171 44.7965 145.347C43.4981 145.771 41.9471 145.569 40.8302 144.763C39.7706 143.996 39.3779 142.289 40.6171 141.455C42.2174 140.379 48.226 141.799 46.2153 144.42Z" fill="#EBEBEB"/>
</g>
<defs>
<clipPath id="clip0_514_586">
<rect width="586" height="189" fill="white"/>
</clipPath>
</defs>
</svg>
