<svg width="360" height="611" viewBox="0 0 360 611" fill="none" xmlns="http://www.w3.org/2000/svg">
<path d="M259.829 -5.25745e-06C317.409 -2.40615e-06 363.094 48.504 359.65 105.981L335.022 516.981C331.858 569.792 288.107 611 235.201 611L124.799 611C71.8935 611 28.1424 569.792 24.9779 516.981L0.350507 105.981C-3.09358 48.504 42.591 -1.60147e-05 100.171 -1.31634e-05L259.829 -5.25745e-06Z" fill="#D9D9D9"/>
<path d="M259.829 -5.25745e-06C317.409 -2.40615e-06 363.094 48.504 359.65 105.981L335.022 516.981C331.858 569.792 288.107 611 235.201 611L124.799 611C71.8935 611 28.1424 569.792 24.9779 516.981L0.350507 105.981C-3.09358 48.504 42.591 -1.60147e-05 100.171 -1.31634e-05L259.829 -5.25745e-06Z" fill="url(#paint0_linear_142_153884)"/>
<path d="M259.829 -5.25745e-06C317.409 -2.40615e-06 363.094 48.504 359.65 105.981L335.022 516.981C331.858 569.792 288.107 611 235.201 611L124.799 611C71.8935 611 28.1424 569.792 24.9779 516.981L0.350507 105.981C-3.09358 48.504 42.591 -1.60147e-05 100.171 -1.31634e-05L259.829 -5.25745e-06Z" fill="url(#paint1_linear_142_153884)"/>
<defs>
<linearGradient id="paint0_linear_142_153884" x1="-17.1142" y1="356.306" x2="288.728" y2="420.548" gradientUnits="userSpaceOnUse">
<stop stop-color="#35A2EB"/>
<stop offset="1" stop-color="#CFECFF"/>
</linearGradient>
<linearGradient id="paint1_linear_142_153884" x1="975.836" y1="517.748" x2="449.504" y2="1275.63" gradientUnits="userSpaceOnUse">
<stop stop-color="#FFFBB4"/>
<stop offset="0.495192" stop-color="#C38500"/>
<stop offset="0.875147" stop-color="white"/>
</linearGradient>
</defs>
</svg>
