<svg width="1280" height="557" viewBox="0 0 1280 557" fill="none" xmlns="http://www.w3.org/2000/svg">
<path d="M0 152.945C0 66.3903 72.1718 -2.69307 158.644 1.09007L1134.64 43.7901C1215.93 47.3463 1280 114.281 1280 195.645V361.654C1280 443.018 1215.93 509.953 1134.64 513.509L158.644 556.209C72.1721 559.992 0 490.909 0 404.354V152.945Z" fill="#D9D9D9"/>
<path d="M0 152.945C0 66.3903 72.1718 -2.69307 158.644 1.09007L1134.64 43.7901C1215.93 47.3463 1280 114.281 1280 195.645V361.654C1280 443.018 1215.93 509.953 1134.64 513.509L158.644 556.209C72.1721 559.992 0 490.909 0 404.354V152.945Z" fill="url(#paint0_linear_95_1722)"/>
<path d="M0 152.945C0 66.3903 72.1718 -2.69307 158.644 1.09007L1134.64 43.7901C1215.93 47.3463 1280 114.281 1280 195.645V361.654C1280 443.018 1215.93 509.953 1134.64 513.509L158.644 556.209C72.1721 559.992 0 490.909 0 404.354V152.945Z" fill="url(#paint1_linear_95_1722)"/>
<defs>
<linearGradient id="paint0_linear_95_1722" x1="568.5" y1="580.149" x2="663.023" y2="110.736" gradientUnits="userSpaceOnUse">
<stop stop-color="#35A2EB"/>
<stop offset="1" stop-color="#CFECFF"/>
</linearGradient>
<linearGradient id="paint1_linear_95_1722" x1="826.087" y1="-938.637" x2="2001.61" y2="-87.0524" gradientUnits="userSpaceOnUse">
<stop stop-color="#FFFBB4"/>
<stop offset="0.495192" stop-color="#C38500"/>
<stop offset="0.875147" stop-color="white"/>
</linearGradient>
</defs>
</svg>
