<svg width="324" height="392" viewBox="0 0 324 392" fill="none" xmlns="http://www.w3.org/2000/svg">
<path d="M231.937 -4.02592e-06C285.054 -1.84523e-06 327.136 44.8543 323.75 97.8632L310.468 305.863C307.375 354.298 267.188 392 218.655 392L106.271 392C57.8443 392 17.7081 354.459 14.4763 306.14L0.564144 98.1397C-2.98801 45.0317 39.1324 -1.19415e-05 92.3591 -9.75626e-06L231.937 -4.02592e-06Z" fill="#D9D9D9"/>
<path d="M231.937 -4.02592e-06C285.054 -1.84523e-06 327.136 44.8543 323.75 97.8632L310.468 305.863C307.375 354.298 267.188 392 218.655 392L106.271 392C57.8443 392 17.7081 354.459 14.4763 306.14L0.564144 98.1397C-2.98801 45.0317 39.1324 -1.19415e-05 92.3591 -9.75626e-06L231.937 -4.02592e-06Z" fill="url(#paint0_linear_142_153886)"/>
<path d="M231.937 -4.02592e-06C285.054 -1.84523e-06 327.136 44.8543 323.75 97.8632L310.468 305.863C307.375 354.298 267.188 392 218.655 392L106.271 392C57.8443 392 17.7081 354.459 14.4763 306.14L0.564144 98.1397C-2.98801 45.0317 39.1324 -1.19415e-05 92.3591 -9.75626e-06L231.937 -4.02592e-06Z" fill="url(#paint1_linear_142_153886)"/>
<path d="M231.937 -4.02592e-06C285.054 -1.84523e-06 327.136 44.8543 323.75 97.8632L310.468 305.863C307.375 354.298 267.188 392 218.655 392L106.271 392C57.8443 392 17.7081 354.459 14.4763 306.14L0.564144 98.1397C-2.98801 45.0317 39.1324 -1.19415e-05 92.3591 -9.75626e-06L231.937 -4.02592e-06Z" fill="url(#paint2_radial_142_153886)"/>
<defs>
<linearGradient id="paint0_linear_142_153886" x1="-16.0387" y1="288.314" x2="257.364" y2="352.417" gradientUnits="userSpaceOnUse">
<stop stop-color="#35A2EB"/>
<stop offset="1" stop-color="#CFECFF"/>
</linearGradient>
<linearGradient id="paint1_linear_142_153886" x1="880.819" y1="418.949" x2="473.082" y2="1074.3" gradientUnits="userSpaceOnUse">
<stop stop-color="#FFFBB4"/>
<stop offset="0.495192" stop-color="#C38500"/>
<stop offset="0.875147" stop-color="white"/>
</linearGradient>
<radialGradient id="paint2_radial_142_153886" cx="0" cy="0" r="1" gradientTransform="matrix(-263.001 550.998 -975.725 -386.992 177.292 92.6622)" gradientUnits="userSpaceOnUse">
<stop stop-color="#441500"/>
<stop offset="1" stop-color="#AA3500"/>
</radialGradient>
</defs>
</svg>
