<svg width="220" height="62" viewBox="0 0 220 62" fill="none" xmlns="http://www.w3.org/2000/svg">
<path d="M34.9708 13.4273C36.5592 13.7986 37.7659 14.4278 38.5911 15.3148C39.4369 16.1812 39.8598 17.2849 39.8598 18.6257C39.8598 20.1316 39.344 21.4415 38.3126 22.5555C37.2812 23.6488 35.7959 24.4843 33.8568 25.0619C31.9383 25.6395 29.6589 25.9283 27.0184 25.9283C19.6952 25.9283 15.1672 23.752 13.4344 19.3993L19.4683 18.3472C20.0046 19.2962 20.902 20.0285 22.1603 20.5442C23.4187 21.0393 24.9555 21.2868 26.7708 21.2868C29.0813 21.2868 30.8347 21.0393 32.0312 20.5442C33.2276 20.0285 33.8259 19.3065 33.8259 18.3782C33.8259 17.5324 33.4236 16.9135 32.6191 16.5216C31.8146 16.109 30.5975 15.9027 28.9678 15.9027H22.4698V11.5707H28.6584C31.6495 11.5707 33.1451 10.859 33.1451 9.43564C33.1451 8.63112 32.681 8.01226 31.7527 7.57906C30.8244 7.12523 29.4732 6.89831 27.6991 6.89831C25.8838 6.89831 24.3573 7.1046 23.1196 7.51717C21.8818 7.92975 20.8813 8.57955 20.1181 9.46659L14.3936 8.47641C15.5901 6.37228 17.2713 4.81481 19.4373 3.80401C21.6034 2.77257 24.347 2.25685 27.6682 2.25685C30.2055 2.25685 32.3303 2.54566 34.0425 3.12326C35.7753 3.68024 37.0646 4.45381 37.9103 5.44399C38.7561 6.43417 39.179 7.56874 39.179 8.84773C39.179 9.92042 38.818 10.8487 38.096 11.6326C37.374 12.4165 36.3322 13.0147 34.9708 13.4273ZM52.5592 25H43.5857V3.18515H49.6196V19.1208H50.8574L64.3176 3.18515H73.2911V25H67.2572V9.06433H66.0194L52.5592 25ZM84.0629 25H78.2456V3.18515H88.1164L96.1926 19.4303H97.4303L105.723 3.18515H115.439V25H109.622V8.7549H108.539L100.029 25H93.4077L85.1459 8.7549H84.0629V25ZM141.626 11.4779V3.18515H147.66V25H141.626V16.4288H126.433V25H120.399V3.18515H126.433V11.4779H141.626ZM176.283 3.18515V25H170.249V18.0069H164.989L157.655 25H150.6L158.46 17.5737C156.314 17.0992 154.695 16.2534 153.602 15.0363C152.529 13.8192 151.993 12.334 151.993 10.5805C151.993 8.31138 152.89 6.51668 154.685 5.19644C156.5 3.85558 159.192 3.18515 162.761 3.18515H176.283ZM170.249 13.2107V7.98132H161.956C160.781 7.98132 159.852 8.22886 159.172 8.72395C158.511 9.19841 158.181 9.81727 158.181 10.5805C158.181 11.3644 158.511 12.0039 159.172 12.499C159.852 12.9735 160.781 13.2107 161.956 13.2107H170.249ZM204.899 3.18515V25H198.865V18.0069H193.605L186.272 25H179.217L187.076 17.5737C184.931 17.0992 183.311 16.2534 182.218 15.0363C181.145 13.8192 180.609 12.334 180.609 10.5805C180.609 8.31138 181.506 6.51668 183.301 5.19644C185.116 3.85558 187.809 3.18515 191.377 3.18515H204.899ZM198.865 13.2107V7.98132H190.573C189.397 7.98132 188.469 8.22886 187.788 8.72395C187.128 9.19841 186.798 9.81727 186.798 10.5805C186.798 11.3644 187.128 12.0039 187.788 12.499C188.469 12.9735 189.397 13.2107 190.573 13.2107H198.865Z" fill="white"/>
<path d="M18.0058 56.8697C12.7042 56.8697 8.63007 55.8486 5.78331 53.8063C2.93655 51.7641 1.51317 48.8348 1.51317 45.0185C1.51317 41.2228 2.93655 38.3039 5.78331 36.2616C8.63007 34.2194 12.7146 33.1983 18.0368 33.1983C21.915 33.1983 25.1949 33.8171 27.8767 35.0548C30.579 36.2719 32.4665 37.9429 33.5392 40.0676L26.7627 41.0578C25.8757 40.0264 24.6895 39.2837 23.2043 38.8299C21.7396 38.3761 19.9965 38.1491 17.9749 38.1491C14.5505 38.1491 11.9822 38.7474 10.2701 39.9438C8.55787 41.1197 7.70178 42.8112 7.70178 45.0185C7.70178 47.2258 8.54756 48.9276 10.2391 50.1241C11.9513 51.3206 14.5196 51.9188 17.9439 51.9188C20.0893 51.9188 21.9253 51.6816 23.4518 51.2071C24.9783 50.712 26.1851 49.9178 27.0721 48.8245L33.8487 49.7837C32.8172 51.9498 30.9194 53.6722 28.1551 54.9512C25.4115 56.2302 22.0284 56.8697 18.0058 56.8697ZM51.2222 54.549C45.7762 54.549 41.8568 53.6826 39.4639 51.9498C37.0709 50.2169 35.8745 47.855 35.8745 44.8638C35.8745 41.8726 37.0709 39.521 39.4639 37.8088C41.8568 36.076 45.7762 35.2096 51.2222 35.2096V32.8888H56.9467V35.2096C67.1785 35.2096 72.2944 38.4276 72.2944 44.8638C72.2944 51.3206 67.1785 54.549 56.9467 54.549V56.8697H51.2222V54.549ZM51.2222 40.1604C48.8705 40.1604 47.014 40.3461 45.6525 40.7174C44.3116 41.0887 43.3627 41.6148 42.8057 42.2955C42.2694 42.9763 42.0012 43.8324 42.0012 44.8638C42.0012 46.4109 42.6716 47.5868 44.0125 48.3913C45.374 49.1958 47.7772 49.5981 51.2222 49.5981V40.1604ZM56.9467 49.5981C59.319 49.5981 61.1756 49.4124 62.5164 49.0411C63.8779 48.6492 64.8268 48.1128 65.3632 47.4321C65.9202 46.7307 66.1987 45.8746 66.1987 44.8638C66.1987 43.8324 65.9305 42.9763 65.3941 42.2955C64.8578 41.6148 63.9089 41.0887 62.5474 40.7174C61.1859 40.3461 59.319 40.1604 56.9467 40.1604V49.5981ZM99.0551 55.9414H76.0025V34.1266H98.6219V38.9227H81.8817V42.6359H97.1057V47.2774H81.8817V51.1452H99.0551V55.9414ZM126.281 55.9414H103.229V34.1266H125.848V38.9227H109.108V42.6359H124.332V47.2774H109.108V51.1452H126.281V55.9414ZM130.455 55.9414V34.1266H144.287C146.68 34.1266 148.681 34.4669 150.29 35.1477C151.899 35.8078 153.095 36.7258 153.879 37.9016C154.663 39.0774 155.055 40.4389 155.055 41.9861C155.055 43.5332 154.663 44.905 153.879 46.1015C153.095 47.2774 151.899 48.2056 150.29 48.8864C148.681 49.5465 146.68 49.8766 144.287 49.8766H136.489V55.9414H130.455ZM145.091 45.0804C146.246 45.0804 147.164 44.7916 147.845 44.214C148.526 43.6158 148.866 42.8731 148.866 41.9861C148.866 41.1197 148.526 40.3977 147.845 39.8201C147.164 39.2218 146.246 38.9227 145.091 38.9227H136.489V45.0804H145.091ZM167.743 55.9414H158.769V34.1266H164.803V50.0622H166.041L179.501 34.1266H188.474V55.9414H182.441V40.0057H181.203L167.743 55.9414ZM217.1 34.1266V55.9414H211.067V48.9483H205.806L198.473 55.9414H191.418L199.277 48.5151C197.132 48.0406 195.512 47.1948 194.419 45.9777C193.346 44.7606 192.81 43.2754 192.81 41.5219C192.81 39.2528 193.707 37.4581 195.502 36.1379C197.318 34.797 200.01 34.1266 203.578 34.1266H217.1ZM211.067 44.1521V38.9227H202.774C201.598 38.9227 200.67 39.1703 199.989 39.6654C199.329 40.1398 198.999 40.7587 198.999 41.5219C198.999 42.3058 199.329 42.9453 199.989 43.4404C200.67 43.9149 201.598 44.1521 202.774 44.1521H211.067Z" fill="white"/>
</svg>
