<svg width="30" height="30" viewBox="0 0 30 30" fill="none" xmlns="http://www.w3.org/2000/svg">
<g clip-path="url(#clip0_514_756)">
<path d="M15 0C9.72861 0 5.33203 4.24629 5.33203 9.66797C5.33203 11.7306 5.95184 13.5698 7.14135 15.2933L14.2601 26.4015C14.6055 26.9415 15.3952 26.9405 15.7399 26.4015L22.8895 15.2555C24.0534 13.6102 24.668 11.6781 24.668 9.66797C24.668 4.33705 20.3309 0 15 0ZM15 14.0625C12.577 14.0625 10.6055 12.091 10.6055 9.66797C10.6055 7.24494 12.577 5.27344 15 5.27344C17.423 5.27344 19.3945 7.24494 19.3945 9.66797C19.3945 12.091 17.423 14.0625 15 14.0625Z" fill="black"/>
<path d="M15 0C9.72861 0 5.33203 4.24629 5.33203 9.66797C5.33203 11.7306 5.95184 13.5698 7.14135 15.2933L14.2601 26.4015C14.6055 26.9415 15.3952 26.9405 15.7399 26.4015L22.8895 15.2555C24.0534 13.6102 24.668 11.6781 24.668 9.66797C24.668 4.33705 20.3309 0 15 0ZM15 14.0625C12.577 14.0625 10.6055 12.091 10.6055 9.66797C10.6055 7.24494 12.577 5.27344 15 5.27344C17.423 5.27344 19.3945 7.24494 19.3945 9.66797C19.3945 12.091 17.423 14.0625 15 14.0625Z" fill="url(#paint0_linear_514_756)"/>
<path d="M15 0C9.72861 0 5.33203 4.24629 5.33203 9.66797C5.33203 11.7306 5.95184 13.5698 7.14135 15.2933L14.2601 26.4015C14.6055 26.9415 15.3952 26.9405 15.7399 26.4015L22.8895 15.2555C24.0534 13.6102 24.668 11.6781 24.668 9.66797C24.668 4.33705 20.3309 0 15 0ZM15 14.0625C12.577 14.0625 10.6055 12.091 10.6055 9.66797C10.6055 7.24494 12.577 5.27344 15 5.27344C17.423 5.27344 19.3945 7.24494 19.3945 9.66797C19.3945 12.091 17.423 14.0625 15 14.0625Z" fill="url(#paint1_linear_514_756)"/>
<path d="M22.8176 18.5215L17.7822 26.394C16.4788 28.4261 13.5139 28.4194 12.2168 26.3959L7.1732 18.5236C2.7356 19.5496 0 21.4291 0 23.6752C0 27.5726 7.72853 29.6752 15 29.6752C22.2715 29.6752 30 27.5726 30 23.6752C30 21.4275 27.2606 19.547 22.8176 18.5215Z" fill="black"/>
<path d="M22.8176 18.5215L17.7822 26.394C16.4788 28.4261 13.5139 28.4194 12.2168 26.3959L7.1732 18.5236C2.7356 19.5496 0 21.4291 0 23.6752C0 27.5726 7.72853 29.6752 15 29.6752C22.2715 29.6752 30 27.5726 30 23.6752C30 21.4275 27.2606 19.547 22.8176 18.5215Z" fill="url(#paint2_linear_514_756)"/>
<path d="M22.8176 18.5215L17.7822 26.394C16.4788 28.4261 13.5139 28.4194 12.2168 26.3959L7.1732 18.5236C2.7356 19.5496 0 21.4291 0 23.6752C0 27.5726 7.72853 29.6752 15 29.6752C22.2715 29.6752 30 27.5726 30 23.6752C30 21.4275 27.2606 19.547 22.8176 18.5215Z" fill="url(#paint3_linear_514_756)"/>
</g>
<defs>
<linearGradient id="paint0_linear_514_756" x1="5.33203" y1="0" x2="18.2869" y2="29.9182" gradientUnits="userSpaceOnUse">
<stop stop-color="#1A99FB"/>
<stop offset="1" stop-color="#0C5E9A"/>
</linearGradient>
<linearGradient id="paint1_linear_514_756" x1="15.0005" y1="26.8061" x2="15.0005" y2="0" gradientUnits="userSpaceOnUse">
<stop stop-color="#005357"/>
<stop offset="1" stop-color="#007F85"/>
</linearGradient>
<linearGradient id="paint2_linear_514_756" x1="0" y1="18.5215" x2="1.69378" y2="33.1074" gradientUnits="userSpaceOnUse">
<stop stop-color="#1A99FB"/>
<stop offset="1" stop-color="#0C5E9A"/>
</linearGradient>
<linearGradient id="paint3_linear_514_756" x1="15.0008" y1="29.6752" x2="15.0008" y2="18.5215" gradientUnits="userSpaceOnUse">
<stop stop-color="#005357"/>
<stop offset="1" stop-color="#007F85"/>
</linearGradient>
<clipPath id="clip0_514_756">
<rect width="30" height="30" fill="white"/>
</clipPath>
</defs>
</svg>
