<svg width="150" height="40" viewBox="0 0 150 40" fill="none" xmlns="http://www.w3.org/2000/svg">
<g clip-path="url(#clip0_89_125)">
<path d="M53.7621 31.8787C53.5828 32.0889 53.2975 32.297 52.9041 32.5072C52.5108 32.7174 52.095 32.8215 51.6548 32.8215C50.9354 32.8215 50.3117 32.5419 49.7818 31.9827C49.254 31.4236 48.989 30.7358 48.989 29.9195C48.989 29.1032 49.254 28.4174 49.7818 27.8562C50.3097 27.297 50.9333 27.0174 51.6548 27.0174C51.9401 27.0174 52.2132 27.0603 52.4741 27.148C52.735 27.2358 52.9469 27.3338 53.11 27.444C53.273 27.5542 53.4259 27.6827 53.5665 27.8317C53.7071 27.9807 53.7968 28.0827 53.8376 28.1378C53.8783 28.195 53.9089 28.2378 53.9293 28.2685L54.718 27.4868L54.3878 27.1256C54.1677 26.8746 53.8049 26.6236 53.2954 26.3705C52.788 26.1174 52.2397 25.9909 51.6528 25.9909C50.6317 25.9909 49.7492 26.3725 49.0074 27.1378C48.2655 27.9032 47.8926 28.8297 47.8926 29.9174C47.8926 31.0052 48.2635 31.9338 49.0033 32.697C49.7431 33.4623 50.6276 33.844 51.6528 33.844C52.0196 33.844 52.3824 33.7868 52.737 33.6705C53.0916 33.5562 53.381 33.4297 53.6073 33.295C53.8314 33.1603 54.0454 33.0032 54.2513 32.8276C54.4551 32.6521 54.5896 32.5256 54.6528 32.4521C54.7159 32.3787 54.7628 32.3215 54.7934 32.2787L54.0128 31.5725L53.7621 31.8787ZM58.6596 26.1154C58.3661 26.1991 58.1317 26.295 57.9544 26.3991C57.7791 26.5032 57.614 26.6236 57.4612 26.7603C57.3083 26.895 57.2105 26.9909 57.1698 27.044C57.129 27.097 57.0984 27.1399 57.078 27.1705V26.1501H55.9836V33.6889H57.078V29.5256C57.078 28.8052 57.3083 28.2195 57.7669 27.7685C58.2255 27.3195 58.7798 27.0929 59.4279 27.0929H59.9028V25.9889H59.5889C59.2649 25.9889 58.953 26.0317 58.6596 26.1154ZM64.0746 25.9889C63.0067 25.9889 62.0998 26.3685 61.3518 27.1276C60.6039 27.8868 60.2309 28.8174 60.2309 29.9195C60.2309 31.0215 60.6039 31.9501 61.3518 32.7072C62.0998 33.4644 63.0067 33.8419 64.0746 33.8419C65.1405 33.8419 66.0475 33.4644 66.7934 32.7072C67.5393 31.9501 67.9123 31.0215 67.9123 29.9195C67.9123 28.8174 67.5393 27.8868 66.7934 27.1276C66.0475 26.3685 65.1426 25.9889 64.0746 25.9889ZM66.0087 31.9827C65.4707 32.5419 64.8246 32.8215 64.0706 32.8215C63.3165 32.8215 62.6725 32.5399 62.1324 31.9746C61.5943 31.4093 61.3253 30.7236 61.3253 29.9154C61.3253 29.1031 61.5943 28.4154 62.1324 27.8562C62.6704 27.297 63.3165 27.0174 64.0706 27.0174C64.8226 27.0174 65.4687 27.297 66.0087 27.8562C66.5468 28.4154 66.8158 29.1032 66.8158 29.9195C66.8158 30.7358 66.5468 31.4215 66.0087 31.9827ZM73.1643 25.9889C72.8423 25.9889 72.5305 26.0358 72.2268 26.1317C71.9231 26.2256 71.6745 26.3338 71.4809 26.4542C71.2873 26.5746 71.1059 26.7113 70.9408 26.8644C70.7757 27.0174 70.6657 27.1256 70.6106 27.1909C70.5577 27.2542 70.521 27.3011 70.5006 27.3317V26.1501H69.4062V36.9848H70.5006V32.5072L70.6086 32.6521C70.6861 32.744 70.7981 32.8562 70.949 32.9848C71.0998 33.1154 71.2771 33.244 71.4809 33.3725C71.6847 33.5011 71.9374 33.6093 72.235 33.7031C72.5346 33.795 72.8443 33.8419 73.1664 33.8419C74.1303 33.8419 74.9741 33.4583 75.6935 32.6889C76.413 31.9195 76.7737 30.997 76.7737 29.9215C76.7737 28.846 76.413 27.9215 75.6895 27.1501C74.9659 26.3746 74.1242 25.9889 73.1643 25.9889ZM74.9068 31.9746C74.3933 32.5399 73.8124 32.8215 73.1643 32.8215C72.4856 32.8215 71.8722 32.5317 71.3219 31.9501C70.7737 31.3705 70.4986 30.6929 70.4986 29.9174C70.4986 29.144 70.7737 28.4664 71.3219 27.8848C71.8702 27.3052 72.4836 27.0134 73.1643 27.0134C73.8124 27.0134 74.3933 27.295 74.9068 27.8603C75.4204 28.4256 75.6772 29.1113 75.6772 29.9154C75.6772 30.7236 75.4204 31.4093 74.9068 31.9746ZM85.3722 25.9889C85.0502 25.9889 84.7384 26.0358 84.4347 26.1317C84.131 26.2256 83.8824 26.3338 83.6888 26.4542C83.4952 26.5746 83.3138 26.7113 83.1487 26.8644C82.9836 27.0174 82.8736 27.1256 82.8185 27.1909C82.7655 27.2542 82.7289 27.3011 82.7085 27.3317V26.1501H81.614V36.9848H82.7085V32.5072L82.8165 32.6521C82.8939 32.744 83.006 32.8562 83.1568 32.9848C83.3077 33.1154 83.485 33.244 83.6888 33.3725C83.8926 33.5011 84.1453 33.6093 84.4428 33.7031C84.7424 33.795 85.0522 33.8419 85.3742 33.8419C86.3382 33.8419 87.182 33.4583 87.9014 32.6889C88.6208 31.9195 88.9816 30.997 88.9816 29.9215C88.9816 28.846 88.6208 27.9215 87.8973 27.1501C87.1738 26.3746 86.3321 25.9889 85.3722 25.9889ZM87.1147 31.9746C86.6011 32.5399 86.0203 32.8215 85.3722 32.8215C84.6935 32.8215 84.0801 32.5317 83.5298 31.9501C82.9816 31.3705 82.7064 30.6929 82.7064 29.9174C82.7064 29.144 82.9816 28.4664 83.5298 27.8848C84.078 27.3052 84.6915 27.0134 85.3722 27.0134C86.0203 27.0134 86.6011 27.295 87.1147 27.8603C87.6283 28.4256 87.8851 29.1113 87.8851 29.9154C87.8831 30.7236 87.6283 31.4093 87.1147 31.9746ZM93.1473 26.1154C92.8539 26.1991 92.6195 26.295 92.4422 26.3991C92.2669 26.5032 92.1018 26.6236 91.949 26.7603C91.7961 26.895 91.6983 26.9909 91.6575 27.044C91.6168 27.097 91.5862 27.1399 91.5658 27.1705V26.1501H90.4714V33.6889H91.5658V29.5256C91.5658 28.8052 91.7961 28.2195 92.2547 27.7685C92.7132 27.3195 93.2676 27.0929 93.9157 27.0929H94.3905V25.9889H94.0767C93.7506 25.9889 93.4408 26.0317 93.1473 26.1154ZM98.5604 25.9889C97.4945 25.9889 96.5855 26.3685 95.8375 27.1276C95.0896 27.8868 94.7146 28.8174 94.7146 29.9195C94.7146 31.0215 95.0896 31.9501 95.8375 32.7072C96.5855 33.4644 97.4924 33.8419 98.5604 33.8419C99.6283 33.8419 100.533 33.4644 101.279 32.7072C102.025 31.9501 102.398 31.0215 102.398 29.9195C102.398 28.8174 102.025 27.8868 101.279 27.1276C100.535 26.3685 99.6283 25.9889 98.5604 25.9889ZM100.494 31.9827C99.9564 32.5419 99.3104 32.8215 98.5563 32.8215C97.8043 32.8215 97.1582 32.5399 96.6181 31.9746C96.0801 31.4093 95.811 30.7236 95.811 29.9154C95.811 29.1031 96.0801 28.4154 96.6181 27.8562C97.1562 27.297 97.8022 27.0174 98.5563 27.0174C99.3083 27.0174 99.9544 27.297 100.494 27.8562C101.033 28.4154 101.302 29.1032 101.302 29.9195C101.304 30.7358 101.033 31.4215 100.494 31.9827ZM106.863 32.7603C106.698 32.8011 106.531 32.8215 106.362 32.8215C105.683 32.8256 105.343 32.4358 105.343 31.648V27.1705H106.99V26.1501H105.343V23.6358H104.324V25.3685C104.324 25.8909 104.114 26.1501 103.696 26.1501H102.83V27.1705H104.247V31.648C104.247 32.348 104.43 32.8889 104.795 33.2705C105.16 33.6521 105.667 33.8419 106.315 33.8419C106.713 33.848 107.067 33.7705 107.379 33.6113V32.5909L107.24 32.6521C107.157 32.6848 107.03 32.7195 106.863 32.7603ZM111.563 25.9889C110.573 25.9889 109.711 26.3705 108.979 27.1358C108.247 27.9011 107.88 28.8276 107.88 29.9154C107.88 31.0032 108.251 31.9317 108.991 32.695C109.731 33.4603 110.615 33.8419 111.641 33.8419C112.018 33.8419 112.386 33.7848 112.747 33.6685C113.108 33.5542 113.401 33.4276 113.628 33.2929C113.854 33.1583 114.066 33.0011 114.264 32.8256C114.459 32.6501 114.588 32.5236 114.647 32.4501C114.706 32.3766 114.751 32.3195 114.781 32.2766L114.076 31.5705L113.807 31.8766C113.638 32.0868 113.352 32.295 112.949 32.5052C112.545 32.7154 112.109 32.8195 111.641 32.8195C110.941 32.8195 110.332 32.5725 109.814 32.0746C109.297 31.5787 109.016 30.9909 108.977 30.3113L115.095 30.3276L115.172 29.7603C115.172 28.6705 114.828 27.7705 114.139 27.0562C113.446 26.346 112.588 25.9889 111.563 25.9889ZM108.975 29.3705C109.062 28.7317 109.35 28.1787 109.841 27.7134C110.33 27.248 110.905 27.0154 111.565 27.0154C112.225 27.0154 112.786 27.2378 113.255 27.6827C113.721 28.1276 113.997 28.6889 114.078 29.3705H108.975ZM122.028 31.8787C121.849 32.0889 121.564 32.297 121.17 32.5072C120.777 32.7174 120.361 32.8215 119.923 32.8215C119.204 32.8215 118.58 32.5419 118.05 31.9827C117.522 31.4236 117.257 30.7358 117.257 29.9195C117.257 29.1032 117.522 28.4174 118.05 27.8562C118.578 27.297 119.202 27.0174 119.923 27.0174C120.208 27.0174 120.482 27.0603 120.742 27.148C121.003 27.2358 121.215 27.3338 121.378 27.444C121.541 27.5542 121.694 27.6827 121.835 27.8317C121.975 27.9807 122.065 28.0827 122.106 28.1378C122.147 28.195 122.177 28.2378 122.198 28.2685L122.986 27.4868L122.656 27.1256C122.436 26.8746 122.073 26.6236 121.566 26.3705C121.058 26.1174 120.51 25.9909 119.923 25.9909C118.902 25.9909 118.02 26.3725 117.278 27.1378C116.534 27.9032 116.163 28.8297 116.163 29.9174C116.163 31.0052 116.534 31.9338 117.274 32.697C118.013 33.4623 118.898 33.844 119.923 33.844C120.29 33.844 120.653 33.7868 121.007 33.6705C121.362 33.5562 121.651 33.4297 121.876 33.295C122.1 33.1603 122.314 33.0032 122.52 32.8276C122.723 32.6521 122.858 32.5256 122.921 32.4521C122.984 32.3787 123.033 32.3215 123.064 32.2787L122.283 31.5725L122.028 31.8787ZM127.741 32.7603C127.576 32.8011 127.409 32.8215 127.24 32.8215C126.561 32.8256 126.221 32.4358 126.221 31.648V27.1705H127.867V26.1501H126.221V23.6358H125.202V25.3685C125.202 25.8909 124.992 26.1501 124.574 26.1501H123.708V27.1705H125.124V31.648C125.124 32.348 125.308 32.8889 125.672 33.2705C126.037 33.6521 126.545 33.8419 127.193 33.8419C127.59 33.848 127.945 33.7705 128.257 33.6113V32.5909L128.118 32.6521C128.033 32.6848 127.906 32.7195 127.741 32.7603ZM129.48 33.6889H130.574V26.1501H129.48V33.6889ZM130.024 22.9297C129.824 22.9297 129.657 22.997 129.522 23.1338C129.388 23.2685 129.319 23.4358 129.319 23.6358C129.319 23.8358 129.386 24.0032 129.522 24.1378C129.657 24.2725 129.824 24.3419 130.024 24.3419C130.223 24.3419 130.391 24.2746 130.525 24.1378C130.66 24.0032 130.729 23.8358 130.729 23.6358C130.729 23.4358 130.662 23.2685 130.525 23.1338C130.388 22.997 130.221 22.9297 130.024 22.9297ZM135.871 25.9889C134.805 25.9889 133.896 26.3685 133.148 27.1276C132.4 27.8868 132.025 28.8174 132.025 29.9195C132.025 31.0215 132.4 31.9501 133.148 32.7072C133.896 33.4644 134.803 33.8419 135.871 33.8419C136.939 33.8419 137.844 33.4644 138.59 32.7072C139.336 31.9501 139.708 31.0215 139.708 29.9195C139.708 28.8174 139.336 27.8868 138.59 27.1276C137.844 26.3685 136.939 25.9889 135.871 25.9889ZM137.805 31.9827C137.267 32.5419 136.621 32.8215 135.867 32.8215C135.115 32.8215 134.469 32.5399 133.929 31.9746C133.391 31.4093 133.122 30.7236 133.122 29.9154C133.122 29.1031 133.391 28.4154 133.929 27.8562C134.467 27.297 135.113 27.0174 135.867 27.0174C136.619 27.0174 137.265 27.297 137.805 27.8562C138.343 28.4154 138.612 29.1032 138.612 29.9195C138.612 30.7358 138.343 31.4215 137.805 31.9827ZM146.921 26.8705C146.355 26.2827 145.617 25.9889 144.708 25.9889C144.406 25.9889 144.115 26.0338 143.831 26.1236C143.548 26.2134 143.32 26.3134 143.151 26.4215C142.98 26.5317 142.819 26.6603 142.664 26.8093C142.511 26.9583 142.413 27.0603 142.372 27.1154C142.331 27.1705 142.301 27.2154 142.28 27.246V26.1501H141.186V33.6889H142.28V29.5256C142.28 28.795 142.505 28.1929 142.955 27.7236C143.405 27.2542 143.964 27.0174 144.632 27.0174C145.23 27.0174 145.719 27.2174 146.1 27.6195C146.481 28.0215 146.67 28.5501 146.67 29.2113V33.6889H147.773V29.2113C147.771 28.2378 147.488 27.4583 146.921 26.8705Z" fill="#454246"/>
<path d="M11.3556 3.34081C10.1817 2.25101 8.67561 1.70815 6.8373 1.70815C6.10156 1.70815 5.39029 1.80815 4.70143 2.00815C4.01257 2.20815 3.45822 2.43468 3.04042 2.68979C2.62262 2.94489 2.2252 3.23468 1.85428 3.55713C1.48132 3.87958 1.24083 4.10409 1.13485 4.23266C1.02684 4.36123 0.943274 4.4653 0.882133 4.54693L2.92018 6.58572L3.3339 6.04899C3.57846 5.71225 4.0248 5.37756 4.67493 5.04491C5.32507 4.71225 6.04654 4.54693 6.84137 4.54693C7.76053 4.54693 8.51257 4.81838 9.09953 5.35919C9.68648 5.90001 9.97996 6.57144 9.97996 7.36731L4.48132 8.31841C3.12398 8.54291 2.05401 9.07551 1.27344 9.91431C0.492867 10.7531 0.101562 11.7898 0.101562 13.0286C0.101562 14.1734 0.606997 15.1918 1.61787 16.0816C2.62874 16.9714 3.90048 17.4162 5.43105 17.4162C5.95279 17.4162 6.46841 17.349 6.97792 17.2163C7.48947 17.0837 7.91135 16.9327 8.24966 16.7633C8.58594 16.5939 8.8998 16.4061 9.19124 16.1959C9.48268 15.9857 9.67629 15.8347 9.77412 15.7429C9.87194 15.651 9.9392 15.5837 9.97996 15.5429V17.1082H13.1206V7.36941C13.1185 5.77144 12.5316 4.4306 11.3556 3.34081ZM9.97792 10.1878C9.97792 11.598 9.61719 12.6857 8.89776 13.4469C8.17833 14.2082 7.17969 14.5898 5.90387 14.5898C5.08662 14.5898 4.43648 14.4 3.95143 14.0224C3.46637 13.6449 3.22385 13.2041 3.22385 12.7041C3.22385 12.1612 3.39708 11.7122 3.74558 11.3551C4.09205 10.998 4.54654 10.7673 5.10904 10.6653L9.97996 9.88371V10.1878H9.97792ZM21.8454 13.0265L17.4494 2.03062H14.1559L20.2823 17.1061H23.4066L29.533 2.03062H26.2395L21.8454 13.0265ZM41.323 3.59389L40.8013 3.1347C40.465 2.81838 39.9188 2.50001 39.1627 2.18368C38.4066 1.86736 37.6118 1.70815 36.7741 1.70815C34.8747 1.70815 33.2259 2.44081 31.8278 3.90815C30.4297 5.3755 29.7286 7.15711 29.7286 9.25301C29.7286 11.349 30.4277 13.1306 31.8278 14.5979C33.2259 16.0653 34.8767 16.7979 36.7741 16.7979C37.306 16.7979 37.8257 16.7286 38.3373 16.5918C38.8488 16.4531 39.2707 16.3 39.609 16.1327C39.9453 15.9633 40.2592 15.7755 40.5506 15.5653C40.8421 15.3551 41.0336 15.2041 41.1253 15.1122L41.3251 14.9122V16.2C41.3251 17.5795 40.9134 18.704 40.0921 19.5734C39.2707 20.4428 38.2211 20.8774 36.9453 20.8774C36.3726 20.8774 35.8224 20.7938 35.2904 20.6244C34.7585 20.455 34.3264 20.2672 33.9881 20.057C33.6518 19.8468 33.3319 19.6081 33.0302 19.3366C32.7286 19.0652 32.5329 18.8774 32.4412 18.7693C32.3495 18.6611 32.2823 18.5774 32.2415 18.5162L30.1892 20.557L30.4501 20.8795C30.6131 21.104 30.8842 21.3693 31.2612 21.6774C31.6382 21.9836 32.0785 22.2877 32.5778 22.5897C33.0771 22.8917 33.7171 23.153 34.4915 23.3713C35.268 23.5917 36.0853 23.7019 36.9412 23.7019C39.0547 23.7019 40.8359 22.9754 42.287 21.5244C43.7381 20.0734 44.4616 18.2877 44.4616 16.1714V2.03062H41.321V3.59389H41.323ZM40.0594 12.5959C39.2177 13.5061 38.2293 13.9612 37.0961 13.9612C35.963 13.9612 34.9725 13.5061 34.1247 12.5959C33.2768 11.6857 32.8529 10.5714 32.8529 9.25301C32.8529 7.93471 33.2768 6.82042 34.1247 5.91021C34.9725 5.00001 35.963 4.54491 37.0961 4.54491C38.2293 4.54491 39.2177 5.00001 40.0594 5.91021C40.9012 6.82042 41.323 7.93471 41.323 9.25301C41.323 10.5714 40.9012 11.6857 40.0594 12.5959ZM58.7055 10.1878C58.7055 11.5776 58.3509 12.6592 57.6416 13.4306C56.9324 14.202 55.9806 14.5878 54.7843 14.5878C53.7632 14.5878 52.9073 14.2306 52.2184 13.5143C51.5296 12.798 51.1851 11.898 51.1851 10.8143V2.02652H48.0445V10.8143C48.0445 12.8286 48.609 14.4306 49.7361 15.6224C50.8652 16.8143 52.3366 17.4082 54.1546 17.4082C54.6865 17.4082 55.2062 17.3408 55.7177 17.2082C56.2293 17.0755 56.6512 16.9245 56.9895 16.7551C57.3258 16.5857 57.6396 16.398 57.931 16.1878C58.2225 15.9776 58.4141 15.8265 58.5058 15.7347L58.7055 15.5347V17.1H61.8461V2.0245H58.7055V10.1878ZM73.7687 9.23671C73.1919 8.95101 72.5744 8.69181 71.9161 8.46331C71.2578 8.23271 70.6423 8.04081 70.0696 7.88771C69.4969 7.73471 69.0221 7.51021 68.645 7.21221C68.268 6.91632 68.0785 6.54693 68.0785 6.10815C68.0785 5.68979 68.2741 5.32448 68.6675 5.01223C69.0608 4.69999 69.5948 4.54491 70.2673 4.54491C70.7666 4.54491 71.266 4.65919 71.7612 4.88981C72.2565 5.12042 72.5826 5.30817 72.7415 5.45715C72.9005 5.60613 73.0207 5.7204 73.1022 5.80203L75.1403 3.76328L74.9406 3.53264C74.8183 3.41019 74.6206 3.24285 74.3516 3.03468C74.0805 2.82448 73.7666 2.62042 73.41 2.42042C73.0533 2.22042 72.5907 2.05307 72.0241 1.9143C71.4575 1.77552 70.8726 1.70815 70.2714 1.70815C68.751 1.70815 67.4813 2.15307 66.4643 3.04287C65.4473 3.93266 64.9399 4.95511 64.9399 6.11021C64.9399 6.94899 65.1294 7.66731 65.5065 8.26531C65.8835 8.86331 66.3624 9.30411 66.9392 9.58371C67.516 9.86531 68.1335 10.1204 68.7918 10.351C69.4501 10.5816 70.0656 10.7755 70.6383 10.9347C71.2109 11.0939 71.6858 11.3184 72.0628 11.6102C72.4399 11.902 72.6294 12.2673 72.6294 12.7061C72.6294 13.2796 72.4195 13.7367 72.0017 14.0796C71.5839 14.4224 70.9541 14.5939 70.1185 14.5939C69.4236 14.5939 68.7469 14.4224 68.0887 14.0796C67.4304 13.7367 67.0003 13.4592 66.8027 13.2429C66.6029 13.0286 66.4521 12.849 66.3502 12.7061L64.3122 14.7469L64.5425 15.0388C64.6851 15.2224 64.9175 15.4449 65.2395 15.7061C65.5615 15.9673 65.9365 16.2245 66.3645 16.4796C66.7925 16.7347 67.3427 16.9551 68.0112 17.1388C68.6797 17.3224 69.3828 17.4142 70.1165 17.4142C71.7918 17.4142 73.1512 16.9551 74.1987 16.0347C75.2463 15.1143 75.768 14.0041 75.768 12.7061C75.768 11.8673 75.5785 11.151 75.2014 10.5592C74.8223 9.96331 74.3455 9.52451 73.7687 9.23671ZM86.1967 14.3449C86.054 14.4061 85.8522 14.4632 85.5914 14.5143C85.3305 14.5653 85.0839 14.5918 84.8495 14.5918C84.3074 14.5918 83.859 14.4122 83.5024 14.0551C83.1457 13.6979 82.9664 13.2367 82.9664 12.6755V4.85305H86.107V2.03062H82.9664V-3H80.1478V0.144906C80.1478 1.40205 79.626 2.03062 78.5846 2.03062H77.0071V4.85305H79.84V12.7061C79.8298 15.8449 81.2891 17.4142 84.2198 17.4142C85.0676 17.4142 85.8033 17.3122 86.4249 17.1082V14.2857L86.1967 14.3449Z" fill="#454246"/>
<path d="M102.395 2.02734C106.642 2.02734 110.084 5.47428 110.084 9.7273C110.084 13.9804 106.642 17.4273 102.395 17.4273C98.1473 17.4273 94.7051 13.9804 94.7051 9.7273V2.02734H102.395Z" fill="#00B9E8"/>
<path d="M129.699 9.7273C129.699 13.9804 126.257 17.4273 122.01 17.4273C117.763 17.4273 114.32 13.9804 114.32 9.7273C114.32 5.47428 117.763 2.02734 122.01 2.02734H129.699V9.7273Z" fill="#6EB430"/>
<path d="M134.635 9.40701C134.635 5.15395 138.077 1.70703 142.324 1.70703C146.572 1.70703 150.014 5.15395 150.014 9.40701C150.014 13.6601 146.572 17.107 142.324 17.107H134.635V9.40701Z" fill="#F8B300"/>
</g>
<defs>
<clipPath id="clip0_89_125">
<rect width="150" height="40" fill="white"/>
</clipPath>
</defs>
</svg>
