<svg width="112" height="26" viewBox="0 0 112 26" fill="none" xmlns="http://www.w3.org/2000/svg">
<path fill-rule="evenodd" clip-rule="evenodd" d="M3.23573 18.8585C-1.07858 14.5442 -1.07858 7.54975 3.23573 3.23544C7.5463 -1.07512 14.5349 -1.07887 18.8499 3.22653L18.8588 3.23543C19.5704 3.94701 19.857 4.99471 19.7666 6.23421C20.2115 6.20148 20.6307 6.21791 21.0179 6.28505C21.7139 6.403 22.3084 6.685 22.7646 7.14119C27.0789 11.4555 27.0781 18.4507 22.7646 22.7643C18.4503 27.0786 11.4558 27.0786 7.14151 22.7643C6.68532 22.3081 6.40333 21.7136 6.28537 21.0176C6.21824 20.6304 6.20181 20.2112 6.23453 19.7663C4.99503 19.8566 3.94731 19.5701 3.23573 18.8585ZM11.0473 11.047C13.7288 8.36547 16.7713 6.67439 19.208 6.2981C19.3143 5.12201 19.0481 4.20581 18.4683 3.62601C17.6173 2.7751 16.0419 2.59955 13.9838 3.2856C11.9607 3.95996 9.64171 5.42217 7.5321 7.53178C5.42249 9.64139 3.96029 11.9603 3.28592 13.9834C2.59988 16.0416 2.77543 17.617 3.62633 18.4679C4.20613 19.0477 5.12233 19.314 6.29841 19.2077C6.67462 16.7711 8.36507 13.7292 11.0473 11.047ZM46.7236 17.9538C47.6249 18.4259 48.6479 18.662 49.7924 18.662V23.0185H52.1531V18.662C53.2977 18.662 54.3206 18.4259 55.222 17.9538C56.1233 17.4673 56.8243 16.7949 57.3251 15.9365C57.8258 15.078 58.0762 14.1052 58.0762 13.0178C58.0762 11.9305 57.8258 10.9648 57.3251 10.1206C56.8243 9.26221 56.1233 8.59693 55.222 8.1248C54.3206 7.63836 53.2977 7.39514 52.1531 7.39514V3.48931H49.7924V7.39514C48.6479 7.39514 47.6249 7.63836 46.7236 8.1248C45.8222 8.59693 45.1212 9.26221 44.6204 10.1206C44.1197 10.9648 43.8693 11.9305 43.8693 13.0178C43.8693 14.1052 44.1197 15.078 44.6204 15.9365C45.1212 16.7949 45.8222 17.4673 46.7236 17.9538ZM47.3674 10.5713C47.9969 9.92749 48.8052 9.60558 49.7924 9.60558V16.4515C48.8052 16.4515 47.9969 16.1368 47.3674 15.5073C46.7522 14.8634 46.4446 14.0336 46.4446 13.0178C46.4446 12.0163 46.7522 11.2008 47.3674 10.5713ZM54.5567 15.5073C53.9415 16.1368 53.1403 16.4515 52.1531 16.4515V9.60558C53.1403 9.60558 53.9415 9.92749 54.5567 10.5713C55.1862 11.2008 55.5009 12.0163 55.5009 13.0178C55.5009 14.0336 55.1862 14.8634 54.5567 15.5073ZM71.1761 12.9107C71.1761 13.1253 71.1618 13.3899 71.1332 13.7047H62.1626C62.2771 14.5774 62.6348 15.2785 63.2357 15.8078C63.8366 16.3229 64.602 16.5804 65.5319 16.5804C66.1615 16.5804 66.7266 16.4588 67.2273 16.2156C67.7424 15.9724 68.1358 15.6433 68.4077 15.2284L70.7254 15.6147C70.3248 16.6448 69.6309 17.4388 68.6437 17.9968C67.6709 18.5548 66.5835 18.8338 65.3817 18.8338C64.2658 18.8338 63.2643 18.5906 62.3772 18.1041C61.5045 17.6034 60.8178 16.9166 60.317 16.0439C59.8306 15.1569 59.5874 14.1554 59.5874 13.0394C59.5874 11.9235 59.8306 10.9291 60.317 10.0564C60.8178 9.16936 61.5045 8.48262 62.3772 7.99618C63.2643 7.49543 64.2658 7.24506 65.3817 7.24506C66.4977 7.24506 67.492 7.49543 68.3648 7.99618C69.2518 8.48262 69.9385 9.1622 70.425 10.0349C70.9257 10.8934 71.1761 11.8519 71.1761 12.9107ZM65.3817 9.39112C64.6378 9.39112 63.9868 9.60572 63.4288 10.0349C62.8851 10.4641 62.5132 11.0436 62.3129 11.7732H68.4935C68.2789 11.0579 67.8926 10.4856 67.3346 10.0564C66.791 9.61288 66.14 9.39112 65.3817 9.39112ZM73.099 7.45966V23.0186H75.567V16.9238C76.0105 17.4675 76.5827 17.9253 77.2838 18.2973C77.9848 18.6549 78.786 18.8338 79.6874 18.8338C80.7318 18.8338 81.6689 18.5906 82.4987 18.1041C83.3285 17.6034 83.9724 16.9166 84.4302 16.0439C84.9023 15.1569 85.1384 14.1554 85.1384 13.0394C85.1384 11.9235 84.9023 10.9291 84.4302 10.0564C83.9724 9.16936 83.3285 8.48262 82.4987 7.99618C81.6689 7.49543 80.7318 7.24506 79.6874 7.24506C78.7574 7.24506 77.9348 7.44535 77.2194 7.84595C76.5041 8.23224 75.9175 8.70438 75.4596 9.26235L74.9446 7.45966H73.099ZM81.5974 15.6362C80.9536 16.2943 80.1166 16.6233 79.0865 16.6233C78.0421 16.6233 77.1908 16.2943 76.5327 15.6362C75.8889 14.9637 75.567 14.0981 75.567 13.0394C75.567 11.9807 75.8889 11.1223 76.5327 10.4641C77.1908 9.79172 78.0421 9.4555 79.0865 9.4555C80.1166 9.4555 80.9536 9.79172 81.5974 10.4641C82.2412 11.1223 82.5631 11.9807 82.5631 13.0394C82.5631 14.0981 82.2412 14.9637 81.5974 15.6362ZM94.7849 7.45945H97.2958L92.7247 20.0139C92.3384 21.0726 91.8377 21.8381 91.2225 22.3102C90.6216 22.7823 89.8132 23.0184 88.7974 23.0184H87.102L86.8874 20.765H88.9691C89.384 20.765 89.6988 20.672 89.9134 20.486C90.1423 20.3144 90.3354 20.0068 90.4928 19.5632L90.6216 19.2199L85.6642 7.45945H88.3038L91.5873 15.5072H91.9307L94.7849 7.45945ZM101.064 18.619H98.7035V7.45945H102.545L105.12 15.1209H105.464L108.146 7.45945H111.902V18.619H109.541V10.3352H109.198L106.279 18.619H104.197L101.408 10.3352H101.064V18.619ZM37.4037 18.8338C36.2877 18.8338 35.2862 18.5906 34.3992 18.1041C33.5121 17.6034 32.8183 16.9166 32.3175 16.0439C31.8311 15.1569 31.5878 14.1554 31.5878 13.0394C31.5878 11.9235 31.8311 10.9291 32.3175 10.0564C32.8183 9.16936 33.5121 8.48262 34.3992 7.99618C35.2862 7.49543 36.2877 7.24506 37.4037 7.24506C38.6341 7.24506 39.7214 7.55266 40.6657 8.16786C41.6243 8.76876 42.3038 9.62718 42.7044 10.7431L40.3867 11.1294C40.1435 10.643 39.7643 10.2495 39.2493 9.94909C38.7485 9.64864 38.1834 9.49842 37.5539 9.49842C36.5524 9.49842 35.7369 9.82748 35.1074 10.4856C34.4779 11.1437 34.1631 11.995 34.1631 13.0394C34.1631 14.0838 34.4779 14.9351 35.1074 15.5932C35.7369 16.2514 36.5524 16.5804 37.5539 16.5804C38.212 16.5804 38.7986 16.4302 39.3137 16.1297C39.8287 15.815 40.215 15.4072 40.4725 14.9065L42.7903 15.2928C42.3897 16.423 41.6958 17.2958 40.7086 17.911C39.7214 18.5262 38.6198 18.8338 37.4037 18.8338Z" fill="white"/>
</svg>
