<svg width="304" height="110" viewBox="0 0 304 110" fill="none" xmlns="http://www.w3.org/2000/svg">
<path d="M2.11111 110H0V107.885H2.11111V110Z" fill="white"/>
<path d="M154.111 90.9615H149.889V82.5H152V65.5769H154.111V90.9615Z" fill="white"/>
<path d="M126.667 93.0769H124.556V84.6154H126.667V93.0769Z" fill="white"/>
<path d="M50.6667 61.3462H52.7778V63.4615H50.6667V65.5769H46.4444V55H48.5556V44.4231H50.6667V61.3462Z" fill="white"/>
<path d="M103.444 57.1154H99.2222V44.4231H101.333V42.3077H103.444V57.1154Z" fill="white"/>
<path d="M120.333 46.5385H118.222V33.8462H120.333V46.5385Z" fill="white"/>
<path d="M128.778 44.4231H126.667V46.5385H124.556V33.8462H128.778V44.4231Z" fill="white"/>
<path d="M139.333 44.4231H137.222V31.7308H139.333V44.4231Z" fill="white"/>
<path fill-rule="evenodd" clip-rule="evenodd" d="M52.7778 2.11538H69.6667V4.23077H86.5556V6.34615H105.556V8.46154H122.444V10.5769H141.444V12.6923H158.333V14.8077H164.667V16.9231H162.556V23.2692H160.444V27.5H158.333V33.8462H156.222V38.0769H154.111V44.4231H152V48.6538H154.111V46.5385H162.556V44.4231H168.889V42.3077H175.222V40.1923H181.556V38.0769H187.889V35.9615H194.222V33.8462H202.667V31.7308H209V29.6154H215.333V27.5H221.667V25.3846H228V23.2692H236.444V21.1538H242.778V19.0385H249.111V16.9231H255.444V14.8077H261.778V12.6923H268.111V10.5769H276.556V8.46154H282.889V6.34615H289.222V4.23077H295.556V2.11538H301.889V0H304V6.34615H301.889V16.9231H299.778V27.5H297.667V38.0769H295.556V48.6538H293.444V59.2308H291.333V69.8077H289.222V80.3846H287.111V90.9615H285V103.654H282.889V110H278.667V107.885H194.222V105.769H109.778V103.654H103.444V101.538H105.556V95.1923H107.667V88.8462H109.778V82.5H111.889V76.1538H107.667V78.2692H99.2222V80.3846H92.8889V82.5H86.5556V84.6154H78.1111V86.7308H71.7778V88.8462H65.4444V90.9615H57V93.0769H50.6667V95.1923H44.3333V97.3077H35.8889V99.4231H29.5556V101.538H23.2222V103.654H14.7778V105.769H8.44444V107.885H2.11111V103.654H4.22222V97.3077H6.33333V93.0769H8.44444V88.8462H10.5556V84.6154H12.6667V78.2692H14.7778V74.0385H16.8889V69.8077H19V65.5769H21.1111V59.2308H23.2222V55H25.3333V50.7692H27.4444V46.5385H29.5556V40.1923H31.6667V35.9615H33.7778V31.7308H35.8889V25.3846H38V21.1538H40.1111V16.9231H42.2222V12.6923H44.3333V6.34615H46.4444V2.11538H48.5556V0H52.7778V2.11538ZM156.222 59.2308H149.889V61.3462H147.778V86.7308H145.667V101.538H149.889V97.3077H156.222V101.538H160.444V90.9615H158.333V57.1154H156.222V59.2308ZM120.333 99.4231H126.667V97.3077H128.778V95.1923H130.889V80.3846H128.778V78.2692H124.556V71.9231H128.778V67.6923H120.333V99.4231ZM141.444 63.4615H139.333V80.3846H137.222V67.6923H135.111V65.5769H133V76.1538H135.111V88.8462H137.222V90.9615H135.111V93.0769H133V99.4231H137.222V97.3077H139.333V90.9615H141.444V76.1538H143.556V61.3462H141.444V63.4615ZM204.778 44.4231H202.667V84.6154H198.444V46.5385H192.111V86.7308H187.889V48.6538H183.667V50.7692H179.444V95.1923H185.778V93.0769H206.889V99.4231H215.333V84.6154H211.111V42.3077H204.778V44.4231ZM173.111 57.1154H171V71.9231H168.889V63.4615H166.778V55H162.556V67.6923H164.667V78.2692H166.778V88.8462H164.667V97.3077H168.889V95.1923H171V88.8462H173.111V78.2692H175.222V63.4615H177.333V52.8846H173.111V57.1154ZM234.333 35.9615H225.889V38.0769H219.556V90.9615H240.667V88.8462H242.778V80.3846H232.222V82.5H228V67.6923H230.111V65.5769H240.667V55H236.444V57.1154H228V46.5385H230.111V44.4231H238.556V42.3077H240.667V33.8462H234.333V35.9615ZM268.111 25.3846H261.778V27.5H255.444V29.6154H247V88.8462H266V86.7308H276.556V76.1538H268.111V78.2692H259.667V61.3462H268.111V59.2308H272.333V48.6538H266V50.7692H259.667V38.0769H261.778V35.9615H270.222V33.8462H274.444V23.2692H268.111V25.3846ZM46.4444 29.6154H44.3333V38.0769H42.2222V46.5385H40.1111V55H38V65.5769H35.8889V74.0385H33.7778V82.5H31.6667V84.6154H38V82.5H42.2222V78.2692H44.3333V74.0385H52.7778V76.1538H54.8889V78.2692H59.1111V76.1538H63.3333V71.9231H61.2222V59.2308H59.1111V44.4231H57V31.7308H54.8889V27.5H46.4444V29.6154ZM71.7778 40.1923H69.6667V63.4615H67.5556V67.6923H65.4444V76.1538H67.5556V74.0385H71.7778V71.9231H73.8889V69.8077H76V61.3462H78.1111V33.8462H82.3333V69.8077H88.6667V38.0769H90.7778V25.3846H71.7778V40.1923ZM95 31.7308H92.8889V67.6923H95V65.5769H101.333V63.4615H105.556V61.3462H107.667V59.2308H109.778V38.0769H107.667V35.9615H101.333V23.2692H95V31.7308ZM120.333 27.5H118.222V29.6154H114V33.8462H111.889V50.7692H114V52.8846H120.333V59.2308H124.556V52.8846H126.667V50.7692H128.778V48.6538H130.889V46.5385H133V55H137.222V48.6538H141.444V52.8846H143.556V38.0769H141.444V21.1538H137.222V27.5H135.111V44.4231H133V31.7308H130.889V27.5H124.556V21.1538H120.333V27.5Z" fill="white"/>
</svg>
