<svg width="345" height="50" viewBox="0 0 345 50" fill="none" xmlns="http://www.w3.org/2000/svg">
<g clip-path="url(#clip0_2084_32275)">
<path d="M53.764 41.8787C53.5847 42.0889 53.2994 42.297 52.906 42.5072C52.5127 42.7174 52.0969 42.8215 51.6567 42.8215C50.9373 42.8215 50.3136 42.5419 49.7837 41.9827C49.2559 41.4236 48.9909 40.7358 48.9909 39.9195C48.9909 39.1032 49.2559 38.4174 49.7837 37.8562C50.3116 37.297 50.9352 37.0174 51.6567 37.0174C51.942 37.0174 52.2151 37.0603 52.476 37.148C52.7369 37.2358 52.9488 37.3338 53.1119 37.444C53.2749 37.5542 53.4278 37.6827 53.5684 37.8317C53.709 37.9807 53.7987 38.0827 53.8395 38.1378C53.8802 38.195 53.9108 38.2378 53.9312 38.2685L54.7199 37.4868L54.3897 37.1256C54.1696 36.8746 53.8068 36.6236 53.2973 36.3705C52.7899 36.1174 52.2416 35.9909 51.6547 35.9909C50.6336 35.9909 49.7511 36.3725 49.0093 37.1378C48.2674 37.9032 47.8945 38.8297 47.8945 39.9174C47.8945 41.0052 48.2654 41.9338 49.0052 42.697C49.745 43.4623 50.6295 43.844 51.6547 43.844C52.0215 43.844 52.3843 43.7868 52.7389 43.6705C53.0935 43.5562 53.3829 43.4297 53.6092 43.295C53.8333 43.1603 54.0473 43.0032 54.2532 42.8276C54.457 42.6521 54.5915 42.5256 54.6547 42.4521C54.7178 42.3787 54.7647 42.3215 54.7953 42.2787L54.0147 41.5725L53.764 41.8787ZM58.6615 36.1154C58.368 36.1991 58.1336 36.295 57.9563 36.3991C57.781 36.5032 57.6159 36.6236 57.4631 36.7603C57.3102 36.895 57.2124 36.9909 57.1717 37.044C57.1309 37.097 57.1003 37.1399 57.0799 37.1705V36.1501H55.9855V43.6889H57.0799V39.5256C57.0799 38.8052 57.3102 38.2195 57.7688 37.7685C58.2274 37.3195 58.7817 37.0929 59.4298 37.0929H59.9047V35.9889H59.5908C59.2668 35.9889 58.9549 36.0317 58.6615 36.1154ZM64.0765 35.9889C63.0086 35.9889 62.1017 36.3685 61.3537 37.1276C60.6058 37.8868 60.2328 38.8174 60.2328 39.9195C60.2328 41.0215 60.6058 41.9501 61.3537 42.7072C62.1017 43.4644 63.0086 43.8419 64.0765 43.8419C65.1424 43.8419 66.0494 43.4644 66.7953 42.7072C67.5412 41.9501 67.9142 41.0215 67.9142 39.9195C67.9142 38.8174 67.5412 37.8868 66.7953 37.1276C66.0494 36.3685 65.1445 35.9889 64.0765 35.9889ZM66.0106 41.9827C65.4726 42.5419 64.8265 42.8215 64.0725 42.8215C63.3184 42.8215 62.6744 42.5399 62.1343 41.9746C61.5962 41.4093 61.3272 40.7236 61.3272 39.9154C61.3272 39.1031 61.5962 38.4154 62.1343 37.8562C62.6723 37.297 63.3184 37.0174 64.0725 37.0174C64.8245 37.0174 65.4706 37.297 66.0106 37.8562C66.5487 38.4154 66.8177 39.1032 66.8177 39.9195C66.8177 40.7358 66.5487 41.4215 66.0106 41.9827ZM73.1662 35.9889C72.8442 35.9889 72.5324 36.0358 72.2287 36.1317C71.925 36.2256 71.6764 36.3338 71.4828 36.4542C71.2892 36.5746 71.1078 36.7113 70.9427 36.8644C70.7776 37.0174 70.6676 37.1256 70.6125 37.1909C70.5596 37.2542 70.5229 37.3011 70.5025 37.3317V36.1501H69.4081V46.9848H70.5025V42.5072L70.6105 42.6521C70.688 42.744 70.8 42.8562 70.9509 42.9848C71.1017 43.1154 71.279 43.244 71.4828 43.3725C71.6866 43.5011 71.9393 43.6093 72.2369 43.7031C72.5365 43.795 72.8462 43.8419 73.1683 43.8419C74.1322 43.8419 74.976 43.4583 75.6954 42.6889C76.4149 41.9195 76.7756 40.997 76.7756 39.9215C76.7756 38.846 76.4149 37.9215 75.6914 37.1501C74.9678 36.3746 74.1261 35.9889 73.1662 35.9889ZM74.9087 41.9746C74.3952 42.5399 73.8143 42.8215 73.1662 42.8215C72.4875 42.8215 71.8741 42.5317 71.3238 41.9501C70.7756 41.3705 70.5005 40.6929 70.5005 39.9174C70.5005 39.144 70.7756 38.4664 71.3238 37.8848C71.8721 37.3052 72.4855 37.0134 73.1662 37.0134C73.8143 37.0134 74.3952 37.295 74.9087 37.8603C75.4223 38.4256 75.6791 39.1113 75.6791 39.9154C75.6791 40.7236 75.4223 41.4093 74.9087 41.9746ZM85.3741 35.9889C85.0521 35.9889 84.7403 36.0358 84.4366 36.1317C84.1329 36.2256 83.8843 36.3338 83.6907 36.4542C83.4971 36.5746 83.3157 36.7113 83.1506 36.8644C82.9855 37.0174 82.8755 37.1256 82.8204 37.1909C82.7674 37.2542 82.7308 37.3011 82.7104 37.3317V36.1501H81.6159V46.9848H82.7104V42.5072L82.8184 42.6521C82.8958 42.744 83.0079 42.8562 83.1587 42.9848C83.3096 43.1154 83.4869 43.244 83.6907 43.3725C83.8945 43.5011 84.1472 43.6093 84.4447 43.7031C84.7443 43.795 85.0541 43.8419 85.3761 43.8419C86.3401 43.8419 87.1839 43.4583 87.9033 42.6889C88.6227 41.9195 88.9835 40.997 88.9835 39.9215C88.9835 38.846 88.6227 37.9215 87.8992 37.1501C87.1757 36.3746 86.334 35.9889 85.3741 35.9889ZM87.1166 41.9746C86.603 42.5399 86.0222 42.8215 85.3741 42.8215C84.6954 42.8215 84.082 42.5317 83.5317 41.9501C82.9835 41.3705 82.7083 40.6929 82.7083 39.9174C82.7083 39.144 82.9835 38.4664 83.5317 37.8848C84.0799 37.3052 84.6934 37.0134 85.3741 37.0134C86.0222 37.0134 86.603 37.295 87.1166 37.8603C87.6302 38.4256 87.887 39.1113 87.887 39.9154C87.885 40.7236 87.6302 41.4093 87.1166 41.9746ZM93.1492 36.1154C92.8558 36.1991 92.6214 36.295 92.4441 36.3991C92.2688 36.5032 92.1037 36.6236 91.9509 36.7603C91.798 36.895 91.7002 36.9909 91.6594 37.044C91.6187 37.097 91.5881 37.1399 91.5677 37.1705V36.1501H90.4733V43.6889H91.5677V39.5256C91.5677 38.8052 91.798 38.2195 92.2566 37.7685C92.7151 37.3195 93.2695 37.0929 93.9176 37.0929H94.3924V35.9889H94.0786C93.7525 35.9889 93.4427 36.0317 93.1492 36.1154ZM98.5623 35.9889C97.4964 35.9889 96.5874 36.3685 95.8394 37.1276C95.0915 37.8868 94.7165 38.8174 94.7165 39.9195C94.7165 41.0215 95.0915 41.9501 95.8394 42.7072C96.5874 43.4644 97.4943 43.8419 98.5623 43.8419C99.6302 43.8419 100.535 43.4644 101.281 42.7072C102.027 41.9501 102.4 41.0215 102.4 39.9195C102.4 38.8174 102.027 37.8868 101.281 37.1276C100.537 36.3685 99.6302 35.9889 98.5623 35.9889ZM100.496 41.9827C99.9583 42.5419 99.3123 42.8215 98.5582 42.8215C97.8062 42.8215 97.1601 42.5399 96.62 41.9746C96.082 41.4093 95.8129 40.7236 95.8129 39.9154C95.8129 39.1031 96.082 38.4154 96.62 37.8562C97.1581 37.297 97.8041 37.0174 98.5582 37.0174C99.3102 37.0174 99.9563 37.297 100.496 37.8562C101.035 38.4154 101.304 39.1032 101.304 39.9195C101.306 40.7358 101.035 41.4215 100.496 41.9827ZM106.865 42.7603C106.7 42.8011 106.533 42.8215 106.364 42.8215C105.685 42.8256 105.345 42.4358 105.345 41.648V37.1705H106.992V36.1501H105.345V33.6358H104.326V35.3685C104.326 35.8909 104.116 36.1501 103.698 36.1501H102.832V37.1705H104.249V41.648C104.249 42.348 104.432 42.8889 104.797 43.2705C105.162 43.6521 105.669 43.8419 106.317 43.8419C106.715 43.848 107.069 43.7705 107.381 43.6113V42.5909L107.242 42.6521C107.159 42.6848 107.032 42.7195 106.865 42.7603ZM111.565 35.9889C110.575 35.9889 109.713 36.3705 108.981 37.1358C108.249 37.9011 107.882 38.8276 107.882 39.9154C107.882 41.0032 108.253 41.9317 108.993 42.695C109.733 43.4603 110.617 43.8419 111.643 43.8419C112.02 43.8419 112.388 43.7848 112.749 43.6685C113.11 43.5542 113.403 43.4276 113.63 43.2929C113.856 43.1583 114.068 43.0011 114.266 42.8256C114.461 42.6501 114.59 42.5236 114.649 42.4501C114.708 42.3766 114.753 42.3195 114.783 42.2766L114.078 41.5705L113.809 41.8766C113.64 42.0868 113.354 42.295 112.951 42.5052C112.547 42.7154 112.111 42.8195 111.643 42.8195C110.943 42.8195 110.334 42.5725 109.816 42.0746C109.299 41.5787 109.018 40.9909 108.979 40.3113L115.097 40.3276L115.174 39.7603C115.174 38.6705 114.83 37.7705 114.141 37.0562C113.448 36.346 112.59 35.9889 111.565 35.9889ZM108.977 39.3705C109.064 38.7317 109.352 38.1787 109.843 37.7134C110.332 37.248 110.907 37.0154 111.567 37.0154C112.227 37.0154 112.788 37.2378 113.257 37.6827C113.723 38.1276 113.999 38.6889 114.08 39.3705H108.977ZM122.03 41.8787C121.851 42.0889 121.566 42.297 121.172 42.5072C120.779 42.7174 120.363 42.8215 119.925 42.8215C119.206 42.8215 118.582 42.5419 118.052 41.9827C117.524 41.4236 117.259 40.7358 117.259 39.9195C117.259 39.1032 117.524 38.4174 118.052 37.8562C118.58 37.297 119.204 37.0174 119.925 37.0174C120.21 37.0174 120.484 37.0603 120.744 37.148C121.005 37.2358 121.217 37.3338 121.38 37.444C121.543 37.5542 121.696 37.6827 121.837 37.8317C121.977 37.9807 122.067 38.0827 122.108 38.1378C122.149 38.195 122.179 38.2378 122.2 38.2685L122.988 37.4868L122.658 37.1256C122.438 36.8746 122.075 36.6236 121.568 36.3705C121.06 36.1174 120.512 35.9909 119.925 35.9909C118.904 35.9909 118.022 36.3725 117.28 37.1378C116.536 37.9032 116.165 38.8297 116.165 39.9174C116.165 41.0052 116.536 41.9338 117.276 42.697C118.015 43.4623 118.9 43.844 119.925 43.844C120.292 43.844 120.655 43.7868 121.009 43.6705C121.364 43.5562 121.653 43.4297 121.878 43.295C122.102 43.1603 122.316 43.0032 122.522 42.8276C122.725 42.6521 122.86 42.5256 122.923 42.4521C122.986 42.3787 123.035 42.3215 123.066 42.2787L122.285 41.5725L122.03 41.8787ZM127.743 42.7603C127.578 42.8011 127.411 42.8215 127.242 42.8215C126.563 42.8256 126.223 42.4358 126.223 41.648V37.1705H127.869V36.1501H126.223V33.6358H125.204V35.3685C125.204 35.8909 124.994 36.1501 124.576 36.1501H123.71V37.1705H125.126V41.648C125.126 42.348 125.31 42.8889 125.674 43.2705C126.039 43.6521 126.547 43.8419 127.195 43.8419C127.592 43.848 127.947 43.7705 128.259 43.6113V42.5909L128.12 42.6521C128.035 42.6848 127.908 42.7195 127.743 42.7603ZM129.482 43.6889H130.576V36.1501H129.482V43.6889ZM130.026 32.9297C129.826 32.9297 129.659 32.997 129.524 33.1338C129.39 33.2685 129.321 33.4358 129.321 33.6358C129.321 33.8358 129.388 34.0032 129.524 34.1378C129.659 34.2725 129.826 34.3419 130.026 34.3419C130.225 34.3419 130.393 34.2746 130.527 34.1378C130.662 34.0032 130.731 33.8358 130.731 33.6358C130.731 33.4358 130.664 33.2685 130.527 33.1338C130.39 32.997 130.223 32.9297 130.026 32.9297ZM135.873 35.9889C134.807 35.9889 133.898 36.3685 133.15 37.1276C132.402 37.8868 132.027 38.8174 132.027 39.9195C132.027 41.0215 132.402 41.9501 133.15 42.7072C133.898 43.4644 134.805 43.8419 135.873 43.8419C136.941 43.8419 137.846 43.4644 138.592 42.7072C139.338 41.9501 139.71 41.0215 139.71 39.9195C139.71 38.8174 139.338 37.8868 138.592 37.1276C137.846 36.3685 136.941 35.9889 135.873 35.9889ZM137.807 41.9827C137.269 42.5419 136.623 42.8215 135.869 42.8215C135.117 42.8215 134.471 42.5399 133.931 41.9746C133.393 41.4093 133.124 40.7236 133.124 39.9154C133.124 39.1031 133.393 38.4154 133.931 37.8562C134.469 37.297 135.115 37.0174 135.869 37.0174C136.621 37.0174 137.267 37.297 137.807 37.8562C138.345 38.4154 138.614 39.1032 138.614 39.9195C138.614 40.7358 138.345 41.4215 137.807 41.9827ZM146.923 36.8705C146.357 36.2827 145.619 35.9889 144.71 35.9889C144.408 35.9889 144.117 36.0338 143.833 36.1236C143.55 36.2134 143.322 36.3134 143.153 36.4215C142.982 36.5317 142.821 36.6603 142.666 36.8093C142.513 36.9583 142.415 37.0603 142.374 37.1154C142.333 37.1705 142.303 37.2154 142.282 37.246V36.1501H141.188V43.6889H142.282V39.5256C142.282 38.795 142.507 38.1929 142.957 37.7236C143.407 37.2542 143.966 37.0174 144.634 37.0174C145.232 37.0174 145.721 37.2174 146.102 37.6195C146.483 38.0215 146.672 38.5501 146.672 39.2113V43.6889H147.775V39.2113C147.773 38.2378 147.49 37.4583 146.923 36.8705Z" fill="#454246"/>
<path d="M11.3556 13.3408C10.1817 12.251 8.67561 11.7081 6.8373 11.7081C6.10156 11.7081 5.39029 11.8081 4.70143 12.0081C4.01257 12.2081 3.45822 12.4347 3.04042 12.6898C2.62262 12.9449 2.2252 13.2347 1.85428 13.5571C1.48132 13.8796 1.24083 14.1041 1.13485 14.2327C1.02684 14.3612 0.943274 14.4653 0.882133 14.5469L2.92018 16.5857L3.3339 16.049C3.57846 15.7122 4.0248 15.3776 4.67493 15.0449C5.32507 14.7122 6.04654 14.5469 6.84137 14.5469C7.76053 14.5469 8.51257 14.8184 9.09953 15.3592C9.68648 15.9 9.97996 16.5714 9.97996 17.3673L4.48132 18.3184C3.12398 18.5429 2.05401 19.0755 1.27344 19.9143C0.492867 20.7531 0.101562 21.7898 0.101562 23.0286C0.101562 24.1734 0.606997 25.1918 1.61787 26.0816C2.62874 26.9714 3.90048 27.4162 5.43105 27.4162C5.95279 27.4162 6.46841 27.349 6.97792 27.2163C7.48947 27.0837 7.91135 26.9327 8.24966 26.7633C8.58594 26.5939 8.8998 26.4061 9.19124 26.1959C9.48268 25.9857 9.67629 25.8347 9.77412 25.7429C9.87194 25.651 9.9392 25.5837 9.97996 25.5429V27.1082H13.1206V17.3694C13.1185 15.7714 12.5316 14.4306 11.3556 13.3408ZM9.97792 20.1878C9.97792 21.598 9.61719 22.6857 8.89776 23.4469C8.17833 24.2082 7.17969 24.5898 5.90387 24.5898C5.08662 24.5898 4.43648 24.4 3.95143 24.0224C3.46637 23.6449 3.22385 23.2041 3.22385 22.7041C3.22385 22.1612 3.39708 21.7122 3.74558 21.3551C4.09205 20.998 4.54654 20.7673 5.10904 20.6653L9.97996 19.8837V20.1878H9.97792ZM21.8454 23.0265L17.4494 12.0306H14.1559L20.2823 27.1061H23.4066L29.533 12.0306H26.2395L21.8454 23.0265ZM41.323 13.5939L40.8013 13.1347C40.465 12.8184 39.9188 12.5 39.1627 12.1837C38.4066 11.8674 37.6118 11.7081 36.7741 11.7081C34.8747 11.7081 33.2259 12.4408 31.8278 13.9081C30.4297 15.3755 29.7286 17.1571 29.7286 19.253C29.7286 21.349 30.4277 23.1306 31.8278 24.5979C33.2259 26.0653 34.8767 26.7979 36.7741 26.7979C37.306 26.7979 37.8257 26.7286 38.3373 26.5918C38.8488 26.4531 39.2707 26.3 39.609 26.1327C39.9453 25.9633 40.2592 25.7755 40.5506 25.5653C40.8421 25.3551 41.0336 25.2041 41.1253 25.1122L41.3251 24.9122V26.2C41.3251 27.5795 40.9134 28.704 40.0921 29.5734C39.2707 30.4428 38.2211 30.8774 36.9453 30.8774C36.3726 30.8774 35.8224 30.7938 35.2904 30.6244C34.7585 30.455 34.3264 30.2672 33.9881 30.057C33.6518 29.8468 33.3319 29.6081 33.0302 29.3366C32.7286 29.0652 32.5329 28.8774 32.4412 28.7693C32.3495 28.6611 32.2823 28.5774 32.2415 28.5162L30.1892 30.557L30.4501 30.8795C30.6131 31.104 30.8842 31.3693 31.2612 31.6774C31.6382 31.9836 32.0785 32.2877 32.5778 32.5897C33.0771 32.8917 33.7171 33.153 34.4915 33.3713C35.268 33.5917 36.0853 33.7019 36.9412 33.7019C39.0547 33.7019 40.8359 32.9754 42.287 31.5244C43.7381 30.0734 44.4616 28.2877 44.4616 26.1714V12.0306H41.321V13.5939H41.323ZM40.0594 22.5959C39.2177 23.5061 38.2293 23.9612 37.0961 23.9612C35.963 23.9612 34.9725 23.5061 34.1247 22.5959C33.2768 21.6857 32.8529 20.5714 32.8529 19.253C32.8529 17.9347 33.2768 16.8204 34.1247 15.9102C34.9725 15 35.963 14.5449 37.0961 14.5449C38.2293 14.5449 39.2177 15 40.0594 15.9102C40.9012 16.8204 41.323 17.9347 41.323 19.253C41.323 20.5714 40.9012 21.6857 40.0594 22.5959ZM58.7055 20.1878C58.7055 21.5776 58.3509 22.6592 57.6416 23.4306C56.9324 24.202 55.9806 24.5878 54.7843 24.5878C53.7632 24.5878 52.9073 24.2306 52.2184 23.5143C51.5296 22.798 51.1851 21.898 51.1851 20.8143V12.0265H48.0445V20.8143C48.0445 22.8286 48.609 24.4306 49.7361 25.6224C50.8652 26.8143 52.3366 27.4082 54.1546 27.4082C54.6865 27.4082 55.2062 27.3408 55.7177 27.2082C56.2293 27.0755 56.6512 26.9245 56.9895 26.7551C57.3258 26.5857 57.6396 26.398 57.931 26.1878C58.2225 25.9776 58.4141 25.8265 58.5058 25.7347L58.7055 25.5347V27.1H61.8461V12.0245H58.7055V20.1878ZM73.7687 19.2367C73.1919 18.951 72.5744 18.6918 71.9161 18.4633C71.2578 18.2327 70.6423 18.0408 70.0696 17.8877C69.4969 17.7347 69.0221 17.5102 68.645 17.2122C68.268 16.9163 68.0785 16.5469 68.0785 16.1081C68.0785 15.6898 68.2741 15.3245 68.6675 15.0122C69.0608 14.7 69.5948 14.5449 70.2673 14.5449C70.7666 14.5449 71.266 14.6592 71.7612 14.8898C72.2565 15.1204 72.5826 15.3082 72.7415 15.4571C72.9005 15.6061 73.0207 15.7204 73.1022 15.802L75.1403 13.7633L74.9406 13.5326C74.8183 13.4102 74.6206 13.2428 74.3516 13.0347C74.0805 12.8245 73.7666 12.6204 73.41 12.4204C73.0533 12.2204 72.5907 12.0531 72.0241 11.9143C71.4575 11.7755 70.8726 11.7081 70.2714 11.7081C68.751 11.7081 67.4813 12.1531 66.4643 13.0429C65.4473 13.9327 64.9399 14.9551 64.9399 16.1102C64.9399 16.949 65.1294 17.6673 65.5065 18.2653C65.8835 18.8633 66.3624 19.3041 66.9392 19.5837C67.516 19.8653 68.1335 20.1204 68.7918 20.351C69.4501 20.5816 70.0656 20.7755 70.6383 20.9347C71.2109 21.0939 71.6858 21.3184 72.0628 21.6102C72.4399 21.902 72.6294 22.2673 72.6294 22.7061C72.6294 23.2796 72.4195 23.7367 72.0017 24.0796C71.5839 24.4224 70.9541 24.5939 70.1185 24.5939C69.4236 24.5939 68.7469 24.4224 68.0887 24.0796C67.4304 23.7367 67.0003 23.4592 66.8027 23.2429C66.6029 23.0286 66.4521 22.849 66.3502 22.7061L64.3122 24.7469L64.5425 25.0388C64.6851 25.2224 64.9175 25.4449 65.2395 25.7061C65.5615 25.9673 65.9365 26.2245 66.3645 26.4796C66.7925 26.7347 67.3427 26.9551 68.0112 27.1388C68.6797 27.3224 69.3828 27.4142 70.1165 27.4142C71.7918 27.4142 73.1512 26.9551 74.1987 26.0347C75.2463 25.1143 75.768 24.0041 75.768 22.7061C75.768 21.8673 75.5785 21.151 75.2014 20.5592C74.8223 19.9633 74.3455 19.5245 73.7687 19.2367ZM86.1967 24.3449C86.054 24.4061 85.8522 24.4632 85.5914 24.5143C85.3305 24.5653 85.0839 24.5918 84.8495 24.5918C84.3074 24.5918 83.859 24.4122 83.5024 24.0551C83.1457 23.6979 82.9664 23.2367 82.9664 22.6755V14.853H86.107V12.0306H82.9664V7H80.1478V10.1449C80.1478 11.402 79.626 12.0306 78.5846 12.0306H77.0071V14.853H79.84V22.7061C79.8298 25.8449 81.2891 27.4142 84.2198 27.4142C85.0676 27.4142 85.8033 27.3122 86.4249 27.1082V24.2857L86.1967 24.3449Z" fill="#454246"/>
<path d="M102.397 12.0273C106.644 12.0273 110.086 15.4743 110.086 19.7273C110.086 23.9804 106.644 27.4273 102.397 27.4273C98.1492 27.4273 94.707 23.9804 94.707 19.7273V12.0273H102.397Z" fill="#00B9E8"/>
<path d="M129.699 19.7273C129.699 23.9804 126.257 27.4273 122.01 27.4273C117.763 27.4273 114.32 23.9804 114.32 19.7273C114.32 15.4743 117.763 12.0273 122.01 12.0273H129.699V19.7273Z" fill="#6EB430"/>
<path d="M134.637 19.407C134.637 15.154 138.079 11.707 142.326 11.707C146.574 11.707 150.016 15.154 150.016 19.407C150.016 23.6601 146.574 27.107 142.326 27.107H134.637V19.407Z" fill="#F8B300"/>
</g>
<path d="M213.7 27.9H214.825C217.05 27.9 217.9 27.225 217.9 25.8C217.9 25 217.6 24.475 217.125 24.175C216.525 23.8 215.65 23.7 214.725 23.7H213.7V27.9ZM209.875 31V14.525H221.125L220.2 17.6H213.7V20.6H214.725C216.475 20.6 218.125 20.825 219.4 21.525C220.8 22.275 221.725 23.6 221.725 25.75C221.725 28.725 219.95 31 214.75 31H209.875ZM231.322 31L230.797 30C229.997 30.7 228.972 31.25 227.497 31.25C225.172 31.25 223.472 29.65 223.472 27.375C223.472 25.775 224.222 24.8 225.447 24.15C226.297 23.7 227.372 23.475 228.572 23.425L230.447 23.35V23.225C230.447 22.125 229.647 21.675 228.372 21.675C227.372 21.675 226.222 21.95 225.372 22.4L224.197 20.025C225.597 19.325 227.197 18.875 229.072 18.875C232.722 18.875 234.222 20.5 234.222 23.375V28.675C234.222 29.4 234.222 30.35 234.422 31H231.322ZM230.447 25.725L229.172 25.775C228.572 25.8 228.097 25.9 227.772 26.1C227.422 26.325 227.247 26.625 227.247 27.125C227.247 27.95 227.822 28.35 228.722 28.35C229.547 28.35 230.172 28.1 230.447 27.925V25.725ZM239.564 31V22.275H236.114V19.175H247.564L246.614 22.275H243.339V31H239.564ZM249.093 36.925V19.65C250.418 19.225 252.093 18.875 253.968 18.875C258.543 18.875 260.768 21.4 260.768 25.075C260.768 28.55 258.393 31.25 254.468 31.25C253.943 31.25 253.418 31.2 252.868 31.075V36.925H249.093ZM252.868 28C253.268 28.1 253.643 28.175 254.168 28.175C256.043 28.175 256.918 26.975 256.918 25.1C256.918 23 255.818 21.95 253.818 21.95C253.468 21.95 253.168 21.975 252.868 22.05V28ZM270.14 31L269.615 30C268.815 30.7 267.79 31.25 266.315 31.25C263.99 31.25 262.29 29.65 262.29 27.375C262.29 25.775 263.04 24.8 264.265 24.15C265.115 23.7 266.19 23.475 267.39 23.425L269.265 23.35V23.225C269.265 22.125 268.465 21.675 267.19 21.675C266.19 21.675 265.04 21.95 264.19 22.4L263.015 20.025C264.415 19.325 266.015 18.875 267.89 18.875C271.54 18.875 273.04 20.5 273.04 23.375V28.675C273.04 29.4 273.04 30.35 273.24 31H270.14ZM269.265 25.725L267.99 25.775C267.39 25.8 266.915 25.9 266.59 26.1C266.24 26.325 266.065 26.625 266.065 27.125C266.065 27.95 266.64 28.35 267.54 28.35C268.365 28.35 268.99 28.1 269.265 27.925V25.725ZM275.657 31V19.175H279.332V23.4C279.332 24.375 279.282 25.4 279.207 26.05H279.282C279.507 25.625 280.132 24.55 280.782 23.6L283.832 19.175H287.532V31H283.857V26.775C283.857 25.8 283.907 24.775 283.982 24.125H283.907C283.682 24.55 283.057 25.625 282.407 26.575L279.357 31H275.657ZM281.682 17.55C278.557 17.55 276.907 15.625 277.007 12.85H280.082C280.082 13.975 280.457 14.9 281.682 14.9C282.907 14.9 283.282 13.975 283.282 12.85H286.357C286.457 15.625 284.807 17.55 281.682 17.55ZM289.435 35.275V28H290.285C291.885 26.15 292.535 23.875 293.51 19.175H301.66V28H303.31V35.275H299.885V31H292.86V35.275H289.435ZM297.885 28V22.225H296.185C295.76 24.425 295.11 26.5 294.26 27.95V28H297.885ZM316.267 26.225H308.767C308.842 27.675 310.092 28.35 311.692 28.35C312.942 28.35 313.867 28.05 314.742 27.55L315.842 30.1C314.442 30.95 312.942 31.25 311.392 31.25C306.692 31.25 304.992 28.25 304.992 25.225C304.992 21.675 306.917 18.875 310.642 18.875C314.192 18.875 316.267 21.325 316.267 25.35V26.225ZM308.717 23.725H312.492C312.467 22.7 311.942 21.675 310.567 21.675C309.317 21.675 308.717 22.675 308.717 23.725ZM318.209 36.925V19.65C319.534 19.225 321.209 18.875 323.084 18.875C327.659 18.875 329.884 21.4 329.884 25.075C329.884 28.55 327.509 31.25 323.584 31.25C323.059 31.25 322.534 31.2 321.984 31.075V36.925H318.209ZM321.984 28C322.384 28.1 322.759 28.175 323.284 28.175C325.159 28.175 326.034 26.975 326.034 25.1C326.034 23 324.934 21.95 322.934 21.95C322.584 21.95 322.284 21.975 321.984 22.05V28ZM337.731 26.5C334.206 26.5 331.781 23.9 331.781 20.425C331.781 16.95 334.206 14.35 337.731 14.35C341.131 14.35 343.781 16.95 343.781 20.425C343.781 23.9 341.106 26.5 337.731 26.5ZM337.731 25.15C340.331 25.15 342.181 23.05 342.181 20.425C342.181 17.8 340.331 15.7 337.731 15.7C335.131 15.7 333.281 17.8 333.281 20.425C333.281 23.05 335.131 25.15 337.731 25.15ZM335.531 23.65V17.05H337.681C338.081 17.05 338.406 17.1 338.681 17.175C339.556 17.425 340.006 18.075 340.006 18.85C340.006 19.925 339.156 20.475 338.456 20.65V20.675C338.881 20.85 339.631 22.225 340.381 23.65H338.731C337.906 22.075 337.381 21.05 337.131 21.05H336.981V23.65H335.531ZM336.981 19.925H337.256C337.906 19.925 338.481 19.65 338.481 19.025C338.481 18.625 338.306 18.35 337.956 18.25C337.781 18.2 337.556 18.175 337.281 18.175H336.981V19.925Z" fill="#454246"/>
<line x1="184.5" y1="2.18557e-08" x2="184.5" y2="43" stroke="#BFBFBF"/>
<defs>
<clipPath id="clip0_2084_32275">
<rect width="150" height="40" fill="white" transform="translate(0 10)"/>
</clipPath>
</defs>
</svg>
