<svg width="119" height="28" viewBox="0 0 119 28" fill="none" xmlns="http://www.w3.org/2000/svg">
<path fill-rule="evenodd" clip-rule="evenodd" d="M52.9492 20.0976C51.732 20.0976 50.6442 19.8434 49.6857 19.3349C48.7272 18.8111 47.9816 18.0869 47.4491 17.1624C46.9166 16.238 46.6504 15.1903 46.6504 14.0193C46.6504 12.8483 46.9166 11.8083 47.4491 10.8992C47.9816 9.97479 48.7272 9.25833 49.6857 8.74988C50.6442 8.22602 51.732 7.96409 52.9492 7.96409V3.75781H55.4596V7.96409C56.6768 7.96409 57.7646 8.22602 58.7232 8.74988C59.6817 9.25833 60.4272 9.97479 60.9597 10.8992C61.4922 11.8083 61.7585 12.8483 61.7585 14.0193C61.7585 15.1903 61.4922 16.238 60.9597 17.1624C60.4272 18.0869 59.6817 18.8111 58.7232 19.3349C57.7646 19.8434 56.6768 20.0976 55.4596 20.0976V24.7892H52.9492V20.0976ZM52.9492 10.3446C51.8994 10.3446 51.0398 10.6912 50.3703 11.3846C49.7161 12.0625 49.389 12.9408 49.389 14.0193C49.389 15.1132 49.7161 16.0069 50.3703 16.7002C51.0398 17.3781 51.8994 17.7171 52.9492 17.7171V10.3446ZM55.4596 17.7171C56.5094 17.7171 57.3615 17.3781 58.0157 16.7002C58.6851 16.0069 59.0199 15.1132 59.0199 14.0193C59.0199 12.9408 58.6851 12.0625 58.0157 11.3846C57.3615 10.6912 56.5094 10.3446 55.4596 10.3446V17.7171Z" fill="#16141A"/>
<path fill-rule="evenodd" clip-rule="evenodd" d="M75.6437 14.759C75.6741 14.42 75.6893 14.135 75.6893 13.9039C75.6893 12.7637 75.4231 11.7314 74.8906 10.807C74.3733 9.86709 73.643 9.13523 72.6997 8.61137C71.7716 8.0721 70.7142 7.80247 69.5274 7.80247C68.3407 7.80247 67.2756 8.0721 66.3323 8.61137C65.4042 9.13523 64.6739 9.87479 64.1414 10.8301C63.6241 11.7699 63.3655 12.8408 63.3655 14.0426C63.3655 15.2443 63.6241 16.3229 64.1414 17.2782C64.6739 18.218 65.4042 18.9576 66.3323 19.4968C67.2756 20.0207 68.3407 20.2826 69.5274 20.2826C70.8054 20.2826 71.9618 19.9822 72.9964 19.3813C74.0462 18.7804 74.7841 17.9253 75.2101 16.8159L72.7453 16.3999C72.4562 16.8467 72.0378 17.2011 71.4901 17.463C70.9576 17.725 70.3566 17.8559 69.6872 17.8559C68.6982 17.8559 67.8842 17.5786 67.2452 17.0239C66.6062 16.4538 66.2258 15.6989 66.1041 14.759H75.6437ZM67.4506 10.807C68.044 10.3447 68.7363 10.1136 69.5274 10.1136C70.3338 10.1136 71.0261 10.3524 71.6042 10.8301C72.1976 11.2923 72.6084 11.9086 72.8366 12.679H66.2639C66.4769 11.8932 66.8725 11.2692 67.4506 10.807Z" fill="#16141A"/>
<path fill-rule="evenodd" clip-rule="evenodd" d="M77.7342 24.7894V8.03358H79.6969L80.2446 9.97494C80.7315 9.37404 81.3553 8.86559 82.116 8.44959C82.8768 8.01817 83.7516 7.80247 84.7405 7.80247C85.8512 7.80247 86.8478 8.0721 87.7302 8.61137C88.6127 9.13523 89.2973 9.87479 89.7842 10.8301C90.2863 11.7699 90.5373 12.8408 90.5373 14.0426C90.5373 15.2443 90.2863 16.3229 89.7842 17.2782C89.2973 18.218 88.6127 18.9576 87.7302 19.4968C86.8478 20.0207 85.8512 20.2826 84.7405 20.2826C83.782 20.2826 82.93 20.09 82.1845 19.7049C81.439 19.3043 80.8304 18.8112 80.3587 18.2257V24.7894H77.7342ZM84.1015 17.9022C85.197 17.9022 86.087 17.5478 86.7717 16.839C87.4564 16.1149 87.7987 15.1827 87.7987 14.0426C87.7987 12.9024 87.4564 11.9779 86.7717 11.2692C86.087 10.545 85.197 10.1829 84.1015 10.1829C82.9909 10.1829 82.0856 10.545 81.3857 11.2692C80.7011 11.9779 80.3587 12.9024 80.3587 14.0426C80.3587 15.1827 80.7011 16.1149 81.3857 16.839C82.0856 17.5478 82.9909 17.9022 84.1015 17.9022Z" fill="#16141A"/>
<path d="M103.466 8.03335H100.796L97.7605 16.7001H97.3953L93.9036 8.03335H91.0965L96.3683 20.6984L96.2314 21.0682C96.064 21.5458 95.8586 21.8771 95.6152 22.062C95.387 22.2623 95.0523 22.3624 94.611 22.3624H92.3973L92.6255 24.7891H94.4285C95.5087 24.7891 96.3683 24.5349 97.0073 24.0265C97.6616 23.518 98.1941 22.6937 98.6049 21.5535L103.466 8.03335Z" fill="#16141A"/>
<path d="M104.963 20.0513H107.473V11.1303H107.839L110.805 20.0513H113.019L116.123 11.1303H116.488V20.0513H118.998V8.03335H115.005L112.152 16.2841H111.787L109.048 8.03335H104.963V20.0513Z" fill="#16141A"/>
<path d="M36.5795 19.4968C37.5228 20.0207 38.5879 20.2826 39.7746 20.2826C41.0678 20.2826 42.2394 19.9514 43.2892 19.2888C44.339 18.6263 45.0769 17.6865 45.5029 16.4693L43.0381 16.0532C42.7643 16.5925 42.3535 17.0316 41.8057 17.3706C41.258 17.6942 40.6342 17.8559 39.9343 17.8559C38.8693 17.8559 38.0021 17.5016 37.3326 16.7928C36.6632 16.0841 36.3285 15.1673 36.3285 14.0426C36.3285 12.9178 36.6632 12.001 37.3326 11.2923C38.0021 10.5835 38.8693 10.2292 39.9343 10.2292C40.6038 10.2292 41.2048 10.3909 41.7373 10.7145C42.285 11.0381 42.6882 11.4618 42.9468 11.9856L45.4116 11.5696C44.9856 10.3678 44.2629 9.44338 43.2435 8.79626C42.2394 8.13373 41.0831 7.80247 39.7746 7.80247C38.5879 7.80247 37.5228 8.0721 36.5795 8.61137C35.6362 9.13523 34.8983 9.87479 34.3658 10.8301C33.8485 11.7699 33.5898 12.8408 33.5898 14.0426C33.5898 15.2443 33.8485 16.3229 34.3658 17.2782C34.8983 18.218 35.6362 18.9576 36.5795 19.4968Z" fill="#16141A"/>
<path d="M15.9043 16.1021C20.4922 11.456 22.3518 5.80635 20.0578 3.4833C17.7639 1.16025 12.185 3.04346 7.59708 7.68955C3.00916 12.3356 1.14954 17.9853 3.4435 20.3083C5.73746 22.6313 11.3163 20.7481 15.9043 16.1021Z" fill="#7DFAE3"/>
<path d="M3.44104 3.48435C-1.14701 8.13057 -1.14701 15.6631 3.44104 20.3093C1.17567 18.0153 2.96005 12.4765 7.42682 7.8639C7.48164 7.80501 7.53813 7.7478 7.59462 7.6906C7.6511 7.63341 7.70761 7.57618 7.76575 7.52067C12.3189 2.99895 17.79 1.19026 20.0554 3.48435C15.4673 -1.16187 8.02825 -1.16103 3.44104 3.48435Z" fill="url(#paint0_linear_459_60672)"/>
<path d="M7.59423 24.5153C12.1823 29.1616 19.6205 29.1616 24.2086 24.5153C28.7958 19.87 28.7966 12.3366 24.2086 7.69034C23.7234 7.19905 23.0913 6.89536 22.3511 6.76833C21.939 6.69598 21.493 6.67831 21.0194 6.71365C18.3412 6.9105 14.8215 8.78396 11.7478 11.8966C8.67333 15.0101 6.82416 18.5736 6.62977 21.2858C6.59488 21.7653 6.61233 22.217 6.68377 22.6343C6.80921 23.3839 7.10909 24.024 7.59423 24.5153Z" fill="url(#paint1_linear_459_60672)"/>
<defs>
<linearGradient id="paint0_linear_459_60672" x1="6.56687" y1="22.5091" x2="22.1406" y2="7.13036" gradientUnits="userSpaceOnUse">
<stop stop-color="#3549FF"/>
<stop offset="0.507523" stop-color="#8742EE"/>
<stop offset="1" stop-color="#DD42EE"/>
</linearGradient>
<linearGradient id="paint1_linear_459_60672" x1="6.56687" y1="22.5091" x2="22.1406" y2="7.13036" gradientUnits="userSpaceOnUse">
<stop stop-color="#3549FF"/>
<stop offset="0.507523" stop-color="#8742EE"/>
<stop offset="1" stop-color="#DD42EE"/>
</linearGradient>
</defs>
</svg>
