<svg width="55" height="37" viewBox="0 0 55 37" fill="none" xmlns="http://www.w3.org/2000/svg">
<path fill-rule="evenodd" clip-rule="evenodd" d="M48.2016 2.03277H50.1959V4.22222H52.0741V6.33333H49.963V8.44445H52.0741V6.33333H54.1852V30.4936H52.1909V32.5271H50.1959V34.5598H48.2016V36.5926H5.98354V34.5598H3.98926V32.5271H1.99429V30.4936H0V6.33333H2.11111V4.06554H3.98926V2.03277H5.98354V0H48.2016V2.03277ZM23.2222 21.1111H30.963V19H23.2222V21.1111ZM19 19H23.2222V16.8889H19V19ZM30.963 19H35.1852V16.8889H30.963V19ZM14.7778 16.8889H19V14.7778H14.7778V16.8889ZM35.1852 16.8889H39.4074V14.7778H35.1852V16.8889ZM10.5556 14.7778H14.7778V12.6667H10.5556V14.7778ZM39.4074 14.7778H43.6296V12.6667H39.4074V14.7778ZM6.33333 12.6667H10.5556V10.5556H6.33333V12.6667ZM43.6296 12.6667H47.8519V10.5556H43.6296V12.6667ZM4.22222 10.5556H6.33333V8.44445H4.22222V10.5556ZM47.8519 10.5556H49.963V8.44445H47.8519V10.5556ZM2.11111 8.44445H4.22222V6.33333H2.11111V8.44445Z" fill="#EF3124"/>
</svg>
