<svg width="188" height="38" viewBox="0 0 188 38" fill="none" xmlns="http://www.w3.org/2000/svg">
<g clip-path="url(#clip0_853_964)">
<path d="M83.8594 9.08753V8.91633L84.7619 8.48489V2.72566L83.8594 2.29423V2.12988H87.2557C87.7209 2.12057 88.1849 2.17824 88.6335 2.30108C88.9864 2.39108 89.3109 2.56768 89.5773 2.81468C89.6931 2.92907 89.7841 3.06591 89.8445 3.21669C89.905 3.36748 89.9336 3.529 89.9286 3.69124C89.9233 4.06051 89.7753 4.41361 89.5153 4.67736C89.2 5.00415 88.7911 5.22651 88.3442 5.31423C88.928 5.36386 89.4874 5.56975 89.9631 5.91002C90.1482 6.03927 90.2984 6.21183 90.4006 6.41248C90.5027 6.61312 90.5535 6.83568 90.5486 7.06049C90.5506 7.4436 90.4109 7.81407 90.156 8.1014C89.8644 8.42886 89.4949 8.67843 89.0813 8.8273C88.5826 9.00748 88.0549 9.09567 87.5244 9.08753H83.8594ZM86.7253 2.70511H86.3601V5.2389H86.7872C87.1792 5.2638 87.5667 5.14435 87.8757 4.90335C88.0054 4.79327 88.1081 4.65528 88.1762 4.49984C88.2442 4.3444 88.2758 4.17561 88.2684 4.00625C88.2684 3.13655 87.7793 2.70511 86.7253 2.70511ZM87.0904 5.75251H86.3601V8.49174H87.1661C87.6095 8.51788 88.0468 8.3787 88.3924 8.1014C88.5362 7.97796 88.6504 7.82411 88.7267 7.65112C88.803 7.47813 88.8394 7.29036 88.8333 7.10158C88.8484 6.90706 88.8155 6.71181 88.7375 6.5328C88.6594 6.35379 88.5386 6.19642 88.3855 6.07437C88.0001 5.8309 87.5457 5.71798 87.0904 5.75251Z" fill="white"/>
<path d="M95.302 9.19026C94.6243 9.20471 93.9538 9.04927 93.3524 8.73828C92.8146 8.45469 92.3645 8.03095 92.0504 7.51248C91.7398 6.97792 91.5803 6.36981 91.5889 5.75252C91.5865 5.24624 91.697 4.74572 91.9126 4.28703C92.1205 3.84081 92.4128 3.43858 92.7738 3.10232C93.1332 2.76242 93.5539 2.49292 94.0138 2.30794C94.4766 2.11682 94.9731 2.01905 95.4742 2.02032C95.7877 2.01608 96.101 2.03669 96.4111 2.08195C96.6465 2.11995 96.8774 2.18191 97.1 2.26685C97.2929 2.34218 97.4927 2.43121 97.6925 2.52708L97.8096 4.49933H97.6167L96.6109 2.86264C96.4542 2.7619 96.2852 2.68136 96.108 2.62295C95.927 2.56973 95.7388 2.54433 95.55 2.54762C95.1301 2.54462 94.7208 2.67941 94.3858 2.93111C94.0233 3.21673 93.7429 3.5923 93.5729 4.01996C93.3682 4.53884 93.2675 5.09252 93.2767 5.6498C93.2638 6.19341 93.3623 6.73393 93.566 7.23856C93.7287 7.64573 93.9974 8.00259 94.3444 8.27262C94.6645 8.51059 95.0539 8.63805 95.4536 8.63557C95.6872 8.63761 95.9197 8.60294 96.1425 8.53285C96.3514 8.46868 96.5525 8.38139 96.7418 8.27262L97.6994 6.86192H97.8785L97.7338 8.64241C97.4053 8.82478 97.0529 8.96077 96.6867 9.04646C96.2323 9.14764 95.7676 9.19589 95.302 9.19026Z" fill="white"/>
<path d="M99.0841 9.08754V8.91633L99.9865 8.4849V2.72566L99.0841 2.29424V2.12988H104.864V3.95147H104.692L103.906 2.70512H101.557V5.20467H103.19L103.789 4.30072H103.955V6.67016H103.789L103.19 5.78676H101.557V8.52599H104.134L104.96 6.95778H105.133V9.10808L99.0841 9.08754Z" fill="white"/>
<path d="M106.304 9.0876V8.9164L107.206 8.48497V2.72573L106.304 2.29431V2.12995H109.976C110.674 2.09563 111.369 2.24942 111.987 2.57508C112.235 2.7198 112.437 2.93048 112.571 3.18336C112.705 3.43624 112.765 3.72128 112.745 4.00633C112.75 4.3892 112.607 4.75939 112.345 5.04039C112.052 5.35651 111.682 5.59234 111.271 5.7252C110.772 5.89663 110.248 5.98006 109.721 5.97173H108.811V8.47127L109.893 8.9027V9.07391L106.304 9.0876ZM108.811 2.70519V5.44442H109.321C109.794 5.47279 110.263 5.3346 110.644 5.05409C110.795 4.93891 110.917 4.79057 111 4.62068C111.084 4.45079 111.127 4.26395 111.126 4.07481C111.143 3.86999 111.108 3.66415 111.022 3.47706C110.936 3.28997 110.804 3.12793 110.637 3.00651C110.22 2.7638 109.741 2.64941 109.259 2.6778L108.811 2.70519Z" fill="white"/>
<path d="M117.285 9.19044C116.787 9.19573 116.294 9.10503 115.831 8.92336C115.398 8.75176 115.003 8.49826 114.667 8.17693C114.335 7.85496 114.075 7.46779 113.902 7.04014C113.711 6.58714 113.615 6.10012 113.62 5.6089C113.616 5.11551 113.712 4.62636 113.902 4.1708C114.077 3.74615 114.337 3.3616 114.667 3.04087C115.002 2.71735 115.398 2.46153 115.831 2.28758C116.769 1.93148 117.807 1.93148 118.745 2.28758C119.179 2.46153 119.574 2.71735 119.909 3.04087C120.239 3.36314 120.501 3.74718 120.681 4.1708C120.866 4.62778 120.96 5.11628 120.957 5.6089C120.96 6.09936 120.867 6.58574 120.681 7.04014C120.504 7.46691 120.241 7.8536 119.909 8.17693C119.574 8.49826 119.178 8.75176 118.745 8.92336C118.28 9.10574 117.784 9.19645 117.285 9.19044ZM117.45 8.64259C117.795 8.64733 118.13 8.52819 118.394 8.30704C118.685 8.05033 118.904 7.72211 119.028 7.35516C119.188 6.89523 119.265 6.4106 119.255 5.9239C119.269 5.32058 119.174 4.71968 118.973 4.15025C118.824 3.70234 118.563 3.29937 118.215 2.97924C117.925 2.71052 117.543 2.56121 117.147 2.5615C116.803 2.55725 116.469 2.67365 116.203 2.89021C115.907 3.14401 115.681 3.46951 115.549 3.83525C115.38 4.29352 115.299 4.77873 115.308 5.26649C115.295 5.87024 115.393 6.47119 115.597 7.04014C115.752 7.49224 116.017 7.89922 116.369 8.22486C116.665 8.4916 117.05 8.64033 117.45 8.64259Z" fill="white"/>
<path d="M125.999 9.19007C125.322 9.20452 124.651 9.04908 124.05 8.7381C123.512 8.4545 123.062 8.03077 122.748 7.51229C122.437 6.97773 122.278 6.36962 122.286 5.75233C122.284 5.24605 122.394 4.74554 122.61 4.28684C122.818 3.84062 123.11 3.43839 123.471 3.10213C123.83 2.76223 124.251 2.49273 124.711 2.30775C125.174 2.11663 125.67 2.01886 126.171 2.02013C126.485 2.01565 126.798 2.03627 127.108 2.08177C127.344 2.11976 127.575 2.18172 127.797 2.26666C127.99 2.34199 128.19 2.43102 128.39 2.52689L128.507 4.49914H128.314L127.308 2.86245C127.151 2.76172 126.982 2.68117 126.805 2.62277C126.624 2.56954 126.436 2.54414 126.247 2.54744C125.827 2.54443 125.418 2.67923 125.083 2.93093C124.721 3.21655 124.44 3.59211 124.27 4.01977C124.065 4.53865 123.965 5.09233 123.974 5.64962C123.961 6.19322 124.06 6.73375 124.263 7.23838C124.426 7.64554 124.695 8.00241 125.042 8.27243C125.362 8.5104 125.751 8.63786 126.151 8.63538C126.384 8.63742 126.617 8.60275 126.84 8.53266C127.049 8.4685 127.25 8.3812 127.439 8.27243L128.397 6.86173H128.576L128.431 8.64222C128.103 8.82575 127.751 8.96181 127.384 9.04627C126.93 9.14745 126.465 9.19571 125.999 9.19007Z" fill="white"/>
<path d="M133.508 9.19007C132.828 9.20538 132.155 9.04992 131.552 8.7381C131.014 8.4545 130.564 8.03077 130.25 7.51229C129.939 6.97773 129.78 6.36962 129.788 5.75233C129.786 5.24605 129.896 4.74554 130.112 4.28684C130.32 3.84062 130.612 3.43839 130.973 3.10213C131.333 2.76223 131.753 2.49273 132.213 2.30775C132.676 2.11663 133.172 2.01886 133.674 2.02013C133.987 2.01565 134.3 2.03627 134.61 2.08177C134.846 2.11976 135.077 2.18172 135.299 2.26666C135.492 2.34199 135.692 2.43102 135.892 2.52689L136.009 4.49914H135.816L134.81 2.86245C134.654 2.76172 134.485 2.68117 134.307 2.62277C134.126 2.56954 133.938 2.54414 133.749 2.54744C133.329 2.54443 132.92 2.67923 132.585 2.93093C132.223 3.21655 131.942 3.59211 131.772 4.01977C131.568 4.53865 131.467 5.09233 131.476 5.64962C131.463 6.19322 131.562 6.73375 131.765 7.23838C131.928 7.64554 132.197 8.00241 132.544 8.27243C132.864 8.5104 133.253 8.63786 133.653 8.63538C133.887 8.63742 134.119 8.60275 134.342 8.53266C134.551 8.4685 134.752 8.3812 134.941 8.27243L135.899 6.86173H136.078L135.933 8.64222C135.605 8.82459 135.252 8.96058 134.886 9.04627C134.434 9.14711 133.972 9.19536 133.508 9.19007Z" fill="white"/>
<path d="M137.283 9.08753V8.91633L138.186 8.4849V2.72566L137.283 2.29424V2.12988H140.611V2.29424L139.784 2.72566V7.17007L142.829 3.20504V2.72566L141.982 2.29424V2.12988H145.323V2.29424L144.434 2.72566V8.4849L145.323 8.91633V9.08753H141.982V8.91633L142.829 8.4849V4.06789L139.784 8.03292V8.4849L140.611 8.91633V9.08753H137.283Z" fill="white"/>
<path d="M146.253 9.08747V8.91627L147.155 8.48483V2.7256L146.253 2.29417V2.12982H149.587V2.29417L148.76 2.7256V7.17L151.805 3.20497V2.7256L150.958 2.29417V2.12982H154.299V2.29417L153.404 2.7256V8.48483L154.299 8.91627V9.08747H150.958V8.91627L151.805 8.48483V4.06782L148.76 8.03286V8.48483L149.587 8.91627V9.08747H146.253ZM150.276 1.55458C149.763 1.59294 149.255 1.428 148.864 1.09575C148.707 0.952215 148.582 0.777378 148.498 0.582671C148.414 0.387964 148.372 0.177767 148.375 -0.0341797H149.415C149.402 0.264741 149.474 0.561268 149.622 0.82183C149.688 0.93358 149.784 1.02443 149.9 1.08383C150.016 1.14323 150.146 1.16874 150.276 1.15739C150.411 1.1713 150.547 1.14721 150.669 1.08788C150.791 1.02854 150.893 0.936348 150.965 0.82183C151.107 0.559442 151.176 0.263797 151.165 -0.0341797H152.205C152.208 0.177076 152.166 0.386574 152.083 0.581067C152 0.77556 151.877 0.950817 151.723 1.09575C151.527 1.26932 151.298 1.40231 151.049 1.48697C150.801 1.57162 150.538 1.60625 150.276 1.58882V1.55458Z" fill="white"/>
<path d="M158.997 9.19026C158.32 9.2056 157.649 9.05011 157.048 8.73829C156.51 8.45469 156.06 8.03096 155.746 7.51249C155.47 7.02347 155.313 6.47698 155.288 5.91685C155.263 5.35672 155.37 4.79852 155.601 4.28704C155.814 3.84194 156.108 3.44018 156.469 3.10232C156.829 2.76242 157.249 2.49293 157.709 2.30795C158.172 2.11612 158.668 2.01832 159.17 2.02032C159.481 2.01606 159.792 2.03668 160.1 2.08196C160.335 2.11996 160.566 2.18191 160.789 2.26685C160.99 2.34369 161.188 2.43054 161.381 2.52708L161.498 4.49933H161.312L160.299 2.86264C160.146 2.76108 159.979 2.68046 159.803 2.62296C159.62 2.57028 159.43 2.54489 159.239 2.54763C158.821 2.54562 158.414 2.68039 158.081 2.93112C157.719 3.21674 157.438 3.5923 157.268 4.01996C156.883 5.05862 156.883 6.19991 157.268 7.23857C157.433 7.64637 157.704 8.00324 158.054 8.27262C158.373 8.5115 158.763 8.63906 159.163 8.63557C159.396 8.63761 159.629 8.60295 159.852 8.53285C160.06 8.4661 160.26 8.37892 160.451 8.27262L161.409 6.86192H161.588L161.436 8.64242C161.11 8.82484 160.76 8.96085 160.396 9.04646C159.937 9.14833 159.468 9.19659 158.997 9.19026Z" fill="white"/>
<path d="M162.773 9.08753V8.91633L163.675 8.4849V2.72566L162.773 2.29424V2.12988H166.183V2.29424L165.28 2.72566V8.4849L166.183 8.91633V9.08753H162.773ZM165.28 5.57447L168.187 2.68458L167.402 2.29424V2.12988H169.903V2.29424L169.214 2.5887L166.748 4.94444L169.696 8.61502L170.44 8.91633V9.08753H168.084L165.28 5.57447Z" fill="white"/>
<path d="M170.984 9.08753V8.91633L171.887 8.4849V2.72566L170.984 2.29424V2.12988H174.319V2.29424L173.492 2.72566V7.17007L176.537 3.20504V2.72566L175.683 2.29424V2.12988H179.031V2.29424L178.135 2.72566V8.4849L179.031 8.91633V9.08753H175.683V8.91633L176.537 8.4849V4.06789L173.492 8.03292V8.4849L174.319 8.91633V9.08753H170.984Z" fill="white"/>
<path d="M179.961 9.08747V8.91627L180.863 8.48483V2.7256L179.961 2.29417V2.12982H183.295V2.29417L182.468 2.7256V7.17L185.513 3.20497V2.7256L184.659 2.29417V2.12982H188V2.29417L187.111 2.7256V8.48483L188 8.91627V9.08747H184.659V8.91627L185.513 8.48483V4.06782L182.468 8.03286V8.48483L183.295 8.91627V9.08747H179.961ZM183.984 1.55458C183.468 1.59327 182.958 1.42841 182.565 1.09575C182.409 0.951874 182.285 0.776816 182.202 0.582075C182.119 0.387335 182.078 0.177317 182.082 -0.0341797H183.123C183.111 0.263797 183.18 0.559442 183.322 0.82183C183.394 0.936348 183.497 1.02854 183.618 1.08788C183.74 1.14721 183.876 1.1713 184.011 1.15739C184.147 1.17565 184.284 1.1535 184.407 1.09375C184.53 1.03401 184.632 0.939354 184.7 0.82183C184.846 0.560573 184.915 0.264088 184.9 -0.0341797H185.94C185.945 0.177317 185.904 0.387335 185.821 0.582075C185.738 0.776816 185.614 0.951874 185.458 1.09575C185.259 1.27412 185.026 1.40994 184.772 1.49477C184.519 1.57959 184.25 1.61161 183.984 1.58882V1.55458Z" fill="white"/>
<path d="M87.3797 23.5299H83.8594V23.3587L84.7619 22.9273V17.1681L83.8594 16.7366V16.5723H89.722V18.5171H89.5566L88.7368 17.1475H86.3601V19.5101H87.3797C87.9183 19.5026 88.4548 19.5765 88.9711 19.7292C89.3816 19.8433 89.7547 20.063 90.0526 20.3661C90.3174 20.6529 90.4584 21.0316 90.4453 21.4207C90.4538 21.8276 90.3144 22.224 90.0526 22.5369C89.7639 22.8723 89.3906 23.1252 88.9711 23.2697C88.4605 23.4503 87.9215 23.5384 87.3797 23.5299ZM87.0284 20.0305H86.3395V22.9478H87.0904C87.5503 22.9781 88.0043 22.831 88.3579 22.5369C88.5043 22.4023 88.6196 22.2376 88.6957 22.0544C88.7718 21.8711 88.807 21.6736 88.7988 21.4755C88.8166 21.2707 88.7852 21.0646 88.7074 20.8742C88.6296 20.6837 88.5075 20.5143 88.351 20.3798C87.9606 20.1223 87.4959 19.9996 87.0284 20.0305Z" fill="white"/>
<path d="M90.9551 23.53V23.3588L91.6026 23.0027L94.3582 16.5176H95.2951L98.0507 22.9822L98.7396 23.3588V23.53H95.3847V23.3588L96.3078 22.9822L95.6189 21.2291H93.1044L92.4155 22.9822L93.2904 23.3588V23.53H90.9551ZM93.3456 20.6538H95.3571L94.3513 18.1954L93.3456 20.6538Z" fill="white"/>
<path d="M102.804 23.5299V23.3587L103.707 22.9273V17.1475H101.557V17.8803C101.557 18.7774 101.557 19.5307 101.495 20.1264C101.469 20.6187 101.406 21.1085 101.309 21.5919C101.246 21.9048 101.156 22.2118 101.041 22.5096C100.919 22.78 100.748 23.026 100.538 23.2355C100.387 23.3806 100.206 23.4905 100.007 23.5573C99.8465 23.6066 99.6793 23.6319 99.5112 23.6327C99.4082 23.6463 99.3037 23.6246 99.215 23.571C99.1655 23.5013 99.1435 23.4161 99.1529 23.3313V22.5027L99.2012 22.4479H99.2976C99.8281 22.4479 100.221 22.0918 100.476 21.3728C100.785 20.2377 100.915 19.0618 100.861 17.8871V17.1544L99.959 16.7229V16.5586H106.193V16.7229L105.291 17.1544V22.9136L106.193 23.345V23.5162L102.804 23.5299Z" fill="white"/>
<path d="M107.123 23.5299V23.3587L108.026 22.9273V17.1681L107.123 16.7366V16.5723H112.903V18.3939H112.738L111.953 17.1475H109.631V19.6471H111.264L111.856 18.7431H112.028V21.1331H111.891L111.298 20.2497H109.666V22.9889H112.242L113.069 21.4207H113.241V23.571L107.123 23.5299Z" fill="white"/>
<path d="M115.673 23.5299V23.3587L116.802 22.9273V17.1475H115.28L114.433 18.8869H114.267V16.5723H120.936V18.8869H120.771L119.916 17.1475H118.401V22.9273L119.524 23.3587V23.5299H115.673Z" fill="white"/>
<path d="M121.783 23.5299V23.3587L122.686 22.9273V17.1681L121.783 16.7366V16.5723H125.117V16.7366L124.291 17.1681V19.6608H127.226V17.1681L126.378 16.7366V16.5723H129.719V16.7366L128.831 17.1681V22.9273L129.719 23.3587V23.5299H126.357V23.3587L127.205 22.9273V20.2428H124.291V22.9273L125.117 23.3587V23.5299H121.783Z" fill="white"/>
<path d="M134.176 23.5299H130.656V23.3587L131.559 22.9273V17.1681L130.656 16.7366V16.5723H134.273V16.7366L133.157 17.1681V19.3868H134.176C134.716 19.3767 135.254 19.4554 135.768 19.6197C136.182 19.7503 136.555 19.9864 136.849 20.3045C137.109 20.6026 137.249 20.9854 137.242 21.3796C137.25 21.7886 137.111 22.187 136.849 22.5027C136.562 22.8444 136.189 23.1043 135.768 23.256C135.259 23.4447 134.719 23.5376 134.176 23.5299ZM133.825 19.9689H133.136V22.9478H133.935C134.164 22.9647 134.395 22.9358 134.612 22.8629C134.83 22.7899 135.031 22.6745 135.203 22.5232C135.348 22.3836 135.463 22.2151 135.539 22.0287C135.615 21.8424 135.651 21.6422 135.644 21.4413C135.609 20.4483 135.017 19.9689 133.825 19.9689ZM138 23.5299V23.3587L138.902 22.9273V17.1681L138 16.7366V16.5723H141.403V16.7366L140.501 17.1681V22.9273L141.403 23.3587V23.5299H138Z" fill="white"/>
<path d="M142.361 23.53V23.3588L143.256 22.9274V17.1682L142.361 16.7367V16.5724H145.688V16.7367L144.861 17.1682V21.6126L147.906 17.6475V17.1682L147.059 16.7367V16.5724H150.4V16.7367L149.504 17.1682V22.9274L150.4 23.3588V23.53H147.059V23.3588L147.906 22.9274V18.5104L144.861 22.5028V22.9548L145.688 23.3862V23.5574L142.361 23.53ZM146.377 16.0314C145.864 16.0697 145.356 15.9048 144.965 15.5726C144.809 15.4287 144.685 15.2536 144.602 15.0589C144.519 14.8641 144.478 14.6541 144.482 14.4426H145.516C145.503 14.7415 145.574 15.0381 145.722 15.2986C145.788 15.4104 145.885 15.5012 146.001 15.5606C146.117 15.62 146.247 15.6455 146.377 15.6342C146.512 15.6481 146.648 15.624 146.77 15.5647C146.892 15.5053 146.994 15.4132 147.066 15.2986C147.208 15.0362 147.277 14.7406 147.266 14.4426H148.306C148.308 14.6539 148.267 14.8634 148.184 15.0579C148.101 15.2524 147.978 15.4276 147.824 15.5726C147.625 15.74 147.395 15.8668 147.146 15.9455C146.898 16.0243 146.636 16.0535 146.377 16.0314Z" fill="white"/>
<path d="M83.8594 37.8082V37.637L84.7619 37.2056V31.4464L83.8594 31.0149V30.8506H87.2626V31.0149L86.3601 31.4464V37.2056L87.2626 37.637V37.8082H83.8594ZM86.3601 34.2952L89.2673 31.4053L88.4819 31.0149V30.8506H90.9895V31.0149L90.3006 31.3094L87.8413 33.6651L90.7897 37.3357L91.5337 37.637V37.8082H89.1571L86.3601 34.2952Z" fill="white"/>
<path d="M95.3571 37.9114C94.8598 37.9167 94.3661 37.826 93.9036 37.6443C93.4706 37.4727 93.0752 37.2192 92.7393 36.8979C92.4076 36.5745 92.1452 36.1879 91.9678 35.7611C91.782 35.3067 91.6884 34.8203 91.6922 34.3298C91.6891 33.8372 91.7827 33.3487 91.9678 32.8917C92.1473 32.4681 92.4096 32.0841 92.7393 31.7618C93.0748 31.4383 93.4702 31.1825 93.9036 31.0085C94.8419 30.6524 95.8793 30.6524 96.8176 31.0085C97.251 31.1825 97.6464 31.4383 97.9818 31.7618C98.3116 32.0841 98.5738 32.4681 98.7534 32.8917C98.9385 33.3487 99.0321 33.8372 99.0289 34.3298C99.0328 34.8203 98.9391 35.3067 98.7534 35.7611C98.5759 36.1879 98.3135 36.5745 97.9818 36.8979C97.646 37.2192 97.2506 37.4727 96.8176 37.6443C96.3528 37.8267 95.8568 37.9174 95.3571 37.9114ZM95.5225 37.3635C95.8674 37.3683 96.2026 37.2491 96.4663 37.028C96.7577 36.7713 96.9762 36.4431 97.1 36.0761C97.2605 35.6162 97.3375 35.1316 97.3274 34.6449C97.3417 34.0415 97.246 33.4406 97.0449 32.8712C96.898 32.4225 96.637 32.0191 96.2871 31.7002C95.9973 31.4315 95.6157 31.2822 95.2194 31.2825C94.8756 31.2782 94.5414 31.3946 94.2756 31.6112C93.9793 31.865 93.7538 32.1905 93.6211 32.5562C93.4528 33.0145 93.3711 33.4997 93.38 33.9874C93.3677 34.5912 93.4658 35.1921 93.6693 35.7611C93.8243 36.2132 94.0894 36.6202 94.4409 36.9458C94.7392 37.2141 95.127 37.363 95.5294 37.3635H95.5225Z" fill="white"/>
<path d="M100.021 37.8087V37.6375L100.923 37.2061V31.4469L100.021 31.0154V30.8511H103.348V31.0154L102.522 31.4469V33.9396H105.463V31.4469L104.616 31.0154V30.8511H107.957V31.0154L107.061 31.4469V37.2061L107.957 37.6375V37.8087H104.616V37.6375L105.463 37.2061V34.5216H102.522V37.2061L103.348 37.6375V37.8087H100.021Z" fill="white"/>
<path d="M108.894 37.8082V37.637L109.796 37.2056V31.4464L108.894 31.0149V30.8506H112.297V31.0149L111.395 31.4464V37.2056L112.297 37.637V37.8082H108.894ZM111.395 34.2952L114.302 31.4053L113.516 31.0149V30.8506H116.024V31.0149L115.335 31.3094L112.876 33.6651L115.824 37.3357L116.568 37.637V37.8082H114.212L111.395 34.2952Z" fill="white"/>
<path d="M119.999 37.1303C119.797 37.4057 119.53 37.6269 119.221 37.774C119.002 37.8634 118.768 37.9099 118.532 37.911C118.427 37.9241 118.32 37.9024 118.229 37.8493C118.185 37.7772 118.166 37.6933 118.173 37.6096V36.7947L118.235 36.7399H118.435C118.716 36.75 118.996 36.7082 119.262 36.6167C119.499 36.519 119.707 36.3635 119.868 36.1647L117.23 31.4601L116.43 31.0149V30.8506H119.744V31.0149L118.89 31.419L120.695 34.6581H120.833L122.617 31.4053L121.769 31.0149V30.8506H124.036V31.0149L123.395 31.3779L121.06 35.4867C120.963 35.6511 120.86 35.8428 120.736 36.0483C120.612 36.2537 120.481 36.4523 120.35 36.6441C120.219 36.8358 120.089 37.0207 119.999 37.1303Z" fill="white"/>
<path d="M124.497 37.8082V37.637L125.4 37.2056V31.4464L124.497 31.0149V30.8506H128.162C128.861 30.8156 129.556 30.9694 130.174 31.2957C130.372 31.4245 130.541 31.5937 130.669 31.7921C130.796 31.9905 130.88 32.2136 130.915 32.4466C130.949 32.6797 130.934 32.9174 130.869 33.1439C130.804 33.3705 130.692 33.5809 130.539 33.761C130.242 34.0758 129.87 34.3113 129.458 34.4458C128.962 34.6179 128.439 34.7013 127.914 34.6924H126.998V37.1919L128.08 37.6233V37.7945L124.497 37.8082ZM126.998 31.4258V34.1651H127.508C127.983 34.191 128.453 34.0531 128.838 33.7747C128.988 33.6592 129.109 33.5106 129.191 33.3407C129.274 33.1708 129.315 32.9841 129.313 32.7954C129.33 32.5906 129.295 32.3848 129.209 32.1977C129.123 32.0106 128.991 31.8486 128.824 31.7271C128.407 31.4844 127.928 31.37 127.446 31.3984L126.998 31.4258Z" fill="white"/>
<path d="M135.52 37.911C134.84 37.9254 134.167 37.77 133.563 37.459C133.026 37.1773 132.578 36.753 132.268 36.2332C131.992 35.7442 131.835 35.1977 131.81 34.6376C131.785 34.0775 131.893 33.5193 132.124 33.0078C132.336 32.5644 132.628 32.163 132.985 31.8231C133.345 31.4815 133.769 31.2119 134.232 31.0287C134.692 30.8371 135.186 30.7393 135.685 30.7411C135.999 30.7366 136.312 30.7572 136.622 30.8027C136.857 30.8407 137.088 30.9027 137.311 30.9876C137.511 31.0629 137.704 31.152 137.903 31.2478L138.021 33.2201H137.828L136.822 31.5834C136.667 31.4841 136.5 31.4037 136.326 31.3437C136.142 31.291 135.952 31.2656 135.761 31.2684C135.343 31.2653 134.936 31.4002 134.604 31.6519C134.239 31.9356 133.958 32.3118 133.791 32.7407C133.583 33.2586 133.482 33.813 133.494 34.3706C133.48 34.9137 133.576 35.4541 133.777 35.9593C133.942 36.3652 134.21 36.7215 134.555 36.9934C134.876 37.2305 135.265 37.3578 135.664 37.3563C135.898 37.3571 136.13 37.3225 136.353 37.2536C136.561 37.1868 136.762 37.0997 136.953 36.9934L137.903 35.5827H138.069L137.917 37.3632C137.589 37.5467 137.237 37.6827 136.87 37.7672C136.427 37.8663 135.974 37.9146 135.52 37.911Z" fill="white"/>
<path d="M16.2717 26.3103H9.28633L0 8.29297H6.98542L16.2717 26.3103Z" fill="white"/>
<path d="M30.3873 26.3103H23.4018L14.1155 8.29297H21.1009L30.3873 26.3103Z" fill="white"/>
<path d="M54.6571 26.3308H61.6425L70.9288 8.31348H63.9434L54.6571 26.3308Z" fill="white"/>
<path d="M40.5416 26.3308H47.527L56.8133 8.31348H49.8279L40.5416 26.3308Z" fill="white"/>
<path d="M61.6563 31.0557H9.53436V37.9996H61.6563V31.0557Z" fill="white"/>
<path d="M35.5953 10.1074L31.6204 2.4375H25.3445L35.5953 22.338L45.853 2.4375H39.5703L35.5953 10.1074Z" fill="white"/>
</g>
<defs>
<clipPath id="clip0_853_964">
<rect width="188" height="38" fill="white"/>
</clipPath>
</defs>
</svg>
