<svg width="304" height="120" viewBox="0 0 304 120" fill="none" xmlns="http://www.w3.org/2000/svg">
<path d="M37.9688 3.15789H53.7891V6.31579H72.7734V9.47368H91.7578V12.6316H107.578V15.7895H126.562V18.9474H142.383V22.1053H161.367V25.2632H180.352V28.4211H186.68V31.5789H183.516V37.8947H180.352V44.2105H177.188V50.5263H193.008V47.3684H205.664V44.2105H218.32V41.0526H234.141V37.8947H246.797V34.7368H262.617V31.5789H275.273V28.4211H291.094V25.2632H303.75V37.8947H300.586V56.8421H297.422V72.6316H294.258V91.5789H291.094V107.368H287.93V120H237.305V116.842H170.859V113.684H107.578V110.526H69.6094V107.368H72.7734V94.7368H75.9375V85.2632H79.1016V78.9474H50.625V82.1053H18.9844V85.2632H0V78.9474H3.16406V72.6316H6.32812V63.1579H9.49219V56.8421H12.6562V50.5263H15.8203V44.2105H18.9844V34.7368H22.1484V28.4211H25.3125V22.1053H28.4766V15.7895H31.6406V6.31579H34.8047V0H37.9688V3.15789Z" fill="#A8F000"/>
<path fill-rule="evenodd" clip-rule="evenodd" d="M160.96 46.6166V49.5556L162.327 49.6486V55.4588L163.661 55.4805V58.3508L160.96 58.3768V55.4366L159.56 55.4138V49.4603L156.653 49.2624V58.4186L153.595 58.4481V36.5307L156.653 37.0558V46.2117L158.125 46.35V43.3361L159.56 43.5083V46.485L160.96 46.6166ZM160.96 40.7356V37.7951L163.661 38.2588V41.1294L162.327 40.9347V43.8398L159.56 43.5083V40.5315L160.96 40.7356ZM148.97 51.9906L143.684 51.7679V58.544L140.215 58.5777V62.0558L136.23 62.1976V58.6162L127.505 58.7007V62.5081L122.715 62.6785V54.8156L125.148 54.8551V47.1183L127.505 47.2785V32.051L138.252 33.896V55.0677L139.905 55.0946V41.1519L141.821 41.3817V37.9454L143.684 38.217V34.8286L148.97 35.7364V38.9876L150.639 39.2309V42.4389L152.263 42.6336V58.461L148.97 58.4929V51.9906ZM134.147 36.8265L129.787 36.191V54.9302L134.147 55.001V36.8265ZM148.97 42.2386L147.256 42.0334V38.7377L145.495 38.481V41.822L143.684 41.6051V48.3798L148.97 48.7397V42.2386ZM118.024 58.7922L103.68 58.9311V54.5063L100.489 54.4546V49.9474L106.756 50.2114V54.5563L115.352 54.6961V46.4514L103.68 45.6571V41.2344L100.489 40.9344V27.4122L106.756 28.4883V41.5232L115.352 42.331V29.9641L120.609 30.8669V54.7814L118.024 54.7393V58.7922ZM90.7422 59.0562L83.1947 59.1293V29.3981L75 28.2036V23.0356L97.7168 26.9362V31.5154L90.7422 30.4986V59.0562Z" fill="black"/>
<path d="M46.9578 60.0001L68.3686 59.7943V54.2997L73.125 54.3764V49.0044L63.3901 48.5963V54.2194L52.7043 54.0468V48.1484L46.9578 47.9076V29.7713L52.7043 30.4564V24.558L63.3901 26.1073V31.7301L73.125 32.8905V27.5184L68.3686 26.8289V21.3342L46.9578 17.6787V23.7251L40.9152 22.8491V29.0511L34.5536 28.2929V47.3877L40.9152 47.6545V53.8565L46.9578 53.954V60.0001Z" fill="black"/>
<path fill-rule="evenodd" clip-rule="evenodd" d="M264.706 100.492V84.4828L250.266 85.4191V100.728L241.322 100.875V63.6875L245.73 63.0817V55.5367L250.266 54.8035V47.1489L264.706 44.4644V52.4689L269.818 51.6426V59.7704L275.089 59.0459V100.321L264.706 100.492ZM264.706 60.4732L259.748 61.1548V53.2703L254.937 54.0482V61.816L250.266 62.4582V77.7677L264.706 76.482V60.4732ZM229.454 101.07L221.635 101.198V59.4324L214.217 60.6316V53.8498L237.713 49.482V56.8329L229.454 58.1682V101.07ZM204.319 101.482L191.507 101.692V95.4603L188.491 95.5831V89.4239L185.546 89.6148V71.3547L188.491 70.9499V64.791L191.507 64.3033V58.0713L204.319 55.69V62.2321L207.722 61.6817V68.3063L200.998 69.2307V62.7689L194.594 63.8042V70.1108L191.507 70.5353V89.2286L194.594 89.0284V95.335L200.998 95.075V88.6132L207.722 88.1771V94.802L204.319 94.9401V101.482ZM177.542 90.1339L174.843 90.3089V96.1373L172.203 96.2446V102.009L164.622 102.133V74.231L169.621 73.5439V90.6475L172.203 90.4801V84.7178L174.843 84.4828V78.6544L177.542 78.3489V72.4549L183.125 71.6875V101.83L177.542 101.922V90.1339ZM167.096 62.6093L180.302 60.1543V66.115L167.096 68.25V62.6093ZM160.206 102.206L149.019 102.39V97.1862L146.913 97.2718V92.1198L151.167 91.8438V97.0991L157.876 96.8264V85.9937L149.019 86.7823V81.5789L146.913 81.8174V66.3611L151.167 65.5701V81.3358L157.876 80.5759V64.323L162.585 63.4476V96.6352L160.206 96.7318V102.206ZM141.151 72.4445L137.277 73.0709V97.6632L135.394 97.7398V102.613L131.731 102.673V93.104L133.545 92.9862V88.16L135.394 87.9952V68.5021L145.175 66.684V102.453L141.151 102.518V72.4445ZM126.752 93.4266L121.759 93.7504V102.837L118.571 102.889V80.5613L120.151 80.344V75.8399L121.759 75.5799V71.0366L126.752 70.1084V74.7727L128.476 74.4939V79.1996L130.232 78.9582V102.698L126.752 102.755V93.4266ZM126.752 79.4367L125.058 79.6694V75.0463L123.394 75.3156V79.8983L121.759 80.1229V89.2092L126.752 88.7647V79.4367ZM114.226 89.88L115.732 89.746V94.1413L117.264 94.0417V102.91L114.226 102.96V89.88ZM112.745 102.985L111.287 103.008V90.1417L109.854 90.2691V86.0146L111.287 85.8521V72.9833L112.745 72.7123V85.687L114.226 85.5193V89.88L112.745 90.0118V102.985ZM107.054 103.078V94.7039L108.443 94.6136V90.3948L109.854 90.2691V103.032L107.054 103.078ZM108.443 81.9535L107.054 82.1444V73.7702L109.854 73.25V86.0146L108.443 86.1741V81.9535ZM117.264 71.8723V80.741L115.732 80.9513V85.3486L114.226 85.5193V72.4369L117.264 71.8723ZM104.557 103.119L98.1208 103.224V99.2538L96.892 99.3037V79.6003L98.1208 79.4016V75.4308L104.557 73.9733V78.3611L105.905 78.1429V98.9376L104.557 98.9924V103.119ZM103.23 78.5755L99.369 79.1999V99.2031L103.23 99.0461V78.5755ZM93.4989 80.1487L90.0654 80.7041V103.357L87.8572 103.393V77.3389L95.8734 75.8486V103.261L93.4989 103.3V80.1487Z" fill="black"/>
</svg>
