<svg width="250" height="38" viewBox="0 0 250 38" fill="none" xmlns="http://www.w3.org/2000/svg">
<g clip-path="url(#clip0_514_1057)">
<mask id="mask0_514_1057" style="mask-type:luminance" maskUnits="userSpaceOnUse" x="0" y="0" width="37" height="38">
<path d="M0.167969 0H36.8232V37.7659H0.167969V0Z" fill="white"/>
</mask>
<g mask="url(#mask0_514_1057)">
<path d="M18.4956 37.7659C28.6176 37.7659 36.8232 29.3118 36.8232 18.883C36.8232 8.4542 28.6176 0 18.4956 0C8.37351 0 0.167969 8.4542 0.167969 18.883C0.167969 29.3118 8.37351 37.7659 18.4956 37.7659Z" fill="#FF5226"/>
<path d="M21.4647 30.7792V10.5618H19.1628C17.5035 10.5618 16.245 10.9244 15.3897 11.6507C14.5344 12.3507 14.1068 13.2835 14.1068 14.4505C14.1068 15.3317 14.2571 16.0832 14.5589 16.7051C14.8607 17.327 15.3017 17.8972 15.8797 18.4159C16.4588 18.9345 17.1883 19.5048 18.0692 20.1267L20.2575 21.6424L13.8429 30.7805H9.01172L15.1258 22.2265L17.9935 24.8701L15.7294 23.3922C14.5909 22.6303 13.5065 21.786 12.4842 20.8656C11.5776 20.0348 10.886 19.1284 10.4083 18.144C9.93054 17.1583 9.69106 16.0052 9.69106 14.6833C9.69106 12.4023 10.484 10.5618 12.0688 9.16197C13.6791 7.73693 16.0312 7.02441 19.1249 7.02441H25.955V30.7792H21.4647Z" fill="white"/>
</g>
<path d="M58.2729 37.7659C48.1622 37.7659 39.9453 29.3328 39.9453 18.917C39.9453 8.49986 48.1622 0 58.2729 0C68.3824 0 76.6005 8.49986 76.6005 18.917C76.6005 29.3328 68.3824 37.7659 58.2729 37.7659Z" fill="#FF5226"/>
<path d="M55.4345 2.55518L34.9883 35.4241H44.361L56.1725 16.4782L55.8842 16.3435L52.6096 29.9015L59.5424 31.1604L66.6681 21.9329L66.282 21.7352L63.875 32.2165L78.9806 29.2507L75.8991 24.0213L70.4546 25.3054L71.0973 26.067L73.6326 15.1212L67.7262 11.0525L59.992 21.0731L60.3769 21.272L63.5537 8.14202L55.4345 2.55518Z" fill="#FFDD00"/>
<path d="M55.4345 2.55518L34.9883 35.4241H44.361L56.1725 16.4782L55.8842 16.3435L52.6096 29.9015L59.5424 31.1604L66.6681 21.9329L66.282 21.7352L63.875 32.2165L69.9476 31.0244L73.6326 15.1212L67.7262 11.0525L59.992 21.0731L60.3769 21.272L63.5537 8.14202L55.4345 2.55518Z" fill="#FFDD00"/>
<path d="M83.6252 30.7795L95.0213 7.0247H103.7L105.474 21.4878L114.267 7.02344H122.871V30.7795H114.456V18.0272L106.643 30.7795H98.2287L96.6073 17.9101L90.4174 30.7795H83.6252ZM148.72 26.0751C148.72 26.8795 148.733 27.6701 148.758 28.4468C148.784 29.2248 148.834 29.9889 148.909 30.7405H141.097C140.911 30.3672 140.76 29.9769 140.645 29.5747C140.491 29.0424 140.39 28.4954 140.343 27.942C139.538 28.9264 138.519 29.7422 137.286 30.3905C136.079 31.0136 134.355 31.3246 132.116 31.3246C129.852 31.3246 128.04 30.7795 126.682 29.6918C125.349 28.6029 124.683 27.1514 124.683 25.3361C124.683 23.6518 125.147 22.3564 126.078 21.4488C127.035 20.516 128.518 19.8676 130.532 19.5051C132.544 19.1148 135.122 18.921 138.267 18.921H140.229V18.493C140.229 17.6646 139.89 17.0289 139.21 16.5883C138.531 16.1477 137.26 15.9274 135.399 15.9274C133.563 15.9274 131.852 16.1741 130.267 16.6663C128.707 17.1321 127.437 17.5992 126.456 18.0662V12.8558C127.563 12.4403 129.047 12.0262 130.909 11.612C132.796 11.1714 134.946 10.9511 137.362 10.9511C139.802 10.9511 141.864 11.184 143.55 11.651C145.236 12.0916 146.519 12.8558 147.399 13.9447C148.28 15.0072 148.72 16.4851 148.72 18.3771V26.0751ZM151.286 11.5352H159.098L159.55 14.8385C160.507 13.5431 161.651 12.5977 162.985 12.001C164.318 11.4043 165.853 11.1072 167.589 11.1072C169.551 11.1072 171.312 11.4697 172.872 12.1949C174.398 12.8908 175.686 14.0424 176.569 15.5006C177.476 16.9773 177.928 18.8442 177.928 21.0988C177.928 23.3534 177.476 25.2329 176.569 26.736C175.69 28.2139 174.457 29.3293 172.872 30.0795C171.286 30.8323 169.475 31.2075 167.437 31.2075C165.978 31.2171 164.531 30.9398 163.173 30.3905C161.865 29.8215 160.733 28.9264 159.778 27.7091V35.7961H151.286V11.5339V11.5352ZM202.532 21.0988C202.532 19.1803 203.036 17.4695 204.042 15.9664C205.074 14.4633 206.533 13.285 208.419 12.429C210.331 11.5478 212.583 11.1072 215.175 11.1072C217.866 11.1072 220.118 11.5856 221.929 12.5448C223.765 13.5041 225.048 14.8649 225.778 16.6273C226.533 18.3897 226.633 20.4769 226.08 22.8877H211.174C211.476 24.0017 212.143 24.8439 213.174 25.4142C214.231 25.9593 215.79 26.2312 217.853 26.2312C219.287 26.2312 220.62 26.1015 221.853 25.841C223.013 25.5769 224.159 25.253 225.288 24.8704V29.4967C224.205 30.0153 222.998 30.4295 221.665 30.7405C220.356 31.0514 218.634 31.2075 216.495 31.2075C211.79 31.2075 208.281 30.3137 205.967 28.5248C203.677 26.7108 202.532 24.2359 202.532 21.0988ZM226.797 11.5339H248.345V16.5115H241.627V30.7405H233.137V16.5115H226.797V11.5339ZM179.551 11.5339H188.041V20.2428L196.08 11.5339H203.401L195.928 19.5428L204.948 30.7405H194.683L188.041 22.2645V30.7405H179.551V11.5339ZM215.212 15.4616C214.054 15.4616 213.137 15.8116 212.457 16.5115C211.778 17.185 211.338 18.0536 211.136 19.1161H218.608C218.584 18.0536 218.306 17.185 217.778 16.5102C217.249 15.8116 216.394 15.4616 215.212 15.4616ZM169.249 21.0988C169.249 19.5428 168.834 18.3117 168.003 17.4053C167.199 16.4725 166.041 16.0054 164.532 16.0054C163.149 16.0054 161.99 16.446 161.061 17.3272C160.13 18.1833 159.664 19.4396 159.664 21.0988C159.664 22.758 160.116 24.0408 161.023 24.9484C161.954 25.8296 163.123 26.2702 164.532 26.2702C166.092 26.2702 167.261 25.8032 168.041 24.8704C168.846 23.9375 169.249 22.6799 169.249 21.0988ZM140.229 22.4584H138.305C136.469 22.4584 135.148 22.6157 134.343 22.9267C133.563 23.2376 133.173 23.8331 133.173 24.7143C133.173 25.4658 133.425 26.0235 133.927 26.386C134.456 26.7234 135.084 26.8921 135.815 26.8921C136.922 26.8921 137.827 26.6844 138.531 26.2702C139.26 25.8296 139.827 25.3236 140.229 24.7533V22.4584Z" fill="black"/>
</g>
<defs>
<clipPath id="clip0_514_1057">
<rect width="249.255" height="37.7659" fill="white" transform="translate(0.167969)"/>
</clipPath>
</defs>
</svg>
