<svg width="57" height="41" viewBox="0 0 57 41" fill="none" xmlns="http://www.w3.org/2000/svg">
<g filter="url(#filter0_d_8_36622)">
<path d="M45.6654 5.07528H48.3709V6.56318L51.077 6.56373V30.5116H48.3709V32.1349H45.6654V34.841H7.78141V32.1349H5.07534V30.7819H2.36926V6.56373H5.07534V5.07528H7.78141V2.3692H45.6654V5.07528Z" fill="white"/>
<path d="M46.8497 1.18463V3.89069H49.5558V5.37897H52.2618V31.6964H49.5558V33.3194H46.8497V36.0255H6.5968V33.3194H3.89075V31.9669H1.18469V5.37897H3.89075V3.89069H6.5968V1.18463H46.8497Z" stroke="black" stroke-width="2.36923"/>
</g>
<rect width="3.24761" height="3.24761" transform="matrix(-1 0 0 1 30.5129 13.5999)" fill="black"/>
<rect width="3.24761" height="3.24761" transform="matrix(-1 0 0 1 37.0085 7.10486)" fill="black"/>
<rect width="3.24761" height="3.24761" transform="matrix(-1 0 0 1 27.2653 16.8475)" fill="black"/>
<rect width="3.24761" height="3.24761" transform="matrix(-1 0 0 1 33.7606 10.3524)" fill="black"/>
<rect width="3.24761" height="3.24761" transform="matrix(-1 0 0 1 24.0179 20.0952)" fill="black"/>
<rect width="3.24761" height="3.24761" transform="matrix(-1 0 0 1 28.8893 15.2238)" fill="black"/>
<rect width="3.24761" height="3.24761" transform="matrix(-1 0 0 1 35.3846 8.72858)" fill="black"/>
<rect width="3.24761" height="3.24761" transform="matrix(-1 0 0 1 25.6416 18.4714)" fill="black"/>
<rect width="3.24761" height="3.24761" transform="matrix(-1 0 0 1 32.137 11.9761)" fill="black"/>
<rect width="3.24761" height="3.24761" transform="matrix(-1 0 0 1 22.3939 21.719)" fill="black"/>
<rect width="3.24761" height="3.24761" transform="matrix(-1 0 0 1 20.7703 23.3428)" fill="black"/>
<rect width="3.24761" height="3.24761" transform="matrix(-1 0 0 1 19.1466 24.9666)" fill="black"/>
<rect x="22.3942" y="13.5999" width="3.24761" height="3.24761" fill="black"/>
<rect x="15.8994" y="7.10461" width="3.24761" height="3.24761" fill="black"/>
<rect x="25.6418" y="16.8475" width="3.24761" height="3.24761" fill="black"/>
<rect x="19.1471" y="10.3522" width="3.24761" height="3.24761" fill="black"/>
<rect x="28.8895" y="20.0951" width="3.24761" height="3.24761" fill="black"/>
<rect x="24.0182" y="15.2237" width="3.24761" height="3.24761" fill="black"/>
<rect x="17.5233" y="8.72845" width="3.24761" height="3.24761" fill="black"/>
<rect x="27.2655" y="18.4713" width="3.24761" height="3.24761" fill="black"/>
<rect x="20.7705" y="11.9761" width="3.24761" height="3.24761" fill="black"/>
<rect x="30.5135" y="21.7189" width="3.24761" height="3.24761" fill="black"/>
<rect x="32.1372" y="23.3428" width="3.24761" height="3.24761" fill="black"/>
<rect x="33.7609" y="24.9665" width="3.24761" height="3.24761" fill="black"/>
<defs>
<filter id="filter0_d_8_36622" x="0" y="0" width="56.4462" height="40.2102" filterUnits="userSpaceOnUse" color-interpolation-filters="sRGB">
<feFlood flood-opacity="0" result="BackgroundImageFix"/>
<feColorMatrix in="SourceAlpha" type="matrix" values="0 0 0 0 0 0 0 0 0 0 0 0 0 0 0 0 0 0 127 0" result="hardAlpha"/>
<feOffset dx="3" dy="3"/>
<feComposite in2="hardAlpha" operator="out"/>
<feColorMatrix type="matrix" values="0 0 0 0 0 0 0 0 0 0 0 0 0 0 0 0 0 0 1 0"/>
<feBlend mode="normal" in2="BackgroundImageFix" result="effect1_dropShadow_8_36622"/>
<feBlend mode="normal" in="SourceGraphic" in2="effect1_dropShadow_8_36622" result="shape"/>
</filter>
</defs>
</svg>
