<svg width="239" height="182" viewBox="0 0 239 182" fill="none" xmlns="http://www.w3.org/2000/svg">
<g clip-path="url(#clip0_514_1718)">
<path d="M66.4783 0.130203H239V115.144C239 151.972 209.213 181.87 172.522 181.87H0V66.8556C0 30.0275 29.7866 0.130203 66.4783 0.130203Z" fill="url(#paint0_linear_514_1718)"/>
<path d="M47.5098 59.5474H62.5084L90.9411 103.865V59.5474H107.504V132.705H93.6489L64.0729 87.1345V132.705H47.5248V59.5474H47.5098ZM114.048 89.0219C114.048 80.0376 121.029 72.9257 130.19 72.9257C139.352 72.9257 146.122 79.9319 146.122 88.9162C146.122 97.9005 139.141 105.012 129.98 105.012C120.818 105.012 114.048 98.0062 114.048 89.0219ZM116.124 110.237H144.03V119.75H116.124V110.237ZM136.749 89.0219C136.749 84.8393 134.041 81.2909 129.98 81.2909C125.918 81.2909 123.421 84.7487 123.421 88.9162C123.421 93.0838 126.128 96.6473 130.19 96.6473C134.252 96.6473 136.749 93.2046 136.749 89.0219Z" fill="white"/>
<path d="M167.485 75.3265L154.773 78.4673L151.433 65.3004L172.359 59.034H183.296V132.72H167.469V75.3416L167.485 75.3265Z" fill="white"/>
<path d="M56.7617 150.689C60.1616 150.689 62.4031 152.274 62.4031 154.917C62.4031 156.97 61.1695 158.103 59.7253 158.737C61.7712 159.371 63.0349 160.64 63.0349 162.995C63.0349 165.879 60.643 167.616 56.7316 167.616H47.5098V150.674H56.7617V150.689ZM55.5883 157.469C56.9422 157.469 57.6041 156.744 57.6041 155.762C57.6041 154.947 57.0325 154.207 55.6484 154.207H52.2185V157.469H55.5883ZM56.0095 163.856C57.4838 163.856 58.1758 163.161 58.1758 162.15C58.1758 161.229 57.5139 160.504 55.8741 160.504H52.2185V163.856H55.9944H56.0095Z" fill="white"/>
<path d="M74.7688 145.495H83.78C89.0303 145.495 92.2195 148.62 92.2195 153.211C92.2195 158.329 88.248 160.987 83.3136 160.987H79.6279V167.631H74.7838V145.51L74.7688 145.495ZM83.4641 156.653C85.8861 156.653 87.3002 155.204 87.3002 153.241C87.3002 151.066 85.7959 149.889 83.3588 149.889H79.6129V156.653H83.449H83.4641Z" fill="white"/>
<path d="M93.6934 159.19C93.6934 154.328 97.6047 150.372 102.855 150.372C108.105 150.372 111.956 154.252 111.956 159.19C111.956 164.128 108.06 168.008 102.795 168.008C97.5295 168.008 93.6934 164.128 93.6934 159.19ZM107.233 159.19C107.233 156.699 105.443 154.509 102.795 154.509C100.147 154.509 98.4171 156.623 98.4171 159.19C98.4171 161.757 100.207 163.871 102.855 163.871C105.503 163.871 107.233 161.757 107.233 159.19Z" fill="white"/>
<path d="M113.807 159.19C113.807 154.358 117.493 150.372 122.653 150.372C125.827 150.372 127.783 151.58 129.362 153.346L126.564 156.185C125.526 155.204 124.518 154.509 122.623 154.509C120.231 154.509 118.531 156.623 118.531 159.19C118.531 161.757 120.201 163.871 122.818 163.871C124.428 163.871 125.526 163.176 126.685 162.074L129.483 164.913C127.843 166.71 125.962 168.008 122.593 168.008C117.523 168.008 113.807 164.082 113.807 159.19Z" fill="white"/>
<path d="M130.371 159.19C130.371 154.358 134.057 150.372 139.217 150.372C142.391 150.372 144.347 151.58 145.926 153.346L143.128 156.185C142.09 155.204 141.082 154.509 139.187 154.509C136.795 154.509 135.095 156.623 135.095 159.19C135.095 161.757 136.765 163.871 139.382 163.871C140.992 163.871 142.09 163.176 143.249 162.074L146.047 164.913C144.407 166.71 142.526 168.008 139.157 168.008C134.087 168.008 130.371 164.082 130.371 159.19Z" fill="white"/>
<path d="M164.099 167.616H159.466V157.756L152.892 167.616H148.394V150.674H153.027V160.564L159.601 150.674H164.099V167.616Z" fill="white"/>
<path d="M183.309 167.616H178.675V157.756L172.101 167.616H167.603V150.674H172.236V160.564L178.811 150.674H183.309V167.616Z" fill="white"/>
<path d="M190.636 152.078L187.582 154.419L186.258 152.139L189.778 150.659L186.258 149.179L187.582 146.899L190.636 149.239L190.124 145.449H192.712L192.2 149.239L195.254 146.899L196.578 149.179L193.058 150.659L196.578 152.139L195.254 154.419L192.2 152.078L192.712 155.868H190.124L190.636 152.078Z" fill="white"/>
<path d="M82.0032 14.6108H88.0658C89.5551 14.6108 90.6082 14.9883 91.3002 15.6828C91.7666 16.1509 92.0674 16.7851 92.0674 17.6307C92.0674 19.0048 91.2852 19.8202 90.2472 20.2731C91.6914 20.7412 92.594 21.5566 92.594 23.2025C92.594 25.2409 90.9392 26.4791 88.1109 26.4791H82.0032V14.5957V14.6108ZM87.2534 19.3521C88.2463 19.3521 88.8029 19.0199 88.8029 18.28C88.8029 17.6307 88.2915 17.2683 87.3136 17.2683H85.1774V19.3521H87.2384H87.2534ZM87.7348 23.8367C88.7277 23.8367 89.3144 23.4441 89.3144 22.7193C89.3144 22.07 88.8029 21.6472 87.7048 21.6472H85.2075V23.8367H87.7499H87.7348Z" fill="white"/>
<path d="M94.519 14.6108H97.7986V18.3404H99.5888C102.432 18.3404 104.508 19.6994 104.508 22.372C104.508 25.0446 102.643 26.4791 99.7543 26.4791H94.519V14.5957V14.6108ZM99.4985 23.731C100.582 23.731 101.229 23.2327 101.229 22.3116C101.229 21.4811 100.582 20.9375 99.5136 20.9375H97.7835V23.731H99.4985ZM105.892 14.6108H109.172V26.4942H105.892V14.6108Z" fill="white"/>
<path d="M111.701 14.6108H121.223V17.4042H114.98V18.7783H117.267C120.005 18.7783 122.021 20.0316 122.021 22.5985C122.021 25.1654 120.23 26.4791 117.432 26.4791H111.701V14.5957V14.6108ZM117.177 23.731C118.154 23.731 118.726 23.2931 118.726 22.4777C118.726 21.7529 118.154 21.2697 117.192 21.2697H114.98V23.731H117.177Z" fill="white"/>
<path d="M123.555 20.545C123.555 17.1324 126.293 14.3692 129.949 14.3692C133.604 14.3692 136.312 17.1022 136.312 20.545C136.312 23.9877 133.574 26.7207 129.919 26.7207C126.263 26.7207 123.555 23.9877 123.555 20.545ZM132.958 20.545C132.958 18.8236 131.724 17.3438 129.919 17.3438C128.113 17.3438 126.925 18.8085 126.925 20.545C126.925 22.2814 128.159 23.7461 129.949 23.7461C131.739 23.7461 132.958 22.2814 132.958 20.545Z" fill="white"/>
<path d="M138.432 14.6108H143.502C146.496 14.6108 148.421 16.151 148.421 18.8236C148.421 21.617 146.27 23.0968 143.336 23.0968H141.712V26.4942H138.432V14.6108ZM143.276 20.5148C144.45 20.5148 145.157 19.9108 145.157 18.9293C145.157 17.9176 144.45 17.374 143.261 17.374H141.727V20.5148H143.276Z" fill="white"/>
<path d="M46.0039 34.9802H56.6097V46.8637H53.3302V37.8643H49.2834V46.8637H46.0039V34.9802Z" fill="white"/>
<path d="M58.7168 40.9144C58.7168 37.5019 61.4548 34.7386 65.1104 34.7386C68.766 34.7386 71.4739 37.4717 71.4739 40.9144C71.4739 44.3571 68.7359 47.0901 65.0803 47.0901C61.4247 47.0901 58.7168 44.3571 58.7168 40.9144ZM68.1191 40.9144C68.1191 39.193 66.8856 37.7133 65.0803 37.7133C63.2751 37.7133 62.0866 39.1779 62.0866 40.9144C62.0866 42.6508 63.3202 44.1155 65.1104 44.1155C66.9006 44.1155 68.1191 42.6508 68.1191 40.9144Z" fill="white"/>
<path d="M73.6079 34.9802H76.8874V39.797L80.9643 34.9802H84.8606L80.3776 40.0839L85.0111 46.8486H81.0696L78.0909 42.4395L76.8874 43.7833V46.8486H73.6079V34.9651V34.9802Z" fill="white"/>
<path d="M86.3069 46.2295L87.5857 43.8588C88.037 44.1608 88.5635 44.2665 88.9246 44.2665C89.2104 44.2665 89.6015 44.1608 89.9626 43.7531L85.3291 34.9802H88.9847L91.6776 40.5671L94.22 34.9802H97.7853L93.1669 44.04C92.0837 46.154 90.9855 47.0298 89.1653 47.0298C88.037 47.0298 87.1193 46.7127 86.322 46.2295H86.3069Z" fill="white"/>
<path d="M99.2429 34.9802H109.849V46.8637H106.569V37.8643H102.522V46.8637H99.2429V34.9802Z" fill="white"/>
<path d="M116.453 34.8896H119.612L124.652 46.8486H121.131L120.274 44.7346H115.716L114.873 46.8486H111.428L116.468 34.8896H116.453ZM119.326 42.1828L118.002 38.8005L116.663 42.1828H119.311H119.326Z" fill="white"/>
<path d="M127.602 37.8643H124.051V34.9802H134.431V37.8643H130.881V46.8637H127.602V37.8643Z" fill="white"/>
<path d="M136.297 34.9802H145.82V37.7737H139.547V39.5705H145.233V42.1677H139.547V44.0551H145.91V46.8486H136.312V34.9651L136.297 34.9802Z" fill="white"/>
<path d="M146.706 46.7579L146.931 44.2363C147.082 44.2665 147.533 44.3118 147.698 44.3118C148.631 44.3118 149.504 43.8437 149.504 36.6412V34.9953H158.605V46.8787H155.326V37.8793H152.573V38.3323C152.573 45.5802 150.978 47.0448 148.691 47.0448C147.834 47.0448 146.976 46.8636 146.736 46.773L146.706 46.7579Z" fill="white"/>
<path d="M161.118 34.9802H170.641V37.7737H164.367V39.5705H170.054V42.1677H164.367V44.0551H170.731V46.8486H161.133V34.9651L161.118 34.9802Z" fill="white"/>
<path d="M172.822 34.9802H176.071V41.6694L180.66 34.9802H183.713V46.8637H180.464V40.1745L175.876 46.8637H172.822V34.9802ZM175.394 31.6281L177.184 31.311C177.41 31.915 177.741 32.3227 178.373 32.3227C179.005 32.3227 179.351 31.915 179.576 31.311L181.367 31.6281C181.111 33.274 180.013 34.2252 178.373 34.2252C176.733 34.2252 175.65 33.274 175.394 31.6281Z" fill="white"/>
</g>
<defs>
<linearGradient id="paint0_linear_514_1718" x1="14.4871" y1="196.411" x2="225.307" y2="-13.6286" gradientUnits="userSpaceOnUse">
<stop offset="0.09" stop-color="#ED1C24"/>
<stop offset="0.16" stop-color="#E91C24"/>
<stop offset="0.22" stop-color="#DD1C27"/>
<stop offset="0.29" stop-color="#C91C2C"/>
<stop offset="0.35" stop-color="#AE1D33"/>
<stop offset="0.37" stop-color="#A21E37"/>
<stop offset="0.53" stop-color="#B41D32"/>
<stop offset="0.84" stop-color="#E41C26"/>
<stop offset="0.89" stop-color="#ED1C24"/>
</linearGradient>
<clipPath id="clip0_514_1718">
<rect width="239" height="181.74" fill="white" transform="translate(0 0.130203)"/>
</clipPath>
</defs>
</svg>
