<svg width="42" height="42" viewBox="0 0 42 42" fill="none" xmlns="http://www.w3.org/2000/svg">
<path d="M21 0C16.8466 0 12.7865 1.23163 9.33303 3.53914C5.8796 5.84665 3.18798 9.1264 1.59854 12.9636C0.00909904 16.8009 -0.406771 21.0233 0.403519 25.0969C1.21381 29.1705 3.21386 32.9123 6.15077 35.8492C9.08767 38.7862 12.8295 40.7862 16.9031 41.5965C20.9767 42.4068 25.1991 41.9909 29.0364 40.4015C32.8736 38.812 36.1534 36.1204 38.4609 32.667C40.7684 29.2135 42 25.1534 42 21C42 15.4305 39.7875 10.089 35.8493 6.15076C31.911 2.21249 26.5696 0 21 0ZM21.0263 7.875C22.34 7.87925 23.6231 8.27293 24.7131 9.00626C25.8032 9.73959 26.6514 10.7796 27.1504 11.995C27.6495 13.2103 27.777 14.5462 27.5169 15.834C27.2567 17.1218 26.6207 18.3035 25.689 19.2298C24.7574 20.1562 23.572 20.7854 22.2827 21.0382C20.9935 21.2909 19.6583 21.1557 18.4458 20.6497C17.2334 20.1436 16.1983 19.2895 15.4712 18.1952C14.7441 17.101 14.3578 15.8157 14.3611 14.5019C14.3636 13.6292 14.538 12.7654 14.8743 11.9601C15.2107 11.1547 15.7023 10.4234 16.3212 9.80807C16.9401 9.1927 17.6742 8.70526 18.4815 8.37359C19.2888 8.04191 20.1535 7.87249 21.0263 7.875ZM28.4669 23.7706C27.6543 24.5911 26.6731 25.2253 25.5914 25.6295C24.5378 26.0081 23.4412 26.2542 22.3268 26.3622C22.4939 26.5435 22.5655 26.6342 22.68 26.7392C24.1906 28.2569 25.7083 29.7699 27.2141 31.2948C27.454 31.5129 27.6167 31.8029 27.6778 32.1213C27.7389 32.4397 27.6951 32.7693 27.553 33.0607C27.4075 33.3795 27.1717 33.6487 26.8748 33.8349C26.5779 34.0211 26.2329 34.1161 25.8825 34.1083C25.4728 34.0668 25.0936 33.8725 24.8206 33.5642C23.6799 32.4164 22.5177 31.29 21.4009 30.1207C21.0764 29.7794 20.9236 29.8439 20.6325 30.1398C19.4847 31.333 18.3177 32.4832 17.146 33.6406C16.9286 33.882 16.637 34.0441 16.3171 34.1011C15.9973 34.1582 15.6676 34.107 15.3801 33.9556C15.0682 33.8106 14.8049 33.5784 14.622 33.2871C14.439 32.9957 14.3443 32.6577 14.3492 32.3138C14.3843 31.8878 14.5827 31.4919 14.9029 31.2089C16.3999 29.715 17.893 28.2195 19.3821 26.7225C19.4823 26.6223 19.573 26.5173 19.7185 26.3645C17.683 26.1522 15.8478 25.6486 14.2776 24.422C14.0779 24.2729 13.8859 24.1136 13.7025 23.9448C13.0152 23.2861 12.946 22.5297 13.4901 21.7493C13.9555 21.0835 14.7358 20.9045 15.5496 21.2864C15.703 21.3651 15.8498 21.4561 15.9886 21.5584C17.444 22.5468 19.1591 23.0827 20.9183 23.0988C22.6774 23.115 24.4021 22.6106 25.8753 21.6491C26.1561 21.4194 26.481 21.2497 26.8299 21.1503C27.1541 21.0557 27.5008 21.0724 27.8144 21.1978C28.128 21.3233 28.3905 21.5502 28.56 21.8424C29.0015 22.5416 28.9967 23.2265 28.4669 23.7706ZM21.0167 17.7689C21.661 17.7655 22.2898 17.5709 22.8233 17.2096C23.3568 16.8484 23.7711 16.3369 24.0135 15.7399C24.2558 15.1429 24.3154 14.4874 24.1847 13.8565C24.054 13.2256 23.7389 12.6477 23.2793 12.1961C22.8197 11.7446 22.2363 11.4397 21.6032 11.3201C20.9701 11.2006 20.3157 11.2718 19.7231 11.5247C19.1305 11.7776 18.6264 12.2008 18.2746 12.7406C17.9229 13.2804 17.7394 13.9126 17.7474 14.5568C17.7499 14.9828 17.8366 15.404 18.0024 15.7963C18.1683 16.1886 18.4102 16.5443 18.714 16.8428C19.0178 17.1413 19.3777 17.3768 19.7729 17.5358C20.1681 17.6947 20.5908 17.7739 21.0167 17.7689Z" fill="#5EA616"/>
</svg>
