<svg width="12" height="18" viewBox="0 0 12 18" fill="none" xmlns="http://www.w3.org/2000/svg">
<path d="M6.04569 8.79286C7.19134 8.79286 8.22659 8.32355 8.97195 7.57819C9.71732 6.83282 10.1866 5.79759 10.1866 4.65194C10.1866 3.50628 9.71732 2.47105 8.97195 1.72569C8.22659 0.980321 7.19134 0.511017 6.04569 0.511017C4.90004 0.511017 3.86482 0.980321 3.11945 1.72569C2.37409 2.47105 1.90479 3.50628 1.90479 4.65194C1.90479 5.79759 2.37409 6.83282 3.11945 7.57819C3.86482 8.32355 4.91384 8.79286 6.04569 8.79286ZM4.7206 3.31304C5.06567 2.96796 5.53498 2.76092 6.04569 2.76092C6.57021 2.76092 7.03953 2.96796 7.3708 3.31304C7.71588 3.65812 7.92292 4.12742 7.92292 4.63813C7.92292 5.16265 7.71588 5.63195 7.3708 5.96323C7.02572 6.3083 6.5564 6.51535 6.04569 6.51535C5.52117 6.51535 5.05187 6.3083 4.7206 5.96323C4.37552 5.61815 4.16847 5.14885 4.16847 4.63813C4.16847 4.12742 4.38932 3.65812 4.7206 3.31304Z" fill="white"/>
<path d="M11.622 10.463L10.4073 8.80666C10.3383 8.71004 10.2003 8.69624 10.1175 8.77905C8.97181 9.75907 7.5639 10.394 6.04557 10.394C4.52723 10.394 3.11932 9.75907 1.97366 8.77905C1.89084 8.71004 1.75281 8.72384 1.6838 8.80666L0.469127 10.463C0.413915 10.5458 0.427718 10.6563 0.496733 10.7253C1.51816 11.5535 2.70522 12.1194 3.9475 12.4093L1.38013 16.9367C1.31111 17.0609 1.40774 17.2265 1.54577 17.2265H4.05792C4.14074 17.2265 4.20976 17.1851 4.23736 17.1023L6.03176 13.0994L7.82616 17.1023C7.85377 17.1713 7.92278 17.2265 8.0056 17.2265H10.5178C10.6696 17.2265 10.7524 17.0747 10.6834 16.9367L8.11602 12.4093C9.3583 12.1194 10.5454 11.5673 11.5668 10.7253C11.6772 10.6563 11.691 10.5458 11.622 10.463Z" fill="white"/>
</svg>
