<svg width="109" height="25" viewBox="0 0 109 25" fill="none" xmlns="http://www.w3.org/2000/svg">
<path d="M66.3323 0.195068C57.1201 0.195068 49.6543 5.53739 49.6543 12.135C49.6543 18.7327 57.1201 24.075 66.3323 24.075C75.5446 24.075 83.0104 18.7327 83.0104 12.135C83.0104 5.53739 75.5446 0.195068 66.3323 0.195068ZM66.3323 18.5137C59.9726 18.5137 55.2136 15.1565 55.2136 12.1496C55.2136 9.14275 59.9726 5.78553 66.3323 5.78553C72.6921 5.78553 77.451 9.14275 77.451 12.1496C77.451 15.1565 72.7067 18.5137 66.3323 18.5137Z" fill="#005BFF"/>
<path d="M11.7576 0.195068C5.26867 0.195068 0.0143561 5.53413 0 12.1277C0 18.7213 5.25432 24.0604 11.7433 24.075C18.2322 24.075 23.4865 18.7359 23.5009 12.1423C23.5009 5.53414 18.2465 0.195068 11.7576 0.195068ZM18.0168 12.1277C18.0168 15.6433 15.2174 18.4879 11.7576 18.5025C8.2978 18.5025 5.48402 15.6579 5.48402 12.1423C5.48402 8.62671 8.28345 5.76753 11.7433 5.76753C15.2031 5.76753 18.0168 8.61211 18.0168 12.1277Z" fill="#005BFF"/>
<path d="M45.3892 18.1483H36.0446L47.9665 2.23417C48.3553 1.71001 47.9953 0.952881 47.333 0.952881H30.1989C28.4999 0.952881 27.0456 2.52536 27.4056 4.30169C27.6648 5.61209 28.8742 6.50025 30.1989 6.50025H37.8732L25.937 22.4289C25.5482 22.9531 25.9082 23.6957 26.5561 23.6957H45.2884C46.6131 23.6957 47.8225 22.8075 48.0817 21.4971C48.4416 19.7062 47.0882 18.1483 45.3892 18.1483Z" fill="#005BFF"/>
<path d="M108.787 3.73362V22.8944C108.787 23.069 108.729 23.2435 108.612 23.389C108.334 23.7382 107.823 23.7964 107.472 23.52L92.3866 11.6045V20.9157C92.3866 22.487 91.0857 23.7382 89.507 23.6946C87.9868 23.6509 86.8027 22.3561 86.8027 20.843V1.75499C86.8027 1.56586 86.8612 1.39127 86.9781 1.24579C87.2559 0.911164 87.7675 0.85298 88.1037 1.12941L103.189 13.0448V3.80637C103.189 2.29329 104.373 1.01301 105.879 0.95481C107.472 0.896615 108.787 2.16236 108.787 3.73362Z" fill="#005BFF"/>
</svg>
