<svg width="249" height="55" viewBox="0 0 249 55" fill="none" xmlns="http://www.w3.org/2000/svg">
<path d="M151.795 0C130.794 0 113.774 12.1787 113.774 27.2191C113.774 42.2595 130.794 54.4382 151.795 54.4382C172.796 54.4382 189.815 42.2595 189.815 27.2191C189.815 12.1787 172.796 0 151.795 0ZM151.795 41.7604C137.297 41.7604 126.448 34.1071 126.448 27.2524C126.448 20.3977 137.297 12.7444 151.795 12.7444C166.293 12.7444 177.142 20.3977 177.142 27.2524C177.142 34.1071 166.326 41.7604 151.795 41.7604Z" fill="#005BFF"/>
<path d="M27.3816 0C12.5889 0 0.610852 12.1713 0.578125 27.2025C0.578125 42.2337 12.5562 54.405 27.3488 54.4382C42.1414 54.4382 54.1195 42.267 54.1523 27.2358C54.1523 12.1713 42.1742 0 27.3816 0ZM41.6505 27.2025C41.6505 35.2169 35.2688 41.7016 27.3816 41.7349C19.4943 41.7349 13.0799 35.2502 13.0799 27.2358C13.0799 19.2213 19.4616 12.7034 27.3488 12.7034C35.236 12.7034 41.6505 19.188 41.6505 27.2025Z" fill="#005BFF"/>
<path d="M104.047 40.9273H82.7442L109.922 4.64845C110.808 3.45354 109.988 1.72754 108.478 1.72754H69.4178C65.5447 1.72754 62.2295 5.31228 63.0501 9.3617C63.6409 12.349 66.3981 14.3737 69.4178 14.3737H86.9127L59.7021 50.6857C58.8158 51.8807 59.6364 53.5735 61.1135 53.5735H103.817C106.837 53.5735 109.594 51.5487 110.185 48.5615C111.005 44.4788 107.92 40.9273 104.047 40.9273Z" fill="#005BFF"/>
<path d="M248.575 8.0667V51.7468C248.575 52.1448 248.441 52.5428 248.175 52.8745C247.542 53.6705 246.375 53.8031 245.576 53.1729L211.186 26.0097V47.2362C211.186 50.8182 208.221 53.6705 204.622 53.571C201.156 53.4715 198.457 50.5197 198.457 47.0704V3.55609C198.457 3.12492 198.59 2.72693 198.857 2.39526C199.49 1.63244 200.656 1.4998 201.423 2.12996L235.812 29.2932V8.23253C235.812 4.78323 238.511 1.8646 241.944 1.73194C245.576 1.59927 248.575 4.48474 248.575 8.0667Z" fill="#005BFF"/>
</svg>
