<svg width="87" height="87" viewBox="0 0 87 87" fill="none" xmlns="http://www.w3.org/2000/svg">
<path d="M55.1197 73.9029C54.6858 73.8618 54.2557 73.7865 53.8336 73.6777C53.7704 73.6603 53.7043 73.6556 53.6393 73.664C53.5742 73.6724 53.5115 73.6937 53.4547 73.7266C53.3979 73.7595 53.3483 73.8033 53.3087 73.8556C53.269 73.9078 53.2402 73.9674 53.2238 74.031C53.2074 74.0945 53.2038 74.1606 53.2133 74.2255C53.2227 74.2904 53.245 74.3528 53.2787 74.4091C53.3125 74.4653 53.3572 74.5142 53.41 74.553C53.4629 74.5918 53.523 74.6197 53.5868 74.6351C54.0595 74.7572 54.5412 74.8417 55.0273 74.8878C55.0593 74.8909 55.0915 74.8908 55.1234 74.8876C55.2456 74.8752 55.3588 74.8177 55.441 74.7265C55.5231 74.6352 55.5684 74.5166 55.5679 74.3938C55.5675 74.271 55.5213 74.1528 55.4385 74.0621C55.3557 73.9715 55.242 73.9149 55.1198 73.9034L55.1197 73.9029Z" fill="#AA0F2E"/>
<path d="M41.0142 36.8608C41.15 36.8471 41.2491 36.7259 41.2354 36.5901C41.2218 36.4542 41.1006 36.3552 40.9647 36.3688C40.8289 36.3825 40.7298 36.5037 40.7435 36.6395C40.7571 36.7754 40.8783 36.8744 41.0142 36.8608Z" fill="#AA0F2E"/>
<path d="M20.6948 44.6372C19.1409 43.1227 17.9923 41.2422 17.3545 39.1682C16.7167 37.0942 16.61 34.8932 17.0443 32.7673L15.6531 33.5532C13.2665 34.8997 11.9712 37.7479 12.3993 40.4542C12.8394 43.2363 15.1738 45.5254 17.9734 45.8337C18.4923 45.8932 19.0177 45.8137 19.4959 45.6035C19.974 45.3932 20.3878 45.0598 20.6948 44.6372Z" fill="#AA0F2E"/>
<path d="M48.0789 37.8911C48.2147 37.8774 48.3138 37.7562 48.3001 37.6203C48.2865 37.4845 48.1653 37.3854 48.0294 37.3991C47.8936 37.4128 47.7945 37.534 47.8082 37.6698C47.8218 37.8057 47.943 37.9047 48.0789 37.8911Z" fill="#AA0F2E"/>
<path d="M34.1722 38.0454C34.308 38.0317 34.4071 37.9105 34.3934 37.7746C34.3797 37.6388 34.2585 37.5397 34.1227 37.5534C33.9868 37.5671 33.8878 37.6883 33.9014 37.8241C33.9151 37.96 34.0363 38.059 34.1722 38.0454Z" fill="#AA0F2E"/>
<path d="M18.7799 46.8205C18.4757 46.8509 18.1691 46.8496 17.8652 46.8165C16.0378 46.6135 14.3518 45.7362 13.1369 44.3561C12.4217 45.1974 11.9501 46.2182 11.773 47.3081C11.596 48.3981 11.7202 49.5157 12.1324 50.5401L12.4679 48.6379C12.5742 48.1086 12.8861 47.643 13.3352 47.3433C13.5693 47.1874 13.8328 47.0809 14.1095 47.0304C14.3862 46.98 14.6703 46.9865 14.9444 47.0498C15.2136 47.1225 15.4648 47.2499 15.6826 47.4241C15.9003 47.5982 16.0798 47.8154 16.2099 48.062C16.5237 48.6531 16.6922 49.3105 16.7015 49.9797C16.7108 50.649 16.5605 51.3108 16.2631 51.9104C17.0444 51.3114 17.6776 50.5409 18.114 49.6584C18.5504 48.7759 18.7782 47.805 18.7799 46.8205Z" fill="#AA0F2E"/>
<path d="M56.8333 45.8364C56.9691 45.8227 57.0682 45.7015 57.0545 45.5657C57.0409 45.4298 56.9197 45.3307 56.7838 45.3444C56.648 45.3581 56.5489 45.4793 56.5626 45.6151C56.5762 45.751 56.6974 45.85 56.8333 45.8364Z" fill="#AA0F2E"/>
<path d="M54.8775 42.7004C56.747 41.9054 58.4404 40.7477 59.8598 39.2944C61.2792 37.841 62.3966 36.1208 63.1473 34.2331L63.3129 33.8198C63.0082 31.8705 61.9755 30.1093 60.4232 28.8916C58.8709 27.674 56.9144 27.0904 54.9487 27.2587C54.9835 31.5119 53.7413 35.7485 51.3304 39.2531C51.2545 39.357 51.141 39.4272 51.0141 39.4488C50.8872 39.4703 50.7569 39.4416 50.6509 39.3686C50.5448 39.2956 50.4715 39.1841 50.4463 39.0579C50.4212 38.9316 50.4463 38.8005 50.5162 38.6925C52.8054 35.3759 54.0131 31.4326 53.9739 27.4029L53.9705 26.975C52.9352 25.6052 51.4121 24.6866 49.7174 24.4099C48.0228 24.1332 46.2867 24.5197 44.8694 25.489L44.431 25.7885C45.4405 27.6031 46.0258 29.6227 46.1431 31.6959C46.2604 33.769 45.9065 35.8418 45.1082 37.7586C45.0835 37.8191 45.0471 37.8741 45.0011 37.9205C44.955 37.9668 44.9003 38.0035 44.8399 38.0286C44.7796 38.0536 44.7149 38.0665 44.6496 38.0664C44.5843 38.0663 44.5196 38.0533 44.4594 38.028C44.3991 38.0028 44.3445 37.9659 44.2986 37.9194C44.2527 37.873 44.2164 37.8179 44.1919 37.7573C44.1674 37.6967 44.1552 37.6319 44.1559 37.5666C44.1566 37.5013 44.1703 37.4368 44.196 37.3768C44.9604 35.5418 45.2852 33.5536 45.1446 31.5707C45.004 29.5879 44.4018 27.6654 43.3861 25.9567C42.1244 24.7986 40.4757 24.1533 38.7631 24.1472C37.0505 24.1412 35.3973 24.7747 34.1274 25.9238L33.9486 26.0855C35.4305 27.7105 36.5247 29.6502 37.149 31.7589C37.7733 33.8676 37.9114 36.0903 37.553 38.2601L37.5274 38.4144C37.5058 38.5437 37.4337 38.6592 37.327 38.7354C37.2203 38.8117 37.0876 38.8423 36.9582 38.8208C36.8289 38.7992 36.7134 38.7271 36.6372 38.6203C36.561 38.5136 36.5303 38.3809 36.5519 38.2516L36.5776 38.0972C36.9237 36.0033 36.7732 33.8574 36.1383 31.8323C35.5034 29.8072 34.4018 27.9594 32.9223 26.4379C32.3352 26.0316 31.669 25.7534 30.9673 25.6216C30.2656 25.4898 29.5439 25.5073 28.8494 25.6729C28.1349 25.8521 27.4656 26.1781 26.8841 26.6301C26.3025 27.0822 25.8214 27.6503 25.4715 28.2985C27.1696 29.547 28.6032 31.1199 29.6895 32.9261C30.7758 34.7323 31.4931 36.7359 31.7999 38.8212L31.8588 39.2241C31.8682 39.2883 31.8649 39.3538 31.8489 39.4168C31.833 39.4797 31.8048 39.5389 31.766 39.591C31.7272 39.643 31.6786 39.6869 31.6228 39.7202C31.567 39.7534 31.5053 39.7754 31.441 39.7848C31.4335 39.7855 31.426 39.7863 31.4186 39.787C31.292 39.7997 31.1654 39.763 31.0651 39.6847C30.9649 39.6063 30.8987 39.4924 30.8803 39.3665L30.8214 38.9635C30.5258 36.9602 29.8228 35.0387 28.7557 33.3177C27.6886 31.5967 26.2801 30.1127 24.6171 28.9572C22.0611 28.2667 19.3318 29.6153 18.2428 32.022C17.6374 34.1603 17.6328 36.4241 18.2294 38.5649C18.8259 40.7057 20.0007 42.6408 21.6246 44.1578C22.451 44.6702 23.3781 44.9984 24.3427 45.1203C24.8371 46.9481 24.6921 48.1809 24.5507 49.374C24.3768 50.8398 24.2127 52.2244 25.2635 54.3258C25.2918 54.3851 25.3316 54.4381 25.3806 54.4818C25.4297 54.5256 25.4869 54.559 25.549 54.5804C25.6112 54.6017 25.6769 54.6105 25.7425 54.6061C25.808 54.6017 25.872 54.5843 25.9308 54.555C25.9895 54.5256 26.0418 54.4848 26.0846 54.435C26.1274 54.3851 26.1599 54.3273 26.1801 54.2648C26.2003 54.2023 26.2078 54.1364 26.2023 54.0709C26.1967 54.0055 26.1782 53.9418 26.1478 53.8836C25.2301 52.0469 25.37 50.8622 25.5321 49.4905C25.6701 48.3261 25.8225 47.02 25.3759 45.1735C26.4955 45.1484 27.5919 44.8485 28.5684 44.3001C29.5449 43.7517 30.3716 42.9716 30.9758 42.0286L31.2165 41.6513C31.2544 41.5929 31.3041 41.5431 31.3625 41.5051C31.4209 41.4671 31.4866 41.4418 31.5554 41.4308C31.6241 41.4197 31.6944 41.4233 31.7618 41.4412C31.8291 41.459 31.8919 41.4908 31.9462 41.5345C32.4578 41.9523 33.0882 42.198 33.7476 42.2368C34.0673 43.7785 33.9523 44.9899 33.8403 46.1635C33.6826 47.8083 33.5345 49.3622 34.5865 51.4661C34.615 51.525 34.6549 51.5778 34.7039 51.6212C34.7529 51.6646 34.8101 51.6979 34.8721 51.719C34.9341 51.7401 34.9997 51.7487 35.065 51.7443C35.1304 51.7399 35.1942 51.7226 35.2528 51.6933C35.3114 51.664 35.3635 51.6234 35.4063 51.5737C35.449 51.5241 35.4815 51.4665 35.5018 51.4042C35.5221 51.342 35.5298 51.2763 35.5245 51.211C35.5192 51.1457 35.501 51.0821 35.4709 51.0239C34.5458 49.1733 34.675 47.8222 34.8246 46.2578C34.9361 45.0901 35.06 43.7799 34.7357 42.1376C35.489 41.9375 36.1411 41.4646 36.5652 40.8107L36.5785 40.7901C36.6163 40.7317 36.6659 40.6819 36.7242 40.644C36.7826 40.6061 36.8482 40.5809 36.9169 40.5701C36.9857 40.5593 37.0559 40.5631 37.123 40.5813C37.1901 40.5995 37.2527 40.6316 37.3066 40.6756C37.772 41.0563 38.3098 41.3388 38.8875 41.5059C39.4652 41.673 40.0707 41.7214 40.6675 41.648C41.1334 43.4274 40.9908 44.6396 40.8517 45.8135C40.6779 47.2794 40.5138 48.664 41.5644 50.7652C41.623 50.8825 41.7258 50.9717 41.8502 51.0132C41.9746 51.0547 42.1104 51.0451 42.2277 50.9864C42.345 50.9278 42.4342 50.825 42.4757 50.7006C42.5172 50.5762 42.5076 50.4404 42.4489 50.3231C41.5305 48.4865 41.6709 47.3018 41.8333 45.93C41.9762 44.7256 42.1351 43.3713 41.6302 41.4232C42.3969 41.1517 43.0742 40.6748 43.5882 40.0444C43.9108 39.5111 44.509 39.218 44.7812 39.9703C45.0934 40.6637 45.6592 41.2114 46.3624 41.5009C46.6239 43.4388 46.3051 44.663 45.9948 45.8464C45.6203 47.2741 45.2665 48.6227 46.0167 50.849C46.0525 50.9552 46.1232 51.046 46.2173 51.1067C46.3114 51.1674 46.4234 51.1944 46.5348 51.1832C46.5721 51.1795 46.6088 51.1716 46.6443 51.1597C46.7685 51.1179 46.8711 51.0283 46.9293 50.9109C46.9875 50.7934 46.9967 50.6576 46.9549 50.5333C46.2996 48.5874 46.6018 47.4334 46.9525 46.0973C47.254 44.9474 47.5903 43.656 47.3859 41.7227C47.9475 41.7434 48.5035 41.6046 48.9895 41.3225C49.0612 41.2818 49.1418 41.2596 49.2242 41.2578C49.3066 41.2559 49.3881 41.2746 49.4615 41.3121C49.5349 41.3495 49.5979 41.4046 49.6448 41.4724C49.6916 41.5402 49.7209 41.6186 49.73 41.7005C49.8023 42.4108 50.1533 43.0635 50.7062 43.5154C51.2591 43.9673 51.9686 44.1814 52.6792 44.1107C52.763 44.1023 52.8477 44.1154 52.925 44.1489C53.0024 44.1824 53.0699 44.2351 53.1211 44.302C53.1724 44.3689 53.2057 44.4478 53.2179 44.5312C53.2301 44.6146 53.2208 44.6997 53.1908 44.7785C53.0808 45.0677 53.0288 45.3759 53.0379 45.6852C53.0469 45.9946 53.1168 46.2991 53.2435 46.5814C53.3703 46.8638 53.5514 47.1184 53.7765 47.3307C54.0017 47.5431 54.2665 47.709 54.5557 47.819C54.6354 47.8493 54.7059 47.8997 54.7604 47.9653C54.8149 48.0309 54.8514 48.1095 54.8666 48.1934C54.8817 48.2773 54.8749 48.3637 54.8468 48.4442C54.8187 48.5247 54.7702 48.5965 54.7061 48.6528C54.1867 49.1052 53.827 49.7132 53.6806 50.3863C53.5341 51.0595 53.6087 51.7619 53.8933 52.3893C54.0617 52.6727 54.1536 53.0852 53.8063 53.2765C52.9968 53.7453 52.3901 54.4979 52.1038 55.3885C51.8175 56.2791 51.872 57.2443 52.2568 58.097C52.3932 58.3291 52.4367 58.6392 52.2104 58.8317C52.2104 58.8317 51.7789 59.2202 51.1848 59.7509C49.2242 61.5034 48.3139 64.2549 48.793 66.8392C48.9761 67.7522 49.3589 68.6135 49.914 69.3612C50.469 70.1089 51.1827 70.7245 52.0037 71.1639C53.9935 72.2225 56.5181 72.2133 58.4597 71.0685L59.0813 70.702C60.08 70.1106 60.9022 69.2625 61.4625 68.2459C62.0228 67.2293 62.3007 66.0812 62.2674 64.9209L62.2116 64.9215C60.5235 64.9446 58.8572 64.5378 57.3695 63.7395C55.8818 62.9411 54.6217 61.7774 53.7077 60.3579C53.6384 60.2479 53.6152 60.115 53.6432 59.988C53.6712 59.861 53.7481 59.7501 53.8572 59.6794C53.9664 59.6087 54.099 59.5838 54.2263 59.6102C54.3537 59.6366 54.4655 59.712 54.5376 59.8203C55.3613 61.0992 56.4967 62.1476 57.8371 62.8669C59.1776 63.5862 60.6789 63.9528 62.2 63.9321L62.613 63.9278L63.0317 63.7242C64.3239 63.0897 65.3576 62.0289 65.9585 60.7207C66.5593 59.4125 66.6904 57.937 66.3296 56.5434C62.8711 56.8565 59.3949 56.1795 56.3066 54.5916C56.2488 54.5619 56.1975 54.5211 56.1554 54.4716C56.1134 54.4221 56.0816 54.3648 56.0617 54.303C56.0419 54.2411 56.0344 54.176 56.0397 54.1113C56.045 54.0466 56.063 53.9835 56.0927 53.9258C56.1224 53.868 56.1632 53.8166 56.2127 53.7746C56.2622 53.7326 56.3195 53.7008 56.3813 53.6809C56.4432 53.6611 56.5083 53.6536 56.573 53.6589C56.6377 53.6642 56.7008 53.6822 56.7585 53.7119C59.7661 55.2424 63.1504 55.8753 66.5078 55.5352L67.1024 55.1028C68.6429 53.984 69.7159 52.3356 70.1154 50.4741C70.5148 48.6126 70.2127 46.6691 69.2669 45.0168C66.983 47.3044 63.9772 48.7304 60.7607 49.0524C59.4061 49.1894 58.0386 49.1251 56.7028 48.8616L56.6394 48.8491C56.5749 48.8374 56.5134 48.813 56.4584 48.7773C56.4034 48.7416 56.356 48.6953 56.3191 48.6412C56.2821 48.587 56.2563 48.526 56.2431 48.4618C56.23 48.3975 56.2297 48.3313 56.2424 48.267C56.2551 48.2026 56.2804 48.1415 56.317 48.087C56.3535 48.0326 56.4006 47.9859 56.4553 47.9498C56.51 47.9137 56.5714 47.8889 56.6358 47.8767C56.7003 47.8645 56.7665 47.8653 56.8306 47.879L56.894 47.8915C59.0708 48.3156 61.3199 48.1748 63.4268 47.4826C65.5337 46.7903 67.428 45.5697 68.929 43.9373C69.3554 43.008 69.5667 41.9947 69.5472 40.9725C69.5278 39.9503 69.2782 38.9457 68.8168 38.0334C68.3555 37.121 67.6944 36.3244 66.8827 35.7029C66.071 35.0814 65.1296 34.6508 64.1285 34.4434C62.4939 38.5217 59.3058 41.8788 55.2668 43.6089C55.1463 43.6606 55.0101 43.6623 54.8884 43.6135C54.7666 43.5648 54.6692 43.4698 54.6175 43.3492C54.5659 43.2287 54.5642 43.0926 54.6129 42.9708C54.6616 42.849 54.7567 42.7516 54.8772 42.7L54.8775 42.7004ZM34.271 39.0304C34.0277 39.0548 33.7827 39.0066 33.5668 38.8918C33.351 38.777 33.174 38.6008 33.0584 38.3854C32.9427 38.17 32.8935 37.9252 32.9169 37.6818C32.9404 37.4385 33.0355 37.2076 33.1902 37.0183C33.3449 36.829 33.5523 36.6898 33.7861 36.6183C34.0199 36.5469 34.2696 36.5464 34.5037 36.6169C34.7378 36.6874 34.9458 36.8257 35.1012 37.0144C35.2567 37.203 35.3528 37.4336 35.3772 37.6768C35.4096 38.0029 35.3114 38.3285 35.1041 38.5822C34.8968 38.8359 34.5973 38.9971 34.2713 39.0303L34.271 39.0304ZM41.1129 37.8455C40.8696 37.87 40.6246 37.8218 40.4087 37.707C40.1929 37.5922 40.0159 37.4159 39.9003 37.2005C39.7846 36.9852 39.7354 36.7403 39.7588 36.497C39.7823 36.2536 39.8774 36.0227 40.0321 35.8334C40.1868 35.6441 40.3942 35.5049 40.628 35.4335C40.8618 35.3621 41.1115 35.3615 41.3456 35.432C41.5797 35.5025 41.7877 35.6409 41.9431 35.8295C42.0986 36.0182 42.1947 36.2487 42.2191 36.492C42.2514 36.818 42.1532 37.1435 41.9459 37.3972C41.7386 37.6509 41.4391 37.812 41.1132 37.8452L41.1129 37.8455ZM48.1782 38.8752C47.9349 38.8996 47.6899 38.8514 47.474 38.7366C47.2582 38.6218 47.0812 38.4455 46.9656 38.2302C46.8499 38.0148 46.8006 37.77 46.8241 37.5266C46.8476 37.2833 46.9427 37.0523 47.0974 36.863C47.2521 36.6737 47.4595 36.5346 47.6933 36.4631C47.9271 36.3917 48.1768 36.3912 48.4109 36.4617C48.645 36.5322 48.8529 36.6705 49.0084 36.8592C49.1639 37.0478 49.2599 37.2784 49.2844 37.5216C49.3168 37.8477 49.2186 38.1734 49.0112 38.4271C48.8038 38.6809 48.5042 38.842 48.1782 38.8752ZM56.6851 44.3608C56.9284 44.3364 57.1734 44.3846 57.3892 44.4994C57.6051 44.6142 57.782 44.7904 57.8977 45.0058C58.0134 45.2212 58.0626 45.466 58.0392 45.7094C58.0157 45.9527 57.9206 46.1836 57.7659 46.3729C57.6112 46.5622 57.4038 46.7014 57.17 46.7728C56.9362 46.8443 56.6864 46.8448 56.4523 46.7743C56.2183 46.7038 56.0103 46.5655 55.8548 46.3768C55.6994 46.1882 55.6033 45.9576 55.5789 45.7144C55.5465 45.3883 55.6447 45.0626 55.8521 44.8089C56.0595 44.5551 56.3591 44.394 56.6851 44.3608ZM53.3609 42.2075C53.1177 42.232 52.8726 42.1838 52.6568 42.069C52.4409 41.9541 52.264 41.7779 52.1483 41.5625C52.0326 41.3472 51.9834 41.1023 52.0069 40.859C52.0303 40.6156 52.1254 40.3847 52.2801 40.1954C52.4349 40.0061 52.6422 39.8669 52.876 39.7955C53.1098 39.724 53.3596 39.7235 53.5937 39.794C53.8278 39.8645 54.0357 40.0028 54.1912 40.1915C54.3467 40.3802 54.4427 40.6107 54.4671 40.854C54.4996 41.1801 54.4013 41.5057 54.1939 41.7595C53.9865 42.0133 53.687 42.1744 53.3609 42.2075Z" fill="#AA0F2E"/>
<path d="M53.2618 41.2231C53.3976 41.2094 53.4967 41.0882 53.483 40.9524C53.4693 40.8165 53.3481 40.7175 53.2123 40.7311C53.0764 40.7448 52.9774 40.866 52.991 41.0018C53.0047 41.1377 53.1259 41.2367 53.2618 41.2231Z" fill="#AA0F2E"/>
<path d="M64.3952 67.4454C64.2683 67.4127 64.1335 67.4317 64.0206 67.4984C63.9076 67.565 63.8258 67.6738 63.793 67.8007C63.3919 69.3696 62.5329 70.7835 61.3254 71.8623C60.1179 72.9412 58.6166 73.6363 57.0127 73.8589C56.8824 73.8746 56.7638 73.9413 56.6828 74.0445C56.6018 74.1476 56.5651 74.2787 56.5807 74.409C56.5964 74.5392 56.6631 74.6579 56.7663 74.7389C56.8694 74.8199 57.0005 74.8566 57.1308 74.8409L57.1508 74.8389C58.9486 74.5893 60.6314 73.8101 61.9849 72.6008C63.3383 71.3914 64.3011 69.8065 64.7506 68.048C64.7669 67.9851 64.7706 67.9196 64.7616 67.8552C64.7525 67.7909 64.7308 67.729 64.6978 67.673C64.6648 67.6171 64.6211 67.5682 64.5692 67.5291C64.5173 67.49 64.4582 67.4616 64.3952 67.4454Z" fill="#AA0F2E"/>
<path d="M43.5001 0.171875C19.6089 0.171875 0.171875 19.6089 0.171875 43.5001C0.171875 67.3913 19.6089 86.8283 43.5001 86.8283C67.3913 86.8283 86.8283 67.3913 86.8283 43.5001C86.8283 19.6089 67.3913 0.171875 43.5001 0.171875ZM68.8654 73.0505C61.7981 79.1254 52.7898 82.4713 43.5001 82.4713C22.0114 82.4713 4.52889 64.9888 4.52889 43.5001C4.52889 34.2107 7.87479 25.2025 13.95 18.1351C14.0821 17.9818 14.2715 17.8903 14.4735 17.8827C14.4827 17.8824 14.4922 17.8821 14.5014 17.8821C14.6967 17.8821 14.8779 17.9581 15.0144 18.0949L68.9056 71.9862C69.0488 72.129 69.1254 72.325 69.1178 72.527C69.1102 72.7291 69.0187 72.9188 68.8654 73.0505ZM73.0502 68.8654C72.9181 69.0187 72.7288 69.1102 72.5267 69.1178C72.5175 69.1181 72.5084 69.1181 72.4992 69.1181C72.307 69.1181 72.122 69.0421 71.9859 68.9053L18.0946 15.0144C17.9514 14.8715 17.8748 14.6755 17.8824 14.4735C17.89 14.2718 17.9815 14.0821 18.1348 13.95C25.2025 7.87448 34.211 4.52889 43.5001 4.52889C64.9888 4.52889 82.4713 22.0114 82.4713 43.5001C82.4713 52.7902 79.1257 61.7981 73.0502 68.8654Z" fill="#AA0F2E"/>
</svg>
