<svg width="101" height="97" viewBox="0 0 101 97" fill="none" xmlns="http://www.w3.org/2000/svg">
<g opacity="0.5">
<path d="M84.7357 84.8476C89.1591 85.3794 94.2946 83.9326 98.3806 76.8554C102.467 69.7782 99.9555 61.4657 96.779 58.7739C96.779 58.7739 78.6398 44.012 74.1243 41.405C69.6088 38.798 63.2752 36.6433 54.4202 39.0362C48.3513 41.2644 42.6712 45.9783 39.1814 54.2576C35.6916 62.5369 32.7778 78.0115 32.7778 78.0115C30.8027 88.8809 37.9147 95.1838 43.7037 96.3293C52.233 98.0171 56.0194 95.5611 62.4213 89.9791C68.853 85.5429 76.2911 83.8324 84.7357 84.8476Z" fill="#1687DD"/>
<path d="M84.7357 84.8476C89.1591 85.3794 94.2946 83.9326 98.3806 76.8554C102.467 69.7782 99.9555 61.4657 96.779 58.7739C96.779 58.7739 78.6398 44.012 74.1243 41.405C69.6088 38.798 63.2752 36.6433 54.4202 39.0362C48.3513 41.2644 42.6712 45.9783 39.1814 54.2576C35.6916 62.5369 32.7778 78.0115 32.7778 78.0115C30.8027 88.8809 37.9147 95.1838 43.7037 96.3293C52.233 98.0171 56.0194 95.5611 62.4213 89.9791C68.853 85.5429 76.2911 83.8324 84.7357 84.8476Z" fill="url(#paint0_linear_514_1240)"/>
<path d="M84.7357 84.8476C89.1591 85.3794 94.2946 83.9326 98.3806 76.8554C102.467 69.7782 99.9555 61.4657 96.779 58.7739C96.779 58.7739 78.6398 44.012 74.1243 41.405C69.6088 38.798 63.2752 36.6433 54.4202 39.0362C48.3513 41.2644 42.6712 45.9783 39.1814 54.2576C35.6916 62.5369 32.7778 78.0115 32.7778 78.0115C30.8027 88.8809 37.9147 95.1838 43.7037 96.3293C52.233 98.0171 56.0194 95.5611 62.4213 89.9791C68.853 85.5429 76.2911 83.8324 84.7357 84.8476Z" fill="#EBEBEB"/>
<path d="M10.6927 74.9381C18.7596 78.0271 27.3764 75.0935 29.9389 68.3855C32.5013 61.6776 28.0391 53.7356 19.9721 50.6465C11.9052 47.5574 3.28843 50.4911 0.725966 57.199C-1.83649 63.9069 2.62575 71.849 10.6927 74.9381Z" fill="#1687DD"/>
<path d="M10.6927 74.9381C18.7596 78.0271 27.3764 75.0935 29.9389 68.3855C32.5013 61.6776 28.0391 53.7356 19.9721 50.6465C11.9052 47.5574 3.28843 50.4911 0.725966 57.199C-1.83649 63.9069 2.62575 71.849 10.6927 74.9381Z" fill="url(#paint1_linear_514_1240)"/>
<path d="M10.6927 74.9381C18.7596 78.0271 27.3764 75.0935 29.9389 68.3855C32.5013 61.6776 28.0391 53.7356 19.9721 50.6465C11.9052 47.5574 3.28843 50.4911 0.725966 57.199C-1.83649 63.9069 2.62575 71.849 10.6927 74.9381Z" fill="#EBEBEB"/>
<path d="M17.3668 44.0269C24.3135 50.2853 34.25 50.5905 39.5605 44.7085C44.871 38.8264 43.5446 28.9846 36.5978 22.7262C29.6511 16.4678 19.7146 16.1626 14.4041 22.0446C9.09355 27.9267 10.42 37.7685 17.3668 44.0269Z" fill="#1687DD"/>
<path d="M17.3668 44.0269C24.3135 50.2853 34.25 50.5905 39.5605 44.7085C44.871 38.8264 43.5446 28.9846 36.5978 22.7262C29.6511 16.4678 19.7146 16.1626 14.4041 22.0446C9.09355 27.9267 10.42 37.7685 17.3668 44.0269Z" fill="url(#paint2_linear_514_1240)"/>
<path d="M17.3668 44.0269C24.3135 50.2853 34.25 50.5905 39.5605 44.7085C44.871 38.8264 43.5446 28.9846 36.5978 22.7262C29.6511 16.4678 19.7146 16.1626 14.4041 22.0446C9.09355 27.9267 10.42 37.7685 17.3668 44.0269Z" fill="#EBEBEB"/>
<path d="M42.2571 19.5096C43.7004 28.7338 51.2292 35.2332 59.0732 34.0262C66.9171 32.8193 72.1058 24.3631 70.6625 15.1388C69.2192 5.91455 61.6904 -0.584774 53.8465 0.622172C46.0026 1.82912 40.8138 10.2853 42.2571 19.5096Z" fill="#1687DD"/>
<path d="M42.2571 19.5096C43.7004 28.7338 51.2292 35.2332 59.0732 34.0262C66.9171 32.8193 72.1058 24.3631 70.6625 15.1388C69.2192 5.91455 61.6904 -0.584774 53.8465 0.622172C46.0026 1.82912 40.8138 10.2853 42.2571 19.5096Z" fill="url(#paint3_linear_514_1240)"/>
<path d="M42.2571 19.5096C43.7004 28.7338 51.2292 35.2332 59.0732 34.0262C66.9171 32.8193 72.1058 24.3631 70.6625 15.1388C69.2192 5.91455 61.6904 -0.584774 53.8465 0.622172C46.0026 1.82912 40.8138 10.2853 42.2571 19.5096Z" fill="#EBEBEB"/>
<path d="M73.1444 24.4618C72.0692 32.748 77.1017 40.2424 84.3847 41.2011C91.6677 42.1597 98.4434 36.2196 99.5186 27.9334C100.594 19.6472 95.5614 12.1527 88.2784 11.1941C80.9953 10.2354 74.2196 16.1756 73.1444 24.4618Z" fill="#1687DD"/>
<path d="M73.1444 24.4618C72.0692 32.748 77.1017 40.2424 84.3847 41.2011C91.6677 42.1597 98.4434 36.2196 99.5186 27.9334C100.594 19.6472 95.5614 12.1527 88.2784 11.1941C80.9953 10.2354 74.2196 16.1756 73.1444 24.4618Z" fill="url(#paint4_linear_514_1240)"/>
<path d="M73.1444 24.4618C72.0692 32.748 77.1017 40.2424 84.3847 41.2011C91.6677 42.1597 98.4434 36.2196 99.5186 27.9334C100.594 19.6472 95.5614 12.1527 88.2784 11.1941C80.9953 10.2354 74.2196 16.1756 73.1444 24.4618Z" fill="#EBEBEB"/>
</g>
<defs>
<linearGradient id="paint0_linear_514_1240" x1="100.344" y1="73.4546" x2="13.3916" y2="23.2525" gradientUnits="userSpaceOnUse">
<stop stop-color="#005357"/>
<stop offset="1" stop-color="#007F85"/>
</linearGradient>
<linearGradient id="paint1_linear_514_1240" x1="100.344" y1="73.4546" x2="13.3916" y2="23.2525" gradientUnits="userSpaceOnUse">
<stop stop-color="#005357"/>
<stop offset="1" stop-color="#007F85"/>
</linearGradient>
<linearGradient id="paint2_linear_514_1240" x1="100.344" y1="73.4546" x2="13.3916" y2="23.2525" gradientUnits="userSpaceOnUse">
<stop stop-color="#005357"/>
<stop offset="1" stop-color="#007F85"/>
</linearGradient>
<linearGradient id="paint3_linear_514_1240" x1="100.344" y1="73.4546" x2="13.3916" y2="23.2525" gradientUnits="userSpaceOnUse">
<stop stop-color="#005357"/>
<stop offset="1" stop-color="#007F85"/>
</linearGradient>
<linearGradient id="paint4_linear_514_1240" x1="100.344" y1="73.4546" x2="13.3916" y2="23.2525" gradientUnits="userSpaceOnUse">
<stop stop-color="#005357"/>
<stop offset="1" stop-color="#007F85"/>
</linearGradient>
</defs>
</svg>
