<svg width="53" height="70" viewBox="0 0 53 70" fill="none" xmlns="http://www.w3.org/2000/svg">
<path d="M51.0134 59.4823C50.3553 55.4927 47.9404 51.9669 44.3885 49.8086C43.6047 49.3307 42.7575 48.8547 41.8086 48.3577C41.2864 48.0739 40.7642 47.8133 40.2591 47.5608C38.4346 46.6557 36.2768 45.6942 34.0951 44.8782V42.4592C36.999 40.2602 38.9954 36.8925 39.4738 33.0299C41.506 33.0015 43.1519 31.3492 43.1519 29.3153C43.1519 27.611 41.9679 26.1652 40.3798 25.7354C41.4268 20.3027 40.7331 15.9763 38.2698 12.8699C36.6606 10.8411 34.5401 9.62309 32.5031 8.89258C32.8199 8.39149 33.0023 7.85606 33.0023 7.29649C33.0023 4.88764 29.9515 1 26.0575 1C22.1635 1 19.1137 4.88764 19.1137 7.29649C19.1137 7.88839 19.315 8.44872 19.6641 8.9683C16.9185 9.93878 14.81 11.4926 13.3844 13.6366C10.7047 17.6673 11.0679 22.7274 11.6668 25.8343C10.2374 26.369 9.23178 27.7413 9.23178 29.3153C9.23178 31.2326 10.6985 32.7965 12.5684 32.9954C12.8913 36.2139 14.3332 39.1699 16.7099 41.433C17.0976 41.802 17.5079 42.1358 17.9284 42.4525V44.8792C14.6631 46.1012 10.7075 47.9578 7.63593 49.8086C4.08202 51.9669 1.66713 55.4937 1.01008 59.4822C0.961782 59.7791 1.08958 60.0779 1.33811 60.247C8.71525 65.2626 16.8155 68.4747 25.7728 68.4747C34.8707 68.4747 43.1416 65.1662 50.6723 60.255C50.9299 60.088 51.0627 59.7851 51.0134 59.4823ZM41.6064 29.3153C41.6064 30.4587 40.7127 31.388 39.5861 31.4732C39.5873 31.3956 39.597 31.3201 39.597 31.2421V28.8783C39.6293 28.8232 39.6613 28.7673 39.6795 28.7035C39.8229 28.2026 39.9256 27.7275 40.043 27.243C40.9424 27.5144 41.6064 28.3414 41.6064 29.3153ZM20.6592 7.29649C20.6592 5.99546 22.8759 2.54553 26.0575 2.54553C29.2391 2.54553 31.4568 5.99547 31.4568 7.29649C31.4568 7.7435 31.2146 8.12786 30.94 8.42168C28.2183 7.72853 25.9569 7.81368 25.7778 7.82374C24.1301 7.91606 22.6316 8.14988 21.2549 8.49664C20.9439 8.19277 20.6592 7.785 20.6592 7.29649ZM14.6753 14.4868C16.7391 11.3897 20.5033 9.66712 25.8593 9.36726C25.9277 9.37028 33.275 9.05936 37.0583 13.8298C38.9626 16.2303 39.6544 19.5271 39.1527 23.6489C36.6106 15.4509 25.9118 15.807 25.7828 15.819C17.3127 16.2359 14.0565 20.0272 12.9419 23.8756C12.6183 21.0741 12.7289 17.4086 14.6753 14.4868ZM10.7773 29.3153C10.7773 28.4677 11.2773 27.7214 12.0098 27.363C12.2053 28.1121 12.3704 28.5985 12.3983 28.6773C12.4216 28.7427 12.4564 28.8018 12.4989 28.8552V31.4383C11.5165 31.226 10.7773 30.3562 10.7773 29.3153ZM14.0445 31.6034L14.0404 26.2413C14.6039 20.7082 18.5804 17.7208 25.8543 17.3626C25.8975 17.3605 26.0283 17.3565 26.2326 17.3565C28.2108 17.3565 37.0302 17.8093 38.0515 25.8298V31.2421C38.0515 35.4005 36.0835 39.0825 33.0391 41.3252C32.9355 41.3663 32.8437 41.4277 32.7677 41.5065C31.0038 42.7327 28.9073 43.4949 26.628 43.5973C23.3206 43.7613 20.1702 42.5941 17.7754 40.3131C15.3696 38.0219 14.0445 34.9289 14.0445 31.6034ZM18.9577 46.148C19.2677 46.0394 19.4739 45.7476 19.4739 45.4195V43.4554C21.4589 44.562 23.689 45.1579 26.0153 45.1579C28.3534 45.1579 30.5398 44.588 32.5495 43.4632V45.4195C32.5495 45.7476 32.7568 46.0404 33.0677 46.149C34.9387 46.8294 36.558 47.505 38.7494 48.5526C33.7755 55.3465 27.6951 60.1678 26.0163 61.4383C24.3354 60.1688 18.251 55.3475 13.2853 48.5549C16.9426 46.8158 18.111 46.4867 18.9577 46.148ZM2.62504 59.2508C3.31731 55.9062 5.41525 52.9661 8.43587 51.1308C9.268 50.6297 10.1132 50.1558 10.9594 49.716C11.2725 49.5474 11.5761 49.3973 11.8833 49.2416C17.8451 57.4897 25.2496 62.8037 25.5685 63.0301C25.7034 63.1257 25.8593 63.173 26.0163 63.173C26.1732 63.173 26.3302 63.1257 26.464 63.0301C26.783 62.8037 34.1787 57.4897 40.1496 49.2417C40.4589 49.3984 40.7636 49.549 41.0822 49.7211C42.0109 50.2081 42.8289 50.6679 43.5846 51.1287C46.6042 52.9631 48.7001 55.8992 49.3964 59.2408C33.4258 69.4818 17.979 69.5129 2.62504 59.2508Z" fill="white" stroke="white" stroke-width="2"/>
</svg>
