<svg width="30" height="30" viewBox="0 0 30 30" fill="none" xmlns="http://www.w3.org/2000/svg">
<path d="M27.5928 19.6916C25.7561 19.6916 23.9527 19.4043 22.2437 18.8395C21.4062 18.5539 20.3768 18.8159 19.8657 19.3409L16.4925 21.8873C12.5805 19.7991 10.1709 17.3902 8.11117 13.5076L10.5827 10.2223C11.2248 9.58102 11.4551 8.6443 11.1791 7.76539C10.612 6.04742 10.3238 4.24484 10.3238 2.40734C10.3239 1.07992 9.24398 0 7.91664 0H2.40727C1.07992 0 0 1.07992 0 2.40727C0 17.6221 12.378 30 27.5928 30C28.9202 30 30.0001 28.9201 30.0001 27.5927V22.0988C30 20.7715 28.9201 19.6916 27.5928 19.6916Z" fill="black"/>
<path d="M27.5928 19.6916C25.7561 19.6916 23.9527 19.4043 22.2437 18.8395C21.4062 18.5539 20.3768 18.8159 19.8657 19.3409L16.4925 21.8873C12.5805 19.7991 10.1709 17.3902 8.11117 13.5076L10.5827 10.2223C11.2248 9.58102 11.4551 8.6443 11.1791 7.76539C10.612 6.04742 10.3238 4.24484 10.3238 2.40734C10.3239 1.07992 9.24398 0 7.91664 0H2.40727C1.07992 0 0 1.07992 0 2.40727C0 17.6221 12.378 30 27.5928 30C28.9202 30 30.0001 28.9201 30.0001 27.5927V22.0988C30 20.7715 28.9201 19.6916 27.5928 19.6916Z" fill="url(#paint0_linear_514_765)"/>
<path d="M27.5928 19.6916C25.7561 19.6916 23.9527 19.4043 22.2437 18.8395C21.4062 18.5539 20.3768 18.8159 19.8657 19.3409L16.4925 21.8873C12.5805 19.7991 10.1709 17.3902 8.11117 13.5076L10.5827 10.2223C11.2248 9.58102 11.4551 8.6443 11.1791 7.76539C10.612 6.04742 10.3238 4.24484 10.3238 2.40734C10.3239 1.07992 9.24398 0 7.91664 0H2.40727C1.07992 0 0 1.07992 0 2.40727C0 17.6221 12.378 30 27.5928 30C28.9202 30 30.0001 28.9201 30.0001 27.5927V22.0988C30 20.7715 28.9201 19.6916 27.5928 19.6916Z" fill="url(#paint1_linear_514_765)"/>
<path d="M27.5928 19.6916C25.7561 19.6916 23.9527 19.4043 22.2437 18.8395C21.4062 18.5539 20.3768 18.8159 19.8657 19.3409L16.4925 21.8873C12.5805 19.7991 10.1709 17.3902 8.11117 13.5076L10.5827 10.2223C11.2248 9.58102 11.4551 8.6443 11.1791 7.76539C10.612 6.04742 10.3238 4.24484 10.3238 2.40734C10.3239 1.07992 9.24398 0 7.91664 0H2.40727C1.07992 0 0 1.07992 0 2.40727C0 17.6221 12.378 30 27.5928 30C28.9202 30 30.0001 28.9201 30.0001 27.5927V22.0988C30 20.7715 28.9201 19.6916 27.5928 19.6916Z" fill="url(#paint2_linear_514_765)"/>
<defs>
<linearGradient id="paint0_linear_514_765" x1="0" y1="0" x2="11.315" y2="36.2267" gradientUnits="userSpaceOnUse">
<stop stop-color="#1A99FB"/>
<stop offset="1" stop-color="#0C5E9A"/>
</linearGradient>
<linearGradient id="paint1_linear_514_765" x1="0" y1="0" x2="11.315" y2="36.2267" gradientUnits="userSpaceOnUse">
<stop stop-color="#1A99FB"/>
<stop offset="1" stop-color="#0C5E9A"/>
</linearGradient>
<linearGradient id="paint2_linear_514_765" x1="15.0009" y1="30" x2="15.0009" y2="0" gradientUnits="userSpaceOnUse">
<stop stop-color="#005357"/>
<stop offset="1" stop-color="#007F85"/>
</linearGradient>
</defs>
</svg>
