<svg width="49" height="49" viewBox="0 0 49 49" fill="none" xmlns="http://www.w3.org/2000/svg">
<path fill-rule="evenodd" clip-rule="evenodd" d="M30.5719 1.79843H35.9672V3.59686H37.7657V5.39529H41.3618V7.19372H43.1603V10.7899H44.9587V12.5883H46.7571V16.1852H48.5556V32.3704H46.7571V35.9672H44.9587V39.5641H43.1603V41.3618H41.3618V43.1603H39.5641V44.9587H35.9672V46.7571H32.3704V48.5556H16.1852V46.7571H12.5883V44.9587H10.7899V43.1603H7.19372V41.3618H5.39529V37.7657H3.59686V35.9672H1.79843V30.5719H0V19.782H1.79843V14.3868H3.59686V10.7899H5.39529V8.99146H7.19372V7.19372H8.99146V5.39529H10.7899V3.59686H14.3868V1.79843H19.782V0H30.5719V1.79843ZM22.5185 9.85185V22.5185H9.85185V26.7407H22.5185V39.4074H26.7407V26.7407H39.4074V22.5185H26.7407V9.85185H22.5185Z" fill="#EF3124"/>
</svg>
