<svg width="21" height="21" viewBox="0 0 21 21" fill="none" xmlns="http://www.w3.org/2000/svg">
<path fill-rule="evenodd" clip-rule="evenodd" d="M10.9959 4.20693C11.2721 4.20393 11.4983 4.42533 11.5013 4.70146L11.6399 17.4286C11.6429 17.7048 11.4215 17.931 11.1454 17.934C10.8692 17.937 10.643 17.7156 10.64 17.4395L10.5014 4.71235C10.4984 4.43622 10.7198 4.20994 10.9959 4.20693Z" fill="#CEB999"/>
<path fill-rule="evenodd" clip-rule="evenodd" d="M4.20709 11.1452C4.20409 10.8691 4.4255 10.6428 4.70162 10.6398L17.4288 10.5012C17.7049 10.4982 17.9312 10.7196 17.9342 10.9958C17.9372 11.2719 17.7158 11.4982 17.4397 11.5012L4.71251 11.6397C4.43638 11.6427 4.2101 11.4213 4.20709 11.1452Z" fill="#CEB999"/>
<circle cx="10.5" cy="10.5" r="10" stroke="#CEB999"/>
</svg>
