<svg width="22" height="30" viewBox="0 0 22 30" fill="none" xmlns="http://www.w3.org/2000/svg">
<path fill-rule="evenodd" clip-rule="evenodd" d="M11 2.8125C6.3401 2.8125 2.5625 6.5901 2.5625 11.25C2.5625 15.9099 6.3401 19.6875 11 19.6875C15.6599 19.6875 19.4375 15.9099 19.4375 11.25C19.4375 6.5901 15.6599 2.8125 11 2.8125ZM0.6875 11.25C0.6875 5.55456 5.30456 0.9375 11 0.9375C16.6954 0.9375 21.3125 5.55456 21.3125 11.25C21.3125 16.9454 16.6954 21.5625 11 21.5625C5.30456 21.5625 0.6875 16.9454 0.6875 11.25Z" fill="white"/>
<path fill-rule="evenodd" clip-rule="evenodd" d="M11 6.5625C8.41116 6.5625 6.3125 8.66116 6.3125 11.25C6.3125 13.8388 8.41116 15.9375 11 15.9375C13.5888 15.9375 15.6875 13.8388 15.6875 11.25C15.6875 8.66116 13.5888 6.5625 11 6.5625ZM4.4375 11.25C4.4375 7.62563 7.37563 4.6875 11 4.6875C14.6244 4.6875 17.5625 7.62563 17.5625 11.25C17.5625 14.8744 14.6244 17.8125 11 17.8125C7.37563 17.8125 4.4375 14.8744 4.4375 11.25Z" fill="white"/>
<path fill-rule="evenodd" clip-rule="evenodd" d="M5.375 17.8125C5.89277 17.8125 6.3125 18.2322 6.3125 18.75V26.6081L10.5807 24.474C10.8447 24.342 11.1553 24.342 11.4193 24.474L15.6875 26.6081V18.75C15.6875 18.2322 16.1072 17.8125 16.625 17.8125C17.1428 17.8125 17.5625 18.2322 17.5625 18.75V28.125C17.5625 28.4499 17.3943 28.7517 17.1179 28.9225C16.8415 29.0933 16.4964 29.1088 16.2057 28.9635L11 26.3607L5.79426 28.9635C5.50365 29.1088 5.15852 29.0933 4.88213 28.9225C4.60574 28.7517 4.4375 28.4499 4.4375 28.125V18.75C4.4375 18.2322 4.85723 17.8125 5.375 17.8125Z" fill="white"/>
</svg>
