<svg width="22" height="40" viewBox="0 0 22 40" fill="none" xmlns="http://www.w3.org/2000/svg">
<path d="M0 0.00404944C2.42018 0.00404944 4.80008 0.00404944 7.18542 0.00404944C9.10044 0.00404944 11.0166 -0.0162116 12.9305 0.0339076C14.3122 0.0776904 15.6734 0.374641 16.9434 0.909393C18.3696 1.49803 19.6402 2.34046 20.4828 3.63503C21.253 4.81058 21.7372 6.14368 21.8981 7.53153C22.1736 9.91166 21.921 12.1947 20.7648 14.3627C20.2368 15.3523 19.5073 16.1179 18.632 16.7844C17.0175 18.0128 15.1373 18.498 13.108 18.6846V17.7953C13.7427 17.5543 14.3872 17.3485 14.9968 17.0702C16.054 16.586 16.963 15.8822 17.6043 14.931C18.705 13.3315 19.3183 11.4581 19.3723 9.5299C19.4126 8.1063 19.2417 6.72429 18.5972 5.42332C17.8558 3.92401 16.6702 2.90883 15.122 2.24128C13.5087 1.55296 11.7703 1.19028 10.0106 1.17492C7.63179 1.13973 5.2508 1.21224 2.8709 1.23997C2.80096 1.24728 2.73152 1.25867 2.66296 1.27409V30.8124H0V0.00404944Z" fill="white"/>
<path d="M7.17999 23.7674C7.2302 23.8162 7.28288 23.8624 7.33785 23.906C9.43578 25.3509 10.4232 27.4058 10.7335 29.8329C10.9425 31.4591 10.6617 33.064 10.5158 34.6742C10.4635 35.2532 10.3895 35.8323 10.3797 36.4134C10.3623 37.5011 10.8293 38.0727 11.9278 38.2753C12.4482 38.3713 12.9904 38.3638 13.5609 38.4054V39.9964C12.7737 40.0156 11.9855 39.9687 11.2256 39.7341C10.7858 39.598 10.3612 39.4186 9.95835 39.1988C8.8936 38.6155 8.56264 37.5811 8.34272 36.5073C8.04551 35.0549 8.2099 33.5897 8.29808 32.1352C8.39389 30.5506 8.32639 28.983 7.89853 27.4432C7.49027 25.978 6.5431 25.0225 5.02872 24.6535C4.62263 24.5544 4.47892 24.3763 4.49526 23.9561C4.53009 23.086 4.50941 23.103 5.339 22.8194C6.68572 22.3598 7.52511 21.4214 7.88982 20.0788C8.31986 18.4974 8.38518 16.8883 8.2872 15.261C8.19139 13.6902 8.04224 12.1163 8.41566 10.5519C8.88054 8.60154 10.1663 7.83482 11.9474 7.60022C11.9474 8.06942 11.9572 8.53116 11.9365 8.9865C11.9365 9.06647 11.8102 9.16564 11.7188 9.21256C11.5664 9.29148 11.3922 9.32773 11.2332 9.39598C10.5452 9.69136 10.1031 10.1627 10.2022 10.9454C10.3111 11.7889 10.4613 12.626 10.5844 13.4674C10.8903 15.5457 11.0819 17.6337 10.3329 19.6587C9.74279 21.2582 8.86203 22.6797 7.34221 23.6224C7.28464 23.6668 7.23043 23.7153 7.17999 23.7674Z" fill="white"/>
</svg>
