<svg width="44" height="53" viewBox="0 0 44 53" fill="none" xmlns="http://www.w3.org/2000/svg">
<path d="M6.66 53V0.163997H23.532C30.34 0.163997 35.298 1.54533 38.406 4.308C41.5633 7.07066 43.142 10.8693 43.142 15.704C43.142 18.5653 42.5007 21.254 41.218 23.77C39.9353 26.286 37.7893 28.3087 34.78 29.838C31.82 31.3673 27.7747 32.132 22.644 32.132H17.834V53H6.66ZM0.74 45.082V37.904H29.23V45.082H0.74ZM0.74 32.132V22.956H22.422V32.132H0.74ZM21.534 22.956C23.6553 22.956 25.4807 22.734 27.01 22.29C28.5393 21.7967 29.7233 21.032 30.562 19.996C31.4007 18.96 31.82 17.6527 31.82 16.074C31.82 13.8047 31.1047 12.1273 29.674 11.042C28.2433 9.90733 25.9987 9.34 22.94 9.34H17.834V22.956H21.534Z" fill="white"/>
</svg>
