<svg width="46" height="50" viewBox="0 0 46 50" fill="none" xmlns="http://www.w3.org/2000/svg">
<path fill-rule="evenodd" clip-rule="evenodd" d="M0 7.69231C0 5.56814 1.71624 3.84615 3.83333 3.84615H42.1667C44.2838 3.84615 46 5.56814 46 7.69231V46.1538C46 48.278 44.2838 50 42.1667 50H3.83333C1.71624 50 0 48.278 0 46.1538V7.69231ZM42.1667 7.69231H3.83333V46.1538H42.1667V7.69231Z" fill="white"/>
<path fill-rule="evenodd" clip-rule="evenodd" d="M34.5 0C35.5585 0 36.4167 0.860991 36.4167 1.92308V9.61538C36.4167 10.6775 35.5585 11.5385 34.5 11.5385C33.4415 11.5385 32.5833 10.6775 32.5833 9.61538V1.92308C32.5833 0.860991 33.4415 0 34.5 0Z" fill="white"/>
<path fill-rule="evenodd" clip-rule="evenodd" d="M11.5 0C12.5585 0 13.4167 0.860991 13.4167 1.92308V9.61538C13.4167 10.6775 12.5585 11.5385 11.5 11.5385C10.4415 11.5385 9.58333 10.6775 9.58333 9.61538V1.92308C9.58333 0.860991 10.4415 0 11.5 0Z" fill="white"/>
<path fill-rule="evenodd" clip-rule="evenodd" d="M0 17.3077C0 16.2456 0.858121 15.3846 1.91667 15.3846H44.0833C45.1419 15.3846 46 16.2456 46 17.3077C46 18.3698 45.1419 19.2308 44.0833 19.2308H1.91667C0.858121 19.2308 0 18.3698 0 17.3077Z" fill="white"/>
</svg>
