<svg width="35" height="35" viewBox="0 0 35 35" fill="none" xmlns="http://www.w3.org/2000/svg">
<path d="M17.6234 8.9085C12.8169 8.9085 8.90695 12.8185 8.90695 17.625C8.90695 22.4315 12.8169 26.3415 17.6234 26.3415C22.43 26.3415 26.3399 22.4315 26.3399 17.625C26.3399 12.8185 22.43 8.9085 17.6234 8.9085ZM17.6234 23.8511C14.1898 23.8511 11.3974 21.0587 11.3974 17.625C11.3974 14.1913 14.1898 11.3989 17.6234 11.3989C21.0571 11.3989 23.8495 14.1913 23.8495 17.625C23.8495 21.0587 21.0571 23.8511 17.6234 23.8511Z" fill="white"/>
<path d="M34.247 21.1116L31.931 18.0281C31.9356 17.7526 31.9309 17.4616 31.9263 17.2281L34.247 14.1384C34.4774 13.8318 34.5537 13.4364 34.4541 13.066C34.0649 11.6231 33.489 10.2347 32.7435 8.93963C32.552 8.6081 32.2189 8.3824 31.8407 8.32792L28.0225 7.78314C27.842 7.5948 27.6552 7.40958 27.4653 7.22591L26.9205 3.40777C26.866 3.02954 26.6419 2.69644 26.3104 2.50499C25.0153 1.75631 23.6254 1.1804 22.1809 0.792824C21.8105 0.693207 21.4167 0.769476 21.11 0.99984L18.0375 3.30816C17.762 3.29726 17.4865 3.29726 17.2094 3.30816L14.1368 1.0014C13.8302 0.771032 13.4349 0.694763 13.0644 0.79438C11.6215 1.18351 10.2331 1.75942 8.93808 2.50499C8.60654 2.69644 8.38084 3.02954 8.32637 3.40777L7.78003 7.23214C7.5948 7.41269 7.41113 7.59636 7.23058 7.78159L3.40622 8.32792C3.02798 8.3824 2.69489 8.60654 2.50344 8.93808C1.75786 10.2347 1.18195 11.6246 0.792824 13.0691C0.693207 13.4395 0.769476 13.8333 0.99984 14.14L3.31594 17.2234C3.31127 17.4989 3.31594 17.79 3.32061 18.0235L0.99984 21.1116C0.769476 21.4182 0.693207 21.8136 0.792824 22.184C1.18195 23.6269 1.75786 25.0153 2.50344 26.3104C2.69489 26.6419 3.02798 26.8676 3.40622 26.9221L7.23058 27.4684C7.41113 27.6536 7.5948 27.8373 7.78003 28.0179L8.32637 31.8422C8.38084 32.2205 8.60498 32.5536 8.93652 32.745C10.2315 33.4937 11.6215 34.0696 13.0644 34.4572C13.1702 34.4852 13.2792 34.4992 13.3866 34.4992C13.6528 34.4992 13.9158 34.4136 14.1353 34.2502L17.2079 31.9418C17.4834 31.9527 17.7604 31.9527 18.0344 31.9418L21.1069 34.2502C21.4136 34.4805 21.8089 34.5568 22.1794 34.4572C23.6223 34.068 25.0107 33.4921 26.3057 32.7466C26.6372 32.5551 26.8629 32.222 26.9174 31.8438L27.4637 28.0194C27.6521 27.8342 27.8513 27.6318 28.0101 27.47L31.8376 26.9236C32.2158 26.8692 32.5489 26.645 32.7403 26.3135C33.489 25.0185 34.0649 23.6285 34.4525 22.184C34.5521 21.8136 34.4759 21.4198 34.2455 21.1132L34.247 21.1116ZM30.8725 24.5437L27.2381 25.0636C26.9625 25.1025 26.7088 25.2333 26.5158 25.434C26.3197 25.638 25.7469 26.2279 25.4512 26.5003C25.2395 26.6948 25.1025 26.9563 25.062 27.2396L24.5437 30.8741C23.7639 31.2819 22.9483 31.6196 22.1093 31.8843L19.1675 29.674C18.9216 29.4888 18.6165 29.4032 18.3099 29.4296C17.8554 29.4701 17.3962 29.4701 16.9417 29.4296C16.6351 29.4032 16.33 29.4903 16.084 29.674L13.1422 31.8843C12.3033 31.6212 11.4877 31.2834 10.7094 30.8756L10.1895 27.2412C10.149 26.9625 10.0167 26.7057 9.81284 26.5127C9.4455 26.1656 9.08439 25.8045 8.7404 25.4403C8.54739 25.2364 8.29057 25.1025 8.01195 25.0636L4.37748 24.5453C3.96968 23.7655 3.63191 22.9498 3.3673 22.1109L5.57756 19.1691C5.75033 18.9387 5.83905 18.6539 5.8266 18.3659C5.80948 17.9892 5.79391 17.2686 5.82349 16.9432C5.84995 16.6366 5.76278 16.3315 5.57911 16.0856L3.36886 13.1438C3.63191 12.3048 3.96968 11.4892 4.37748 10.711L8.01195 10.1911C8.29057 10.1506 8.54739 10.0183 8.7404 9.8144C9.08595 9.44862 9.44706 9.08906 9.81284 8.74196C10.0167 8.54895 10.1506 8.29212 10.1895 8.01351L10.7094 4.37904C11.4892 3.97123 12.3048 3.63347 13.1438 3.36886L16.0856 5.57911C16.3315 5.76434 16.6366 5.85151 16.9432 5.82349C17.3977 5.78302 17.8569 5.78302 18.3114 5.82349C18.6181 5.85151 18.9231 5.76278 19.1691 5.57911L22.1124 3.36886C22.9514 3.63191 23.767 3.96968 24.5453 4.37748L25.0652 8.01195C25.1056 8.29679 25.2426 8.55673 25.4543 8.7513C25.8216 9.08906 26.1734 9.44239 26.5018 9.79883C26.6964 10.0105 26.9579 10.149 27.2427 10.1895L30.8772 10.7094C31.285 11.4892 31.6228 12.3048 31.8874 13.1438L29.6771 16.0856C29.5043 16.316 29.4156 16.6008 29.4281 16.8888C29.4452 17.2654 29.4608 17.9861 29.4312 18.3114C29.4047 18.6181 29.4919 18.9231 29.6756 19.1691L31.8858 22.1124C31.6228 22.9514 31.285 23.767 30.8772 24.5453L30.8725 24.5437Z" fill="white"/>
</svg>
