<svg width="32" height="34" viewBox="0 0 32 34" fill="none" xmlns="http://www.w3.org/2000/svg">
<path d="M3.20001 11.9231V11.1731H2.45001V11.9231H3.20001ZM28.0917 11.9231H28.8417V11.1731H28.0917V11.9231ZM28.0917 30.6886L28.2573 31.4201L28.8417 31.2878V30.6886H28.0917ZM3.20001 30.6886H2.45001V31.2878L3.03442 31.4201L3.20001 30.6886ZM21.2953 16.7231V17.4731H22.7953V16.7231H21.2953ZM8.49532 16.7231V17.4731H9.99532V16.7231H8.49532ZM3.20001 12.6731H28.0917V11.1731H3.20001V12.6731ZM3.95001 30.6886V11.9231H2.45001V30.6886H3.95001ZM28.0917 30.6886C27.9261 29.9571 27.9262 29.9571 27.9262 29.9571C27.9261 29.9571 27.9261 29.9571 27.926 29.9571C27.9258 29.9571 27.9256 29.9572 27.9252 29.9573C27.9244 29.9575 27.9232 29.9577 27.9215 29.9581C27.9181 29.9589 27.9129 29.96 27.906 29.9616C27.8922 29.9647 27.8713 29.9694 27.8437 29.9755C27.7884 29.9877 27.7063 30.0058 27.5998 30.0288C27.3867 30.0749 27.0759 30.1409 26.6874 30.2203C25.9102 30.379 24.8229 30.5906 23.5837 30.8022C21.0935 31.2274 18.034 31.6445 15.6459 31.6445V33.1445C18.1675 33.1445 21.3309 32.7086 23.8362 32.2808C25.0948 32.0659 26.1983 31.8511 26.9875 31.69C27.3823 31.6093 27.6987 31.5421 27.9169 31.4949C28.026 31.4713 28.1106 31.4527 28.1681 31.44C28.1969 31.4336 28.2189 31.4287 28.2339 31.4253C28.2414 31.4236 28.2471 31.4224 28.251 31.4215C28.253 31.421 28.2545 31.4207 28.2555 31.4205C28.2561 31.4203 28.2565 31.4202 28.2568 31.4202C28.2569 31.4201 28.2571 31.4201 28.2571 31.4201C28.2572 31.4201 28.2573 31.4201 28.0917 30.6886ZM15.6459 31.6445C13.2577 31.6445 10.1982 31.2274 7.70802 30.8022C6.46885 30.5906 5.38154 30.379 4.6043 30.2203C4.2158 30.1409 3.90509 30.0749 3.69198 30.0288C3.58543 30.0058 3.50331 29.9877 3.44808 29.9755C3.42047 29.9694 3.39958 29.9647 3.38573 29.9616C3.3788 29.96 3.37364 29.9589 3.37027 29.9581C3.36859 29.9577 3.36735 29.9575 3.36657 29.9573C3.36618 29.9572 3.36591 29.9571 3.36574 29.9571C3.36566 29.9571 3.36563 29.9571 3.36559 29.9571C3.36558 29.9571 3.3656 29.9571 3.20001 30.6886C3.03442 31.4201 3.0345 31.4201 3.03461 31.4201C3.03469 31.4201 3.03482 31.4201 3.03497 31.4202C3.03527 31.4202 3.03568 31.4203 3.0362 31.4205C3.03725 31.4207 3.03876 31.421 3.04072 31.4215C3.04463 31.4224 3.05035 31.4236 3.05783 31.4253C3.0728 31.4287 3.09483 31.4336 3.12361 31.44C3.18117 31.4527 3.26575 31.4713 3.37486 31.4949C3.59306 31.5421 3.90947 31.6093 4.30419 31.69C5.09339 31.8511 6.19698 32.0659 7.45555 32.2808C9.96083 32.7086 13.1243 33.1445 15.6459 33.1445V31.6445ZM21.2953 8.72312V16.7231H22.7953V8.72312H21.2953ZM9.99532 16.7231V8.72312H8.49532V16.7231H9.99532ZM15.6453 3.07312C18.7657 3.07312 21.2953 5.60271 21.2953 8.72312H22.7953C22.7953 4.77428 19.5942 1.57312 15.6453 1.57312V3.07312ZM15.6453 1.57312C11.6965 1.57312 8.49532 4.77428 8.49532 8.72312H9.99532C9.99532 5.60271 12.5249 3.07312 15.6453 3.07312V1.57312ZM27.3417 11.9231V30.6886H28.8417V11.9231H27.3417Z" fill="white"/>
</svg>
