<svg width="350" height="233" viewBox="0 0 350 233" fill="none" xmlns="http://www.w3.org/2000/svg">
<g clip-path="url(#clip0_2086_32412)">
<path d="M23.7641 173.51C23.6556 171.585 24.3924 171.035 25.424 172.632C21.4842 161.736 30.8463 152.175 39.3674 151.691C41.8242 151.55 41.3556 152.601 40.0828 153.085C44.0369 152.593 48.624 155.093 50.003 159.425C51.4612 164.008 48.682 168.573 45.678 170.536C44.1859 171.513 43.3011 170.772 43.9703 168.693C38.9588 172.765 44.1208 178.612 49.2769 174.886L50.1502 184.48C47.0141 188.171 40.9711 190.062 36.9199 188.063C34.6214 186.929 36.4697 186.437 37.1235 186.532C28.9838 185.553 24.0027 177.722 23.7641 173.51Z" fill="#005A5B"/>
<path d="M248.237 177.246C283.196 184.111 296.976 191.155 307.114 193.259C313.008 194.483 317.237 195.645 322.543 195.343C331.691 194.821 339.198 196.157 346.012 205.008C351.017 211.51 350.578 216.839 339.479 217.279C335.843 221.047 328.463 220.228 323.233 217.371C315.546 221.282 313.182 216.071 307.957 214.586C290.107 209.513 234.11 214.735 222.623 207.629C215.585 203.273 212.976 192.676 209.927 185.606L248.237 177.251V177.246Z" fill="#005A5B"/>
<path d="M266.489 93.7249C274.472 117.458 277.383 147.467 271.086 169.788C268.297 179.673 272.153 188.78 265.657 199.019L198.148 216.01C141.125 225.614 118.218 211.244 70.8527 218.897L65.2601 158.873C77.4769 143.72 103.33 137.556 143.208 132.575C156.993 130.855 167.734 125.347 176.825 116.741C177.05 100.37 181.314 83.0819 186.82 63.5312L266.495 93.7198L266.489 93.7249Z" fill="#005A5B"/>
<path d="M218.859 102.442L267.348 96.4883C268.186 99.1708 268.978 101.899 269.688 104.695C258.38 112.286 239.907 112.952 218.854 109.64V102.442H218.859Z" fill="#005A5B"/>
<path d="M237.26 190.412C234.303 189.756 234.165 187.627 237.934 188.128C250.105 189.746 259.926 192.198 267.73 195.004C267.174 196.652 266.423 197.809 265.652 199.017L204.062 214.631L196.749 200.722L237.255 190.407L237.26 190.412Z" fill="#005A5B"/>
<path d="M223.203 187.689C258.163 193.618 271.942 200.298 282.081 202.126C287.974 203.191 292.203 204.24 297.51 203.795C306.657 203.027 314.165 204.163 320.978 212.83C325.983 219.199 325.345 223.775 318.184 225.173C314.548 229.038 307.168 228.419 301.938 225.7C294.251 229.816 288.148 224.769 282.928 223.427C265.078 218.83 209.081 225.552 197.595 218.753C190.557 214.586 187.947 204.056 184.898 197.073L223.208 187.695L223.203 187.689Z" fill="#005A5B"/>
<path d="M102.915 169.95C101.515 168.66 102.404 167.359 104.329 168.757C116.975 177.936 118.778 201.403 98.2822 213.382C99.6816 214.483 100.473 215.256 101.668 216.561C92.2709 216.489 82.2758 217.047 70.8507 218.895L67.7658 185.794L102.915 169.95Z" fill="#005A5B"/>
<path d="M87.1708 163.91C114.945 166.06 120.69 199.873 93.8053 212.636C97.3089 214.929 101.344 218.523 102.682 221.579C105.741 228.572 101.109 230.384 96.7267 229.749C93.2945 233.594 87.6969 233.794 82.5027 231.582C75.6844 233.942 70.5209 231.853 65.2603 226.831C50.6074 226.852 38.6613 227.548 27.895 226.36C19.2483 225.403 17.9 216.03 23.7377 209.579C28.3904 204.445 33.1403 202.888 36.7563 195.645C47.3387 174.435 55.6177 162.205 77.1707 148.967L87.1708 163.91Z" fill="#005A5B"/>
<path d="M52.1595 204.551C65.9544 203.092 85.0354 204.321 96.0469 211.472C95.3267 211.877 94.5811 212.266 93.8048 212.635C93.912 212.706 94.0244 212.788 94.1316 212.86C82.8495 206.292 65.4488 205.739 52.3382 206.374C48.9317 206.537 48.8704 204.904 52.1646 204.556L52.1595 204.551Z" fill="#005A5B"/>
<path d="M36.7568 195.644C38.3707 192.403 39.9336 189.378 41.5015 186.521C49.5813 171.773 57.7122 161.657 73.5297 151.28C74.6584 150.492 75.8433 149.739 77.0895 149.017C91.4718 140.683 113.423 136.296 143.209 132.579C156.994 130.859 167.735 125.351 176.826 116.745C177.05 100.374 181.315 83.0858 186.821 63.5352L222.332 102.831C211.162 120.324 222.276 140.668 218.864 145.383C217.077 147.855 215.309 142.818 202.454 141.036C194.758 139.971 197.985 142.915 200.851 145.239C223.292 163.433 234.171 183.542 225.146 186.608C200.452 194.999 213.731 206.758 225.866 213.736C233.155 217.923 236.709 221.973 226.428 222.085C212.996 222.234 202.184 221.24 197.516 218.911C194.165 217.242 190.161 211.585 186.698 202.181C183.797 194.548 177.796 195.158 171.999 197.257C154.364 203.645 138.49 204.951 127.381 203.558C120.568 202.703 120.308 200.41 120.66 195.68C121.697 181.668 118.137 170.232 106.952 164.647C97.0234 159.696 85.4144 163.781 90.6852 172.372C92.483 175.305 95.1695 177.516 96.717 180.629C101.855 190.965 96.1143 204.162 86.7117 209.563C77.212 206.574 66.4611 205.939 54.1779 206.313C41.7926 206.691 33.3604 202.468 36.7721 195.634L36.7568 195.644Z" fill="#005A5B"/>
<path d="M187.936 76.9234C182.752 49.8474 187.977 24.3225 202.523 3.42554C205.796 -1.27398 209.126 -1.00778 211.859 3.42554C216.205 10.4799 219.811 18.594 222.554 27.7934C228.779 26.6518 235.077 26.6723 241.42 27.5989C244.571 19.321 247.983 11.1455 252.314 3.42554C254.551 -0.567516 257.033 -0.321789 259.704 3.42554C268.928 16.3569 272.764 33.2711 271.763 54.3063C271.62 57.3318 272.498 59.4614 274.567 62.3846C279.163 68.8963 283.653 71.7426 283.581 80.1178C283.479 91.882 272.708 105.796 250.91 108.54C224.219 111.904 193.161 104.24 187.936 76.9234Z" fill="#005A5B"/>
<path d="M196.354 75.2382C201.906 66.1003 212.069 67.9995 232.075 75.0847C240.905 78.2125 247.387 75.8884 249.251 72.9601C251.764 69.0132 246.575 62.5321 244.179 58.109C240.216 50.7884 245.145 48.2697 251.401 54.8173C257.54 61.2369 256.697 66.7146 270.477 72.4943C274.343 74.1171 280.467 72.0489 279.951 69.3203C282.117 72.2588 283.618 75.2587 283.577 80.122C283.475 91.8862 272.704 105.8 250.906 108.544C234.205 110.648 215.798 108.432 203.075 99.7904C196.308 95.0806 191.124 83.8387 196.349 75.2433L196.354 75.2382Z" fill="#005A5B"/>
<path d="M211.471 10.7509C213.544 15.6604 215.077 20.6824 215.991 25.858C216.517 28.8528 216.113 29.9995 213.223 31.8374C206.583 36.0608 199.862 41.6869 195.388 47.5434C194.943 33.7725 198.718 20.237 206.415 11.0069C207.702 9.46088 208.718 8.79537 209.535 8.75954C210.245 8.72882 210.781 9.09741 211.476 10.7458L211.471 10.7509Z" fill="#005A5B"/>
<path d="M214.074 31.2539C213.814 31.4433 213.538 31.6328 213.216 31.8375C208.538 34.8118 203.834 38.4926 199.891 42.4498C200.443 33.1583 202.486 24.2354 208.257 16.3107C208.88 15.4558 209.421 14.9745 209.84 15.0206C210.213 15.0667 210.463 15.5274 210.867 16.5974C212.619 21.2252 213.528 26.1653 214.069 31.2539H214.074Z" fill="#005A5B"/>
<path d="M253.423 11.7605C250.961 16.4856 249.025 21.3643 247.703 26.4529C246.937 29.3965 247.095 30.789 249.981 32.637C258.637 38.1812 266.773 46.5718 266.773 46.5718C267.606 33.9424 264.843 21.4923 258.448 12.426C257.289 10.7827 256.334 10.0353 255.522 9.93291C254.817 9.84588 254.25 10.1684 253.428 11.7554L253.423 11.7605Z" fill="#005A5B"/>
<path d="M255.487 18.1225C255.982 17.0423 256.273 16.5765 256.646 16.5611C257.065 16.5406 257.566 17.0935 258.117 18.0355C262.882 26.211 264.292 35.0315 264.261 44.1132C261.365 41.3692 256.309 36.8489 250.931 33.2654C251.907 28.1358 253.418 22.6735 255.497 18.1276L255.487 18.1225Z" fill="#005A5B"/>
<path d="M219.486 78.7872C220.42 79.0995 221.294 79.5091 222.126 79.9544C230.094 84.2444 236.069 93.9762 248.756 94.2373C254.272 94.3499 261.3 91.2067 261.912 84.9406C262.04 83.6403 263.996 83.6199 263.96 84.9406C263.746 92.4353 255.549 96.5871 248.638 96.4898C235.145 96.3004 229.093 86.0976 221.498 81.91C220.696 81.4646 219.527 81.7564 218.73 81.2291C216.207 79.5654 217.524 78.132 219.486 78.7872Z" fill="#005A5B"/>
<path d="M262.658 84.1985C262.913 82.9033 264.864 83.3641 264.65 84.6644C264.19 87.4544 265.176 89.1949 266.8 90.0806C269.502 91.5498 273.22 90.7666 275.273 88.253C275.6 87.8537 275.488 87.05 275.84 86.6455C277.761 84.4698 279.119 85.2633 278.031 87.6489C277.868 88.0073 277.663 88.3503 277.444 88.683C274.962 92.4559 269.293 94.5549 265.365 91.8672C262.99 90.2444 261.994 87.5568 262.653 84.1934L262.658 84.1985Z" fill="#005A5B"/>
<path d="M272.857 73.5386C273.96 78.7091 268.827 85.5331 263.444 85.6765C258.184 85.8147 251.968 78.7091 252.964 74.6239C253.47 72.5659 256.028 70.7434 263.117 70.3032C268.751 69.9551 272.408 71.4192 272.857 73.5335V73.5386Z" fill="#005A5B"/>
<path d="M227.411 57.7263C232.513 57.5164 232.329 66.4752 228.044 66.6544C223.77 66.8335 222.585 57.9259 227.411 57.7263Z" fill="#005A5B"/>
<path d="M227.461 49.7803C225.898 49.5806 224.187 50.241 223.206 50.9475C220.535 52.8519 221.429 55.519 224.442 54.6436C225.867 54.229 226.7 53.7989 228.053 53.4099C230.29 52.7648 230.055 50.113 227.461 49.7803Z" fill="#005A5B"/>
<path d="M267.468 56.7849C262.366 56.575 262.55 65.5338 266.83 65.7129C271.104 65.8921 272.289 56.9845 267.468 56.7849Z" fill="#005A5B"/>
<path d="M266.373 48.5362C267.936 48.3365 269.647 48.9969 270.627 49.7034C273.299 51.6077 272.405 54.2749 269.392 53.3995C267.967 52.9848 267.134 52.5548 265.781 52.1657C263.544 51.5207 263.779 48.8689 266.373 48.5362Z" fill="#005A5B"/>
<path d="M97.1484 226.376C96.8726 221.554 98.6244 222.306 99.0534 226.161C99.1249 226.781 99.222 228.634 98.747 229.847C98.083 229.878 97.4037 229.847 96.7245 229.745C97.2812 228.767 97.1841 227.001 97.1484 226.371V226.376Z" fill="#005A5B"/>
<path d="M81.2048 228.261C81.3223 229.075 81.7155 230.616 82.2773 231.645C81.5981 231.87 80.9392 232.049 80.2906 232.187C79.785 231.199 79.3662 229.274 79.2947 228.43C78.9525 224.565 80.5255 223.479 81.2048 228.261Z" fill="#005A5B"/>
<path d="M318.429 221.984C318.281 217.157 320.017 217.955 320.339 221.825C320.416 222.767 320.41 223.684 320.339 224.58C319.701 224.815 318.996 225.015 318.199 225.173C318.373 224.139 318.459 223.074 318.424 221.984H318.429Z" fill="#005A5B"/>
<path d="M303.103 222.016C303.895 217.255 305.437 218.371 305.008 222.231C304.834 223.782 304.446 225.23 303.915 226.587C303.256 226.336 302.618 226.05 302.005 225.732C302.5 224.565 302.883 223.326 303.098 222.016H303.103Z" fill="#005A5B"/>
<path d="M165.163 135.497C163.866 137.627 165.337 139.286 167.666 138.769C172.497 137.699 177.247 134.494 174.979 131.392C173.621 129.533 167.768 131.218 165.163 135.497Z" fill="#005A5B"/>
<path d="M147.718 142.444C148.668 144.927 157.692 142.736 155.563 138.805C154.076 136.061 146.66 139.675 147.718 142.444Z" fill="#005A5B"/>
<path d="M159.889 144.998C160.696 146.483 166.191 144.328 164.516 142.034C163.347 140.437 158.985 143.345 159.889 144.998Z" fill="#005A5B"/>
<path d="M60.2937 174.398C62.352 175.97 68.7157 169.509 64.9312 167.344C62.2958 165.834 57.9954 172.642 60.2937 174.398Z" fill="#005A5B"/>
<path d="M72.1383 166.326C73.6092 167.539 77.455 163.393 75.1873 161.882C73.3385 160.643 70.4988 164.974 72.1383 166.326Z" fill="#005A5B"/>
</g>
<path d="M88.4833 61.9596C89.7211 59.485 92.2171 60.1534 93.1096 60.491C93.2929 60.5604 93.5073 60.4872 93.5949 60.312V60.312C93.6826 60.1368 93.8957 60.0658 94.0709 60.1535L103.078 64.6592C103.254 64.7468 103.325 64.9599 103.237 65.1351V65.1351C103.149 65.3104 103.219 65.5258 103.382 65.6334C104.159 66.1438 106.062 67.7337 104.727 70.4025C103.698 72.4594 98.4266 82.9984 94.6015 90.6452C92.3402 95.1659 86.8427 96.9965 82.322 94.7352V94.7352C77.8013 92.4738 75.9688 86.9775 78.2302 82.4568C82.1243 74.6719 87.5274 63.8704 88.4833 61.9596Z" fill="#008490"/>
<path d="M106.049 58.8466L96.9393 54.2898L93.3708 59.4859L104.031 64.8183L106.049 58.8466Z" fill="#008490"/>
<path d="M108.024 50.3128L102.71 47.6547L98.5762 54.7891L104.795 57.8997L108.024 50.3128Z" fill="#008490"/>
<path d="M113.594 56.7188L132.579 63.3845" stroke="#008490" stroke-width="2" stroke-linecap="round" stroke-dasharray="5 5"/>
<path d="M115.309 51.6035L136.072 52.54" stroke="#008490" stroke-width="2" stroke-linecap="round" stroke-dasharray="5 5"/>
<path d="M127.082 73.4473L111.275 61.1872" stroke="#008490" stroke-width="2" stroke-linecap="round" stroke-dasharray="5 5"/>
<g clip-path="url(#clip1_2086_32412)">
<path fill-rule="evenodd" clip-rule="evenodd" d="M105.183 69.133C105.81 72.3868 113.352 75.1916 112.498 77.4474C111.885 79.0651 111.193 80.4164 109.885 80.9321C108.535 81.4624 106.986 81.8867 105.48 82.1143C102.945 82.496 104.145 82.544 104.145 82.544C104.145 82.544 106.575 84.9669 102.877 89.075C101.739 90.3397 97.8825 89.8186 97.0966 89.7767C97.3142 90.6024 97.5505 91.4204 95.8444 93.9777C94.6692 95.7406 92.6686 95.5711 89.5567 95.042C88.0967 94.7944 88.992 94.8972 87.3358 94.7459C87.0698 96.1462 85.3368 97.5252 84.2284 97.7004C83.3164 97.8438 82.1928 97.9135 78.8864 98.2064C77.5837 98.3217 76.5448 98.4183 75.2667 98.2007C72.2097 97.6807 68.725 96.5685 65.6372 95.2623C62.4295 93.9062 54.4275 89.4384 53.5082 89.4153C47.9746 89.2801 16.8794 87.3151 10.8093 87.4561C8.86016 87.5011 7.42327 55.1775 8.27658 55.2713C15.4782 56.0511 45.9633 59.8424 51.193 60.5154C54.0089 60.8775 57.3092 60.1609 58.1738 59.5291C61.9177 56.7977 71.5778 50.4921 72.479 50.0595C76.841 47.9646 85.2784 46.0494 89.6061 43.8866C91.2564 43.0605 92.8737 42.4478 94.738 42.2064C97.8805 41.8006 102.711 40.6029 105.812 39.9478C107.039 39.6891 108.023 45.1843 103.468 48.2881C102.584 48.8911 99.5689 49.4616 98.5221 49.5397C94.8188 49.8164 97.5344 50.2071 88.8601 53.8192C86.3624 54.8573 85.1157 55.2779 84.3594 58.8569C84.3068 59.8461 84.036 60.1576 84.9293 60.627C91.3889 64.0182 96.1712 67.3211 102.689 70.5995C105.003 71.7629 102.476 70.9283 105.183 69.133Z" fill="#00646D"/>
</g>
<defs>
<clipPath id="clip0_2086_32412">
<rect width="349" height="233" fill="white" transform="matrix(-1 0 0 1 349.074 0)"/>
</clipPath>
<clipPath id="clip1_2086_32412">
<rect width="106.673" height="62.48" fill="white" transform="translate(13.2617 24.6289) rotate(9.38027)"/>
</clipPath>
</defs>
</svg>
