<svg width="371" height="288" viewBox="0 0 371 288" fill="none" xmlns="http://www.w3.org/2000/svg">
<g clip-path="url(#clip0_2067_33223)">
<path d="M59.5319 94.2376C61.3742 96.6458 61.6883 99.0257 67.2964 104.46L57.1285 110.318C53.8286 106.529 51.4569 101.625 51.2487 97.405C51.0793 93.9409 57.2908 91.3103 59.5319 94.2376Z" fill="#005A5B"/>
<path d="M72.6892 103.888L110.548 122.306C114.247 143.348 107.975 164.407 92.5309 180.396C89.8169 183.207 92.3015 196.752 97.1049 211.622C99.8506 212.512 104.746 213.8 107.114 216.742C111.254 221.887 108.07 224.362 105.423 224.373C103.221 226.58 99.713 225.884 97.3907 224.313C92.7321 225.827 87.8652 226 85.3347 220.495C84.0783 217.762 84.5618 214.952 82.6348 205.202C81.3254 198.585 78.869 192.007 76.5115 180.386C75.3327 174.573 76.4303 172.84 78.142 169.517C84.8371 156.505 69.16 117.701 72.6892 103.884V103.888Z" fill="#005A5B"/>
<path d="M83.9118 186.014C84.9883 179.852 90.5822 180.424 91.4292 185.838C91.5845 191.742 93.7873 201.357 97.1049 211.622C99.8506 212.512 104.746 213.797 107.114 216.742C111.254 221.887 108.07 224.362 105.423 224.373C103.221 226.58 99.713 225.884 97.3907 224.313C92.7321 225.827 87.8652 225.997 85.3347 220.495C84.0783 217.762 84.5618 214.952 82.6348 205.202C81.4066 198.995 79.1685 192.819 76.9486 182.483C76.2639 177.25 82.0978 178.525 83.9118 186.011V186.014Z" fill="#005A5B"/>
<path d="M186.745 120.583C187.603 130.703 184.532 140.813 182.499 146.72C188.376 151.611 209.929 159.082 220.379 165.943C224.438 168.609 224.593 171.816 224.039 175.65C222.44 186.675 219.963 199.09 212.968 207.688C209.206 212.31 202.331 211.975 200.615 207.688C197.866 205.898 197.453 202.921 198.558 199.175C197.425 195.206 198.847 192.155 202.126 189.701C203.89 188.38 206.792 186.081 208.383 184.559C210.797 182.25 213.056 177.038 209.52 175.499C190.437 167.197 163.226 164.467 159.167 160.724C155.109 156.981 157.343 151.36 154.502 143.422L186.749 120.579L186.745 120.583Z" fill="#005A5B"/>
<path d="M156.93 156.908C159.397 156.011 161.814 154.948 164.228 153.62C166.572 152.331 167.133 153.256 164.814 154.665C162.308 156.187 159.87 157.324 157.399 158.253C157.208 157.822 157.053 157.374 156.926 156.908H156.93Z" fill="#005A5B"/>
<path d="M191.488 69.749C186.378 78.6615 184.19 94.6892 184.155 107.617C185.626 113.019 187.027 118.376 186.77 123.605C185.602 147.25 154.085 162.426 132.387 161.621C106.687 160.668 111.988 145.043 75.6325 137.179L48.1746 121.48C51.1851 114.428 54.3297 109.354 60.7424 105.932C79.37 95.9957 101.17 100.399 129.253 90.6779C140.709 79.6856 147.468 57.4749 156.781 44.2227C168.545 48.9438 180.099 57.7291 191.488 69.742V69.749Z" fill="#005A5B"/>
<path d="M174.897 92.4648L185.104 92.6979C184.8 95.1485 184.571 97.6167 184.416 100.05C183.961 105.636 175.991 104.238 174.897 92.4648Z" fill="#005A5B"/>
<path d="M52.6388 113.097L82.0978 131.515C76.2039 152.557 56.514 166.897 31.3184 180.396C27.1115 182.649 21.8917 202.346 19.9153 217.215C22.4458 218.822 25.0927 221.272 26.1198 223.278C28.442 227.815 25.968 230.167 23.2046 230.421C20.9741 232.702 17.2436 232.374 14.8649 231.096C9.32035 233.034 4.77816 231.336 3.68761 226.548C2.74882 222.416 5.93577 219.92 8.45568 210.17C10.1639 203.553 12.3591 192.014 15.3025 180.393C16.7742 174.58 19.3894 172.667 23.134 169.739C38.9381 157.388 42.8098 126.914 52.6388 113.1V113.097Z" fill="#005A5B"/>
<path d="M122.12 139.644L143.303 147.193C140.98 171.869 137.621 200.506 135.948 216.636C135.489 221.053 137.031 222.342 140.899 224.373C147.347 227.759 144.916 235.358 141.217 235.7C139.191 237.981 135.432 237.653 132.937 236.371C127.566 238.31 122.872 236.611 121.354 231.823C120.045 227.695 121.742 224.125 121.619 214.086C121.322 190.403 121.379 149.075 122.12 139.644Z" fill="#005A5B"/>
<path d="M198.554 199.175C197.421 195.206 198.843 192.155 202.122 189.701C203.886 188.38 206.787 186.081 208.379 184.559C210.793 182.25 213.052 177.038 209.516 175.499C206.378 174.132 203.018 172.921 199.581 171.83C196.048 170.467 196.196 167.741 200.597 168.348C192.035 162.914 201.299 160.234 206.83 162.07C203.124 159.715 203.781 157.624 205.835 158.359C211.291 160.866 216.571 163.443 220.375 165.943C224.434 168.609 224.589 171.816 224.035 175.65C222.436 186.675 219.959 199.09 212.964 207.688C209.201 212.31 202.326 211.975 200.611 207.688C197.862 205.898 197.449 202.921 198.554 199.175Z" fill="#005A5B"/>
<path d="M8.45568 210.167C9.94857 204.387 11.812 194.845 14.2225 184.778C15.4719 182.412 17.8753 183.426 17.5471 188.535C23.4269 181.36 28.6926 181.805 27.1574 187.066C24.1328 194.627 21.267 207.049 19.9153 217.215C22.4493 218.822 25.0927 221.272 26.1198 223.278C28.442 227.815 25.968 230.167 23.2046 230.421C20.9741 232.706 17.2436 232.374 14.8649 231.096C9.32035 233.034 4.77816 231.336 3.68761 226.548C2.74882 222.416 5.93577 219.92 8.45568 210.17L8.45568 210.167Z" fill="#005A5B"/>
<path d="M121.619 214.086C121.499 204.588 121.439 192.25 121.456 180.269C121.467 175.191 125.579 176.456 126.027 182.236C127.46 173.454 133.812 175.986 134.885 184.909C137.313 178.956 139.664 180.827 139.47 184.319C138.097 196.89 136.802 208.394 135.951 216.632C135.492 221.05 137.035 222.339 140.903 224.369C147.351 227.755 144.919 235.354 141.22 235.697C139.195 237.981 135.436 237.65 132.941 236.371C127.569 238.31 122.875 236.611 121.358 231.823C120.048 227.692 121.746 224.125 121.622 214.086L121.619 214.086Z" fill="#005A5B"/>
<path d="M14.4657 229.051C14.5116 229.62 14.6598 230.337 14.8857 231.099C14.4304 231.241 14.0069 231.361 13.5904 231.467C13.3716 230.594 13.234 229.722 13.2163 229.108C13.1599 227.166 14.2681 226.643 14.4657 229.048V229.051Z" fill="#005A5B"/>
<path d="M23.1509 230.46C23.4332 229.62 23.5991 228.723 23.585 227.78C23.5567 225.365 24.7073 225.785 24.8343 227.72C24.8873 228.547 24.7884 229.323 24.6261 230.076C24.1779 230.256 23.6944 230.369 23.2038 230.415C23.1861 230.432 23.1685 230.443 23.1509 230.457V230.46Z" fill="#005A5B"/>
<path d="M132.309 233.702C132.369 234.426 132.581 235.382 132.93 236.375C132.478 236.537 132.037 236.65 131.603 236.742C131.278 235.679 131.084 234.521 131.059 233.758C131.003 231.82 132.111 231.293 132.309 233.698V233.702Z" fill="#005A5B"/>
<path d="M141.805 232.678C141.777 230.263 142.927 230.683 143.054 232.618C143.111 233.462 143.008 234.256 142.839 235.022C142.359 235.386 141.83 235.63 141.261 235.69C141.621 234.758 141.822 233.744 141.808 232.678H141.805Z" fill="#005A5B"/>
<path d="M199.555 206.805C199.778 206.279 200.014 205.806 200.233 205.46C201.26 203.814 202.474 203.991 201.306 206.103C201.07 206.53 200.837 207.088 200.628 207.713C200.208 207.42 199.866 207.12 199.559 206.805H199.555Z" fill="#005A5B"/>
<path d="M150.188 144.714C157.166 140.777 171.608 129.065 169.67 120.583C168.032 113.432 155.726 115.145 152.539 120.057C149.19 125.216 149.465 132.536 146.645 141.865C145.134 146.851 146.451 146.826 150.192 144.714H150.188Z" fill="#005A5B"/>
<path d="M186.607 119.149C186.656 119.629 186.699 120.113 186.731 120.593C187.013 123.736 186.896 126.886 186.554 129.908C185.234 133.309 183.402 136.639 181.871 138.486C179.817 140.961 179.164 140.022 178.758 138.454C177.752 134.555 176.199 127.101 177.6 122.613C178.892 118.475 183.932 117.302 186.611 119.149H186.607Z" fill="#005A5B"/>
<path d="M177.247 31.2635C181.218 24.6992 181.087 14.5226 180.829 3.72446C180.674 -2.76924 184.196 0.214544 186.483 5.17928C191.922 16.9873 192.832 26.5248 191.872 33.587C191.392 37.1287 189.49 41.3448 185.615 45.1443L177.244 31.2635H177.247Z" fill="#005A5B"/>
<path d="M187.207 12.6157C188.933 19.1553 190.062 25.2994 189.992 30.5184L186.311 30.2112C187.592 22.6723 187.207 12.6157 187.207 12.6157Z" fill="#005A5B"/>
<path d="M221.84 54.2828C221.755 55.7058 222.5 57.143 224.773 55.6034C227.999 53.4212 230.109 49.9678 230.843 45.501L220.774 37.9656C215.671 37.2488 209.329 36.8498 202.57 36.9557C201.007 33.3398 199.528 30.3666 197.004 29.4132C189.148 26.4471 179.016 26.5954 173.143 27.9478L156.986 43.7672L191.492 69.7455C198.338 72.0937 203.533 73.4567 207.186 73.9016L199.687 59.6995C198.995 58.1988 198.85 56.7758 199.224 55.4269C207.825 57.3796 215.787 57.9269 221.843 54.2793L221.84 54.2828Z" fill="#005A5B"/>
<path d="M173.235 60.4481C175.01 61.7476 176.845 62.9481 178.747 64.0534C179.534 64.5089 178.705 65.6565 177.921 65.2045C176.076 64.1311 174.258 62.9835 172.695 61.5816C171.082 60.1374 171.763 59.3676 173.235 60.4481Z" fill="#005A5B"/>
<path d="M175.648 60.2043C174.455 55.3102 172.934 46.4012 179.234 44.1024C182.23 43.0078 184.976 44.7945 187.757 45.7091C190.764 46.6978 193.164 45.7691 195.931 44.1377C203.406 39.7309 215.737 39.1624 223.865 41.6978L230.839 45.5008C230.105 49.9676 227.995 53.4246 224.769 55.6068C222.496 57.1428 221.751 55.7056 221.836 54.2826C215.593 57.3547 207.765 56.825 199.164 54.8723C193.909 62.2594 206.018 68.0539 206.018 68.0539L207.182 73.905C203.533 73.46 198.335 72.0972 191.488 69.749C189.039 74.0181 187.267 79.9184 186.077 86.3274L175.412 90.1304C172.722 82.136 178.412 71.5462 175.648 60.2043Z" fill="#005A5B"/>
<path d="M176.086 62.4185C180.713 65.3775 185.834 67.8352 191.488 69.749C191.171 70.2999 190.87 70.8896 190.577 71.4934C182.947 68.3613 176.305 64.2335 176.305 64.2335C176.242 63.6226 176.196 63.0541 176.086 62.4185Z" fill="#005A5B"/>
<path d="M173.139 27.9514C169.169 21.387 166.557 15.3771 163.769 5.22871C162.047 -1.03194 159.76 1.401 157.797 6.50344C154.018 16.3376 152.334 27.7077 152.726 35.0913C152.916 38.6612 155.108 42.8491 158.983 46.6486L173.139 27.9514Z" fill="#005A5B"/>
<path d="M164.313 37.3512C163.512 40.9247 159.933 41.9593 157.95 37.9021C154.752 31.3625 157.029 21.3412 161.197 10.3241C161.197 10.3241 163.872 20.6915 167.2 26.3659C164.038 22.7889 161.687 25.2466 163.24 29.4627C160.501 29.3992 160.688 33.4952 164.313 37.3477V37.3512Z" fill="#005A5B"/>
<path d="M189.554 49.6147C198.931 53.4495 220.488 59.2546 223.742 47.3901L226.396 47.6867C226.153 49.0462 224.889 51.4509 224.19 52.8527C223.442 54.3464 224.173 55.7977 226.52 54.1663C225.976 54.6889 225.401 55.1795 224.769 55.6068C222.496 57.1428 221.751 55.7056 221.836 54.2826C215.78 57.9302 207.822 57.3831 199.217 55.4304C198.843 56.7793 198.988 58.2023 199.68 59.7031L204.804 69.4065C198.109 65.6424 188.965 64.9962 183.505 56.8676C178.468 49.3675 182.277 46.638 189.55 49.6147H189.554Z" fill="#005A5B"/>
<path d="M232.912 39.9819C233.674 43.5483 229.421 48.6613 225.698 48.7602C222.063 48.8555 217.75 42.4642 218.445 39.943C218.833 38.5341 220.086 37.4677 224.343 37.3618C230.176 37.2135 232.598 38.52 232.908 39.9819H232.912Z" fill="#005A5B"/>
<path d="M192.557 61.9456C197.276 64.0643 202.813 65.4485 204.588 69.6328C206.078 73.1392 204.348 77.2247 206.681 80.2826C210.179 84.866 216.418 82.991 218.518 78.1711C221.134 72.1611 218.938 65.9852 213.373 62.8178C206.974 59.1737 198.102 58.7217 193.178 59.5162C190.538 59.9435 189.836 60.7274 192.553 61.9492L192.557 61.9456Z" fill="#005A5B"/>
<path d="M193.874 59.417C195.695 59.1805 197.95 59.1063 200.385 59.2723C206.304 60.9848 213.024 63.5131 214.337 69.4983C214.975 72.4044 214.16 73.3578 212.957 69.8691C210.497 62.7292 201.338 60.2716 193.874 59.417Z" fill="#005A5B"/>
<path d="M187.119 36.6732C190.793 36.7014 190.348 43.121 187.263 43.0998C184.186 43.0751 183.646 36.6485 187.119 36.6732Z" fill="#005A5B"/>
<path d="M187.436 30.974C186.321 30.7762 185.068 31.1894 184.338 31.659C182.351 32.9338 182.901 34.8759 185.097 34.3533C186.134 34.1061 186.748 33.8271 187.733 33.5976C189.363 33.2127 189.289 31.3024 187.433 30.974H187.436Z" fill="#005A5B"/>
<path d="M121.721 152.363C121.594 154.895 121.559 157.426 121.59 159.955C121.075 159.796 120.578 159.63 120.094 159.453C120.076 157.179 120.147 154.852 120.412 152.342C120.662 149.937 121.852 149.771 121.725 152.363H121.721Z" fill="#005A5B"/>
<path d="M142.738 153.556C143.073 151.162 144.266 151.035 144.047 153.623C143.864 155.809 143.663 158.602 143.493 160.788C142.989 160.876 142.487 160.954 141.983 161.028C142.156 158.832 142.399 155.979 142.734 153.556H142.738Z" fill="#005A5B"/>
<path d="M187.508 79.9681C187.095 81.4441 186.742 82.9236 186.452 84.3996C173.874 86.8608 155.31 80.7838 144.073 67.7964L145.551 64.8055C143.66 64.9326 141.997 66.9065 140.702 69.3183C139.488 71.5711 138.595 73.6262 139.163 75.3953C141.888 83.8947 163.752 97.4541 184.85 94.9717C187.395 94.6716 188.323 91.4865 188.997 88.4321C189.759 84.9823 190.211 82.1432 187.508 79.9681Z" fill="#005A5B"/>
<path d="M144.217 72.9871C142.844 71.6099 141.782 70.1233 141.203 68.4425C141.52 67.9164 141.863 67.4291 142.216 66.9877C142.473 68.7957 143.331 70.0598 144.87 71.6382C154.243 81.2534 167.898 86.6489 181.366 86.6595C184.955 86.6595 189.215 86.0698 189.43 83.0331C189.632 83.9865 189.603 85.0176 189.438 86.1263C187.549 87.8848 184.045 88.0578 181.264 88.0508C167.623 88.0084 153.827 82.6235 144.217 72.9871Z" fill="#005A5B"/>
<path d="M70.2888 111.501C71.464 110.244 70.7017 108.92 69.05 108.941C65.6301 108.987 61.9703 110.484 63.0714 112.899C63.7314 114.343 67.9277 114.029 70.2888 111.501Z" fill="#005A5B"/>
<path d="M85.0377 106.96C84.7306 105.152 78.3179 105.406 79.2285 108.355C79.8637 110.413 85.3765 108.976 85.0377 106.96Z" fill="#005A5B"/>
<path d="M63.0043 116.172C62.3091 115.237 58.7551 117.235 60.1209 118.641C61.0738 119.622 63.7808 117.214 63.0043 116.172Z" fill="#005A5B"/>
<path d="M78.1167 104.622C77.7709 103.51 73.7546 104.22 74.5804 105.999C75.1557 107.239 78.505 105.865 78.1167 104.622Z" fill="#005A5B"/>
<path d="M97.6156 102.977C97.6897 101.815 94.2628 101.388 94.3263 103.054C94.3792 104.414 97.5344 104.273 97.6156 102.977Z" fill="#005A5B"/>
</g>
<path d="M206 252.173V249L360.688 277.558L371 284.697V287.077H243.284L206 252.173Z" fill="#A39391"/>
<path d="M328.957 249H206L244.077 284.697H371L328.957 249Z" fill="#008490"/>
<path d="M234.556 270.418L219.484 256.139H227.417L242.489 270.418H234.556Z" fill="white"/>
<path d="M257.035 269.33C259.414 270.019 270.525 269.483 272.991 269.233C273.391 255.838 264.305 242.374 260.05 229.664C255.08 234.095 253.802 241.556 255.163 248.059C256.52 254.562 260.092 260.362 263.599 266.014C261.62 265.917 257.467 266.606 257.035 269.335V269.33Z" fill="#005A5B"/>
<path d="M268.1 157.366C268.1 157.366 265.095 148.555 264.551 148.018C264.008 147.482 258.731 158.8 258.731 158.8C258.731 158.8 250.556 172.611 250.556 178.892C250.556 185.173 255.6 192.703 261.276 196.473C266.953 200.238 278.839 199.881 278.839 199.881C278.839 199.881 290.368 198.267 295.055 195.395C299.737 192.523 306.227 184.452 306.227 179.248C306.227 172.431 297.828 149.471 296.57 149.651C295.311 149.832 288.464 158.083 288.464 158.083C288.464 158.083 277.474 155.932 268.105 157.366H268.1Z" fill="#005A5B"/>
<path d="M261.849 196.825C261.849 196.825 257.223 211.537 257.041 217.277C256.86 223.017 262.086 272.706 265.328 271.809C268.57 270.912 270.373 258.895 270.373 258.895C270.373 258.895 270.614 272.124 272.774 271.929C274.27 271.795 275.826 269.621 276.012 268.331L279.301 268.627C279.301 268.627 278.297 271.481 283.342 271.828C288.386 272.174 308.383 271.633 309.103 270.736C309.823 269.839 325.249 254.469 323.517 244.548C320.632 228.045 298.392 217.772 297.755 214.771C297.119 211.769 294.513 194.498 294.513 194.498L261.849 196.825Z" fill="#005A5B"/>
<path d="M342.626 190.914C340.661 192.926 338.459 194.762 336.318 196.635C332.806 199.707 329.448 202.875 327.534 207.061C325.114 212.352 325.416 218.467 326.35 224.202C327.283 229.942 328.798 235.645 328.654 241.459C328.37 252.962 320.934 263.993 310.352 268.623L314.681 261.925C315.03 260.746 315.318 259.553 315.555 258.35C318.583 243.003 313.065 227.588 314.124 212.172C314.867 201.459 319.981 191.418 328.426 184.892C330.266 183.463 332.263 182.205 334.409 181.141C336.286 180.216 338.302 179.425 340.392 179.466C342.482 179.508 344.67 180.535 345.562 182.422C346.927 185.308 344.865 188.62 342.626 190.909V190.914Z" fill="#005A5B"/>
<path d="M266.648 190.798C271.065 194.489 277.717 195.285 282.887 192.736C284.959 191.714 286.831 190.155 287.843 188.083C288.856 186.016 288.888 183.402 287.597 181.497C286.343 179.647 284.104 178.722 281.916 178.231C277.782 177.302 273.374 177.607 269.407 179.087C266.666 180.114 263.852 182.126 263.624 185.035C263.452 187.283 264.92 189.35 266.652 190.798H266.648Z" fill="#005A5B"/>
<path d="M269.346 207.717C272.064 205.006 275.413 203.193 278.683 205.806C281.159 207.781 283.017 210.445 284.048 213.369C284.262 213.979 285.074 218.304 285.27 218.253C281.154 221.079 274.869 227.036 271.595 231.967C268.826 227.272 265.635 222.809 262.077 218.637C261.631 218.114 264.608 213.789 265.003 213.207C266.053 211.648 267.563 209.488 269.346 207.712V207.717Z" fill="#005A5B"/>
<path d="M272.542 233.793C272.57 233.335 271.859 233.211 271.827 233.678C271.302 241.864 270.563 250.033 269.621 258.182C269.542 258.247 269.49 258.344 269.504 258.474C269.518 258.594 269.532 258.714 269.546 258.839C269.142 262.271 268.705 265.703 268.227 269.126C268.162 269.583 268.877 269.704 268.942 269.241C269.281 266.799 269.602 264.352 269.904 261.906C270.252 264.625 270.684 267.331 271.209 270.028C271.297 270.481 272.017 270.407 271.929 269.954C271.214 266.272 270.666 262.567 270.275 258.834C271.251 250.509 272.013 242.16 272.547 233.793H272.542Z" fill="#005A5B"/>
<path d="M294.821 231.676C295.207 231.417 294.779 230.835 294.394 231.098C288.676 234.965 282.726 239.225 280.756 246.176C280.152 248.299 280.096 250.413 280.412 252.485C278.494 257.855 276.854 263.318 275.498 268.859C275.386 269.312 276.102 269.423 276.213 268.974C277.458 263.877 278.958 258.859 280.686 253.905C281.755 258.521 284.509 262.92 287.031 266.763C284.463 267.083 281.982 267.712 279.567 268.669C279.135 268.84 279.395 269.511 279.832 269.34C282.368 268.336 284.974 267.693 287.691 267.411C287.974 267.383 288.091 267.064 287.947 266.837C284.031 260.88 279.906 254.298 281.337 246.856C282.684 239.863 289.335 235.381 294.826 231.672L294.821 231.676Z" fill="#005A5B"/>
<path d="M290.868 227.123C290.45 229.519 289.8 231.836 288.917 234.103C288.75 234.533 289.41 234.833 289.577 234.399C290.483 232.077 291.152 229.695 291.584 227.239C291.663 226.781 290.952 226.665 290.868 227.123Z" fill="#005A5B"/>
<path d="M258.861 232.074C258.81 231.611 258.09 231.685 258.141 232.148C259.284 242.569 260.692 252.957 262.368 263.303C262.443 263.761 263.163 263.687 263.088 263.23C261.412 252.883 260.004 242.495 258.861 232.074Z" fill="#005A5B"/>
<path d="M264.528 269.895C264.064 268.576 263.604 267.263 263.139 265.945C262.986 265.505 262.313 265.769 262.466 266.208C262.93 267.526 263.39 268.84 263.855 270.158C264.008 270.598 264.682 270.334 264.528 269.895Z" fill="#005A5B"/>
<path d="M317.98 232.379C317.673 232.032 317.088 232.458 317.399 232.804C321.482 237.411 322.193 243.734 320.957 249.576C319.494 256.49 315.049 262.466 310.975 268.077C310.701 268.451 311.263 268.909 311.537 268.53C315.736 262.739 320.014 256.763 321.668 249.691C323.062 243.752 322.114 237.046 317.98 232.379Z" fill="#005A5B"/>
<path d="M261.993 218.272C261.649 217.735 261.306 217.194 260.962 216.658C260.711 216.264 260.13 216.695 260.381 217.083L261.413 218.697C261.663 219.09 262.244 218.66 261.993 218.272Z" fill="#005A5B"/>
<path d="M287.82 215.87C287.012 216.485 286.204 217.101 285.395 217.716C285.024 217.998 285.451 218.581 285.823 218.294C286.631 217.679 287.439 217.064 288.248 216.448C288.619 216.166 288.192 215.584 287.82 215.87Z" fill="#005A5B"/>
<path d="M293.915 195.477C292.508 196.8 290.998 197.984 289.377 199.039C288.987 199.293 289.414 199.871 289.805 199.617C291.426 198.567 292.94 197.378 294.343 196.056C294.677 195.741 294.254 195.158 293.915 195.477Z" fill="#005A5B"/>
<path d="M267.409 157.537C265.848 157.833 264.324 158.642 262.963 159.443C262.773 159.554 262.949 159.831 263.14 159.766C264.598 159.262 266.178 158.827 267.553 158.129C267.836 157.981 267.776 157.472 267.409 157.542V157.537Z" fill="#005A5B"/>
<path d="M295.799 150.507C293.272 153.171 291.507 157.426 291.079 161.038C291.056 161.219 291.335 161.32 291.395 161.135C291.976 159.415 292.501 157.694 293.23 156.024C294.047 154.156 295.251 152.546 296.254 150.789C296.412 150.507 295.998 150.303 295.799 150.511V150.507Z" fill="#005A5B"/>
<path d="M295.843 160.094C295.555 160.043 295.541 160.043 295.249 160.085C295.044 160.117 294.742 160.418 294.812 160.256C295.286 159.123 295.764 157.99 296.224 156.847C296.34 156.561 296.034 156.348 295.783 156.491C294.724 157.111 293.679 157.814 292.898 158.776C292.782 158.924 292.973 159.118 293.121 159.012C293.869 158.489 294.571 157.939 295.328 157.444C294.905 158.438 294.487 159.433 294.064 160.427C294.009 160.561 294.046 160.7 294.153 160.793C294.245 160.871 294.334 160.955 294.427 161.033C294.524 161.121 294.696 161.126 294.803 161.042C295.69 160.871 296.038 161.079 295.857 161.667C295.82 162.037 295.788 162.402 295.769 162.772C295.75 163.087 296.22 163.184 296.266 162.856C296.35 162.264 296.884 160.279 295.839 160.094H295.843Z" fill="#005A5B"/>
<path d="M283.246 184.387C282.995 184.138 282.53 184.48 282.688 184.794C283.701 186.839 279.13 187.44 278.378 187.176C277.23 186.774 276.664 185.447 276.222 184.383C276.408 183.67 276.399 182.801 276.269 182.135C276.213 181.843 275.725 181.672 275.614 182.028C275.442 182.588 275.335 183.282 275.363 183.929C275.331 183.953 275.303 183.976 275.275 184.003C274.378 184.989 273.496 185.909 272.246 186.432C270.565 187.135 269.38 185.854 268.567 184.623C268.414 184.387 268.117 184.609 268.173 184.841C268.553 186.385 269.738 187.301 271.313 187.412C272.999 187.528 274.392 186.344 275.512 185.183C276.506 187.236 277.881 188.666 280.44 188.018C281.764 187.681 284.909 186.034 283.236 184.387H283.246Z" fill="#005A5B"/>
<path d="M276.647 190.284C275.983 190.256 275.356 190.164 274.761 189.863C274.153 189.558 273.86 188.966 273.326 188.6C273.173 188.494 272.903 188.545 272.889 188.767C272.834 189.558 273.563 190.27 274.199 190.649C274.984 191.116 275.844 191.315 276.731 191.061C277.102 190.955 277.047 190.302 276.647 190.289V190.284Z" fill="#005A5B"/>
<path d="M277.955 178.037C278.605 178.056 279.376 178.181 279.664 178.768C279.878 179.203 279.725 179.73 279.474 180.146C279.051 180.845 278.387 181.358 277.681 181.77C277.063 182.131 276.371 182.427 275.66 182.38C274.964 182.334 274.318 181.955 273.83 181.455C273.342 180.956 272.994 180.345 272.673 179.726C272.562 179.508 272.451 179.268 272.502 179.032C272.59 178.634 273.064 178.477 273.463 178.398C274.94 178.116 276.45 177.996 277.955 178.037Z" fill="#005A5B"/>
<path d="M264.572 172.634C264.019 174.225 264.302 176.01 265.334 177.361C265.505 177.588 265.719 177.814 266.016 177.874C266.509 177.976 266.969 177.597 267.266 177.222C268.251 175.992 268.678 174.424 268.432 172.958C268.348 172.463 268.181 171.963 267.837 171.57C267.493 171.177 266.941 170.904 266.374 170.95C265.459 171.024 264.841 171.852 264.572 172.634Z" fill="#005A5B"/>
<path d="M290.67 177.061C291.07 176.071 291.218 174.98 291.102 173.916C291.037 173.338 290.889 172.755 290.554 172.279C290.22 171.802 289.676 171.446 289.096 171.441C288.366 171.441 287.735 171.978 287.33 172.584C286.485 173.842 286.323 175.53 286.912 176.932C287.126 177.436 287.437 177.908 287.883 178.222C288.329 178.537 288.924 178.671 289.439 178.486C290.048 178.264 290.429 177.662 290.67 177.061Z" fill="#005A5B"/>
<path d="M265.55 182.74C258.592 182.819 251.828 184.613 245.836 187.68C245.66 187.768 245.827 188.036 246.008 187.953C252.112 185.076 258.722 183.591 265.615 183.272C266.01 183.254 265.94 182.736 265.55 182.74Z" fill="#005A5B"/>
<path d="M264.5 185.931C259.131 187.578 254.434 190.265 250.259 193.632C250.077 193.776 250.3 194.048 250.486 193.905C254.639 190.607 259.521 188.193 264.728 186.445C265.104 186.32 264.881 185.816 264.5 185.931Z" fill="#005A5B"/>
<path d="M311.641 188.035C304.26 185.131 295.587 184.409 287.719 184.867C287.398 184.886 287.454 185.367 287.77 185.357C291.778 185.242 295.768 185.39 299.745 185.88C303.763 186.375 307.609 187.439 311.543 188.336C311.72 188.378 311.803 188.1 311.636 188.035H311.641Z" fill="#005A5B"/>
<path d="M306.688 195.03C300.477 191.269 293.682 188.388 286.635 186.57C286.315 186.487 286.245 186.977 286.551 187.07C293.51 189.165 300.148 191.894 306.548 195.335C306.743 195.441 306.864 195.141 306.688 195.03Z" fill="#005A5B"/>
<path d="M265.51 271.248C265.264 270.161 265.092 269.093 265.134 267.973C265.143 267.728 264.776 267.654 264.748 267.909C264.609 269.069 264.66 270.249 265.032 271.364C265.12 271.627 265.57 271.521 265.51 271.248Z" fill="#005A5B"/>
<path d="M266.029 268.848C265.959 269.504 265.889 270.157 265.862 270.818C265.848 271.119 266.298 271.206 266.335 270.897C266.41 270.24 266.447 269.583 266.484 268.922C266.498 268.635 266.066 268.552 266.033 268.848H266.029Z" fill="#005A5B"/>
<path d="M272.881 269.71C272.853 269.206 272.895 268.701 272.904 268.197C272.904 268.188 272.914 268.183 272.914 268.174C272.941 268.114 272.932 268.045 272.895 267.989C272.886 267.975 272.876 267.966 272.867 267.952C272.76 267.799 272.556 267.883 272.514 268.035C272.221 269.081 272.221 270.464 272.574 271.49C272.667 271.768 273.076 271.648 273.062 271.37C273.025 270.815 272.914 270.265 272.881 269.705V269.71Z" fill="#005A5B"/>
<path d="M273.405 269.838C273.358 270.152 273.307 270.467 273.275 270.781C273.242 271.068 273.674 271.142 273.72 270.855C273.772 270.541 273.809 270.226 273.846 269.912C273.878 269.625 273.446 269.556 273.405 269.838Z" fill="#005A5B"/>
<path d="M283.125 269.413C281.987 269.607 280.946 270.024 280.017 270.704C279.794 270.865 280.045 271.208 280.268 271.046C281.141 270.417 282.103 269.964 283.157 269.737C283.362 269.695 283.334 269.376 283.125 269.413Z" fill="#005A5B"/>
<path d="M259.604 267.174C258.726 267.466 257.992 268.021 257.504 268.812C257.384 269.006 257.704 269.191 257.844 269.02C258.359 268.381 258.977 267.845 259.725 267.484C259.915 267.392 259.808 267.109 259.604 267.179V267.174Z" fill="#005A5B"/>
<path d="M259.052 268.924C259.029 268.979 259.001 269.035 258.978 269.09C258.866 269.345 259.233 269.497 259.368 269.266C259.4 269.211 259.428 269.16 259.461 269.104C259.6 268.859 259.173 268.656 259.057 268.924H259.052Z" fill="#005A5B"/>
<path d="M342.626 190.914C340.661 192.926 338.459 194.762 336.318 196.635C335.208 196.136 334.172 195.47 333.266 194.66C330.484 192.181 328.881 188.601 328.426 184.892C330.266 183.463 332.263 182.205 334.409 181.141C336.286 180.216 338.302 179.425 340.392 179.466C342.482 179.508 344.67 180.535 345.562 182.422C346.927 185.308 344.865 188.62 342.626 190.909V190.914Z" fill="#005A5B"/>
<defs>
<clipPath id="clip0_2067_33223">
<rect width="233" height="243" fill="white"/>
</clipPath>
</defs>
</svg>
