<svg width="19" height="16" viewBox="0 0 19 16" fill="none" xmlns="http://www.w3.org/2000/svg">
<path d="M1.21418 8.96702L7.69859 15.4516C7.88369 15.6367 8.1304 15.7383 8.39345 15.7383C8.6568 15.7383 8.90336 15.6365 9.08846 15.4516L9.6772 14.8627C9.86215 14.6779 9.96405 14.431 9.96405 14.1678C9.96405 13.9048 9.86215 13.6496 9.6772 13.4648L5.89428 9.67356L17.9128 9.67356C18.4547 9.67356 18.8828 9.24934 18.8828 8.70732V7.8748C18.8828 7.33278 18.4547 6.86579 17.9128 6.86579L5.85137 6.86579L9.67705 3.05339C9.86201 2.86829 9.9639 2.62815 9.9639 2.36495C9.9639 2.10204 9.86201 1.8584 9.67705 1.67344L9.08832 1.08646C8.90321 0.90136 8.65665 0.800488 8.39331 0.800488C8.13025 0.800488 7.88355 0.902673 7.69844 1.08777L1.21403 7.57219C1.02849 7.75787 0.926453 8.00574 0.927183 8.26924C0.926599 8.53361 1.02849 8.78163 1.21418 8.96702Z" fill="white"/>
</svg>
