<svg width="351" height="245" viewBox="0 0 351 245" fill="none" xmlns="http://www.w3.org/2000/svg">
<g clip-path="url(#clip0_2067_33070)">
<path d="M25.6899 185.51C25.5814 183.585 26.3182 183.035 27.3498 184.632C23.41 173.736 32.7721 164.175 41.2931 163.691C43.75 163.55 43.2813 164.601 42.0085 165.085C45.9627 164.593 50.5498 167.093 51.9288 171.425C53.387 176.008 50.6077 180.573 47.6038 182.536C46.1117 183.513 45.2269 182.772 45.8961 180.693C40.8846 184.765 46.0466 190.612 51.2026 186.886L52.076 196.48C48.9398 200.171 42.8969 202.062 38.8457 200.063C36.5472 198.929 38.3955 198.437 39.0493 198.532C30.9095 197.553 25.9285 189.722 25.6899 185.51Z" fill="#005A5B"/>
<path d="M250.162 189.246C285.122 196.111 298.902 203.155 309.04 205.259C314.934 206.483 319.163 207.645 324.469 207.343C333.616 206.821 341.124 208.157 347.937 217.008C352.943 223.51 352.503 228.839 341.405 229.279C337.769 233.047 330.389 232.228 325.159 229.371C317.472 233.282 315.107 228.071 309.883 226.586C292.032 221.513 236.036 226.735 224.549 219.629C217.511 215.273 214.901 204.676 211.852 197.606L250.162 189.251V189.246Z" fill="#005A5B"/>
<path d="M268.415 105.725C276.398 129.458 279.309 159.467 273.012 181.788C270.223 191.673 274.079 200.78 267.583 211.019L200.074 228.01C143.05 237.614 120.144 223.244 72.7784 230.897L67.1859 170.873C79.4027 155.72 105.256 149.556 145.134 144.575C158.919 142.855 169.66 137.347 178.751 128.741C178.975 112.37 183.24 95.0819 188.746 75.5312L268.42 105.72L268.415 105.725Z" fill="#005A5B"/>
<path d="M220.785 114.442L269.274 108.488C270.112 111.171 270.903 113.899 271.613 116.695C260.306 124.286 241.832 124.952 220.78 121.64V114.442H220.785Z" fill="#005A5B"/>
<path d="M239.186 202.412C236.229 201.756 236.091 199.627 239.86 200.128C252.031 201.746 261.852 204.198 269.656 207.004C269.1 208.652 268.349 209.809 267.578 211.017L205.988 226.631L198.674 212.722L239.181 202.407L239.186 202.412Z" fill="#005A5B"/>
<path d="M225.129 199.689C260.089 205.618 273.868 212.298 284.006 214.126C289.9 215.191 294.129 216.24 299.436 215.795C308.583 215.027 316.091 216.163 322.904 224.83C327.909 231.199 327.271 235.775 320.11 237.173C316.474 241.038 309.094 240.419 303.864 237.7C296.177 241.816 290.074 236.769 284.854 235.427C267.004 230.83 211.007 237.552 199.521 230.753C192.483 226.586 189.873 216.056 186.824 209.073L225.134 199.695L225.129 199.689Z" fill="#005A5B"/>
<path d="M104.84 181.95C103.441 180.66 104.33 179.359 106.255 180.757C118.901 189.936 120.704 213.403 100.208 225.382C101.607 226.483 102.399 227.256 103.594 228.561C94.1966 228.489 84.2016 229.047 72.7764 230.895L69.6916 197.794L104.84 181.95Z" fill="#005A5B"/>
<path d="M89.0966 175.91C116.87 178.06 122.616 211.873 95.7311 224.636C99.2347 226.929 103.269 230.523 104.608 233.579C107.667 240.572 103.035 242.384 98.6525 241.749C95.2203 245.594 89.6227 245.794 84.4285 243.582C77.6102 245.942 72.4467 243.853 67.1861 238.831C52.5332 238.852 40.5871 239.548 29.8208 238.36C21.1741 237.403 19.8257 228.03 25.6634 221.579C30.3162 216.445 35.066 214.888 38.682 207.645C49.2645 186.435 57.5435 174.205 79.0964 160.967L89.0966 175.91Z" fill="#005A5B"/>
<path d="M54.0853 216.551C67.8802 215.092 86.9612 216.321 97.9727 223.472C97.2525 223.877 96.5069 224.266 95.7305 224.635C95.8378 224.706 95.9501 224.788 96.0574 224.86C84.7753 218.292 67.3746 217.739 54.264 218.374C50.8574 218.537 50.7961 216.904 54.0904 216.556L54.0853 216.551Z" fill="#005A5B"/>
<path d="M38.6826 207.644C40.2965 204.403 41.8594 201.378 43.4273 198.521C51.5071 183.773 59.638 173.657 75.4554 163.28C76.5842 162.492 77.7691 161.739 79.0153 161.017C93.3975 152.683 115.349 148.296 145.135 144.579C158.92 142.859 169.66 137.351 178.751 128.745C178.976 112.374 183.241 95.0858 188.747 75.5352L224.258 114.831C213.088 132.324 224.202 152.668 220.79 157.383C219.002 159.855 217.235 154.818 204.38 153.036C196.683 151.971 199.911 154.915 202.776 157.239C225.218 175.433 236.097 195.542 227.072 198.608C202.378 206.999 215.657 218.758 227.792 225.736C235.08 229.923 238.635 233.973 228.354 234.085C214.922 234.234 204.109 233.24 199.441 230.911C196.091 229.242 192.087 223.585 188.624 214.181C185.723 206.548 179.722 207.158 173.925 209.257C156.289 215.645 140.416 216.951 129.307 215.558C122.494 214.703 122.234 212.41 122.586 207.68C123.623 193.668 120.063 182.232 108.878 176.647C98.9492 171.696 87.3402 175.781 92.611 184.372C94.4088 187.305 97.0953 189.516 98.6428 192.629C103.781 202.965 98.0401 216.162 88.6375 221.563C79.1378 218.574 68.3869 217.939 56.1037 218.313C43.7184 218.691 35.2862 214.468 38.6979 207.634L38.6826 207.644Z" fill="#005A5B"/>
<path d="M189.862 88.9234C184.678 61.8474 189.903 36.3225 204.448 15.4255C207.722 10.726 211.052 10.9922 213.785 15.4255C218.131 22.4799 221.737 30.594 224.479 39.7934C230.705 38.6518 237.003 38.6723 243.346 39.5989C246.497 31.321 249.909 23.1455 254.24 15.4255C256.477 11.4325 258.959 11.6782 261.63 15.4255C270.854 28.3569 274.69 45.2711 273.689 66.3063C273.546 69.3318 274.424 71.4614 276.493 74.3846C281.089 80.8963 285.578 83.7426 285.507 92.1178C285.405 103.882 274.633 117.796 252.835 120.54C226.144 123.904 195.087 116.24 189.862 88.9234Z" fill="#005A5B"/>
<path d="M198.28 87.2382C203.832 78.1003 213.995 79.9995 234.001 87.0847C242.831 90.2125 249.312 87.8884 251.177 84.9601C253.689 81.0132 248.5 74.5321 246.105 70.109C242.142 62.7884 247.07 60.2697 253.327 66.8173C259.466 73.2369 258.623 78.7146 272.403 84.4943C276.269 86.1171 282.393 84.0489 281.877 81.3203C284.042 84.2588 285.544 87.2587 285.503 92.122C285.401 103.886 274.63 117.8 252.831 120.544C236.13 122.648 217.724 120.432 205.001 111.79C198.234 107.081 193.05 95.8387 198.275 87.2433L198.28 87.2382Z" fill="#005A5B"/>
<path d="M213.397 22.7509C215.47 27.6604 217.002 32.6824 217.917 37.858C218.443 40.8528 218.039 41.9995 215.148 43.8374C208.509 48.0608 201.788 53.6869 197.314 59.5434C196.869 45.7725 200.644 32.237 208.34 23.0069C209.627 21.4609 210.644 20.7954 211.461 20.7595C212.171 20.7288 212.707 21.0974 213.402 22.7458L213.397 22.7509Z" fill="#005A5B"/>
<path d="M216 43.2539C215.74 43.4433 215.464 43.6328 215.142 43.8375C210.464 46.8118 205.76 50.4926 201.817 54.4498C202.369 45.1583 204.411 36.2354 210.183 28.3107C210.806 27.4558 211.347 26.9745 211.766 27.0206C212.139 27.0667 212.389 27.5274 212.793 28.5974C214.544 33.2252 215.454 38.1653 215.995 43.2539H216Z" fill="#005A5B"/>
<path d="M255.349 23.7605C252.887 28.4856 250.951 33.3643 249.628 38.4529C248.862 41.3965 249.021 42.789 251.906 44.637C260.563 50.1812 268.699 58.5718 268.699 58.5718C269.532 45.9424 266.769 33.4923 260.374 24.426C259.215 22.7827 258.26 22.0353 257.448 21.9329C256.743 21.8459 256.176 22.1684 255.354 23.7554L255.349 23.7605Z" fill="#005A5B"/>
<path d="M257.413 30.1225C257.908 29.0423 258.199 28.5765 258.572 28.5611C258.991 28.5406 259.491 29.0935 260.043 30.0355C264.808 38.211 266.218 47.0315 266.187 56.1132C263.291 53.3692 258.235 48.8489 252.857 45.2654C253.832 40.1358 255.344 34.6735 257.423 30.1276L257.413 30.1225Z" fill="#005A5B"/>
<path d="M221.412 90.7872C222.346 91.0995 223.219 91.5091 224.052 91.9544C232.019 96.2444 237.995 105.976 250.682 106.237C256.198 106.35 263.225 103.207 263.838 96.9406C263.966 95.6403 265.922 95.6199 265.886 96.9406C265.672 104.435 257.474 108.587 250.564 108.49C237.071 108.3 231.018 98.0976 223.424 93.91C222.622 93.4646 221.452 93.7564 220.656 93.2291C218.133 91.5654 219.45 90.132 221.412 90.7872Z" fill="#005A5B"/>
<path d="M264.584 96.1985C264.839 94.9033 266.79 95.3641 266.576 96.6644C266.116 99.4544 267.102 101.195 268.726 102.081C271.428 103.55 275.146 102.767 277.199 100.253C277.526 99.8537 277.414 99.05 277.766 98.6455C279.686 96.4698 281.045 97.2633 279.957 99.6489C279.794 100.007 279.589 100.35 279.37 100.683C276.887 104.456 271.218 106.555 267.291 103.867C264.916 102.244 263.92 99.5568 264.579 96.1934L264.584 96.1985Z" fill="#005A5B"/>
<path d="M274.783 85.5386C275.886 90.7091 270.753 97.5331 265.37 97.6765C260.109 97.8147 253.894 90.7091 254.89 86.6239C255.395 84.5659 257.954 82.7434 265.043 82.3032C270.676 81.9551 274.333 83.4192 274.783 85.5335V85.5386Z" fill="#005A5B"/>
<path d="M229.337 69.7263C234.439 69.5164 234.255 78.4752 229.97 78.6544C225.695 78.8335 224.51 69.9259 229.337 69.7263Z" fill="#005A5B"/>
<path d="M229.386 61.7803C227.824 61.5806 226.113 62.241 225.132 62.9475C222.461 64.8519 223.355 67.519 226.368 66.6436C227.793 66.229 228.625 65.7989 229.979 65.4099C232.216 64.7648 231.981 62.113 229.386 61.7803Z" fill="#005A5B"/>
<path d="M269.394 68.7849C264.292 68.575 264.475 77.5338 268.755 77.7129C273.03 77.8921 274.215 68.9845 269.394 68.7849Z" fill="#005A5B"/>
<path d="M268.299 60.5362C269.862 60.3365 271.573 60.9969 272.553 61.7034C275.224 63.6077 274.331 66.2749 271.317 65.3995C269.892 64.9848 269.06 64.5548 267.706 64.1657C265.469 63.5207 265.704 60.8689 268.299 60.5362Z" fill="#005A5B"/>
<path d="M99.0742 238.376C98.7984 233.554 100.55 234.306 100.979 238.161C101.051 238.781 101.148 240.634 100.673 241.847C100.009 241.878 99.3295 241.847 98.6503 241.745C99.207 240.767 99.1099 239.001 99.0742 238.371V238.376Z" fill="#005A5B"/>
<path d="M83.1306 240.261C83.2481 241.075 83.6413 242.616 84.2031 243.645C83.5238 243.87 82.865 244.049 82.2164 244.187C81.7107 243.199 81.292 241.274 81.2205 240.43C80.8783 236.565 82.4513 235.479 83.1306 240.261Z" fill="#005A5B"/>
<path d="M320.355 233.984C320.206 229.157 321.943 229.955 322.265 233.825C322.341 234.767 322.336 235.684 322.265 236.58C321.626 236.815 320.922 237.015 320.125 237.173C320.298 236.139 320.385 235.074 320.35 233.984H320.355Z" fill="#005A5B"/>
<path d="M305.029 234.016C305.82 229.255 307.363 230.371 306.934 234.231C306.76 235.782 306.372 237.23 305.841 238.587C305.182 238.336 304.544 238.05 303.931 237.732C304.426 236.565 304.809 235.326 305.024 234.016H305.029Z" fill="#005A5B"/>
<path d="M167.089 147.497C165.792 149.627 167.263 151.286 169.592 150.769C174.423 149.699 179.173 146.494 176.905 143.392C175.547 141.533 169.694 143.218 167.089 147.497Z" fill="#005A5B"/>
<path d="M149.643 154.444C150.593 156.927 159.618 154.736 157.488 150.805C156.002 148.061 148.586 151.675 149.643 154.444Z" fill="#005A5B"/>
<path d="M161.815 156.998C162.622 158.483 168.117 156.328 166.442 154.034C165.272 152.437 160.911 155.345 161.815 156.998Z" fill="#005A5B"/>
<path d="M62.2195 186.398C64.2778 187.97 70.6415 181.509 66.8569 179.344C64.2216 177.834 59.9212 184.642 62.2195 186.398Z" fill="#005A5B"/>
<path d="M74.064 178.326C75.535 179.539 79.3808 175.393 77.1131 173.882C75.2643 172.643 72.4246 176.974 74.064 178.326Z" fill="#005A5B"/>
</g>
<path d="M88.2985 84.2737C90.8636 83.236 92.2938 85.388 92.74 86.2316C92.8316 86.4047 93.0408 86.4917 93.2224 86.4182V86.4182C93.404 86.3447 93.6108 86.4324 93.6843 86.614L97.4612 95.9506C97.5347 96.1322 97.447 96.339 97.2654 96.4125V96.4125C97.0838 96.4859 96.9933 96.6934 97.045 96.8824C97.29 97.7788 97.6662 100.23 94.8999 101.349C92.7679 102.212 81.8439 106.631 73.9177 109.837C69.2319 111.733 63.8976 109.47 62.002 104.784V104.784C60.1064 100.099 62.3667 94.7639 67.0526 92.8683C75.1218 89.604 86.3179 85.0749 88.2985 84.2737Z" fill="#008490"/>
<path d="M103.534 93.5538L99.7145 84.1114L93.6016 85.6492L98.0715 96.6988L103.534 93.5538Z" fill="#008490"/>
<path d="M110.662 88.4609L108.434 82.9528L100.615 85.5704L103.222 92.0161L110.662 88.4609Z" fill="#008490"/>
<path d="M110.602 96.9473L120.435 114.503" stroke="#008490" stroke-width="2" stroke-linecap="round" stroke-dasharray="5 5"/>
<path d="M115.27 94.2441L130.225 108.678" stroke="#008490" stroke-width="2" stroke-linecap="round" stroke-dasharray="5 5"/>
<path d="M109.652 118.416L105.903 98.7664" stroke="#008490" stroke-width="2" stroke-linecap="round" stroke-dasharray="5 5"/>
<g clip-path="url(#clip1_2067_33070)">
<path fill-rule="evenodd" clip-rule="evenodd" d="M96.08 100.7C94.3983 103.555 98.2011 110.647 96.0681 111.773C94.5388 112.582 93.1258 113.138 91.8036 112.659C90.4406 112.165 88.9979 111.458 87.7178 110.633C85.564 109.243 86.4322 110.073 86.4322 110.073C86.4322 110.073 86.6526 113.497 81.1622 114.133C79.4718 114.329 76.9239 111.388 76.3621 110.837C75.9793 111.6 75.6156 112.37 72.6447 113.16C70.5973 113.705 69.2087 112.255 67.2244 109.8C66.293 108.649 66.8965 109.318 65.7543 108.109C64.6287 108.984 62.4168 108.872 61.4695 108.271C60.6906 107.775 59.8016 107.084 57.1278 105.118C56.0745 104.343 55.2312 103.728 54.4164 102.719C52.4672 100.308 50.5888 97.169 49.1364 94.1472C47.6271 91.0087 44.5794 82.3655 43.9051 81.7403C39.8437 77.9795 17.8184 55.9418 13.1719 52.0333C11.68 50.778 31.9782 25.5816 32.5563 26.2162C37.4426 31.5637 57.8025 54.5678 61.2803 58.5311C63.153 60.6649 66.1026 62.3099 67.1689 62.4077C71.7836 62.8348 83.1996 64.4933 84.1617 64.7647C88.8191 66.078 96.4147 70.2211 101.091 71.4607C102.875 71.9325 104.494 72.5424 106.052 73.5942C108.677 75.3681 113.093 77.6643 115.852 79.2237C116.944 79.8407 114.048 84.6135 108.578 83.9295C107.517 83.7974 104.878 82.2311 104.041 81.5975C101.08 79.356 102.858 81.4449 93.963 78.418C91.403 77.5449 90.1897 77.036 87.2555 79.2204C86.5619 79.9276 86.1528 79.9822 86.5124 80.9251C89.1152 87.7407 90.5182 93.3808 93.2389 100.15C94.2054 102.553 92.8619 100.256 96.08 100.7Z" fill="#00646D"/>
</g>
<defs>
<clipPath id="clip0_2067_33070">
<rect width="349" height="233" fill="white" transform="matrix(-1 0 0 1 351 12)"/>
</clipPath>
<clipPath id="clip1_2067_33070">
<rect width="106.673" height="62.48" fill="white" transform="translate(56.5625 6.52734) rotate(50.7804)"/>
</clipPath>
</defs>
</svg>
