<svg width="233" height="287" viewBox="0 0 233 287" fill="none" xmlns="http://www.w3.org/2000/svg">
<g clip-path="url(#clip0_2067_33074)">
<path d="M228.224 128.32C227.855 122.049 225.544 115.419 220.809 110.35C213.544 102.575 209.878 104.318 212.547 113.217C221.323 142.47 196.787 160.148 166.26 163.083L185.608 171.847C229.569 168.522 235.462 145.499 232.274 128.903C231.438 124.542 229.917 123.064 229.133 123.157C228.193 123.267 228.068 125.634 228.219 128.325L228.224 128.32Z" fill="#005A5B"/>
<path d="M131.477 192.665C133.398 212.185 143.207 233.132 157.368 242.624C157.534 250.831 157.014 255.723 155.825 263.165C151.053 265.476 148.031 267.953 147.496 272.418C146.821 278.054 151.334 278.84 157.471 277.757C164.237 278.845 168.646 277.024 169.586 272.288C172.037 259.996 172.478 252.039 176.648 233.756C177.915 228.209 176.575 225.961 174.067 223.202C168.547 217.124 167.171 201.454 167.483 182.74L131.472 192.67L131.477 192.665Z" fill="#005A5B"/>
<path d="M41.9812 200.669L74.5703 197.078C72.7737 223.755 69.44 253.652 62.4766 274.204C59.8231 282.036 54.1995 282.676 46.5559 281.26C39.2498 282.723 34.2025 280.407 38.1749 272.236C40.0858 268.307 44.4736 266.075 47.9683 265.82C49.1055 244.696 45.9484 221.647 41.9863 200.664L41.9812 200.669Z" fill="#005A5B"/>
<path d="M74.1412 106.676C78.2953 121.398 78.2589 134.721 81.2551 145.722C83.6126 154.377 91.8066 158.421 99.6891 159.779C129.022 164.816 162.51 155.35 180.383 162.235C186.443 164.572 192.716 168.933 196.563 177.634C198.874 182.859 199.425 190.796 200.312 198.492L160.724 215.76C143.775 216.119 112.172 233.522 92.3882 234.354C72.6041 235.187 44.4599 217.717 41.9882 201.818C39.5165 185.919 40.3421 166.159 39.5165 148.205L74.1463 106.681L74.1412 106.676Z" fill="#005A5B"/>
<path d="M62.212 146.404L39.6603 152.998C39.7278 155.069 39.7849 157.151 39.8264 159.248C49.7029 153.128 58.8991 151.91 63.4167 148.142C66.2207 145.806 64.7928 144.687 62.212 146.404Z" fill="#005A5B"/>
<path d="M72.7695 205.555L105.161 199.883C106.465 227.293 106.08 257.852 101.755 278.689C100.42 285.111 98.3018 285.965 92.6782 285.455C88.5033 287.781 83.2847 287.312 80.7039 285.257C76.9185 284.492 74.94 281.827 76.9704 276.103C78.388 272.116 82.5369 269.858 86.0472 269.592C84.3855 248.172 79.5823 226.835 72.7695 205.555Z" fill="#005A5B"/>
<path d="M209.898 227.803C203.745 221.724 201.029 207.028 199.492 191.176L155.334 198.935C159.29 218.456 170.844 234.11 194.798 243.446C195.816 251.653 196.231 260.323 195.821 267.765C191.288 270.076 188.525 272.553 188.452 277.018C188.401 280.302 190.311 281.587 192.684 281.587C195.312 283.929 199.139 284.163 202.602 281.686C207.364 282.123 210.241 279.984 210.532 276.888C211.7 264.596 211.311 256.639 213.575 238.357C214.26 232.809 212.687 230.561 209.893 227.803H209.898Z" fill="#005A5B"/>
<path d="M200.82 202.151C200.296 198.654 199.694 193.262 199.491 191.175C198.883 186.028 198.131 181.194 196.552 177.634C192.704 168.927 186.437 164.566 180.372 162.235C166.897 157.046 144.553 161.142 121.804 161.319C126.612 171.389 144.766 185.555 167.94 182.526C173.642 181.782 180.346 179.409 185.549 184.087C191.962 189.853 189.9 198.232 200.815 202.156L200.82 202.151Z" fill="#005A5B"/>
<path d="M98.6797 247.358C98.6797 237.954 91.5398 235.758 89.2966 227.572C86.8612 218.689 87.1156 205.678 83.7664 197.076C79.3318 185.684 71.4286 177.279 60.7784 174.578C52.304 172.429 39.7482 175.088 40.6984 189.618C41.4462 201.031 43.1701 206.958 45.268 220.307C45.9638 225.152 52.8025 246.572 69.0296 246.926C69.9798 241.446 70.8003 235.763 71.5117 229.992C74.4196 231.205 77.3794 232.204 80.3029 232.938C82.759 243.674 84.5608 254.431 85.615 265.208C92.8951 262.393 98.6745 256.445 98.6797 247.353V247.358Z" fill="#005A5B"/>
<path d="M178.294 217.597C174.134 217.738 167.825 213.132 168.21 202.651C168.407 197.327 169.767 187.075 177.131 186.716C191.073 186.039 191.504 217.145 178.288 217.597H178.294Z" fill="#005A5B"/>
<path d="M80.7852 285.303C80.1724 283.971 79.8297 282.545 79.8868 281.057C79.944 279.579 79.7726 278.788 79.3779 278.668C78.9677 278.543 78.3394 279.162 78.1369 280.869C78.0019 282.051 78.085 283.221 78.3342 284.356C79.0041 284.772 79.7934 285.069 80.6969 285.256C80.7229 285.277 80.754 285.288 80.7748 285.308L80.7852 285.303Z" fill="#005A5B"/>
<path d="M91.4273 283.023C90.3161 279.895 89.1269 281.014 89.5943 283.247C89.8383 284.423 90.2901 285.385 90.8561 286.255C91.4792 286.036 92.0868 285.776 92.6787 285.448C92.7203 285.448 92.7566 285.453 92.793 285.458C92.2218 284.714 91.744 283.918 91.4273 283.028V283.023Z" fill="#005A5B"/>
<path d="M45.6278 279.162C45.2176 277.742 44.8021 277.044 44.3919 277.055C43.9661 277.065 43.5611 277.851 43.909 279.537C44.0544 280.24 44.2777 280.916 44.5529 281.562C45.1968 281.494 45.8563 281.4 46.5469 281.26C46.1834 280.604 45.8407 279.917 45.6226 279.162H45.6278Z" fill="#005A5B"/>
<path d="M192.895 281.743C192.713 280.973 192.609 280.182 192.64 279.37C192.697 277.892 192.526 277.101 192.131 276.981C191.721 276.862 191.093 277.476 190.89 279.183C190.807 279.885 190.823 280.583 190.885 281.275C191.43 281.478 192.033 281.582 192.676 281.582C192.744 281.639 192.817 281.681 192.884 281.738L192.895 281.743Z" fill="#005A5B"/>
<path d="M202.305 279.339C202.336 280.198 202.476 280.973 202.705 281.692C203.494 281.759 204.21 281.733 204.891 281.666C204.553 280.953 204.288 280.214 204.153 279.433C203.592 276.16 202.232 277.06 202.31 279.339H202.305Z" fill="#005A5B"/>
<path d="M157.559 207.414C156.136 203.261 154.875 204.354 155.726 207.841C156.51 211.036 157.492 213.57 158.707 215.917C159.382 215.86 160.078 215.777 160.716 215.761L161.215 215.543C159.787 212.982 158.561 210.344 157.554 207.414H157.559Z" fill="#005A5B"/>
<path d="M108.098 231.4C108.082 228.631 107.983 225.868 107.843 223.198C107.646 219.394 105.969 219.368 105.854 222.99C105.761 225.998 105.813 229.011 105.797 232.024C106.561 231.821 107.324 231.619 108.098 231.395V231.4Z" fill="#005A5B"/>
<path d="M78.0092 223.26C77.0642 219.57 75.4181 219.878 76.0205 223.453C76.5189 226.393 77.1525 229.302 77.7236 232.227C78.5545 232.477 79.3853 232.711 80.2109 232.919C79.5878 229.64 78.8037 226.377 78.0041 223.26H78.0092Z" fill="#005A5B"/>
<path d="M65.1144 227.118C61.8534 225.551 61.1056 227.055 64.3822 228.981C66.4956 230.224 68.8271 231.354 71.2209 232.301C71.3196 231.526 71.4131 230.745 71.5117 229.969C69.3516 229.116 67.2122 228.132 65.1092 227.123L65.1144 227.118Z" fill="#005A5B"/>
<path d="M38.2617 87.0921C35.9458 80.0821 32.3992 79.6554 28.8059 81.2635C22.5799 84.0529 14.8376 85.2394 9.89938 85.6193C3.0139 86.1501 0.121592 88.2943 0.00216079 92.8062C-0.184775 99.7798 3.0191 108.455 4.58209 118.629C5.39734 123.922 8.0508 123.313 11.1404 121.158C15.6477 118.015 18.8463 111.458 21.4323 103.038C22.5799 99.3062 38.2565 87.0921 38.2565 87.0921H38.2617Z" fill="#005A5B"/>
<path d="M45.5812 82.6369C32.8384 83.1105 25.2104 89.2878 21.1549 98.0256C17.1722 106.618 18.1536 116.755 17.5357 125.529C7.92923 133.445 4.9071 139.013 6.14295 143.577C7.4515 148.402 9.97514 153.611 14.5291 153.517C19.4777 160.382 28.2429 163.051 36.3798 158.243C51.6515 149.214 66.8348 147.668 71.8094 138.295L75.9531 115.766C74.7432 94.8614 61.1177 82.0593 45.5864 82.6317L45.5812 82.6369Z" fill="#005A5B"/>
<path d="M64.4087 133.815C70.3647 133.592 77.5046 127.102 77.1515 120.951C76.7361 118.328 76.2583 115.643 75.6664 112.9C73.7607 96.5954 64.0504 85.7916 52.0917 83.2363C44.7596 88.3936 42.0646 98.6562 41.6337 108.044C40.9067 123.969 48.9345 134.398 64.4087 133.815Z" fill="#005A5B"/>
<path d="M41.1914 83.0547C31.0501 84.642 24.7151 90.3405 21.1529 98.027C17.1701 106.619 18.1516 116.757 17.5336 125.531C21.1997 122.944 25.9094 119.062 27.867 114.623C33.3816 102.117 30.2557 90.8297 41.1914 83.0547Z" fill="#005A5B"/>
<path d="M77.2018 121.289C76.776 118.557 76.2879 115.762 75.6648 112.895C74.1226 99.6761 67.9952 79.9992 58.6121 85.526L58.7159 88.5132C60.6528 88.2582 62.2522 89.3251 63.5399 94.6229C65.347 102.049 68.2549 113.831 77.207 121.289H77.2018Z" fill="#005A5B"/>
<path d="M18.1987 134.674C21.7401 134.674 26.9276 136.209 27.291 140.404C27.6701 144.702 21.8336 148.366 16.9992 148.137C10.6486 147.835 7.37718 143.183 8.10934 139.722C8.90382 135.964 13.2241 134.679 18.1935 134.679L18.1987 134.674Z" fill="#005A5B"/>
<path d="M50.1013 139.867C44.6853 145.706 36.6575 155.355 24.5794 153.336C20.5291 152.659 18.8311 150.541 18.5818 146.107C18.5091 144.775 16.4269 144.764 16.4996 146.107C16.8267 151.962 19.7398 154.85 24.2211 155.464C35.7643 157.041 44.0363 149.552 50.0494 143.016C50.6309 142.381 51.9291 142.995 52.8274 141.658C54.6397 138.972 52.3653 137.411 50.0909 139.867H50.1013Z" fill="#005A5B"/>
<path d="M18.1508 147.736C18.0002 146.419 15.918 146.403 16.0686 147.736C16.2399 149.245 16.1257 151.181 15.352 152.534C15.1235 152.929 14.8275 153.242 14.4952 153.512C14.9366 154.09 15.378 154.61 15.8349 155.105C16.2399 154.772 16.6138 154.392 16.9202 153.944C18.0677 152.263 18.3741 149.708 18.1508 147.736Z" fill="#005A5B"/>
<path d="M20.6762 110.095C25.8377 110.683 24.2487 119.655 19.918 119.16C15.5977 118.666 15.8002 109.538 20.6762 110.095Z" fill="#005A5B"/>
<path d="M22.5233 103.006C20.9603 102.653 19.1688 103.152 18.1043 103.766C15.212 105.432 15.8559 108.216 18.9922 107.628C20.4721 107.352 21.3601 106.998 22.7673 106.738C25.0936 106.306 25.1196 103.6 22.5233 103.006Z" fill="#005A5B"/>
<path d="M54.1697 111C48.9822 110.786 49.1691 119.894 53.5206 120.076C57.8669 120.258 59.0715 111.203 54.1697 111Z" fill="#005A5B"/>
<path d="M54.1114 102.923C55.7004 102.721 57.4399 103.392 58.4369 104.11C61.1527 106.046 60.244 108.757 57.1803 107.867C55.7315 107.446 54.8851 107.009 53.5091 106.613C51.2347 105.957 51.4684 103.262 54.1114 102.923Z" fill="#005A5B"/>
<path d="M54.9574 83.9804C57.4862 79.4528 60.6693 79.4112 64.3094 80.8059C71.8751 83.7098 78.2776 84.1001 83.0289 83.9804C91.4878 83.7671 94.7747 87.2174 94.9201 91.7294C95.1486 98.703 91.223 107.378 89.3069 117.552C88.3099 122.845 85.0593 122.236 81.2686 120.082C73.2979 115.544 69.7513 103.548 64.8027 89.7987C63.3695 85.8175 60.2695 84.5737 58.5248 88.966L54.9626 83.9804H54.9574Z" fill="#005A5B"/>
</g>
<path d="M139.442 36.6588L187.196 58.3945C193.229 61.1401 197.355 52.075 191.322 49.3296L143.568 27.5939C137.535 24.8482 133.409 33.9132 139.442 36.6588Z" fill="#008490"/>
<path d="M145.412 24.1136L192.734 45.6522C201.618 17.3208 160.94 -1.19245 145.412 24.1136Z" fill="#008490"/>
<path d="M157.721 65.1873C158.514 65.1873 159.262 64.7034 159.56 63.9172L161.388 59.0907C161.772 58.0752 161.261 56.9402 160.245 56.5556C159.23 56.1713 158.095 56.6824 157.71 57.6979L155.882 62.5244C155.394 63.8149 156.354 65.1873 157.721 65.1873Z" fill="#008490"/>
<path d="M141.95 99.3129L145.433 90.116C145.818 89.1005 146.954 88.5891 147.968 88.9737C148.983 89.3583 149.495 90.4932 149.11 91.5085L145.627 100.706C145.33 101.492 144.582 101.976 143.788 101.976C142.422 101.976 141.461 100.603 141.95 99.3129Z" fill="#008490"/>
<path d="M148.919 80.9184L152.402 71.7215C152.786 70.706 153.921 70.1946 154.937 70.5792C155.952 70.9638 156.464 72.0987 156.079 73.1142L152.596 82.3111C152.298 83.0973 151.551 83.5812 150.757 83.5812C149.39 83.5814 148.43 82.2091 148.919 80.9184Z" fill="#008490"/>
<path d="M136.64 113.337L138.468 108.511C138.853 107.495 139.988 106.984 141.003 107.368C142.019 107.753 142.53 108.888 142.145 109.903L140.317 114.73C140.02 115.516 139.272 116 138.478 116C137.112 116 136.151 114.628 136.64 113.337Z" fill="#008490"/>
<path d="M170.647 69.4839L171.488 64.3919C171.665 63.3207 172.678 62.5959 173.749 62.7726C174.82 62.9496 175.545 63.9614 175.368 65.0329L174.527 70.1248C174.368 71.0877 173.534 71.7709 172.59 71.7709C171.37 71.7707 170.45 70.6783 170.647 69.4839Z" fill="#008490"/>
<path d="M166.643 93.7194L168.645 81.6011C168.821 80.5298 169.833 79.8043 170.905 79.9818C171.976 80.1587 172.701 81.1705 172.524 82.2421L170.523 94.3603C170.364 95.3232 169.53 96.0064 168.585 96.0064C167.366 96.0064 166.446 94.9138 166.643 93.7194Z" fill="#008490"/>
<path d="M163.8 110.929L164.641 105.837C164.818 104.766 165.83 104.041 166.901 104.218C167.972 104.395 168.697 105.407 168.52 106.478L167.679 111.57C167.52 112.533 166.687 113.216 165.742 113.216C164.523 113.216 163.603 112.123 163.8 110.929Z" fill="#008490"/>
<path d="M185.328 80.7026L184.798 70.8864C184.739 69.8021 185.571 68.8756 186.655 68.8171C187.738 68.7613 188.666 69.59 188.724 70.6743L189.255 80.4905C189.316 81.6181 188.418 82.5628 187.29 82.5628C186.252 82.5626 185.385 81.7508 185.328 80.7026Z" fill="#008490"/>
<path d="M186.508 102.525L185.977 92.7088C185.919 91.6245 186.75 90.698 187.835 90.6395C188.919 90.5822 189.845 91.4124 189.904 92.4967L190.435 102.313C190.496 103.44 189.598 104.385 188.47 104.385C187.432 104.385 186.565 103.573 186.508 102.525Z" fill="#008490"/>
<path d="M140.708 55.0189L143.643 50.7738C144.261 49.8807 145.485 49.6573 146.379 50.2749C147.272 50.8925 147.495 52.1172 146.877 53.0103L143.942 57.2553C143.56 57.8073 142.947 58.1034 142.323 58.1034C140.755 58.1032 139.802 56.3288 140.708 55.0189Z" fill="#008490"/>
<path d="M126.242 75.9394L133.475 65.4788C134.093 64.586 135.317 64.3623 136.211 64.9799C137.104 65.5975 137.327 66.8222 136.71 67.7153L129.476 78.1756C129.094 78.7276 128.481 79.0237 127.857 79.0237C126.29 79.0237 125.336 77.2496 126.242 75.9394Z" fill="#008490"/>
<path d="M116.075 90.6455L119.01 86.4007C119.628 85.5079 120.852 85.2842 121.746 85.9018C122.639 86.5194 122.862 87.7441 122.245 88.6371L119.309 92.8819C118.928 93.4339 118.314 93.7298 117.69 93.7298C116.123 93.7301 115.169 91.9557 116.075 90.6455Z" fill="#008490"/>
<path d="M125.008 46.8403L128.975 43.5389C129.81 42.8442 131.05 42.958 131.744 43.7926C132.439 44.6272 132.325 45.8668 131.491 46.5616L127.524 49.8629C127.156 50.1686 126.71 50.3178 126.267 50.3178C124.43 50.3178 123.602 48.0108 125.008 46.8403Z" fill="#008490"/>
<path d="M113 56.8323L116.968 53.531C117.802 52.8365 119.042 52.95 119.737 53.7847C120.431 54.6193 120.318 55.8589 119.483 56.5537L115.516 59.855C115.148 60.1607 114.703 60.3099 114.259 60.3099C112.422 60.3096 111.594 58.0027 113 56.8323Z" fill="#008490"/>
<defs>
<clipPath id="clip0_2067_33074">
<rect width="233" height="207" fill="white" transform="matrix(-1 0 0 1 233 80)"/>
</clipPath>
</defs>
</svg>
