<svg width="334" height="278" viewBox="0 0 334 278" fill="none" xmlns="http://www.w3.org/2000/svg">
<g clip-path="url(#clip0_2067_33071)">
<path d="M210.389 277.25C210.408 277.25 210.429 277.25 210.448 277.25C232.839 277.773 246.14 275.265 253.353 273.069C260.818 270.795 263.456 268.388 263.684 268.169C263.902 267.918 264.111 267.774 264.408 267.627C264.509 267.577 270.033 264.684 275.405 255.896C280.441 247.664 286.362 232.45 285.98 206.738C285.699 187.743 281.335 174.165 273.008 166.378C265.538 159.394 257.599 159.778 257.265 159.8C257.222 159.8 257.169 159.805 257.129 159.805C249.678 159.877 242.014 161.78 234.348 165.462C233.895 165.681 233.444 165.903 232.996 166.13C232.847 166.204 232.701 166.282 232.553 166.359C232.253 166.514 231.956 166.666 231.659 166.823C231.484 166.917 231.309 167.013 231.137 167.106C230.869 167.25 230.604 167.397 230.339 167.544C230.156 167.645 229.975 167.749 229.792 167.854C229.538 167.998 229.283 168.144 229.031 168.291C228.848 168.398 228.665 168.507 228.482 168.614C228.233 168.761 227.986 168.91 227.74 169.062C227.557 169.174 227.377 169.284 227.196 169.396C226.95 169.551 226.703 169.706 226.456 169.86C226.281 169.972 226.106 170.082 225.931 170.194C225.677 170.359 225.422 170.525 225.17 170.693C225.009 170.8 224.849 170.904 224.688 171.011C224.399 171.203 224.112 171.4 223.829 171.595C223.707 171.678 223.585 171.76 223.463 171.843C223.062 172.121 222.662 172.404 222.267 172.686C222.158 172.764 222.049 172.844 221.94 172.924C221.651 173.132 221.365 173.343 221.081 173.554C220.927 173.668 220.774 173.786 220.62 173.901C220.384 174.079 220.148 174.256 219.912 174.434C219.747 174.56 219.583 174.688 219.419 174.816C219.199 174.987 218.978 175.158 218.761 175.331C218.594 175.464 218.427 175.595 218.26 175.729C218.048 175.899 217.836 176.07 217.623 176.241C217.459 176.374 217.295 176.511 217.13 176.644C216.921 176.817 216.711 176.988 216.504 177.162C216.343 177.295 216.184 177.431 216.024 177.565C215.815 177.743 215.605 177.92 215.399 178.098C215.245 178.229 215.091 178.36 214.94 178.493C214.72 178.685 214.502 178.878 214.285 179.07C214.15 179.19 214.014 179.307 213.879 179.427C213.601 179.675 213.328 179.921 213.054 180.169C212.983 180.233 212.911 180.297 212.84 180.364C212.5 180.674 212.163 180.986 211.832 181.295C211.71 181.407 211.593 181.522 211.471 181.634C211.257 181.837 211.042 182.037 210.832 182.24C210.694 182.371 210.559 182.504 210.421 182.635C210.23 182.819 210.039 183.003 209.848 183.19C209.708 183.329 209.567 183.465 209.429 183.604C209.249 183.782 209.069 183.961 208.889 184.14C208.748 184.279 208.61 184.42 208.472 184.559C208.295 184.738 208.12 184.917 207.944 185.093C207.809 185.229 207.677 185.365 207.544 185.504C207.366 185.685 207.191 185.867 207.016 186.051C206.889 186.182 206.762 186.315 206.637 186.446C206.454 186.635 206.277 186.827 206.096 187.017C205.982 187.137 205.868 187.26 205.754 187.38C205.55 187.599 205.348 187.817 205.147 188.034C205.062 188.124 204.977 188.215 204.895 188.306C204.614 188.613 204.333 188.92 204.06 189.226C204.012 189.28 203.967 189.33 203.919 189.384C203.691 189.637 203.466 189.891 203.243 190.142C203.153 190.243 203.065 190.345 202.975 190.449C202.797 190.649 202.622 190.849 202.45 191.049C202.352 191.161 202.256 191.273 202.158 191.388C202.05 191.513 201.944 191.639 201.835 191.764C201.864 191.775 201.896 191.788 201.925 191.802C202.134 191.884 202.344 191.97 202.551 192.06C202.593 192.079 202.636 192.095 202.678 192.114C202.909 192.215 203.14 192.325 203.368 192.434C203.418 192.458 203.468 192.485 203.519 192.509C203.726 192.613 203.93 192.72 204.134 192.829C204.163 192.845 204.192 192.858 204.221 192.874C204.444 192.997 204.664 193.125 204.882 193.256C204.932 193.288 204.985 193.317 205.036 193.349C205.248 193.48 205.46 193.614 205.669 193.755C205.677 193.76 205.683 193.763 205.691 193.768C205.903 193.912 206.112 194.059 206.322 194.211C206.372 194.246 206.42 194.283 206.47 194.321C206.674 194.473 206.879 194.628 207.075 194.788C207.093 194.804 207.112 194.82 207.13 194.833C207.313 194.983 207.496 195.135 207.674 195.292C207.719 195.332 207.764 195.37 207.807 195.41C207.995 195.578 208.183 195.748 208.366 195.925C208.395 195.954 208.427 195.983 208.456 196.013C208.618 196.17 208.777 196.33 208.936 196.493C208.973 196.533 209.011 196.57 209.048 196.61C209.223 196.795 209.392 196.981 209.559 197.174C209.594 197.214 209.628 197.254 209.66 197.294C209.809 197.464 209.952 197.641 210.095 197.817C210.122 197.851 210.151 197.886 210.18 197.921C210.339 198.121 210.493 198.324 210.644 198.532C210.678 198.577 210.71 198.625 210.745 198.673C210.883 198.868 211.021 199.063 211.15 199.263C211.166 199.287 211.182 199.308 211.196 199.33C211.339 199.546 211.474 199.767 211.609 199.992C211.641 200.042 211.67 200.096 211.702 200.146C211.835 200.373 211.967 200.603 212.092 200.835L220.347 216.262C233.799 213.433 238.806 209.094 238.856 209.049C239.882 208.101 241.465 208.179 242.407 209.212C243.348 210.244 243.269 211.854 242.245 212.801C241.993 213.033 235.905 218.514 219.397 221.623C218.867 221.722 218.334 221.818 217.796 221.912C217.623 221.941 217.448 221.97 217.273 222C216.902 222.061 216.531 222.122 216.157 222.181C215.953 222.213 215.746 222.245 215.539 222.277C215.186 222.33 214.831 222.384 214.476 222.435C214.264 222.464 214.054 222.493 213.839 222.523C213.465 222.573 213.092 222.621 212.715 222.669C212.521 222.693 212.331 222.72 212.137 222.744C211.641 222.805 211.14 222.862 210.639 222.918C210.564 222.926 210.49 222.934 210.416 222.944C209.843 223.006 209.265 223.064 208.682 223.12C208.493 223.139 208.302 223.155 208.114 223.171C207.714 223.208 207.311 223.243 206.905 223.275C206.68 223.294 206.454 223.31 206.226 223.329C205.847 223.358 205.465 223.385 205.083 223.411C204.85 223.427 204.619 223.443 204.386 223.459C203.988 223.486 203.588 223.507 203.187 223.531C202.972 223.545 202.76 223.555 202.546 223.569C202.036 223.595 201.522 223.619 201.008 223.641C200.901 223.646 200.795 223.651 200.689 223.654C200.066 223.678 199.44 223.699 198.809 223.718C198.626 223.724 198.443 223.726 198.26 223.732C197.804 223.742 197.348 223.753 196.889 223.761C196.659 223.766 196.428 223.769 196.197 223.772C195.776 223.777 195.354 223.782 194.93 223.785C194.688 223.785 194.447 223.788 194.206 223.788C194.047 223.788 193.888 223.788 193.728 223.788C193.548 223.788 193.362 223.785 193.182 223.785C192.708 223.785 192.23 223.78 191.75 223.774C191.44 223.772 191.13 223.766 190.817 223.764C190.326 223.756 189.833 223.745 189.34 223.734C189.04 223.726 188.74 223.721 188.438 223.713C187.887 223.697 187.332 223.678 186.778 223.659C186.529 223.651 186.285 223.643 186.036 223.635C185.235 223.603 184.431 223.569 183.62 223.529C183.461 223.521 183.299 223.51 183.14 223.502C182.482 223.467 181.822 223.433 181.156 223.393C180.854 223.374 180.547 223.353 180.244 223.334C179.714 223.299 179.184 223.264 178.651 223.227C178.314 223.203 177.972 223.176 177.632 223.152C177.123 223.115 176.611 223.075 176.097 223.032C175.747 223.003 175.397 222.974 175.044 222.944C174.524 222.899 174.002 222.854 173.477 222.805C173.135 222.773 172.793 222.744 172.451 222.709C171.875 222.653 171.297 222.595 170.716 222.536C170.422 222.507 170.13 222.477 169.833 222.445C168.964 222.355 168.091 222.258 167.211 222.157C167.084 222.144 166.956 222.128 166.832 222.112C166.068 222.024 165.302 221.933 164.53 221.837C164.212 221.797 163.891 221.757 163.573 221.714C162.987 221.639 162.398 221.565 161.807 221.485C161.446 221.437 161.085 221.388 160.725 221.338C160.162 221.26 159.6 221.183 159.035 221.103C158.664 221.05 158.296 220.996 157.922 220.943C157.349 220.86 156.771 220.775 156.193 220.687C155.832 220.633 155.474 220.58 155.111 220.524C154.48 220.428 153.846 220.326 153.21 220.225C152.899 220.177 152.594 220.129 152.284 220.078C151.337 219.923 150.388 219.769 149.431 219.603C145.172 218.875 140.855 218.875 136.596 219.603C108.466 224.396 84.9268 225.074 66.6244 221.618C50.1172 218.509 44.0288 213.028 43.7769 212.796C42.7506 211.848 42.6817 210.244 43.6231 209.214C44.5591 208.187 46.1422 208.115 47.1685 209.046C47.2878 209.15 52.3155 213.449 65.6751 216.259L73.93 200.832C74.0546 200.6 74.1846 200.371 74.3171 200.144C74.349 200.09 74.3808 200.037 74.41 199.986C74.5425 199.765 74.6804 199.543 74.821 199.33C74.8369 199.306 74.8555 199.282 74.8714 199.255C75.0013 199.058 75.1365 198.863 75.2744 198.673C75.3089 198.625 75.3434 198.577 75.3779 198.529C75.529 198.324 75.6828 198.118 75.8419 197.921C75.8711 197.883 75.9002 197.849 75.9294 197.814C76.07 197.638 76.2132 197.464 76.3617 197.296C76.3961 197.256 76.4306 197.214 76.4651 197.174C76.6321 196.984 76.8018 196.797 76.9769 196.613C77.014 196.573 77.0538 196.533 77.0935 196.493C77.25 196.33 77.4064 196.173 77.5682 196.015C77.6 195.986 77.6292 195.954 77.661 195.925C77.844 195.751 78.0296 195.58 78.2179 195.412C78.263 195.372 78.3107 195.332 78.3558 195.292C78.5334 195.137 78.7111 194.988 78.8941 194.838C78.9153 194.822 78.9339 194.804 78.9551 194.788C79.154 194.628 79.3555 194.476 79.557 194.323C79.6074 194.286 79.6578 194.249 79.7082 194.211C79.915 194.062 80.1218 193.912 80.334 193.771C80.3446 193.763 80.3578 193.758 80.3685 193.75C80.5726 193.614 80.7795 193.483 80.9863 193.355C81.0394 193.323 81.0924 193.288 81.1454 193.256C81.3602 193.125 81.5803 193 81.8004 192.877C81.8322 192.858 81.8667 192.842 81.8985 192.824C82.0974 192.714 82.2989 192.61 82.5005 192.509C82.5535 192.482 82.6065 192.455 82.6569 192.429C82.8823 192.319 83.1104 192.213 83.3411 192.111C83.3862 192.092 83.4312 192.071 83.4763 192.052C83.6805 191.964 83.8847 191.879 84.0915 191.799C84.1233 191.786 84.1552 191.772 84.187 191.759C84.0995 191.658 84.0146 191.556 83.9271 191.455C83.8237 191.335 83.7203 191.215 83.6142 191.092C83.4604 190.913 83.3013 190.734 83.1448 190.553C83.0441 190.438 82.9433 190.321 82.8399 190.206C82.6622 190.006 82.4819 189.803 82.3016 189.6C82.2167 189.504 82.1319 189.408 82.0444 189.312C81.7765 189.013 81.5034 188.711 81.2276 188.41C81.2011 188.38 81.1719 188.351 81.1454 188.322C80.8962 188.05 80.6442 187.775 80.387 187.502C80.2916 187.398 80.1934 187.294 80.0953 187.193C79.9044 186.99 79.7161 186.787 79.5226 186.584C79.4085 186.464 79.2945 186.344 79.1805 186.227C79.0002 186.04 78.8198 185.851 78.6369 185.661C78.5149 185.533 78.3902 185.408 78.2656 185.28C78.0879 185.095 77.9076 184.914 77.7247 184.73C77.5974 184.602 77.4701 184.471 77.3402 184.343C77.1572 184.159 76.9716 183.975 76.7859 183.79C76.656 183.662 76.5287 183.534 76.3961 183.406C76.2052 183.219 76.0116 183.03 75.818 182.843C75.6908 182.72 75.5635 182.598 75.4362 182.475C75.2241 182.272 75.0119 182.069 74.7971 181.866C74.6831 181.76 74.5717 181.653 74.4577 181.543C74.1793 181.282 73.9008 181.023 73.6171 180.762C73.564 180.714 73.511 180.663 73.458 180.615C73.1212 180.305 72.7818 179.998 72.4371 179.689C72.3416 179.603 72.2435 179.515 72.1454 179.43C71.8987 179.208 71.6495 178.99 71.3976 178.768C71.2676 178.656 71.1377 178.541 71.0051 178.429C70.7824 178.237 70.5596 178.045 70.3369 177.853C70.1937 177.73 70.0505 177.61 69.9046 177.487C69.6872 177.306 69.4724 177.122 69.2523 176.943C69.1011 176.817 68.9526 176.695 68.8015 176.572C68.584 176.393 68.3666 176.217 68.1492 176.041C67.9954 175.918 67.8415 175.793 67.6877 175.67C67.465 175.491 67.2396 175.315 67.0142 175.136C66.8631 175.019 66.7119 174.899 66.5608 174.781C66.3221 174.597 66.0808 174.413 65.8395 174.229C65.6963 174.122 65.5557 174.013 65.4125 173.906C65.1341 173.695 64.8504 173.487 64.5666 173.279C64.4606 173.201 64.3545 173.121 64.2484 173.044C63.8586 172.758 63.4635 172.478 63.0684 172.198C62.9888 172.142 62.9066 172.086 62.8271 172.03C62.5115 171.808 62.1933 171.587 61.8724 171.371C61.7293 171.275 61.5861 171.179 61.4429 171.083C61.1803 170.906 60.9205 170.73 60.6553 170.56C60.4935 170.453 60.3291 170.349 60.1674 170.242C59.9181 170.082 59.6715 169.922 59.4196 169.764C59.2472 169.655 59.0748 169.548 58.9025 169.441C58.6559 169.289 58.4092 169.137 58.1626 168.985C57.9876 168.878 57.81 168.772 57.6349 168.667C57.3857 168.518 57.1338 168.371 56.8818 168.224C56.7068 168.123 56.5292 168.019 56.3541 167.918C56.0916 167.768 55.8291 167.621 55.5666 167.475C55.3969 167.381 55.2298 167.285 55.0601 167.194C54.7684 167.034 54.4767 166.879 54.1823 166.725C54.0392 166.647 53.896 166.57 53.7501 166.495C53.3126 166.266 52.8697 166.042 52.4269 165.823C44.4902 161.897 36.5694 159.869 28.8846 159.8C28.8342 159.8 28.7838 159.8 28.7361 159.794C28.4152 159.776 20.4732 159.391 13.0032 166.375C4.66343 174.165 0.298641 187.743 0.0175548 206.738C-0.364298 232.45 5.55708 247.664 10.5928 255.896C15.9891 264.719 21.5339 267.601 21.5896 267.627C21.8946 267.777 22.0934 267.913 22.3135 268.169C22.5469 268.391 25.188 270.798 32.6448 273.069C39.8602 275.268 53.1614 277.773 75.5502 277.25C75.5688 277.25 75.59 277.25 75.6086 277.25" fill="#005A5B"/>
<path d="M142.998 192.29C142.462 192.3 137.564 192.399 130.712 192.645C118.495 193.082 100.058 193.99 89.0289 195.698L88.891 195.719C84.4414 196.415 80.4982 199.228 78.3503 203.244L70.875 217.217C88.1008 219.889 109.896 219.016 135.742 214.613C138.15 214.202 140.576 213.996 143 213.996C145.424 213.996 147.85 214.202 150.261 214.613C176.105 219.016 197.899 219.889 215.125 217.217L207.647 203.244C205.499 199.231 201.559 196.415 197.107 195.719L196.977 195.698C185.195 193.872 164.97 192.962 152.891 192.559C147.315 192.373 143.472 192.295 143 192.287L142.998 192.29Z" fill="#005A5B"/>
<path d="M89.6858 190.475C107.911 187.889 141.493 187.246 142.952 187.216C142.968 187.216 142.984 187.216 142.997 187.216C143.01 187.216 143.029 187.216 143.042 187.216C144.5 187.243 178.085 187.886 196.31 190.475C203.279 182.039 213.698 171.354 226.612 163.837C160.238 144.996 92.3376 156.698 60.3945 164.434C72.8684 171.93 82.9292 182.298 89.6832 190.475H89.6858Z" fill="#005A5B"/>
</g>
<path d="M229.02 38.5681C220.344 34.6494 215.132 41.8513 213.483 44.69C213.144 45.2728 212.413 45.5429 211.799 45.2655V45.2655C211.185 44.988 210.462 45.261 210.184 45.8753L195.921 77.4538C195.643 78.0681 195.916 78.791 196.531 79.0685V79.0685C197.145 79.3459 197.427 80.0715 197.224 80.7141C196.259 83.762 194.629 92.1375 203.986 96.3635C211.918 99.9465 255.836 119.784 282.655 131.898C294.251 137.135 307.892 131.978 313.129 120.383L320.086 104.981C325.324 93.385 320.175 79.7414 308.579 74.5039C281.331 62.1961 236.377 41.8912 229.02 38.5681Z" fill="#008490"/>
<path d="M175.376 68.3816L189.801 36.4451L210.605 42.5693L193.725 79.9418L175.376 68.3816Z" fill="#008490"/>
<path d="M151.587 49.893L160.002 31.2634L186.523 41.3335L176.676 63.1342L151.587 49.893Z" fill="#008490"/>
<path d="M153.816 66.7383L139.22 92.1325" stroke="#008490" stroke-width="3" stroke-linecap="round" stroke-dasharray="5 5"/>
<path d="M147.066 62.7148L125.063 83.4698" stroke="#008490" stroke-width="3" stroke-linecap="round" stroke-dasharray="5 5"/>
<path d="M155.762 95.1621L160.629 69.4691" stroke="#008490" stroke-width="3" stroke-linecap="round" stroke-dasharray="5 5"/>
<defs>
<clipPath id="clip0_2067_33071">
<rect width="286" height="123.642" fill="white" transform="translate(0 153.68)"/>
</clipPath>
</defs>
</svg>
