<svg width="363" height="304" viewBox="0 0 363 304" fill="none" xmlns="http://www.w3.org/2000/svg">
<g clip-path="url(#clip0_2067_33068)">
<path d="M10.1723 160.015C12.7389 156.945 15.4352 158.461 12.6648 164.489C0.105283 191.825 16.2413 212.149 50.9316 211.834L56.2037 221.933C11.5158 230.016 -15.9937 191.319 10.1677 160.019L10.1723 160.015Z" fill="#005A5B"/>
<path d="M50.9345 211.834L56.2066 221.933C53.9041 222.35 51.6618 222.61 49.4612 222.786C45.7921 218.219 43.9297 211.588 43.9297 211.588C46.172 211.764 48.5022 211.857 50.9345 211.834Z" fill="#005A5B"/>
<path d="M125.123 167.007C128.528 159.486 134.393 151.037 141.574 141.592L151.395 171.121C162.407 179.759 165.294 201.934 148.245 218.878C161.592 220.232 170.255 217.023 175.189 223.324C180.336 229.895 176.283 234.092 172.961 232.631C171.14 234.031 168.717 234.861 163.649 233.285C151.821 233.688 140.221 233.099 134.518 232.2C132.734 231.917 130.807 231.834 128.722 231.838L123.145 168.756C123.849 168.106 124.52 167.504 125.127 167.007H125.123Z" fill="#005A5B"/>
<path d="M123.139 168.752L128.716 231.834C117.788 231.858 102.05 234.626 73.8828 227.624C73.8828 227.624 108.536 182.246 123.139 168.752Z" fill="#005A5B"/>
<path d="M180.591 127.115C190.019 122.886 199.247 119.751 208.161 117.794C217 115.856 221.698 119.171 223.231 127.115C227.985 151.696 237.445 165.106 224.334 172.493C219.914 176.216 214.299 174.209 213.062 166.729C205.279 163.4 211.381 142.653 209.944 136.482C193.114 151.009 173.452 166.678 158.539 167.707L180.596 127.11L180.591 127.115Z" fill="#005A5B"/>
<path d="M176.779 147.839C178.979 144.069 180.425 144.088 178.122 148.697C175.25 154.447 170.728 160.647 165.882 166.174C164.701 166.554 163.538 166.874 162.398 167.12C167.731 161.217 173.031 154.271 176.783 147.844L176.779 147.839Z" fill="#005A5B"/>
<path d="M181.432 134.502C193.311 138.801 183.85 153.736 175.289 149.016L181.432 134.502Z" fill="#005A5B"/>
<path d="M167.941 60.5748C167.274 66.4221 167.876 73.1505 169.146 80.3472C177.823 94.4392 183.053 102.92 184.564 115.306C189.368 154.763 136.962 195.555 84.8337 221.156C105.663 221.198 107.683 220.785 112.056 226.702C117.453 234.001 113.247 238.406 109.628 236.82C107.247 238.763 104.101 240.349 96.2257 238.234C63.3376 237.97 54.0812 239.24 57.3705 227.671C35.4435 212.22 43.3193 177.132 57.6114 165.465C67.8221 142.92 98.1946 112.783 123.615 73.0253C124.032 59.3088 125.843 44.8923 128.674 29.9609L167.937 60.5794L167.941 60.5748Z" fill="#005A5B"/>
<path d="M151.045 58.1116C154.613 60.6898 167.714 63.7642 167.714 63.7642C167.635 65.7813 167.673 67.8772 167.821 70.052C161.173 67.9932 154.747 64.0563 149.929 59.2941C148.215 57.6015 149.039 56.6648 151.045 58.1116Z" fill="#005A5B"/>
<path d="M115.728 125.154L149.552 136.047C145.234 163.322 140.62 202.106 140.689 222.115C144.923 224.828 148.083 225.134 149.936 227.624C153.114 231.899 150.617 237.751 147.152 238.071C144.817 240.7 140.485 240.32 137.613 238.846C131.423 241.081 126.318 239.128 125.456 233.406C125.053 230.721 127.263 229.024 124.516 217.784C115.677 181.569 114.315 145.9 115.732 125.159L115.728 125.154Z" fill="#005A5B"/>
<path d="M99.6558 169.119C97.2699 165.474 98.9099 165.117 100.967 167.987C110.886 181.82 111.354 200.618 100.101 213.213C96.5843 215.146 93.0448 217.024 89.4961 218.828C109.181 208.664 110.469 185.659 99.6558 169.119Z" fill="#005A5B"/>
<path d="M115.439 156.353C116.435 170.992 117.885 185.59 120.91 200.776C120.317 201.161 119.724 201.551 119.127 201.931C115.944 186.508 114.383 171.47 113.859 156.576C113.678 151.429 115.142 151.999 115.434 156.353H115.439Z" fill="#005A5B"/>
<path d="M146.051 161.096C146.875 156.009 148.196 156.858 147.64 161.184C146.667 168.761 146.097 174.599 145.379 182.927C144.679 183.507 143.971 184.082 143.262 184.652C144.012 175.675 144.74 169.179 146.051 161.092V161.096Z" fill="#005A5B"/>
<path d="M208.094 134.465C207.769 130.111 208.969 129.309 209.683 134.41C209.775 135.082 209.859 135.782 209.919 136.496C209.349 136.988 208.765 137.484 208.191 137.98C208.2 136.793 208.182 135.615 208.094 134.465Z" fill="#005A5B"/>
<path d="M136.885 235.762C136.954 236.597 137.2 237.7 137.598 238.846C137.079 239.031 136.57 239.165 136.069 239.268C135.699 238.043 135.472 236.708 135.444 235.831C135.379 233.596 136.653 232.989 136.885 235.762Z" fill="#005A5B"/>
<path d="M147.825 234.584C147.793 231.801 149.118 232.284 149.266 234.514C149.331 235.488 149.211 236.401 149.016 237.287C148.465 237.704 147.853 237.987 147.195 238.057C147.608 236.981 147.839 235.813 147.825 234.584Z" fill="#005A5B"/>
<path d="M109.676 236.832C109.954 236.091 110.171 235.316 110.25 234.486C110.505 231.713 111.774 232.335 111.691 234.57C111.654 235.478 111.459 236.318 111.2 237.125C110.7 237.134 110.185 237.046 109.68 236.832H109.676Z" fill="#005A5B"/>
<path d="M213.09 166.879C214.216 166.977 215.36 166.856 216.453 166.485C219.163 165.572 219.395 166.852 217.162 167.96C215.99 168.539 214.781 168.804 213.572 168.818C213.377 168.219 213.21 167.58 213.09 166.879Z" fill="#005A5B"/>
<path d="M74.6376 220.743C80.1646 220.687 86.896 220.163 91.1813 217.965C92.2747 217.404 95.6473 221.183 94.4057 221.174C88.6982 221.141 82.1335 222.653 74.9063 222.375C70.7971 222.217 71.0009 220.775 74.6376 220.738V220.743Z" fill="#005A5B"/>
<path d="M159.891 7.14147C162.236 3.01449 165.928 0.134883 168.587 0.000408509C171.246 -0.129429 176.444 5.12899 180.391 7.22494C184.339 9.32089 191.13 8.87109 192.39 12.6642C193.854 17.0601 188.3 24.9617 187.456 35.5898C187.146 39.4896 184.927 39.216 173.354 30.1227L159.887 7.14147H159.891Z" fill="#005A5B"/>
<path d="M178.735 28.7131C179.925 31.4721 186.893 36.1602 191.243 38.4138L195.329 48.2815C194.088 57.908 191.378 62.4013 186.068 57.8106L182.353 61.0426C181.908 67.1543 175.645 68.2903 171.572 68.1512C163.507 67.873 156.034 61.5017 149.525 57.0548L132.944 51.8845L129.215 29.9512L135.775 4.76271C147.973 0.691372 167.597 2.28188 172.517 8.67638C177.438 15.0709 177.271 25.3095 178.735 28.7131Z" fill="#005A5B"/>
<path d="M153.071 47.0296C153.706 47.7947 153.4 49.0096 153.886 49.8675C158.686 58.344 167.886 63.7323 177.486 61.5807C183.953 60.1293 184.263 55.6081 184.412 51.3513L187.789 51.4858C187.53 53.5307 187.043 56.3222 188.854 57.3795C190.972 58.6129 192.547 57.1337 193.626 55.9142C191.847 60.3101 188.567 60.8944 186.098 57.8293C184.583 60.8758 181.382 62.7028 178.093 63.4355C175.67 63.978 173.154 63.9687 170.851 63.7508C162.92 62.995 156.04 57.6716 152.186 50.781C151.713 49.937 151.278 49.0745 150.907 48.1842C149.93 45.8193 151.009 44.5395 153.071 47.0342V47.0296Z" fill="#005A5B"/>
<path d="M174.16 43.3613C173.261 47.9381 181.211 52.8858 186.696 52.6308C192.052 52.3804 197.935 44.094 195.776 40.8898C194.688 39.2761 191.389 38.5851 184.028 39.2297C177.88 39.7676 174.493 41.6595 174.16 43.3613Z" fill="#005A5B"/>
<path d="M150.188 25.5094C154.241 25.1477 154.431 32.2702 151.031 32.5763C147.635 32.8777 146.361 25.8526 150.188 25.5094Z" fill="#005A5B"/>
<path d="M149.935 18.9939C148.685 18.9012 147.355 19.4994 146.6 20.0976C144.557 21.7252 145.377 23.8026 147.739 22.9818C148.856 22.5923 149.5 22.2167 150.556 21.8504C152.307 21.2429 152.011 19.147 149.931 18.9939H149.935Z" fill="#005A5B"/>
<path d="M175.692 23.1584C171.717 24.0209 173.649 30.8791 176.984 30.1557C180.315 29.4323 179.444 22.3469 175.692 23.1584Z" fill="#005A5B"/>
<path d="M173.89 16.8984C175.076 16.4903 176.517 16.7222 177.397 17.1071C179.792 18.155 179.528 20.3762 177.035 20.1861C175.859 20.098 175.141 19.8986 174.019 19.8151C172.171 19.6806 171.921 17.5754 173.89 16.8938V16.8984Z" fill="#005A5B"/>
<path d="M145.69 2.7824C143.309 0.125366 140.492 0.491693 137.476 1.83644C130.059 5.14266 123.671 5.87995 118.913 6.01442C110.435 6.25555 107.331 9.88173 107.428 14.3982C107.576 21.3816 111.968 29.8442 114.433 39.9066C115.716 45.1419 118.936 44.3629 122.614 42.0026C130.351 37.0363 133.251 24.8594 137.472 10.8462C138.463 7.55393 139.969 5.85213 143.457 6.96966C146.51 7.94808 149.373 6.88155 145.695 2.7824H145.69Z" fill="#005A5B"/>
<path d="M117.346 111.098C106.899 112.545 109.081 126.09 118.305 125.691C127.358 125.301 125.616 109.953 117.346 111.098Z" fill="#005A5B"/>
<path d="M137.079 79.5851C141.058 77.4706 138.497 70.0142 133.521 72.1704C128.244 74.4611 132.02 82.2699 137.079 79.5851Z" fill="#005A5B"/>
<path d="M143.034 135.295C147.861 132.666 143.525 125.585 138.72 128.205C134.991 130.236 137.771 138.161 143.034 135.295Z" fill="#005A5B"/>
<path d="M179.407 125.237C183.039 123.257 179.778 117.933 176.164 119.899C173.357 121.43 175.451 127.393 179.407 125.237Z" fill="#005A5B"/>
<path d="M120.056 89.8645C122.367 98.8557 134.663 93.3145 132.124 85.4222C129.734 77.9844 117.674 80.6043 120.056 89.8645Z" fill="#005A5B"/>
<path d="M69.9852 202.592C76.6471 194.704 67.6642 179.745 58.3615 186.766C44.1806 197.463 60.4833 213.846 69.9852 202.592Z" fill="#005A5B"/>
<path d="M77.3538 178.489C84.0759 174.418 77.3167 165.422 70.8354 169.702C65.6235 173.147 70.6084 182.57 77.3538 178.489Z" fill="#005A5B"/>
<path d="M126.808 180.408C132.581 180.111 132.998 169.478 125.479 169.765C119.651 169.988 120.624 180.727 126.808 180.408Z" fill="#005A5B"/>
<path d="M129.541 154.432C135.596 163.493 147.614 153.593 142.592 145.093C137.982 137.293 123.023 144.671 129.541 154.432Z" fill="#005A5B"/>
<path d="M128.201 110.153C130.262 116.576 138.3 113.826 136.832 107.677C135.345 101.463 126.241 104.046 128.201 110.153Z" fill="#005A5B"/>
<path d="M110.762 148.259C119.017 141.276 108.95 131.125 101.251 135.966C93.12 141.081 103.891 154.065 110.762 148.259Z" fill="#005A5B"/>
<path d="M170.392 82.3672C171.889 84.8016 173.274 87.0738 174.548 89.2347C170.327 90.751 167.325 85.1216 170.392 82.3672Z" fill="#005A5B"/>
<path d="M176.348 93.9181C176.57 93.779 176.792 93.6909 177.019 93.5703C180.93 100.693 183.436 106.934 184.469 114.636C175.25 114.27 166.396 100.178 176.348 93.9181Z" fill="#005A5B"/>
<path d="M90.0895 151.148C94.8195 148.394 91.0531 142.282 86.777 144.021C80.9907 146.372 85.4103 153.875 90.0895 151.148Z" fill="#005A5B"/>
<path d="M126.133 62.2656C125.489 62.6319 124.817 62.7108 124.191 62.5763C124.451 59.2283 124.789 55.8433 125.192 52.4258C126.661 53.6824 127.824 55.2405 128.111 57.239C128.37 59.0336 127.824 61.3011 126.133 62.2656Z" fill="#005A5B"/>
<path d="M57.6146 165.459C64.9298 173.611 52.9216 192.461 45.0273 188.037C47.1862 178.596 51.8792 170.138 57.6146 165.459Z" fill="#005A5B"/>
<path d="M98.7852 107.95C102.843 102.673 106.967 97.1784 111.076 91.4609C119.017 100.503 111.808 114.118 98.7852 107.95Z" fill="#005A5B"/>
<path d="M63.2148 155.239C67.2315 148.822 72.3461 141.875 78.1463 134.363C88.2597 141.574 75.5844 155.944 63.2148 155.239Z" fill="#005A5B"/>
<path d="M80.7227 131.047C82.5016 128.765 84.3362 126.428 86.2125 124.045C89.3767 128.459 85.2628 133.727 80.7227 131.047Z" fill="#005A5B"/>
</g>
<g clip-path="url(#clip1_2067_33068)">
<path d="M352.156 255.624C348.773 253.772 348.098 255.503 349.983 258.559C359.239 273.567 348.778 284.982 343.056 285.108L341.539 289.749C369.982 292.263 366.493 263.486 352.156 255.629V255.624Z" fill="#005A5B"/>
<path d="M304.671 257.676L283.483 272.995C279.889 281.56 281.9 287.034 286.644 292.142C283.619 292.308 281.028 293.096 279.521 295.163C278.215 296.959 278.507 299.057 280.67 299.318C282.006 300.261 284.174 300.457 286.997 299.925C291.136 301.114 293.283 298.936 297.659 299.167C313.035 299.99 316.412 299.654 317.3 287.36C317.965 278.163 311.961 267.465 304.671 257.676Z" fill="#005A5B"/>
<path d="M289.687 258.404C289.067 267.351 285.377 284.928 282.307 294.507C281.873 295.861 281.55 296.699 281.747 297.648C282.362 300.598 281.072 302.886 272.693 301.386C266.966 301.837 268.156 299.354 270.082 296.96C271.009 295.806 273.217 295.114 274.871 294.466C276.665 287.231 274.644 265.891 273.147 255.83L289.687 258.404Z" fill="#005A5B"/>
<path d="M274.869 294.466C273.215 295.113 271.007 295.806 270.079 296.96C268.154 299.353 266.959 301.837 272.691 301.385C281.069 302.886 282.365 300.598 281.745 297.652C281.548 296.704 281.871 295.866 282.304 294.511C283.308 291.375 284.376 287.376 285.385 283.111C286.035 280.637 283.565 278.284 281.725 282.544C280.469 274.726 275.156 275.72 275.504 281.586C275.68 286.98 275.549 291.736 274.874 294.471L274.869 294.466Z" fill="#005A5B"/>
<path d="M272.015 215.674C273.835 240.115 269.006 242.177 270.528 252.122C272.721 266.448 296.455 274.341 309.532 277.873C307.112 285.234 309.174 290.202 313.515 294.868C310.49 295.034 307.899 295.821 306.391 297.889C305.086 299.685 305.378 301.782 307.541 302.043C308.877 302.987 311.045 303.182 313.868 302.65C318.006 303.84 320.154 301.662 324.53 301.893C339.906 302.716 343.283 302.379 344.17 290.081C345.607 270.246 316.05 243.432 309.401 233.843C309.401 233.843 305.595 224.324 306.714 213.355L272.01 215.674H272.015Z" fill="#005A5B"/>
<path d="M321.938 291.617C314.845 287.121 317.431 278.937 318.031 275.159C318.974 269.228 314.184 268.079 310.691 274.883C309.794 275.565 309.501 276.619 309.536 277.874C307.117 285.234 309.178 290.202 313.519 294.868C310.494 295.034 307.903 295.822 306.396 297.889C305.09 299.685 305.382 301.783 307.545 302.044C308.886 302.987 311.049 303.183 313.872 302.651C318.011 303.835 320.158 301.662 324.534 301.893C338.528 302.641 342.572 302.4 343.857 293.082C341.533 295.661 328.249 295.616 321.938 291.617Z" fill="#005A5B"/>
<path d="M294.938 273.152C295.039 271.376 295.049 269.569 294.928 267.688C294.767 265.164 293.567 264.848 293.541 267.668C293.526 269.329 293.451 270.984 293.34 272.635C293.874 272.811 294.409 272.982 294.943 273.152H294.938Z" fill="#005A5B"/>
<path d="M320.097 295.018C315.858 294.607 313.095 294.065 311.517 292.459C311.85 292.86 309.833 295.64 309.168 295.761C312.52 294.556 314.144 295.941 320.072 296.207C322.613 296.318 322.92 295.294 320.097 295.023V295.018Z" fill="#005A5B"/>
<path d="M284.185 268.078C281.68 266.623 281.498 267.716 283.671 269.156C285.072 270.09 286.484 270.868 287.901 271.58C287.971 271.093 288.032 270.612 288.097 270.13C286.776 269.493 285.466 268.825 284.18 268.078H284.185Z" fill="#005A5B"/>
<path d="M309.518 277.868C310.198 275.711 311.171 273.653 312.517 271.882C313.999 269.94 313.515 269.333 311.63 271.039C310.027 272.494 309.296 273.774 309.296 273.774C309.296 273.774 309.82 271.957 310.052 268.861C310.244 266.343 309.387 265.866 308.827 268.631C308.252 271.486 307.526 274.296 306.715 277.09C307.688 277.371 308.625 277.632 309.508 277.873L309.518 277.868Z" fill="#005A5B"/>
<path d="M309.407 264.736C308.787 273.683 302.239 290.056 300.015 296.187C299.532 297.527 299.259 298.38 299.456 299.328C300.071 302.279 297.949 303.714 294.384 303.102C292.958 304.311 289.6 304.296 287.932 303.067C286.157 302.946 285.865 301.034 287.791 298.641C288.718 297.492 290.926 296.794 292.58 296.147C294.097 290.021 295.196 276.347 294.974 266.753L309.407 264.736Z" fill="#005A5B"/>
<path d="M297.937 284.346C297.499 278.149 294.449 279.901 294.338 283.835C293.904 288.792 293.289 293.293 292.584 296.148C290.93 296.795 288.722 297.493 287.794 298.642C285.869 301.035 286.161 302.942 287.936 303.067C289.604 304.302 292.962 304.312 294.388 303.102C297.952 303.715 300.075 302.28 299.46 299.329C299.263 298.381 299.535 297.528 300.019 296.188C300.927 293.679 302.56 289.459 304.214 284.733C305.429 281.175 301.809 277.593 297.942 284.341L297.937 284.346Z" fill="#005A5B"/>
<path d="M292.48 262.058C292.641 256.207 294.194 252.088 293.256 248.51C292.364 245.108 285.639 241.796 283.34 245.565C280.613 250.03 286.657 259.444 289.904 263.011C291.643 264.923 292.394 265.189 292.48 262.058Z" fill="#005A5B"/>
<path d="M276.234 259.738C276.96 256.672 278.013 249.251 277 245.724C276.113 242.628 271.172 241.634 270.537 244.354C270.189 246.782 270.058 249.086 270.522 252.126C270.991 255.187 272.448 257.952 274.57 260.446C275.593 261.459 275.977 260.787 276.229 259.738H276.234Z" fill="#005A5B"/>
<path d="M253.398 144.608C254.693 139.58 257.557 140.569 260.37 142.987C263.626 145.787 274.062 157.152 275.171 171.864L255.369 193.124C256.579 187.916 248.099 187.128 245.559 177.398C243.103 168.01 249.294 160.479 253.398 144.608Z" fill="#005A5B"/>
<path d="M255.531 150.539C256.464 146.645 257.19 147.046 259.403 149.405C261.349 151.477 268.784 163.394 267.116 176.405L256.862 187.605C257.668 184.639 251.679 183.355 250.384 175.994C249.134 168.888 252.592 162.857 255.536 150.539H255.531Z" fill="#005A5B"/>
<path d="M328.604 147.458C327.898 142.119 324.934 142.772 321.858 144.899C318.294 147.363 306.609 157.73 303.801 172.722L320.815 197.088C320.336 191.433 328.941 191.875 332.591 182.186C336.115 172.838 330.837 164.303 328.599 147.453L328.604 147.458Z" fill="#005A5B"/>
<path d="M325.776 153.288C325.302 149.169 324.511 149.485 321.955 151.638C319.706 153.529 311.575 165.487 312.154 178.683L320.205 190.635C319.968 187.043 325.69 187.549 327.923 180.133C330.081 172.973 327.278 166.329 325.781 153.288H325.776Z" fill="#005A5B"/>
<path d="M268.033 171.067C278.075 164.81 302.615 166.054 311.725 173.716C324.005 184.048 322.191 209.854 316.126 218.148C312.945 222.493 305.706 224.641 295.921 225.579C289.014 228.841 281.059 228.916 273.613 223.592C264.05 221.871 257.204 218.755 255.425 213.281C251.815 202.192 256.13 178.478 268.033 171.062V171.067Z" fill="#005A5B"/>
<path d="M301.89 213.204C292.261 212.572 291.661 204.262 282.763 203.525C274.158 202.812 272.923 210.595 264.201 210.489C258.787 210.424 254.447 206.4 254.517 198.607C253.907 204.202 254.19 209.491 255.43 213.284C257.209 218.759 264.055 221.875 273.618 223.596C281.064 228.919 289.014 228.839 295.926 225.583C305.711 224.649 312.955 222.502 316.131 218.151C318.47 214.955 320.164 209.145 320.673 202.627C318.632 208.322 310.51 213.771 301.895 213.204H301.89Z" fill="#005A5B"/>
<path d="M302.614 201.423C296.902 201.298 297.3 211.243 302.094 211.348C306.878 211.453 308.013 201.543 302.614 201.423Z" fill="#005A5B"/>
<path d="M302.207 193.84C303.775 193.614 305.504 194.241 306.508 194.919C309.23 196.77 308.383 199.445 305.333 198.632C303.891 198.245 303.049 197.834 301.683 197.473C299.425 196.871 299.606 194.221 302.207 193.84Z" fill="#005A5B"/>
<path d="M265.203 198.236C270.915 198.272 270.234 208.202 265.44 208.171C260.656 208.141 259.804 198.201 265.203 198.236Z" fill="#005A5B"/>
<path d="M265.477 191.101C263.904 190.9 262.19 191.558 261.197 192.26C258.51 194.162 259.402 196.821 262.437 195.948C263.868 195.537 264.705 195.11 266.066 194.724C268.315 194.082 268.088 191.432 265.477 191.101Z" fill="#005A5B"/>
<path d="M291.994 216.612C290.703 218.047 288.526 218.609 286.63 218.589C283.51 218.554 282.33 216.301 282.345 213.436C282.35 212.091 280.263 212.271 280.258 213.606C280.243 217.154 281.896 220.184 285.682 220.621C288.636 220.962 291.959 220.094 293.557 217.525C294.872 215.412 294.242 214.123 291.999 216.607L291.994 216.612Z" fill="#005A5B"/>
<path d="M279.658 212.071C279.603 213.621 279.431 215.312 278.262 216.466C277.102 217.61 275.096 217.455 273.962 216.502C271.89 214.76 271.234 215.899 272.676 217.636C273.926 219.141 276.442 219.899 278.393 218.93C280.853 217.711 281.634 214.956 281.725 212.417C281.775 211.092 279.703 210.731 279.658 212.066V212.071Z" fill="#005A5B"/>
<path d="M287.299 208.446C287.989 211.683 283.724 214.337 280.957 214.332C278.159 214.322 274.64 210.775 275.205 208.286C275.527 206.881 277.327 205.265 281.532 205.441C284.955 205.581 286.981 206.961 287.299 208.446Z" fill="#005A5B"/>
</g>
<defs>
<clipPath id="clip0_2067_33068">
<rect width="231" height="240" fill="white"/>
</clipPath>
<clipPath id="clip1_2067_33068">
<rect width="118" height="163" fill="white" transform="translate(245 141)"/>
</clipPath>
</defs>
</svg>
