<svg width="222" height="219" viewBox="0 0 222 219" fill="none" xmlns="http://www.w3.org/2000/svg">
<g clip-path="url(#clip0_2065_32510)">
<path d="M172.329 9.68668C172.508 5.97525 175.074 2.48514 178.569 1.19976C181.799 0.0165279 185.371 0.637937 188.755 1.27637C197.169 2.8682 205.582 4.46003 213.996 6.05186C216.741 6.57112 219.818 7.32022 221.208 9.73775C222.222 11.4913 222.043 13.6535 221.838 15.6709C220.151 32.2106 218.463 48.7503 216.775 65.29C216.613 66.8819 216.408 68.5759 215.402 69.8187C213.135 72.6022 208.66 71.3765 205.531 69.6144C190.068 60.8976 179.387 44.2473 177.929 26.5839L172.32 9.68668H172.329Z" fill="#005A5B"/>
<path d="M75.1512 185.929C80.999 177.705 90.1456 171.628 100.187 170.512C110.229 169.397 120.953 173.671 126.621 182.021C132.29 190.364 132.051 202.57 125.3 210.07C129.451 208.631 134.498 210.444 136.774 214.198C114.125 213.407 91.4754 212.607 68.8262 211.815C67.0787 202.851 69.8576 193.368 75.1512 185.929Z" fill="#005A5B"/>
<path d="M150.627 78.3149C142.521 78.4852 134.397 77.6339 126.52 75.7272C116.044 73.199 105.031 68.432 102.959 56.4975C102.541 54.0885 102.669 51.4666 103.965 49.3896C105.261 47.3126 107.971 46.0102 110.265 46.8614C110.929 38.9108 111.62 30.875 114.126 23.2989C116.632 15.7228 121.159 8.52981 127.987 4.38424C132.803 1.44744 138.497 0.187599 144.14 0.0173494C155.06 -0.306124 166.056 3.44787 174.496 10.3855C182.926 17.3232 188.731 27.3849 190.504 38.1446C194.911 35.8378 200.793 38.6384 202.873 43.15C204.953 47.6616 203.862 53.1266 201.305 57.3913C193.283 70.7218 177.172 75.1653 162.536 77.319C158.598 77.8978 154.617 78.2298 150.636 78.3149H150.627Z" fill="#005A5B"/>
<path d="M191.302 74.0581C190.492 77.1567 187.875 79.4806 185.045 80.9958C181.67 82.8089 177.629 83.7368 173.955 82.6387C170.281 81.5321 167.212 78.0334 167.434 74.2113C168.824 77.0375 167.119 80.6212 164.442 82.2812C161.765 83.9411 158.441 84.1284 155.295 84.0432C148.109 83.8389 140.889 82.4514 134.428 79.3018C127.966 76.1607 122.289 71.1894 118.922 64.8562C142.594 67.7674 166.871 65.5882 189.64 58.5059C188.702 63.6899 192.632 68.9592 191.302 74.0666V74.0581Z" fill="#005A5B"/>
<path d="M183.026 101.519C184.228 101.119 185.566 100.558 185.992 99.3658C186.265 98.5912 186.077 97.7399 185.907 96.9313C184.245 89.27 184.074 81.2939 185.395 73.5731C173.41 70.5171 161.391 67.4526 149.116 65.9289C136.841 64.4137 124.233 64.4733 112.273 67.6144C114.575 68.721 116.092 71.0534 116.808 73.4965C117.524 75.948 117.541 78.5358 117.55 81.0811C117.576 86.878 117.601 92.675 117.627 98.472C138.068 107.419 161.834 108.525 183.017 101.511L183.026 101.519Z" fill="#005A5B"/>
<path d="M192.736 51.9436C194.287 49.7899 197.757 52.199 196.12 54.2505C192.957 58.2088 191.329 62.3543 190.852 67.3682C190.818 67.7512 190.332 67.7342 190.221 67.4107C188.474 62.2096 189.565 56.3445 192.736 51.9436Z" fill="#005A5B"/>
<path d="M111.371 44.9705C114.142 44.5959 117.108 46.6474 119.06 48.4095C119.546 48.8522 118.847 49.4736 118.353 49.2097C117.279 48.6223 116.162 48.1967 114.986 47.8817C113.75 47.5498 112.42 47.6264 111.218 47.1922C110.187 46.8262 110.204 45.1322 111.371 44.9705Z" fill="#005A5B"/>
<path d="M183.05 104.695C185.812 106.185 203.986 153.608 201.915 168.964C201.258 173.867 187.1 202.307 179.53 210.292C183.843 211.041 189.606 213.978 189.631 217.894C173.495 218.2 156.915 219.417 140.838 217.979C139.576 214.71 145.262 210.726 148.28 211.152C139.883 197.728 120.43 169.917 116.56 164.648C114.472 161.805 112.307 158.783 111.957 155.267C111.608 151.777 113.117 148.406 114.591 145.223C121.462 130.377 128.324 115.531 135.195 100.686C146.472 105.444 159.148 106.815 171.185 104.584C175.157 103.844 179.496 102.78 183.05 104.703V104.695Z" fill="#005A5B"/>
<path d="M142.222 183.63C130.8 196.807 102.652 205.771 78.4514 209.482C84.8618 209.269 91.2465 212.989 94.213 218.667C74.2404 217.816 45.3599 217.867 25.4469 216.105C12.7712 214.981 2.14986 193.53 2.76362 185.332C3.26656 178.701 7.4094 158.68 12.3535 154.228C16.1554 150.806 27.1348 145.034 32.2409 144.609C37.347 144.175 54.2763 143.613 61.7693 141.119C87.5469 132.53 109.599 118.127 119.223 103.928C125.148 109.674 133.834 102.046 139.759 107.792C139.264 107.069 138.77 106.345 138.275 105.63L142.214 183.638L142.222 183.63Z" fill="#005A5B"/>
<path d="M19.8549 156.509C7.29003 140.259 1.46789 118.978 3.99962 98.6074C-4.93391 125.43 1.39117 156.765 20.0425 178.037L19.8549 156.518V156.509Z" fill="#005A5B"/>
<path d="M160.592 93.6209C163.712 93.7997 166.925 93.5017 169.789 92.2334C173.566 90.5649 176.549 87.1855 177.734 83.2272C174.981 80.7501 172.227 78.273 169.474 75.7958C165.152 80.5117 158.469 83.2017 152.195 81.9163C145.921 80.6394 139.826 75.7873 134.345 72.4675C129.537 69.5562 124.73 66.6534 119.922 63.7422C124.892 70.9012 130.245 77.9069 136.962 83.4656C143.671 89.0327 151.897 93.1017 160.6 93.6039L160.592 93.6209Z" fill="#005A5B"/>
<path d="M122.325 14.8633C122.649 9.94315 118.617 5.13361 113.707 4.58881C107.671 3.91633 102.642 8.74289 97.4677 11.918C92.0121 15.2634 85.5592 16.9744 79.1574 16.7701C76.8899 16.6935 74.6054 16.3871 72.355 16.651C70.096 16.9148 67.7859 17.8512 66.5158 19.7325C64.5466 22.6437 65.6804 26.551 66.9079 29.8453C72.6959 45.3379 79.3108 60.5327 86.6929 75.3358C87.4175 76.7915 88.1932 78.2897 89.4975 79.2601C91.1938 80.5285 93.538 80.6561 95.5668 80.0518C97.5956 79.4474 99.3687 78.2045 101.022 76.8936C116.571 64.5506 124.899 43.7291 122.146 24.0823L122.325 14.8633Z" fill="#005A5B"/>
<path d="M172.95 8.69992C175.047 9.70439 176.973 10.9983 178.738 12.488C178.559 11.7814 178.448 11.0579 178.32 10.3173C178.116 9.0915 178.048 7.48264 176.931 6.75057C176.615 6.54627 176.454 5.99296 176.726 5.68651C177.809 4.47774 179.522 5.12469 180.17 6.52073C181.116 8.53819 181.815 10.9813 181.517 13.22C181.449 13.7138 181.091 14.0883 180.656 14.2756C186.418 20.047 190.118 28.1594 191.371 36.0164C197.799 35.5142 203.331 39.132 205.002 45.5589C206.545 51.5006 203.322 60.694 197.645 63.3584C197.142 63.5968 196.622 62.8817 197.091 62.5242C201.788 58.949 203.57 53.2541 203.135 47.4912C202.589 40.213 196.426 39.1745 190.732 38.485C190.416 38.5787 190.092 38.5531 189.828 38.3744C189.828 38.3744 189.811 38.3744 189.803 38.3744C188.805 38.2552 188.524 37.0038 189.18 36.4591C187.075 25.0779 180.92 17.1102 172.549 9.27877C172.294 9.04042 172.618 8.56372 172.933 8.70844L172.95 8.69992Z" fill="#005A5B"/>
<path d="M102.539 50.4028C104.543 47.0659 107.646 45.3294 110.944 45.1336C110.245 37.583 111.669 27.8533 115.215 20.2432C115.045 20.1155 114.891 19.9623 114.772 19.7409C113.451 17.2808 113.544 13.3396 115.138 11.0157C115.514 10.4623 116.579 10.573 116.647 11.3221C116.758 12.5649 116.622 13.7907 116.758 15.0335C116.826 15.6294 116.946 16.2083 117.073 16.7956C117.9 15.4592 118.804 14.2163 119.793 13.1353C119.972 12.9395 120.236 13.1863 120.176 13.3991C118.744 18.3279 116.289 22.899 114.908 27.8873C113.314 33.6333 113.212 39.3536 112.905 45.2187C114.874 45.4571 116.86 46.2147 118.676 47.5001C119.136 47.8235 118.77 48.5471 118.233 48.3683C113.152 46.6488 107.484 47.8065 105.088 53.0331C102.684 58.2938 107.91 63.5716 110.97 67.1723C111.967 68.3556 110.297 69.6835 109.205 68.7046C104.474 64.4484 98.5159 57.1106 102.531 50.4198L102.539 50.4028Z" fill="#005A5B"/>
<path d="M115.865 59.0168C116.837 58.0038 118.354 56.778 119.854 57.0589C120.46 57.1696 120.894 57.6803 120.681 58.3188C120.451 59.0168 119.991 59.5956 119.582 60.2C126.069 65.6395 132.385 71.2066 139.844 75.3096C144.021 77.608 148.59 79.1743 153.261 80.0851C156.083 80.6384 159.263 80.8257 162.101 80.2979C164.795 79.7957 166.611 76.7568 167.062 74.1945C167.199 73.4539 167.097 72.7133 167.668 72.2792C167.293 70.8151 166.952 69.3083 166.807 67.8187C166.338 67.7506 165.869 67.6484 165.417 67.5207C163.661 67.01 162.05 66.1247 160.456 65.2309C159.74 64.8393 159.024 64.4307 158.444 63.8604C157.865 63.29 157.43 62.5154 157.447 61.7067C157.464 60.9236 157.899 60.1915 158.478 59.6637C159.058 59.136 159.783 58.7869 160.507 58.489C164.727 56.744 169.517 56.4035 173.942 57.5356C174.964 57.7995 176.073 58.2336 176.482 59.2041C176.942 60.2937 176.286 61.5024 175.646 62.4984C174.376 64.4648 172.944 66.5163 170.779 67.4186C170.574 67.5037 170.361 67.5803 170.148 67.6399C170.199 69.3424 170.012 71.1045 169.782 72.7899C169.79 72.8155 169.807 72.824 169.816 72.8495C172.211 79.1062 176.78 81.4982 183.404 81.4045C183.813 81.4045 183.924 82.026 183.557 82.1877C181.008 83.2858 178.144 83.439 175.502 82.5963C172.62 81.6855 171.29 79.8808 169.296 77.8123C169.901 78.4422 167.361 81.047 166.935 81.396C160.874 86.3162 151.855 84.801 145.291 81.8046C137.398 78.2039 130.169 72.2962 123.733 66.5673C123.273 66.1587 122.557 65.7076 122.216 65.1968C129.044 75.6076 138.045 84.5627 148.505 91.3216C149.843 92.1898 148.454 94.2158 147.115 93.3646C134.883 85.6267 125.267 75.3011 118.465 62.6516C118.226 63.3496 117.988 64.0391 117.638 64.7116C116.803 66.2779 114.51 65.4777 114.169 64.0136C113.734 62.1834 114.595 60.3362 115.857 59.0253L115.865 59.0168Z" fill="#005A5B"/>
<path d="M135.077 43.209C134.472 41.4384 134.276 39.421 135.077 37.7355C135.887 36.05 137.924 34.8753 139.697 35.4967C140.652 35.8287 141.393 36.6204 141.93 37.4801C143.039 39.2677 143.397 41.498 142.902 43.541C142.502 45.1924 141.351 46.8438 139.663 47.0737C138.589 47.2184 137.489 46.7417 136.705 45.9841C135.921 45.2265 135.426 44.2305 135.068 43.2005L135.077 43.209Z" fill="#005A5B"/>
<path d="M171.808 40.7909C171.229 39.1055 171.041 37.1817 171.808 35.5728C172.584 33.964 174.528 32.8488 176.215 33.4362C177.127 33.7597 177.835 34.5002 178.346 35.3259C179.403 37.0284 179.744 39.1651 179.276 41.1059C178.892 42.6807 177.792 44.2555 176.19 44.4768C175.158 44.6215 174.118 44.1619 173.368 43.4383C172.627 42.7148 172.149 41.7614 171.808 40.7824V40.7909Z" fill="#005A5B"/>
<path d="M132.742 21.4093C135.06 19.877 138.419 20.192 140.78 21.3922C141.36 21.6817 140.976 22.6351 140.371 22.5585C139.237 22.4223 138.138 22.4223 137.004 22.567C135.853 22.7202 134.898 23.2224 133.824 23.597C132.324 24.1247 131.42 22.2775 132.742 21.4008V21.4093Z" fill="#005A5B"/>
<path d="M155.758 128.939C153.721 128.99 151.82 127.202 151.752 125.168C151.684 123.133 153.457 121.218 155.486 121.133C157.523 121.039 159.458 122.793 159.569 124.819C161.615 124.819 163.66 124.819 165.715 124.819C165.809 124.274 165.919 123.738 165.962 123.193C166.03 122.197 165.817 121.022 166.192 120.094C166.346 119.72 166.814 119.464 167.181 119.737C168.426 120.648 169.005 122.92 169.014 124.827C170.608 124.827 172.202 124.827 173.796 124.827C173.003 123.142 174.478 120.929 176.336 120.809C178.203 120.699 179.882 122.478 179.865 124.342C179.848 126.206 178.331 127.883 176.507 128.309C178.194 129.041 179.592 130.616 179.763 132.446C179.933 134.276 178.646 136.234 176.822 136.498C174.998 136.762 173.105 134.915 173.583 133.144C169.142 133.016 164.709 132.889 160.268 132.752C160.413 134.889 158.614 136.966 156.474 137.136C154.335 137.298 152.238 135.519 152.05 133.391C151.863 131.254 153.627 129.143 155.758 128.939Z" fill="#005A5B"/>
<path d="M171.689 20.2333C174.085 19.5863 176.812 20.5738 177.827 22.9232C177.938 23.1786 177.665 23.4169 177.426 23.2722C175.815 22.2933 173.965 21.8932 172.115 22.3614C170.743 22.7019 170.342 20.5993 171.689 20.2333Z" fill="#005A5B"/>
<path d="M174.998 84.8021C175.766 83.4912 177.104 82.1207 178.672 81.9334C178.962 81.8993 179.295 82.1036 179.243 82.4356C179.047 83.7806 178.306 84.9723 177.777 86.2066C177.181 87.5686 177.129 89.1009 175.774 89.9436C175.126 90.3522 174.393 89.901 174.044 89.3562C173.114 87.9176 174.257 86.0704 174.998 84.8021Z" fill="#005A5B"/>
<path d="M163.531 86.8616C167.64 90.9476 169.098 96.9574 167.904 102.533C167.785 103.078 166.89 102.882 166.95 102.337C167.538 96.8808 165.645 92.1989 161.861 88.3172C160.855 87.2872 162.534 85.8657 163.54 86.8616H163.531Z" fill="#005A5B"/>
<path d="M174.691 116.221C173.353 118.886 171.375 121.584 168.46 122.223C165.757 122.819 162.927 121.414 161.069 119.354C159.211 117.294 158.154 114.672 157.122 112.101L149.101 92.0971C147.311 90.9224 145.521 89.7476 143.73 88.5644C149.612 85.3637 157.139 85.4148 162.978 88.6921C164.385 86.4363 167.386 85.4574 169.986 86.0362C172.585 86.6151 174.751 88.5389 176.063 90.8458C177.376 93.1611 177.93 95.8341 178.143 98.4814C178.638 104.559 177.427 110.765 174.699 116.213L174.691 116.221Z" fill="#005A5B"/>
<path d="M185.398 93.9103C185.602 95.4 186.259 97.2387 185.619 97.4855C165.263 105.317 151.726 104.108 117.62 94.3274C117.62 94.3274 117.791 92.4036 118.592 91.1012C117.723 90.8543 116.845 90.616 115.975 90.3691C114.671 95.6213 113.367 100.882 112.062 106.134C123.34 114.289 136.809 119.397 150.669 120.767C164.53 122.129 178.74 119.754 191.39 113.957L189.055 95.3574C187.836 94.8722 186.617 94.387 185.398 93.9018V93.9103Z" fill="#2FD7E6"/>
<path d="M161.666 51.067C164.214 50.6329 167.641 50.8798 169.909 52.2162C170.147 52.3609 169.985 52.6929 169.738 52.6929C168.613 52.6929 167.479 52.4716 166.345 52.412C164.879 52.3269 163.439 52.5312 161.981 52.6333C160.984 52.7099 160.617 51.2458 161.666 51.067Z" fill="#005A5B"/>
<path d="M161.818 47.9761C162.85 47.4143 164.145 47.4058 165.279 47.6356C166.012 47.7889 165.986 48.8359 165.194 48.8189C164.23 48.8018 163.429 49.1168 162.534 49.4318C161.562 49.7723 160.872 48.4869 161.818 47.9761Z" fill="#005A5B"/>
<path d="M168.688 182.651C173.419 178.676 178.823 175.705 183.409 171.44C188.635 166.58 193.05 160.97 197.21 155.207C197.483 154.833 198.165 155.139 197.96 155.59C195.267 161.413 191.618 166.486 187.314 171.236C182.744 176.275 176.445 182.157 169.975 184.584C168.79 185.026 167.614 183.562 168.688 182.66V182.651Z" fill="#005A5B"/>
<path d="M126.688 141.376C136.721 159.422 150.343 173.868 167.699 184.925C167.699 184.849 167.699 184.772 167.707 184.695C167.733 184.355 168.27 184.202 168.398 184.559C168.517 184.908 168.628 185.266 168.739 185.615C169.105 185.913 169.182 186.313 169.063 186.67C171.833 196.426 171.202 209.016 169.02 218.498C168.816 219.384 167.52 219.009 167.528 218.192C167.579 212.591 168.082 207.007 168.091 201.397C168.091 196.783 167.537 192.101 167.588 187.479C167.503 187.454 167.426 187.419 167.341 187.368C149.286 177.119 134.403 160.631 126.083 141.674C125.912 141.282 126.466 141.01 126.68 141.376H126.688Z" fill="#005A5B"/>
<path d="M116.468 163.465C123.364 173.212 130.26 182.788 138 191.896C138.853 192.901 137.335 194.212 136.466 193.233C128.581 184.312 121.326 174.463 115.888 163.856C115.709 163.507 116.237 163.133 116.476 163.465H116.468Z" fill="#005A5B"/>
<path d="M44.4205 172.275C63.8134 173.169 74.9888 192.756 70.6158 210.284C73.3351 208.981 76.2334 208.53 79.4385 208.887C79.9671 208.947 79.8903 209.662 79.3789 209.688C75.5088 209.866 72.4486 211.135 69.465 213.544C68.6297 214.216 67.2061 213.408 67.6579 212.318C75.04 194.323 62.3898 177.34 44.2329 174.88C42.5792 174.659 42.7241 172.199 44.4119 172.284L44.4205 172.275Z" fill="#005A5B"/>
</g>
<defs>
<clipPath id="clip0_2065_32510">
<rect width="222" height="219" fill="white"/>
</clipPath>
</defs>
</svg>
