<svg width="19" height="16" viewBox="0 0 19 16" fill="none" xmlns="http://www.w3.org/2000/svg">
<path d="M1.11823 7.57277L7.60264 1.08822C7.78775 0.903115 8.03445 0.801514 8.29751 0.801514C8.56085 0.801514 8.80741 0.903261 8.99251 1.08822L9.58125 1.6771C9.76621 1.86191 9.8681 2.10876 9.8681 2.37196C9.8681 2.63502 9.76621 2.89019 9.58125 3.075L5.79834 6.86623H17.8168C18.3587 6.86623 18.7869 7.29045 18.7869 7.83247V8.66499C18.7869 9.20702 18.3587 9.674 17.8168 9.674H5.75542L9.5811 13.4864C9.76606 13.6715 9.86795 13.9116 9.86795 14.1748C9.86795 14.4378 9.76606 14.6814 9.5811 14.8664L8.99237 15.4533C8.80727 15.6384 8.56071 15.7393 8.29736 15.7393C8.0343 15.7393 7.7876 15.6371 7.6025 15.452L1.11809 8.96761C0.932545 8.78192 0.830505 8.53405 0.831236 8.27056C0.830652 8.00619 0.932545 7.75817 1.11823 7.57277Z" fill="black"/>
<path d="M1.11823 7.57277L7.60264 1.08822C7.78775 0.903115 8.03445 0.801514 8.29751 0.801514C8.56085 0.801514 8.80741 0.903261 8.99251 1.08822L9.58125 1.6771C9.76621 1.86191 9.8681 2.10876 9.8681 2.37196C9.8681 2.63502 9.76621 2.89019 9.58125 3.075L5.79834 6.86623H17.8168C18.3587 6.86623 18.7869 7.29045 18.7869 7.83247V8.66499C18.7869 9.20702 18.3587 9.674 17.8168 9.674H5.75542L9.5811 13.4864C9.76606 13.6715 9.86795 13.9116 9.86795 14.1748C9.86795 14.4378 9.76606 14.6814 9.5811 14.8664L8.99237 15.4533C8.80727 15.6384 8.56071 15.7393 8.29736 15.7393C8.0343 15.7393 7.7876 15.6371 7.6025 15.452L1.11809 8.96761C0.932545 8.78192 0.830505 8.53405 0.831236 8.27056C0.830652 8.00619 0.932545 7.75817 1.11823 7.57277Z" fill="url(#paint0_linear_514_1631)"/>
<path d="M1.11823 7.57277L7.60264 1.08822C7.78775 0.903115 8.03445 0.801514 8.29751 0.801514C8.56085 0.801514 8.80741 0.903261 8.99251 1.08822L9.58125 1.6771C9.76621 1.86191 9.8681 2.10876 9.8681 2.37196C9.8681 2.63502 9.76621 2.89019 9.58125 3.075L5.79834 6.86623H17.8168C18.3587 6.86623 18.7869 7.29045 18.7869 7.83247V8.66499C18.7869 9.20702 18.3587 9.674 17.8168 9.674H5.75542L9.5811 13.4864C9.76606 13.6715 9.86795 13.9116 9.86795 14.1748C9.86795 14.4378 9.76606 14.6814 9.5811 14.8664L8.99237 15.4533C8.80727 15.6384 8.56071 15.7393 8.29736 15.7393C8.0343 15.7393 7.7876 15.6371 7.6025 15.452L1.11809 8.96761C0.932545 8.78192 0.830505 8.53405 0.831236 8.27056C0.830652 8.00619 0.932545 7.75817 1.11823 7.57277Z" fill="url(#paint1_linear_514_1631)"/>
<defs>
<linearGradient id="paint0_linear_514_1631" x1="18.7869" y1="0.801514" x2="13.9679" y2="19.3473" gradientUnits="userSpaceOnUse">
<stop stop-color="#1A99FB"/>
<stop offset="1" stop-color="#0C5E9A"/>
</linearGradient>
<linearGradient id="paint1_linear_514_1631" x1="9.80854" y1="15.7393" x2="9.80854" y2="0.801514" gradientUnits="userSpaceOnUse">
<stop stop-color="#005357"/>
<stop offset="1" stop-color="#007F85"/>
</linearGradient>
</defs>
</svg>
