<svg width="330" height="224" viewBox="0 0 330 224" fill="none" xmlns="http://www.w3.org/2000/svg">
<g clip-path="url(#clip0_2086_32414)">
<g clip-path="url(#clip1_2086_32414)">
<path d="M264.569 64.4004L305.507 69.7182C310.013 112.525 276.144 120.431 269.923 99.3887C262.497 103.715 253.503 90.5501 264.569 64.4004Z" fill="#005A5B"/>
<path d="M95.9978 69.4068C108.244 80.2427 127.329 94.9119 169.844 93.7741L145.855 109.474C134.314 115.246 121.75 112.599 126.075 108.458C106.544 115.265 94.7046 107.54 104.027 104.205C94.2441 104.683 95.9635 100.884 100.989 100.943C88.4589 97.837 82.3357 88.8616 90.0803 88.5882C77.0011 74.8077 80.6212 55.7973 95.9929 69.4019L95.9978 69.4068Z" fill="#005A5B"/>
<path d="M153.384 163.229C154.344 159.987 155.236 158.024 161.08 151.778C176.843 134.941 169.383 123.201 184.916 99.0781L218.883 138.398C213.592 150.308 204.868 154.879 192.093 161.911C183.98 166.374 175.761 170.393 172.229 177.513C169.642 182.723 170.338 185.799 170.524 193.959C173.008 196.801 176.432 197.309 178.347 201.235C180.444 205.533 177.916 209.737 174.453 210.094C171.7 212.833 167.262 212.491 164.474 211.007C157.783 213.38 155.427 209.556 153.555 204.185C151.14 197.26 150.577 172.703 153.384 163.224V163.229Z" fill="#005A5B"/>
<path d="M257.236 155.209C256.026 150.57 255.345 145.814 254.679 141.932L286.902 139.051C299.124 149.926 309.401 144.979 316.763 153.188C323.612 160.83 322.828 173.424 323.043 183.054C323.2 189.968 322.989 201.361 313.418 202.171C309.362 202.513 307.167 199.378 306.785 197.777C299.094 191.707 308.886 178.864 303.371 173.546C295.009 175.734 283.296 176.447 285.471 172.726C276.09 175.729 261.135 175.226 266.068 165.865C258.392 166.04 249.893 165.752 257.236 155.214V155.209Z" fill="#005A5B"/>
<path d="M257.238 155.209C256.028 150.57 255.347 145.814 254.681 141.932L286.903 139.051C289.47 141.336 284.464 152.099 286.34 150.39C288.216 148.681 289.759 149.042 287.991 151.391C284.077 156.591 277.15 160.073 274.343 157.949C269.46 161.362 264.179 163.833 258.389 165.435C254.382 164.551 252.476 162.036 257.238 155.209Z" fill="#005A5B"/>
<path d="M159.734 93.5388C185.912 78.7475 217.513 98.339 243.417 86.0187C254.811 59.4685 271.446 53.1691 294.048 69.9479C287.239 87.9817 303.762 102.275 303.052 117.696C302.714 125.006 300.196 124.035 299.084 119.977C297.58 138.816 288.028 150.189 281.63 154.115C276.688 157.148 274.332 156.894 276.497 153.109C264.074 163.457 250.392 165.908 235.28 164.932C195.19 162.334 189.483 135.061 156.021 153.964L138.406 120.016C141.448 114.942 145.862 101.376 159.739 93.5388H159.734Z" fill="#005A5B"/>
<path d="M175.535 142.93C174.937 144.644 174.104 146.27 173.051 147.647C172.16 147.769 171.253 147.925 170.318 148.135C171.464 146.431 172.703 144.702 173.629 142.895C175.647 138.955 176.485 140.195 175.535 142.93Z" fill="#005A5B"/>
<path d="M273.414 60.4062C278.969 61.4659 287.512 65.099 294.047 69.953C293.66 70.9784 293.356 71.9893 293.116 72.9855C288.046 71.0419 280.63 68.6687 275.917 67.4088L273.414 60.4062Z" fill="#005A5B"/>
<path d="M219.975 151.47C222.551 148.086 223.595 148.964 222.498 151.25L258.615 152.246C258.772 149.345 260.334 147.866 260.373 151.802C260.427 156.719 260.883 163.287 260.883 163.287C260.883 163.287 244.433 165.524 235.278 164.933C227.323 164.415 220.734 162.921 215.003 161.016C215.899 158.228 217.423 154.819 219.975 151.465V151.47Z" fill="#005A5B"/>
<path d="M224.339 148.076L259.138 144.164C257.155 166.256 260.613 185.266 264.605 197.938C266.31 203.349 267.422 204.721 272.649 207.27C281.363 211.514 279.203 221.295 274.491 221.788C272.174 224.747 267.299 224.381 263.934 222.774C257.277 225.338 251.482 221.241 248.224 215.41C245.731 210.952 243.693 206.162 241.837 200.629C240.48 203.085 236.968 200.199 238.697 193.475C234.812 198.71 230.227 196.888 231.78 188.377C229.365 189.456 228.405 186.887 229.625 183.621C221.184 191.277 214.988 184.441 222.855 167.276C211.603 171.71 217.981 158.443 224.339 148.08V148.076Z" fill="#005A5B"/>
<path d="M122.321 218.292C122.654 217.384 122.88 216.437 122.963 215.445C123.218 212.349 124.653 212.867 124.579 215.352C124.56 216.109 124.442 216.837 124.276 217.545C123.678 217.931 123.041 218.18 122.39 218.243C122.37 218.263 122.346 218.273 122.321 218.292Z" fill="#005A5B"/>
<path d="M112 216.553C111.99 217.281 112.074 218.189 112.27 219.156C111.682 219.361 111.118 219.503 110.57 219.615C110.398 218.516 110.335 217.423 110.384 216.646C110.55 214.161 112.039 213.467 112 216.553Z" fill="#005A5B"/>
<path d="M109.48 169.562C110.627 166.867 111.626 165.04 115.76 160.909C111.317 160.577 115.084 156.592 118.244 154.454C113.061 154.434 117.191 150.469 120.968 148.75C110.201 149.414 117.852 140.058 129.447 132.65C126.278 132.474 124.039 131.17 129.648 126.751C141.287 117.575 139.734 114.113 148.424 103.102L173.52 143.007C166.691 154.918 161.175 158.902 147.493 165.934C138.803 170.402 130.064 174.416 125.616 181.536C122.359 186.746 121.433 193.944 120.566 202.104C122.687 204.946 126.043 205.454 127.448 209.38C128.992 213.677 125.92 217.882 122.413 218.238C119.307 220.978 114.913 220.636 112.317 219.152C105.317 221.53 103.46 217.701 102.28 212.33C100.756 205.405 105.459 179.036 109.485 169.557L109.48 169.562Z" fill="#005A5B"/>
<path d="M262.793 219.361C262.96 220.289 263.357 221.514 263.93 222.779C263.366 222.994 262.818 223.145 262.269 223.272C261.72 221.915 261.319 220.435 261.196 219.459C260.878 216.973 262.235 216.28 262.793 219.366V219.361Z" fill="#005A5B"/>
<path d="M274.873 217.9C274.53 214.804 276.063 215.322 276.469 217.808C276.646 218.887 276.616 219.907 276.494 220.894C275.926 221.367 275.274 221.685 274.549 221.773C274.892 220.571 275.024 219.272 274.873 217.9Z" fill="#005A5B"/>
<path d="M305.434 196.405C305.586 195.868 305.748 195.374 305.909 194.994C306.889 192.684 308.413 192.767 307.34 195.716C307.134 196.283 306.948 197.02 306.801 197.831C306.247 197.357 305.811 196.893 305.434 196.41V196.405Z" fill="#005A5B"/>
<path d="M122.261 218.35C122.486 217.457 122.633 216.631 122.672 215.967C122.878 212.842 124.303 213.374 124.269 215.879C124.264 216.387 124.191 217.037 124.078 217.735C123.544 217.989 122.986 218.184 122.407 218.243C122.358 218.287 122.305 218.311 122.256 218.35H122.261Z" fill="#005A5B"/>
<path d="M112.578 216.529C112.554 217.227 112.407 218.194 112.176 219.195C111.495 219.42 110.868 219.581 110.281 219.688C110.658 218.521 110.903 217.418 110.976 216.578C111.255 213.457 112.666 214.024 112.578 216.529Z" fill="#005A5B"/>
<path d="M305.894 23.2902C309.876 21.6739 312.277 28.7887 308.931 30.1463C305.595 31.4989 302.132 24.8187 305.894 23.2902Z" fill="#005A5B"/>
<path d="M305.413 18.9194C304.625 17.8548 303.229 17.2005 302.229 17.01C299.516 16.4875 298.418 18.5727 300.706 19.9009C301.784 20.5259 302.528 20.7848 303.552 21.3805C305.242 22.3669 306.721 20.692 305.413 18.9242V18.9194Z" fill="#005A5B"/>
<path d="M327.046 34.2327C330.618 41.1571 331.69 47.4663 326.591 51.993C323.505 54.7325 321.648 49.8737 321.129 46.2455C316.608 53.5996 309.186 54.9767 298.62 54.5469C300.8 57.6478 305.61 62.8777 308.775 64.0644C309.436 65.168 310.215 69.4115 311.92 71.2085C307.967 73.4939 302.225 73.279 295.029 71.0327L255.106 58.1752L254.136 27.445C262.478 13.2495 275.068 5.73416 289.484 8.6055C298.694 10.4416 302.98 16.3747 305.934 22.9329C309.554 30.9805 312.689 30.0868 317.475 29.9892L327.046 34.2278V34.2327Z" fill="#005A5B"/>
<path d="M283.688 8.01953C285.584 8.03418 287.514 8.21486 289.488 8.60552C298.697 10.4416 302.984 16.3699 305.938 22.9329C307.686 26.82 309.322 28.6121 311.086 29.4227C309.381 29.4618 307.476 29.8085 305.242 28.2312C299.902 24.4614 302.695 13.3618 283.688 8.01953Z" fill="#005A5B"/>
<path d="M273.977 9.63508C283.691 9.20536 296.31 18.7228 297.388 31.7805C297.858 37.4451 294.992 40.5752 289.574 42.1281C278.117 45.4145 273.321 50.4589 276.52 69.9479L255.088 57.3882L254.143 27.4345C259.316 18.6349 266.12 12.4136 273.982 9.6302L273.977 9.63508Z" fill="#005A5B"/>
<path d="M319.82 40.0196L323.601 39.5312C322.617 49.0291 324.503 52.296 327.922 50.5771C327.53 51.0654 327.099 51.5391 326.589 51.9933C323.503 54.7327 321.617 51.2608 321.103 47.6325C317.174 54.3812 311.757 55.7289 304.943 55.348C304.943 55.348 305.104 60.8905 311.384 62.3018L309.841 67.1996C300.705 65.8861 293.887 62.5508 290.791 56.9693C287.136 50.3867 290.169 49.9277 292.76 50.626C316.004 56.8765 319.34 47.5984 319.82 40.0245V40.0196Z" fill="#005A5B"/>
<path d="M299.611 59.1952C304.383 58.4286 311.485 58.6678 316.188 61.5294C321.483 64.7475 323.276 70.7392 321.013 75.2171C318.721 79.7487 312.602 81.912 309.546 77.2534C307.807 74.6018 308.669 71.6523 307.679 68.1071C306.621 64.3226 303.579 63.5852 299.004 61.5441C296.368 60.3672 297.049 59.6054 299.606 59.1952H299.611Z" fill="#005A5B"/>
<path d="M301.398 58.9708C302.77 58.8389 304.254 58.7901 305.782 58.8487C310.504 60.2795 314.835 62.8041 315.859 67.4579C316.476 70.2657 315.687 71.1838 314.521 67.8143C312.709 62.5697 307.139 60.177 301.393 58.9659L301.398 58.9708Z" fill="#005A5B"/>
<path d="M327.017 31.6046C328.83 35.3549 325.954 41.3808 322.183 42.0889C319.047 42.6748 312.052 36.7027 312.082 33.5871C312.096 31.5899 313.375 30.2372 317.686 29.4657C323.887 28.3572 326.278 30.0663 327.022 31.6046H327.017Z" fill="#005A5B"/>
<path d="M285.196 28.7678C289.453 28.1574 290.065 35.6337 286.494 36.1513C282.928 36.664 281.179 29.3489 285.196 28.7678Z" fill="#005A5B"/>
<path d="M285.213 22.0632C283.895 21.8971 282.46 22.4489 281.632 23.0398C279.383 24.6366 280.133 26.8683 282.675 26.1358C283.875 25.7891 284.576 25.4326 285.712 25.1054C287.593 24.5682 287.402 22.3415 285.213 22.068V22.0632Z" fill="#005A5B"/>
<path d="M120.97 148.75C110.203 149.414 117.854 140.057 129.449 132.65C126.28 132.474 124.041 131.17 129.65 126.751C139.971 118.615 139.932 114.962 145.845 106.568C146.55 105.533 147.319 104.498 148.152 103.462C148.245 103.34 148.328 103.228 148.426 103.106C151.302 99.634 154.946 96.245 159.732 93.5397C182.658 80.5894 209.742 93.9987 233.51 89.262L250.566 106.309C231.437 114.821 228.322 148.247 208.096 143.08C201.194 141.317 194.027 135.091 191.72 122.927C189.898 113.312 186.469 111.075 178.832 123.01C170.46 136.092 165.052 147.485 147.055 148.994C135.249 149.985 129.915 148.608 120.965 148.75H120.97Z" fill="#005A5B"/>
<path d="M229.848 89.8389C230.51 89.7559 231.171 89.6631 231.832 89.5557C232.018 89.5264 232.2 89.4922 232.381 89.458C232.758 89.3945 233.14 89.3359 233.517 89.2578L250.574 106.305C246.528 108.107 243.202 111.027 240.277 114.455C238.921 113.22 237.725 111.779 236.804 110.114C234.11 110.588 231.342 109.738 229.158 107.668C225.92 104.611 223.75 98.7459 224.92 90.2442C226.488 90.1759 228.046 90.0538 229.594 89.8682C229.682 89.8585 229.77 89.8438 229.853 89.834L229.848 89.8389Z" fill="#005A5B"/>
<path d="M265.404 61.4851L258.002 59.1021L255.474 57.6176L267.01 39.9989C266.251 36.8785 267.912 36.2583 268.98 39.2322C271.096 45.1263 272.678 49.3747 274.927 54.6095C275.196 55.2345 275.465 55.8645 275.735 56.4993C275.372 60.0103 275.612 64.376 276.523 69.9526L263.322 62.2176C264.008 61.9392 264.703 61.6902 265.409 61.49L265.404 61.4851Z" fill="#005A5B"/>
<path d="M231.553 77.0984C227.169 77.7478 227.693 73.7875 230.515 71.0285C244.079 57.751 247.738 35.0977 256.663 23.5391L266.264 31.152C265.329 46.4414 277.022 59.8312 278.824 74.9888C279.985 84.7504 274.67 85.9077 272.608 81.4981C278.633 118.103 245.112 124.993 238.156 107.013C230.902 110.739 221.457 99.5173 231.563 77.1032L231.553 77.0984Z" fill="#005A5B"/>
</g>
<path d="M99.0228 23.4123L101.873 11.7743C105.309 12.539 108.736 13.3438 112.153 14.1887L110.354 21.8437C110.042 23.1616 109.785 24.5433 109.349 25.8251L99.0228 23.4123Z" fill="#008490"/>
<path d="M44.3703 16.3347C43.8545 15.0914 43.5567 13.5787 43.879 12.2484C44.2242 10.8244 45.3952 9.9246 46.5801 9.18847C52.3941 5.57641 59.2327 3.89754 66.0454 4.80068C69.5265 5.26218 72.9936 6.23572 76.4097 7.04556C84.6001 8.91701 92.7733 10.8616 100.929 12.8792C100.265 15.7745 99.5542 18.6582 98.7958 21.5303C98.0125 21.3648 97.2163 21.2513 96.4232 21.1437C94.8513 20.9305 93.1094 20.7184 91.5362 20.9849C88.1262 21.5626 81.8861 26.1334 78.5182 27.8218C76.6486 28.759 74.2008 29.1054 72.5619 30.3529C72.8835 30.6247 73.4644 30.6163 73.8828 30.6819C73.8182 32.8788 73.0237 35.2177 72.5022 37.3498L63.889 35.3735L56.2496 33.524C56.6789 31.6507 57.1192 29.78 57.5704 27.9119C57.5977 27.8961 57.6251 27.8805 57.6519 27.8642C58.3402 27.448 59.0699 27.5244 59.707 27.1706C59.6835 27.1196 59.6436 27.0272 59.6118 26.9744C59.1011 26.1234 58.1913 25.2704 57.5373 24.5108C53.7359 20.0946 50.0227 17.7514 44.3703 16.3347Z" fill="#008490"/>
<path d="M76.9775 29.3911C79.6572 28.0092 82.2594 26.4615 84.8587 24.9346C86.5199 23.9587 88.2326 22.8511 90.0153 22.118C89.3412 31.2134 91.5261 38.9121 96.0401 46.7851C96.7518 47.933 98.1003 49.3989 97.7745 50.8203C97.6914 51.1824 97.4932 51.6248 97.1624 51.8244C96.9412 51.9578 96.7245 51.9729 96.476 51.9122C94.1808 51.3526 87.1949 40.1286 85.9037 37.5404C84.4066 34.5395 83.2055 31.5413 82.2102 28.3415C80.5743 28.7963 78.6786 29.5205 76.9775 29.3911Z" fill="#008490"/>
<path d="M70.9731 54.9864C65.613 53.6487 60.2089 52.4239 54.8274 51.1734C52.9806 50.7444 49.9317 50.3685 48.3008 49.5616C48.2417 49.4504 48.1929 49.3583 48.1697 49.233C48.0746 48.7226 48.1366 48.1112 48.2156 47.6026C48.4808 45.8994 50.7892 35.7571 51.478 34.7726C51.8761 34.2036 52.3482 34.0161 52.9971 33.8929C57.5979 34.7068 62.2147 36.0198 66.7678 37.0905C68.7475 37.5562 73.3672 38.3622 75.0349 39.1674C75.7231 39.4997 75.883 40.0058 76.1146 40.6784C75.7358 42.3529 73.0155 54.4376 72.6378 54.9196C72.5667 55.0103 72.4515 55.0552 72.3584 55.1232C71.868 55.2411 71.4475 55.1053 70.9731 54.9864Z" fill="#008490"/>
<path d="M45.7364 160.903C40.3448 159.978 35.0054 158.812 29.7183 157.407C25.6226 156.348 9.02172 151.388 7.19117 148.178C5.91806 145.945 5.38092 139.022 5.32464 136.265C5.06595 123.603 9.32452 111.401 16.8426 101.255C18.8246 98.5807 21.0858 96.1228 23.2348 93.5849C25.2579 91.1957 27.1857 88.7097 29.1227 86.2499C36.2164 77.2421 41.4485 69.162 45.8941 58.5347C46.9677 55.9685 48.0941 53.3361 48.8254 50.6465C56.3534 52.2344 63.8395 54.2025 71.3368 55.9435C69.3896 67.4169 69.1122 77.9579 71.0419 89.501C73.6552 105.133 79.2664 118.764 77.0792 134.998C76.0101 142.931 73.0622 150.047 68.6269 156.688C67.5552 158.293 66.254 160.279 64.6933 161.445C62.1067 163.376 49.3024 161.45 45.7364 160.903Z" fill="#008490"/>
<path d="M122.535 21.2832L151.604 24.8806" stroke="#008490" stroke-width="3" stroke-linecap="round" stroke-dasharray="5 5"/>
<path d="M123.379 13.4688L153.192 8.35765" stroke="#008490" stroke-width="3" stroke-linecap="round" stroke-dasharray="5 5"/>
<path d="M144.082 39.9219L120.623 28.3689" stroke="#008490" stroke-width="3" stroke-linecap="round" stroke-dasharray="5 5"/>
</g>
<defs>
<clipPath id="clip0_2086_32414">
<rect width="330" height="224" fill="white"/>
</clipPath>
<clipPath id="clip1_2086_32414">
<rect width="248" height="216" fill="white" transform="matrix(-1 0 0 1 330.074 8)"/>
</clipPath>
</defs>
</svg>
