<svg width="304" height="132" viewBox="0 0 304 132" fill="none" xmlns="http://www.w3.org/2000/svg">
<path d="M30.261 93.8908C25.241 91.7908 26.641 34.2408 30.261 31.2408C33.881 28.2408 67.821 1.56082 159.741 0.0708212C251.661 -1.41918 294.481 23.1508 299.751 29.7508C305.021 36.3508 305.561 95.6208 298.641 95.6208C291.721 95.6208 282.351 48.3508 163.031 51.2708C55.301 53.9008 34.301 95.5808 30.261 93.8908Z" fill="#003B3C"/>
<path d="M79.4269 63.6738C79.2477 63.6907 79.0765 63.6867 78.8936 63.6637C56.5997 60.6062 40.207 55.4674 30.1831 48.4144C29.1397 47.6788 28.8827 46.2264 29.6183 45.183C30.3539 44.1396 31.8062 43.8826 32.8496 44.6182C42.2611 51.2467 57.964 56.0988 79.5161 59.0653C80.7877 59.237 81.6713 60.4095 81.4995 61.6812C81.3507 62.7698 80.4623 63.5765 79.4169 63.6748L79.4269 63.6738Z" fill="#2FD7E6"/>
<path d="M24.4973 46.0005C19.5873 44.9705 22.8781 92.5105 26.4981 95.5005C30.1181 98.5005 67.8179 123.57 159.728 125.07C251.648 126.57 294.468 101.99 299.738 95.3905C305.008 88.7905 303.358 41.7305 296.448 41.7305C289.538 41.7305 256.588 70.2105 162.038 69.3105C67.4879 68.4105 28.7873 46.9005 24.4973 46.0005Z" fill="#005A5B"/>
<path d="M249.261 64.3798C248.221 64.3798 247.271 63.6698 247.011 62.6098C246.701 61.3598 247.461 60.1098 248.711 59.7998C269.231 54.7398 285.391 46.1998 292.311 39.9798C293.261 39.1198 294.731 39.1998 295.591 40.1498C296.451 41.0998 296.371 42.5698 295.421 43.4298C288.071 50.0298 271.131 59.0498 249.831 64.2998C249.641 64.3498 249.461 64.3698 249.271 64.3698L249.261 64.3798Z" fill="#2FD7E6"/>
<path d="M192.5 65.5C192.5 65.5 159.5 69 130.5 65.5V127C130.5 127 135.5 125 161.5 125C187.5 125 192.5 127 192.5 127V65.5Z" fill="#2FD7E6"/>
<path d="M183 75C183 75 160.113 77.4472 140 75V118C140 118 143.468 116.602 161.5 116.602C179.532 116.602 183 118 183 118V75Z" fill="#005A5B"/>
</svg>
