<svg width="359" height="195" viewBox="0 0 359 195" fill="none" xmlns="http://www.w3.org/2000/svg">
<g clip-path="url(#clip0_2086_32415)">
<g clip-path="url(#clip1_2086_32415)">
<path d="M212.464 194.571C212.482 194.571 212.503 194.571 212.522 194.571C234.913 195.094 248.215 192.585 255.427 190.389C262.892 188.115 265.531 185.708 265.759 185.489C265.976 185.239 266.186 185.095 266.483 184.948C266.583 184.897 272.107 182.004 277.479 173.217C282.515 164.984 288.436 149.77 288.055 124.058C287.774 105.063 283.409 91.4851 275.082 83.6981C267.612 76.7144 259.673 77.0986 259.339 77.12C259.296 77.12 259.243 77.1253 259.204 77.1253C251.752 77.1974 244.088 79.1001 236.422 82.7828C235.969 83.0016 235.518 83.2231 235.07 83.4499C234.921 83.5247 234.776 83.602 234.627 83.6794C234.327 83.8342 234.03 83.9863 233.733 84.1438C233.558 84.2372 233.383 84.3332 233.211 84.4266C232.943 84.5707 232.678 84.7175 232.413 84.8643C232.23 84.9657 232.05 85.0698 231.867 85.1739C231.612 85.318 231.357 85.4647 231.105 85.6115C230.923 85.7182 230.74 85.8277 230.557 85.9344C230.307 86.0812 230.061 86.2306 229.814 86.3827C229.631 86.4948 229.451 86.6042 229.27 86.7163C229.024 86.8711 228.777 87.0259 228.531 87.1806C228.356 87.2927 228.181 87.4021 228.006 87.5142C227.751 87.6797 227.496 87.8451 227.245 88.0132C227.083 88.12 226.924 88.2241 226.762 88.3308C226.473 88.523 226.186 88.7204 225.903 88.9152C225.781 88.998 225.659 89.0807 225.537 89.1634C225.136 89.441 224.736 89.7238 224.341 90.0067C224.232 90.0841 224.123 90.1641 224.015 90.2442C223.726 90.4524 223.439 90.6632 223.156 90.874C223.002 90.9887 222.848 91.1062 222.694 91.2209C222.458 91.3997 222.222 91.5758 221.986 91.7546C221.822 91.8801 221.657 92.0082 221.493 92.1362C221.273 92.307 221.053 92.4778 220.835 92.6513C220.668 92.7847 220.501 92.9155 220.334 93.0489C220.122 93.2197 219.91 93.3905 219.698 93.5613C219.533 93.6947 219.369 93.8308 219.204 93.9642C218.995 94.1377 218.785 94.3085 218.579 94.482C218.417 94.6154 218.258 94.7515 218.099 94.8849C217.889 95.0637 217.68 95.2398 217.473 95.4186C217.319 95.5494 217.165 95.6802 217.014 95.8136C216.794 96.0057 216.577 96.1979 216.359 96.39C216.224 96.5101 216.089 96.6275 215.953 96.7476C215.675 96.9958 215.402 97.2413 215.129 97.4895C215.057 97.5535 214.985 97.6176 214.914 97.6843C214.574 97.9938 214.238 98.3061 213.906 98.6156C213.784 98.7277 213.668 98.8425 213.546 98.9545C213.331 99.1574 213.116 99.3575 212.906 99.5603C212.769 99.6911 212.633 99.8245 212.495 99.9553C212.305 100.139 212.114 100.324 211.923 100.51C211.782 100.649 211.642 100.785 211.504 100.924C211.323 101.103 211.143 101.282 210.963 101.46C210.822 101.599 210.684 101.741 210.546 101.879C210.369 102.058 210.194 102.237 210.019 102.413C209.883 102.549 209.751 102.685 209.618 102.824C209.441 103.005 209.266 103.187 209.091 103.371C208.963 103.502 208.836 103.635 208.711 103.766C208.528 103.956 208.351 104.148 208.17 104.337C208.056 104.457 207.942 104.58 207.828 104.7C207.624 104.919 207.423 105.138 207.221 105.354C207.136 105.445 207.051 105.535 206.969 105.626C206.688 105.933 206.407 106.24 206.134 106.547C206.086 106.6 206.041 106.651 205.993 106.704C205.765 106.958 205.54 107.211 205.317 107.462C205.227 107.563 205.139 107.665 205.049 107.769C204.872 107.969 204.697 108.169 204.524 108.369C204.426 108.481 204.331 108.594 204.233 108.708C204.124 108.834 204.018 108.959 203.909 109.085C203.938 109.095 203.97 109.109 203.999 109.122C204.209 109.205 204.418 109.29 204.625 109.381C204.667 109.399 204.71 109.415 204.752 109.434C204.983 109.536 205.214 109.645 205.442 109.754C205.492 109.778 205.543 109.805 205.593 109.829C205.8 109.933 206.004 110.04 206.208 110.149C206.237 110.165 206.266 110.179 206.296 110.195C206.518 110.317 206.738 110.446 206.956 110.576C207.006 110.608 207.059 110.638 207.11 110.67C207.322 110.8 207.534 110.934 207.744 111.075C207.751 111.081 207.757 111.083 207.765 111.089C207.977 111.233 208.186 111.38 208.396 111.532C208.446 111.566 208.494 111.604 208.544 111.641C208.749 111.793 208.953 111.948 209.149 112.108C209.168 112.124 209.186 112.14 209.205 112.153C209.388 112.303 209.571 112.455 209.748 112.612C209.793 112.652 209.838 112.69 209.881 112.73C210.069 112.898 210.257 113.069 210.44 113.245C210.47 113.274 210.501 113.304 210.531 113.333C210.692 113.49 210.851 113.651 211.01 113.813C211.048 113.853 211.085 113.891 211.122 113.931C211.297 114.115 211.467 114.302 211.634 114.494C211.668 114.534 211.703 114.574 211.734 114.614C211.883 114.785 212.026 114.961 212.169 115.137C212.196 115.172 212.225 115.206 212.254 115.241C212.413 115.441 212.567 115.644 212.718 115.852C212.753 115.898 212.784 115.946 212.819 115.994C212.957 116.188 213.095 116.383 213.225 116.583C213.241 116.607 213.257 116.629 213.27 116.65C213.413 116.866 213.548 117.088 213.683 117.312C213.715 117.363 213.744 117.416 213.776 117.467C213.909 117.693 214.041 117.923 214.166 118.155L222.421 133.582C235.873 130.754 240.88 126.415 240.93 126.369C241.956 125.422 243.54 125.499 244.481 126.532C245.422 127.565 245.343 129.174 244.319 130.121C244.067 130.353 237.979 135.835 221.472 138.944C220.941 139.042 220.408 139.138 219.87 139.232C219.698 139.261 219.523 139.291 219.348 139.32C218.976 139.381 218.605 139.443 218.231 139.501C218.027 139.533 217.82 139.565 217.613 139.597C217.261 139.651 216.905 139.704 216.55 139.755C216.338 139.784 216.128 139.814 215.914 139.843C215.54 139.894 215.166 139.942 214.789 139.99C214.596 140.014 214.405 140.04 214.211 140.064C213.715 140.126 213.214 140.182 212.713 140.238C212.639 140.246 212.564 140.254 212.49 140.265C211.917 140.326 211.339 140.385 210.756 140.441C210.568 140.459 210.377 140.475 210.188 140.491C209.788 140.529 209.385 140.563 208.979 140.595C208.754 140.614 208.528 140.63 208.3 140.649C207.921 140.678 207.539 140.705 207.157 140.732C206.924 140.748 206.693 140.764 206.46 140.78C206.062 140.806 205.662 140.828 205.261 140.852C205.047 140.865 204.835 140.876 204.62 140.889C204.111 140.916 203.596 140.94 203.082 140.961C202.976 140.966 202.87 140.972 202.764 140.974C202.14 140.998 201.515 141.02 200.883 141.038C200.7 141.044 200.517 141.046 200.334 141.052C199.878 141.062 199.422 141.073 198.964 141.081C198.733 141.087 198.502 141.089 198.271 141.092C197.85 141.097 197.428 141.103 197.004 141.105C196.763 141.105 196.521 141.108 196.28 141.108C196.121 141.108 195.962 141.108 195.803 141.108C195.622 141.108 195.437 141.105 195.256 141.105C194.782 141.105 194.304 141.1 193.824 141.095C193.514 141.092 193.204 141.087 192.891 141.084C192.4 141.076 191.907 141.065 191.414 141.054C191.114 141.046 190.815 141.041 190.512 141.033C189.961 141.017 189.407 140.998 188.852 140.98C188.603 140.972 188.359 140.964 188.11 140.956C187.309 140.924 186.506 140.889 185.694 140.849C185.535 140.841 185.373 140.83 185.214 140.822C184.557 140.788 183.896 140.753 183.231 140.713C182.928 140.694 182.621 140.673 182.318 140.654C181.788 140.62 181.258 140.585 180.725 140.547C180.388 140.523 180.046 140.497 179.706 140.473C179.197 140.435 178.686 140.395 178.171 140.353C177.821 140.323 177.471 140.294 177.118 140.265C176.599 140.219 176.076 140.174 175.551 140.126C175.209 140.094 174.867 140.064 174.525 140.03C173.95 139.974 173.371 139.915 172.791 139.856C172.496 139.827 172.205 139.798 171.908 139.766C171.038 139.675 170.165 139.579 169.285 139.477C169.158 139.464 169.031 139.448 168.906 139.432C168.142 139.344 167.376 139.253 166.604 139.157C166.286 139.117 165.965 139.077 165.647 139.034C165.061 138.96 164.472 138.885 163.881 138.805C163.52 138.757 163.16 138.709 162.799 138.658C162.237 138.581 161.675 138.503 161.11 138.423C160.738 138.37 160.37 138.316 159.996 138.263C159.423 138.18 158.845 138.095 158.267 138.007C157.906 137.954 157.548 137.9 157.185 137.844C156.554 137.748 155.92 137.647 155.284 137.545C154.974 137.497 154.669 137.449 154.358 137.398C153.412 137.244 152.462 137.089 151.505 136.923C147.246 136.195 142.929 136.195 138.671 136.923C110.541 141.716 87.001 142.394 68.6986 138.938C52.1914 135.829 46.103 130.348 45.8511 130.116C44.8248 129.169 44.7559 127.565 45.6973 126.535C46.6333 125.507 48.2164 125.435 49.2427 126.366C49.362 126.471 54.3897 130.77 67.7493 133.58L76.0042 118.153C76.1288 117.92 76.2588 117.691 76.3914 117.464C76.4232 117.411 76.455 117.357 76.4842 117.307C76.6168 117.085 76.7547 116.864 76.8952 116.65C76.9111 116.626 76.9297 116.602 76.9456 116.575C77.0755 116.378 77.2108 116.183 77.3486 115.994C77.3831 115.946 77.4176 115.898 77.4521 115.849C77.6032 115.644 77.757 115.439 77.9161 115.241C77.9453 115.204 77.9745 115.169 78.0036 115.134C78.1442 114.958 78.2874 114.785 78.4359 114.617C78.4703 114.577 78.5048 114.534 78.5393 114.494C78.7063 114.304 78.8761 114.118 79.0511 113.933C79.0882 113.893 79.128 113.853 79.1678 113.813C79.3242 113.651 79.4807 113.493 79.6424 113.336C79.6742 113.306 79.7034 113.274 79.7352 113.245C79.9182 113.071 80.1038 112.901 80.2921 112.733C80.3372 112.693 80.3849 112.652 80.43 112.612C80.6077 112.458 80.7853 112.308 80.9683 112.159C80.9895 112.143 81.0081 112.124 81.0293 112.108C81.2282 111.948 81.4297 111.796 81.6312 111.644C81.6816 111.606 81.732 111.569 81.7824 111.532C81.9892 111.382 82.1961 111.233 82.4082 111.091C82.4188 111.083 82.4321 111.078 82.4427 111.07C82.6469 110.934 82.8537 110.803 83.0605 110.675C83.1136 110.643 83.1666 110.608 83.2196 110.576C83.4344 110.446 83.6545 110.32 83.8746 110.197C83.9064 110.179 83.9409 110.163 83.9727 110.144C84.1716 110.035 84.3732 109.931 84.5747 109.829C84.6277 109.802 84.6808 109.776 84.7311 109.749C84.9565 109.64 85.1846 109.533 85.4153 109.431C85.4604 109.413 85.5055 109.391 85.5505 109.373C85.7547 109.285 85.9589 109.199 86.1657 109.119C86.1976 109.106 86.2294 109.093 86.2612 109.079C86.1737 108.978 86.0888 108.876 86.0013 108.775C85.8979 108.655 85.7945 108.535 85.6884 108.412C85.5346 108.233 85.3755 108.054 85.2191 107.873C85.1183 107.758 85.0175 107.641 84.9141 107.526C84.7364 107.326 84.5561 107.123 84.3758 106.92C84.2909 106.824 84.2061 106.728 84.1186 106.632C83.8508 106.333 83.5776 106.032 83.3018 105.73C83.2753 105.701 83.2462 105.671 83.2196 105.642C82.9704 105.37 82.7185 105.095 82.4612 104.823C82.3658 104.719 82.2677 104.615 82.1695 104.513C81.9786 104.31 81.7903 104.108 81.5968 103.905C81.4827 103.785 81.3687 103.665 81.2547 103.547C81.0744 103.36 80.894 103.171 80.7111 102.981C80.5891 102.853 80.4645 102.728 80.3398 102.6C80.1622 102.416 79.9818 102.234 79.7989 102.05C79.6716 101.922 79.5443 101.791 79.4144 101.663C79.2314 101.479 79.0458 101.295 78.8602 101.111C78.7302 100.983 78.6029 100.855 78.4703 100.726C78.2794 100.54 78.0858 100.35 77.8923 100.163C77.765 100.041 77.6377 99.9179 77.5104 99.7951C77.2983 99.5923 77.0861 99.3895 76.8713 99.1867C76.7573 99.08 76.6459 98.9732 76.5319 98.8638C76.2535 98.6023 75.975 98.3434 75.6913 98.0819C75.6383 98.0339 75.5852 97.9832 75.5322 97.9351C75.1954 97.6256 74.856 97.3187 74.5113 97.0091C74.4158 96.9237 74.3177 96.8357 74.2196 96.7503C73.973 96.5288 73.7237 96.3099 73.4718 96.0885C73.3418 95.9764 73.2119 95.8616 73.0793 95.7495C72.8566 95.5574 72.6338 95.3653 72.4111 95.1731C72.2679 95.0504 72.1247 94.9303 71.9788 94.8075C71.7614 94.6261 71.5466 94.4419 71.3265 94.2631C71.1754 94.1377 71.0269 94.0149 70.8757 93.8922C70.6583 93.7134 70.4408 93.5373 70.2234 93.3611C70.0696 93.2384 69.9158 93.113 69.762 92.9902C69.5392 92.8114 69.3138 92.6353 69.0884 92.4565C68.9373 92.3391 68.7861 92.219 68.635 92.1016C68.3963 91.9174 68.155 91.7333 67.9137 91.5492C67.7705 91.4424 67.63 91.333 67.4868 91.2263C67.2083 91.0154 66.9246 90.8073 66.6409 90.5991C66.5348 90.5217 66.4287 90.4417 66.3226 90.3643C65.9328 90.0788 65.5377 89.7985 65.1426 89.5183C65.0631 89.4623 64.9808 89.4063 64.9013 89.3502C64.5857 89.1287 64.2675 88.9072 63.9467 88.6911C63.8035 88.595 63.6603 88.4989 63.5171 88.4029C63.2546 88.2267 62.9947 88.0506 62.7295 87.8798C62.5678 87.7731 62.4033 87.669 62.2416 87.5623C61.9923 87.4021 61.7457 87.242 61.4938 87.0846C61.3214 86.9752 61.1491 86.8684 60.9767 86.7617C60.7301 86.6096 60.4835 86.4575 60.2369 86.3053C60.0618 86.1986 59.8842 86.0919 59.7092 85.9878C59.4599 85.8383 59.208 85.6916 58.9561 85.5448C58.781 85.4434 58.6034 85.3393 58.4284 85.2379C58.1658 85.0885 57.9033 84.9417 57.6408 84.7949C57.4711 84.7015 57.304 84.6054 57.1343 84.5147C56.8426 84.3546 56.5509 84.1998 56.2566 84.045C56.1134 83.9676 55.9702 83.8903 55.8243 83.8155C55.3868 83.586 54.944 83.3619 54.5011 83.143C46.5644 79.2175 38.6436 77.1894 30.9588 77.12C30.9084 77.12 30.858 77.12 30.8103 77.1147C30.4894 77.096 22.5474 76.7117 15.0774 83.6954C6.73765 91.4851 2.37286 105.063 2.09177 124.058C1.70992 149.77 7.63129 164.984 12.667 173.217C18.0633 182.039 23.6081 184.921 23.6638 184.948C23.9688 185.097 24.1677 185.233 24.3877 185.489C24.6211 185.711 27.2623 188.118 34.719 190.389C41.9344 192.588 55.2356 195.094 77.6244 194.571C77.643 194.571 77.6642 194.571 77.6828 194.571" fill="#005A5B"/>
<path d="M145.072 109.61C144.536 109.621 139.638 109.72 132.786 109.965C120.569 110.403 102.132 111.31 91.1031 113.018L90.9653 113.039C86.5156 113.736 82.5724 116.548 80.4245 120.565L72.9492 134.538C90.175 137.209 111.97 136.336 137.817 131.933C140.224 131.522 142.651 131.317 145.074 131.317C147.498 131.317 149.924 131.522 152.335 131.933C178.179 136.336 199.974 137.209 217.2 134.538L209.722 120.565C207.574 116.551 203.633 113.736 199.181 113.039L199.051 113.018C187.269 111.193 167.044 110.283 154.965 109.88C149.389 109.693 145.546 109.615 145.074 109.607L145.072 109.61Z" fill="#005A5B"/>
<path d="M91.7601 107.795C109.986 105.209 143.567 104.566 145.026 104.537C145.042 104.537 145.058 104.537 145.071 104.537C145.084 104.537 145.103 104.537 145.116 104.537C146.575 104.563 180.159 105.206 198.385 107.795C205.353 99.3595 215.772 88.6744 228.686 81.1569C162.313 62.3165 94.4118 74.0184 62.4688 81.7547C74.9426 89.2508 85.0034 99.6183 91.7574 107.795H91.7601Z" fill="#005A5B"/>
</g>
<path d="M336.239 44.746C333.954 37.6412 327.025 38.4001 324.507 38.9345C323.99 39.0443 323.449 38.7615 323.287 38.2584V38.2584C323.125 37.7553 322.586 37.4787 322.083 37.6406L296.222 45.961C295.719 46.1228 295.443 46.6619 295.604 47.1649V47.1649C295.766 47.668 295.493 48.2138 295.013 48.4336C292.733 49.476 287.007 52.9348 289.472 60.5969C291.418 66.6456 301.585 98.2436 308.68 120.298C312.577 132.41 325.55 139.053 337.662 135.156L340.802 134.146C352.914 130.249 359.579 117.288 355.682 105.176C348.462 82.7357 338.047 50.3626 336.239 44.746Z" fill="#008490"/>
<path d="M290.691 29.2467L316.845 20.832L324.229 36.1474L293.623 45.9945L290.691 29.2467Z" fill="#008490"/>
<path d="M288.92 5.68967L304.176 0.781066L312.274 21.4958L294.42 27.2399L288.92 5.68967Z" fill="#008490"/>
<path d="M280.301 15.8457L257.86 20.7193" stroke="#008490" stroke-width="3" stroke-linecap="round" stroke-dasharray="5 5"/>
<path d="M279.086 9.80469L255.445 7.93162" stroke="#008490" stroke-width="3" stroke-linecap="round" stroke-dasharray="5 5"/>
<path d="M264.801 31.9277L282.297 21.2409" stroke="#008490" stroke-width="3" stroke-linecap="round" stroke-dasharray="5 5"/>
</g>
<defs>
<clipPath id="clip0_2086_32415">
<rect width="359" height="195" fill="white"/>
</clipPath>
<clipPath id="clip1_2086_32415">
<rect width="286" height="123.642" fill="white" transform="translate(2.07422 71)"/>
</clipPath>
</defs>
</svg>
