<svg width="333" height="302" viewBox="0 0 333 302" fill="none" xmlns="http://www.w3.org/2000/svg">
<g clip-path="url(#clip0_2067_33069)">
<path d="M267.495 142.4L308.432 147.718C312.939 190.525 279.07 198.431 272.849 177.389C265.423 181.715 256.429 168.55 267.495 142.4Z" fill="#005A5B"/>
<path d="M98.9236 147.407C111.17 158.243 130.255 172.912 172.77 171.774L148.781 187.474C137.24 193.246 124.675 190.599 129.001 186.458C109.47 193.265 97.6303 185.54 106.952 182.205C97.1699 182.683 98.8893 178.884 103.915 178.943C91.3847 175.837 85.2614 166.862 93.0061 166.588C79.9269 152.808 83.547 133.797 98.9187 147.402L98.9236 147.407Z" fill="#005A5B"/>
<path d="M156.31 241.229C157.27 237.987 158.161 236.024 164.005 229.778C179.769 212.941 172.309 201.201 187.842 177.078L221.809 216.398C216.518 228.308 207.794 232.879 195.018 239.911C186.906 244.374 178.686 248.393 175.155 255.513C172.568 260.723 173.264 263.799 173.45 271.959C175.933 274.801 179.358 275.309 181.273 279.235C183.37 283.533 180.842 287.737 177.379 288.094C174.626 290.833 170.187 290.491 167.4 289.007C160.709 291.38 158.352 287.556 156.481 282.185C154.066 275.26 153.503 250.703 156.31 241.224V241.229Z" fill="#005A5B"/>
<path d="M260.162 233.209C258.952 228.57 258.271 223.814 257.605 219.932L289.827 217.051C302.049 227.926 312.327 222.979 319.689 231.188C326.537 238.83 325.754 251.424 325.969 261.054C326.126 267.968 325.915 279.361 316.343 280.171C312.287 280.513 310.093 277.378 309.711 275.777C302.02 269.707 311.812 256.864 306.296 251.546C297.935 253.734 286.222 254.447 288.397 250.726C279.016 253.729 264.061 253.226 268.994 243.865C261.318 244.04 252.819 243.752 260.162 233.214V233.209Z" fill="#005A5B"/>
<path d="M260.163 233.209C258.953 228.57 258.273 223.814 257.606 219.932L289.829 217.051C292.396 219.336 287.39 230.099 289.266 228.39C291.142 226.681 292.685 227.042 290.917 229.391C287.003 234.591 280.076 238.073 277.269 235.949C272.385 239.362 267.105 241.833 261.315 243.435C257.308 242.551 255.402 240.036 260.163 233.209Z" fill="#005A5B"/>
<path d="M162.66 171.539C188.838 156.748 220.439 176.339 246.342 164.019C257.737 137.469 274.372 131.169 296.974 147.948C290.165 165.982 306.688 180.275 305.978 195.696C305.64 203.006 303.122 202.035 302.01 197.977C300.506 216.816 290.954 228.189 284.556 232.115C279.614 235.148 277.257 234.894 279.423 231.109C267 241.457 253.318 243.908 238.206 242.932C198.116 240.334 192.409 213.061 158.947 231.964L141.332 198.016C144.374 192.942 148.787 179.376 162.665 171.539H162.66Z" fill="#005A5B"/>
<path d="M178.46 220.93C177.863 222.644 177.03 224.27 175.977 225.647C175.085 225.769 174.179 225.925 173.244 226.135C174.39 224.431 175.629 222.702 176.555 220.895C178.573 216.955 179.411 218.195 178.46 220.93Z" fill="#005A5B"/>
<path d="M276.34 138.406C281.895 139.466 290.438 143.099 296.973 147.953C296.586 148.978 296.282 149.989 296.042 150.985C290.972 149.042 283.555 146.669 278.843 145.409L276.34 138.406Z" fill="#005A5B"/>
<path d="M222.901 229.47C225.477 226.086 226.521 226.964 225.423 229.25L261.541 230.246C261.697 227.345 263.26 225.866 263.299 229.802C263.353 234.719 263.809 241.287 263.809 241.287C263.809 241.287 247.359 243.524 238.204 242.933C230.248 242.415 223.66 240.921 217.929 239.016C218.825 236.228 220.348 232.819 222.901 229.465V229.47Z" fill="#005A5B"/>
<path d="M227.265 226.076L262.064 222.164C260.08 244.256 263.539 263.266 267.531 275.938C269.236 281.349 270.348 282.721 275.574 285.27C284.289 289.514 282.129 299.295 277.416 299.788C275.099 302.747 270.225 302.381 266.86 300.774C260.203 303.338 254.408 299.241 251.15 293.41C248.657 288.952 246.619 284.162 244.762 278.629C243.406 281.085 239.893 278.199 241.622 271.475C237.738 276.71 233.153 274.888 234.706 266.377C232.291 267.456 231.331 264.887 232.55 261.621C224.11 269.277 217.913 262.441 225.781 245.276C214.528 249.71 220.906 236.443 227.265 226.08V226.076Z" fill="#005A5B"/>
<path d="M125.247 296.292C125.58 295.384 125.805 294.437 125.889 293.445C126.143 290.349 127.579 290.867 127.505 293.352C127.485 294.109 127.368 294.837 127.201 295.545C126.604 295.931 125.967 296.18 125.315 296.243C125.296 296.263 125.271 296.273 125.247 296.292Z" fill="#005A5B"/>
<path d="M114.926 294.553C114.916 295.281 114.999 296.189 115.195 297.156C114.607 297.361 114.044 297.503 113.496 297.615C113.324 296.516 113.26 295.423 113.309 294.646C113.476 292.161 114.965 291.467 114.926 294.553Z" fill="#005A5B"/>
<path d="M112.406 247.562C113.553 244.867 114.552 243.04 118.686 238.909C114.243 238.577 118.01 234.592 121.17 232.454C115.987 232.434 120.117 228.469 123.893 226.75C113.126 227.414 120.778 218.058 132.373 210.65C129.203 210.474 126.965 209.17 132.574 204.751C144.213 195.575 142.66 192.113 151.35 181.102L176.445 221.007C169.617 232.918 164.101 236.902 150.419 243.934C141.729 248.402 132.99 252.416 128.542 259.536C125.285 264.746 124.359 271.944 123.492 280.104C125.613 282.946 128.968 283.454 130.374 287.38C131.917 291.677 128.846 295.882 125.339 296.238C122.233 298.978 117.839 298.636 115.243 297.152C108.242 299.53 106.386 295.701 105.205 290.33C103.682 283.405 108.385 257.036 112.411 247.557L112.406 247.562Z" fill="#005A5B"/>
<path d="M265.719 297.361C265.886 298.289 266.282 299.514 266.855 300.779C266.292 300.994 265.743 301.145 265.195 301.272C264.646 299.915 264.245 298.435 264.122 297.459C263.804 294.973 265.161 294.28 265.719 297.366V297.361Z" fill="#005A5B"/>
<path d="M277.798 295.9C277.455 292.804 278.989 293.322 279.395 295.808C279.572 296.887 279.542 297.907 279.42 298.894C278.851 299.367 278.2 299.685 277.475 299.773C277.818 298.571 277.95 297.272 277.798 295.9Z" fill="#005A5B"/>
<path d="M308.36 274.405C308.512 273.868 308.674 273.374 308.835 272.994C309.815 270.684 311.338 270.767 310.266 273.716C310.06 274.283 309.874 275.02 309.727 275.831C309.173 275.357 308.737 274.893 308.36 274.41V274.405Z" fill="#005A5B"/>
<path d="M125.186 296.35C125.412 295.457 125.559 294.631 125.598 293.967C125.804 290.842 127.229 291.374 127.195 293.879C127.19 294.387 127.116 295.037 127.004 295.735C126.47 295.989 125.911 296.184 125.333 296.243C125.284 296.287 125.23 296.311 125.181 296.35H125.186Z" fill="#005A5B"/>
<path d="M115.504 294.529C115.479 295.227 115.332 296.194 115.102 297.195C114.421 297.42 113.794 297.581 113.206 297.688C113.584 296.521 113.829 295.418 113.902 294.578C114.181 291.457 115.592 292.024 115.504 294.529Z" fill="#005A5B"/>
<path d="M308.82 101.29C312.802 99.6739 315.202 106.789 311.857 108.146C308.521 109.499 305.058 102.819 308.82 101.29Z" fill="#005A5B"/>
<path d="M308.339 96.9194C307.551 95.8548 306.154 95.2005 305.155 95.01C302.441 94.4875 301.344 96.5727 303.632 97.9009C304.709 98.5259 305.454 98.7848 306.478 99.3805C308.168 100.367 309.647 98.692 308.339 96.9242V96.9194Z" fill="#005A5B"/>
<path d="M329.972 112.233C333.543 119.157 334.616 125.466 329.517 129.993C326.431 132.733 324.574 127.874 324.055 124.245C319.533 131.6 312.112 132.977 301.546 132.547C303.726 135.648 308.536 140.878 311.701 142.064C312.362 143.168 313.141 147.412 314.845 149.209C310.892 151.494 305.151 151.279 297.955 149.033L258.032 136.175L257.062 105.445C265.404 91.2495 277.994 83.7342 292.41 86.6055C301.619 88.4416 305.906 94.3747 308.859 100.933C312.479 108.98 315.615 108.087 320.4 107.989L329.972 112.228V112.233Z" fill="#005A5B"/>
<path d="M286.614 86.0195C288.51 86.0342 290.44 86.2149 292.414 86.6055C301.623 88.4416 305.909 94.3699 308.863 100.933C310.612 104.82 312.248 106.612 314.012 107.423C312.307 107.462 310.401 107.809 308.168 106.231C302.828 102.461 305.62 91.3618 286.614 86.0195Z" fill="#005A5B"/>
<path d="M276.903 87.6351C286.617 87.2054 299.236 96.7228 300.313 109.781C300.784 115.445 297.918 118.575 292.5 120.128C281.042 123.415 276.247 128.459 279.445 147.948L258.014 135.388L257.069 105.434C262.242 96.6349 269.046 90.4136 276.908 87.6302L276.903 87.6351Z" fill="#005A5B"/>
<path d="M322.745 118.02L326.527 117.531C325.543 127.029 327.428 130.296 330.848 128.577C330.456 129.065 330.025 129.539 329.515 129.993C326.429 132.733 324.543 129.261 324.029 125.633C320.1 132.381 314.682 133.729 307.868 133.348C307.868 133.348 308.03 138.891 314.31 140.302L312.767 145.2C303.631 143.886 296.812 140.551 293.716 134.969C290.062 128.387 293.094 127.928 295.686 128.626C318.929 134.876 322.265 125.598 322.745 118.024V118.02Z" fill="#005A5B"/>
<path d="M302.537 137.195C307.308 136.429 314.411 136.668 319.114 139.529C324.409 142.747 326.202 148.739 323.939 153.217C321.646 157.749 315.528 159.912 312.471 155.253C310.732 152.602 311.595 149.652 310.605 146.107C309.547 142.323 306.505 141.585 301.93 139.544C299.294 138.367 299.975 137.605 302.532 137.195H302.537Z" fill="#005A5B"/>
<path d="M304.324 136.971C305.695 136.839 307.18 136.79 308.708 136.849C313.43 138.279 317.761 140.804 318.784 145.458C319.402 148.266 318.613 149.184 317.447 145.814C315.635 140.57 310.065 138.177 304.319 136.966L304.324 136.971Z" fill="#005A5B"/>
<path d="M329.943 109.605C331.756 113.355 328.88 119.381 325.108 120.089C321.973 120.675 314.978 114.703 315.007 111.587C315.022 109.59 316.301 108.237 320.611 107.466C326.813 106.357 329.204 108.066 329.948 109.605H329.943Z" fill="#005A5B"/>
<path d="M288.122 106.768C292.379 106.157 292.991 113.634 289.42 114.151C285.854 114.664 284.105 107.349 288.122 106.768Z" fill="#005A5B"/>
<path d="M288.138 100.063C286.821 99.8971 285.385 100.449 284.558 101.04C282.309 102.637 283.059 104.868 285.601 104.136C286.801 103.789 287.502 103.433 288.638 103.105C290.519 102.568 290.328 100.341 288.138 100.068V100.063Z" fill="#005A5B"/>
<path d="M123.896 226.75C113.128 227.414 120.78 218.057 132.375 210.65C129.206 210.474 126.967 209.17 132.576 204.751C142.897 196.615 142.858 192.962 148.771 184.568C149.476 183.533 150.245 182.498 151.078 181.462C151.171 181.34 151.254 181.228 151.352 181.106C154.228 177.634 157.872 174.245 162.658 171.54C185.583 158.589 212.667 171.999 236.435 167.262L253.492 184.309C234.363 192.821 231.248 226.247 211.022 221.08C204.119 219.317 196.953 213.091 194.646 200.927C192.823 191.312 189.394 189.075 181.757 201.01C173.386 214.092 167.978 225.485 149.98 226.994C138.175 227.985 132.84 226.608 123.891 226.75H123.896Z" fill="#005A5B"/>
<path d="M232.774 167.839C233.435 167.756 234.097 167.663 234.758 167.556C234.944 167.526 235.125 167.492 235.307 167.458C235.684 167.395 236.066 167.336 236.443 167.258L253.5 184.305C249.454 186.107 246.128 189.027 243.203 192.455C241.846 191.22 240.651 189.779 239.73 188.114C237.036 188.588 234.268 187.738 232.083 185.668C228.845 182.611 226.675 176.746 227.846 168.244C229.414 168.176 230.971 168.054 232.519 167.868C232.608 167.858 232.696 167.844 232.779 167.834L232.774 167.839Z" fill="#005A5B"/>
<path d="M268.329 139.485L260.928 137.102L258.4 135.618L269.936 117.999C269.177 114.878 270.838 114.258 271.905 117.232C274.022 123.126 275.604 127.375 277.852 132.609C278.122 133.235 278.391 133.864 278.661 134.499C278.298 138.01 278.538 142.376 279.449 147.953L266.248 140.218C266.933 139.939 267.629 139.69 268.334 139.49L268.329 139.485Z" fill="#005A5B"/>
<path d="M234.479 155.098C230.095 155.748 230.619 151.788 233.44 149.029C247.005 135.751 250.664 113.098 259.589 101.539L269.19 109.152C268.255 124.441 279.947 137.831 281.75 152.989C282.911 162.75 277.596 163.908 275.534 159.498C281.559 196.103 248.038 202.993 241.082 185.013C233.827 188.739 224.383 177.517 234.489 155.103L234.479 155.098Z" fill="#005A5B"/>
</g>
<path d="M161.002 55.2149L171.638 49.697C173.325 52.7867 174.976 55.8956 176.59 59.0238L169.644 62.7101C168.446 63.3432 167.237 64.0595 165.986 64.5756L161.002 55.2149Z" fill="#008490"/>
<path d="M130.347 9.42316C130.943 8.21629 131.886 6.99615 133.099 6.3628C134.398 5.68493 135.846 5.97381 137.181 6.38094C143.727 8.37835 149.494 12.4198 153.3 18.1419C155.244 21.0657 156.795 24.3163 158.434 27.4205C162.419 34.8171 166.337 42.2489 170.189 49.7157C167.572 51.1225 164.934 52.486 162.273 53.8064C161.882 53.1078 161.443 52.4339 161.002 51.7661C160.127 50.4427 159.14 48.992 157.903 47.9835C155.223 45.7974 147.674 44.1105 144.186 42.6875C142.25 41.8974 140.377 40.2832 138.359 39.8712C138.366 40.2922 138.755 40.7238 138.981 41.0819C137.285 42.4799 135.002 43.4219 133.054 44.4334L128.87 36.6495L125.232 29.6821C126.924 28.7717 128.622 27.8713 130.325 26.9809C130.355 26.991 130.385 27.0014 130.415 27.0108C131.181 27.2548 131.604 27.8543 132.29 28.1008C132.313 28.0496 132.356 27.9587 132.375 27.9C132.679 26.9553 132.722 25.7089 132.863 24.7165C133.684 18.9476 133.003 14.6101 130.347 9.42316Z" fill="#008490"/>
<path d="M141.99 42.5592C144.795 43.6661 147.673 44.6055 150.534 45.5564C152.362 46.1641 154.323 46.7238 156.049 47.5829C148.76 53.0643 144.404 59.778 141.451 68.3593C141.055 69.6508 140.84 71.6309 139.556 72.3215C139.229 72.4974 138.765 72.6396 138.397 72.522C138.151 72.4434 137.997 72.2902 137.879 72.0633C136.789 69.9673 140.637 57.3192 141.734 54.6432C143.007 51.5405 144.473 48.6624 146.226 45.8064C144.806 44.8746 143.013 43.9247 141.99 42.5592Z" fill="#008490"/>
<path d="M118.77 54.8942C116.248 49.9793 113.611 45.1055 111.009 40.2319C110.116 38.5594 108.391 36.0172 107.925 34.2584C107.969 34.1408 108.007 34.0433 108.086 33.9434C108.407 33.5358 108.908 33.1799 109.343 32.9044C110.799 31.9825 119.953 27.0418 121.147 26.9119C121.838 26.8369 122.29 27.0687 122.81 27.476C125.226 31.4746 127.278 35.8139 129.47 39.9457C130.423 41.7423 132.858 45.75 133.351 47.5353C133.554 48.272 133.278 48.7256 132.924 49.3428C131.414 50.1603 120.528 56.07 119.917 56.1031C119.802 56.1094 119.692 56.0522 119.579 56.0269C119.168 55.7354 118.993 55.3295 118.77 54.8942Z" fill="#008490"/>
<path d="M22.4396 105.642C19.5862 100.975 16.9478 96.1888 14.5243 91.2843C12.6239 87.5049 5.42632 71.7446 6.63737 68.2529C7.47957 65.8246 12.3359 60.8623 14.3741 59.0044C23.7333 50.4726 35.7215 45.6429 48.3075 44.621C51.6254 44.3517 54.9642 44.4351 58.2893 44.3814C61.4196 44.3309 64.56 44.1449 67.6866 43.9832C79.1371 43.3909 88.6634 42.0084 99.589 38.3567C102.227 37.4751 104.95 36.5896 107.456 35.369C111.218 42.0804 114.666 49.0105 118.292 55.7995C108.375 61.8886 100.258 68.6205 92.8414 77.6734C82.7968 89.9332 76.2324 103.132 62.5744 112.174C55.8996 116.593 48.6031 119.06 40.6842 120.095C38.7707 120.345 36.4195 120.673 34.5143 120.266C31.3573 119.591 24.3763 108.686 22.4396 105.642Z" fill="#008490"/>
<path d="M178.09 71.5098L194.522 95.7563" stroke="#008490" stroke-width="3" stroke-linecap="round" stroke-dasharray="5 5"/>
<path d="M184.523 67L208 86.0727" stroke="#008490" stroke-width="3" stroke-linecap="round" stroke-dasharray="5 5"/>
<path d="M178.246 100L171.494 74.7367" stroke="#008490" stroke-width="3" stroke-linecap="round" stroke-dasharray="5 5"/>
<defs>
<clipPath id="clip0_2067_33069">
<rect width="248" height="216" fill="white" transform="matrix(-1 0 0 1 333 86)"/>
</clipPath>
</defs>
</svg>
