<svg width="49" height="46" viewBox="0 0 49 46" fill="none" xmlns="http://www.w3.org/2000/svg">
<path d="M31.9523 1.82546C34.9352 1.82564 37.6988 3.36729 39.2683 5.88812L39.4158 6.13455L46.6878 18.7305C48.2273 21.3972 48.2276 24.6825 46.688 27.3492L39.4161 39.9446C37.9245 42.528 35.2075 44.1507 32.2396 44.2496L31.9519 44.2538L17.4075 44.254C14.4245 44.2539 11.661 42.7122 10.0915 40.1914L9.94396 39.945L2.672 27.349C1.13247 24.6823 1.13216 21.397 2.67173 18.7303L9.9437 6.13486C11.4353 3.55148 14.1522 1.92877 17.1201 1.82992L17.4078 1.82575L31.9523 1.82546Z" stroke="#EBEBEB" stroke-width="2"/>
</svg>
