<svg width="272" height="257" viewBox="0 0 272 257" fill="none" xmlns="http://www.w3.org/2000/svg">
<g clip-path="url(#clip0_2067_33075)">
<path d="M128.719 4.375C126.907 4.375 125.438 5.84412 125.438 7.65625V17.5H118.656V12.0312C118.656 5.39722 113.259 0 106.625 0H39.9062C47.1434 0 53.0312 5.88788 53.0312 13.125V79.1875H118.656V24.0625H128.719C130.531 24.0625 132 22.5934 132 20.7812V7.65625C132 5.84412 130.531 4.375 128.719 4.375Z" fill="#008490"/>
<path d="M36.625 90.125H46.4688V24.0625H33.3438V86.8438C33.3438 88.6559 34.8129 90.125 36.625 90.125Z" fill="#008490"/>
<path d="M39.9062 6.5625C36.2818 6.5625 33.3438 9.50053 33.3438 13.125V17.5H46.4688V13.125C46.4688 9.50053 43.5307 6.5625 39.9062 6.5625Z" fill="#008490"/>
<path d="M26.5625 7.65625C26.5625 5.84412 25.0934 4.375 23.2812 4.375C21.4691 4.375 20 5.84412 20 7.65625V20.7812C20 22.5934 21.4691 24.0625 23.2812 24.0625H33.3438V17.5H26.5625V7.65625Z" fill="#008490"/>
<path d="M53.0312 85.75H118.656V95.5938H53.0312V85.75Z" fill="#008490"/>
<path d="M56.3125 112H115.375C117.187 112 118.656 110.531 118.656 108.719V102.156H53.0312V108.719C53.0312 110.531 54.5004 112 56.3125 112Z" fill="#008490"/>
</g>
<g clip-path="url(#clip1_2067_33075)">
<path d="M7.58557 115.538C4.40443 120.148 3.07091 127.609 7.66193 134.269C13.7544 143.104 30.2556 150.519 66.5664 147.917L49.7038 159.755C20.3661 158.944 6.05863 148.115 1.51342 136.465C-1.63209 128.4 0.215501 119.271 6.14514 114.006C9.16849 111.323 9.74874 112.388 7.58047 115.538H7.58557Z" fill="#005A5B"/>
<path d="M194.985 243.979C196.863 223.96 190.944 206.153 196.619 178.719L222.582 192.519C213.685 213.157 208.081 230.99 207.755 241.783C213.176 242.64 214.947 245.283 215.563 247.621C215.945 249.087 216.113 252.789 210.183 251.887C203.042 253.87 198.207 252.323 196.166 249.837C194.909 248.311 194.766 246.318 194.985 243.979Z" fill="#005A5B"/>
<path d="M211.594 222.075C209.268 229.927 207.909 236.657 207.757 241.785C213.177 242.642 214.949 245.285 215.564 247.623C215.946 249.089 216.114 252.791 210.184 251.888C203.043 253.871 198.208 252.324 196.167 249.839C194.91 248.313 194.767 246.319 194.986 243.981C195.383 239.741 195.424 235.597 195.307 231.443C199.506 226.544 204.794 223.217 211.599 222.07L211.594 222.075Z" fill="#005A5B"/>
<path d="M50.6016 238.589C50.8918 230.002 50.4286 223.773 50.0418 219.224C49.034 207.34 51.4618 209.623 57.1981 202.476C65.7795 191.78 61.6822 179.003 64.0337 163.854L100.039 186.109C95.3462 199.413 88.9483 205.23 75.8115 210.962C70.3094 213.361 62.237 216.561 62.3642 236.164C67.3879 236.453 71.1136 239.334 72.2741 241.961C73.0019 243.605 73.2208 246.293 70.7064 246.161C68.584 248.367 64.4256 248.398 61.8349 247.185C52.5052 248.616 50.4133 244.416 50.6067 238.589H50.6016Z" fill="#005A5B"/>
<path d="M50.3129 222.684C55.5402 217.8 61.9635 215.7 68.9722 214.949C65.333 218.221 62.2842 224.058 62.3605 236.16C67.3842 236.449 71.1099 239.33 72.2704 241.957C72.9982 243.601 73.2171 246.289 70.7027 246.157C68.5803 248.363 64.4219 248.394 61.8312 247.181C52.5015 248.612 50.4096 244.412 50.603 238.584C50.8219 231.991 50.603 226.802 50.3129 222.679V222.684Z" fill="#005A5B"/>
<path d="M233.227 106.637C226.116 121.518 234.733 157.234 231.471 177.147C227.842 199.276 213.356 213.254 187.703 214.071C155.877 215.08 111.03 197.399 91.3326 189.238C80.7865 184.866 75.7832 187.696 72.0625 195.472C65.7867 208.593 60.3203 211.707 46.1655 217.327C40.3733 219.624 31.914 222.688 29.6745 241.469C34.6625 241.748 38.0421 244.507 38.8871 247.018C39.4164 248.59 39.3146 251.167 36.8104 251.04C34.4233 253.155 30.2598 253.18 27.8116 252.024C18.3089 253.398 16.7209 249.371 17.6218 243.792C18.9451 235.565 19.2353 229.601 19.3981 225.239C19.8257 213.852 21.9787 216.038 28.5751 209.196C39.7778 197.572 33.9805 184.638 40.2155 169.402C43.7987 160.643 50.5835 149.094 65.746 146.786C87.9478 143.413 140.938 149.195 180.837 135.846C184.507 126.625 186.37 120.732 187.662 110.192L233.227 106.637Z" fill="#005A5B"/>
<path d="M173.689 200.564C173.786 204.86 174.112 209.13 174.605 213.381C173.974 213.294 173.353 213.193 172.738 213.091C172.269 208.938 172.03 204.758 172.183 200.564C172.3 197.368 173.618 197.475 173.689 200.564Z" fill="#005A5B"/>
<path d="M198.952 204.459C200.076 201.467 201.298 201.984 200.382 204.936C199.567 207.553 198.865 210.196 198.214 212.848C197.567 212.98 196.921 213.117 196.254 213.229C196.992 210.262 197.873 207.33 198.952 204.459Z" fill="#005A5B"/>
<path d="M19.2235 229.028C25.1124 224.113 31.9022 221.456 39.4453 220.705C35.1851 223.743 31.1235 229.297 29.6678 241.47C34.6558 241.749 38.0354 244.508 38.8803 247.018C39.4097 248.591 39.3079 251.167 36.8037 251.04C34.4166 253.155 30.2531 253.181 27.8049 252.024C18.3022 253.399 16.7142 249.372 17.6151 243.793C18.5923 237.726 19.0046 232.898 19.2184 229.028H19.2235Z" fill="#005A5B"/>
<path d="M178.216 247.993C178.618 227.974 170.912 210.167 174.562 182.732L201.543 196.533C194.168 217.171 190.35 235.004 190.824 245.797C196.585 246.375 198.861 249.297 199.644 251.635C200.138 253.1 200.041 255.494 197.715 255.378C195.496 257.346 191.623 257.371 189.348 256.291C180.288 257.001 178.109 253.253 178.216 247.998V247.993Z" fill="#005A5B"/>
<path d="M190.821 245.796C196.583 246.374 198.858 249.296 199.642 251.634C200.136 253.1 200.039 255.494 197.713 255.372C195.494 257.34 191.621 257.365 189.345 256.285C180.286 256.995 178.107 253.247 178.214 247.992C178.311 243.255 177.944 238.645 177.389 233.999C182.092 229.495 187.335 227.091 192.969 226.178C191.351 233.989 190.597 240.689 190.821 245.796Z" fill="#005A5B"/>
<path d="M242.031 78.1068C242.031 78.1068 256.598 78.0815 264.538 79.3393C272.484 80.5972 271.318 88.9253 265.363 96.026C259.296 103.264 244.255 110.06 192.344 111.754C192.344 111.754 194.899 69.9664 199.48 65.1176C204.061 60.2638 225.942 59.8022 231.159 63.2004C236.382 66.5986 242.026 78.1068 242.026 78.1068H242.031Z" fill="#005A5B"/>
<path d="M218.759 108.498C203.704 100.094 211.176 92.5263 219.37 93.2515C227.259 93.9464 225.412 87.3427 235.077 85.6994C246.219 83.8076 260.588 85.3038 260.588 85.3038L270.136 85.0198C270.284 88.2253 268.497 92.2929 265.362 96.031C261.28 100.9 253.121 105.566 232.436 108.614C228.079 120.96 232.471 147.968 232.268 164.888C217.141 165.861 213.486 154.039 216.25 137.24C218.693 122.405 220.154 119.91 218.759 108.503V108.498Z" fill="#005A5B"/>
<path d="M218.761 108.499C223.093 109.225 227.663 109.225 232.438 108.611C232.168 109.387 231.939 110.239 231.73 111.116C227.119 111.532 222.864 111.471 218.965 110.924C218.924 110.153 218.868 109.356 218.761 108.494V108.499Z" fill="#005A5B"/>
<path d="M233.228 97.0609C233.777 97.3246 234.403 97.5478 235.075 97.771C244.425 100.9 263.711 101.357 264.235 89.0726C264.286 87.9314 266.072 87.9213 266.026 89.0726C265.436 102.899 245.235 102.99 234.587 99.4701C233.772 99.2013 232.831 99.6983 232.016 99.257C230.683 98.5368 230.601 95.798 233.228 97.0609Z" fill="#005A5B"/>
<path d="M266.076 88.971C266.06 90.9845 265.969 92.9271 266.355 94.7682C266.04 95.1892 265.714 95.6101 265.363 96.026C265.251 96.1579 265.129 96.2948 265.012 96.4267C264.238 94.1088 264.264 91.6743 264.284 88.971C264.294 87.8247 266.086 87.8196 266.076 88.971Z" fill="#005A5B"/>
<path d="M271.849 81.6984C272.613 84.63 270.455 90.0976 265.884 90.6352C261.751 91.1221 256.254 87.2522 256.254 84.4373C256.254 81.6223 260.138 79.3704 263.894 79.0204C268.154 78.6248 271.249 79.4008 271.849 81.6984Z" fill="#005A5B"/>
<path d="M217.968 79.1004C222.396 78.4917 222.987 86.2619 219.271 86.7742C215.566 87.2865 213.79 79.6786 217.968 79.1004Z" fill="#005A5B"/>
<path d="M216.944 71.3259C215.565 71.2853 214.134 72.0004 213.335 72.6902C211.167 74.5668 212.17 76.7985 214.725 75.7841C215.931 75.3073 216.618 74.8661 217.763 74.4147C219.657 73.6691 219.234 71.3918 216.944 71.3259Z" fill="#005A5B"/>
<path d="M204.111 115.904C200.741 126.307 189.152 119.556 186.739 116.69C187.09 114.55 187.401 112.379 187.671 110.193L192.475 109.818C192.827 104.721 199.011 83.7228 198.756 80.8419C198.502 77.961 200.049 77.9154 200.527 80.9991C202.451 93.4254 207.343 105.928 204.111 115.904Z" fill="#005A5B"/>
<path d="M205.839 62.2422C199.894 63.6015 195.252 66.6548 191.338 70.8949C182.054 80.9678 174.954 83.1284 173.05 87.9468C169.737 96.3307 180.853 110.37 192.875 117.77C197.97 120.909 200.545 119.119 202.098 114.367C205.442 104.116 197.39 87.4446 198.855 74.9778L205.844 62.2422H205.839Z" fill="#005A5B"/>
<path d="M187.785 253.61C187.714 250.567 189.175 251.074 189.368 253.519C189.444 254.488 189.348 255.406 189.185 256.299C188.579 256.344 188.014 256.365 187.469 256.37C187.693 255.492 187.811 254.569 187.79 253.616L187.785 253.61Z" fill="#005A5B"/>
<path d="M197.65 255.422C197.68 255.062 197.736 254.707 197.726 254.337C197.655 251.294 199.116 251.801 199.309 254.246C199.324 254.428 199.319 254.611 199.324 254.788C198.983 255.169 198.479 255.412 197.716 255.377C197.695 255.392 197.67 255.407 197.65 255.422Z" fill="#005A5B"/>
<path d="M27.4825 250.599C27.5486 251.091 27.6606 251.562 27.793 252.029C27.2178 252.11 26.6732 252.176 26.154 252.217C26.0472 251.74 25.9504 251.263 25.9046 250.756C25.7061 248.316 27.0702 247.581 27.4825 250.599Z" fill="#005A5B"/>
<path d="M36.7336 251.091C36.7845 250.649 36.8354 250.208 36.8252 249.752C36.754 246.708 38.2147 247.216 38.4082 249.655C38.4285 249.944 38.4336 250.228 38.4336 250.512C38.0671 250.852 37.5581 251.07 36.815 251.035C36.7947 251.055 36.7641 251.07 36.7387 251.091H36.7336Z" fill="#005A5B"/>
<path d="M58.1489 161.369C59.3501 159.766 58.3016 158.331 56.3878 158.569C52.4279 159.056 48.3662 161.252 49.9543 163.905C50.9061 165.492 55.7363 164.594 58.154 161.374L58.1489 161.369Z" fill="#005A5B"/>
<path d="M72.6921 157.149C72.122 155.095 64.7011 156.155 66.116 159.457C67.1034 161.76 73.3334 159.442 72.6921 157.149Z" fill="#005A5B"/>
<path d="M63.1116 154.187C62.572 152.94 57.9963 154.243 59.1669 156.201C59.9864 157.565 63.7071 155.577 63.1116 154.187Z" fill="#005A5B"/>
<path d="M95.4731 152.411C95.3306 150.575 88.8767 150.256 89.5231 153.284C89.9761 155.394 95.636 154.455 95.4731 152.411Z" fill="#005A5B"/>
<path d="M85.5578 149.942C85.5018 148.587 81.4758 148.506 81.7456 150.423C81.9695 151.991 85.6189 151.448 85.5578 149.942Z" fill="#005A5B"/>
<path d="M160.313 199.2C160.115 201.386 167.648 203.049 167.49 199.357C167.383 196.78 160.532 196.76 160.313 199.2Z" fill="#005A5B"/>
<path d="M136.645 195.519C136.116 197.34 142.213 199.982 142.697 196.832C143.033 194.636 137.241 193.49 136.645 195.519Z" fill="#005A5B"/>
<path d="M145.292 201.484C144.854 202.807 148.702 204.344 149.14 202.397C149.496 200.809 145.786 200.008 145.292 201.484Z" fill="#005A5B"/>
</g>
<defs>
<clipPath id="clip0_2067_33075">
<rect width="112" height="112" fill="white" transform="translate(20)"/>
</clipPath>
<clipPath id="clip1_2067_33075">
<rect width="272" height="196" fill="white" transform="matrix(-1 0 0 1 272 61)"/>
</clipPath>
</defs>
</svg>
