<svg width="256" height="246" viewBox="0 0 256 246" fill="none" xmlns="http://www.w3.org/2000/svg">
<path d="M46.2439 101.921C46.2439 101.921 42.8094 101.281 46.0297 97.6538C49.25 94.0269 50.9666 92.3193 53.1131 90.826C55.2595 89.3327 54.6155 83.5723 59.9822 83.5723C65.349 83.5723 66.8514 85.9188 69.2121 85.4929C71.5728 85.0657 82.9504 82.5062 96.2589 83.5723C109.567 84.6384 117.509 84.6384 123.52 85.9188C129.531 87.1992 130.819 87.1992 130.819 87.1992C130.819 87.1992 138.117 81.6518 143.913 80.7986C149.708 79.9455 150.997 79.9455 154.001 75.6785C157.006 71.4114 165.593 63.9435 169.456 61.3828C173.321 58.822 177.398 55.1952 177.184 50.7152C176.969 46.2352 176.969 43.6745 180.188 38.5543C182.335 28.7399 184.696 22.5523 184.911 18.2853C185.125 14.0183 185.125 9.53699 187.916 11.4575C190.706 13.3781 193.711 19.1384 196.073 24.8988C198.434 30.6591 198.22 35.9936 198.864 36.4208C199.508 36.848 201.868 36.848 202.298 38.3414C205.947 38.7686 206.805 38.7686 206.805 38.7686C206.805 38.7686 209.596 32.368 210.669 30.2345C210.669 30.2345 210.239 24.2599 211.313 21.9134C212.386 19.567 212.601 16.3661 213.673 14.6598C214.747 12.9522 217.966 13.3794 219.469 16.5803C220.971 19.7812 222.473 24.0483 222.473 26.1818C222.473 28.3153 221.829 32.3694 221.185 34.2899C220.541 36.2105 220.541 41.1177 220.541 41.1177C220.541 41.1177 226.122 41.5449 229.771 46.0249C233.42 50.5049 233.635 52.2124 235.566 53.7058C237.498 55.1991 240.717 59.8933 238.787 65.2278C241.147 68.0015 240.719 70.5622 240.503 71.8426C243.724 75.4694 245.654 80.1637 244.796 84.0035C243.938 87.8446 241.361 89.3379 240.932 93.8179C240.502 98.2979 238.571 98.938 235.78 99.1523C235.136 101.926 232.56 103.632 228.053 101.286C223.546 106.193 217.105 108.327 215.174 109.18C213.242 110.033 205.944 111.526 204.871 117.074C203.798 122.621 203.798 125.822 203.798 128.809C203.798 131.795 204.012 136.489 201.866 139.476C199.719 142.463 199.29 145.023 197.573 149.931C195.856 154.838 194.353 158.039 194.138 163.159C193.924 168.279 192.42 173.186 190.06 178.734C187.699 184.281 186.197 188.548 185.337 193.67C184.479 198.79 182.761 200.07 184.264 204.124C185.767 208.178 185.553 211.805 188.129 212.018C190.705 212.231 193.71 212.658 195.427 216.498C197.143 220.338 198.003 223.539 193.924 223.966C190.704 225.887 184.694 225.246 184.694 225.246C184.694 225.246 182.334 226.1 179.113 225.246C175.893 224.393 172.674 223.326 171.816 220.552C170.957 217.778 170.098 213.937 169.669 211.591C169.239 209.244 169.239 197.509 169.025 191.748C168.811 185.987 168.811 178.092 169.455 173.825C170.099 169.558 170.529 167.425 170.529 167.425C170.529 167.425 161.299 173.825 153.142 175.746C152.068 182.574 150.137 187.268 149.277 192.601C148.419 197.935 148.205 201.989 147.345 204.976C146.487 207.963 144.769 209.03 147.131 213.724C149.492 218.419 147.989 219.272 151.424 220.338C154.858 221.405 157.005 223.752 157.863 227.379C158.721 231.005 157.219 233.353 155.717 232.499C151.852 234.632 147.345 235.059 145.628 233.565C141.765 235.698 135.325 236.339 133.394 229.085C131.462 221.83 130.603 213.083 129.101 210.949C127.599 208.816 126.096 204.762 125.881 201.348C125.666 197.934 125.237 185.346 125.666 177.878C126.096 170.41 125.666 166.783 125.666 166.783C125.666 166.783 111.284 162.303 102.268 156.969C93.2528 151.634 84.667 151.849 84.667 151.849C84.667 151.849 82.3063 162.73 77.3694 168.064C72.4324 173.398 67.2812 177.238 66.2073 180.439C65.1335 183.64 64.9192 188.973 66.8514 193.454C68.7836 197.934 69.8562 198.574 72.4324 199.214C75.0087 199.855 76.7253 199.642 78.4432 202.841C80.1599 206.042 80.5897 209.029 76.2968 209.456C72.0039 209.883 69.4277 209.243 69.4277 209.243C69.4277 209.243 62.13 212.017 58.9097 207.963C55.6894 203.909 55.2609 194.307 54.187 189.614C53.1131 184.92 52.4703 179.16 52.2548 175.106C52.0405 171.052 51.6107 170.626 54.187 167.425C56.7632 164.224 58.4799 155.477 58.4799 155.477L58.2656 151.423C58.2656 151.423 53.3287 157.397 51.3965 159.531C49.4643 161.664 48.8202 165.505 44.7429 171.053C40.6642 176.6 35.9415 183.854 34.0107 188.335C32.0785 192.816 29.5035 198.577 28.6439 202.631C27.7856 206.685 27.9998 209.886 28.6439 212.658C29.2879 215.432 31.0046 214.792 32.2927 217.778C33.5808 220.765 33.7951 222.899 32.507 222.473C29.9307 225.033 26.7117 224.606 26.7117 224.606C26.7117 224.606 20.4866 227.167 17.2663 224.179C12.9734 225.245 9.75306 224.392 11.471 216.285C13.1876 208.177 15.7639 198.363 16.8378 195.163C17.9117 191.962 19.414 188.548 18.5544 184.281C17.6961 180.014 18.3402 177.453 20.4866 173.614C22.633 169.772 21.989 163.159 21.989 159.318C21.989 155.477 22.2032 149.076 26.4961 142.889C30.789 136.701 32.507 124.54 33.1497 121.552C33.7925 118.564 37.4426 111.951 40.2331 110.244C43.0236 108.537 46.4582 106.19 46.2439 101.923V101.921Z" fill="#01595A"/>
<path d="M90.5441 8.27367L62.5057 4.85436C58.6459 4.38365 55.1422 7.14894 54.7031 11.0125L53.7944 19.0089C53.3563 22.8642 56.1376 26.3402 59.9951 26.7585L88.4527 29.8443C91.847 30.2123 94.9387 27.8677 95.5 24.5L125.599 24.104C126.774 24.0885 126.964 22.4101 125.822 22.1324L96.5 15C96.5 11.5749 93.9441 8.6883 90.5441 8.27367Z" fill="#008490"/>
<g clip-path="url(#clip0_2067_33139)">
<path d="M131.389 35.1865C131.256 35.021 131.032 34.9575 130.833 35.029C130.674 35.085 130.557 35.2165 130.516 35.3745C130.412 35.5705 129.903 36.2635 129.365 36.996C126.884 40.3745 122.266 46.6635 122.266 50.265C122.266 55.0815 126.184 59 130.999 59C135.816 59 139.734 55.0815 139.734 50.265C139.734 45.595 131.73 35.609 131.389 35.1865Z" fill="#008490"/>
</g>
<circle cx="150" cy="79" r="4" fill="#2FD7E6"/>
<circle cx="150" cy="79" r="6.5" stroke="#2FD7E6"/>
<circle cx="166" cy="64" r="4" fill="#2FD7E6"/>
<circle cx="166" cy="64" r="6.5" stroke="#2FD7E6"/>
<defs>
<clipPath id="clip0_2067_33139">
<rect width="24" height="24" fill="white" transform="translate(119 35)"/>
</clipPath>
</defs>
</svg>
