<svg width="122" height="125" viewBox="0 0 122 125" fill="none" xmlns="http://www.w3.org/2000/svg">
<path d="M13.7871 84.8602C12.8382 87.6012 14.2893 90.5919 17.0303 91.5408C23.6293 93.8252 35.0756 97.7876 40.367 99.6194C51.5926 103.506 61.1794 104.274 65.2843 103.738C65.3783 103.726 73.0275 102.06 80.7845 98.4009C86.9989 95.4692 93.6987 89.5487 94.3335 88.7777C98.1666 84.1203 100.205 81.1425 103.18 72.5484C105.63 65.4656 110.726 50.7463 113.397 43.0307C114.346 40.2895 112.893 37.2983 110.152 36.3494L44.0581 13.4701C41.317 12.5212 38.3258 13.9741 37.3769 16.7151L13.7871 84.8602Z" fill="#35A2EB"/>
<path d="M83.1388 97.6167C94.0757 91.2597 98.9804 82.3042 98.9804 82.3042C98.9804 82.3042 91.2351 88.5728 80.6655 87.5897C80.6655 87.5897 71.4628 100.99 62.1408 103.889C62.1408 103.889 72.3709 103.875 83.1381 97.6178L83.1388 97.6167Z" fill="#1E8DD8"/>
<path d="M112.045 46.9334L36.0265 20.6174L37.3771 16.7154C38.3258 13.9742 41.3172 12.5213 44.0583 13.4701L110.152 36.3492C112.893 37.2982 114.346 40.2893 113.397 43.0307C112.996 44.1902 112.54 45.5079 112.047 46.934L112.045 46.9334Z" fill="#44B4FF"/>
<path d="M50.7676 45.5063C50.1376 45.2885 49.5872 44.9878 49.1165 44.6041C48.656 44.2155 48.2927 43.767 48.0265 43.2586C47.768 42.7529 47.6152 42.2114 47.5682 41.6344C47.5239 41.0497 47.6067 40.4537 47.8166 39.8465C48.0265 39.2392 48.3281 38.7231 48.7214 38.2982C49.1174 37.8657 49.5732 37.5304 50.0889 37.2923C50.6122 37.0568 51.1736 36.9322 51.7732 36.9185C52.383 36.8999 53.0029 36.9994 53.6329 37.2172C54.3692 37.4717 54.9812 37.8277 55.4689 38.2852C55.9642 38.7454 56.3214 39.2852 56.5406 39.9049L54.6573 40.707C54.5041 40.3141 54.2995 39.9842 54.0434 39.7172C53.7949 39.4529 53.4808 39.2551 53.1013 39.1239C52.7749 39.0111 52.4567 38.9606 52.1467 38.9724C51.8367 38.9842 51.5476 39.0584 51.2794 39.1952C51.0214 39.3269 50.7869 39.5136 50.576 39.7551C50.3726 39.9992 50.2119 40.292 50.0938 40.6336C49.9758 40.9752 49.9213 41.3048 49.9305 41.6224C49.9473 41.9426 50.0151 42.238 50.1341 42.5085C50.2632 42.7741 50.446 43.0073 50.6826 43.208C50.9191 43.4087 51.2006 43.5655 51.527 43.6783C51.9065 43.8095 52.2756 43.8479 52.6344 43.7935C53.0007 43.7416 53.3654 43.6085 53.7284 43.3941L54.7144 45.188C54.1619 45.5324 53.5476 45.7364 52.8712 45.8001C52.2051 45.8587 51.5039 45.7608 50.7676 45.5063ZM60.3011 48.6233L59.3686 44.0563L61.549 43.6118L62.8402 49.5009L60.3011 48.6233ZM55.2228 46.8679L57.9779 38.8976L60.221 39.6729L57.4659 47.6432L55.2228 46.8679ZM57.8717 44.3674L58.5014 42.5456L61.3935 43.5453L60.7638 45.3671L57.8717 44.3674ZM61.3796 44.8024L59.3747 43.8545L63.2041 40.7041L65.5725 41.5228L61.3796 44.8024ZM67.3806 51.2489C66.743 51.0285 66.1901 50.7226 65.722 50.3314C65.2539 49.9402 64.883 49.489 64.6093 48.978C64.3457 48.462 64.1905 47.9155 64.1435 47.3384C64.0966 46.7613 64.1768 46.173 64.384 45.5733C64.5913 44.9736 64.8916 44.4613 65.2849 44.0364C65.6782 43.6115 66.1365 43.2813 66.6598 43.0458C67.1933 42.8054 67.765 42.6758 68.3748 42.6572C68.9845 42.6385 69.6083 42.7394 70.2459 42.9598C70.8911 43.1828 71.4439 43.4886 71.9045 43.8773C72.3726 44.2685 72.7384 44.7221 73.0019 45.2381C73.268 45.7465 73.4246 46.2892 73.4715 46.8663C73.5261 47.446 73.4497 48.0357 73.2424 48.6354C73.0352 49.235 72.7297 49.7498 72.3262 50.1797C71.9329 50.6046 71.4746 50.9348 70.9513 51.1703C70.428 51.4058 69.8615 51.5328 69.2517 51.5515C68.6495 51.5728 68.0258 51.4719 67.3806 51.2489ZM68.0261 49.3816C68.3297 49.4865 68.6289 49.5305 68.9237 49.5134C69.2262 49.499 69.5064 49.4259 69.7643 49.2941C70.0326 49.1574 70.2683 48.9669 70.4717 48.7228C70.6826 48.4813 70.8471 48.1898 70.9652 47.8482C71.0859 47.499 71.1366 47.1681 71.1172 46.8555C71.108 46.5379 71.0388 46.2463 70.9097 45.9807C70.7907 45.7102 70.6168 45.4759 70.3879 45.2778C70.1665 45.0823 69.904 44.9321 69.6004 44.8271C69.2968 44.7221 68.9938 44.6769 68.6913 44.6913C68.3965 44.7084 68.115 44.7853 67.8468 44.922C67.5888 45.0538 67.3543 45.2404 67.1434 45.4819C66.9427 45.7184 66.782 46.0113 66.6613 46.3605C66.5432 46.702 66.4887 47.0316 66.4979 47.3492C66.5147 47.6694 66.5826 47.9648 66.7015 48.2354C66.8306 48.5009 67.0059 48.7315 67.2272 48.927C67.4562 49.1251 67.7224 49.2766 68.0261 49.3816ZM73.0703 53.0372L75.8254 45.0669L79.4689 46.3264C80.1977 46.5782 80.7832 46.9124 81.2256 47.3287C81.6757 47.7477 81.9675 48.231 82.1011 48.7785C82.2374 49.3185 82.2006 49.8921 81.9907 50.4994C81.7834 51.0991 81.4594 51.5692 81.0188 51.9097C80.5781 52.2503 80.0502 52.4502 79.4349 52.5094C78.8297 52.5637 78.1628 52.4649 77.4341 52.213L75.043 51.3865L76.3835 50.7536L75.3248 53.8165L73.0703 53.0372ZM76.3009 50.9927L75.657 49.6102L77.9115 50.3895C78.3821 50.5522 78.7667 50.5704 79.0653 50.4442C79.3714 50.3206 79.5875 50.0766 79.7134 49.7122C79.842 49.3403 79.8241 49.0112 79.6596 48.7249C79.5027 48.4412 79.189 48.218 78.7183 48.0554L76.4639 47.2761L77.824 46.5863L76.3009 50.9927ZM85.2492 57.4255C84.6116 57.2051 84.0588 56.8993 83.5907 56.508C83.1226 56.1168 82.7516 55.6656 82.4779 55.1546C82.2144 54.6386 82.0591 54.0921 82.0122 53.515C81.9652 52.938 82.0454 52.3496 82.2527 51.7499C82.46 51.1502 82.7603 50.638 83.1536 50.2131C83.5469 49.7882 84.0052 49.458 84.5285 49.2225C85.062 48.982 85.6336 48.8524 86.2434 48.8338C86.8532 48.8151 87.4769 48.916 88.1145 49.1364C88.7597 49.3594 89.3126 49.6653 89.7731 50.0539C90.2412 50.4451 90.607 50.8987 90.8705 51.4147C91.1367 51.9231 91.2932 52.4658 91.3402 53.0429C91.3947 53.6226 91.3184 54.2123 91.1111 54.812C90.9038 55.4116 90.5984 55.9264 90.1949 56.3563C89.8016 56.7812 89.3433 57.1114 88.82 57.3469C88.2967 57.5824 87.7302 57.7095 87.1204 57.7281C86.5182 57.7494 85.8945 57.6485 85.2492 57.4255ZM85.8947 55.5582C86.1984 55.6631 86.4976 55.7071 86.7924 55.69C87.0948 55.6756 87.375 55.6025 87.633 55.4707C87.9012 55.334 88.137 55.1436 88.3403 54.8994C88.5513 54.6579 88.7158 54.3664 88.8339 54.0248C88.9546 53.6756 89.0052 53.3447 88.9858 53.0321C88.9766 52.7145 88.9075 52.4229 88.7783 52.1574C88.6594 51.8868 88.4855 51.6525 88.2565 51.4544C88.0352 51.2589 87.7727 51.1087 87.469 51.0037C87.1654 50.8988 86.8624 50.8535 86.56 50.8679C86.2652 50.885 85.9837 50.9619 85.7155 51.0986C85.4575 51.2304 85.223 51.417 85.0121 51.6585C84.8113 51.895 84.6506 52.1879 84.5299 52.5371C84.4118 52.8787 84.3574 53.2082 84.3666 53.5258C84.3834 53.8461 84.4512 54.1414 84.5701 54.412C84.6993 54.6776 84.8745 54.9081 85.0959 55.1036C85.3248 55.3017 85.5911 55.4532 85.8947 55.5582ZM50.2443 51.0371L52.4988 51.8164L49.7437 59.7867L47.4893 59.0074L50.2443 51.0371ZM44.415 57.9448L42.1606 57.1655L44.9156 49.1952L47.1701 49.9745L44.415 57.9448ZM48.7231 55.9541L45.3301 54.7813L45.9755 52.9139L49.3686 54.0868L48.7231 55.9541ZM50.6592 60.1032L56.9326 53.3491L59.1529 54.1166L59.9275 63.3069L57.582 62.4962L57.1998 54.6779L58.088 54.9849L52.9592 60.8982L50.6592 60.1032ZM53.1187 59.2198L54.2741 57.7582L58.1681 59.1042L58.1742 60.9673L53.1187 59.2198ZM66.1706 62.3038C65.7514 62.3119 65.3617 62.2961 65.0015 62.2566C64.6514 62.2121 64.3246 62.1373 64.021 62.0324C62.9052 61.6467 62.143 61.0858 61.7346 60.3498C61.3338 59.6164 61.3092 58.7411 61.6608 57.724L62.507 55.276L64.7273 56.0434L63.9677 58.241C63.7893 58.7571 63.7807 59.1876 63.942 59.5322C64.1135 59.8719 64.4459 60.1271 64.9393 60.2976C65.2581 60.4078 65.5685 60.4811 65.8703 60.5175C66.1824 60.5489 66.4721 60.5343 66.7394 60.4737L66.1706 62.3038ZM64.8871 65.0213L67.6421 57.051L69.8624 57.8185L67.1074 65.7888L64.8871 65.0213ZM76.8972 60.2502L79.1516 61.0295L76.3966 68.9998L74.1421 68.2205L76.8972 60.2502ZM71.0679 67.1578L68.8134 66.3785L71.5685 58.4082L73.8229 59.1875L71.0679 67.1578ZM75.376 65.1672L71.9829 63.9943L72.6284 62.127L76.0215 63.2998L75.376 65.1672ZM79.1825 67.9615C79.5857 68.2454 79.9357 68.4131 80.2323 68.4646C80.5391 68.5112 80.859 68.4093 81.1919 68.159L81.7758 67.7235L82.0442 67.5741L86.2384 63.4792L88.436 64.2388L83.0047 69.2573C82.4684 69.7517 81.9148 70.0872 81.3439 70.2638C80.7806 70.4429 80.2216 70.4622 79.6669 70.3214C79.1122 70.1807 78.5808 69.8865 78.0727 69.4389L79.1825 67.9615ZM81.3842 69.3727L80.0785 61.3499L82.4582 62.1725L83.1649 68.2037L81.3842 69.3727Z" fill="white"/>
</svg>
