<svg width="76" height="52" viewBox="0 0 76 52" fill="none" xmlns="http://www.w3.org/2000/svg">
<path d="M75 44.6006H71V47H67.001V51H9V47H5V45H1V7.2002H5V5H9V1H67.001V5H71V7.19922L74 7.2002H75V44.6006Z" fill="#EBEBEB" stroke="black" stroke-width="2"/>
<path d="M35.3913 12.0869V10H31.2174V12.0869H29.1304V14.1739H27.0435V16.2609H24.9565V18.3478H20.0869V20.4348H18V31.5652H20.0869V33.6522H24.9565V35.7391H27.0435V37.8261H29.1304V39.9131H31.2174V42H35.3913V39.9131H37.4783V12.0869H35.3913Z" fill="black"/>
<path d="M44.2 30.8H41V34H44.2V30.8Z" fill="black"/>
<path d="M47.4 27.5999H44.2001V30.7999H47.4V27.5999Z" fill="black"/>
<path d="M50.6 24.4H47.4V27.5999L50.6 27.5999V24.4Z" fill="black"/>
<path d="M53.7999 21.2H50.6L50.6 24.4L53.7999 24.4V21.2Z" fill="black"/>
<path d="M57 18H53.8L53.7999 21.2L57 21.2V18Z" fill="black"/>
<path d="M57 30.8H53.8V34H57V30.8Z" fill="black"/>
<path d="M53.7999 27.5999L50.6 27.5999L50.6 30.7999H53.7999V27.5999Z" fill="black"/>
<path d="M50.6 24.4H47.4V27.5999L50.6 27.5999V24.4Z" fill="black"/>
<path d="M47.4 21.2H44.2001V24.4L47.4 24.4V21.2Z" fill="black"/>
<path d="M44.2 18H41V21.2H44.2V18Z" fill="black"/>
</svg>
