<svg width="114" height="100" viewBox="0 0 114 100" fill="none" xmlns="http://www.w3.org/2000/svg">
<path d="M86.7692 20H7.23077C5.31305 20 3.47388 20.7662 2.11784 22.1302C0.761811 23.4941 0 25.344 0 27.2729V96.3655C0.000328965 96.9853 0.158148 97.5947 0.458475 98.1359C0.758801 98.6771 1.19167 99.1321 1.71598 99.4577C2.24029 99.7833 2.83864 99.9688 3.45423 99.9964C4.06982 100.024 4.68221 99.8929 5.23327 99.6156L18.0769 93.1563L30.9206 99.6156C31.4229 99.8684 31.9768 100 32.5385 100C33.1001 100 33.6541 99.8684 34.1563 99.6156L47 93.1563L59.8437 99.6156C60.3459 99.8684 60.8999 100 61.4615 100C62.0232 100 62.5771 99.8684 63.0794 99.6156L75.9231 93.1563L88.7667 99.6156C89.3178 99.8929 89.9302 100.024 90.5458 99.9964C91.1614 99.9688 91.7597 99.7833 92.284 99.4577C92.8083 99.1321 93.2412 98.6771 93.5415 98.1359C93.8419 97.5947 93.9997 96.9853 94 96.3655V27.2729C94 25.344 93.2382 23.4941 91.8822 22.1302C90.5261 20.7662 88.6869 20 86.7692 20ZM68.6923 67.2739H25.3077C24.3488 67.2739 23.4292 66.8908 22.7512 66.2088C22.0732 65.5268 21.6923 64.6019 21.6923 63.6374C21.6923 62.673 22.0732 61.748 22.7512 61.0661C23.4292 60.3841 24.3488 60.001 25.3077 60.001H68.6923C69.6512 60.001 70.5708 60.3841 71.2488 61.0661C71.9268 61.748 72.3077 62.673 72.3077 63.6374C72.3077 64.6019 71.9268 65.5268 71.2488 66.2088C70.5708 66.8908 69.6512 67.2739 68.6923 67.2739ZM68.6923 52.7281H25.3077C24.3488 52.7281 23.4292 52.3449 22.7512 51.663C22.0732 50.981 21.6923 50.0561 21.6923 49.0916C21.6923 48.1272 22.0732 47.2022 22.7512 46.5203C23.4292 45.8383 24.3488 45.4552 25.3077 45.4552H68.6923C69.6512 45.4552 70.5708 45.8383 71.2488 46.5203C71.9268 47.2022 72.3077 48.1272 72.3077 49.0916C72.3077 50.0561 71.9268 50.981 71.2488 51.663C70.5708 52.3449 69.6512 52.7281 68.6923 52.7281Z" fill="#753BBD"/>
<circle cx="90.5" cy="23.5" r="23.5" fill="#F7E041"/>
<path d="M79 23L86.6667 31L102 15" stroke="black" stroke-width="2" stroke-linecap="round" stroke-linejoin="round"/>
</svg>
