<svg width="49" height="49" viewBox="0 0 49 49" fill="none" xmlns="http://www.w3.org/2000/svg">
<path fill-rule="evenodd" clip-rule="evenodd" d="M30.572 1.79835H35.9671V3.59671H37.7654V5.39506H41.3621V7.19342H43.1605V10.7901H44.9588V12.5885H46.7572V16.1852H48.5556V32.3704H46.7572V35.9671H44.9588V39.5638H43.1605V41.3621H41.3621V43.1605H39.5638V44.9588H35.9671V46.7572H32.3704V48.5556H16.1852V46.7572H12.5885V44.9588H10.7901V43.1605H7.19342V41.3621H5.39506V37.7654H3.59671V35.9671H1.79835V30.572H0V19.7819H1.79835V14.3868H3.59671V10.7901H5.39506V8.99177H7.19342V7.19342H8.99177V5.39506H10.7901V3.59671H14.3868V1.79835H19.7819V0H30.572V1.79835ZM28.7737 17.9835H25.177V19.7819H21.5802V21.5802H16.1852V23.3786H12.5885V25.177H10.7901V26.9753H19.7819V25.177H21.5802V23.3786H25.177V21.5802H26.9753V19.7819H28.7737V23.3786H26.9753V25.177H25.177V26.9753H23.3786V28.7737H21.5802V30.572H23.3786V32.3704H25.177V34.1687H28.7737V35.9671H32.3704V30.572H34.1687V19.7819H35.9671V16.1852H28.7737V17.9835Z" fill="#EF3124"/>
</svg>
