<svg width="33" height="20" viewBox="0 0 33 20" fill="none" xmlns="http://www.w3.org/2000/svg">
<path d="M31.0587 3.63658V1.81829H29.1173V0H3.88266V1.81829H1.94133V3.63658H0V16.3634H1.94133V18.1817H3.88266V20H29.1173V18.1817H31.0587V16.3634H33V3.63658H31.0587ZM29.1173 14.5451H27.1767V5.45488H29.1173V14.5451ZM21.3527 10.9091H19.412V12.7274H17.4707V14.5451H15.5293V12.7274H13.588V10.9091H11.6473V9.09085H13.588V7.27256H15.5293V5.45488H17.4707V7.27256H19.412V9.09085H21.3527V10.9091ZM3.88266 12.7274H9.706V14.5451H3.88266V12.7274ZM3.88266 9.09085H9.706V10.9091H3.88266V9.09085ZM3.88266 5.45488H9.706V7.27256H3.88266V5.45488ZM23.294 18.1817V1.81829H25.2353V18.1817H23.294Z" fill="#EF3124"/>
<path d="M17.4707 9.09085V7.27256H15.5293V9.09085H13.588V10.9091H15.5293V12.7274H17.4707V10.9091H19.412V9.09085H17.4707Z" fill="#EF3124"/>
</svg>
