<svg width="92" height="68" viewBox="0 0 92 68" fill="none" xmlns="http://www.w3.org/2000/svg">
<path d="M38.8909 13.3818H20.4909C9.17409 13.3818 0 22.5559 0 33.8727C0 45.1896 9.17409 54.3637 20.4909 54.3637H38.8909V46.8364H20.4909C13.3313 46.8364 7.52727 41.0324 7.52727 33.8727C7.52727 26.7131 13.3313 20.9091 20.4909 20.9091H38.8909V13.3818Z" fill="#753BBD"/>
<path d="M53.9455 46.8364V54.3637H71.5091C82.8259 54.3637 92 45.1896 92 33.8727C92 22.5559 82.8259 13.3818 71.5091 13.3818H53.9455V20.9091H71.5091C78.6687 20.9091 84.4727 26.7131 84.4727 33.8727C84.4727 41.0324 78.6687 46.8364 71.5091 46.8364H53.9455Z" fill="#753BBD"/>
<path d="M37.2185 6.69091C35.3709 6.69091 33.873 5.1931 33.873 3.34545C33.873 1.49781 35.3709 0 37.2185 0H55.6185C57.4661 0 58.964 1.49781 58.964 3.34545C58.964 5.1931 57.4661 6.69091 55.6185 6.69091H54.364C51.8234 6.69091 49.764 8.7504 49.764 11.2909V56.4545C49.764 58.9951 51.8234 61.0545 54.364 61.0545H55.6185C57.4661 61.0545 58.964 62.5524 58.964 64.4C58.964 66.2476 57.4661 67.7455 55.6185 67.7455H37.2185C35.3709 67.7455 33.873 66.2476 33.873 64.4C33.873 62.5524 35.3709 61.0545 37.2185 61.0545H38.473C41.0136 61.0545 43.073 58.9951 43.073 56.4545V11.2909C43.073 8.7504 41.0136 6.69091 38.473 6.69091H37.2185Z" fill="#753BBD"/>
</svg>
