<svg width="80" height="72" viewBox="0 0 80 72" fill="none" xmlns="http://www.w3.org/2000/svg">
<path d="M49.0466 50.1783L43.9158 45.2433V67.3333C43.9158 68.3721 43.5031 69.3683 42.7686 70.1028C42.0341 70.8374 41.0379 71.25 39.9991 71.25C38.9603 71.25 37.9641 70.8374 37.2296 70.1028C36.4951 69.3683 36.0824 68.3721 36.0824 67.3333V45.4392L31.0299 50.5308C30.6647 50.896 30.2312 51.1857 29.7541 51.3833C29.2769 51.581 28.7655 51.6827 28.2491 51.6827C27.7326 51.6827 27.2213 51.581 26.7441 51.3833C26.267 51.1857 25.8334 50.896 25.4683 50.5308C25.1031 50.1656 24.8134 49.7321 24.6158 49.255C24.4181 48.7778 24.3164 48.2665 24.3164 47.75C24.3164 47.2336 24.4181 46.7222 24.6158 46.245C24.8134 45.7679 25.1031 45.3344 25.4683 44.9692L37.2183 33.2192C37.5842 32.8562 38.0183 32.569 38.4955 32.3741C38.9727 32.1792 39.4836 32.0804 39.9991 32.0833C41.0075 32.0874 41.9755 32.4802 42.7016 33.18L54.4516 44.5383C54.8672 44.8813 55.2076 45.3063 55.4514 45.7867C55.6953 46.2672 55.8374 46.7929 55.8688 47.3308C55.9002 47.8687 55.8204 48.4073 55.6341 48.9129C55.4479 49.4185 55.1594 49.8803 54.7866 50.2693C54.4138 50.6583 53.9647 50.9662 53.4675 51.1738C52.9702 51.3813 52.4355 51.484 51.8968 51.4755C51.358 51.4669 50.8268 51.3473 50.3364 51.1241C49.846 50.901 49.4069 50.579 49.0466 50.1783Z" fill="#733CB8"/>
<path d="M62.2072 16.4164C60.6091 11.7988 57.6113 7.79431 53.631 4.95999C49.6508 2.12567 44.886 0.602539 39.9997 0.602539C35.1134 0.602539 30.3487 2.12567 26.3684 4.95999C22.3881 7.79431 19.3904 11.7988 17.7922 16.4164C14.2733 16.8877 10.9487 18.3068 8.17405 20.5218C5.39942 22.7368 3.27914 25.6645 2.04003 28.9916C0.800917 32.3187 0.489592 35.9201 1.13936 39.4104C1.78912 42.9008 3.37553 46.1489 5.72888 48.8072C6.01315 49.308 6.40432 49.7398 6.87454 50.0721C7.34475 50.4044 7.88246 50.629 8.44935 50.7297C9.01624 50.8305 9.59839 50.8051 10.1543 50.6552C10.7103 50.5054 11.2263 50.2348 11.6658 49.8627C12.1052 49.4907 12.4572 49.0263 12.6967 48.5027C12.9362 47.9791 13.0573 47.4091 13.0514 46.8334C13.0455 46.2576 12.9127 45.6902 12.6625 45.1716C12.4123 44.6531 12.0509 44.196 11.6039 43.8331C10.0886 42.139 9.09715 40.0417 8.74976 37.7955C8.40236 35.5493 8.7139 33.2505 9.64662 31.1778C10.5793 29.1051 12.0932 27.3474 14.0048 26.1177C15.9163 24.888 18.1435 24.2391 20.4164 24.2497H20.808C21.7243 24.2682 22.6181 23.9648 23.3337 23.3923C24.0494 22.8197 24.5416 22.0144 24.7247 21.1164C25.4439 17.5748 27.3653 14.3908 30.1634 12.1037C32.9615 9.81671 36.4642 8.56735 40.078 8.56735C43.6919 8.56735 47.1946 9.81671 49.9927 12.1037C52.7908 14.3908 54.7122 17.5748 55.4314 21.1164C55.6145 22.0144 56.1067 22.8197 56.8224 23.3923C57.538 23.9648 58.4318 24.2682 59.348 24.2497H59.583C61.8559 24.2391 64.0831 24.888 65.9947 26.1177C67.9062 27.3474 69.4201 29.1051 70.3528 31.1778C71.2855 33.2505 71.5971 35.5493 71.2497 37.7955C70.9023 40.0417 69.9108 42.139 68.3955 43.8331C68.0505 44.22 67.7858 44.6715 67.6166 45.1615C67.4474 45.6515 67.3772 46.1702 67.4099 46.6875C67.4427 47.2049 67.5779 47.7106 67.8076 48.1753C68.0373 48.64 68.3569 49.0545 68.748 49.3947C69.4621 50.0244 70.381 50.3725 71.333 50.3739C71.8892 50.3732 72.4387 50.2541 72.9452 50.0245C73.4517 49.7949 73.9035 49.46 74.2705 49.0422C76.6892 46.3885 78.3316 43.1208 79.0184 39.5966C79.7052 36.0723 79.4098 32.427 78.1646 29.0593C76.9194 25.6915 74.7723 22.731 71.958 20.5012C69.1436 18.2715 65.7705 16.8584 62.2072 16.4164Z" fill="#733CB8"/>
</svg>
