<svg width="29" height="16" viewBox="0 0 29 16" fill="none" xmlns="http://www.w3.org/2000/svg">
<path d="M28.9557 15.3478C28.7673 15.7187 28.4358 15.8916 28.0005 15.9035C26.4913 15.9437 24.9821 16.015 23.4736 15.9972C22.6098 15.9873 21.892 15.5353 21.2985 14.9479C20.6796 14.3336 20.1011 13.6816 19.4891 13.0613C19.2976 12.8677 19.0887 12.691 18.8648 12.5333C18.6562 12.3863 18.3966 12.3236 18.141 12.3584C17.8854 12.3933 17.6539 12.523 17.4954 12.7201C17.1311 13.182 17.0438 13.7396 16.9871 14.3039C16.9667 14.5124 16.9776 14.7242 16.9564 14.9328C16.8882 15.6045 16.6481 15.9055 15.9583 15.9226C14.5207 15.9616 13.0661 16.0744 11.6688 15.6026C9.55167 14.9015 7.68296 13.6352 6.27879 11.95C3.69227 8.87613 1.7703 5.42811 0.124648 1.82171C-0.17419 1.16642 0.0666522 0.784323 0.821934 0.742089C1.31113 0.714373 1.80374 0.730213 2.29429 0.727573C3.13418 0.722954 3.97474 0.720317 4.81462 0.714378C5.54057 0.709099 5.88853 0.95194 6.20238 1.57555C6.93992 3.03989 7.6877 4.50027 8.46549 5.94481C8.80117 6.56711 9.22214 7.14848 9.81914 7.5761C9.96943 7.68434 10.137 7.76815 10.3152 7.82423C10.5881 7.90738 10.8705 7.80113 10.9633 7.54443C11.1197 7.13776 11.2371 6.71805 11.314 6.2906C11.4852 5.1974 11.4912 4.08593 11.3317 2.99106C11.3024 2.78385 11.254 2.57927 11.211 2.3747C11.0684 1.70358 10.6167 1.3492 9.94603 1.21194L9.7086 1.16311C9.6952 1.16042 9.68263 1.15476 9.67187 1.14659C9.66111 1.13841 9.65245 1.12794 9.64657 1.11599C9.64069 1.10404 9.63775 1.09094 9.63797 1.07771C9.6382 1.06447 9.6416 1.05146 9.64788 1.03971C9.69189 0.939309 9.748 0.84429 9.81504 0.756613C10.1773 0.354729 10.6652 0.199647 11.1926 0.142235C12.7536 -0.0286814 14.316 -0.0794953 15.8716 0.182488C16.6487 0.31447 16.9135 0.587018 16.9735 1.38419C17.0417 2.31796 16.968 3.26162 16.9667 4.20133C16.9667 5.07703 16.9667 5.95273 16.9967 6.82711C17.0152 7.05373 17.0901 7.27266 17.215 7.46524C17.4586 7.86118 17.8454 7.92717 18.177 7.59722C18.6546 7.12076 19.1322 6.63375 19.5252 6.09527C20.5456 4.68166 21.3874 3.155 22.0326 1.54784C22.0903 1.40345 22.1604 1.26395 22.2421 1.13078C22.3031 1.02229 22.3938 0.932117 22.5043 0.870091C22.6147 0.808066 22.7407 0.776574 22.8684 0.779048C24.5672 0.76453 26.2661 0.73813 27.9657 0.726252C28.3553 0.726252 28.8151 0.808741 28.955 1.21326C29.0457 1.47723 28.985 1.77023 28.8786 2.02957C28.1915 3.70376 26.9607 5.11398 25.8561 6.5407C25.3785 7.1597 24.9009 7.78332 24.4724 8.43597C24.1449 8.93552 24.2343 9.42582 24.6423 9.86466C24.8368 10.0752 25.0407 10.2784 25.2468 10.4784C26.0239 11.2346 26.8317 11.9638 27.574 12.7504C28.1881 13.3972 28.7926 14.0703 29 14.9677L28.9557 15.3478Z" fill="#CEB999"/>
</svg>
