<svg width="42" height="42" viewBox="0 0 42 42" fill="none" xmlns="http://www.w3.org/2000/svg">
<path d="M21 0C16.8466 0 12.7865 1.23163 9.33303 3.53914C5.8796 5.84665 3.18798 9.1264 1.59854 12.9636C0.00909904 16.8009 -0.406771 21.0233 0.403519 25.0969C1.21381 29.1705 3.21386 32.9123 6.15077 35.8492C9.08767 38.7862 12.8295 40.7862 16.9031 41.5965C20.9767 42.4068 25.1991 41.9909 29.0364 40.4015C32.8736 38.812 36.1534 36.1204 38.4609 32.667C40.7684 29.2135 42 25.1534 42 21C42 15.4305 39.7875 10.089 35.8493 6.15076C31.911 2.21249 26.5696 0 21 0ZM33.1036 29.2186C32.4927 29.3045 29.505 29.2186 29.3499 29.2186C28.5775 29.2288 27.8323 28.9338 27.2761 28.3977C26.6461 27.7892 26.083 27.121 25.4673 26.4886C25.2859 26.2945 25.0887 26.1157 24.8778 25.9541C24.3863 25.577 23.8994 25.6606 23.668 26.2428C23.4872 26.8695 23.3611 27.5107 23.2909 28.1591C23.2503 28.7461 22.8781 29.1136 22.2194 29.1542C21.8114 29.1757 21.4033 29.1852 21 29.1733C19.5301 29.1653 18.0831 28.8078 16.7785 28.1305C15.3666 27.3445 14.1363 26.2695 13.168 24.9757C11.5763 22.9425 10.3043 20.7089 9.16842 18.406C9.10876 18.2891 7.94421 15.812 7.91558 15.6951C7.81058 15.3061 7.91558 14.9315 8.23774 14.8002C8.44296 14.7215 12.2802 14.8002 12.3447 14.8002C12.6302 14.7983 12.9089 14.8872 13.1405 15.054C13.3721 15.2209 13.5447 15.4571 13.6333 15.7285C14.3433 17.5445 15.3144 19.2472 16.516 20.7828C16.6844 20.9874 16.8813 21.1666 17.1007 21.315C17.4133 21.5298 17.7092 21.4558 17.8381 21.0931C17.991 20.5931 18.0808 20.0761 18.1054 19.5539C18.1268 18.5182 18.1053 17.8381 18.0481 16.8024C18.0099 16.139 17.776 15.5591 16.7976 15.3706C16.4969 15.3157 16.4707 15.0675 16.664 14.8193C17.0673 14.3063 17.6185 14.2227 18.2366 14.1917C19.1577 14.1392 20.0789 14.175 21 14.1917H21.2005C21.6014 14.1902 22.0013 14.231 22.3936 14.3134C22.6258 14.3608 22.8364 14.4818 22.9942 14.6586C23.152 14.8353 23.2485 15.0582 23.2694 15.2942C23.3168 15.5555 23.3368 15.821 23.3291 16.0865C23.3052 17.2152 23.2503 18.3464 23.2384 19.4751C23.2273 19.923 23.2682 20.3706 23.3601 20.8091C23.4914 21.4105 23.9042 21.5608 24.3147 21.1265C24.8466 20.5663 25.3341 19.9655 25.7727 19.3295C26.5502 18.1704 27.1908 16.9252 27.6818 15.6188C27.9491 14.9482 28.1591 14.8002 28.875 14.8002H32.9461C33.1882 14.796 33.4296 14.8282 33.6621 14.8957C33.7444 14.9173 33.8213 14.9557 33.8881 15.0084C33.9548 15.0612 34.01 15.1271 34.0501 15.2022C34.0902 15.2772 34.1144 15.3597 34.1211 15.4446C34.1278 15.5294 34.117 15.6147 34.0892 15.6951C33.8888 16.5876 33.4067 17.3489 32.896 18.0815C32.068 19.2532 31.1946 20.3963 30.3474 21.5536C30.2455 21.7033 30.1523 21.8586 30.0682 22.019C29.7484 22.5965 29.7723 22.9186 30.2352 23.3959C30.975 24.1572 31.7649 24.8683 32.4784 25.651C33.0018 26.2205 33.4745 26.8345 33.8911 27.4861C34.3994 28.307 34.0773 29.0802 33.1036 29.2186Z" fill="#5EA616"/>
</svg>
