<svg width="49" height="50" viewBox="0 0 49 50" fill="none" xmlns="http://www.w3.org/2000/svg">
<path d="M43.1602 0V1.79883H44.959V3.59668H46.7568V5.39551H48.5557V43.7598H46.7568V45.5586H44.959V47.3564H43.1602V49.0762L7.19336 48.5557H5.39551V46.7568H3.59668V44.959H1.79883V43.1602H0V5.39551H1.79883V3.59668H3.59668V1.79883H5.39551V0H43.1602ZM8.99219 23.3789H10.79V26.9756H12.5889V30.5723H14.3867V32.3701H17.9834V34.1689H25.1768V26.9756H26.9756V28.7734H30.5723V30.5723H32.3701V32.3701H34.1689V34.1689H39.5635V32.3701H37.7656V28.7734H35.9668V26.9756H32.3701V23.3789H34.1689V21.5801H35.9668V19.7822H37.7656V16.1855H34.1689V17.9834H32.3701V19.7822H30.5723V21.5801H28.7734V23.3789H25.1768V16.1855H21.5801V28.7734H17.9834V26.9756H16.1855V25.1768H14.3867V17.9834H12.5889V16.1855H8.99219V23.3789Z" fill="#EF3124"/>
</svg>
