<svg width="20" height="12" viewBox="0 0 20 12" fill="none" xmlns="http://www.w3.org/2000/svg">
<path d="M19.7059 10.6088C19.6546 10.5229 19.3374 9.83361 17.8109 8.41681C16.2128 6.93323 16.4275 7.17413 18.3523 4.60887C19.5246 3.04658 19.9933 2.09251 19.8466 1.68464C19.7071 1.29586 18.8448 1.39842 18.8448 1.39842L15.9778 1.41512C15.9778 1.41512 15.7656 1.38649 15.607 1.48071C15.4531 1.57373 15.3541 1.7884 15.3541 1.7884C15.3541 1.7884 14.8997 2.99768 14.2939 4.0257C13.0166 6.19502 12.505 6.30951 12.2963 6.17474C11.8109 5.86109 11.9326 4.91298 11.9326 4.24036C11.9326 2.13783 12.251 1.26127 11.3112 1.03468C10.9988 0.959548 10.7698 0.909459 9.97196 0.901111C8.94872 0.890377 8.0817 0.904688 7.59155 1.1444C7.26478 1.30421 7.01314 1.66079 7.16699 1.68106C7.35661 1.70611 7.78594 1.79675 8.01373 2.10682C8.3083 2.50634 8.29756 3.40555 8.29756 3.40555C8.29756 3.40555 8.46691 5.88017 7.90281 6.18786C7.51522 6.39895 6.98452 5.96843 5.84559 3.99946C5.26242 2.99172 4.82116 1.87665 4.82116 1.87665C4.82116 1.87665 4.73649 1.66914 4.58503 1.55823C4.40137 1.42347 4.14377 1.38053 4.14377 1.38053L1.4175 1.39723C1.4175 1.39723 1.00845 1.40915 0.858179 1.58685C0.724609 1.74546 0.847446 2.07223 0.847446 2.07223C0.847446 2.07223 2.98218 7.06561 5.39837 9.58317C7.6154 11.8908 10.1318 11.7394 10.1318 11.7394H11.2719C11.2719 11.7394 11.6165 11.7012 11.7919 11.5116C11.954 11.3375 11.9481 11.0107 11.9481 11.0107C11.9481 11.0107 11.9254 9.4806 12.6362 9.2552C13.3363 9.03338 14.2355 10.734 15.1884 11.3887C15.9087 11.8837 16.4561 11.7751 16.4561 11.7751L19.0046 11.7394C19.0046 11.7394 20.338 11.6571 19.7059 10.6088Z" fill="white"/>
</svg>
