<svg width="278" height="76" viewBox="0 0 278 76" fill="none" xmlns="http://www.w3.org/2000/svg">
<g clip-path="url(#clip0_514_1053)">
<path d="M258.109 32.3613C258.109 30.6032 260.47 29.1851 263.563 29.1851C266.789 29.1851 270.081 30.74 272.308 33.2742L276.333 28.2735C272.508 24.825 268.617 23.0344 263.763 23.0344C257.709 23.0344 251.459 25.8734 251.459 32.3613C251.459 40.3377 258.242 40.912 263.763 41.3861C266.855 41.6205 269.582 41.8588 269.582 43.9203C269.582 46.1498 266.456 47.1629 263.696 47.1629C260.503 47.1629 257.045 45.7786 254.518 42.7027L250.228 47.3335C253.653 51.592 258.608 53.4503 263.463 53.4503C269.549 53.4503 276.233 50.5098 276.233 43.7849C276.233 36.1796 269.382 35.4373 264.128 34.8968C260.835 34.5582 258.109 34.2548 258.109 32.3613ZM227.515 34.2548C228.613 31.4497 230.973 29.8271 234.465 29.8271C237.99 29.8271 240.085 31.55 240.983 34.2548H227.515ZM234.798 23.0344C226.485 23.0344 219.799 29.6239 219.799 38.2762C219.799 46.4207 225.719 53.4503 234.432 53.4503C239.686 53.4503 243.943 50.8809 246.969 46.4884L242.38 42.5347C240.75 45.0689 237.824 46.5561 234.332 46.5561C230.773 46.5561 227.082 43.8526 226.783 39.8637H248.498V37.4988C248.432 29.1512 242.845 23.0344 234.798 23.0344ZM149.732 23.0344C141.419 23.0344 134.735 29.6239 134.735 38.2762C134.735 46.4207 140.654 53.4503 149.367 53.4503C154.621 53.4503 158.878 50.8809 161.904 46.4884L157.315 42.5347C155.685 45.0689 152.759 46.5561 149.267 46.5561C145.709 46.5561 142.017 43.8526 141.719 39.8637H163.434V37.4988C163.4 29.1512 157.78 23.0344 149.732 23.0344ZM209.757 52.402H216.408V24.0814H209.757V52.4033V52.402ZM213.082 10.293C210.389 10.293 208.094 12.5915 208.094 15.463C208.094 18.302 210.323 20.3986 213.215 20.3986C216.043 20.3986 218.104 18.371 218.104 15.5659C218.071 12.6931 215.809 10.293 213.082 10.293ZM116.678 23.0006C113.552 23.0006 110.726 23.9473 108.331 25.6025V10.6316H101.68V38.2762C101.68 46.6902 108.431 53.4503 116.644 53.4503C124.925 53.4503 131.709 46.7254 131.709 38.2085C131.675 29.7255 125.025 23.0006 116.678 23.0006ZM82.0935 23.4733C74.6774 24.2507 68.6242 30.74 68.6242 38.4794C68.6242 46.6577 75.5095 53.518 83.5564 53.518C91.5701 53.518 98.4874 46.6577 98.4874 38.4794C98.4874 34.9984 97.2565 31.787 95.2614 29.2528L80.4972 10.6654H71.8835L82.0935 23.4733ZM30.5487 40.2023L24.4622 24.0814H19.8092L13.6893 40.2023L7.57078 24.0814H0.320068L11.0275 52.471H15.6831L22.1017 35.5727L28.5869 52.4697H33.2413L43.9167 24.0814H36.7006L30.5487 40.2023ZM173.576 30.5368V24.0814H166.925V52.4033H173.576V40.4406C173.576 34.6273 179.695 31.0786 185.781 31.0786V24.0827H185.115C179.961 24.0827 176.236 25.9763 173.576 30.5381V30.5368ZM194.693 30.5368V24.0814H188.042V52.4033H194.693V40.4406C194.693 34.6273 200.812 31.0786 206.897 31.0786V24.0827H206.233C201.11 24.0827 197.387 25.9763 194.693 30.5381V30.5368ZM58.5489 52.402H65.1982V10.6654H58.5476V52.4033L58.5489 52.402ZM83.5898 46.6902C78.9996 46.6902 75.2761 42.9397 75.2761 38.2762C75.2761 33.5789 78.9996 29.8271 83.5564 29.8271C88.1787 29.8271 91.9368 33.5776 91.9368 38.2762C91.9368 42.9397 88.1787 46.6902 83.5898 46.6902ZM116.644 46.6902C115.552 46.6925 114.469 46.4754 113.459 46.0516C112.449 45.6278 111.532 45.0056 110.759 44.2206C109.987 43.4357 109.375 42.5035 108.958 41.4776C108.541 40.4516 108.328 39.3522 108.331 38.2424C108.331 33.6128 111.889 29.8271 116.678 29.8271C121.467 29.8271 125.025 33.6128 125.025 38.2085C125.025 43.0074 121.233 46.6902 116.644 46.6902ZM47.0093 52.402H53.6599V24.0814H47.0093V52.4033V52.402ZM50.2686 10.293C47.5747 10.293 45.313 12.5915 45.313 15.4982C45.313 18.4387 47.6747 20.4325 50.2686 20.4325C53.1612 20.4325 55.3562 17.9985 55.3562 15.3627C55.3229 12.6931 53.0278 10.293 50.2686 10.293ZM142.449 34.2548C143.58 31.4497 145.909 29.8271 149.367 29.8271C152.925 29.8271 155.087 31.55 155.984 34.2548H142.449Z" fill="#18191E"/>
</g>
<defs>
<clipPath id="clip0_514_1053">
<rect width="276.95" height="75.5319" fill="white" transform="translate(0.320068)"/>
</clipPath>
</defs>
</svg>
