<svg width="247" height="37" viewBox="0 0 247 37" fill="none" xmlns="http://www.w3.org/2000/svg">
<g clip-path="url(#clip0_220_958)">
<path d="M104.135 10.8881C101.319 10.8881 98.8 11.7257 96.6758 13.1052V0.246338H90.6984V23.9441C90.6984 31.1371 96.7252 36.9507 104.086 36.9507C111.446 36.9507 117.572 31.1864 117.572 23.8948C117.572 16.6032 111.644 10.8881 104.135 10.8881ZM73.2108 11.2823C66.5912 11.9228 61.1572 17.49 61.1572 24.1411C61.1572 31.1371 67.3322 37.0493 74.5446 37.0493C81.757 37.0493 87.932 31.1864 87.932 24.1411C87.932 21.1358 86.8452 18.4261 85.0174 16.2583L71.8276 0.295606H64.1212L73.2108 11.2823ZM27.1206 25.6192L21.6372 11.8242H17.4382L12.0042 25.6192L6.5208 11.8242H0L9.5836 36.1625H13.7826L19.5624 21.6778L25.3422 36.1625H29.5412L39.0754 11.8242H32.604L27.1206 25.6192ZM133.775 10.9374C126.316 10.9374 120.289 16.5539 120.289 23.6977C120.289 30.7923 125.575 37.0493 133.429 37.0493C138.122 37.0493 141.926 34.8322 144.643 31.0879L140 27.3928C138.666 29.7577 136.048 31.1372 133.479 31.1372C130.12 31.1372 126.81 28.8216 126.563 25.4221H146.076V23.6485C146.026 16.1598 140.938 10.9374 133.775 10.9374ZM209.851 10.9374C202.392 10.9374 196.414 16.5539 196.414 23.9933C196.414 30.9893 201.7 37 209.505 37C214.198 37 218.002 34.783 220.719 31.0386L216.619 27.6391C215.186 29.8069 212.568 31.0879 209.407 31.0879C206.294 31.0879 202.886 28.7723 202.639 25.3728H222.053V23.3529C222.053 16.1598 217.014 10.9374 209.851 10.9374ZM230.698 18.9188C230.698 17.3915 232.822 16.2091 235.589 16.2091C238.355 16.2091 241.418 17.5393 243.394 19.7071L247 15.4208C243.542 12.4647 240.084 10.9374 235.737 10.9374C230.303 10.9374 224.721 13.3515 224.721 18.9188C224.721 25.767 230.797 26.2597 235.737 26.6538C238.503 26.8509 240.973 27.0479 240.973 28.8216C240.973 30.743 238.157 31.6298 235.737 31.6298C232.575 31.6298 229.562 30.2011 227.536 27.787L223.683 31.7776C226.746 35.4234 231.192 37 235.539 37C240.973 37 246.951 34.4874 246.951 28.723C246.951 22.2197 240.825 21.5792 236.132 21.1358C233.119 20.7909 230.698 20.5446 230.698 18.9188ZM155.067 17.3422V11.8242H149.089V36.1132H155.067V25.8162C155.857 20.1012 160.55 17.7856 165.984 17.7856V11.8242H165.391C160.797 11.8242 157.438 13.4501 155.067 17.3422ZM173.987 17.3422V11.8242H168.009V36.1132H173.987V25.8162C174.777 19.3622 180.508 17.7856 184.904 17.7856V11.8242H184.262C179.717 11.8242 176.358 13.4008 173.987 17.3422ZM52.1664 36.1132H58.1438V0.295606H52.1664V36.1132ZM74.5446 31.1864C70.4444 31.1864 67.0852 27.984 67.0852 23.9933C67.0852 20.0027 70.395 16.751 74.4952 16.751C78.546 16.751 82.004 19.9534 82.004 23.9933C82.004 28.0333 78.6942 31.1864 74.5446 31.1864ZM104.135 31.1864C100.084 31.1864 96.6758 28.0333 96.6758 23.9441C96.6758 19.8549 99.8868 16.751 104.135 16.751C108.384 16.751 111.644 19.9534 111.644 23.9441C111.644 27.9348 108.235 31.1864 104.135 31.1864ZM41.8418 36.1132H47.8192V11.8242H41.8418V36.1132ZM187.424 36.1132H193.401V11.8242H187.424V36.1132ZM44.7564 0C42.3358 0 40.3104 1.97071 40.3104 4.43409C40.3104 6.94674 42.4346 8.67111 44.7564 8.67111C47.3252 8.67111 49.3012 6.5526 49.3012 4.33555C49.3012 2.06924 47.2264 0 44.7564 0ZM190.388 0C187.967 0 185.892 1.97071 185.892 4.43409C185.892 6.89747 187.868 8.67111 190.486 8.67111C193.105 8.67111 194.883 6.94674 194.883 4.53262C194.883 2.11851 192.858 0 190.388 0ZM203.33 20.5446C204.318 18.1305 206.443 16.751 209.555 16.751C212.667 16.751 214.594 18.229 215.384 20.5446H203.33ZM127.205 20.5446C128.193 18.1305 130.317 16.751 133.38 16.751C136.492 16.751 138.518 18.229 139.308 20.5446C139.357 20.5446 127.205 20.5446 127.205 20.5446Z" fill="#E313BF"/>
</g>
<defs>
<clipPath id="clip0_220_958">
<rect width="247" height="37" fill="white"/>
</clipPath>
</defs>
</svg>
