<svg width="49" height="49" viewBox="0 0 49 49" fill="none" xmlns="http://www.w3.org/2000/svg">
<path d="M18.6752 48.5556H16.8077V46.7572H18.6752V48.5556Z" fill="#EF3124"/>
<path d="M31.7479 39.5638H29.8803V44.9588H28.0128V46.7572H26.1453V48.5556H22.4103V46.7572H20.5427V44.9588H18.6752V39.5638H16.8077V34.1687H31.7479V39.5638Z" fill="#EF3124"/>
<path d="M31.7479 48.5556H29.8803V46.7572H31.7479V48.5556Z" fill="#EF3124"/>
<path d="M13.0726 35.9671H14.9402V43.1605H16.8077V46.7572H13.0726V44.9588H9.3376V43.1605H7.47008V41.3621H5.60256V39.5638H3.73504V37.7654H1.86752V34.1687H13.0726V35.9671Z" fill="#EF3124"/>
<path d="M46.688 37.7654H44.8205V39.5638H42.953V41.3621H41.0855V43.1605H39.2179V44.9588H37.3504V46.7572H31.7479V43.1605H33.6154V35.9671H35.4829V34.1687H46.688V37.7654Z" fill="#EF3124"/>
<path d="M13.0726 31.6667H0V19.0782H13.0726V31.6667Z" fill="#EF3124"/>
<path d="M31.7479 20.8765H33.6154V29.8683H31.7479V31.6667H16.8077V29.8683H14.9402V20.8765H16.8077V19.0782H31.7479V20.8765Z" fill="#EF3124"/>
<path d="M48.5556 31.6667H35.4829V19.0782H48.5556V31.6667Z" fill="#EF3124"/>
<path d="M16.8077 5.39506H14.9402V12.5885H13.0726V16.1852H1.86752V12.5885H3.73504V8.99177H5.60256V7.19342H7.47008V5.39506H9.3376V3.59671H13.0726V1.79835H16.8077V5.39506Z" fill="#EF3124"/>
<path d="M26.1453 1.79835H28.0128V3.59671H29.8803V8.99177H31.7479V16.1852H16.8077V8.99177H18.6752V5.39506H20.5427V1.79835H22.4103V0H26.1453V1.79835Z" fill="#EF3124"/>
<path d="M35.4829 3.59671H39.2179V5.39506H41.0855V7.19342H42.953V8.99177H44.8205V12.5885H46.688V16.1852H35.4829V12.5885H33.6154V7.19342H31.7479V1.79835H35.4829V3.59671Z" fill="#EF3124"/>
</svg>
