<svg width="26" height="19" viewBox="0 0 26 19" fill="none" xmlns="http://www.w3.org/2000/svg">
<path d="M13.0039 18.995C10.3157 18.995 7.62843 19.0062 4.94114 18.9906C2.61522 18.9776 0.712567 17.4587 0.16544 15.1885C0.0638556 14.7571 0.0123372 14.3149 0.0119206 13.8711C-0.0016515 10.9566 -0.00363658 8.04204 0.00597703 5.12751C0.0110666 2.48047 1.75678 0.413548 4.30325 0.0331663C4.53465 0.0057794 4.76767 -0.00466728 5.00052 0.00190329C10.3332 0.00190329 15.6663 0.00190329 20.9995 0.00190329C23.3823 0.00190329 25.3002 1.5243 25.8473 3.83612C25.9453 4.26834 25.994 4.71073 25.9924 5.15443C26.0054 8.04927 26.0074 10.9421 25.9983 13.8329C25.9941 16.5008 24.3018 18.5329 21.7307 18.9515C21.437 18.9886 21.1409 19.0023 20.8452 18.9924C18.2308 18.9964 15.6171 18.9973 13.0039 18.995ZM16.4605 9.50625L9.58961 5.40454V13.5923L16.4605 9.50625Z" fill="#CEB999"/>
</svg>
