<svg width="143" height="130" viewBox="0 0 143 130" fill="none" xmlns="http://www.w3.org/2000/svg">
<path d="M44.4026 0.00976086C50.1085 0.00976086 55.7195 0.00976086 61.3433 0.00976086C65.8582 0.00976086 70.3757 -0.0390769 74.8881 0.0817315C78.1457 0.187267 81.3548 0.903042 84.3492 2.19202C87.7117 3.61088 90.7071 5.64149 92.6938 8.76194C94.5096 11.5955 95.6512 14.8088 96.0306 18.1541C96.68 23.8913 96.0845 29.3945 93.3586 34.6201C92.1137 37.0054 90.394 38.8509 88.3303 40.4574C84.5238 43.4185 80.091 44.588 75.3065 45.0379V42.8942C76.8029 42.3132 78.3224 41.8172 79.7598 41.1463C82.2522 39.9793 84.3954 38.2829 85.9073 35.9901C88.5024 32.1345 89.9482 27.619 90.0757 22.9711C90.1707 19.5396 89.7677 16.2084 88.2481 13.0725C86.5002 9.45851 83.705 7.0115 80.055 5.40244C76.2514 3.74328 72.1527 2.86907 68.004 2.83205C62.3956 2.74723 56.7821 2.92201 51.1712 2.98884C51.0063 3.00646 50.8425 3.03393 50.6809 3.0711V74.2709H44.4026V0.00976086Z" fill="#404040"/>
<path d="M61.3304 57.2881C61.4487 57.4056 61.573 57.5172 61.7025 57.6222C66.6487 61.1051 68.9768 66.0582 69.7083 71.9084C70.2011 75.8283 69.5389 79.6967 69.1949 83.578C69.0717 84.9737 68.8972 86.3695 68.8741 87.7703C68.833 90.3921 69.9342 91.7698 72.524 92.2582C73.751 92.4895 75.0292 92.4716 76.3742 92.5718V96.4068C74.5184 96.4531 72.6601 96.34 70.8685 95.7745C69.8317 95.4465 68.8306 95.0141 67.8808 94.4842C65.3705 93.0782 64.5902 90.5849 64.0717 87.9965C63.371 84.4956 63.7585 80.9639 63.9664 77.4579C64.1923 73.6383 64.0332 69.8598 63.0244 66.1482C62.0619 62.6165 59.8288 60.3134 56.2584 59.424C55.301 59.185 54.9622 58.7557 55.0007 57.743C55.0829 55.6456 55.0341 55.6867 56.99 55.003C60.1651 53.8951 62.144 51.6332 63.0039 48.3971C64.0178 44.5852 64.1718 40.7065 63.9408 36.784C63.7149 32.9979 63.3632 29.204 64.2436 25.4332C65.3397 20.732 68.371 18.8838 72.5703 18.3184C72.5703 19.4493 72.5934 20.5623 72.5446 21.6599C72.5446 21.8526 72.2468 22.0917 72.0312 22.2048C71.6719 22.395 71.2612 22.4824 70.8864 22.6469C69.2643 23.3589 68.2221 24.495 68.4557 26.3817C68.7124 28.4149 69.0666 30.4326 69.3567 32.4607C70.0779 37.4703 70.5297 42.5032 68.7637 47.3843C67.3725 51.2399 65.296 54.6663 61.7128 56.9385C61.5771 57.0456 61.4493 57.1625 61.3304 57.2881Z" fill="#404040"/>
<path d="M100.992 112.223V124.152L102.391 124.329V129.946H99.5394V126.887H89.7856V112.236H93.1096V124.162H97.7786V112.223H100.992Z" fill="#404040"/>
<path d="M77.6139 112.236V117.865H82.3624V112.21H85.6992V126.907C84.7521 126.907 83.8332 126.954 82.9271 126.874C82.7141 126.856 82.3855 126.417 82.3753 126.162C82.3214 124.725 82.347 123.286 82.347 121.846V120.687H77.6344V126.823H74.2771V112.236H77.6139Z" fill="#404040"/>
<path d="M71.0739 119.523C70.979 120.273 70.9302 120.99 70.789 121.689C70.0934 125.098 67.5344 127.231 64.3285 127.11C60.9326 126.982 58.4531 124.741 58.0681 121.227C57.9036 119.805 57.9704 118.366 58.2658 116.965C59.0024 113.675 61.4203 111.889 64.7006 111.953C67.7423 112.009 70.0755 114.009 70.7608 117.214C70.9225 117.98 70.9738 118.767 71.0739 119.523ZM67.5164 119.541C67.2597 118.353 67.1083 117.227 66.7464 116.184C66.405 115.204 65.6324 114.508 64.5287 114.485C63.3762 114.459 62.5754 115.143 62.1775 116.161C61.7377 117.238 61.5146 118.392 61.5207 119.556C61.5269 120.72 61.7623 121.871 62.2135 122.944C62.6113 123.913 63.3839 124.561 64.503 124.548C64.9882 124.553 65.4621 124.401 65.8545 124.116C66.247 123.83 66.5372 123.425 66.6822 122.962C67.0749 121.854 67.252 120.669 67.5164 119.541Z" fill="#404040"/>
<path d="M26.4455 119.571C26.5053 121.362 25.9967 123.127 24.9927 124.611C22.5825 128.102 16.3581 128.086 14.4689 123.742C12.9289 120.18 13.165 116.751 15.5239 113.682C17.1769 111.533 22.2257 110.87 24.7822 114.196C26.0117 115.777 26.4686 117.599 26.4455 119.571ZM22.7981 119.733C22.7673 119.141 22.7622 118.766 22.7211 118.393C22.6749 117.954 22.5902 117.517 22.5311 117.08C22.3258 115.553 21.5044 114.623 20.2621 114.479C19.0198 114.335 17.8417 115.114 17.4643 116.535C17.1465 117.684 17.008 118.875 17.0537 120.067C17.1359 121.182 17.414 122.274 17.875 123.293C18.3242 124.321 19.4151 124.696 20.4623 124.511C21.3864 124.346 22.3566 123.457 22.4901 122.56C22.6389 121.56 22.7057 120.54 22.7981 119.733Z" fill="#404040"/>
<path d="M55.3242 112.228C54.8263 113.621 54.3232 114.957 53.8766 116.309C53.4915 117.469 53.1065 118.6 51.6075 119.062C53.2349 119.476 53.9176 120.543 54.3591 121.828C54.9289 123.47 55.5013 125.11 56.1019 126.838C55.1805 126.838 54.1332 126.951 53.1348 126.784C52.7292 126.717 52.2852 126.095 52.108 125.632C51.6082 124.474 51.2256 123.268 50.9658 122.034C50.7631 120.89 50.1342 120.563 49.1434 120.538C48.6737 120.538 48.204 120.538 47.6213 120.538V126.851H44.2948V112.217H47.6034V117.906C49.6568 118.376 50.6707 117.692 50.8709 115.849C50.897 115.646 50.9373 115.445 50.9915 115.248C51.7795 112.207 52.2903 111.865 55.3242 112.228Z" fill="#404040"/>
<path d="M114.424 118.044V120.498H108.926V124.21H115.679V126.834H105.733C105.699 126.653 105.676 126.47 105.664 126.287C105.664 121.634 105.664 116.979 105.664 112.242H115.579V114.813H108.931V118.041L114.424 118.044Z" fill="#404040"/>
<path d="M3.16996 126.854H0V112.323C2.49233 112.323 4.9898 112.148 7.44363 112.375C9.77939 112.591 11.1398 114.577 11.0166 117.001C10.9036 119.181 9.04786 121.114 6.86097 121.219C5.67513 121.286 4.48158 121.232 3.16482 121.232V126.866L3.16996 126.854ZM3.16996 114.626V118.783C4.35067 118.713 5.37225 118.734 6.36559 118.569C6.80766 118.488 7.20339 118.244 7.4747 117.886C7.74601 117.527 7.87321 117.079 7.83121 116.631C7.78501 115.68 7.34096 114.958 6.35532 114.832C5.36968 114.706 4.34041 114.691 3.16996 114.626Z" fill="#404040"/>
<path d="M122.194 121.227V126.828H119.085V112.063C121.688 112.171 124.296 112.063 126.839 112.434C129.583 112.819 130.946 116.199 129.601 118.752C128.77 120.343 127.489 121.212 125.674 121.224C124.555 121.235 123.436 121.227 122.194 121.227ZM122.253 118.798C123.436 118.713 124.501 118.731 125.525 118.541C126.49 118.358 126.873 117.569 126.863 116.618C126.852 115.667 126.416 114.989 125.487 114.847C124.437 114.688 123.359 114.703 122.253 114.639V118.798Z" fill="#404040"/>
<path d="M41.0143 117.269L38.0857 117.526C37.829 116.855 37.6467 116.19 37.3156 115.622C36.4198 114.1 34.446 114.038 33.4141 115.488C33.1241 115.897 32.7981 116.395 32.7801 116.866C32.7031 118.626 32.6903 120.395 32.7801 122.153C32.8084 122.68 33.1908 123.248 33.5502 123.68C34.6128 124.952 36.3736 124.86 37.2797 123.484C37.6313 122.958 37.8136 122.317 38.1011 121.662C38.5194 121.662 39.0251 121.634 39.5256 121.662C40.0261 121.69 40.5318 121.791 41.1016 121.865C40.809 124.022 39.8003 125.61 37.8957 126.51C35.6986 127.538 33.5322 127.281 31.5815 125.893C30.4583 125.104 29.678 123.915 29.3997 122.569C28.835 120.256 29.0096 118.022 29.5332 115.773C29.9567 113.974 32.1693 112.272 34.3715 111.979C37.9984 111.509 41.0169 113.881 41.0143 117.269Z" fill="#404040"/>
<path d="M142.391 112.239V114.793H138.939V126.825H135.697V114.865H132.219V112.239H142.391Z" fill="#404040"/>
<path d="M67.5163 119.541C67.2596 120.669 67.0748 121.854 66.6821 122.962C66.5371 123.426 66.2469 123.83 65.8544 124.116C65.462 124.402 64.9881 124.553 64.5029 124.548C63.3838 124.561 62.6112 123.913 62.2134 122.944C61.7622 121.871 61.5268 120.72 61.5206 119.556C61.5145 118.392 61.7377 117.238 62.1774 116.161C62.5753 115.133 63.3761 114.459 64.5286 114.485C65.6323 114.508 66.4049 115.205 66.7463 116.184C67.1108 117.233 67.2545 118.354 67.5163 119.541Z" fill="white"/>
<path d="M22.7981 119.733C22.7134 120.54 22.639 121.56 22.4901 122.56C22.3566 123.457 21.3864 124.347 20.4623 124.511C19.4177 124.696 18.3242 124.311 17.875 123.293C17.414 122.274 17.1359 121.182 17.0537 120.067C17.008 118.876 17.1465 117.684 17.4644 116.535C17.8417 115.104 19.0429 114.33 20.2621 114.479C21.4814 114.628 22.3156 115.553 22.5312 117.08C22.5902 117.517 22.6749 117.954 22.7211 118.394C22.7622 118.766 22.7673 119.142 22.7981 119.733Z" fill="white"/>
<path d="M3.16992 114.627C4.34037 114.691 5.35938 114.684 6.35528 114.822C7.35119 114.961 7.78497 115.681 7.83117 116.622C7.87318 117.07 7.74597 117.517 7.47466 117.876C7.20335 118.235 6.80762 118.479 6.36555 118.56C5.37221 118.724 4.35064 118.704 3.16992 118.773V114.627Z" fill="white"/>
<path d="M122.253 118.799V114.638C123.359 114.702 124.437 114.687 125.487 114.846C126.416 114.987 126.855 115.686 126.863 116.617C126.87 117.547 126.49 118.357 125.525 118.54C124.501 118.722 123.436 118.722 122.253 118.799Z" fill="white"/>
</svg>
