<svg width="127" height="127" viewBox="0 0 127 127" fill="none" xmlns="http://www.w3.org/2000/svg">
<path d="M0 60.96C0 32.2231 0 17.8548 8.92739 8.92739C17.8548 0 32.2231 0 60.96 0H66.04C94.7769 0 109.145 0 118.073 8.92739C127 17.8548 127 32.2231 127 60.96V66.04C127 94.7769 127 109.145 118.073 118.073C109.145 127 94.7769 127 66.04 127H60.96C32.2231 127 17.8548 127 8.92739 118.073C0 109.145 0 94.7769 0 66.04V60.96Z" fill="#404040"/>
<path d="M67.5745 91.4941C38.6291 91.4941 22.1193 71.6504 21.4314 38.6304H35.9306C36.4068 62.8662 47.0957 73.132 55.5624 75.2487V38.6304H69.2154V59.5325C77.5762 58.6329 86.3594 49.1079 89.3227 38.6304H102.975C100.7 51.542 91.175 61.067 84.4017 64.9829C91.175 68.1579 102.023 76.4658 106.151 91.4941H91.1221C87.8942 81.44 79.8517 73.6612 69.2154 72.6029V91.4941H67.5745Z" fill="white"/>
</svg>
