<svg width="30" height="44" viewBox="0 0 30 44" fill="none" xmlns="http://www.w3.org/2000/svg">
<path d="M29.4627 25.3023C29.1526 25.1462 28.9975 25.1462 28.8424 24.99C28.5323 24.8338 28.2221 24.8338 27.9119 24.6776C27.9119 24.5215 28.067 24.5215 28.067 24.3652V24.209C28.067 23.8967 27.7568 23.8967 27.6018 23.7405C26.3611 23.272 25.1205 23.1158 23.8799 22.9595C22.6392 22.8033 21.2435 22.8033 20.0028 22.8033C18.9173 22.8033 17.9868 22.9595 16.9013 23.1157C18.7622 22.3348 20.468 21.3977 22.174 20.3043C22.329 20.3043 22.329 20.1482 22.4841 20.1482L22.6392 19.992C22.7943 19.992 22.7943 19.8358 22.9493 19.8358C23.1044 19.8358 23.1044 19.6796 23.2595 19.6796C25.5857 17.8053 26.5162 16.0873 26.3611 15.4625C26.051 14.5255 22.174 14.8378 20.1579 15.1502C19.6927 14.3693 19.3825 12.495 19.2274 12.3388C19.2274 12.1826 19.0724 11.8703 18.7622 11.8703C18.1419 11.5578 17.5216 11.5578 17.5216 11.5578C17.5216 11.4017 17.3665 11.0893 17.2114 10.9331C17.0563 10.9331 16.9013 10.9331 16.9013 10.9331C16.5911 10.9331 16.2809 10.777 15.1953 10.9331C14.7301 10.1522 14.575 9.52745 14.575 8.7465C14.575 8.43409 14.575 8.27795 14.7301 8.27795C15.3504 8.12175 16.9013 7.80934 16.9013 7.80934C17.0563 7.80934 17.0563 7.80934 17.2114 7.6532C17.3665 7.497 17.3665 7.3408 17.3665 7.02845C17.8317 6.71606 19.2274 6.55987 19.6927 6.40368C20.313 6.40368 20.9333 6.24749 21.5536 6.24749C21.7087 6.24749 21.8638 6.24749 22.0188 6.24749C22.174 6.24749 22.329 6.24749 22.4841 6.09131C22.6392 5.93512 22.6392 5.77893 22.7943 5.62274C22.7943 5.46656 22.7943 5.31038 22.7943 5.15418C22.7943 4.998 22.7943 4.84181 22.6392 4.68563C22.4841 4.52943 22.174 4.52943 22.0188 4.52943C21.8638 4.52943 21.8638 4.52943 22.0188 4.21706C22.0188 4.06088 22.0188 3.59231 21.8638 3.59231C21.7087 3.59231 21.7087 3.7485 21.7087 3.7485C21.5536 3.90468 21.5536 4.21706 21.2435 4.37325C21.0884 4.37325 21.0884 4.52943 20.9333 4.52943C20.9333 4.68562 20.9333 4.68563 20.7782 4.68563C20.468 4.68563 19.8477 4.84181 18.9173 4.998C18.2969 4.998 17.0563 4.998 16.7461 5.15418C16.7461 5.15418 16.5911 4.998 16.436 4.998C15.8157 4.998 15.0402 5.15418 14.2649 5.31037C13.4894 5.46656 12.4039 5.77893 11.7836 5.77893C11.7836 5.77893 11.6285 5.62274 11.6285 5.46656C11.6285 5.31038 11.6285 5.15418 11.7836 5.15418C11.9386 5.15418 11.9386 5.15418 11.9386 4.998C12.2488 4.84181 12.2488 4.68563 12.4039 4.37325C12.559 3.90468 12.7141 3.43613 12.559 2.81138C12.559 2.65518 12.4039 2.65518 12.4039 2.499C12.4039 2.34281 12.4039 2.03043 12.4039 1.87425C12.4039 1.71806 12.2488 1.56188 12.2488 1.40568C12.2488 1.2495 12.2488 1.09331 12.0938 0.780934C11.9386 0.468563 11.4734 0.312375 11.1633 0.156188C11.0082 0 10.8531 0 10.543 0C10.3878 0 10.3878 0 10.2328 0C10.0777 0 9.61248 0 9.30232 0C8.99216 0 8.83705 0.156188 8.682 0.312375C8.37184 0.468563 8.06162 0.468562 7.75146 0.624749C7.4413 0.624749 7.13117 0.937125 6.97609 1.09331C6.51085 1.40568 6.04561 1.87425 5.58036 2.03043C5.11513 2.18662 4.64989 2.34281 4.49481 2.65518C4.49481 2.81137 4.49481 2.96756 4.33972 2.96756C4.33972 3.12375 4.02956 3.12375 3.87448 3.12375C3.7194 3.27993 3.40924 3.59231 3.25416 3.7485C3.09908 4.06087 3.09908 4.37325 3.40924 4.52943C3.56432 4.68562 3.7194 4.68563 4.02956 4.68563C4.18464 4.68563 4.49481 4.68563 4.64989 4.68563C4.64989 4.68563 4.64989 4.68563 4.80497 4.68563V4.84181C4.64989 4.84181 4.49481 4.84181 4.49481 4.998C4.49481 5.15418 4.64989 5.31037 4.80497 5.31037C4.96005 5.31037 5.11513 5.31037 5.2702 5.31037C5.2702 5.31037 5.2702 5.31037 5.42528 5.31037V5.46656C5.42528 5.46656 5.42528 5.62275 5.42528 5.77893C5.58036 5.93512 5.89052 5.77893 6.20069 5.62274C6.51085 5.46656 6.97609 5.62274 7.28625 5.62274C7.4413 5.62274 7.59641 5.62274 7.59641 5.62274C7.75146 5.62274 7.75146 5.46656 7.90657 5.46656C8.06162 5.31038 8.21673 5.46656 8.52689 5.46656C8.682 5.46656 8.83705 5.31038 9.14721 5.46656C9.30232 5.46656 9.45737 5.77893 9.61248 5.77893C9.61248 5.93512 9.61248 6.24749 9.61248 6.55987C9.61248 6.71606 9.45737 6.87225 9.45737 6.87225C9.30232 6.87225 8.99216 7.02845 8.06162 7.3408C6.66593 7.497 5.73544 7.80934 5.73544 7.96555C5.58036 7.96555 5.58036 8.12175 5.58036 8.27795C5.58036 8.43409 5.58036 8.43409 5.58036 8.5903C4.80497 8.7465 4.02956 9.21505 3.56432 9.52745C2.47876 10.1522 1.23812 10.9331 0.617798 12.1826C0.617798 12.3388 0.617798 12.495 0.617798 12.6512C0.772878 12.8073 0.927958 12.6512 0.927958 12.6512C1.3932 12.495 1.54828 12.3388 1.70336 12.3388C1.70336 12.3388 1.85844 12.3388 1.85844 12.495C1.85844 12.6512 2.01352 12.6512 2.1686 12.495C2.1686 12.495 2.32368 12.3388 2.32368 12.0265C2.32368 11.8702 2.47876 11.714 2.63384 11.714C3.09908 11.4017 3.56432 11.2455 4.02956 11.0893C4.64989 10.9331 5.89052 10.6207 6.04561 10.6207C6.20069 10.777 6.20069 10.9331 6.35577 10.777C6.51085 10.777 6.82101 10.6207 7.13117 10.4645C7.4413 10.3083 7.75146 10.1522 8.06162 10.3083C8.682 10.3083 8.682 12.0265 8.37184 12.3388C8.21673 12.6512 8.37184 12.9635 8.52689 12.9635C8.83705 13.4321 8.37184 13.4321 8.37184 14.0568C8.06162 14.213 7.59641 14.6816 6.97609 15.4625C6.35577 16.2435 5.89052 16.8683 5.73544 17.1806V17.3368C5.73544 17.493 5.89052 17.6492 6.20069 17.8053C6.04561 17.9615 6.04561 18.4301 6.04561 18.5863C6.04561 18.8987 6.20069 19.211 6.51085 19.3673C6.82101 19.6796 8.37184 19.8358 8.37184 19.8358L8.21673 19.992C6.51085 20.9291 4.80497 22.0225 3.25416 23.272C2.944 23.5843 2.63384 23.7405 2.47876 24.209C2.32368 24.5215 2.47876 25.1462 2.944 25.1462C2.47876 25.771 2.1686 26.5518 2.01352 27.1766C2.78892 27.3328 3.40924 26.708 4.02956 26.2395C4.96005 25.771 5.89052 25.6147 6.97609 25.4585C8.37184 25.3023 9.61248 25.1462 11.0082 24.99C10.698 24.99 10.3878 25.3023 10.2328 25.3023C9.92264 25.4585 9.76753 25.6148 9.45737 25.771C8.99216 26.0833 8.37184 26.3957 7.90657 26.708C6.82101 27.3328 5.89052 28.1137 4.96005 28.8946C4.33972 29.5194 3.56432 29.988 2.944 30.6128C2.63384 30.9251 2.47876 31.2375 2.1686 31.3936C1.85844 31.706 1.3932 32.0184 1.3932 32.487C1.3932 32.6431 1.3932 32.7993 1.70336 32.7993C2.01352 32.7993 2.47876 33.1118 2.63384 33.2679C2.944 33.5803 2.944 34.0488 2.944 34.5174C11.1633 34.5174 19.5376 34.5174 27.7568 34.5174C27.9119 34.5174 28.067 34.5174 28.067 34.5174C28.3771 34.3613 28.3771 34.205 28.2221 33.8926C28.2221 33.1118 28.067 32.6431 28.067 32.3308C28.067 32.1746 27.9119 32.1746 27.9119 32.0184H27.7568H27.6018C24.3451 32.1746 19.2274 32.6431 15.9707 32.7993C19.0724 31.706 24.5002 31.5498 27.9119 31.3936C27.9119 31.3936 27.9119 31.3936 28.067 31.3936H28.2221C28.3771 31.3936 28.5323 31.3936 28.5323 31.2375C28.5323 30.9251 28.6873 29.988 28.6873 29.6756C28.6873 29.5194 28.6873 29.5194 28.6873 29.5194C28.6873 29.5194 28.6873 29.5194 28.5323 29.5194C22.4841 29.0508 15.0402 30.6127 9.30232 32.487C14.4199 29.5194 21.8638 28.4261 27.7568 28.5823C28.2221 28.5823 28.6873 28.5823 28.9975 28.5823C29.1526 28.5823 29.1526 28.4261 29.1526 28.4261C29.1526 28.4261 29.1526 28.27 29.1526 28.1138C29.3076 27.9575 29.3076 27.6451 29.3076 27.489C29.3076 27.3328 29.3076 27.3328 29.3076 27.3328C29.1526 27.1766 28.6873 27.1766 28.3771 27.1766C26.8263 27.0205 25.1205 27.0204 23.5697 27.0204C22.4841 27.1766 21.3985 27.1766 20.313 27.489C18.1419 27.8013 15.8157 28.27 13.6445 28.8946C13.3344 28.8946 13.0242 29.0508 12.7141 29.0508C12.4039 29.0508 12.0938 29.207 11.7836 29.207C13.6445 28.27 15.6605 27.6451 17.8317 27.1766C20.0028 26.708 22.329 26.2395 24.5002 26.2395C25.2755 26.2395 26.051 26.2395 26.8263 26.2395C27.6018 26.2395 28.3771 26.2395 29.1526 26.3956C29.3076 26.3956 29.3076 26.3956 29.4627 26.2395C29.3076 25.9271 29.3076 25.771 29.4627 25.3023ZM10.3878 18.7425C10.2328 18.7425 9.92264 18.5863 9.61248 18.4301C9.14721 18.274 8.99216 18.1178 8.99216 18.1178C8.99216 17.9615 9.14721 17.9615 9.14721 17.9615C9.30232 17.9615 9.45737 17.9615 9.45737 17.9615C9.61248 17.9615 9.92264 17.3368 10.543 16.8683C11.1633 16.2435 11.7836 15.775 12.0938 15.6187C12.4039 15.4625 12.7141 15.3063 13.0242 15.3063C14.1098 14.994 15.1953 14.8378 16.2809 14.8378C16.7461 14.8378 16.9013 14.8378 16.9013 14.5255C17.0563 14.5255 17.2114 14.5255 17.3665 14.6816C17.3665 14.6816 17.8317 15.4625 17.9868 15.775C17.9868 15.775 17.9868 15.775 17.8317 15.775C17.5216 15.9311 15.8157 16.3997 13.9547 17.1806C12.2488 17.8053 10.543 18.7425 10.3878 18.7425Z" fill="black"/>
<path d="M15.9341 42.5104H15.165V40.8215H15.9341C16.4286 40.8215 16.7584 41.2156 16.7584 41.666C16.8132 42.1164 16.4286 42.5104 15.9341 42.5104ZM15.9889 39.9208H15.165V38.6259H17.3628V37.6126H14.176V43.5238H15.9889C16.9782 43.5238 17.7473 42.7356 17.7473 41.7223C17.8022 40.7089 16.9782 39.9208 15.9889 39.9208ZM21.154 41.7223C21.154 42.2289 20.7694 42.623 20.2749 42.623C19.7804 42.623 19.3956 42.2289 19.3956 41.7223V39.3578C19.3956 38.8511 19.7804 38.4571 20.2749 38.4571C20.7694 38.4571 21.154 38.8511 21.154 39.3578V41.7223ZM20.2749 37.5C19.2308 37.5 18.4066 38.3444 18.4066 39.4141V41.7223C18.4066 42.7919 19.2308 43.6364 20.2749 43.6364C21.3187 43.6364 22.1429 42.7919 22.1429 41.7223V39.4141C22.1429 38.3444 21.2639 37.5 20.2749 37.5ZM11.8132 37.6126L11.044 40.1459L10.9891 40.4274L10.8792 40.1459L10.055 37.6126H8.90115L8.40663 43.5238H9.34071L9.67038 39.1889L10.5495 42.0601H11.2638L12.1978 39.1889L12.5275 43.5238H13.5165L13.022 37.6126H11.8132ZM24.6705 39.9771H23.9011V38.5696H24.6705C25 38.5696 25.3297 38.9074 25.3297 39.3015C25.3297 39.6393 25.0551 39.9771 24.6705 39.9771ZM26.3187 39.3015C26.3187 38.4007 25.6044 37.6126 24.7253 37.6126H22.9121V43.5238H23.9011V40.9341H24.7253C25.6044 40.9341 26.3187 40.2022 26.3187 39.3015ZM6.9231 41.7223C6.9231 42.2289 6.5385 42.623 6.04398 42.623C5.54949 42.623 5.16486 42.2289 5.16486 41.7223V39.3578C5.16486 38.8511 5.54949 38.4571 6.04398 38.4571C6.5385 38.4571 6.9231 38.8511 6.9231 39.3578V41.7223ZM6.04398 37.5C5.00004 37.5 4.17585 38.3444 4.17585 39.4141V41.7223C4.17585 42.7919 5.00004 43.6364 6.04398 43.6364C7.08795 43.6364 7.91214 42.7919 7.91214 41.7223V39.4141C7.85718 38.3444 7.03299 37.5 6.04398 37.5ZM1.75824 42.5104H0.989011V40.8215H1.75824C2.25276 40.8215 2.63739 41.2156 2.63739 41.666C2.58243 42.1164 2.19783 42.5104 1.75824 42.5104ZM1.8132 39.9208H0.989011V38.6259H3.18684V37.6126H0V43.5238H1.8132C2.80221 43.5238 3.57144 42.7356 3.57144 41.7223C3.57144 40.7089 2.74728 39.9208 1.8132 39.9208ZM27.4176 41.3845L27.9121 39.4704L27.9672 39.1889H28.022L28.0771 39.4704L28.5716 41.3845H27.4176ZM28.4617 37.6126H27.4727L26.0441 42.8482V43.5238H26.8683L27.1978 42.3415H28.7914L29.1209 43.5238H30V42.8482L28.4617 37.6126Z" fill="black"/>
</svg>
