<svg width="200" height="200" viewBox="0 0 200 200" fill="none" xmlns="http://www.w3.org/2000/svg">
<g clip-path="url(#clip0_5_119)">
<path d="M99.4862 179.981C143.932 179.981 179.962 143.944 179.962 99.4908C179.962 55.0369 143.932 19 99.4862 19C55.0405 19 19.0103 55.0369 19.0103 99.4908C19.0103 143.944 55.0405 179.981 99.4862 179.981Z" fill="#FFC800"/>
<path d="M134.12 159.46C106.79 175.233 77.1502 178.06 58.2177 168.612C82.4569 183.058 113.58 184.307 139.739 169.205C165.898 154.088 180.383 126.508 179.993 98.2877C178.713 119.418 161.45 143.687 134.12 159.46Z" fill="#141414"/>
<path d="M109.693 24.9031C115.234 34.492 101.842 52.6079 79.7715 65.336C57.7017 78.0638 35.3352 80.6251 29.7943 71.0204C29.5602 70.5678 29.3417 70.0679 29.1856 69.5524C27.7496 65.0861 29.4665 59.3076 33.6027 53.217C34.2738 52.2643 34.9606 51.3273 35.663 50.4059C41.9062 42.2694 49.8196 35.2104 59.2469 29.7757C68.6742 24.3253 78.7415 21.0144 88.9024 19.6714C90.0887 19.4996 91.2438 19.3746 92.3676 19.2966C99.7033 18.75 105.556 20.1555 108.709 23.6225C109.084 24.0442 109.412 24.4658 109.693 24.9031Z" fill="#141414"/>
<path d="M143.906 35.2893C153.583 52.0465 134.058 81.4221 100.313 100.913C66.5678 120.403 31.3556 122.62 21.6941 105.863C20.0865 103.067 19.228 99.9598 19.0564 96.6176C18.6349 107.878 20.5704 119.325 25.0811 130.195C25.7523 131.819 26.4858 133.427 27.2663 135.02C27.2975 135.083 27.3443 135.161 27.3755 135.223C30.2943 140.268 34.6021 144.234 39.9713 147.108C58.9042 157.244 90.9165 153.761 120.853 136.473C150.774 119.185 169.8 93.2132 170.502 71.7552C170.706 65.6957 169.441 59.9956 166.554 54.9513C165.461 53.3115 164.322 51.7029 163.12 50.1724C156.018 40.9896 147.184 33.6807 137.366 28.4646C140.098 30.2606 142.314 32.5251 143.906 35.2893C143.906 35.2893 143.922 35.3049 143.922 35.3205L143.906 35.2893Z" fill="#141414"/>
<path d="M99.5046 179.981C143.95 179.981 179.98 143.944 179.98 99.4908C179.98 55.0369 143.95 19 99.5046 19C55.059 19 19.0288 55.0369 19.0288 99.4908C19.0288 143.944 55.059 179.981 99.5046 179.981Z" fill="url(#paint0_radial_5_119)"/>
</g>
<defs>
<radialGradient id="paint0_radial_5_119" cx="0" cy="0" r="1" gradientUnits="userSpaceOnUse" gradientTransform="translate(99.4969 99.4974) scale(80.474 80.5201)">
<stop offset="0.5" stop-color="white" stop-opacity="0"/>
<stop offset="1" stop-color="white" stop-opacity="0.35"/>
</radialGradient>
<clipPath id="clip0_5_119">
<rect width="161" height="161" fill="white" transform="translate(19 19)"/>
</clipPath>
</defs>
</svg>
