<svg width="548" height="556" viewBox="0 0 548 556" fill="none" xmlns="http://www.w3.org/2000/svg">
<g id="fcb-Property_1_FC_Barcelona__crest__1">
<g id="fcb-layer1">
<g id="fcb-g2427">
<g id="fcb-g2263">
<g id="fcb-g2279">
<path id="fcb-path2239" fill-rule="evenodd" clip-rule="evenodd" d="M56.0556 27.6662C92.6369 43.7315 152.676 41.8293 192.946 11.4219C249.255 52.7005 303.449 48.463 355.122 11.4219C389.572 36.3363 442.612 46.9739 492.381 28.1891L514.692 59.204C456.514 136.994 478.05 211.35 538.057 276.787L512.859 302.35C518.567 470.128 388.687 510.185 314.107 514.344L274.009 547.168L234.21 514.833C101.062 503.328 30.7622 433.05 35.1113 302.781L9.20312 276.592C59.8252 221.808 97.8647 146.95 32.8362 59.1871L56.0556 27.6662Z" fill="black" stroke="black" stroke-width="0.189272"/>
<path id="fcb-path5105" fill-rule="evenodd" clip-rule="evenodd" d="M59.0851 299.406H487.519C498.78 418.023 423.457 482.091 308.919 488.39L236.137 488.574C126.555 480.693 44.9134 422.807 59.0851 299.406Z" fill="#004D98"/>
<path id="fcb-rect6076" d="M304.47 300.828H243.781V490.371H304.47V300.828Z" fill="#A50044"/>
<g id="fcb-g6100">
<path id="fcb-rect6088" d="M183.681 300.828H122.992V470.225H183.681V300.828Z" fill="#A50044"/>
<path id="fcb-rect6092" d="M183.677 461.547H144.148V478.996H183.677V461.547Z" fill="#A50044"/>
</g>
<g id="fcb-g6096">
<path id="fcb-rect6090" d="M424.571 300.828H363.883V470.225H424.571V300.828Z" fill="#A50044"/>
<path id="fcb-rect6094" d="M403.412 461.547H363.883V478.996H403.412V461.547Z" fill="#A50044"/>
</g>
<path id="fcb-path4130" fill-rule="evenodd" clip-rule="evenodd" d="M272.154 66.8614V235.219L67.6385 236.699L88.7188 155.665L62.4609 58.7211L191.901 42.0703L272.154 66.8614Z" fill="white"/>
<path id="fcb-path2187" fill-rule="evenodd" clip-rule="evenodd" d="M275.109 66.8614V235.219L479.625 236.699L458.545 155.665L484.803 58.7211L355.362 42.0703L275.109 66.8614Z" fill="#FFED02"/>
<path id="fcb-rect2169" d="M212.614 46.8672H153.977V234.177H212.614V46.8672Z" fill="#DB0030"/>
<path id="fcb-rect3143" d="M272.148 175.402V116.734H89.6857V175.402H272.148Z" fill="#DB0030"/>
<g id="fcb-g2174">
<path id="fcb-rect4118" d="M315.148 60.1484H293.461V232.96H315.148V60.1484Z" fill="#DB0030"/>
<path id="fcb-rect4120" d="M356.32 47.7656H334.633V233.364H356.32V47.7656Z" fill="#DB0030"/>
<path id="fcb-rect4122" d="M397.758 58.2266H376.07V233.751H397.758V58.2266Z" fill="#DB0030"/>
<path id="fcb-rect4124" d="M438.805 64.6562H417.117V233.594H438.805V64.6562Z" fill="#DB0030"/>
</g>
<path id="fcb-path4181" fill-rule="evenodd" clip-rule="evenodd" d="M192.605 24.7578C154.837 52.4548 95.0714 55.3688 60.7625 41.5206L47.0212 59.2197C105.972 142.21 72.1023 225.704 25.3594 276.839L46.8843 299.631C38.1498 424.718 111.111 497.062 239.376 504.506L274.14 533.556L308.835 504.05C383.53 502.761 514.503 460.848 500.391 299.448L522.03 277.021C467.136 216.112 448.215 132.684 501.258 59.2197L488.362 41.6348C441.427 57.0667 387.734 48.5128 355.423 25.1461C306.96 59.8862 245.416 63.4722 192.605 24.7578ZM355.857 48.5317C384.996 66.6333 417.195 71.784 472.703 66.9159C444.907 115.032 441.905 172.351 466.517 227.692L81.3059 227.464C102.024 178.014 106.778 121.11 74.2983 65.8197C114.335 71.6354 153.445 70.242 192.446 49.0113C245.346 80.0814 299.767 80.6498 355.857 48.5317ZM67.6331 301.275H480.715C491.571 415.639 418.947 477.4 308.516 483.473L238.326 483.656C132.673 476.057 53.9695 420.252 67.6331 301.275Z" fill="currentColor" stroke="#DEB405" stroke-width="0.177515"/>
<path id="fcb-path7096" fill-rule="evenodd" clip-rule="evenodd" d="M73.8516 66.4184C106.331 121.709 101.574 178.611 80.8557 228.062L466.058 228.289C441.446 172.948 444.459 115.628 472.255 67.5121C416.746 72.3802 384.555 67.2344 355.416 49.1328C299.327 81.2509 244.888 80.6701 191.987 49.6C152.987 70.8306 113.889 72.234 73.8516 66.4184Z" stroke="black" stroke-width="0.75709"/>
<path id="fcb-path4112" fill-rule="evenodd" clip-rule="evenodd" d="M67.6292 301.273H480.704C491.561 415.638 418.938 477.409 308.507 483.482L238.334 483.66C132.68 476.061 53.9656 420.25 67.6292 301.273Z" stroke="black" stroke-width="0.75709"/>
<path id="fcb-path4134" d="M273.766 72.2031V228.364" stroke="black" stroke-width="0.75709"/>
<g id="fcb-g6097">
<path id="fcb-path2185" d="M330.727 390.395C330.728 397.774 329.277 405.082 326.455 411.9C323.633 418.719 319.497 424.914 314.282 430.133C309.067 435.352 302.875 439.491 296.061 442.316C289.246 445.14 281.943 446.594 274.567 446.594C267.191 446.594 259.887 445.14 253.073 442.316C246.258 439.491 240.067 435.352 234.852 430.133C229.636 424.914 225.5 418.719 222.678 411.9C219.856 405.082 218.405 397.774 218.406 390.395C218.405 383.015 219.856 375.707 222.678 368.889C225.5 362.071 229.636 355.875 234.852 350.656C240.067 345.438 246.258 341.298 253.073 338.473C259.887 335.649 267.191 334.195 274.567 334.195C281.943 334.195 289.246 335.649 296.061 338.473C302.875 341.298 309.067 345.438 314.282 350.656C319.497 355.875 323.633 362.071 326.455 368.889C329.277 375.707 330.728 383.015 330.727 390.395Z" fill="#EDBB00" stroke="black" stroke-width="0.760882"/>
<g id="fcb-g4131">
<path id="fcb-path3158" d="M242.167 344.625C235.612 368.529 231.547 392.066 250.457 403.375C263.671 411.278 272.606 395.161 275.081 388.917" stroke="black" stroke-width="0.662453"/>
<path id="fcb-path3160" d="M222.594 413.055C233.664 412.549 239.441 411.638 246.543 400.844" stroke="black" stroke-width="0.662453"/>
</g>
<path id="fcb-path4141" d="M274.617 389.34C285.727 382.508 295.608 385.814 300.198 402.918C311.011 398.571 321.432 406.92 324.147 415.359" stroke="black" stroke-width="0.662453"/>
<path id="fcb-path4143" d="M300.43 402.914C292.223 422.739 270.635 431.917 240.328 434.939" stroke="black" stroke-width="0.662453"/>
<path id="fcb-path2191" d="M274.634 390.148C267.815 383.9 257.325 376.751 272.608 358.386C266.123 350.164 264.356 342.131 272.833 334.508" stroke="black" stroke-width="0.662453"/>
<path id="fcb-path2193" d="M330.472 393.755C320.499 376.115 297.284 351.672 272.609 358.164" stroke="black" stroke-width="0.662453"/>
</g>
</g>
<path id="fcb-rect2194" d="M196.047 237.719V237.924H185.844V257.747V268.983V291.022H196.869V268.983H212.596V257.747H196.869V249.138H224.009V237.719H196.047Z" fill="black"/>
<path id="fcb-path3176" fill-rule="evenodd" clip-rule="evenodd" d="M279.516 254.358L289.412 249.188C283.095 235.215 257.485 231.241 249.06 249.188C240.367 270.595 249.607 290.483 266.432 292.42C277.123 293.978 285.595 288.742 289.192 279.44L279.406 273.829C276.8 280.326 266.863 284.798 259.285 273.939C256.952 269.087 256.353 261.618 258.956 254.358C265.17 245.815 274.255 246.74 279.516 254.358Z" fill="black" stroke="black" stroke-width="0.0378545"/>
<path id="fcb-path5116" fill-rule="evenodd" clip-rule="evenodd" d="M317.344 237.859L317.549 291.436L346.698 291.322C356.183 289.993 368.617 274.46 354.048 262.387C361.75 255.595 360.785 241.068 345.374 237.974L317.344 237.859ZM328.551 248.41H343.069C349.453 250.248 347.558 256.389 343.274 257.431H328.551V248.41ZM328.665 267.891L343.936 268.096C351.49 270.346 349.784 278.958 344.164 280.429L328.78 280.314L328.665 267.891Z" fill="black" stroke="black" stroke-width="0.189272"/>
</g>
</g>
</g>
</g>

</svg>
