<svg width="149" height="89" viewBox="0 0 149 89" fill="none" xmlns="http://www.w3.org/2000/svg">
<path d="M7.9465 33.6053C8.94429 33.6053 9.79241 33.2561 10.4909 32.5576C11.1893 31.8592 11.5385 31.011 11.5385 30.0133V25.2239C11.5385 24.2261 11.1893 23.3779 10.4909 22.6795C9.79241 21.981 8.94429 21.6318 7.9465 21.6318H6.74915V33.6053H7.9465ZM6.74915 19.2371H7.9465C8.94429 19.2371 9.79241 18.8879 10.4909 18.1894C11.1893 17.491 11.5385 16.6429 11.5385 15.6451V10.8557C11.5385 9.85788 11.1893 9.00976 10.4909 8.31131C9.79241 7.61285 8.94429 7.26363 7.9465 7.26363H6.74915V19.2371ZM10.3412 4.86893C12 4.86893 13.4094 5.45513 14.5693 6.62753C15.7417 7.78747 16.3279 9.19684 16.3279 10.8557V15.6451C16.3279 17.3039 15.748 18.7133 14.588 19.8732C14.376 20.0852 14.164 20.2723 13.952 20.4345C14.164 20.5966 14.376 20.7775 14.588 20.977C15.748 22.1494 16.3279 23.565 16.3279 25.2239V30.0133C16.3279 31.6721 15.7417 33.0877 14.5693 34.2601C13.4094 35.42 12 36 10.3412 36H1.95975V4.86893H10.3412ZM37.8802 36V7.26363H33.0908V36H28.3014V4.86893H42.6696V36H37.8802ZM53.4458 21.6318H54.6431V7.26363H53.4458C52.448 7.26363 51.5998 7.61285 50.9014 8.31131C50.2029 9.00976 49.8537 9.85788 49.8537 10.8557V18.0398C49.8537 19.0376 50.2029 19.8857 50.9014 20.5841C51.5998 21.2826 52.448 21.6318 53.4458 21.6318ZM59.4325 36H54.6431V24.0265H53.4458C52.448 24.0265 51.5998 24.3757 50.9014 25.0742C50.2029 25.7726 49.8537 26.6208 49.8537 27.6186V36H45.0643V27.6186C45.0643 25.9597 45.6443 24.5441 46.8042 23.3717C47.0162 23.1722 47.2283 22.9913 47.4403 22.8292C47.2283 22.667 47.0162 22.4799 46.8042 22.2679C45.6443 21.108 45.0643 19.6986 45.0643 18.0398V10.8557C45.0643 9.19684 45.6443 7.78747 46.8042 6.62753C47.9766 5.45513 49.3922 4.86893 51.0511 4.86893H59.4325V36ZM76.1954 4.86893V7.26363H71.406V36H66.6166V7.26363H61.8272V4.86893H76.1954ZM88.1689 36V21.6318H83.3795V36H78.5901V4.86893H83.3795V19.2371H88.1689V4.86893H92.9583V36H88.1689ZM109.721 4.86893V36H104.932V15.2522L100.142 36H95.353V4.86893H100.142V25.6167L104.932 4.86893H109.721ZM126.484 33.6053H128.879V38.3947H124.089V36H112.116V4.86893H116.905V33.6053H121.695V4.86893H126.484V33.6053ZM137.26 24.0265C135.601 24.0265 134.186 23.4465 133.013 22.2866C131.853 21.1142 131.273 19.6986 131.273 18.0398V4.86893H136.063V18.0398C136.063 19.0376 136.412 19.8857 137.111 20.5841C137.51 20.9832 137.959 21.2701 138.458 21.4447C138.956 21.2701 139.405 20.9832 139.805 20.5841C140.503 19.8857 140.852 19.0376 140.852 18.0398V4.86893H145.642V30.0133C145.642 31.6721 145.055 33.0877 143.883 34.2601C142.723 35.42 141.314 36 139.655 36H137.26C135.601 36 134.186 35.42 133.013 34.2601C131.853 33.0877 131.273 31.6721 131.273 30.0133V28.8159H136.063V30.0133C136.063 31.011 136.412 31.8592 137.111 32.5576C137.51 32.9567 137.959 33.2436 138.458 33.4182C138.956 33.2436 139.405 32.9567 139.805 32.5576C140.503 31.8592 140.852 31.011 140.852 30.0133V23.9143C140.466 23.9891 140.066 24.0265 139.655 24.0265H137.26Z" fill="white"/>
<path d="M1.33222 76.2095V43.9673H15.6922C23.098 43.9673 27.4782 47.1734 27.4782 52.5471C27.4782 55.9339 25.6719 58.4176 22.6916 59.2304V59.3207C26.259 60.1335 28.3814 62.843 28.3814 66.7265C28.3814 72.6872 24.0011 76.2095 16.5502 76.2095H1.33222ZM9.64113 69.8423H16.0986C18.3565 69.8423 19.7112 68.4876 19.7112 66.1394C19.7112 63.8816 18.221 62.4817 15.647 62.4817H9.64113V69.8423ZM9.64113 56.1145H15.647C17.634 56.1145 18.808 55.0308 18.808 53.2696C18.808 51.4633 17.5436 50.3344 15.3309 50.3344H9.64113V56.1145ZM44.3645 52.9987L37.1394 57.9208V48.9345L44.3645 43.9673H52.267V76.2095H44.3645V52.9987ZM65.6293 64.8299C58.2687 64.8299 53.8433 60.856 53.8433 54.1276C53.8433 47.3992 58.5848 43.4254 66.6228 43.4254C74.7511 43.4254 79.5829 49.3861 79.5829 59.411C79.5829 70.339 74.5704 76.7965 66.0357 76.7965C58.4945 76.7965 54.0239 73.1839 54.0239 67.0426H61.9264C61.9264 69.5262 63.4618 70.9712 66.0357 70.9712C69.558 70.9712 71.5901 67.7199 71.5901 62.7075V62.4817L71.4997 62.4365C70.2805 63.9267 68.113 64.8299 65.6293 64.8299ZM61.7458 54.1276C61.7458 57.3789 63.4166 59.3207 66.2163 59.3207C69.0161 59.3207 70.5966 57.4241 70.5966 54.2179C70.5966 50.9215 69.0161 48.9797 66.2163 48.9797C63.4166 48.9797 61.7458 50.8763 61.7458 54.1276ZM88.3289 69.0295V76.2095H81.6456V69.0295H88.3289ZM81.6456 59.9529V52.7729H88.3289V59.9529H81.6456ZM104.041 43.4254C112.666 43.4254 117.769 49.6119 117.769 60.0884C117.769 70.61 112.666 76.7965 104.041 76.7965C95.4157 76.7965 90.313 70.61 90.313 60.0884C90.313 49.6119 95.4157 43.4254 104.041 43.4254ZM98.4413 60.0884C98.4413 66.3652 100.519 70.1133 104.041 70.1133C107.608 70.1133 109.685 66.3652 109.685 60.0884C109.685 53.8115 107.608 50.1086 104.041 50.1086C100.519 50.1086 98.4413 53.8115 98.4413 60.0884ZM132.661 43.4254C141.286 43.4254 146.389 49.6119 146.389 60.0884C146.389 70.61 141.286 76.7965 132.661 76.7965C124.036 76.7965 118.933 70.61 118.933 60.0884C118.933 49.6119 124.036 43.4254 132.661 43.4254ZM127.061 60.0884C127.061 66.3652 129.139 70.1133 132.661 70.1133C136.228 70.1133 138.306 66.3652 138.306 60.0884C138.306 53.8115 136.228 50.1086 132.661 50.1086C129.139 50.1086 127.061 53.8115 127.061 60.0884Z" fill="white"/>
</svg>
