<svg width="197" height="267" viewBox="0 0 197 267" fill="none" xmlns="http://www.w3.org/2000/svg">
<g id="cskapfk" clip-path="url(#clip1_0_1)">
<g id="layer1">
<g id="g8">
<path id="path10" fill-rule="evenodd" clip-rule="evenodd" d="M186.405 99.6954C186.55 99.759 186.827 99.8399 186.934 99.8819C187.381 100.057 187.753 100.298 188.066 100.664C188.778 101.498 188.777 102.428 188.733 103.434C189.284 103.939 190.212 104.451 190.764 104.969C191.758 105.899 192.243 106.42 192.575 107.785C192.77 108.586 192.7 109.548 192.608 110.396C193.038 110.825 193.213 111.424 193.192 112.043C193.131 113.805 193.103 115.568 192.989 117.329C193.033 117.349 193.076 117.369 193.115 117.39C194.021 117.856 194.589 118.542 194.667 119.58C194.713 120.199 194.354 121.059 194.228 121.655C195.962 121.762 196.995 122.581 196.799 124.477C196.558 126.826 194.867 128.962 192.992 130.306C191.806 131.156 190.203 132.111 189.861 133.634C189.819 133.819 189.754 134.005 189.694 134.188C189.704 134.241 189.713 134.295 189.721 134.348C190.086 134.757 190.382 135.221 190.532 135.742C191.475 135.986 191.962 136.751 192.014 137.806C192.095 139.447 191.546 142.409 190.905 144.17C190.952 144.198 190.999 144.226 191.044 144.256C191.954 144.839 192.614 145.621 192.542 146.757C192.519 147.126 192.368 147.469 192.176 147.78C192.071 147.949 191.865 148.196 191.715 148.403C191.948 148.539 192.307 148.719 192.461 148.836C193.141 149.352 193.443 150.071 193.521 150.903C193.719 153.018 191.513 155.145 189.988 156.358C189.272 156.928 188.435 157.372 187.651 157.842C187.186 158.121 186.098 158.715 185.758 159.086C185.661 159.192 185.315 159.49 185.429 159.653C186.186 160.726 186.396 161.854 185.785 162.981C186.245 165.033 186.04 167.202 185.354 169.182C184.466 171.738 183.264 174.17 182.157 176.635C180.388 180.574 179.249 185.362 176.053 188.453C174.692 189.77 173.405 190.687 171.693 191.505C171.193 191.745 170.686 191.967 170.172 192.174C170.049 194.659 168.688 197.411 167.225 199.463C167.942 200.155 168.295 201.004 168.036 202.002C167.878 202.609 167.546 202.807 167.232 203.17C167.395 203.349 167.73 203.672 167.794 203.745C168.364 204.412 168.522 205.176 168.445 206.036C168.177 208.997 161.528 211.724 158.992 212.349C158.325 212.514 158.212 212.57 158.176 213.269C158.068 215.356 158.381 216.838 156.124 217.945C155.721 218.142 155.311 218.324 154.889 218.479C154.504 220.844 152.744 223.034 150.441 223.788C149.977 223.94 149.5 224.019 149.018 224.064C149.235 224.612 149.29 225.187 149.201 225.789C149.122 226.325 148.935 226.784 148.593 227.207C148.406 227.438 148.154 227.645 147.986 227.876C147.885 228.015 147.851 228.139 147.851 228.31C147.851 230.215 149.165 231.996 148.018 233.964C146.928 235.833 144.343 237.049 142.47 238.013C141.967 238.271 141.369 238.324 140.811 238.33C140.565 238.332 139.907 238.295 139.499 238.326L139.748 238.326L136.657 240.935C131.226 245.519 126.092 250.451 120.415 254.745C118.701 256.041 117.661 256.892 115.385 256.255C114.337 255.962 113.285 255.688 112.225 255.437C108.427 258.673 104.549 261.818 100.579 264.845L97.8112 266.955L95.0911 264.786C91.227 261.704 87.45 258.517 83.7162 255.282C82.5779 255.552 81.4468 255.862 80.3384 256.233C78.2598 256.929 77.6708 256.212 76.0851 255.114C70.0719 250.949 64.8967 245.809 59.3007 241.138L56.6719 238.945C55.143 238.263 53.3429 237.337 52.2321 236.214L34.0045 217.78L36.6882 217.241C36.9855 217.182 37.2838 217.126 37.5821 217.073L23.6149 199.609L24.7877 199.566C25.6703 199.534 26.5533 199.495 27.4359 199.469C26.3133 196.544 24.9368 193.734 23.2058 191.109L22.9113 190.663C21.3881 190.037 19.9757 189.222 18.7508 188.111C15.3948 185.07 15.0454 180.646 13.3006 176.759C12.1396 174.174 10.598 171.741 9.66614 169.058C8.96397 167.035 8.70308 164.825 9.2168 162.727L9.6846 160.816C8.75469 159.301 7.90905 157.74 7.14627 156.124L5.86172 153.404L8.68177 154.03C8.21539 151.9 7.65148 149.791 7.03311 147.7C5.46257 142.388 3.55852 137.13 1.31043 132.064L2.25742e-05 129.109L3.10307 130.06C4.18597 130.391 5.2585 130.758 6.31862 131.159C5.44268 129.296 4.74174 127.217 4.30202 125.292C2.40071 116.978 4.60675 107.512 9.3096 100.467L10.0227 99.3988C9.55912 91.8859 9.27314 84.3612 9.2149 76.8343L9.18791 73.208C11.2471 73.3474 13.2063 72.9811 15.2366 72.6029C21.9605 71.3509 27.8142 68.5035 34.1536 65.6066C44.2596 60.9878 54.0568 55.7426 63.909 50.6204C66.168 49.4456 68.427 48.2698 70.6897 47.1025L53.7046 32.0156L85.0556 28.9605L97.6559 1.73389e-05L110.256 28.9605L141.608 32.0156L124.935 46.8248C129.018 48.9535 133.077 51.1271 137.142 53.2894C145.327 57.6426 153.521 62.0025 161.995 65.7832C168.442 68.6602 175.639 71.5896 182.675 72.5233L186.663 73.0526L186.532 77.0522C186.294 84.2788 186.243 91.5106 186.014 98.7367C186.138 99.0592 186.261 99.3813 186.405 99.6954ZM91.3065 254.006C93.4798 255.85 95.6725 257.672 97.8931 259.459C100.181 257.697 102.439 255.895 104.667 254.059C102.325 253.771 99.9651 253.615 97.6062 253.629C95.5111 253.64 93.3965 253.777 91.3065 254.006Z" fill="#161413"/>
</g>
<g id="g12">
<path id="path14" fill-rule="evenodd" clip-rule="evenodd" d="M29.9565 87.0419C42.6903 82.0906 55.0766 76.0026 67.1451 69.6283C70.1726 68.0292 73.1853 66.4066 76.19 64.766L78.9083 52.4252L75.6654 49.5451C59.8493 57.5781 43.1297 66.5681 30.1904 72.1687C23.5996 75.0218 17.763 76.724 13.7114 77.1657C13.781 88.8265 14.4533 100.049 15.28 110.375C13.8662 107.489 12.6825 104.513 11.6593 101.74C11.1461 93.4449 10.7607 85.1414 10.6972 76.8234L10.6797 74.5867C12.9775 74.4421 16.7867 73.7942 19.9239 72.8035C25.1422 71.1554 30.8964 68.7162 34.7723 66.9453C44.8697 62.3307 54.747 57.046 64.5959 51.9256C67.4742 50.4294 70.3695 48.9216 73.2828 47.4285L57.2124 33.1543L86.0692 30.3418L97.6557 3.71096L109.243 30.3418L138.1 33.1542L122.347 47.1455C127.068 49.5841 131.754 52.0942 136.443 54.588C144.639 58.9469 152.906 63.3426 161.388 67.127C167.829 70.0017 175.451 73.0507 182.479 73.9839L185.137 74.3366L185.05 77.0027C184.829 83.7292 184.768 90.4557 184.577 97.1799C184.236 96.7617 183.804 96.4514 183.378 96.1039C182.853 95.6764 182.284 95.2742 181.659 95.2592C181.782 90.0239 181.839 84.4351 182.086 76.9062C165.497 74.7034 141.559 60.3383 119.98 49.2484L116.404 52.4252L119.124 64.7783C121.362 65.9677 123.603 67.1548 125.846 68.3353C132.887 72.0392 139.965 75.7008 147.148 79.1269C153.18 82.0039 159.436 84.8311 165.765 87L167.878 87.7251L167.759 89.9448C166.72 109.249 164.832 128.835 159.599 147.513C150.072 181.516 131.565 209.122 107.525 234.197C106.273 234.047 105.02 233.927 103.762 233.837C129.883 206.991 147.581 179.419 156.743 146.722C161.684 129.088 163.699 110.218 164.798 89.7876C152.434 85.5483 135.889 77.0042 119.958 68.5655L122.651 80.7938L97.6557 66.0732L72.6602 80.7938L75.3496 68.5844C60.7186 76.5163 45.633 84.1121 31.0361 89.7876C32.5555 109.798 33.707 129.379 38.696 147.113C47.8678 179.716 68.3132 211.055 92.6231 233.889C91.3253 233.989 90.0313 234.12 88.7406 234.277C64.5353 210.942 44.8182 179.821 35.841 147.907C35.09 145.237 34.4243 142.538 33.8315 139.815L33.8381 139.8L34.5701 138.13L33.5299 138.4C30.2335 122.562 29.2932 105.99 28.0796 90.0099L27.9149 87.8358L29.9565 87.0419ZM88.7231 253.738C92.4617 256.935 95.5838 259.509 97.8731 261.334C101.043 258.917 104.165 256.413 107.249 253.833C108.502 254.038 109.748 254.278 110.986 254.548C107.295 257.685 103.53 260.736 99.6771 263.674L97.8319 265.081L96.0185 263.635C92.2704 260.646 88.5867 257.542 84.9547 254.4C86.1819 254.144 87.4489 253.924 88.7231 253.738Z" fill="#F6CA00"/>
</g>
<g id="g16">
<path id="path18" fill-rule="evenodd" clip-rule="evenodd" d="M18.4389 117.489C14.6748 112.234 12.1861 105.79 10.5465 101.281C5.2989 109.141 4.23286 118.332 5.74918 124.964C6.39169 127.773 7.3879 130.114 8.31355 131.777C8.89215 129.908 9.67386 128.108 10.6142 126.44C10.8372 126.044 11.0787 125.647 11.3353 125.248C10.1663 120.955 9.25199 113.071 9.8803 108.279C9.88314 111.395 10.1611 115.086 10.6507 118.462C10.9153 116.999 11.3973 115.3 12.1274 113.962C11.4968 116.159 10.9826 118.878 11.0015 120.625C11.2543 122.021 11.5451 123.321 11.8684 124.45C13.591 121.968 15.8935 119.507 18.4389 117.489Z" fill="#F6CA00"/>
</g>
<g id="g20">
<path id="path22" fill-rule="evenodd" clip-rule="evenodd" d="M25.5846 114.391C19.5444 116.496 13.9043 122.417 11.3916 126.874C10.3163 128.781 9.4839 130.81 8.92188 132.869C11.0246 133.809 13.1259 134.919 15.0904 136.194C15.2263 135.601 15.383 134.971 15.5591 134.312C15.4062 132.583 14.5303 129.83 13.5994 127.648C14.7263 129.216 15.5302 131.406 15.9218 133.011C17.132 128.835 18.989 123.908 20.9686 120.712C18.7599 125.609 16.8764 131.452 15.7736 136.647C18.712 138.646 21.3001 141.026 23.0681 143.771C23.9052 143.094 24.7806 142.454 25.6803 141.866C25.7787 141.296 25.8559 140.732 25.9104 140.172C26.2001 137.204 25.6575 133.652 24.8758 130.162C23.9165 125.882 24.1282 118.622 25.5846 114.391Z" fill="#F6CA00"/>
</g>
<g id="g24">
<path id="path26" fill-rule="evenodd" clip-rule="evenodd" d="M14.7017 165.395C12.3044 162.391 10.3177 159.381 8.48438 155.5C18.7286 157.77 23.613 161.166 27.9032 164.84C27.0164 166.147 26.248 167.537 25.5927 168.988C22.5548 166.161 18.552 162.8 15.035 160.874C18.194 163.369 22.0704 166.497 25.2612 169.75C25.1163 170.096 24.9771 170.445 24.8446 170.797C23.9449 170.438 23.0491 170.065 22.1623 169.665C19.508 168.47 17.0004 167.093 14.7017 165.395Z" fill="#F6CA00"/>
</g>
<g id="g28">
<path id="path30" fill-rule="evenodd" clip-rule="evenodd" d="M10.4042 155.039C8.74223 146.705 5.11253 136.987 2.66406 131.469C11.0045 134.022 18.7762 138.69 22.3737 144.345C20.3927 146.041 18.656 147.942 17.3501 149.873C16.0405 151.808 15.0225 153.929 14.3165 156.149C13.0277 155.73 11.7209 155.365 10.4042 155.039ZM7.04622 135.812C9.50311 138.469 11.9141 141.208 14.0462 144.074C12.9311 143.427 11.6172 142.938 9.72707 142.501C11.5552 143.268 13.4538 144.163 14.7597 145.054C15.781 146.485 16.7289 147.948 17.5731 149.448L18.0509 148.732C15.7995 144.769 11.6111 139.857 7.04622 135.812Z" fill="#F6CA00"/>
</g>
<g id="g32">
<path id="path34" fill-rule="evenodd" clip-rule="evenodd" d="M33.0252 139.445C26.833 141.057 20.9623 146.124 18.093 150.364C16.8004 152.274 15.8312 154.327 15.1641 156.43C17.3961 157.199 19.5679 158.131 21.6351 159.281C21.9443 159.453 22.2478 159.628 22.5466 159.806C23.3255 156.707 24.4405 153.506 25.9017 150.859C24.9083 153.94 23.9476 157.078 23.2175 160.218C24.0238 160.725 24.797 161.258 25.5508 161.816C26.5589 160.743 27.6294 159.321 28.5636 157.925C27.5437 159.968 26.9002 161.123 25.993 162.147C26.8164 162.772 27.619 163.427 28.4206 164.108C29.3273 162.867 30.3476 161.707 31.4854 160.65C31.466 158.709 31.2605 156.65 30.9745 154.604C30.3671 150.261 31.2283 143.545 33.0252 139.445Z" fill="#F6CA00"/>
</g>
<g id="g36">
<path id="path38" fill-rule="evenodd" clip-rule="evenodd" d="M34.2623 193.094C33.9498 195.57 33.8328 198.748 33.9943 200.385C34.7263 200.573 37.9407 201.132 39.5373 201.58C39.4346 199.598 39.4393 197.471 39.5297 195.217C37.6917 194.281 36.1581 193.678 34.2623 193.094ZM40.2774 201.795C41.0558 202.03 41.8299 202.289 42.5974 202.573C42.9729 202.711 43.3465 202.856 43.7167 203.006C44.1523 201.533 44.694 200.077 45.3313 198.645C43.5898 197.489 41.7612 196.377 39.8829 195.399C39.9791 197.523 40.0828 199.673 40.2774 201.795Z" fill="#F6CA00"/>
</g>
<g id="g40">
<path id="path42" fill-rule="evenodd" clip-rule="evenodd" d="M39.6947 217.346L26.6016 200.976C33.2241 200.732 38.8425 201.981 43.4764 203.868C43.0119 205.613 42.6994 207.384 42.5588 209.171C40.0787 207.553 36.7686 205.8 33.5811 204.373C36.4045 206.073 39.8197 208.25 42.5001 210.136C42.4764 210.669 42.4693 211.204 42.4778 211.74C41.4035 211.829 40.3434 211.902 38.4069 212.064C39.7312 212.214 41.217 212.262 42.4921 212.288C42.5489 213.867 42.7482 215.457 43.1 217.054C41.9693 217.101 40.8339 217.2 39.6947 217.346Z" fill="#F6CA00"/>
</g>
<g id="g44">
<path id="path46" fill-rule="evenodd" clip-rule="evenodd" d="M49.6158 192.742C44.3166 200.718 42.1694 208.969 44.0037 217.023C46.0823 216.987 48.1424 217.124 50.1755 217.445C49.1211 213.111 48.4965 207.51 48.8081 201.039C49.0467 205.423 49.4729 210.053 50.3119 214.429C50.764 212.78 51.4454 211.674 52.9316 209.306C51.8583 211.425 50.7688 214.268 50.6078 215.883C50.7318 216.456 50.8639 217.024 51.0046 217.585C52.282 217.818 53.5495 218.126 54.8024 218.508C55.4558 217.376 56.3109 216.385 57.2555 215.453C56.6802 216.324 55.9524 217.405 55.3871 218.691C57.2342 219.291 59.0514 220.056 60.8302 220.994C61.2114 221.194 61.5835 221.398 61.9486 221.608C61.4202 218.758 60.3284 216.194 59.1371 214.06C57.7043 211.491 55.7484 209.25 54.0609 206.128C51.9719 202.264 50.3824 196.875 49.6158 192.742Z" fill="#F6CA00"/>
</g>
<g id="g48">
<path id="path50" d="M61.4809 239.233C58.3232 238.135 54.7688 236.677 53.2929 235.184L36.9844 218.691C56.9146 214.7 68.1598 227.078 71.1394 230.231C72.0205 231.163 73.3662 234.416 74.324 236.964C73.191 237.224 72.0589 237.483 70.9258 237.731C69.057 235.682 66.6726 233.539 63.5897 231.307C63.478 229.433 63.308 228.049 62.4898 225.972C62.8852 227.645 63.0088 229.25 62.8606 230.786C58.3696 227.626 52.4691 224.29 44.6529 220.791C47.8659 222.542 51.0946 224.229 54.2607 226.052C52.8379 226.176 51.9402 226.187 49.4776 226.265C51.6173 226.507 54.0145 226.646 55.4004 226.717C58.9567 228.818 62.4202 231.125 65.6811 233.931C63.7043 234.08 60.103 234.141 57.5202 234.224C59.6002 234.46 64.5296 234.547 66.4552 234.609C67.6214 235.653 68.7592 236.765 69.8648 237.959C69.013 238.139 68.1612 238.31 67.307 238.468C65.6532 238.774 63.3554 239.267 61.4809 239.233Z" stroke="#161413" stroke-width="0.0228788"/>
</g>
<g id="g52">
<path id="path54" fill-rule="evenodd" clip-rule="evenodd" d="M61.4809 239.233C58.3232 238.135 54.7688 236.677 53.2929 235.184L36.9844 218.691C56.9146 214.7 68.1598 227.078 71.1394 230.231C72.0205 231.163 73.3662 234.416 74.324 236.964C73.191 237.224 72.0589 237.483 70.9258 237.731C69.057 235.682 66.6726 233.539 63.5897 231.307C63.478 229.433 63.308 228.049 62.4898 225.972C62.8852 227.645 63.0088 229.25 62.8606 230.786C58.3696 227.626 52.4691 224.29 44.6529 220.791C47.8659 222.542 51.0946 224.229 54.2607 226.052C52.8379 226.176 51.9402 226.187 49.4776 226.265C51.6173 226.507 54.0145 226.646 55.4004 226.717C58.9567 228.818 62.4202 231.125 65.6811 233.931C63.7043 234.08 60.103 234.141 57.5202 234.224C59.6002 234.46 64.5296 234.547 66.4552 234.609C67.6214 235.653 68.7592 236.765 69.8648 237.959C69.013 238.139 68.1612 238.31 67.307 238.468C65.6532 238.774 63.3554 239.267 61.4809 239.233Z" fill="#F6CA00"/>
</g>
<g id="g56">
<path id="path58" fill-rule="evenodd" clip-rule="evenodd" d="M24.6953 190.688C26.5329 193.544 27.9945 196.611 29.2284 200.037C30.4235 200.049 31.4917 200.141 33.0949 200.381C32.941 198.135 33.0347 195.4 33.4618 192.79C30.6564 192.033 27.5575 191.609 24.6953 190.688Z" fill="#F6CA00"/>
</g>
<g id="g60">
<path id="path62" d="M10.6606 163.078C10.2122 164.91 10.4532 166.801 11.0706 168.58C11.8651 170.867 13.2832 173.101 14.6572 176.161C16.2235 179.649 16.7718 184.324 19.7524 187.025C23.4091 190.338 28.2125 190.423 33.2773 191.796C37.2962 192.885 41.4752 195.048 45.7081 197.838C46.174 196.853 46.6844 195.879 47.2356 194.917C45.4079 189.813 43.112 183.894 42.0509 181.724C40.2034 177.946 36.4208 176.276 32.7617 174.775C26.2324 172.096 17.4328 169.875 10.6606 163.078Z" stroke="#161413" stroke-width="0.0228788"/>
</g>
<g id="g64">
<path id="path66" fill-rule="evenodd" clip-rule="evenodd" d="M34.6846 159.227C30.0833 162.365 27.2988 166.795 25.6719 171.119C27.2689 171.739 28.8769 172.322 30.4782 172.929C30.8016 169.881 31.418 166.723 32.4218 164.018C31.9232 167.057 31.4621 170.143 31.1983 173.203C31.8323 173.448 32.464 173.698 33.0942 173.956C35.0113 174.743 36.7158 175.515 38.1902 176.423C37.838 175.623 37.4952 174.791 37.1798 173.916C35.6922 169.786 34.8252 163.427 34.6846 159.227Z" fill="#F6CA00"/>
</g>
<g id="g68">
<path id="path70" fill-rule="evenodd" clip-rule="evenodd" d="M10.6606 163.078C10.2122 164.91 10.4532 166.801 11.0706 168.58C11.8651 170.867 13.2832 173.101 14.6572 176.161C16.2235 179.649 16.7718 184.324 19.7524 187.025C23.4091 190.338 28.2125 190.423 33.2773 191.796C37.2962 192.885 41.4752 195.048 45.7081 197.838C46.174 196.853 46.6844 195.879 47.2356 194.917C45.4079 189.813 43.112 183.894 42.0509 181.724C40.2034 177.946 36.4208 176.276 32.7617 174.775C26.2324 172.096 17.4328 169.875 10.6606 163.078Z" fill="#515151"/>
</g>
<g id="g72">
<path id="path74" fill-rule="evenodd" clip-rule="evenodd" d="M184.296 163.141C184.744 164.972 184.565 166.927 183.949 168.704C183.155 170.991 182.174 172.977 180.8 176.037C179.234 179.523 177.906 184.604 175.017 187.399C173.626 188.744 172.571 189.451 171.047 190.18C167.809 191.729 164.019 192.584 160.552 193.419C156.378 194.423 151.088 196.503 145.969 199.785C148.235 194.744 152.61 184.053 153.594 181.848C155.753 177.01 159.037 176.089 162.696 174.588C169.099 172.034 177.587 169.75 184.296 163.141Z" fill="#515151"/>
</g>
<g id="g76">
<path id="path78" fill-rule="evenodd" clip-rule="evenodd" d="M121.523 236.913C121.675 234.647 121.709 232.202 122.953 230.791C124.054 229.54 126.15 230.875 127.299 229.845C128.348 228.903 127.863 224.942 130.048 222.392C130.937 221.354 132.853 222.18 134.194 221.895C136 221.512 136.217 219.545 137.742 219.362C139.226 219.185 140.052 221.01 141.49 220.605C142.328 220.369 142.989 219.415 143.84 218.608C144.69 217.799 145.731 217.135 146.532 217.473C147.7 217.968 147.924 219.145 147.764 220.305C147.603 221.464 146.808 222.361 146.983 223.386C147.097 224.05 147.911 224.364 147.732 225.572C147.545 226.835 146.366 226.628 146.366 228.307C146.366 230.001 147.471 231.956 146.733 233.222C145.911 234.632 143.755 235.687 141.786 236.701C141.182 237.011 139.208 236.707 138.562 237.05C137.502 237.611 136.678 238.315 135.862 238.923L135.693 238.923C133.11 238.93 130.654 238.87 128.119 238.388C130.283 236.71 132.467 234.791 134.799 232.462C137.09 232.628 140.789 232.503 142.983 232.163C141.272 232.206 137.33 232.294 135.328 231.929C138.207 229.006 141.32 225.453 144.9 220.97C142.68 223.355 140.521 225.779 138.287 228.147C138.451 226.606 138.57 225.487 138.762 223.648C138.202 225.626 137.906 227.583 137.541 228.932C135.895 230.653 134.2 232.337 132.404 233.951C132.387 232.012 132.595 228.324 132.702 225.696C132.309 227.772 131.856 232.765 131.658 234.611C130.259 235.831 128.797 237.006 127.246 238.12C126.774 236.493 126.455 235.393 125.906 233.516C126.096 235.199 126.446 236.8 126.661 238.088C124.942 237.722 123.233 237.319 121.523 236.913Z" fill="#F6CA00"/>
</g>
<g id="g80">
<path id="path82" fill-rule="evenodd" clip-rule="evenodd" d="M161.809 194.021C160.142 197.029 157.956 200.512 155.846 203.632C155.328 201.599 154.825 199.929 154.177 198.566C154.678 200.337 155.145 202.224 155.481 204.17C154.732 205.267 153.996 206.311 153.303 207.265C153.286 207.14 153.263 207.009 153.229 206.871C152.946 205.712 152.262 205.445 151.777 204.52C151.456 203.909 151.68 201.893 151.61 201.085C151.497 199.775 151.134 198.745 150 198.446C153.408 196.631 157.109 195.151 160.764 194.272L161.809 194.021ZM168.69 192.102C168.563 194.654 166.857 197.536 165.618 199.14C164.837 200.152 166.929 200.363 166.599 201.63C166.476 202.106 165.562 202.369 165.672 203.236C165.83 204.486 167.11 204.315 166.967 205.9C166.829 207.43 161.971 210.092 158.633 210.915C157.698 211.145 156.781 211.5 156.694 213.189C156.62 214.639 157.022 215.857 155.468 216.618C155.083 216.807 154.731 216.964 154.381 217.093C154.334 216.22 154.023 215.5 153.213 214.797C152.283 213.993 151.456 213.067 151.357 212.035C152.063 210.622 152.778 209.123 153.786 207.608C156.798 207.204 159.97 207.081 162.648 206.534C159.737 206.655 156.841 206.901 154.265 206.914C155.292 205.44 156.539 203.61 157.79 201.635C158.84 201.213 160.053 200.742 161.254 200.161C160.005 200.52 159.097 200.784 158.153 201.057C159.594 198.748 161.011 196.274 162.069 193.959C164.286 193.426 166.535 192.867 168.69 192.102Z" fill="#F6CA00"/>
</g>
<g id="g84">
<path id="path86" fill-rule="evenodd" clip-rule="evenodd" d="M134.409 220.89C134.183 219.428 134.087 218.04 134.328 217.111C134.539 216.298 135.99 215.819 136.47 214.978C137.166 213.757 135.884 210.543 136.022 209.231C136.216 207.385 138.126 207.917 139.314 207.535C140.77 207.067 139.922 205.385 141.053 204.833C142.359 204.196 142.053 205.851 143.406 205.012C144.007 204.64 144.673 203.054 144.92 202.341C145.18 201.593 145.841 201.345 146.269 201.002C147.423 200.073 148.56 199.267 149.126 199.245C150.394 199.194 150.619 199.912 150.727 201.163C150.828 202.327 150.508 204.009 150.992 204.929C151.509 205.916 152.143 206.157 152.368 207.081C152.647 208.22 152.019 208.761 151.332 209.602C149.376 211.999 151.07 214.113 152.631 215.466C153.56 216.269 153.572 217.057 153.456 218.037C153.178 220.402 151.35 221.936 149.98 222.384C149.382 222.58 148.66 222.621 147.919 222.652C148.091 221.983 148.542 221.21 148.65 220.425C148.865 218.87 148.453 217.323 146.886 216.659C145.753 216.179 144.556 216.839 143.659 217.585C144.483 215.509 145.383 213.112 146.169 210.653C147.051 209.895 148.093 209.029 149.083 208.053C148 208.805 147.219 209.349 146.399 209.919C147.081 207.713 147.659 205.477 147.998 203.396C146.93 207.923 144.7 213.807 142.667 218.554C142.47 218.765 142.253 218.99 142.041 219.19C141.421 215.856 140.924 213.301 140.108 211.338C140.708 213.949 141.224 216.8 141.361 219.711C141.323 219.729 141.287 219.744 141.253 219.753C140.479 219.971 139.359 218.279 137.641 218.484C135.885 218.693 135.486 220.341 134.409 220.89Z" fill="#F6CA00"/>
</g>
<g id="g88">
<path id="path90" fill-rule="evenodd" clip-rule="evenodd" d="M168.086 157.22C168.09 156.24 168.236 155.333 168.671 154.593C169.516 153.159 171.827 154.077 172.76 152.849C173.611 151.728 172.384 147.928 174.046 145.015C174.723 143.828 176.617 144.056 177.879 143.525C179.58 142.81 178.609 142.801 180.027 142.219C181.637 141.557 181.813 140.433 182.823 139.965C183.404 139.696 184.062 140.675 185.684 138.898C186.473 138.033 187.762 137.511 188.614 137.342C189.477 137.171 190.479 136.714 190.537 137.882C190.592 139.018 190.061 142.563 189.317 144.158C188.778 145.315 191.148 145.363 191.066 146.669C191.036 147.159 189.875 147.964 190.146 148.794C190.539 149.993 191.9 149.46 192.049 151.044C192.15 152.127 190.967 153.696 189.065 155.211C188.202 155.898 185.32 157.383 184.667 158.095C183.97 158.853 183.603 159.63 184.218 160.502C185.242 161.955 184.297 162.811 182.917 163.848C182.62 162.849 182.157 161.923 181.458 161.095C181.207 160.797 180.146 159.855 180.04 159.657C179.944 159.383 180.026 158.17 179.924 157.66C179.854 157.305 179.737 156.992 179.582 156.716C181.872 156.352 185.305 155.681 186.896 155.059C184.502 155.582 181.156 156.028 179.113 156.098C178.903 155.887 178.66 155.708 178.391 155.558C180.636 152.008 186.05 145.671 188.362 143.088C185.921 145.335 179.482 151.821 177.746 155.27C177.53 155.193 177.303 155.129 177.066 155.077C175.561 154.749 172.791 155.6 171.334 156.07C170.24 156.423 169.159 156.813 168.086 157.22Z" fill="#F6CA00"/>
</g>
<g id="g92">
<path id="path94" fill-rule="evenodd" clip-rule="evenodd" d="M172.067 133.687C172.044 133.381 172.04 133.081 172.059 132.791C172.163 133.168 172.242 133.476 172.067 133.687ZM178.26 121.322C178.44 120.08 178.887 118.967 179.697 118.489C181.283 117.55 182.198 117.798 183.524 117.028C185.028 116.156 184.297 115.204 185.233 114.604C185.772 114.259 186.622 114.953 187.734 113.534C188.456 112.614 188.914 112.002 189.735 111.72C190.566 111.434 191.754 110.825 191.714 111.994C191.675 113.113 191.633 115.573 191.49 117.566C191.399 118.837 193.094 118.387 193.192 119.691C193.228 120.18 192.439 121.822 192.822 122.608C193.375 123.742 195.536 122.308 195.327 124.328C195.186 125.698 194.234 127.603 192.129 129.111C191.114 129.838 189.224 130.96 188.557 132.833C188.182 132.166 187.679 131.594 187.061 131.071C186.768 130.822 185.091 129.728 184.935 129.527C184.921 129.406 184.911 129.286 184.903 129.166C186.965 128.192 189.667 126.8 190.907 125.861C189.14 126.803 186.745 127.868 184.867 128.564C184.859 128.44 184.849 128.318 184.834 128.198C186.032 124.01 187.772 118.656 188.655 116.094C187.987 117.555 186.93 120.183 185.914 122.994C185.264 121.891 184.809 121.175 183.973 119.751C184.549 121.286 185.18 122.534 185.677 123.656C185.263 124.822 184.862 126.005 184.502 127.138C184.456 127.062 184.405 126.985 184.347 126.91C184.051 126.533 183.667 126.321 183.219 126.176C183.103 126.138 182.682 126.034 182.569 125.968C182.13 125.164 181.882 124.36 181.378 123.545C180.762 122.547 179.519 121.322 178.26 121.322ZM189.131 136.298C189.168 136.517 189.149 136.731 189.084 136.943L189.088 136.876C189.1 136.685 189.115 136.492 189.131 136.298Z" fill="#F6CA00"/>
</g>
<g id="g96">
<path id="path98" fill-rule="evenodd" clip-rule="evenodd" d="M172.722 145.801C172.629 145.567 172.557 145.342 172.511 145.132C172.334 144.31 173.415 143.236 173.466 142.27C173.539 140.868 170.945 138.566 170.477 137.331C169.819 135.594 171.766 135.219 172.656 134.349C173.748 133.282 172.232 132.155 172.995 131.158C173.876 130.007 174.347 131.622 175.179 130.27C175.549 129.67 175.556 128.454 175.456 127.708C175.352 126.925 175.832 125.932 176.058 125.41C176.362 124.711 177.105 122.704 177.697 122.379C178.619 121.769 179.958 122.937 180.618 124.005C181.232 125 181.348 125.594 181.799 126.413C182.148 127.048 183.145 126.816 183.643 127.452C184.055 127.977 183.918 128.509 184.052 129.658C184.139 130.399 185.346 130.777 186.482 131.741C187.164 132.319 187.841 133.072 188.18 134.219C188.377 134.885 188.286 135.595 188.218 136.518C187.067 136.792 185.808 137.438 185.023 138.299C183.623 139.833 183.637 138.605 182.444 139.159C181.939 139.393 181.599 139.735 181.278 140.091C181.24 139.375 181.185 138.613 181.117 137.825C181.805 136.717 182.738 135.368 183.554 133.887C182.527 135.171 181.857 136.011 181.044 137.032C180.654 132.944 179.958 128.386 179.498 126.2C179.843 129.308 180.485 136.299 180.66 140.753C180.396 141.003 180.091 141.229 179.685 141.397C179.191 141.599 178.779 141.796 178.42 142.198C178.206 142.439 177.82 142.583 177.531 142.705C176.118 143.299 174.215 142.917 173.271 144.573C173.043 144.972 172.864 145.382 172.722 145.801Z" fill="#F6CA00"/>
</g>
<g id="g100">
<path id="path102" fill-rule="evenodd" clip-rule="evenodd" d="M175.361 124.776C174.211 123.846 173.276 122.667 172.584 122.015C171.02 120.538 172.008 121.651 171.065 120.23C170.315 119.1 171.267 117.578 172.337 116.824C173.036 116.33 173.423 115.595 173.474 115.109C173.618 113.713 171.878 112.179 171.358 110.53C170.91 109.108 171.834 106.215 174.892 105.722C175.8 105.576 175.54 103.911 176.055 103.425C177.534 102.033 179.048 104.053 178.935 101.473C178.9 100.684 179.21 99.7168 179.461 99.2068C179.798 98.5235 180.641 96.5553 181.248 96.2596C181.767 95.9511 182.261 96.3363 182.814 96.7865C183.272 97.1589 183.81 97.5286 184.085 98.0258C184.65 99.0495 184.736 99.6499 185.145 100.489C185.463 101.14 186.412 101.002 186.936 101.616C187.322 102.067 187.284 102.561 187.236 103.716C187.205 104.46 188.661 105.021 189.748 106.039C190.4 106.65 190.852 106.968 191.134 108.129C191.273 108.699 191.203 109.565 191.11 110.418C190.719 110.432 190.321 110.56 189.96 110.69C189.787 110.753 189.615 110.821 189.441 110.88C188.333 111.261 187.722 112.103 187.03 112.987C186.16 114.095 185.702 113.245 184.747 113.857C183.46 114.683 184.18 115.617 183.071 116.261C182.658 116.5 182.262 116.632 181.803 116.753L181.524 116.827C181.769 115.158 181.966 112.951 182.111 110.67C182.948 109.628 184.127 108.317 185.131 106.922C183.951 108.08 183.108 108.907 182.16 109.84C182.365 106.26 182.44 102.639 182.366 100.756C182.206 103.523 181.764 109.455 181.266 113.873C179.805 112.346 177.952 110.565 176.525 109.867C178.26 111.308 179.971 113.219 181.166 114.739C181.064 115.585 180.961 116.357 180.858 117.016C180.312 117.185 179.814 117.385 179.239 117.724C178 118.457 177.49 120.062 177.33 121.565C177.296 121.584 177.262 121.604 177.228 121.626C176.409 122.115 175.778 123.765 175.361 124.776Z" fill="#F6CA00"/>
</g>
<g id="g104">
<path id="path106" fill-rule="evenodd" clip-rule="evenodd" d="M162.364 173.766C162.313 173.146 162.303 172.672 162.354 172.448C162.636 171.213 164.329 171.052 165.184 169.878C165.937 168.847 165.362 167.661 164.735 166.169C163.93 164.251 162.954 161.907 163.735 159.589C163.929 157.743 165.027 159.27 166.214 158.888C166.587 158.768 170.224 157.239 173.28 156.409C172.642 159.387 171.891 162.391 171.071 165.423C169.653 163.639 167.546 161.289 166.009 160.052C167.21 161.328 169.896 164.396 170.883 166.111C170.434 167.752 169.967 169.401 169.486 171.06C167.123 171.985 164.735 172.821 162.369 173.765L162.364 173.766ZM173.353 156.39C174.805 156 176.119 155.772 176.876 155.938C179.918 156.602 178.861 158.975 179.205 159.954C179.47 160.709 181.207 161.322 182.038 164.008C179.328 166.31 176.286 168.086 173.017 169.578C172.128 169.983 171.232 170.362 170.33 170.725C170.501 170.046 170.67 169.35 170.841 168.633C172.749 167.368 176.209 164.865 177.726 163.182C176.41 164.289 172.883 166.773 171.057 167.716C171.45 166.026 171.84 164.226 172.232 162.295C173.084 161.256 174.276 159.982 175.358 158.539C174.16 159.67 173.379 160.409 172.429 161.309C172.737 159.756 173.046 158.119 173.353 156.39Z" fill="#F6CA00"/>
</g>
<g id="g108">
<path id="path110" fill-rule="evenodd" clip-rule="evenodd" d="M97.6538 11.1407L88.0947 33.1115L64.2266 35.4378L82.1729 51.3781L77.0129 74.8077L97.6538 62.6515L118.295 74.8077L113.135 51.3781L131.082 35.4378L107.213 33.1115L97.6538 11.1407Z" fill="#515151"/>
</g>
<g id="g112">
<path id="path114" fill-rule="evenodd" clip-rule="evenodd" d="M97.9226 24.1641L97.3043 45.1412L76.5625 39.3678L96.7356 46.8562L84.9341 63.9608L97.9752 47.7216L110.513 63.5643L99.264 46.7582L118.287 39.9128L98.8459 45.2891L97.9226 24.1641Z" fill="#F6CA00"/>
</g>
<g id="g116">
<path id="path118" fill-rule="evenodd" clip-rule="evenodd" d="M60.25 240.01C65.7812 244.626 70.6827 249.578 76.9284 253.904C78.1301 254.736 78.3791 255.332 79.862 254.836C84.4065 253.316 91.7502 252.188 97.5939 252.155C103.623 252.12 109.854 253.177 115.783 254.836C117.505 255.317 118.201 254.565 119.514 253.571C125.159 249.301 130.285 244.377 135.694 239.811C132.85 239.819 130.399 239.756 127.668 239.204C119.087 237.472 110.331 234.403 97.7662 234.544C85.2015 234.685 74.3919 238.05 67.4625 239.334C64.5951 239.865 62.1477 240.325 60.25 240.01Z" fill="#515151"/>
</g>
<g id="g120">
<path id="path122" fill-rule="evenodd" clip-rule="evenodd" d="M29.6348 86.2184C42.3681 81.2676 54.664 75.2206 66.7306 68.8477C69.6349 67.3136 72.527 65.7569 75.4105 64.1841L77.9308 52.7413L75.517 50.5974C72.4522 52.1654 69.4077 53.7504 66.3835 55.3227C56.4755 60.4741 46.5419 65.7861 36.3843 70.4289C34.1258 71.4611 31.4042 72.6802 28.5273 73.823C23.8484 75.6802 19.2429 77.2572 14.6094 77.9428C14.6946 87.9866 15.1823 97.7258 15.9536 107.739C16.0743 109.3 16.2017 110.859 16.3329 112.418C17.187 113.997 18.1165 115.525 19.1363 116.95C21.1131 115.473 23.2144 114.279 25.2887 113.556L27.0184 112.954L26.4246 114.677C25.0241 118.746 24.8015 125.773 25.7419 129.969C26.4682 133.211 27.1183 136.936 26.7935 140.258C26.7617 140.587 26.7224 140.914 26.676 141.243C28.6249 140.076 30.6637 139.164 32.667 138.626C29.3384 122.701 28.4208 106.225 27.195 90.0773L26.9805 87.2506L29.6348 86.2184ZM75.2074 236.755C76.9128 236.365 78.6212 235.982 80.3333 235.642C82.7542 235.162 85.1798 234.746 87.6163 234.421C63.5114 211.018 43.9439 179.987 34.9866 148.146C34.3512 145.886 33.7768 143.611 33.256 141.323C31.9303 145.266 31.3318 150.743 31.855 154.484C32.0946 156.198 32.3038 158.04 32.3644 159.876C32.9435 159.39 33.5505 158.929 34.1864 158.496L35.5245 157.583L35.5784 159.196C35.7266 163.619 36.5245 169.458 38.0225 173.615C38.4927 174.919 39.059 176.174 39.6428 177.419C40.2171 177.865 40.747 178.347 41.229 178.877C42.5055 180.28 43.2829 182.111 44.21 184.465C45.0964 186.713 46.9789 191.612 47.8217 193.975L50.0935 190.426L50.4936 192.584C51.2464 196.637 52.923 202.152 54.8472 205.711C56.3557 208.501 58.3912 210.897 59.9182 213.633C61.4097 216.307 62.5025 219.199 62.9508 222.202C66.2889 224.256 69.018 226.692 71.786 229.621C72.8509 230.748 74.2353 234.12 75.2074 236.755ZM89.8943 253.578C92.5282 255.828 95.1911 258.048 97.8871 260.21C100.664 258.081 103.393 255.891 106.083 253.654C103.266 253.246 100.426 253.023 97.6049 253.039C95.2527 253.052 92.5799 253.235 89.8943 253.578ZM120.648 236.704C120.785 234.49 120.86 231.832 122.289 230.209C123.702 228.607 126.003 229.823 126.708 229.19C126.987 228.94 127.298 226.964 127.38 226.553C127.719 224.841 128.214 223.176 129.375 221.82C130.529 220.475 132.166 221.147 133.533 221.089C133.289 219.523 133.184 217.983 133.466 216.892C133.804 215.591 135.258 215.312 135.697 214.544C136.12 213.801 135.007 210.384 135.137 209.142C135.211 208.437 135.497 207.812 136.09 207.396C137.099 206.689 138.059 207.012 139.04 206.696C139.749 206.468 139.132 204.787 140.661 204.041C141.149 203.799 141.853 203.773 142.196 204.088C142.315 204.197 142.428 204.274 142.532 204.321L142.571 204.276C142.845 203.965 143.153 203.761 143.475 203.627L144.076 202.324C144.328 201.356 144.717 200.389 145.162 199.422C146.319 196.849 147.415 194.24 148.51 191.64C149.929 188.269 151.298 184.823 152.787 181.486C154.799 176.978 157.456 175.778 161.487 174.125C161.414 173.309 161.399 172.632 161.485 172.252C161.884 170.507 163.671 170.445 164.463 169.36C164.985 168.643 164.205 167.205 163.914 166.511C162.961 164.244 162.074 161.856 162.861 159.399C162.943 158.756 163.177 158.106 163.843 157.857C164.69 157.541 165.459 158.201 165.938 158.047C166.347 157.911 166.778 157.732 167.199 157.561C167.172 156.325 167.323 155.126 167.903 154.142C168.986 152.303 171.477 153.066 172.049 152.312C172.276 152.014 172.207 150.016 172.209 149.596C172.213 148.773 172.254 147.953 172.388 147.154C172.032 146.505 171.764 145.881 171.643 145.318C171.36 144.011 172.532 143.113 172.579 142.225C172.623 141.372 170.089 138.813 169.646 137.644C169.395 136.982 169.369 136.294 169.712 135.658C170.102 134.937 170.679 134.634 171.238 134.299C171.096 133.2 171.122 132.123 171.519 131.171C172.111 129.753 173.613 129.573 174.579 129.275C174.648 128.782 174.619 128.148 174.575 127.825C174.475 127.07 174.713 126.331 175 125.632C173.903 124.769 173.026 123.651 171.974 122.658C171.722 122.421 171.043 121.868 170.851 121.592C170.673 121.336 170.509 120.998 170.325 120.72C169.253 119.104 170.432 117.085 171.824 116.105C172.129 115.89 172.551 115.407 172.591 115.021C172.657 114.382 171.741 113.126 171.405 112.591C171.051 112.027 170.713 111.435 170.511 110.796C170.16 109.681 170.468 108.329 171.042 107.339C171.826 105.984 173.123 105.14 174.656 104.868C174.911 104.425 174.764 103.428 175.446 102.785C175.97 102.291 176.577 102.034 177.296 101.997C177.483 101.987 177.81 102.019 178.042 102.02C178.06 101.848 178.053 101.615 178.048 101.513C178.011 100.662 178.289 99.5796 178.665 98.8191C179.115 97.908 179.864 96.0508 180.768 95.5159C180.921 89.5692 180.99 83.6196 181.175 77.6701C173.976 76.5739 166.382 73.557 159.812 70.6253C151.248 66.8036 142.904 62.3703 134.628 57.9685C129.802 55.4018 124.98 52.8171 120.119 50.3125L117.385 52.7413L119.907 64.1907C122.024 65.3161 124.143 66.4382 126.264 67.5537C133.297 71.2544 140.359 74.907 147.534 78.3293C153.575 81.2111 159.718 83.9916 166.056 86.1647L168.805 87.1065L168.649 89.993C167.605 109.396 165.718 128.976 160.458 147.751C150.949 181.687 132.494 209.327 108.622 234.336C110.542 234.593 112.461 234.918 114.392 235.304C116.489 235.723 118.57 236.21 120.648 236.704Z" fill="#515151"/>
</g>
<g id="g124">
<path id="path126" fill-rule="evenodd" clip-rule="evenodd" d="M31.9688 90.3729C33.3807 109.1 34.4512 128.751 39.5492 146.875C48.6377 179.184 69.0196 210.714 93.8276 233.804C95.1335 233.722 96.4427 233.673 97.7566 233.658C99.3834 233.64 100.992 233.676 102.59 233.764C127.228 208.562 146.249 180.868 155.883 146.485C160.978 128.302 162.84 109.204 163.871 90.4044C157.617 88.2167 151.443 85.4286 145.478 82.5831C138.25 79.1344 131.126 75.4512 124.04 71.7228C123.105 71.2307 122.169 70.7377 121.235 70.2438L123.954 82.5907L97.6524 67.1016L71.3505 82.5907L74.0607 70.2857C72.3609 71.202 70.6578 72.1108 68.95 73.013C56.9425 79.3557 44.6273 85.4108 31.9688 90.3729Z" fill="#515151"/>
</g>
<g id="g128">
<path id="path130" fill-rule="evenodd" clip-rule="evenodd" d="M31.9688 90.3729C33.3807 109.1 34.4512 128.751 39.5492 146.875C43.6434 161.429 50.0302 175.826 58.0803 189.364L58.0803 78.6118C49.5363 82.884 40.8375 86.8964 31.9688 90.3729ZM84.8542 224.879C87.769 227.973 90.7647 230.953 93.8276 233.804C95.1335 233.722 96.4427 233.673 97.7566 233.658C99.3834 233.64 100.992 233.676 102.59 233.764C105.282 231.011 107.906 228.227 110.459 225.409L110.459 74.6432L97.6524 67.1016L84.8542 74.6385L84.8542 224.879ZM137.233 189.698C145.159 176.416 151.495 162.145 155.883 146.485C160.978 128.302 162.84 109.204 163.871 90.4044C157.617 88.2167 151.443 85.4286 145.478 82.5831C142.715 81.2651 139.968 79.9137 137.233 78.5378L137.233 189.698Z" fill="#293484"/>
</g>
<g id="g132">
<path id="path134" fill-rule="evenodd" clip-rule="evenodd" d="M76.8658 57.5592L52.3433 70.1184C48.4423 72.0872 44.527 74.03 40.5583 75.8599C35.0385 78.4045 29.1829 80.894 23.3146 82.512L22.8857 82.6297L22.6484 81.7774L23.0769 81.6592C28.897 80.0554 34.7094 77.5809 40.1843 75.0565C44.143 73.2314 48.0483 71.2942 51.938 69.3307L77.1125 56.4375L76.8658 57.5592Z" fill="#F6CA00"/>
</g>
<g id="g136">
<path id="path138" fill-rule="evenodd" clip-rule="evenodd" d="M118.102 55.9922L144.145 69.3303C148.036 71.2944 151.941 73.2316 155.9 75.0567C161.374 77.5811 167.187 80.0555 173.008 81.6593L173.436 81.7775L173.199 82.6298L172.77 82.5121C166.901 80.8942 161.046 78.4046 155.526 75.86C151.558 74.0302 147.642 72.0873 143.74 70.1181L118.348 57.1139L118.102 55.9922Z" fill="#F6CA00"/>
</g>
<g id="g140">
<path id="path142" fill-rule="evenodd" clip-rule="evenodd" d="M21.392 84.2317C21.4489 94.3307 22.3513 104.349 23.2869 114.387C23.0019 114.525 22.7178 114.67 22.4346 114.823C21.4848 104.641 20.5601 94.4804 20.5024 84.236L20.5 83.7938L21.3897 83.7891L21.392 84.2317Z" fill="#F6CA00"/>
</g>
<g id="g144">
<path id="path146" fill-rule="evenodd" clip-rule="evenodd" d="M175.505 84.236C175.466 91.1527 175.033 98.0299 174.462 104.902C174.145 104.97 173.839 105.062 173.547 105.179C174.13 98.2131 174.576 91.2417 174.616 84.2317L174.618 83.7891L175.508 83.7938L175.505 84.236Z" fill="#F6CA00"/>
</g>
<g id="g148">
<path id="path150" fill-rule="evenodd" clip-rule="evenodd" d="M165.287 156.697L164.887 157.852C164.6 157.776 164.286 157.729 163.959 157.818L164.445 156.411L164.59 155.992L165.43 156.279L165.287 156.697ZM162.857 163.564C161.37 167.632 159.799 171.673 158.091 175.653C157.63 175.899 157.193 176.159 156.778 176.445C158.887 171.625 160.784 166.709 162.565 161.76C162.598 162.366 162.703 162.969 162.857 163.564ZM144.699 200.478C143.918 201.723 143.123 202.961 142.313 204.188C142.274 204.157 142.233 204.125 142.192 204.088C142.018 203.928 141.753 203.856 141.468 203.856C143.532 200.737 145.496 197.555 147.374 194.323C146.65 196.029 145.917 197.734 145.158 199.422C144.996 199.774 144.842 200.126 144.699 200.478ZM135.756 213.462C129.914 221.269 123.638 228.696 117.02 235.862C116.686 235.788 116.351 235.714 116.016 235.642C122.938 228.169 129.489 220.413 135.563 212.237C135.644 212.675 135.717 213.096 135.756 213.462Z" fill="#F6CA00"/>
</g>
<g id="g152">
<path id="path154" fill-rule="evenodd" clip-rule="evenodd" d="M32.3125 158.898L32.5895 159.687C32.5118 159.75 32.4356 159.814 32.3594 159.879C32.348 159.553 32.3319 159.225 32.3125 158.898ZM46.9009 191.491C47.2906 192.185 47.6836 192.876 48.0808 193.566L47.8166 193.978C47.5794 193.312 47.2584 192.443 46.9009 191.491ZM53.0959 201.818C54.7342 204.367 56.4359 206.877 58.2081 209.338C64.8904 218.614 72.1862 227.345 79.9494 235.72C79.6109 235.789 79.2728 235.859 78.9347 235.93C71.2814 227.647 64.0845 219.015 57.4856 209.852L57.3355 209.644C56.4586 208.371 55.586 207.091 54.8421 205.714C54.228 204.578 53.6381 203.241 53.0959 201.818Z" fill="#F6CA00"/>
</g>
<g id="g156">
<path id="path158" fill-rule="evenodd" clip-rule="evenodd" d="M21.4884 79.5235C23.5049 79.5235 25.1413 81.1504 25.1413 83.1558C25.1413 85.1618 23.5049 86.7887 21.4884 86.7887C19.4713 86.7887 17.8359 85.1618 17.8359 83.1558C17.8359 81.1504 19.4713 79.5235 21.4884 79.5235Z" fill="#161413"/>
</g>
<g id="g160">
<path id="path162" fill-rule="evenodd" clip-rule="evenodd" d="M21.4898 80.4141C23.0154 80.4141 24.253 81.645 24.253 83.1621C24.253 84.6798 23.0154 85.9102 21.4898 85.9102C19.9638 85.9102 18.7266 84.6798 18.7266 83.1621C18.7266 81.645 19.9638 80.4141 21.4898 80.4141Z" fill="#F6CA00"/>
</g>
<g id="g164">
<path id="path166" fill-rule="evenodd" clip-rule="evenodd" d="M51.9888 66.1485C54.0054 66.1485 55.6413 67.7758 55.6413 69.7813C55.6413 71.7868 54.0054 73.4137 51.9888 73.4137C49.9718 73.4137 48.3359 71.7868 48.3359 69.7813C48.3359 67.7758 49.9718 66.1485 51.9888 66.1485Z" fill="#161413"/>
</g>
<g id="g168">
<path id="path170" fill-rule="evenodd" clip-rule="evenodd" d="M51.9898 67.0313C53.5149 67.0313 54.7526 68.2622 54.7526 69.7793C54.7526 71.2965 53.5149 72.5274 51.9898 72.5274C50.4638 72.5274 49.2266 71.2965 49.2266 69.7793C49.2266 68.2622 50.4638 67.0313 51.9898 67.0313Z" fill="#F6CA00"/>
</g>
<g id="g172">
<path id="path174" fill-rule="evenodd" clip-rule="evenodd" d="M174.527 79.5235C176.544 79.5235 178.179 81.1504 178.179 83.1558C178.179 85.1618 176.544 86.7887 174.527 86.7887C172.51 86.7887 170.875 85.1618 170.875 83.1558C170.875 81.1504 172.51 79.5235 174.527 79.5235Z" fill="#161413"/>
</g>
<g id="g176">
<path id="path178" fill-rule="evenodd" clip-rule="evenodd" d="M174.529 80.4141C176.054 80.4141 177.292 81.645 177.292 83.1621C177.292 84.6798 176.054 85.9102 174.529 85.9102C173.003 85.9102 171.766 84.6798 171.766 83.1621C171.766 81.645 173.003 80.4141 174.529 80.4141Z" fill="#F6CA00"/>
</g>
<g id="g180">
<path id="path182" fill-rule="evenodd" clip-rule="evenodd" d="M143.957 66.1485C145.974 66.1485 147.61 67.7758 147.61 69.7813C147.61 71.7868 145.974 73.4137 143.957 73.4137C141.941 73.4137 140.305 71.7868 140.305 69.7813C140.305 67.7758 141.941 66.1485 143.957 66.1485Z" fill="#161413"/>
</g>
<g id="g184">
<path id="path186" fill-rule="evenodd" clip-rule="evenodd" d="M143.951 67.0313C145.477 67.0313 146.714 68.2622 146.714 69.7793C146.714 71.2965 145.477 72.5274 143.951 72.5274C142.426 72.5274 141.188 71.2965 141.188 69.7793C141.188 68.2622 142.426 67.0313 143.951 67.0313Z" fill="#F6CA00"/>
</g>
<g id="g188">
<path id="path190" fill-rule="evenodd" clip-rule="evenodd" d="M46.0042 89.6881L62.184 86.0247L63.7048 90.8733L71.4458 84.5405L88.6322 83.2969L99.9578 91.8358L99.089 133.402L99.8399 144.803L90.2619 154.538L70.3842 155.43L66.0239 151.723L65.2721 163.929L46.0047 165.843L40.635 159.048L31.1668 160.916L13.3828 152.171L30.9854 93.1712L46.0042 89.6881Z" fill="#161413"/>
</g>
<g id="g192">
<path id="path194" fill-rule="evenodd" clip-rule="evenodd" d="M33.0574 133.579L37.9281 132.85L47.4933 91.1616L60.5008 88.2167L53.285 130.772L55.704 130.617L61.364 95.1339L71.9055 86.3398L88.0872 85.1094L97.5985 92.449L97.5843 106.522L82.2388 106.605L82.4045 96.9751L76.0509 97.2713L72.5125 129.322L81.5844 128.941L82.4178 114.514L97.7045 114.013L97.3305 132.526L85.8476 141.538L64.8204 142.926L57.275 136.603L54.953 154.072L39.634 155.283L41.0265 145.667L15.8984 149.944L32.3088 94.5251L43.5398 92.0648L33.0574 133.579Z" fill="#F6CA00"/>
</g>
<g id="g196">
<path id="path198" fill-rule="evenodd" clip-rule="evenodd" d="M33.3602 95.6716L17.7813 148.282L42.6073 144.056L41.1911 153.832L53.7705 152.838L56.27 134.031L65.2671 141.571L85.3446 140.245L96.0078 131.877L96.3416 115.39L83.6779 115.804L82.8456 130.22L71.0152 130.717L74.8475 96.0027L83.8451 95.5883L83.6779 105.033L96.1745 105.033L96.2578 93.2687L87.5936 86.6406L72.2651 87.8004L62.6014 95.8369L56.8529 131.877L51.6877 132.209L58.8524 89.9547L48.6053 92.2747L39.0249 134.031L31.2774 135.191L41.6073 94.0141L33.3602 95.6716Z" fill="white"/>
</g>
<g id="g200">
<path id="path202" fill-rule="evenodd" clip-rule="evenodd" d="M117.151 95.5708L121.902 84.0621L139.642 87.2127L137.609 93.014L143.429 88.1908L164.785 94.1342L183.411 152.605L168.293 161.216L145.264 157.609L122.784 155.202L119.356 149.248L118.658 155.01L96.7734 154.377L97.6034 83.086L116.349 83.822L117.151 95.5708Z" fill="#161413"/>
</g>
<g id="g204">
<path id="path206" fill-rule="evenodd" clip-rule="evenodd" d="M115.892 103.277L123.001 86.0575L137.274 88.5927L129.303 111.339L143.753 134.708L136.714 96.0599L143.848 90.1475L163.379 95.5824L180.787 150.231L166.978 147.251L164.258 136.35L159.297 135.92L161.318 146.557L146.672 144.382L130.692 143L117.191 119.712L118.594 142.101L100.193 141.712L99.4062 84.9297L114.681 85.5296L115.892 103.277ZM150.828 101.885L155.828 122.569L161.282 123.321L155.175 103.128L150.828 101.885Z" fill="#F6CA00"/>
</g>
<g id="g208">
<path id="path210" fill-rule="evenodd" clip-rule="evenodd" d="M100.758 86.3047L101.507 140.406L117.17 140.737L115.503 114.143L131.499 141.732L146.827 143.057L159.656 144.963L157.657 134.441L165.322 135.104L168.071 146.123L178.818 148.443L162.323 96.6612L144.161 91.6073L138.163 96.5783L146.328 141.401L127.833 111.491L135.497 89.6188L123.834 87.5474L115.086 109.586L113.421 86.802L100.758 86.3047ZM148.993 99.9753L154.741 123.753L163.156 124.913L156.241 102.047L148.993 99.9753Z" fill="white"/>
</g>
<g id="g212">
<path id="path214" fill-rule="evenodd" clip-rule="evenodd" d="M97.9285 157.336C114.796 157.336 128.475 170.94 128.475 187.714C128.475 204.488 114.796 218.092 97.9285 218.093C81.0612 218.093 67.3828 204.488 67.3828 187.714C67.3828 170.94 81.0612 157.336 97.9285 157.336Z" fill="white"/>
</g>
<g id="g216">
<path id="path218" fill-rule="evenodd" clip-rule="evenodd" d="M97.9282 156.898C115.041 156.898 128.919 170.7 128.919 187.719C128.919 204.738 115.041 218.539 97.9282 218.539C80.8157 218.539 66.9375 204.738 66.9375 187.719C66.9375 170.7 80.8157 156.898 97.9282 156.898ZM119.412 181.133L108.299 185.045C107.859 188.933 106.668 192.704 104.582 196.333L111.424 205.699C114.304 205.6 117.316 204.59 120.214 202.525C122.884 198.559 124.513 193.841 124.709 188.758C123.621 185.497 121.797 182.884 119.412 181.133ZM108.067 184.345L119.144 180.445C119.99 177.675 120.059 174.629 118.974 171.22C115.943 167.4 111.885 164.425 107.212 162.709C103.766 162.728 100.709 163.638 98.299 165.342L98.299 177.346C101.928 178.952 105.207 181.239 108.067 184.345ZM110.747 206.026L103.916 196.675C100.164 197.423 96.3009 197.462 92.3033 196.66L85.4009 206.379C86.4089 209.029 88.1769 211.444 91.0377 213.48C93.237 214.061 95.5452 214.373 97.9282 214.373C100.45 214.373 102.889 214.025 105.202 213.377C108.012 211.326 109.837 208.872 110.747 206.026ZM84.9085 205.795L91.674 196.269C89.7124 192.847 88.435 189.077 87.9776 184.892L76.4928 181.18C74.1586 182.93 72.2926 185.358 71.1501 188.764C71.3532 193.987 73.0691 198.825 75.8726 202.856C78.7731 204.86 81.8815 205.865 84.9085 205.795ZM76.6443 180.455L88.3313 184.231C90.8833 181.482 93.9287 179.223 97.5575 177.545L97.5575 165.424C95.1593 163.753 92.2526 162.737 88.6333 162.713C83.962 164.432 79.9057 167.407 76.8749 171.228C75.8347 174.487 75.7622 177.654 76.6443 180.455ZM119.384 170.55C121.007 170.972 122.509 171.604 123.853 172.5C119.712 165.539 112.818 160.39 104.662 158.536C105.894 159.634 107.043 160.875 107.83 162.154C112.392 163.903 116.367 166.826 119.384 170.55ZM127.914 185.077C127.243 186.582 126.411 188.051 125.43 189.191C125.165 194.165 123.563 198.786 120.978 202.71C121.075 204.369 120.936 205.979 120.497 207.521C125.183 202.244 128.03 195.312 128.03 187.719C128.03 186.829 127.99 185.946 127.914 185.077ZM109.728 215.265C108.082 215.097 106.418 214.764 105.025 214.189C102.76 214.788 100.382 215.109 97.9282 215.109C95.5679 215.109 93.2782 214.812 91.0926 214.257C89.5396 214.885 87.9586 215.273 86.3436 215.355C89.9103 216.835 93.8227 217.655 97.9282 217.655C102.117 217.655 106.105 216.803 109.728 215.265ZM75.517 207.698C75.1477 206.096 74.9294 204.427 75.0274 202.933C72.3323 198.93 70.6685 194.181 70.42 189.063C69.3584 187.774 68.5185 186.389 67.9621 184.88C67.8741 185.815 67.8267 186.762 67.8267 187.719C67.8267 195.397 70.7372 202.399 75.517 207.698ZM72.1089 172.328C73.5416 171.502 75.0852 170.798 76.5525 170.45C79.5861 166.741 83.5751 163.837 88.1466 162.108C89.0514 160.707 90.1191 159.485 91.3909 158.493C83.2177 160.294 76.2944 165.4 72.1089 172.328Z" fill="#161413"/>
</g>
<g id="g220">
<path id="path222" d="M98.7933 249L98.7933 247.196L100.182 247.193C101.028 247.191 101.766 246.825 101.766 245.635L101.766 241.683C101.766 240.665 100.825 240.187 99.9528 240.187L98.7791 240.187L98.7791 238.414L97.1531 238.414L97.1531 240.187L95.9557 240.187C95.1096 240.187 94.1641 240.66 94.1641 241.683C94.1641 243.084 94.1641 244.274 94.1641 245.675C94.1641 246.835 94.9661 247.196 95.8227 247.196L97.1531 247.196L97.1531 249L98.7933 249ZM98.7933 246.254L98.7933 241.138L99.3823 241.135C99.8103 241.133 100.127 241.176 100.127 241.884L100.127 245.685C100.127 246.127 99.834 246.247 99.5466 246.249L98.7933 246.254ZM97.1531 241.138L97.1531 246.254L96.4567 246.255C96.0802 246.255 95.8042 246.046 95.8042 245.685L95.8042 241.806C95.8042 241.296 96.0608 241.138 96.4581 241.138L97.1531 241.138Z" fill="#F6CA00"/>
</g>
<g id="g224">
<path id="path226" fill-rule="evenodd" clip-rule="evenodd" d="M22.1719 176.346C22.7457 176.225 23.3518 176.073 23.7069 175.141L24.7774 175.293L27.4469 185.865L25.7486 185.638L23.714 177.311L22.4067 177.325L22.1719 176.346Z" fill="#F6CA00"/>
</g>
<g id="g228">
<path id="path230" fill-rule="evenodd" clip-rule="evenodd" d="M169.763 176.908C170.465 176.686 171.249 176.35 172.081 175.139L173.136 174.938L169.988 185.413L168.391 185.737L170.703 177.68L169.434 177.975L169.763 176.908Z" fill="#F6CA00"/>
</g>
<g id="g232">
<path id="path234" fill-rule="evenodd" clip-rule="evenodd" d="M162.557 179.594C163.261 179.373 164.046 179.037 164.884 177.825L165.94 177.625L162.74 188.101L161.141 188.424L163.494 180.367L162.223 180.662L162.557 179.594Z" fill="#F6CA00"/>
</g>
<g id="g236">
<path id="path238" fill-rule="evenodd" clip-rule="evenodd" d="M34.4001 180.332L36.0933 186.819C36.4621 188.23 35.6984 188.73 34.8021 188.63L34.1146 188.554C32.7884 188.406 31.9503 187.108 31.7964 186.486L31.5725 185.581L33.2031 185.917L33.4252 186.805C33.4953 187.087 33.8059 187.454 34.2173 187.527C34.5284 187.581 34.7855 187.475 34.6529 186.95L34.0606 184.599C33.8111 184.68 33.4702 184.663 33.0947 184.615C31.7174 184.44 31.1487 183.758 30.8348 182.432L30.1099 179.377C29.7837 178.001 30.5147 177.612 31.5228 177.699L31.9683 177.738C33.3736 177.859 34.0488 178.985 34.4001 180.332ZM33.6681 183.215L32.6676 179.553C32.5772 179.218 32.3992 178.883 31.9266 178.809C31.3954 178.726 31.5157 179.196 31.59 179.481L32.5052 183.011C32.6089 183.41 32.9053 183.603 33.1676 183.648C33.385 183.686 33.8385 183.839 33.6681 183.215Z" fill="#F6CA00"/>
</g>
<g id="g240">
<path id="path242" fill-rule="evenodd" clip-rule="evenodd" d="M89.0984 239.203L90.7717 249.488L89.1235 249.635L87.6245 240.427L85.7471 240.59L87.2509 249.815L85.6027 249.963L83.9219 239.657L89.0984 239.203Z" fill="#F6CA00"/>
</g>
<g id="g244">
<path id="path246" fill-rule="evenodd" clip-rule="evenodd" d="M108.393 239.089L106.741 238.906L105.281 249.366L106.934 249.549L107.694 244.101L108.943 249.74L110.595 249.924L109.293 244.175L112.117 239.588L110.465 239.405L107.71 243.983L108.393 239.089Z" fill="#F6CA00"/>
</g>
</g>
</g>
<defs>
<clipPath id="clip1_0_1">
<rect width="196.823" height="266.955" fill="white"/>
</clipPath>
</defs>
</svg>
