<svg width="204" height="29" viewBox="0 0 204 29" fill="none" xmlns="http://www.w3.org/2000/svg">
<path d="M47.2507 29H44.071V25.3427H35.2631V29H32.0834V22.5441H33.1327C33.4719 21.8656 33.7475 21.0599 33.9595 20.1271C34.1714 19.173 34.341 18.1659 34.4682 17.1058C34.5954 16.0457 34.6802 14.9644 34.7226 13.862C34.765 12.7595 34.7862 11.71 34.7862 10.7135V9.34599H45.5655V22.5441H47.2507V29ZM10.8429 6.22933H9.12581C7.53595 6.22933 6.33825 6.58976 5.53272 7.31062C4.72719 8.03148 4.32443 8.98556 4.32443 10.1729C4.32443 10.8513 4.39862 11.445 4.54701 11.9538C4.69539 12.4414 4.90738 12.8973 5.18295 13.3213C5.47973 13.7453 5.8401 14.1482 6.26406 14.5298C6.70922 14.8902 7.22858 15.2719 7.82212 15.6747L9.76176 16.9786L4.16544 25.3427H0L5.02397 17.8691C4.30323 17.3602 3.65668 16.8408 3.08433 16.3108C2.53318 15.7807 2.06682 15.2189 1.68525 14.6252C1.30369 14.0316 1.00691 13.3955 0.794931 12.7171C0.604148 12.0174 0.508756 11.2435 0.508756 10.3955C0.508756 9.33539 0.68894 8.37071 1.04931 7.50144C1.43088 6.61096 1.98203 5.8583 2.70277 5.24345C3.4235 4.6074 4.31383 4.11976 5.37374 3.78053C6.45484 3.4201 7.69493 3.23989 9.09401 3.23989H14.6903V25.3427H10.8429V6.22933ZM52.0839 18.6005C52.1475 20.0423 52.4867 21.113 53.1014 21.8126C53.7162 22.5123 54.7549 22.8621 56.2175 22.8621C57.1079 22.8621 57.9876 22.7137 58.8567 22.4169C59.747 22.0988 60.4784 21.749 61.0507 21.3674V24.2614C60.4996 24.643 59.8 24.9717 58.9521 25.2473C58.1042 25.5229 57.0867 25.6607 55.8996 25.6607C53.5254 25.6607 51.6917 24.9823 50.3986 23.6254C49.1268 22.2684 48.4908 20.1907 48.4908 17.392C48.4908 16.1835 48.618 15.0705 48.8724 14.0528C49.148 13.0351 49.5613 12.1552 50.1125 11.4132C50.6636 10.6499 51.3526 10.0668 52.1793 9.66402C53.0272 9.23998 54.0129 9.02796 55.1364 9.02796C56.048 9.02796 56.8747 9.16578 57.6166 9.4414C58.3798 9.71702 59.0263 10.1623 59.5563 10.7771C60.0862 11.392 60.489 12.187 60.7645 13.1623C61.0613 14.1164 61.2097 15.2931 61.2097 16.6924V18.6005H52.0839ZM30.1756 9.34599V25.3427H26.7097V18.5687H21.336V25.3427H17.8701V9.34599H21.336V15.7701H26.7097V9.34599H30.1756ZM67.5374 17.2966V25.3427H64.0715V9.34599H67.5374V17.074L73.1337 9.34599H76.7586L71.3212 16.8514L77.4581 25.3427H73.3881L67.5374 17.2966ZM84.8669 25.6607C82.3655 25.6607 80.5106 24.9505 79.3023 23.53C78.1152 22.1094 77.5217 20.0529 77.5217 17.3602C77.5217 16.1517 77.6701 15.0387 77.9669 14.021C78.2848 12.9821 78.7406 12.1022 79.3341 11.3814C79.9489 10.6393 80.7014 10.0668 81.5917 9.66402C82.4821 9.23998 83.5208 9.02796 84.7079 9.02796C85.6194 9.02796 86.4037 9.10217 87.0609 9.25058C87.718 9.37779 88.2374 9.55801 88.6189 9.79123V12.8443C88.2586 12.6111 87.7604 12.3884 87.1245 12.1764C86.4885 11.9644 85.8208 11.8584 85.1212 11.8584C83.8282 11.8584 82.8318 12.3142 82.1323 13.2259C81.454 14.1164 81.1148 15.4627 81.1148 17.2648C81.1148 18.9822 81.4222 20.3391 82.0369 21.3356C82.6517 22.3321 83.6692 22.8303 85.0894 22.8303C85.8526 22.8303 86.5097 22.7349 87.0609 22.5441C87.6332 22.3321 88.1526 22.067 88.6189 21.749V24.6748C88.1738 24.9929 87.6438 25.2367 87.0291 25.4063C86.4355 25.5759 85.7148 25.6607 84.8669 25.6607ZM42.0996 12.1446H37.8387V12.8125C37.8387 13.5121 37.8175 14.2966 37.7751 15.1659C37.7327 16.0351 37.6585 16.915 37.5526 17.8055C37.4466 18.696 37.2982 19.5546 37.1074 20.3815C36.9378 21.2084 36.7152 21.9292 36.4397 22.5441H42.0996V12.1446ZM55.0728 11.8266C54.0977 11.8266 53.3664 12.187 52.8788 12.9079C52.3913 13.6075 52.1263 14.6358 52.0839 15.9927H57.6802V15.5793C57.6802 15.0493 57.6378 14.5616 57.553 14.1164C57.4682 13.6499 57.3198 13.2471 57.1079 12.9079C56.9171 12.5687 56.6521 12.3036 56.3129 12.1128C55.995 11.922 55.5816 11.8266 55.0728 11.8266Z" fill="#22201F"/>
<path fill-rule="evenodd" clip-rule="evenodd" d="M113.93 19.1176C112.639 21.2825 110.634 22.2367 108.526 22.2367C104.311 22.2367 101.172 19.2725 101.172 14.8248V14.6049C101.172 14.3955 101.181 14.2026 101.195 14.0008L119.365 14.029V0.0244593L108.511 7.86048L97.713 0V28.8211H119.365V22.2363C117.269 22.2287 115.36 21.2739 113.93 19.1176Z" fill="#22201F"/>
<path fill-rule="evenodd" clip-rule="evenodd" d="M108.527 19.8212C110.65 19.8212 111.949 18.7239 112.12 16.252H104.406C104.744 18.4777 106.463 19.8212 108.527 19.8212Z" fill="#22201F"/>
<path fill-rule="evenodd" clip-rule="evenodd" d="M115.742 16.252H123.548C123.211 18.4777 121.398 19.8212 119.334 19.8212C117.212 19.8212 115.913 18.7239 115.742 16.252Z" fill="#22201F"/>
<path d="M194.842 9.34599V19.2684L200.629 9.34599H204V25.3427H200.343V15.4521L194.556 25.3427H191.186V9.34599H194.842Z" fill="#22201F"/>
<path d="M188.958 9.34599V12.3354H183.108V25.3427H179.324V9.34599H188.958Z" fill="#22201F"/>
<path d="M166.989 9.34599V19.2684L172.776 9.34599H176.146V25.3427H172.49V15.4521L166.703 25.3427H163.332V9.34599H166.989Z" fill="#22201F"/>
<path d="M160.15 9.34599V25.3427H156.366V18.6642H151.31V25.3427H147.527V9.34599H151.31V15.6747H156.366V9.34599H160.15Z" fill="#22201F"/>
<path d="M134.451 14.9751V25.3427H130.603V3.23989H134.451V13.4167L141.287 3.23989H145.198L138.076 13.7666L145.93 25.3427H141.446L134.451 14.9751Z" fill="#22201F"/>
</svg>
