<svg width="132" height="53" viewBox="0 0 132 53" fill="none" xmlns="http://www.w3.org/2000/svg">
<path d="M122.247 36.2969C121.687 36.3413 121.262 36.8303 121.257 37.3706C121.152 38.9834 121.249 40.6067 121.212 42.2149C121.232 42.9902 121.147 43.7908 121.331 44.5415C121.531 45.0856 122.18 45.4055 122.745 45.2601C125.097 44.9722 127.44 44.6873 129.794 44.4089C130.125 44.3784 130.48 44.2922 130.722 44.0348C131.126 43.6837 131.052 43.0823 131.093 42.6032C131.098 40.9957 131.082 39.3885 131.098 37.7802C131.082 37.2024 131.13 36.6091 130.96 36.0525C130.774 35.5807 130.244 35.3227 129.751 35.3661C127.25 35.6865 124.748 35.9767 122.247 36.2969ZM36.3817 28.0723C36.067 28.1015 35.7306 28.1937 35.4886 28.4159C35.2396 28.6817 35.113 29.0621 35.1525 29.4276C35.1403 31.3549 35.1591 33.2847 35.1445 35.2071C34.4152 35.3363 33.6827 35.4215 32.9445 35.4804C32.9344 33.8904 32.9445 32.3005 32.9445 30.7143C32.9278 30.1744 32.9879 29.5866 32.6874 29.0991C32.3587 28.6723 31.7905 28.589 31.2808 28.6974C28.9901 28.9696 26.6951 29.2662 24.399 29.5275C23.974 29.5815 23.4876 29.5941 23.1774 29.9292C22.776 30.2802 22.8223 30.8737 22.8011 31.3549C22.8124 37.8879 22.8124 44.4215 22.8011 50.9558C22.8287 51.5119 22.7627 52.114 23.0859 52.6099C23.2858 52.7762 23.5109 52.9663 23.7853 52.9967C24.399 53.0208 25.0025 52.9075 25.6125 52.8371C27.5745 52.6028 29.5429 52.3497 31.51 52.1285C31.9329 52.0898 32.403 52.008 32.6621 51.6494C32.9721 51.2837 32.9192 50.7588 32.9445 50.3193C32.9445 48.3854 32.9344 46.4544 32.9445 44.5295C33.6782 44.4396 34.4152 44.3531 35.1525 44.2628C35.1591 46.1823 35.1403 48.0868 35.1525 49.9874C35.1656 50.3555 35.1249 50.7959 35.4161 51.0784C35.6839 51.5042 36.2581 51.5509 36.7169 51.4895C39.0528 51.2004 41.3862 50.9187 43.7135 50.6372C44.1105 50.5909 44.551 50.551 44.8633 50.286C45.162 50.0207 45.2473 49.6007 45.2196 49.2275C45.2151 42.3683 45.2196 35.5113 45.2151 28.6604C45.2327 28.2172 45.1985 27.6772 44.7884 27.4016C44.3952 27.0746 43.8493 27.2047 43.3812 27.2279C41.0519 27.515 38.7083 27.7906 36.3817 28.0723ZM61.0924 25.0869C60.647 25.1634 60.4318 25.6039 60.211 25.955C58.931 28.262 57.6433 30.5625 56.3449 32.8641C56.2852 30.9279 56.3583 28.9875 56.3128 27.052C56.3393 26.5488 56.0162 25.9997 55.5021 25.8636C54.7981 25.7867 54.0905 25.9306 53.3978 26.0086C51.4955 26.246 49.6045 26.4671 47.7088 26.6998C47.3468 26.7398 46.9308 26.8602 46.7201 27.188C46.5293 27.4392 46.4996 27.7748 46.5138 28.0792C46.5204 34.2877 46.5204 40.5008 46.5138 46.7163C46.5204 47.5601 46.4764 48.4147 46.5566 49.2578C46.6033 49.6764 46.9706 49.9981 47.3724 50.1115C48.2458 50.1589 49.1023 49.9673 49.9742 49.8767C51.7437 49.6619 53.5193 49.45 55.289 49.2275C55.739 49.2275 56.175 48.9686 56.388 48.5747C57.7051 46.2139 59.0107 43.8528 60.34 41.491C60.37 43.2749 60.3325 45.063 60.3533 46.8422C60.37 47.2344 60.3257 47.6907 60.6125 47.9956C60.8256 48.3679 61.3079 48.5054 61.7141 48.4352C62.8755 48.3372 64.0322 48.1635 65.1983 48.0239C66.5544 47.8483 67.9256 47.7191 69.2893 47.513C69.7895 47.4455 70.1636 46.9595 70.1589 46.4648C70.1636 39.4939 70.1589 32.5339 70.1636 25.5763C70.1734 25.1448 70.136 24.5936 69.7045 24.3562C69.3051 24.0441 68.7687 24.1427 68.3074 24.1892C65.9068 24.5162 63.4901 24.7588 61.0924 25.0869ZM85.2133 22.1404C84.5958 22.1404 83.8689 22.4515 83.8067 23.1294C83.7809 27.6611 83.8341 32.1915 83.7809 36.7312C83.0311 36.8437 82.2807 36.9123 81.5324 37.012C81.5202 32.7781 81.5324 28.5313 81.5324 24.2869C81.5559 23.8138 81.4754 23.1985 81.0016 22.9386C80.6397 22.6784 80.1877 22.766 79.7716 22.7934C77.6925 23.0676 75.6099 23.304 73.5254 23.5627C72.9706 23.648 72.367 23.6174 71.8662 23.9212C71.5524 24.2176 71.408 24.6388 71.4532 25.0564C71.4677 31.9167 71.4532 38.7653 71.4532 45.6262C71.4832 45.9595 71.4255 46.3553 71.6674 46.6393C71.8662 46.8506 72.1209 47.0717 72.4351 47.0948C73.0874 47.1021 73.7373 46.9829 74.3837 46.9126C76.4669 46.6543 78.5514 46.4082 80.6299 46.1444C81.6837 46.0433 82.7396 45.8619 83.7999 45.8031C83.8109 46.8422 83.7559 47.887 83.8362 48.9364C83.9215 49.5404 84.6145 49.9346 85.2014 49.8235C86.0832 49.739 86.9667 49.6007 87.8449 49.502C88.8327 49.3659 89.8211 49.3041 90.7941 49.1212C91.2833 49.0004 91.4961 48.4723 91.647 48.0478C92.8777 44.4928 94.097 40.936 95.3446 37.3777C95.5057 36.9448 95.6126 36.3792 95.3018 35.9871C95.015 35.4984 94.3669 35.459 93.8741 35.4341C93.8694 31.3161 93.8694 27.188 93.8741 23.06C93.8572 22.5141 93.8827 21.8588 93.396 21.4845C92.9856 21.1703 92.4625 21.2776 91.9805 21.3237C89.7252 21.5886 87.4713 21.8735 85.2133 22.1404ZM103.195 19.9611C102.636 19.9532 102.22 20.3974 102.07 20.9001C99.5631 28.1632 97.0549 35.4215 94.5416 42.6861C94.4034 43.1173 94.4774 43.6475 94.8239 43.9642C95.1493 44.3294 95.6866 44.3294 96.141 44.2783C98.8323 43.9266 101.543 43.635 104.235 43.2749C104.685 43.2183 104.955 42.794 105.091 42.4045C105.256 41.7715 105.386 41.1398 105.533 40.509C106.819 40.3035 108.111 40.1547 109.407 40.0207C109.581 40.6678 109.711 41.3319 109.987 41.9549C110.297 42.4045 110.899 42.5409 111.409 42.4194C113.511 42.1458 115.617 41.9104 117.712 41.6497C118.364 41.5658 119.023 41.5279 119.665 41.3921C120.22 41.2093 120.566 40.5461 120.397 39.9889C120.248 39.4433 120.023 38.9154 119.829 38.3829C117.559 32.2242 115.279 26.054 113.001 19.8929C112.898 19.6113 112.786 19.3141 112.516 19.1541C112.134 18.8569 111.615 18.9157 111.175 18.9922C108.519 19.3199 105.855 19.6357 103.195 19.9611ZM121.703 17.6922C121.235 17.7069 120.739 17.8885 120.479 18.2942C120.175 19.0183 120.407 19.8077 120.45 20.5479C120.856 24.8194 121.274 29.0834 121.652 33.3569C121.687 33.7386 121.744 34.1413 121.95 34.485C122.307 34.9403 122.951 34.9644 123.486 34.8938C125.26 34.6601 127.033 34.4546 128.808 34.2494C129.282 34.1812 129.783 34.1252 130.198 33.8816C130.559 33.5546 130.578 33.0323 130.631 32.5729C130.905 29.4353 131.215 26.2891 131.505 23.1529C131.662 21.4604 131.781 19.7709 132 18.0873V17.554C131.811 17.2044 131.607 16.7697 131.18 16.68C130.313 16.603 129.448 16.7547 128.589 16.8605C126.292 17.1371 123.998 17.4235 121.703 17.6922ZM1.20057 7.61562C0.837452 7.65354 0.424995 7.77554 0.208494 8.10422C-0.00882246 8.37027 0.0255393 8.73716 0.00882278 9.05672C0.00441137 15.8101 0.0166007 22.5517 0 29.2995C0.0363354 29.733 -0.0740637 30.2119 0.204197 30.5851C0.335608 30.8363 0.610154 30.944 0.864965 31.0201C1.73887 31.0655 2.59733 30.8814 3.4601 30.7905C5.20465 30.5924 6.94921 30.3572 8.68169 30.1744C9.00476 30.1197 9.36346 30.1131 9.61271 29.87C10.1112 29.5634 10.067 28.9108 10.086 28.3992C10.0716 24.1268 10.0716 19.8456 10.076 15.5676C10.8153 15.4835 11.5503 15.3929 12.2817 15.3006C12.3003 19.6198 12.2641 23.9506 12.3003 28.2709C12.2452 28.8631 12.6535 29.4658 13.2638 29.5412C13.8441 29.5634 14.4158 29.4572 14.9785 29.388C16.9445 29.1609 18.9162 28.9108 20.8803 28.6817C21.1605 28.6432 21.4406 28.6352 21.7023 28.5209C22.0917 28.3766 22.359 27.9803 22.3552 27.5684C22.3512 20.5018 22.359 13.4265 22.3512 6.35855C22.4207 5.68798 21.7298 5.07296 21.0549 5.22378C19.9896 5.29962 18.9374 5.48483 17.8724 5.59008C12.3179 6.27623 6.76056 6.94357 1.20057 7.61562ZM34.5302 3.57248C31.9028 3.83324 29.2293 4.66198 27.2391 6.4438C25.5231 8.04895 24.5655 10.3961 24.6184 12.7253C24.5655 14.1506 24.8436 15.6358 25.6635 16.8396C26.1863 17.6845 27.0216 18.2942 27.9462 18.6717C26.3838 21.2267 24.8161 23.777 23.2372 26.3281C22.9645 26.7852 22.916 27.3946 23.2735 27.8133C23.524 28.2233 24.0822 28.3014 24.5313 28.2402C27.2433 27.904 29.9607 27.5684 32.6788 27.2503C33.1234 27.2106 33.6253 27.0889 33.8351 26.656C34.3492 25.7573 34.7641 24.8071 35.2672 23.8832C35.2779 24.5013 35.253 25.1153 35.319 25.7271C35.3377 26.2609 35.8176 26.7159 36.3386 26.7626C36.653 26.7694 36.9597 26.7318 37.2655 26.6921C39.4335 26.412 41.6115 26.1697 43.7896 25.9009C44.1744 25.8478 44.6038 25.8034 44.9096 25.5262C45.1578 25.2483 45.2514 24.8523 45.2196 24.4844C45.2151 18.2713 45.2151 12.0553 45.2196 5.8482C45.2098 5.00447 45.2603 4.15221 45.1777 3.29848C45.1114 2.80254 44.6137 2.43035 44.1105 2.44623C43.367 2.45328 42.6308 2.59734 41.8897 2.68141C39.429 2.97863 36.9873 3.27644 34.5302 3.57248ZM63.6325 0H64.0982C64.6289 0.12406 65.0946 0.592963 65.0946 1.15212C65.1222 2.86427 65.067 4.57907 65.0991 6.29858C65.0923 7.02265 65.1478 7.76202 65.0165 8.47669C64.9434 9.02497 64.3463 9.24634 63.8601 9.31307C62.8459 9.473 61.8265 9.55061 60.8057 9.69349C60.8057 13.2145 60.8057 16.7253 60.8057 20.243C60.7968 21.2029 60.8547 22.1622 60.7638 23.1135C60.6723 23.6785 60.0755 23.9894 59.5367 24.0042C57.9203 24.1892 56.3007 24.4006 54.6831 24.5936C53.6415 24.6956 52.6046 24.9407 51.5594 24.8284C51.2685 24.7808 51.0554 24.5456 50.9107 24.3086C50.7089 23.8388 50.7541 23.3122 50.7288 22.8183C50.7431 18.8569 50.7431 14.8888 50.7342 10.9203C49.8637 11.0138 49.0007 11.1419 48.1311 11.2328C47.6812 11.2347 47.1171 11.2939 46.8241 10.8832C46.452 10.5493 46.5094 10.0154 46.5094 9.57354C46.5293 7.54065 46.4996 5.50071 46.5204 3.47487C46.546 3.10798 46.4841 2.65848 46.7843 2.38508C47.1861 1.91824 47.8533 1.95293 48.3971 1.85944C53.4828 1.25119 58.5616 0.657639 63.6325 0Z" fill="white"/>
</svg>
