<svg width="422" height="590" viewBox="0 0 422 590" fill="none" xmlns="http://www.w3.org/2000/svg">
<g id="real-Property_1_Real_Madrid_CF_1">
<path id="real-path3" d="M350.241 138.032C351.479 136.165 352.227 134.126 352.227 132.049C352.227 131.465 352.175 130.881 352.072 130.3C351.66 127.972 350.4 125.996 348.559 124.592C349.182 123.275 349.579 121.857 349.579 120.389C349.579 116.291 347.027 112.642 343.317 111.156C344.957 109.344 345.908 107.027 345.908 104.538C345.908 99.8346 342.673 95.9152 338.212 94.888C338.85 93.5512 339.283 92.1284 339.283 90.6301C339.283 85.145 334.82 80.6831 329.337 80.6831C329.02 80.6831 328.702 80.7804 328.383 80.8125C328.609 79.9789 328.761 79.1298 328.761 78.2569C328.761 72.7709 324.298 68.3079 318.816 68.3079C317.792 68.3079 316.793 68.5233 315.822 68.8339C315.805 63.3603 311.351 58.9128 305.874 58.9128C304.222 58.9128 302.667 59.4192 301.235 60.1927C299.845 56.2702 296.193 53.4703 291.968 53.4703C288.953 53.4703 286.197 54.8796 284.31 57.1949C282.509 55.6003 280.202 54.66 277.773 54.66C277.773 54.66 277.375 54.7056 277.077 54.7418C277.23 54.0501 277.328 53.3481 277.328 52.6305C277.328 47.1434 272.864 42.6804 267.378 42.6804C266.112 42.6804 264.89 43.0097 263.714 43.4829C263.688 40.8631 262.664 38.4028 260.811 36.5472C258.932 34.6677 256.433 33.6333 253.775 33.6333C252.034 33.6333 250.399 34.1945 248.898 35.0571C247.503 31.1667 243.864 28.3895 239.653 28.3895C237.382 28.3895 235.256 29.1837 233.504 30.5734C231.699 27.7144 228.594 25.8608 225.169 25.8608C224.286 25.8608 223.419 26.0628 222.559 26.2989C220.927 24.5696 218.941 23.1696 216.707 22.3153C216.707 22.3153 216.182 22.1476 215.708 21.9953C215.708 21.0396 215.708 18.0781 215.708 16.821C217.131 16.821 221.516 16.821 221.516 16.821C222.051 16.821 222.485 16.3881 222.485 15.8528V8.96673C222.485 8.43241 222.051 7.99854 221.516 7.99854C221.516 7.99854 217.131 7.99854 215.708 7.99854C215.708 6.62755 215.708 2.86663 215.708 2.86663C215.708 2.33231 215.275 1.89844 214.739 1.89844H207.484C206.949 1.89844 206.516 2.33231 206.516 2.86663C206.516 2.86663 206.516 6.62755 206.516 7.99854C205.093 7.99854 200.715 7.99854 200.715 7.99854C200.18 7.99854 199.747 8.43138 199.747 8.96673V15.8528C199.747 16.3881 200.18 16.821 200.715 16.821C200.715 16.821 205.094 16.821 206.516 16.821C206.516 18.0781 206.516 21.0396 206.516 21.9953C206.029 22.1517 205.519 22.3153 205.519 22.3153C203.286 23.1686 201.3 24.5675 199.664 26.2989C198.804 26.0617 197.937 25.8598 197.054 25.8598C193.629 25.8598 190.524 27.7133 188.72 30.5723C186.969 29.1817 184.84 28.3885 182.571 28.3885C178.362 28.3885 174.722 31.1657 173.326 35.055C171.829 34.1935 170.196 33.6322 168.449 33.6322C162.998 33.6322 158.567 38.0424 158.511 43.4819C157.333 43.0086 156.11 42.6794 154.847 42.6794C149.359 42.6794 144.895 47.1434 144.895 52.6294C144.895 53.3429 144.996 54.046 145.15 54.7408C144.849 54.7056 144.449 54.659 144.449 54.659C142.026 54.659 139.72 55.5992 137.913 57.1929C136.034 54.8775 133.282 53.4682 130.264 53.4682C126.025 53.4682 122.375 56.2692 120.999 60.1917C119.556 59.4171 117.997 58.9107 116.348 58.9107C110.873 58.9107 106.422 63.3572 106.404 68.8298C105.433 68.5191 104.441 68.3058 103.416 68.3058C97.9295 68.3058 93.4665 72.7698 93.4665 78.2548C93.4665 79.1298 93.6166 79.9779 93.8393 80.8104C93.5203 80.7794 93.2024 80.681 92.8866 80.681C87.4016 80.681 82.9397 85.143 82.9397 90.628C82.9397 92.1294 83.3725 93.5522 84.0155 94.8859C79.5536 95.9142 76.3197 99.8325 76.3197 104.535C76.3197 107.023 77.2693 109.339 78.9074 111.153C75.2004 112.641 72.651 116.289 72.651 120.386C72.651 121.853 73.0434 123.271 73.6606 124.588C71.8215 125.993 70.5634 127.972 70.1513 130.301C70.0488 130.881 69.998 131.464 69.998 132.047C69.998 134.124 70.7446 136.163 71.982 138.03C70.6597 139.397 69.9297 141.121 69.9297 143.11C69.9297 143.16 69.9297 143.209 69.9307 143.26C69.998 147.146 72.6013 150.928 74.9922 152.796C79.477 156.3 84.3614 156.781 88.5334 154.301C92.46 157.106 97.36 158.121 102.052 157.14C102.005 157.439 101.851 157.723 101.851 158.024C101.851 158.901 102.045 159.779 102.432 160.6C103.131 162.098 104.343 163.226 105.842 163.77C106.778 164.11 107.767 164.17 108.735 164.008C108.637 164.171 108.554 164.344 108.488 164.526C108.201 165.324 108.259 166.254 108.647 167.078C109.009 167.849 109.65 168.435 110.451 168.724C110.664 168.802 110.88 168.832 111.099 168.849L109.703 174.551C109.634 174.835 109.763 175.132 110.019 175.275L115.745 178.462C115.253 179.084 114.972 179.854 114.972 180.651C114.972 181.146 115.075 181.647 115.295 182.124C116.164 183.956 118.112 184.724 119.832 183.923C148.378 170.453 179.088 163.625 211.111 163.625C243.137 163.625 273.848 170.453 302.392 183.921C304.124 184.729 306.07 183.958 306.925 182.13C307.149 181.649 307.256 181.143 307.256 180.644C307.256 179.848 306.975 179.083 306.48 178.462L312.202 175.274C312.456 175.132 312.586 174.835 312.517 174.552L311.12 168.82C312.156 168.695 313.105 168.094 313.584 167.077C313.807 166.602 313.919 166.092 313.919 165.592C313.919 165.226 313.858 164.867 313.737 164.531C313.648 164.286 313.519 164.064 313.373 163.855C315.967 164.295 318.626 163.091 319.799 160.597C320.181 159.783 320.373 158.91 320.373 158.037C320.373 157.73 320.217 157.443 320.169 157.139C324.86 158.119 329.766 157.105 333.695 154.301C337.863 156.779 342.747 156.298 347.233 152.797C349.623 150.929 352.224 147.148 352.292 143.262C352.293 143.212 352.293 143.163 352.293 143.113C352.295 141.124 351.565 139.4 350.241 138.032ZM123.858 94.4293C123.858 94.6529 123.895 94.8683 123.91 95.0889C119.072 96.1637 113.557 97.6062 109.074 99.3676C105.88 100.625 103.227 102.2 101.066 103.79C105.92 93.458 114.141 86.1878 127.608 79.1816C127.748 81.4369 128.629 83.5266 130.132 85.1854C126.415 86.6693 123.858 90.3204 123.858 94.4293ZM203.658 61.0573C202.792 62.4552 202.292 64.0323 202.292 65.6777C202.292 67.3252 202.792 68.9043 203.658 70.3033C203.658 70.5176 203.658 72.747 203.658 74.6078C187.827 72.3266 167.543 73.8467 151.721 82.053C159.284 63.1304 176.803 48.1509 202.296 49.6182C202.301 51.2553 202.797 52.8231 203.658 54.2127C203.658 54.5751 203.658 60.6959 203.658 61.0573ZM218.569 74.6078C218.569 72.747 218.569 70.5176 218.569 70.3033C219.431 68.9095 219.933 67.3314 219.933 65.6777C219.933 64.0251 219.431 62.449 218.569 61.0573C218.569 60.6949 218.569 54.5751 218.569 54.2127C219.426 52.8293 219.923 51.2626 219.928 49.6182C245.421 48.152 262.94 63.1304 270.502 82.053C254.681 73.8467 234.397 72.3266 218.569 74.6078ZM313.15 99.3676C308.659 97.6041 303.151 96.1627 298.321 95.0889C298.335 94.8683 298.372 94.6529 298.372 94.4293C298.372 90.3225 295.814 86.6703 292.095 85.1864C293.598 83.5276 294.478 81.438 294.619 79.1795C308.084 86.1867 316.304 93.4559 321.158 103.789C318.996 102.199 316.342 100.625 313.15 99.3676Z" fill="#00529F"/>
<path id="real-path5" d="M324.122 148.101C322.664 148.183 321.208 147.926 319.911 147.21C317.381 145.816 315.838 143.174 315.838 140.331C315.838 140.15 315.854 139.967 315.865 139.785C316.793 138.66 317.484 137.39 317.851 135.966C318.067 135.133 318.174 134.29 318.174 133.453C318.174 131.693 317.703 129.959 316.785 128.402C315.425 126.098 313.248 124.463 310.655 123.798C305.326 122.423 299.867 125.649 298.482 130.988C298.48 130.997 298.329 132.065 298.245 132.661C296.311 135.099 293.161 136.188 290.136 135.412C286.763 134.543 284.48 131.599 284.312 128.208C291.45 129.596 295.819 126.928 297.597 119.998C297.968 118.557 298.153 117.224 298.153 115.998C298.153 112.261 296.363 109.532 292.876 107.658C292.878 107.545 292.887 107.428 292.887 107.317C292.887 105.912 292.605 104.667 292.17 103.518C295.225 102.249 297.475 99.568 298.146 96.3828C302.901 97.4421 308.29 98.8576 312.677 100.58C316.754 102.184 319.929 104.347 322.28 106.358C324.714 112.471 326.126 119.631 326.848 128.342C324.404 129.394 322.422 131.729 320.999 135.441C320.288 137.315 319.931 139.032 319.931 140.598C319.931 143.668 321.368 146.134 324.122 148.101Z" fill="#EE324E"/>
<path id="real-path7" d="M267.523 123.894C265.735 126.777 262.344 128.266 258.971 127.397C255.627 126.538 253.248 123.547 253.108 120.103C253.86 118.68 254.295 117.104 254.295 115.483C254.295 109.971 249.812 105.487 244.302 105.487C238.789 105.487 234.304 109.971 234.304 115.483C234.304 116.313 234.464 117.122 234.671 117.916C233.616 121.186 230.645 123.384 227.204 123.384C223.723 123.384 220.842 121.078 219.837 117.84C227.035 117.387 230.591 113.727 230.591 106.601C230.591 100.538 228.045 97.006 222.871 95.7748C222.016 92.162 219.892 89.7897 216.586 88.6361C218.656 86.9876 219.939 84.4921 219.939 81.7708C219.939 80.114 219.438 78.539 218.575 77.1504C218.575 77.0572 218.575 76.5778 218.575 75.9171C234.636 73.5635 255.414 75.1633 271.204 83.878C272.771 88.2126 273.832 92.7253 274.348 97.2784C272.56 98.1679 271.11 99.6517 270.023 101.714C264.713 101.626 261.387 104.438 259.876 110.303C259.507 111.739 259.321 113.069 259.321 114.295C259.32 118.976 262.057 122.127 267.523 123.894Z" fill="#EE324E"/>
<path id="real-path9" d="M205.647 88.6363C202.341 89.7888 200.217 92.1632 199.361 95.775C194.186 97.0062 191.64 100.538 191.64 106.601C191.64 113.727 195.196 117.386 202.401 117.84C201.389 121.078 198.507 123.384 195.026 123.384C191.636 123.384 188.602 121.136 187.568 117.916C187.771 117.117 187.926 116.305 187.926 115.484C187.926 112.812 186.887 110.302 184.999 108.414C183.111 106.526 180.601 105.486 177.93 105.486C172.416 105.486 167.931 109.971 167.931 115.483C167.931 117.084 168.37 118.663 169.125 120.102C168.988 123.546 166.607 126.536 163.259 127.396C159.885 128.266 156.495 126.776 154.711 123.893C160.178 122.126 162.914 118.975 162.914 114.293C162.914 113.067 162.729 111.737 162.36 110.302C160.847 104.437 157.522 101.626 152.212 101.714C151.131 99.6529 149.678 98.1701 147.883 97.2765C148.4 92.7244 149.461 88.2117 151.027 83.8782C166.818 75.1624 187.597 73.5636 203.66 75.9173C203.66 76.578 203.66 77.0574 203.66 77.1506C202.794 78.5454 202.294 80.1214 202.294 81.771C202.295 84.4922 203.577 86.9868 205.647 88.6363Z" fill="#EE324E"/>
<path id="real-path11" d="M129.352 107.659C125.867 109.531 124.08 112.258 124.08 115.996C124.08 117.224 124.266 118.558 124.637 119.999C126.412 126.932 130.781 129.6 137.915 128.209C137.755 131.599 135.47 134.543 132.087 135.413C129.065 136.189 125.911 135.099 123.983 132.662C123.908 132.142 123.746 131.001 123.746 131.001C122.365 125.65 116.905 122.423 111.57 123.799C108.982 124.463 106.809 126.096 105.449 128.397C104.529 129.956 104.058 131.695 104.058 133.458C104.058 134.293 104.163 135.135 104.378 135.965C104.741 137.386 105.433 138.656 106.364 139.785C106.376 139.964 106.39 140.143 106.39 140.321C106.39 143.17 104.849 145.817 102.321 147.209C101.023 147.924 99.5646 148.181 98.1097 148.101C100.862 146.135 102.297 143.669 102.297 140.603C102.297 139.035 101.94 137.318 101.228 135.444C99.8152 131.733 97.8312 129.396 95.375 128.342C96.0967 119.633 97.5092 112.474 99.9426 106.362C102.294 104.35 105.469 102.185 109.548 100.58C113.927 98.8597 119.323 97.4432 124.084 96.3828C124.755 99.568 127.003 102.25 130.058 103.519C129.622 104.674 129.34 105.921 129.34 107.319C129.34 107.431 129.35 107.546 129.352 107.659Z" fill="#EE324E"/>
<path id="real-path13" d="M297.164 144.372C299.168 143.841 301.059 142.994 302.771 141.836C303.672 142.42 304.633 142.89 305.678 143.156C305.68 143.156 305.995 143.213 306.311 143.271C306.764 145.254 307.568 147.171 308.659 148.931C304.858 147.313 301.021 145.792 297.164 144.372Z" fill="#EE324E"/>
<path id="real-path15" d="M211.115 129.059C211.115 129.059 208.099 129.115 205.43 129.165C208.023 127.19 209.986 124.561 211.115 121.516C212.244 124.56 214.207 127.189 216.8 129.165C214.131 129.114 211.115 129.059 211.115 129.059Z" fill="#EE324E"/>
<path id="real-path17" d="M113.57 148.931C114.664 147.171 115.466 145.253 115.915 143.272C116.234 143.214 116.552 143.156 116.552 143.156C117.59 142.891 118.554 142.421 119.46 141.836C121.153 142.979 123.062 143.831 125.074 144.368C121.205 145.793 117.367 147.315 113.57 148.931Z" fill="#EE324E"/>
<path id="real-path19" d="M143.758 138.313C145.721 135.771 146.852 132.727 147.176 129.539C149.014 132.206 151.553 134.274 154.537 135.554C150.9 136.397 147.304 137.319 143.758 138.313Z" fill="#EE324E"/>
<path id="real-path21" d="M173.703 131.897C175.619 130.07 177.114 127.871 178.085 125.451C178.783 125.439 179.466 125.302 180.145 125.148C181.695 127.275 183.712 129.049 186.046 130.352C181.929 130.764 177.811 131.279 173.703 131.897Z" fill="#EE324E"/>
<path id="real-path23" d="M236.18 130.352C238.513 129.05 240.533 127.276 242.089 125.148C242.762 125.302 243.442 125.439 244.141 125.451C245.115 127.873 246.611 130.072 248.525 131.897C244.419 131.28 240.3 130.764 236.18 130.352Z" fill="#EE324E"/>
<path id="real-path25" d="M267.695 135.554C270.682 134.274 273.22 132.206 275.056 129.539C275.382 132.727 276.515 135.771 278.478 138.314C274.931 137.32 271.334 136.398 267.695 135.554Z" fill="#EE324E"/>
<path id="real-path27" d="M192.625 35.8044C192.625 33.3668 194.611 31.3828 197.053 31.3828C199.49 31.3828 201.475 33.3658 201.475 35.8044C201.475 38.243 199.491 40.227 197.053 40.227C194.612 40.227 192.625 38.243 192.625 35.8044Z" fill="white"/>
<path id="real-path29" d="M206.688 49.5877C206.688 47.1481 208.672 45.1641 211.11 45.1641C213.549 45.1641 215.533 47.1491 215.533 49.5877C215.533 52.0253 213.549 54.0082 211.11 54.0082C208.672 54.0082 206.688 52.0253 206.688 49.5877Z" fill="white"/>
<path id="real-path31" d="M206.688 65.6804C206.688 63.2418 208.672 61.2578 211.11 61.2578C213.549 61.2578 215.533 63.2429 215.533 65.6804C215.533 68.1211 213.549 70.1061 211.11 70.1061C208.672 70.1061 206.688 68.1211 206.688 65.6804Z" fill="white"/>
<path id="real-path33" d="M206.688 81.7721C206.688 79.3345 208.672 77.3516 211.11 77.3516C213.549 77.3516 215.533 79.3345 215.533 81.7721C215.533 84.2096 213.549 86.1926 211.11 86.1926C208.672 86.1926 206.688 84.2096 206.688 81.7721Z" fill="white"/>
<path id="real-path35" d="M178.156 38.3346C178.156 37.1531 178.616 36.043 179.452 35.2084C180.287 34.3738 181.395 33.9141 182.575 33.9141C185.012 33.9141 186.996 35.897 186.996 38.3346C186.996 40.7711 185.013 42.7541 182.575 42.7541C180.138 42.7541 178.156 40.7711 178.156 38.3346Z" fill="white"/>
<path id="real-path37" d="M164.023 43.5789C164.023 41.1403 166.007 39.1562 168.446 39.1562C170.884 39.1562 172.867 41.1413 172.867 43.5789C172.867 46.0154 170.884 47.9983 168.446 47.9983C166.007 47.9973 164.023 46.0154 164.023 43.5789Z" fill="white"/>
<path id="real-path39" d="M150.422 52.6335C150.422 50.1949 152.407 48.2109 154.847 48.2109C156.025 48.2109 157.134 48.6717 157.969 49.5063C158.804 50.342 159.263 51.452 159.263 52.6335C159.263 55.0721 157.281 57.0561 154.845 57.0561C152.407 57.0561 150.422 55.0721 150.422 52.6335Z" fill="white"/>
<path id="real-path41" d="M140.031 64.6111C140.031 62.1725 142.013 60.1875 144.448 60.1875C146.886 60.1875 148.871 62.1725 148.871 64.6111C148.871 67.0466 146.886 69.0275 144.448 69.0275C142.012 69.0275 140.031 67.0456 140.031 64.6111Z" fill="white"/>
<path id="real-path43" d="M125.844 63.4164C125.844 60.9809 127.829 59 130.269 59C131.449 59 132.558 59.4598 133.393 60.2944C134.227 61.1279 134.687 62.237 134.687 63.4174C134.687 65.8581 132.705 67.8442 130.269 67.8442C127.829 67.8431 125.844 65.8571 125.844 63.4164Z" fill="white"/>
<path id="real-path45" d="M111.922 68.8611C111.922 66.4225 113.907 64.4375 116.348 64.4375C118.783 64.4375 120.764 66.4225 120.764 68.8611C120.764 71.2987 118.782 73.2837 116.348 73.2837C113.907 73.2827 111.922 71.2987 111.922 68.8611Z" fill="white"/>
<path id="real-path47" d="M98.9922 78.2575C98.9922 75.8199 100.977 73.8359 103.419 73.8359C105.853 73.8359 107.835 75.8199 107.835 78.2575C107.835 80.6961 105.853 82.6811 103.419 82.6811C100.978 82.6811 98.9922 80.6961 98.9922 78.2575Z" fill="white"/>
<path id="real-path49" d="M88.4688 90.6278C88.4688 88.1882 90.4507 86.2031 92.8851 86.2031C95.3248 86.2031 97.3108 88.1882 97.3108 90.6278C97.3108 93.0654 95.3248 95.0494 92.8851 95.0494C90.4497 95.0483 88.4688 93.0654 88.4688 90.6278Z" fill="white"/>
<path id="real-path51" d="M81.8438 104.535C81.8438 102.099 83.8288 100.117 86.2695 100.117C88.7081 100.117 90.6921 102.099 90.6921 104.535C90.6921 106.975 88.707 108.962 86.2695 108.962C83.8288 108.962 81.8438 106.976 81.8438 104.535Z" fill="white"/>
<path id="real-path53" d="M78.1797 120.393C78.1797 117.957 80.1647 115.977 82.6023 115.977C85.0398 115.977 87.0228 117.957 87.0228 120.393C87.0228 122.832 85.0398 124.817 82.6023 124.817C80.1637 124.817 78.1797 122.832 78.1797 120.393Z" fill="white"/>
<path id="real-path55" d="M133.062 78.5653C133.062 77.3848 133.523 76.2737 134.36 75.4371C135.197 74.6014 136.306 74.1406 137.484 74.1406C139.922 74.1406 141.905 76.1257 141.905 78.5653C141.905 81.0029 139.922 82.9869 137.484 82.9869C135.046 82.9858 133.062 81.0029 133.062 78.5653Z" fill="white"/>
<path id="real-path57" d="M129.391 94.4283C129.391 91.9908 131.373 90.0078 133.807 90.0078C136.246 90.0078 138.23 91.9918 138.23 94.4283C138.23 96.8659 136.245 98.8499 133.807 98.8499C131.372 98.8499 129.391 96.8669 129.391 94.4283Z" fill="white"/>
<path id="real-path59" d="M203.164 104.751C203.164 100.365 206.73 96.7969 211.116 96.7969C215.501 96.7969 219.069 100.365 219.069 104.751C219.069 109.136 215.502 112.705 211.116 112.705C206.731 112.705 203.164 109.136 203.164 104.751Z" fill="white"/>
<path id="real-path61" d="M138.989 120.212C137.158 119.132 135.859 117.401 135.328 115.341C134.239 111.092 136.808 106.748 141.056 105.658C145.302 104.565 149.647 107.133 150.742 111.383C151.835 115.625 149.268 119.968 145.021 121.064C142.96 121.594 140.819 121.292 138.989 120.212Z" fill="white"/>
<path id="real-path63" d="M77.3334 144.919C75.223 141.079 76.6272 136.23 80.4678 134.115C82.3317 133.089 84.4845 132.852 86.5275 133.445C88.5664 134.038 90.2532 135.39 91.2742 137.249C93.3887 141.088 91.9835 145.934 88.1429 148.052C84.3033 150.165 79.4541 148.76 77.3334 144.919Z" fill="white"/>
<path id="real-path65" d="M220.758 35.8044C220.758 34.6229 221.218 33.5118 222.051 32.6761C222.885 31.8426 223.992 31.3828 225.171 31.3828C227.612 31.3828 229.598 33.3658 229.598 35.8044C229.598 38.243 227.612 40.227 225.171 40.227C222.737 40.227 220.758 38.243 220.758 35.8044Z" fill="white"/>
<path id="real-path67" d="M235.242 38.3346C235.242 35.897 237.221 33.9141 239.657 33.9141C242.095 33.9141 244.081 35.897 244.081 38.3346C244.081 40.7711 242.095 42.7541 239.657 42.7541C237.221 42.7541 235.242 40.7711 235.242 38.3346Z" fill="white"/>
<path id="real-path69" d="M249.359 43.5789C249.359 41.1403 251.342 39.1562 253.779 39.1562C256.218 39.1562 258.204 41.1413 258.204 43.5789C258.204 46.0154 256.218 47.9983 253.779 47.9983C251.342 47.9973 249.359 46.0154 249.359 43.5789Z" fill="white"/>
<path id="real-path71" d="M262.961 52.6335C262.961 50.1949 264.944 48.2109 267.38 48.2109C269.82 48.2109 271.804 50.196 271.804 52.6335C271.804 55.0721 269.82 57.0561 267.38 57.0561C264.944 57.0561 262.961 55.0721 262.961 52.6335Z" fill="white"/>
<path id="real-path73" d="M273.352 64.6111C273.352 62.1725 275.335 60.1875 277.774 60.1875C278.955 60.1875 280.063 60.6473 280.898 61.4819C281.733 62.3165 282.194 63.4286 282.194 64.6111C282.194 67.0466 280.211 69.0275 277.774 69.0275C275.335 69.0275 273.352 67.0456 273.352 64.6111Z" fill="white"/>
<path id="real-path75" d="M287.539 63.4164C287.539 60.9809 289.525 59 291.965 59C294.401 59 296.384 60.9819 296.384 63.4164C296.384 65.8571 294.401 67.8431 291.965 67.8431C289.525 67.8431 287.539 65.8571 287.539 63.4164Z" fill="white"/>
<path id="real-path77" d="M301.461 68.8611C301.461 66.4225 303.442 64.4375 305.877 64.4375C308.318 64.4375 310.304 66.4225 310.304 68.8611C310.304 71.2987 308.318 73.2837 305.877 73.2837C303.442 73.2827 301.461 71.2987 301.461 68.8611Z" fill="white"/>
<path id="real-path79" d="M314.391 78.2575C314.391 75.8199 316.376 73.8359 318.815 73.8359C321.252 73.8359 323.233 75.8199 323.233 78.2575C323.233 80.6961 321.252 82.6811 318.815 82.6811C316.376 82.6811 314.391 80.6961 314.391 78.2575Z" fill="white"/>
<path id="real-path81" d="M324.914 90.6278C324.914 88.1882 326.899 86.2031 329.338 86.2031C331.775 86.2031 333.76 88.1882 333.76 90.6278C333.76 93.0654 331.775 95.0494 329.338 95.0494C326.899 95.0483 324.914 93.0654 324.914 90.6278Z" fill="white"/>
<path id="real-path83" d="M331.539 104.535C331.539 102.099 333.521 100.117 335.959 100.117C338.396 100.117 340.381 102.099 340.381 104.535C340.381 106.975 338.397 108.962 335.959 108.962C333.521 108.962 331.539 106.976 331.539 104.535Z" fill="white"/>
<path id="real-path85" d="M335.203 120.393C335.203 117.957 337.189 115.977 339.63 115.977C342.065 115.977 344.045 117.957 344.045 120.393C344.045 122.832 342.065 124.817 339.63 124.817C337.189 124.817 335.203 122.832 335.203 120.393Z" fill="white"/>
<path id="real-path87" d="M280.32 78.5653C280.32 76.1257 282.304 74.1406 284.743 74.1406C287.182 74.1406 289.163 76.1257 289.163 78.5653C289.163 81.0029 287.182 82.9869 284.743 82.9869C282.304 82.9869 280.32 81.0029 280.32 78.5653Z" fill="white"/>
<path id="real-path89" d="M283.992 94.4283C283.992 91.9908 285.976 90.0078 288.417 90.0078C290.854 90.0078 292.839 91.9918 292.839 94.4283C292.839 96.8659 290.855 98.8499 288.417 98.8499C285.976 98.8499 283.992 96.8669 283.992 94.4283Z" fill="white"/>
<path id="real-path91" d="M277.208 121.066C275.149 120.536 273.42 119.237 272.341 117.409C271.262 115.582 270.959 113.442 271.489 111.386C272.016 109.329 273.313 107.599 275.138 106.518C276.968 105.435 279.11 105.131 281.169 105.66C283.228 106.189 284.957 107.488 286.037 109.317C287.118 111.146 287.421 113.285 286.891 115.343C286.36 117.405 285.062 119.136 283.234 120.216C281.406 121.294 279.267 121.596 277.208 121.066Z" fill="white"/>
<path id="real-path93" d="M334.083 148.052C332.218 147.024 330.866 145.332 330.275 143.288C329.688 141.251 329.929 139.108 330.953 137.252C330.953 137.252 330.954 137.251 330.954 137.25C331.974 135.389 333.66 134.038 335.702 133.445C337.745 132.851 339.894 133.089 341.755 134.115C343.617 135.137 344.968 136.821 345.56 138.859C346.154 140.901 345.918 143.054 344.891 144.921C342.776 148.762 337.926 150.167 334.083 148.052Z" fill="white"/>
<path id="real-path95" d="M178.242 152.954C178.242 151.774 178.703 150.663 179.54 149.828C180.375 148.992 181.484 148.531 182.664 148.531C185.105 148.531 187.092 150.515 187.092 152.954C187.092 155.392 185.105 157.377 182.664 157.377C180.226 157.377 178.242 155.393 178.242 152.954Z" fill="white"/>
<path id="real-path97" d="M123.391 167.782C123.391 166.6 123.85 165.489 124.686 164.654C125.521 163.819 126.63 163.359 127.808 163.359C130.249 163.359 132.234 165.344 132.234 167.783C132.234 170.223 130.249 172.208 127.808 172.208C125.372 172.208 123.391 170.223 123.391 167.782Z" fill="white"/>
<path id="real-path99" d="M211.11 146.242C211.506 146.389 222.669 150.55 225.263 151.516C222.669 152.484 211.506 156.646 211.11 156.794C210.714 156.646 199.555 152.483 196.961 151.516C199.555 150.549 210.714 146.389 211.11 146.242Z" fill="#EE324E"/>
<path id="real-path101" d="M112.511 168.562C113.535 168.938 117.617 170.44 118.46 170.749C118.235 171.628 117.04 176.303 116.728 177.524C115.638 176.918 111.758 174.758 111.086 174.384C111.268 173.639 112.252 169.619 112.511 168.562Z" fill="#EE324E"/>
<path id="real-path103" d="M235.148 152.954C235.148 150.515 237.13 148.531 239.566 148.531C242.008 148.531 243.997 150.515 243.997 152.954C243.997 155.392 242.008 157.377 239.566 157.377C237.13 157.377 235.148 155.393 235.148 152.954Z" fill="white"/>
<path id="real-path105" d="M290 167.783C290 165.344 291.981 163.359 294.417 163.359C296.853 163.359 298.835 165.344 298.835 167.783C298.835 170.223 296.853 172.208 294.417 172.208C291.981 172.209 290 170.224 290 167.783Z" fill="white"/>
<path id="real-path107" d="M311.386 164.618C279.911 149.786 246.174 142.266 211.111 142.266C176.047 142.266 142.311 149.786 110.835 164.618C110.578 164.738 110.402 164.928 110.31 165.182C110.196 165.5 110.227 165.889 110.399 166.254C110.543 166.559 110.794 166.79 111.108 166.903C111.421 167.016 111.758 166.999 112.061 166.858C112.294 166.749 112.561 166.736 112.803 166.824C113.045 166.911 113.242 167.093 113.351 167.327L113.437 167.513L119.456 169.726C119.769 169.841 119.945 170.174 119.862 170.497L118.075 177.489L118.276 177.921C118.5 178.404 118.292 178.978 117.81 179.205C117.026 179.575 116.686 180.52 117.047 181.304C117.393 182.029 118.175 182.557 119.008 182.168C147.81 168.579 178.798 161.688 211.11 161.688C243.423 161.688 274.413 168.579 303.213 182.167C304.051 182.558 304.832 182.032 305.169 181.308C305.539 180.52 305.198 179.577 304.41 179.205C303.929 178.98 303.72 178.404 303.946 177.921L304.148 177.486L302.36 170.497C302.277 170.173 302.453 169.841 302.766 169.726L308.783 167.515L308.87 167.327C308.978 167.093 309.175 166.912 309.417 166.824C309.658 166.736 309.925 166.749 310.159 166.858C310.786 167.153 311.536 166.88 311.83 166.253C311.999 165.894 312.03 165.506 311.915 165.188C311.824 164.932 311.646 164.74 311.386 164.618ZM127.805 173.502C124.652 173.502 122.088 170.934 122.088 167.777C122.088 166.248 122.684 164.81 123.765 163.728C124.845 162.647 126.28 162.053 127.806 162.053C130.964 162.053 133.533 164.62 133.533 167.777C133.533 170.934 130.964 173.502 127.805 173.502ZM170.776 155.142L156.767 164.918C156.639 165.007 156.482 165.048 156.326 165.031L139.326 163.235C139.056 163.207 138.831 163.014 138.764 162.751C138.697 162.488 138.799 162.21 139.023 162.055L153.04 152.284C153.169 152.195 153.325 152.155 153.48 152.171L170.472 153.961C170.742 153.988 170.966 154.182 171.033 154.445C171.1 154.708 170.999 154.988 170.776 155.142ZM182.659 158.677C179.503 158.677 176.937 156.109 176.937 152.953C176.937 151.426 177.533 149.988 178.616 148.906C179.697 147.825 181.133 147.23 182.66 147.23C185.819 147.23 188.388 149.797 188.388 152.953C188.387 156.109 185.817 158.677 182.659 158.677ZM227.354 152.126L211.339 158.097C211.193 158.151 211.031 158.152 210.884 158.097L194.874 152.126C194.62 152.03 194.451 151.788 194.451 151.516C194.451 151.244 194.62 151.001 194.874 150.906L210.884 144.937C211.031 144.882 211.192 144.883 211.339 144.937L227.354 150.906C227.608 151.001 227.776 151.244 227.776 151.516C227.776 151.788 227.608 152.03 227.354 152.126ZM239.561 158.677C236.408 158.677 233.844 156.109 233.844 152.953C233.844 149.798 236.409 147.23 239.561 147.23C242.721 147.23 245.293 149.797 245.293 152.953C245.293 156.109 242.721 158.677 239.561 158.677ZM282.894 163.236L265.904 165.032C265.749 165.049 265.592 165.009 265.464 164.919L251.446 155.143C251.224 154.989 251.118 154.71 251.187 154.447C251.253 154.184 251.478 153.992 251.748 153.963L268.742 152.173C268.897 152.157 269.053 152.196 269.183 152.286L283.197 162.057C283.42 162.209 283.522 162.489 283.456 162.753C283.389 163.015 283.165 163.209 282.894 163.236ZM294.414 173.502C291.262 173.502 288.697 170.934 288.697 167.777C288.697 164.621 291.263 162.053 294.414 162.053C297.568 162.053 300.131 164.62 300.131 167.777C300.132 170.934 297.568 173.502 294.414 173.502Z" fill="#FEBE10"/>
<path id="real-path109" d="M348.438 138.938C348.041 138.605 347.976 138.018 348.293 137.606C349.921 135.487 350.587 133.013 350.165 130.641C349.799 128.577 348.629 126.828 346.871 125.719C346.431 125.439 346.289 124.862 346.554 124.411C347.265 123.196 347.641 121.807 347.641 120.391C347.641 116.625 344.968 113.33 341.285 112.556C340.916 112.478 340.625 112.193 340.54 111.827C340.454 111.46 340.59 111.077 340.887 110.845C342.848 109.314 343.971 107.015 343.971 104.54C343.971 100.389 340.856 96.9632 336.725 96.5697C336.387 96.5376 336.09 96.3305 335.943 96.023C335.796 95.7155 335.822 95.3541 336.009 95.0714C336.883 93.7532 337.345 92.2176 337.345 90.6322C337.345 86.2148 333.752 82.6216 329.336 82.6216C328.643 82.6216 327.934 82.7179 327.233 82.9084C326.87 83.0058 326.484 82.8867 326.241 82.5999C325.999 82.313 325.944 81.9123 326.099 81.5706C326.58 80.5206 326.823 79.4064 326.823 78.2591C326.823 73.8406 323.231 70.2454 318.816 70.2454C317.552 70.2454 316.297 70.5488 315.187 71.1214C314.874 71.2829 314.502 71.2312 314.209 71.0365C313.917 70.8408 313.756 70.4732 313.785 70.1221L313.889 68.864C313.889 64.4445 310.293 60.8493 305.874 60.8493C304.226 60.8493 302.644 61.3505 301.3 62.2979C301.036 62.4854 300.695 62.5258 300.392 62.4087C300.09 62.2917 299.866 62.0308 299.798 61.715C298.991 58.0597 295.699 55.4067 291.967 55.4067C289.235 55.4067 286.715 56.787 285.222 59.1003C285.061 59.354 284.787 59.5156 284.487 59.5404C284.188 59.5653 283.894 59.4483 283.691 59.2256C282.18 57.5554 280.022 56.5975 277.773 56.5975L275.971 56.8088C275.632 56.8481 275.245 56.7177 275.037 56.4474C274.83 56.1792 274.724 55.8292 274.848 55.5123C275.209 54.5918 275.393 53.6236 275.393 52.6326C275.393 48.2131 271.796 44.6179 267.377 44.6179C265.892 44.6179 264.426 45.0404 263.139 45.8398C262.829 46.0334 262.437 45.9972 262.125 45.8046C261.813 45.613 261.641 45.2237 261.673 44.8581L261.786 43.5834C261.786 41.4431 260.952 39.4311 259.439 37.9172C257.925 36.4033 255.915 35.5697 253.773 35.5697C252.047 35.5697 250.393 36.1217 248.991 37.1665C248.728 37.3622 248.383 37.4119 248.075 37.2959C247.767 37.182 247.538 36.919 247.467 36.598C246.664 32.9634 243.377 30.3249 239.651 30.3249C237.506 30.3249 235.491 31.1616 233.978 32.6797C233.754 32.9023 233.437 33.0038 233.126 32.9489C232.815 32.8951 232.549 32.6921 232.415 32.4073C231.099 29.6063 228.253 27.7963 225.167 27.7963C224.291 27.7963 223.418 27.9443 222.567 28.2343C222.197 28.3606 221.786 28.2519 221.528 27.9557C220.039 26.2586 218.131 24.9342 216.014 24.1244L214.495 23.6377C214.093 23.5093 213.768 23.121 213.768 22.7006V15.8539C213.768 15.3185 214.202 14.8857 214.736 14.8857C214.736 14.8857 219.122 14.8857 220.544 14.8857C220.544 13.6887 220.544 11.132 220.544 9.93604C219.122 9.93604 214.736 9.93604 214.736 9.93604C214.202 9.93604 213.768 9.5032 213.768 8.96785C213.768 8.96785 213.768 5.20693 213.768 3.83594C212.538 3.83594 209.68 3.83594 208.448 3.83594C208.448 5.2059 208.448 8.96785 208.448 8.96785C208.448 9.5032 208.016 9.93604 207.48 9.93604C207.48 9.93604 203.101 9.93604 201.678 9.93604C201.678 11.132 201.678 13.6897 201.678 14.8857C203.101 14.8857 207.48 14.8857 207.48 14.8857C208.015 14.8857 208.448 15.3185 208.448 15.8539V22.7006C208.448 23.122 208.123 23.5104 207.722 23.6388L206.205 24.1254C204.086 24.9342 202.18 26.2596 200.688 27.9568C200.428 28.2519 200.018 28.3616 199.647 28.2343C198.8 27.9443 197.926 27.7963 197.05 27.7963C193.962 27.7963 191.116 29.6063 189.801 32.4073C189.668 32.6921 189.403 32.8951 189.091 32.9489C188.779 33.0027 188.462 32.9023 188.239 32.6797C186.724 31.1616 184.709 30.3249 182.565 30.3249C178.84 30.3249 175.553 32.9634 174.747 36.598C174.676 36.919 174.447 37.182 174.139 37.2959C173.831 37.4098 173.486 37.3601 173.222 37.1634C171.827 36.1196 170.174 35.5687 168.443 35.5687C164.026 35.5687 160.433 39.1639 160.433 43.5814L160.55 44.8426C160.584 45.2092 160.413 45.6027 160.1 45.7963C159.788 45.9899 159.4 46.0313 159.087 45.8387C157.792 45.0383 156.324 44.6158 154.841 44.6158C150.421 44.6158 146.826 48.2111 146.826 52.6306C146.826 53.6143 147.01 54.5835 147.373 55.5123C147.496 55.8292 147.39 56.1771 147.182 56.4464C146.975 56.7156 146.587 56.8461 146.249 56.8067L144.442 56.5955C142.197 56.5955 140.041 57.5533 138.525 59.2246C138.322 59.4472 138.028 59.5642 137.726 59.5383C137.426 59.5135 137.155 59.3499 136.992 59.0962C135.507 56.785 132.991 55.4047 130.258 55.4047C126.514 55.4047 123.224 58.0555 122.436 61.7087C122.368 62.0256 122.145 62.2865 121.844 62.4046C121.542 62.5226 121.201 62.4833 120.936 62.2969C119.576 61.3484 117.989 60.8462 116.343 60.8462C111.926 60.8462 108.333 64.4414 108.333 68.8609L108.442 70.1035C108.473 70.4535 108.316 70.8273 108.025 71.0251C107.734 71.2229 107.363 71.2809 107.05 71.1214C105.898 70.5384 104.674 70.2423 103.411 70.2423C98.9924 70.2423 95.3972 73.8375 95.3972 78.256C95.3972 79.4074 95.6385 80.5227 96.1137 81.5706C96.2691 81.9123 96.2121 82.312 95.9698 82.5978C95.7265 82.8826 95.3402 83.0027 94.9778 82.9043C94.2809 82.7138 93.5747 82.6175 92.8809 82.6175C88.4635 82.6175 84.8703 86.2117 84.8703 90.6281C84.8703 92.2155 85.3353 93.749 86.2123 95.0641C86.4018 95.3479 86.4277 95.7103 86.2817 96.0178C86.1347 96.3254 85.8375 96.5345 85.4989 96.5656C81.3673 96.9591 78.2504 100.385 78.2504 104.536C78.2504 107.011 79.3729 109.308 81.33 110.842C81.6261 111.074 81.7608 111.457 81.6748 111.824C81.5899 112.19 81.3 112.474 80.9324 112.552C77.2522 113.327 74.5817 116.622 74.5817 120.387C74.5817 121.804 74.9544 123.195 75.6596 124.41C75.9206 124.861 75.7797 125.435 75.3396 125.714C73.5855 126.825 72.4175 128.575 72.0519 130.64C71.6315 133.013 72.2963 135.485 73.9252 137.602C74.241 138.013 74.1768 138.6 73.7802 138.934C72.4765 140.027 71.8303 141.472 71.8604 143.227C71.9142 146.335 74.0732 149.626 76.1774 151.272C78.5238 153.106 83.1887 155.69 88.0555 152.397C88.4014 152.163 88.858 152.178 89.1894 152.433C93.117 155.46 98.2862 156.397 103.017 154.939C103.385 154.826 103.784 154.941 104.035 155.232C104.287 155.523 104.342 155.934 104.176 156.282C103.65 157.387 103.649 158.66 104.177 159.777C104.66 160.812 105.483 161.583 106.496 161.951C107.453 162.299 108.503 162.245 109.455 161.801C141.34 146.768 175.539 139.146 211.105 139.146C246.675 139.146 280.888 146.768 312.8 161.798C314.801 162.604 317.111 161.753 318.041 159.774C318.564 158.663 318.56 157.39 318.033 156.28C317.867 155.933 317.924 155.522 318.175 155.231C318.426 154.94 318.825 154.825 319.192 154.938C323.923 156.394 329.095 155.457 333.027 152.432C333.357 152.177 333.814 152.163 334.161 152.396C339.02 155.687 343.687 153.104 346.036 151.271C348.139 149.626 350.297 146.336 350.351 143.229C350.389 141.477 349.743 140.032 348.438 138.938ZM345.349 120.391C345.349 123.548 342.785 126.116 339.633 126.116C336.474 126.116 333.906 123.548 333.906 120.391C333.906 117.239 336.474 114.674 339.633 114.674C342.785 114.674 345.349 117.239 345.349 120.391ZM335.959 98.8219C339.115 98.8219 341.682 101.387 341.682 104.539C341.682 107.697 339.115 110.267 335.959 110.267C332.805 110.267 330.24 107.698 330.24 104.539C330.239 101.386 332.805 98.8219 335.959 98.8219ZM329.337 84.907C332.494 84.907 335.061 87.475 335.061 90.6322C335.061 93.7874 332.494 96.3533 329.337 96.3533C326.18 96.3533 323.613 93.7863 323.613 90.6322C323.613 87.475 326.18 84.907 329.337 84.907ZM318.817 72.538C321.97 72.538 324.534 75.105 324.534 78.2591C324.534 81.4153 321.969 83.9833 318.817 83.9833C315.66 83.9833 313.091 81.4153 313.091 78.2591C313.091 75.1039 315.66 72.538 318.817 72.538ZM305.874 63.1408C309.032 63.1408 311.601 65.7078 311.601 68.8651C311.601 72.0202 309.032 74.5872 305.874 74.5872C302.722 74.5872 300.157 72.0202 300.157 68.8651C300.157 65.7078 302.722 63.1408 305.874 63.1408ZM291.967 57.7014C295.122 57.7014 297.686 60.2663 297.686 63.4184C297.686 66.5766 295.12 69.1457 291.967 69.1457C288.809 69.1457 286.241 66.5766 286.241 63.4184C286.241 60.2663 288.809 57.7014 291.967 57.7014ZM284.739 72.8455C287.893 72.8455 290.459 75.4135 290.459 78.5708C290.459 81.7259 287.892 84.2919 284.739 84.2919C281.582 84.2919 279.016 81.7249 279.016 78.5708C279.015 75.4135 281.582 72.8455 284.739 72.8455ZM274.48 105.401C276.607 104.142 279.099 103.787 281.496 104.403C283.892 105.018 285.902 106.53 287.161 108.658C288.42 110.785 288.771 113.275 288.155 115.67C287.538 118.069 286.026 120.082 283.899 121.339C281.772 122.594 279.282 122.946 276.887 122.329C274.492 121.713 272.481 120.201 271.224 118.073C270.373 116.63 269.937 115.021 269.937 113.388C269.937 112.614 270.036 111.835 270.232 111.066C270.844 108.672 272.353 106.661 274.48 105.401ZM288.419 100.154C285.26 100.154 282.694 97.5866 282.694 94.4314C282.694 91.2773 285.26 88.7103 288.419 88.7103C291.575 88.7103 294.142 91.2773 294.142 94.4314C294.143 97.5876 291.575 100.154 288.419 100.154ZM277.774 58.887C279.301 58.887 280.735 59.4814 281.817 60.5625C282.899 61.6435 283.493 63.0818 283.493 64.6123C283.493 67.7643 280.927 70.3292 277.774 70.3292C274.618 70.3292 272.051 67.7643 272.051 64.6123C272.051 61.4551 274.618 58.887 277.774 58.887ZM267.379 46.9094C270.536 46.9094 273.103 49.4775 273.103 52.6326C273.103 55.7888 270.536 58.3558 267.379 58.3558C264.224 58.3558 261.659 55.7888 261.659 52.6326C261.659 49.4775 264.224 46.9094 267.379 46.9094ZM253.775 37.8603C256.931 37.8603 259.5 40.4272 259.5 43.5834C259.5 46.7365 256.931 49.3025 253.775 49.3025C250.621 49.3025 248.056 46.7365 248.056 43.5834C248.056 40.4283 250.621 37.8603 253.775 37.8603ZM239.654 32.6186C242.811 32.6186 245.379 35.1856 245.379 38.3397C245.379 41.4938 242.811 44.0587 239.654 44.0587C236.502 44.0587 233.939 41.4928 233.939 38.3397C233.939 35.1856 236.502 32.6186 239.654 32.6186ZM221.131 31.7612C222.209 30.6812 223.643 30.0868 225.17 30.0868C228.329 30.0868 230.897 32.6538 230.897 35.8079C230.897 38.9631 228.329 41.53 225.17 41.53C222.02 41.53 219.456 38.9631 219.456 35.8079C219.457 34.2795 220.051 32.8422 221.131 31.7612ZM211.113 43.8692C214.27 43.8692 216.836 46.4373 216.836 49.5935C216.836 52.7476 214.269 55.3146 211.113 55.3146C207.957 55.3146 205.39 52.7476 205.39 49.5935C205.39 46.4373 207.957 43.8692 211.113 43.8692ZM205.39 81.7704C205.39 78.6163 207.957 76.0493 211.113 76.0493C214.27 76.0493 216.836 78.6163 216.836 81.7704C216.836 84.9246 214.269 87.4905 211.113 87.4905C207.957 87.4916 205.39 84.9256 205.39 81.7704ZM220.367 104.756C220.367 109.859 216.217 114.012 211.113 114.012C206.011 114.012 201.861 109.86 201.861 104.756C201.861 99.6534 206.011 95.5021 211.113 95.5021C216.217 95.5021 220.367 99.6534 220.367 104.756ZM211.113 71.4062C207.957 71.4062 205.39 68.8381 205.39 65.6799C205.39 62.5237 207.957 59.9567 211.113 59.9567C214.27 59.9567 216.836 62.5237 216.836 65.6799C216.837 68.8381 214.27 71.4062 211.113 71.4062ZM197.055 30.0868C200.21 30.0868 202.777 32.6538 202.777 35.8079C202.777 38.9631 200.21 41.53 197.055 41.53C193.897 41.53 191.327 38.9631 191.327 35.8079C191.327 32.6538 193.897 30.0868 197.055 30.0868ZM178.529 34.294C179.609 33.214 181.045 32.6196 182.571 32.6196C185.727 32.6196 188.293 35.1866 188.293 38.3407C188.293 41.4948 185.726 44.0598 182.571 44.0598C179.417 44.0598 176.852 41.4938 176.852 38.3407C176.852 36.8113 177.448 35.374 178.529 34.294ZM168.449 37.8603C171.603 37.8603 174.17 40.4272 174.17 43.5834C174.17 46.7365 171.603 49.3025 168.449 49.3025C165.293 49.3025 162.726 46.7365 162.726 43.5834C162.726 40.4283 165.293 37.8603 168.449 37.8603ZM154.848 46.9094C156.374 46.9094 157.811 47.5049 158.891 48.5859C159.97 49.668 160.565 51.1053 160.565 52.6326C160.565 55.7888 158 58.3558 154.848 58.3558C151.691 58.3558 149.123 55.7888 149.123 52.6326C149.122 49.4775 151.691 46.9094 154.848 46.9094ZM144.451 58.887C147.607 58.887 150.175 61.4551 150.175 64.6112C150.175 67.7633 147.608 70.3282 144.451 70.3282C141.299 70.3282 138.734 67.7633 138.734 64.6112C138.734 61.4551 141.298 58.887 144.451 58.887ZM140.733 104.403C145.674 103.132 150.73 106.12 152.003 111.065C153.274 116.002 150.288 121.055 145.346 122.33C142.95 122.947 140.458 122.595 138.329 121.338C136.2 120.081 134.687 118.068 134.071 115.67C132.802 110.727 135.792 105.672 140.733 104.403ZM128.089 94.4314C128.089 91.2773 130.654 88.7103 133.806 88.7103C136.961 88.7103 139.529 91.2773 139.529 94.4314C139.529 97.5866 136.961 100.154 133.806 100.154C130.654 100.154 128.089 97.5876 128.089 94.4314ZM137.488 72.8455C140.642 72.8455 143.209 75.4135 143.209 78.5708C143.209 81.7259 140.642 84.2919 137.488 84.2919C134.333 84.2919 131.766 81.7249 131.766 78.5708C131.766 77.0424 132.362 75.6051 133.444 74.523C134.527 73.4409 135.962 72.8455 137.488 72.8455ZM130.266 57.7014C131.794 57.7014 133.229 58.2958 134.309 59.3758C135.389 60.4558 135.984 61.891 135.984 63.4184C135.984 66.5766 133.42 69.1457 130.268 69.1457C127.11 69.1457 124.541 66.5766 124.541 63.4184C124.54 60.2663 127.108 57.7014 130.266 57.7014ZM116.35 63.1408C119.503 63.1408 122.067 65.7078 122.067 68.8651C122.067 72.0202 119.503 74.5872 116.35 74.5872C113.193 74.5872 110.624 72.0202 110.624 68.8651C110.624 65.7078 113.193 63.1408 116.35 63.1408ZM103.418 72.538C106.57 72.538 109.135 75.105 109.135 78.2591C109.135 81.4153 106.57 83.9833 103.418 83.9833C100.26 83.9833 97.6908 81.4153 97.6908 78.2591C97.6908 75.1039 100.259 72.538 103.418 72.538ZM92.8882 84.907C96.0454 84.907 98.6145 87.475 98.6145 90.6322C98.6145 93.7874 96.0464 96.3533 92.8882 96.3533C89.7361 96.3533 87.1712 93.7863 87.1712 90.6322C87.1712 87.475 89.7351 84.907 92.8882 84.907ZM92.4181 136.627C92.4181 136.626 92.4181 136.626 92.4181 136.627V136.627ZM80.5461 104.539C80.5461 101.386 83.1141 98.8219 86.2724 98.8219C89.4276 98.8219 91.9956 101.387 91.9956 104.539C91.9956 107.697 89.4276 110.267 86.2724 110.267C83.1141 110.267 80.5461 107.698 80.5461 104.539ZM82.5985 114.674C85.7536 114.674 88.3196 117.239 88.3196 120.391C88.3196 123.548 85.7536 126.116 82.5985 126.116C79.4433 126.116 76.8753 123.548 76.8753 120.391C76.8753 117.239 79.4433 114.674 82.5985 114.674ZM88.7742 149.194C84.307 151.652 78.6646 150.018 76.197 145.55C73.7408 141.079 75.3759 135.44 79.843 132.978C82.0124 131.785 84.5162 131.508 86.8927 132.199C89.266 132.889 91.2283 134.462 92.417 136.627C93.1937 138.037 93.5613 139.564 93.5613 141.071C93.5623 144.336 91.832 147.508 88.7742 149.194ZM129.036 144.953C122.988 147.08 116.946 149.477 111.078 152.077C110.657 152.264 110.163 152.129 109.897 151.753C109.63 151.38 109.663 150.869 109.977 150.531C112.13 148.22 113.623 145.282 114.183 142.255C114.257 141.858 114.613 141.542 115.009 141.472C115.009 141.472 116.065 141.282 116.067 141.282C117.083 141.023 118.032 140.567 118.887 139.928C119.228 139.673 119.696 139.671 120.039 139.923C122.525 141.745 125.628 142.864 128.78 143.073C129.238 143.104 129.612 143.452 129.674 143.908C129.737 144.365 129.47 144.801 129.036 144.953ZM132.571 137.289C128.72 138.277 124.69 136.861 122.3 133.683C122.202 133.552 122.13 133.299 122.107 133.138L121.87 131.474C120.759 127.167 116.356 124.565 112.055 125.674C109.968 126.211 108.216 127.527 107.119 129.383C106.024 131.237 105.717 133.401 106.255 135.485C106.575 136.735 107.175 137.858 108.041 138.824C108.178 138.977 108.263 139.172 108.283 139.377C108.658 143.279 106.686 147.018 103.257 148.908C100.779 150.272 97.8265 150.493 95.158 149.515C94.7956 149.382 94.546 149.046 94.5243 148.659C94.5025 148.274 94.7127 147.912 95.0586 147.739C100.156 145.191 101.5 141.612 99.4201 136.133C98.0864 132.631 96.2867 130.513 94.0686 129.842C93.6337 129.711 93.349 129.293 93.3842 128.84C95.5152 101.605 103.951 88.9444 128.104 76.7317C128.415 76.5743 128.804 76.5681 129.094 76.7607C129.384 76.9544 129.566 77.2588 129.543 77.6067L129.475 78.5697C129.475 81.0456 130.602 83.3444 132.566 84.8769C132.864 85.1089 132.999 85.493 132.913 85.8596C132.827 86.2272 132.537 86.5109 132.168 86.5886C128.475 87.3569 125.794 90.655 125.794 94.4314C125.794 97.9501 128.151 101.106 131.525 102.108C131.8 102.189 132.025 102.388 132.139 102.652C132.253 102.916 132.243 103.217 132.114 103.472C131.46 104.765 131.188 106.327 131.306 108.117C131.332 108.511 131.115 108.882 130.757 109.053C126.488 111.096 125.179 114.323 126.514 119.516C128.116 125.759 131.863 127.788 138.673 126.089C138.948 126.02 139.237 126.074 139.468 126.238C139.699 126.402 139.846 126.657 139.872 126.939C140.312 131.735 137.242 136.087 132.571 137.289ZM158.244 136.667C152.394 137.941 146.584 139.43 140.974 141.091C140.536 141.22 140.066 141.026 139.848 140.624C139.63 140.223 139.722 139.723 140.07 139.426C143.918 136.132 145.886 131.17 145.334 126.153C145.281 125.674 145.589 125.229 146.056 125.109C146.523 124.989 147.006 125.231 147.191 125.675C149.132 130.349 153.261 133.748 158.233 134.772C158.682 134.864 159.004 135.258 159.007 135.716C159.008 136.173 158.69 136.571 158.244 136.667ZM189.792 131.906C183.378 132.453 176.884 133.266 170.49 134.321C170.037 134.396 169.593 134.142 169.428 133.713C169.263 133.283 169.424 132.798 169.811 132.55C172.95 130.545 175.344 127.567 176.553 124.167C176.695 123.767 177.056 123.505 177.481 123.523L177.927 123.54C178.726 123.54 179.516 123.424 180.278 123.195C180.684 123.074 181.122 123.23 181.359 123.582C183.382 126.579 186.455 128.867 190.009 130.021C190.447 130.164 190.725 130.595 190.672 131.053C190.618 131.509 190.251 131.867 189.792 131.906ZM185.647 118.343C185.592 118.162 185.592 117.967 185.647 117.786C185.873 117.034 185.988 116.26 185.988 115.483C185.988 113.329 185.149 111.305 183.628 109.783C182.106 108.26 180.081 107.422 177.927 107.422C173.482 107.422 169.864 111.038 169.864 115.483C169.864 116.879 170.242 118.271 170.954 119.507C171.042 119.66 171.087 119.835 171.084 120.011C170.988 124.378 167.968 128.187 163.739 129.272C159.074 130.474 154.284 128.145 152.349 123.735C152.236 123.476 152.242 123.18 152.364 122.925C152.487 122.67 152.714 122.482 152.988 122.409C159.773 120.605 162.086 117.024 160.483 110.784C159.144 105.593 156.44 103.397 151.712 103.663C151.316 103.685 150.946 103.464 150.779 103.104C149.743 100.877 148.336 99.4422 146.475 98.7174C146.069 98.56 145.82 98.1499 145.863 97.7171C148.599 70.9806 169.235 45.2226 203.385 47.7233C203.913 47.7627 204.309 48.2649 204.276 48.794L204.228 49.5924C204.228 50.9789 204.642 52.3209 205.426 53.4734C205.535 53.634 205.594 53.8234 205.594 54.0181V61.2552C205.594 61.4499 205.535 61.6394 205.426 61.7999C204.642 62.9524 204.228 64.2933 204.228 65.6788C204.228 67.0674 204.642 68.4105 205.426 69.564C205.535 69.7245 205.594 69.914 205.594 70.1087V77.3458C205.594 77.5404 205.535 77.731 205.425 77.8915C204.642 79.0388 204.228 80.3798 204.228 81.7694C204.228 84.4907 205.838 86.9614 208.329 88.0621C208.721 88.235 208.953 88.6451 208.899 89.0696C208.845 89.4942 208.519 89.8328 208.097 89.9032C204.043 90.5752 201.808 92.7519 201.06 96.7499C200.987 97.1382 200.684 97.4447 200.295 97.5214C195.647 98.4367 193.573 101.236 193.573 106.6C193.573 113.041 196.704 115.939 203.725 115.993C204.007 115.994 204.275 116.121 204.458 116.336C204.64 116.552 204.719 116.837 204.673 117.116C203.895 121.869 199.836 125.318 195.022 125.318C190.736 125.319 186.88 122.451 185.647 118.343ZM221.127 130.422C221.022 130.865 220.613 131.175 220.157 131.167L211.113 130.998L202.068 131.167C201.612 131.175 201.204 130.865 201.099 130.422C200.993 129.978 201.203 129.522 201.614 129.326C206.243 127.112 209.435 122.771 210.155 117.715C210.223 117.238 210.631 116.883 211.114 116.883C211.596 116.883 212.003 117.237 212.073 117.715C212.791 122.769 215.984 127.109 220.613 129.326C221.024 129.521 221.232 129.978 221.127 130.422ZM252.802 133.712C252.638 134.142 252.195 134.396 251.74 134.321C245.351 133.266 238.856 132.454 232.434 131.906C231.975 131.867 231.605 131.509 231.553 131.052C231.5 130.594 231.778 130.162 232.215 130.02C235.766 128.867 238.84 126.578 240.876 123.579C241.117 123.228 241.554 123.072 241.96 123.195C242.711 123.423 243.497 123.539 244.298 123.539L244.744 123.522C245.166 123.504 245.529 123.765 245.671 124.165C246.886 127.571 249.282 130.55 252.42 132.549C252.806 132.796 252.966 133.282 252.802 133.712ZM258.486 129.273C254.261 128.188 251.24 124.38 251.142 120.013C251.139 119.835 251.184 119.658 251.274 119.504C251.982 118.289 252.357 116.899 252.357 115.483C252.357 111.039 248.741 107.422 244.298 107.422C239.854 107.422 236.238 111.038 236.238 115.483C236.238 116.266 236.353 117.037 236.583 117.778C236.641 117.963 236.641 118.16 236.584 118.345C235.323 122.517 231.552 125.319 227.199 125.319C222.385 125.319 218.331 121.869 217.557 117.116C217.511 116.836 217.59 116.552 217.772 116.336C217.955 116.12 218.223 115.995 218.504 115.993C225.521 115.939 228.648 113.041 228.648 106.6C228.648 101.237 226.576 98.4367 221.929 97.5214C221.538 97.4447 221.236 97.1382 221.162 96.7499C220.415 92.7519 218.18 90.5763 214.127 89.9032C213.706 89.8328 213.38 89.4942 213.326 89.0696C213.272 88.6451 213.503 88.2361 213.895 88.0621C216.387 86.9603 217.997 84.4896 217.997 81.7694C217.997 80.3725 217.585 79.0326 216.803 77.8935C216.692 77.732 216.633 77.5415 216.633 77.3458V70.1087C216.633 69.914 216.692 69.7224 216.803 69.5619C217.585 68.4167 217.997 67.0736 217.997 65.6788C217.997 64.2861 217.585 62.9451 216.803 61.8009C216.692 61.6404 216.633 61.4499 216.633 61.2552V54.0181C216.633 53.8234 216.692 53.6319 216.803 53.4714C217.585 52.3282 217.997 50.9862 217.997 49.5924L217.95 48.8158C217.918 48.2867 218.312 47.7617 218.84 47.7233C252.989 45.2226 273.626 70.9816 276.36 97.7171C276.405 98.1499 276.154 98.56 275.748 98.7174C273.9 99.4381 272.492 100.874 271.449 103.106C271.28 103.465 270.912 103.685 270.517 103.663C265.791 103.397 263.084 105.593 261.747 110.783C260.142 117.024 262.455 120.61 269.241 122.409C269.515 122.482 269.743 122.67 269.866 122.926C269.989 123.181 269.994 123.477 269.88 123.736C267.941 128.146 263.15 130.474 258.486 129.273ZM282.377 140.626C282.155 141.029 281.689 141.221 281.251 141.092C275.646 139.431 269.837 137.942 263.984 136.668C263.538 136.571 263.219 136.174 263.222 135.718C263.225 135.26 263.546 134.867 263.996 134.774C268.973 133.75 273.099 130.35 275.035 125.679C275.219 125.233 275.703 124.991 276.17 125.111C276.636 125.23 276.943 125.674 276.892 126.154C276.345 131.169 278.312 136.132 282.158 139.428C282.504 139.725 282.594 140.225 282.377 140.626ZM312.326 151.753C312.059 152.127 311.567 152.262 311.146 152.076C305.257 149.469 299.216 147.072 293.187 144.954C292.753 144.802 292.486 144.366 292.548 143.911C292.611 143.455 292.985 143.106 293.444 143.075C296.634 142.864 299.66 141.774 302.192 139.924C302.536 139.672 303.006 139.675 303.345 139.932C304.191 140.569 305.136 141.024 306.161 141.285L307.216 141.474C307.612 141.544 307.966 141.86 308.039 142.256C308.609 145.286 310.102 148.225 312.247 150.534C312.561 150.869 312.593 151.38 312.326 151.753ZM328.155 129.842C325.95 130.511 324.151 132.628 322.805 136.133C320.726 141.612 322.073 145.191 327.174 147.739C327.52 147.912 327.73 148.273 327.709 148.659C327.687 149.046 327.438 149.381 327.076 149.515C324.4 150.494 321.447 150.272 318.974 148.908C315.54 147.016 313.567 143.275 313.948 139.376C313.968 139.171 314.052 138.978 314.189 138.825C315.049 137.862 315.65 136.738 315.974 135.482C316.514 133.403 316.208 131.239 315.116 129.388C314.019 127.53 312.264 126.211 310.171 125.674C305.875 124.566 301.472 127.169 300.359 131.461L300.122 133.14C300.099 133.303 300.026 133.552 299.927 133.683C297.532 136.861 293.502 138.276 289.652 137.287C284.991 136.086 281.92 131.736 282.351 126.942C282.375 126.66 282.523 126.403 282.753 126.239C282.982 126.075 283.274 126.02 283.549 126.089C290.363 127.788 294.117 125.761 295.719 119.516C297.054 114.326 295.743 111.1 291.47 109.053C291.112 108.882 290.896 108.512 290.923 108.117C291.042 106.289 290.777 104.772 290.115 103.475C289.984 103.219 289.974 102.918 290.088 102.653C290.201 102.389 290.427 102.188 290.703 102.107C294.079 101.105 296.436 97.948 296.436 94.4304C296.436 90.655 293.755 87.3569 290.062 86.5876C289.692 86.5109 289.4 86.2262 289.313 85.8586C289.231 85.492 289.366 85.1078 289.663 84.8759C291.627 83.3465 292.751 81.0477 292.751 78.5687L292.686 77.6181C292.663 77.2712 292.845 76.9585 293.136 76.7669C293.426 76.5743 293.817 76.5743 294.126 76.7307C318.275 88.9423 326.71 101.604 328.838 128.839C328.875 129.293 328.591 129.711 328.155 129.842ZM346.029 145.551C343.567 150.02 337.927 151.654 333.452 149.194C331.283 147.998 329.711 146.028 329.025 143.651C328.78 142.802 328.658 141.936 328.658 141.075C328.658 139.536 329.047 138.011 329.813 136.626C330.999 134.46 332.964 132.888 335.338 132.198C337.716 131.507 340.215 131.785 342.38 132.977C344.547 134.165 346.118 136.127 346.807 138.499C347.499 140.874 347.224 143.379 346.029 145.551Z" fill="#FEBE10"/>
<path id="real-path111" d="M309.717 168.562C309.974 169.62 310.954 173.64 311.136 174.384C310.465 174.758 306.587 176.917 305.499 177.524C305.186 176.302 303.991 171.629 303.766 170.749C304.609 170.44 308.691 168.939 309.717 168.562Z" fill="#EE324E"/>
<path id="real-path113" d="M1.41406 378.4C1.41406 493.968 95.4837 587.989 211.112 587.989C326.741 587.989 420.812 493.968 420.812 378.4C420.812 262.712 326.741 168.594 211.112 168.594C95.4847 168.594 1.41406 262.712 1.41406 378.4Z" fill="#00529F"/>
<path id="real-path115" d="M7.35938 378.4C7.35938 434.547 30.2045 485.443 67.1044 522.327C104.009 559.208 154.93 582.043 211.112 582.043C267.288 582.043 318.213 559.208 355.118 522.327C392.019 485.443 414.863 434.547 414.863 378.4C414.863 322.191 392.018 271.241 355.118 234.316C318.212 197.397 267.288 174.539 211.112 174.539C154.934 174.539 104.009 197.397 67.1064 234.316C30.2066 271.241 7.35938 322.191 7.35938 378.4Z" fill="#FEBE10"/>
<path id="real-path117" d="M25.2188 378.294C25.2229 275.784 108.605 192.404 211.116 192.398C313.627 192.404 397.007 275.784 397.011 378.294C397.007 480.807 313.627 564.188 211.116 564.193C108.605 564.188 25.2229 480.807 25.2188 378.294Z" fill="#00529F"/>
<path id="real-path119" d="M31.1641 378.291C31.1641 279.068 111.889 198.344 211.114 198.344C310.338 198.344 391.063 279.068 391.063 378.291C391.063 477.516 310.338 558.243 211.114 558.243C111.889 558.243 31.1641 477.516 31.1641 378.291Z" fill="white"/>
<path id="real-path121" d="M383.604 377.635C383.604 314.858 349.314 256.841 294.115 226.226L292.963 225.586C292.963 225.586 253.788 266.293 252.801 267.318C252.716 267.318 252.596 267.318 252.596 267.318C252.596 267.318 251.989 267.925 251.952 267.964C239.105 263.196 225.391 260.635 211.14 260.433C211.14 260.433 211.139 260.433 211.138 260.433C196.59 260.433 181.54 263.129 168.525 267.959C167.09 266.461 128.371 226.024 128.371 226.024L127.213 226.672C126.798 226.905 126.394 227.154 125.981 227.389L125.913 227.317C94.5277 245.129 69.243 272.481 54.0222 305.407C54.0512 305.437 54.0812 305.467 54.1102 305.496C43.7822 327.793 38.1719 352.34 38.1719 377.636C38.1719 418.904 52.9909 457.387 81.0259 488.928L82.2477 490.302L105.186 466.866L103.923 465.668C91.504 453.883 68.6403 421.077 68.6403 379.56C68.6403 378.424 68.6569 377.282 68.6921 376.13C69.2761 359.46 72.2262 343.849 77.5021 329.349C83.9159 335.887 90.3163 342.414 96.696 348.916C94.6809 356.867 93.575 365.002 93.4725 373.171C93.4663 373.656 93.4632 374.141 93.4632 374.625C93.4632 427.148 129.808 474.232 180.531 487.507C180.531 489.846 180.531 517.045 180.531 517.045H212.386C212.386 517.045 212.386 494.116 212.386 491.217C219.545 491.061 226.708 490.194 233.749 488.686C249.058 504.32 264.444 520.038 279.969 535.916C312.651 521.597 340.086 497.453 358.499 467.23L358.472 467.202C374.805 440.408 383.604 409.442 383.604 377.635ZM180.532 452.004C147.898 440.178 126.952 412.012 126.236 379.026C144.375 397.515 162.444 415.936 180.532 434.383C180.532 443.738 180.532 450.703 180.532 452.004ZM210.869 311.644C208.918 309.652 196.96 297.442 193.671 294.083C199.557 292.951 205.512 292.331 209.481 292.512C215.771 292.707 221.488 293.44 226.917 294.676C223.874 297.895 212.775 309.63 210.869 311.644ZM333.71 441.658L231.777 336.518C244.043 323.561 257.354 309.499 258.404 308.391C269.107 315.941 277.794 325.825 283.542 337.101L284.536 339.049L310.152 316.922L309.416 315.686C302.447 303.995 292.744 293.265 281.379 284.449C283.51 282.267 296.599 268.87 298.345 267.082C324.75 286.053 351.093 329.116 351.093 376.078C351.095 403.585 344.729 423.494 333.71 441.658Z" fill="#00529F"/>
<path id="real-path123" d="M294.023 233.055C286.959 240.397 256.072 272.492 256.072 272.492L255.327 273.264H255.058C254.822 273.499 254.624 273.697 254.624 273.697L253.469 274.852L251.943 274.271L250.905 273.874C238.412 269.099 225.011 266.575 211.113 266.376C197.134 266.371 181.891 269.126 169.545 273.871L166.917 274.878L165.759 273.67C165.759 273.67 134.435 240.959 127.305 233.511C75.9162 263.568 44.1141 318.482 44.1172 377.632C44.1244 415.951 57.3705 451.707 82.5165 481.517C86.1583 477.797 93.3654 470.435 96.8218 466.902C83.3055 452.415 62.7364 420.102 62.6888 379.536C62.6888 378.343 62.7074 377.142 62.7447 375.927C64.3342 329.685 83.5696 290.992 119.6 261.531L122.614 259.061L148.192 285.515L144.372 288.397C116.588 309.345 99.8082 341.129 99.4178 373.241C99.4126 373.7 99.4095 374.163 99.4095 374.62C99.3909 424.865 134.516 470.002 183.264 482.116L186.477 482.914V484.884C186.477 484.907 186.477 503.812 186.477 511.096C191.42 511.096 201.495 511.096 206.437 511.096C206.437 508.308 206.437 503.869 206.437 499.614C206.437 493.547 206.437 487.867 206.437 487.857V485.353L210.644 485.33C241.657 485.154 273.059 470.783 293.296 447.785C289.66 444.11 281.534 435.897 277.666 431.988C258.146 453.01 231.112 463.805 212.681 463.862C211.919 463.862 211.177 463.844 210.45 463.81L206.436 463.601V433.141H208.954C208.983 433.141 233.023 433.141 241.296 433.143C241.296 428.703 241.296 420.281 241.296 415.84C233.016 415.84 208.954 415.84 208.954 415.843H206.436V391.163H208.954C208.954 391.163 233.395 391.163 241.744 391.167C241.744 387.216 241.744 380.258 241.744 376.309C231.744 376.309 196.477 376.309 186.476 376.309C186.476 390.433 186.476 456.853 186.476 456.853V460.345L180.906 458.489C144.012 446.219 120.229 414.392 120.25 377.281C120.25 376.704 120.255 376.123 120.269 375.541C120.909 345.727 135.19 318.856 159.389 301.98L162.342 299.919L163.833 301.456C163.833 301.456 201.791 340.618 210.852 349.964C219.668 340.652 256.119 302.148 256.119 302.148L257.592 300.593L260.571 302.617C271.123 309.787 279.886 319.093 286.219 329.732C290.495 326.04 298.728 318.927 302.389 315.764C295.677 305.373 286.744 295.787 276.309 287.967L272.449 285.072L297.633 259.293L300.575 261.326C328.859 280.966 356.968 326.272 357.039 376.075C357.083 415.72 343.546 441.448 323.412 466.179C327.185 469.954 335.953 478.728 340.067 482.844C364.322 453.26 377.654 416.089 377.652 377.634C377.653 318.098 345.684 263.015 294.023 233.055ZM212.736 318.315L210.939 320.212L181.902 290.564L189.294 288.891C195.893 287.402 202.741 286.53 207.941 286.527C208.554 286.527 209.151 286.538 209.689 286.564C217.487 286.804 224.578 287.794 231.306 289.597L238.165 291.434L212.736 318.315Z" fill="#FEBE10"/>
</g>

</svg>
