<svg width="224" height="46" viewBox="0 0 224 46" fill="none" xmlns="http://www.w3.org/2000/svg">
<path d="M10.2065 42.7323L10.7257 43.5752L7.30816 45.6806L6.7889 44.8377L7.95363 44.1202L2.47788 35.2314L1.31315 35.9489L0.793894 35.106L4.30341 32.9441L11.3883 38.1989L9.86654 29.517L13.2841 27.4117L13.8034 28.2546L12.654 28.9626L18.1297 37.8514L19.2791 37.1433L19.7984 37.9862L15.6299 40.5541L15.1106 39.7112L16.26 39.0032L11.1525 30.7121L12.8397 40.3491L11.8282 40.9722L3.95539 35.1246L9.07239 43.431L10.2065 42.7323ZM24.4887 35.6848C22.3107 36.8414 19.7619 36.3402 18.293 33.574C16.9085 30.9668 17.8468 28.512 19.8976 27.423C22.3299 26.1314 24.3048 27.2022 25.377 29.2212L25.6893 29.8094L20.2842 32.6797L20.4108 32.9182C21.3901 34.7623 22.7441 35.4699 24.2862 34.651C25.701 33.8997 25.8513 32.8009 25.6637 31.7184L26.4898 31.5854C26.9167 33.2337 26.2533 34.7477 24.4887 35.6848ZM20.3038 28.2263C19.1433 28.8426 19.0561 30.2136 19.9212 31.9961L23.4027 30.1473C22.5838 28.6052 21.5279 27.5763 20.3038 28.2263ZM34.527 27.5967C34.9591 29.5627 34.0593 30.9441 32.5624 31.6522C30.4796 32.6373 27.997 32.0195 26.6809 29.237C25.3341 26.3895 26.5691 24.0331 28.6194 23.0634C30.4092 22.2168 31.9843 22.7262 32.4846 23.7839C32.8001 24.451 32.626 25.0511 31.9914 25.3513C31.4707 25.5976 30.8612 25.4876 30.5687 24.8693C30.384 24.4788 30.4673 23.9814 30.8202 23.6751C30.4453 23.5139 29.9539 23.5273 29.3356 23.8198C27.985 24.4586 27.604 26.0526 28.6661 28.2981C29.7513 30.5924 31.179 31.2113 32.4645 30.6033C33.5384 30.0953 33.9371 29.17 33.7033 27.7076L34.527 27.5967ZM42.7084 27.0478L38.2207 28.9135L37.8407 27.9993L39.1205 27.4673L36.3842 20.8854L35.603 21.2102C34.4063 21.7077 34.2825 22.4414 34.8007 23.688L35.0495 24.2863L34.1187 24.6733L32.7436 21.3657L41.2203 17.8417L42.5953 21.1492L41.6646 21.5362L41.4158 20.9378C40.8976 19.6913 40.2901 19.2616 39.0934 19.7591L38.3288 20.0769L41.0651 26.6588L42.3283 26.1336L42.7084 27.0478ZM49.7504 24.5959C47.4617 25.4124 44.9375 24.4974 43.9274 21.6662C42.9053 18.8011 44.2864 16.5119 46.5751 15.6954C48.813 14.897 51.3481 15.789 52.3702 18.6542C53.3863 21.5023 51.9883 23.7976 49.7504 24.5959ZM46.9078 16.6278C45.5006 17.1298 45.2337 18.7922 45.9958 20.9283C46.7457 23.0305 48.0106 24.1655 49.4178 23.6635C50.791 23.1736 51.058 21.5112 50.3019 19.3921C49.5398 17.2559 48.281 16.1379 46.9078 16.6278ZM62.1052 12.0957L59.2077 12.8961C60.174 16.3266 60.4286 18.8707 60.1244 20.0004L63.9935 18.9316L62.1052 12.0957ZM66.0235 18.3709L67.6024 17.9347L68.5753 21.4568L67.6037 21.7252L67.4839 21.2915C67.1052 19.9208 66.3044 19.3203 64.7603 19.7469L61.1688 20.739C59.6246 21.1656 59.2456 22.0919 59.6242 23.4626L59.7441 23.8964L58.7724 24.1648L57.7995 20.6427L58.9099 20.3359C59.4312 18.9781 59.1455 16.592 58.2014 13.174L57.0389 13.4952L56.7753 12.5409L65.034 10.2595L65.2976 11.2138L64.1351 11.5349L66.0235 18.3709ZM69.9655 10.1491C71.3777 16.5655 70.7218 18.4424 69.2452 18.7674C68.3838 18.957 67.8732 18.4796 67.7533 17.9346C67.6063 17.2666 67.9666 16.7265 68.6522 16.5756C68.9862 16.5021 69.316 16.577 69.5713 16.8157C69.8528 15.6663 69.6828 13.8053 68.9283 10.3774L67.6626 10.656L67.4498 9.6891L75.4659 7.92474L75.6787 8.8916L74.5185 9.14697L76.0429 16.0732L77.2032 15.8178L77.416 16.7847L73.0388 17.7481L72.8259 16.7812L73.9862 16.5259L72.4617 9.59967L69.9655 10.1491ZM83.6125 10.8346L83.0694 7.54922L81.5244 7.80462C80.4233 7.98663 79.8454 8.68423 80.0332 9.82081C80.1947 10.7976 80.9487 11.275 82.0497 11.093L83.6125 10.8346ZM81.3796 14.3235C81.1382 15.6223 80.7554 16.3971 79.5834 16.5908C78.2514 16.811 77.4238 16.1086 77.0921 14.1018L78.051 13.9433C78.2888 15.3818 78.5698 15.536 78.8717 15.4861C79.1558 15.4391 79.2214 15.0634 79.3467 14.2764C79.5526 12.9835 79.7574 12.5666 81.1847 11.8198C79.4415 11.9802 78.1106 11.434 77.8669 9.95998C77.6203 8.46823 78.7315 7.35409 81.3954 6.91374L86.1903 6.12111L86.3517 7.09785L85.1619 7.29454L86.3185 14.2916L87.5084 14.0949L87.6699 15.0716L83.2656 15.7997L83.1042 14.8229L84.2407 14.6351L83.7564 11.7048L82.8506 11.8545C81.7496 12.0366 81.6865 12.7585 81.3796 14.3235ZM92.4103 14.4843L92.3209 13.4984L93.5219 13.3894L92.8812 6.32644L91.6802 6.43539L91.5907 5.44944L96.2157 5.02989C98.2235 4.84776 100.067 5.04205 100.234 6.88847C100.354 8.21502 99.3488 8.88461 98.4117 9.11421C99.6421 9.12911 101.039 9.5808 101.177 11.1045C101.387 13.417 99.0072 13.8859 97.1429 14.055L92.4103 14.4843ZM96.1373 5.95877L94.9721 6.06447L95.2453 9.07611L96.4284 8.96878C97.5937 8.86308 98.2032 8.41016 98.1057 7.33458C98.0049 6.22314 97.3563 5.8482 96.1373 5.95877ZM95.6258 13.2709L96.8627 13.1587C98.261 13.0318 99.1264 12.6099 99.0061 11.2834C98.8744 9.83134 97.9211 9.68286 96.5587 9.80644L95.3217 9.91865L95.6258 13.2709ZM109.862 13.4929C108.675 13.5404 108.018 12.882 107.85 11.8439C107.289 13.1273 106.355 13.633 105.078 13.684C103.351 13.753 102.271 12.8774 102.21 11.3306C102.138 9.55005 103.459 8.32638 106.822 8.19204L107.541 8.16331L107.503 7.21007C107.445 5.75323 106.68 5.08124 105.385 5.13297C104.737 5.15883 104.203 5.30628 103.84 5.69906C104.296 5.84297 104.509 6.21277 104.522 6.53651C104.546 7.13004 104.148 7.54225 103.5 7.56811C102.835 7.59469 102.405 7.19754 102.381 6.60401C102.329 5.30905 103.801 4.27748 105.96 4.19127C108.334 4.09644 109.529 5.14759 109.618 7.3958L109.774 11.2987C109.802 11.9821 110.045 12.2246 110.423 12.2095C110.837 12.193 111.055 11.788 111.012 10.7268L111.786 10.6959C111.859 12.5305 111.265 13.4369 109.862 13.4929ZM105.872 12.3733C106.915 12.3316 107.668 11.3288 107.633 10.4655L107.572 8.93669L106.889 8.96399C105.216 9.0308 104.325 9.71492 104.372 10.902C104.41 11.8552 104.955 12.4099 105.872 12.3733ZM111.942 13.2597L111.966 12.27L113.172 12.2993L113.345 5.20942L112.139 5.18007L112.163 4.19036L116.446 4.29462L116.422 5.28433L115.45 5.26067L115.277 12.3506L118.301 12.4242L118.473 5.33427L117.501 5.31061L117.526 4.32091L121.556 4.41903L121.532 5.40874L120.579 5.38552L120.406 12.4754L123.429 12.549L123.602 5.45912L122.648 5.4359L122.672 4.44619L126.937 4.55002L126.913 5.53972L125.707 5.51037L125.534 12.6003L126.74 12.6296L126.716 13.6193L111.942 13.2597ZM131.984 14.2425C129.528 14.028 127.662 12.2209 127.934 9.10072C128.191 6.15991 130.314 4.61067 132.627 4.81262C135.37 5.05215 136.445 7.02508 136.246 9.30242L136.188 9.9659L130.091 9.43361L130.068 9.70259C129.886 11.7827 130.637 13.113 132.377 13.2649C133.973 13.4042 134.697 12.564 135.128 11.5537L135.894 11.8916C135.355 13.5069 133.975 14.4162 131.984 14.2425ZM132.531 5.70765C131.222 5.59336 130.403 6.69631 130.159 8.66254L134.086 9.0054C134.238 7.26601 133.911 5.82819 132.531 5.70765ZM141.048 14.1193L140.91 15.0995L136.632 14.4944L136.771 13.5142L137.965 13.6831L138.959 6.66102L137.764 6.49209L137.903 5.51185L142.181 6.11697L142.042 7.0972L141.044 6.95601L140.325 12.0354L145.042 8.24882L145.143 7.53591L144.145 7.39472L144.284 6.41448L148.543 7.01708L148.405 7.99731L147.228 7.83091L146.235 14.853L147.411 15.0194L147.272 15.9996L143.013 15.397L143.152 14.4168L144.15 14.558L144.868 9.47857L140.151 13.2652L140.05 13.9781L141.048 14.1193ZM143.441 4.65917C141.57 4.39443 140.482 3.47696 140.673 2.12245C140.787 1.32043 141.331 0.942943 141.99 1.03623C142.632 1.127 142.979 1.63055 142.901 2.18305C142.815 2.78902 142.4 3.02123 141.902 3.07791C142.093 3.39585 142.62 3.77952 143.547 3.91063C144.51 4.04678 145.125 3.80665 145.341 3.56453C144.878 3.37169 144.562 3.03611 144.647 2.43014C144.725 1.87764 145.181 1.48755 145.822 1.57832C146.482 1.6716 146.9 2.18524 146.786 2.98726C146.592 4.35959 145.313 4.92391 143.441 4.65917ZM156.369 16.8406L156.153 17.8067L151.937 16.8635L152.154 15.8974L153.33 16.1607L154.879 9.23981L153.702 8.97649L153.918 8.01037L158.134 8.9536L157.918 9.91972L156.934 9.69963L155.814 14.7059L160.817 11.3062L160.974 10.6036L159.991 10.3835L160.207 9.41736L164.405 10.3567L164.189 11.3228L163.029 11.0634L161.481 17.9843L162.64 18.2437L162.424 19.2098L158.226 18.2705L158.442 17.3044L159.426 17.5244L160.546 12.5182L155.543 15.9179L155.386 16.6205L156.369 16.8406ZM171.496 18.9992C170.53 20.7655 168.944 21.2161 167.35 20.7668C165.133 20.1416 163.667 18.0452 164.502 15.0826C165.357 12.0508 167.836 11.0852 170.018 11.7006C171.924 12.2378 172.777 13.6565 172.46 14.7826C172.26 15.4929 171.734 15.831 171.058 15.6406C170.504 15.4843 170.117 15.001 170.302 14.3427C170.419 13.9269 170.809 13.6066 171.276 13.6074C171.099 13.2396 170.72 12.927 170.062 12.7414C168.624 12.336 167.289 13.2877 166.615 15.6785C165.927 18.1213 166.597 19.5258 167.966 19.9116C169.109 20.2339 170.017 19.7981 170.802 18.5417L171.496 18.9992ZM178.035 23.953L173.424 22.4175L173.737 21.4783L175.052 21.9162L177.304 15.1533L176.501 14.886C175.271 14.4765 174.697 14.9491 174.27 16.23L174.065 16.8448L173.109 16.5263L174.241 13.1278L182.951 16.0282L181.819 19.4267L180.862 19.1082L181.067 18.4934C181.494 17.2126 181.317 16.4897 180.087 16.0803L179.302 15.8187L177.05 22.5815L178.348 23.0138L178.035 23.953ZM184.959 26.7217C182.696 25.8368 181.391 23.4904 182.486 20.6908C183.593 17.8577 186.137 17.0357 188.4 17.9206C190.613 18.7859 191.942 21.1221 190.834 23.9552C189.733 26.7715 187.172 27.587 184.959 26.7217ZM188.04 18.8426C186.649 18.2986 185.357 19.3782 184.531 21.4905C183.718 23.5692 183.928 25.2556 185.32 25.7997C186.678 26.3306 187.969 25.251 188.789 23.1555C189.615 21.0432 189.398 19.3736 188.04 18.8426ZM195.165 29.9506C196.378 30.5023 197.681 29.5927 198.651 27.4628C199.629 25.3568 199.458 23.7762 198.262 23.2319C197.033 22.6728 195.68 23.5601 194.741 25.6244L194.562 26.0176C193.675 27.9672 193.953 29.3989 195.165 29.9506ZM194.263 21.5901L193.182 21.0981L193.592 20.197C195.378 21.0096 195.631 21.105 196.049 21.0978L196.253 21.3883L195.403 23.2561C196.296 22.3373 197.622 21.8135 199.146 22.5068C200.981 23.3418 201.872 25.6855 200.664 28.3396C199.457 30.9937 197.001 31.9133 195.101 31.0485C193.872 30.4894 193.361 29.5253 193.28 28.8355L191.379 33.0133L192.657 33.5948L192.246 34.4959L187.97 32.5501L188.38 31.649L189.462 32.1411L194.263 21.5901ZM203.83 34.0383L203.369 34.9145L199.545 32.904L200.006 32.0277L201.074 32.589L204.374 26.3119L203.307 25.7506L203.768 24.8744L207.591 26.8849L207.13 27.7612L206.238 27.2921L203.851 31.8326L209.568 29.8561L209.903 29.2188L209.01 28.7497L209.471 27.8735L213.279 29.8756L212.818 30.7519L211.767 30.199L208.466 36.4761L209.517 37.029L209.057 37.9052L205.249 35.9031L205.71 35.0268L206.602 35.4959L208.989 30.9554L203.273 32.9319L202.938 33.5692L203.83 34.0383ZM213.956 39.6878L213.444 40.5351L209.747 38.3004L210.259 37.4532L211.291 38.077L214.959 32.0075L213.927 31.3837L214.439 30.5364L218.137 32.7711L217.624 33.6183L216.762 33.0969L214.108 37.4873L219.932 35.8546L220.305 35.2384L219.442 34.717L219.954 33.8698L223.636 36.0951L223.124 36.9424L222.107 36.3278L218.439 42.3973L219.455 43.0118L218.943 43.8591L215.262 41.6338L215.774 40.7865L216.636 41.3079L219.29 36.9176L213.466 38.5502L213.093 39.1664L213.956 39.6878Z" fill="#22201F"/>
</svg>
