<svg width="125" height="62" viewBox="0 0 125 62" fill="none" xmlns="http://www.w3.org/2000/svg">
<path d="M29.2403 34.781C27.1519 34.7961 25.0849 34.3596 23.1808 33.5015L29.2403 19.3601L35.2998 33.5015C33.3951 34.358 31.3285 34.7944 29.2403 34.781ZM43.6012 35.2052L40.9081 29.4611L29.2403 4.24902L17.5994 29.4073L14.94 35.2052L7.4397 51.3197L7.49356 51.3736C9.21158 53.4826 11.2575 55.3016 13.553 56.7608L15.896 51.3736L20.9994 39.8854C23.5642 41.145 26.383 41.8014 29.2403 41.8046C32.0942 41.8055 34.9121 41.1682 37.4879 39.9393L42.5913 51.3871L44.9814 56.7743C47.2766 55.3146 49.3224 53.4957 51.0409 51.3871H51.0948L43.6012 35.2052Z" fill="white"/>
<path d="M51.0542 32.1546H52.4007L53.0134 30.8078H55.0332L55.6527 32.1546H56.9992L54.0099 25.9189L51.0542 32.1546ZM54.7707 29.8651H53.3029L54.0368 28.1748L54.7707 29.8651Z" fill="white"/>
<path d="M61.5373 28.7475C61.218 28.5954 60.8677 28.5193 60.514 28.5253H59.4165V27.2795H62.0692V26.2627H58.1912V32.155H60.514C60.8682 32.1589 61.2185 32.0805 61.5373 31.926C61.7593 31.8139 61.9555 31.6569 62.1135 31.4649C62.2714 31.2728 62.3877 31.05 62.4548 30.8105C62.5219 30.5711 62.5385 30.3203 62.5034 30.0741C62.4683 29.8279 62.3824 29.5917 62.251 29.3805C62.076 29.1078 61.829 28.8887 61.5373 28.7475ZM61.1738 30.7677C61.0896 30.8918 60.9663 30.9843 60.8237 31.0304C60.6564 31.0957 60.478 31.1277 60.2985 31.1247H59.4165V29.5287H60.2985C60.4776 29.5237 60.6559 29.5534 60.8237 29.6162C60.9639 29.6669 61.0859 29.7583 61.1738 29.8789C61.2594 30.0158 61.3016 30.1754 61.295 30.3368C61.301 30.4938 61.2587 30.649 61.1738 30.7812V30.7677Z" fill="white"/>
<path d="M65.1594 26.2631H63.9946V32.4449L68.1891 28.5729V32.1554H69.3472V25.9668L65.1594 29.8456V26.2631Z" fill="white"/>
<path d="M71.4277 29.8115C71.4298 29.9929 71.4095 30.1739 71.3671 30.3502C71.3328 30.4994 71.2761 30.6424 71.1988 30.7745C71.1322 30.8848 71.0398 30.9772 70.9295 31.0438C70.8185 31.1063 70.6932 31.1388 70.5659 31.1381V32.155C70.9742 32.1711 71.3793 32.0756 71.7374 31.8789C72.044 31.6902 72.2804 31.4064 72.4107 31.0708C72.563 30.6665 72.6362 30.2367 72.6261 29.8048V27.3469H74.7806V32.155H75.9992V26.2627H71.4344L71.4277 29.8115Z" fill="white"/>
<path d="M78.9683 26.2631H77.8103V32.4449L81.9981 28.5729V32.1554H83.1628V25.9668L78.9683 29.8456V26.2631Z" fill="white"/>
<path d="M87.9364 29.7715L85.4722 25.9668L84.5969 32.1553H85.8492L86.233 28.849L87.9364 31.6099L89.6465 28.849L90.0235 32.1553H91.2758L90.4005 25.9668L87.9364 29.7715Z" fill="white"/>
<path d="M92.75 32.1549H93.9686V27.3469H96.5271V32.1549H97.7457V26.2627H92.75V32.1549Z" fill="white"/>
<path d="M100.722 26.2631H99.5637V32.4449L103.751 28.5729V32.1554H104.91V25.9668L100.722 29.8456V26.2631Z" fill="white"/>
<path d="M111.447 26.2627H110.019L107.926 28.6533V26.2627H106.687V32.1549H107.926V29.4883L110.114 32.1549H111.575L109.01 29.0236L111.447 26.2627Z" fill="white"/>
<path d="M114.234 27.5291C114.519 27.3746 114.839 27.2958 115.163 27.3001C115.419 27.2951 115.673 27.3315 115.917 27.4078C116.128 27.4778 116.328 27.5776 116.51 27.7041C116.679 27.819 116.833 27.9548 116.968 28.1082V26.7614C116.731 26.5702 116.465 26.4179 116.18 26.3102C115.834 26.1985 115.472 26.1462 115.109 26.1553C114.683 26.1522 114.258 26.2252 113.857 26.3708C113.485 26.5082 113.145 26.7216 112.86 26.9976C112.575 27.2735 112.35 27.6059 112.201 27.9735C111.896 28.7737 111.896 29.6581 112.201 30.4583C112.35 30.826 112.575 31.1583 112.86 31.4343C113.145 31.7102 113.485 31.9237 113.857 32.061C114.258 32.2067 114.683 32.2796 115.109 32.2765C115.472 32.2857 115.834 32.2333 116.18 32.1217C116.465 32.0139 116.731 31.8616 116.968 31.6705V30.3035C116.833 30.4569 116.679 30.5926 116.51 30.7075C116.326 30.8315 116.127 30.9311 115.917 31.0038C115.673 31.0802 115.419 31.1165 115.163 31.1115C114.839 31.1158 114.519 31.037 114.234 30.8826C113.953 30.7233 113.72 30.4905 113.561 30.2092C113.387 29.901 113.295 29.553 113.295 29.1991C113.295 28.8451 113.387 28.4972 113.561 28.189C113.723 27.9134 113.955 27.6857 114.234 27.5291Z" fill="white"/>
</svg>
