<svg width="29" height="29" viewBox="0 0 29 29" fill="none" xmlns="http://www.w3.org/2000/svg">
<circle cx="14.5" cy="14.5" r="14.5" fill="#F43501"/>
<path fill-rule="evenodd" clip-rule="evenodd" d="M21.9968 8.70702C22.1849 8.86093 22.3042 9.08326 22.3285 9.32513C22.3527 9.567 22.2799 9.80859 22.126 9.99677L13.876 20.0801C13.7949 20.1792 13.694 20.2603 13.5797 20.318C13.4653 20.3757 13.3402 20.4088 13.2123 20.4152C13.0844 20.4216 12.9566 20.4011 12.8371 20.3551C12.7176 20.309 12.609 20.2385 12.5185 20.1479L7.93512 15.5646C7.84757 15.48 7.77774 15.3789 7.72969 15.2671C7.68165 15.1552 7.65637 15.0349 7.65531 14.9132C7.65425 14.7915 7.67744 14.6708 7.72353 14.5581C7.76963 14.4455 7.83769 14.3431 7.92376 14.2571C8.00983 14.171 8.11217 14.1029 8.22483 14.0568C8.33748 14.0108 8.45819 13.9876 8.57991 13.9886C8.70162 13.9897 8.8219 14.015 8.93374 14.063C9.04558 14.111 9.14673 14.1809 9.23129 14.2684L13.0987 18.1358L20.707 8.83627C20.8609 8.64812 21.0833 8.52881 21.3251 8.50457C21.567 8.48033 21.8086 8.55315 21.9968 8.70702Z" fill="white"/>
</svg>
