<svg width="351" height="48" viewBox="0 0 351 48" fill="none" xmlns="http://www.w3.org/2000/svg">
<path d="M151 10L164.5 23.5M178 37L164.5 23.5M164.5 23.5L178 10L151 37" stroke="white"/>
<path d="M16.4682 12.6081C7.3922 12.6081 0 19.8243 0 28.8243C0 37.7838 7.3922 45 16.4682 45C25.5852 45 32.9774 37.7838 32.9774 28.8243C32.9774 19.8243 25.5852 12.6081 16.4682 12.6081ZM16.4682 38.2297C11.4168 38.2297 7.26899 33.8108 7.26899 28.8243C7.26899 23.7973 11.4168 19.3784 16.4682 19.3784C21.5606 19.3784 25.7084 23.7973 25.7084 28.8243C25.7084 33.8108 21.5606 38.2297 16.4682 38.2297Z" fill="white"/>
<path d="M7.02259 10.1757C8.99384 10.1757 10.6365 8.55405 10.6365 6.56757C10.6365 4.62162 8.99384 3 7.02259 3C5.01027 3 3.36756 4.62162 3.36756 6.56757C3.36756 8.55405 5.01027 10.1757 7.02259 10.1757Z" fill="white"/>
<path d="M25.9138 10.1757C27.885 10.1757 29.5277 8.55405 29.5277 6.56757C29.5277 4.62162 27.885 3 25.9138 3C23.9014 3 22.2587 4.62162 22.2587 6.56757C22.2587 8.55405 23.9014 10.1757 25.9138 10.1757Z" fill="white"/>
<path d="M16.4682 10.1757C18.4394 10.1757 20.0821 8.55405 20.0821 6.56757C20.0821 4.62162 18.4394 3 16.4682 3C14.4559 3 12.8131 4.62162 12.8131 6.56757C12.8131 8.55405 14.4559 10.1757 16.4682 10.1757Z" fill="white"/>
<path d="M89.2402 13.1757H81.232L71.7454 26.1892V3.52703H64.4764V44.4324H71.7454V31.4189L81.9712 44.4324H90.5544L77.9466 28.6216L89.2402 13.1757Z" fill="white"/>
<path d="M61.0678 13.1757H53.0595L43.5729 26.1892V3.52703H36.3039V44.4324H43.5729V31.4189L53.7988 44.4324H62.3819L49.7741 28.6216L61.0678 13.1757Z" fill="white"/>
<path d="M103.491 12.6081C94.4148 12.6081 87.0226 19.8243 87.0226 28.8243C87.0226 37.7838 94.4148 45 103.491 45C112.608 45 120 37.7838 120 28.8243C120 19.8243 112.608 12.6081 103.491 12.6081ZM103.45 38.2297C98.3984 38.2297 94.2505 33.8108 94.2505 28.8243C94.2505 23.7973 98.3984 19.3784 103.45 19.3784C108.542 19.3784 112.69 23.7973 112.69 28.8243C112.69 33.8108 108.542 38.2297 103.45 38.2297Z" fill="white"/>
<path d="M239.25 15.14C239.25 14.21 239.17 13.31 239.01 12.43L235.75 14.83C235.75 14.93 235.75 15.04 235.75 15.14C235.75 21.55 230.53 26.77 224.12 26.77C217.71 26.77 212.49 21.55 212.49 15.14C212.49 8.73 217.71 3.5 224.13 3.5C226.56 3.5 228.82 4.25 230.69 5.53L233.63 3.36C231.03 1.26 227.73 0 224.13 0C215.77 0.01 209 6.78 209 15.14C209 23.5 215.77 30.27 224.13 30.27C232.49 30.27 239.25 23.49 239.25 15.14Z" fill="white"/>
<path d="M236.09 5.89014C236.8 6.81014 237.41 7.82014 237.9 8.90014L224.13 19.0501L218.37 15.4401V11.1001L224.13 14.7101L236.09 5.89014Z" fill="white"/>
<path d="M295.78 9.05979L299.89 6.02979H286.13V24.2398H299.89V21.2098H290.06V16.5498H298.45V13.5198H290.06V9.05979H295.78Z" fill="white"/>
<path d="M275.739 13.1298H270.959V9.05979H278.589L282.699 6.02979H267.029V24.2298H275.229C279.829 24.2298 282.469 22.1498 282.469 18.5098C282.469 15.0398 280.079 13.1298 275.739 13.1298ZM275.059 21.2098H270.959V16.1598H275.059C277.549 16.1598 278.709 16.9998 278.709 18.6798C278.709 20.3998 277.479 21.2098 275.059 21.2098Z" fill="white"/>
<path d="M311.04 6.02979H303.55V24.2298H307.48V19.0698H311.05C315.83 19.0698 318.8 16.5598 318.8 12.5398C318.79 8.52978 315.82 6.02979 311.04 6.02979ZM310.96 16.0498H307.48V9.05979H310.96C313.48 9.05979 314.86 10.2998 314.86 12.5498C314.86 14.7998 313.48 16.0498 310.96 16.0498Z" fill="white"/>
<path d="M260.29 20.2998C259.28 20.8598 258.11 21.1498 256.9 21.1498C253.36 21.1498 250.79 18.6198 250.79 15.1398C250.79 11.6598 253.36 9.1298 256.9 9.1298C258.24 9.1298 259.44 9.5098 260.47 10.2498L263.29 8.1698L263.1 8.0098C261.46 6.5698 259.26 5.7998 256.74 5.7998C254.01 5.7998 251.54 6.7198 249.77 8.3898C247.99 10.0698 247.02 12.4298 247.02 15.0398C247.02 17.6598 247.99 20.0598 249.76 21.7898C251.54 23.5298 254 24.4798 256.71 24.4798C259.54 24.4798 262.01 23.4898 263.69 21.6998C262.4 20.7498 261.15 19.8298 261.15 19.8298L260.29 20.2998Z" fill="white"/>
<path d="M247 47.4195V29.2896H254.87C258.91 29.2896 260.98 30.7896 260.98 33.7996C260.98 35.8696 260.15 37.2396 258.29 37.9696C260.52 38.3596 261.53 39.7796 261.53 42.1396C261.53 45.8896 258.84 47.4195 254.44 47.4195H247ZM254.41 36.9596C256.46 36.9596 257.75 36.0496 257.75 34.4996C257.75 33.0496 256.79 32.2696 254.49 32.2696H250.24V36.9596H254.41ZM254.64 44.4396C257.13 44.4396 258.26 43.6395 258.26 41.8995C258.26 40.1595 256.97 39.4895 254.69 39.4895H250.24V44.4396H254.64Z" fill="white"/>
<path d="M281.13 33.7996L275.3 43.4296H273.67L267.71 33.9296V47.4195H264.47V29.2896H268.56L274.57 39.1596L280.53 29.2896H284.36V47.4195H281.12V33.7996H281.13Z" fill="white"/>
<path d="M299.8 39.5695H291.46V44.4396H301.04V47.4195H288.23V29.2896H300.76V32.2696H291.46V36.5896H299.8V39.5695Z" fill="white"/>
<path d="M318.86 45.4198C317.95 46.5098 315.57 47.6998 312.44 47.6998C306.54 47.6698 302.6 44.1798 302.6 38.3298C302.6 32.8698 306.48 29.0098 312.49 29.0098C315.34 29.0098 317.44 29.8898 318.5 30.6398V35.1498C317.41 33.5398 315.21 31.9898 312.49 31.9898C308.53 31.9898 306.09 34.5498 306.09 38.3598C306.09 41.8798 308.24 44.6498 312.41 44.7298C315.57 44.7298 317.8 43.2798 318.86 41.4398V45.4198Z" fill="white"/>
<path d="M335.63 32.2696H329.52V47.4195H326.28V32.2696H320.27V29.2896H335.63V32.2696Z" fill="white"/>
<path d="M349.49 39.5695H341.15V44.4396H350.73V47.4195H337.91V29.2896H350.44V32.2696H341.14V36.5896H349.48V39.5695H349.49Z" fill="white"/>
</svg>
