<svg width="231" height="32" viewBox="0 0 231 32" fill="none" xmlns="http://www.w3.org/2000/svg">
<path d="M99.3359 6.57861L108.217 15.4597M117.098 24.3407L108.217 15.4597M108.217 15.4597L117.098 6.57861L99.3359 24.3407" stroke="white" stroke-width="0.657857"/>
<path d="M10.8337 8.29439C4.86301 8.29439 0 13.0416 0 18.9623C0 24.8564 4.86301 29.6036 10.8337 29.6036C16.8314 29.6036 21.6944 24.8564 21.6944 18.9623C21.6944 13.0416 16.8314 8.29439 10.8337 8.29439ZM10.8337 25.1497C7.51064 25.1497 4.78196 22.2427 4.78196 18.9623C4.78196 15.6553 7.51064 12.7483 10.8337 12.7483C14.1838 12.7483 16.9125 15.6553 16.9125 18.9623C16.9125 22.2427 14.1838 25.1497 10.8337 25.1497Z" fill="white"/>
<path d="M4.61986 6.6942C5.91666 6.6942 6.99732 5.6274 6.99732 4.32058C6.99732 3.04043 5.91666 1.97363 4.61986 1.97363C3.29604 1.97363 2.21537 3.04043 2.21537 4.32058C2.21537 5.6274 3.29604 6.6942 4.61986 6.6942Z" fill="white"/>
<path d="M17.0475 6.6942C18.3443 6.6942 19.425 5.6274 19.425 4.32058C19.425 3.04043 18.3443 1.97363 17.0475 1.97363C15.7237 1.97363 14.643 3.04043 14.643 4.32058C14.643 5.6274 15.7237 6.6942 17.0475 6.6942Z" fill="white"/>
<path d="M10.8337 6.6942C12.1305 6.6942 13.2112 5.6274 13.2112 4.32058C13.2112 3.04043 12.1305 1.97363 10.8337 1.97363C9.50988 1.97363 8.42921 3.04043 8.42921 4.32058C8.42921 5.6274 9.50988 6.6942 10.8337 6.6942Z" fill="white"/>
<path d="M58.7073 8.66777H53.439L47.1982 17.2288V2.32034H42.4162V29.2302H47.1982V20.6692L53.9253 29.2302H59.5718L51.2777 18.829L58.7073 8.66777Z" fill="white"/>
<path d="M40.1738 8.66777H34.9056L28.6647 17.2288V2.32034H23.8828V29.2302H28.6647V20.6692L35.3919 29.2302H41.0384L32.7442 18.829L40.1738 8.66777Z" fill="white"/>
<path d="M68.0821 8.29439C62.1114 8.29439 57.2484 13.0416 57.2484 18.9623C57.2484 24.8564 62.1114 29.6036 68.0821 29.6036C74.0798 29.6036 78.9428 24.8564 78.9428 18.9623C78.9428 13.0416 74.0798 8.29439 68.0821 8.29439ZM68.0551 25.1497C64.732 25.1497 62.0033 22.2427 62.0033 18.9623C62.0033 15.6553 64.732 12.7483 68.0551 12.7483C71.4051 12.7483 74.1338 15.6553 74.1338 18.9623C74.1338 22.2427 71.4051 25.1497 68.0551 25.1497Z" fill="white"/>
<path d="M157.392 9.95995C157.392 9.34814 157.34 8.75607 157.234 8.17716L155.09 9.75601C155.09 9.8218 155.09 9.89416 155.09 9.95995C155.09 14.1768 151.656 17.6108 147.439 17.6108C143.222 17.6108 139.788 14.1768 139.788 9.95995C139.788 5.74309 143.222 2.3025 147.446 2.3025C149.044 2.3025 150.531 2.79589 151.761 3.63795L153.695 2.2104C151.985 0.828899 149.814 0 147.446 0C141.946 0.00657857 137.492 4.46027 137.492 9.95995C137.492 15.4596 141.946 19.9133 147.446 19.9133C152.945 19.9133 157.392 15.4531 157.392 9.95995Z" fill="white"/>
<path d="M155.313 3.875C155.781 4.48023 156.182 5.14466 156.504 5.85515L147.446 12.5324L143.656 10.1575V7.30243L147.446 9.67729L155.313 3.875Z" fill="white"/>
<path d="M194.581 5.9601L197.285 3.9668H188.232V15.9464H197.285V13.9531H190.818V10.8874H196.337V8.89414H190.818V5.9601H194.581Z" fill="white"/>
<path d="M181.397 8.63758H178.252V5.9601H183.272L185.976 3.9668H175.667V15.9398H181.061C184.088 15.9398 185.824 14.5714 185.824 12.1768C185.824 9.89408 184.252 8.63758 181.397 8.63758ZM180.95 13.9531H178.252V10.6309H180.95C182.588 10.6309 183.351 11.1835 183.351 12.2887C183.351 13.4202 182.542 13.9531 180.95 13.9531Z" fill="white"/>
<path d="M204.62 3.9668H199.692V15.9398H202.278V12.5452H204.626C207.771 12.5452 209.725 10.894 209.725 8.24944C209.718 5.61144 207.764 3.9668 204.62 3.9668ZM204.567 10.5585H202.278V5.9601H204.567C206.225 5.9601 207.133 6.77584 207.133 8.25602C207.133 9.7362 206.225 10.5585 204.567 10.5585Z" fill="white"/>
<path d="M171.234 13.3544C170.569 13.7228 169.8 13.9135 169.004 13.9135C166.675 13.9135 164.984 12.2492 164.984 9.95981C164.984 7.67047 166.675 6.00609 169.004 6.00609C169.885 6.00609 170.674 6.25608 171.352 6.74289L173.207 5.37455L173.082 5.26929C172.003 4.32198 170.556 3.81543 168.898 3.81543C167.102 3.81543 165.477 4.42066 164.313 5.51928C163.142 6.62448 162.504 8.17702 162.504 9.89402C162.504 11.6176 163.142 13.1965 164.306 14.3346C165.477 15.4792 167.096 16.1042 168.879 16.1042C170.74 16.1042 172.365 15.4529 173.47 14.2754C172.622 13.6504 171.799 13.0452 171.799 13.0452L171.234 13.3544Z" fill="white"/>
<path d="M162.49 31.195V19.2681H167.668C170.325 19.2681 171.687 20.2549 171.687 22.235C171.687 23.5968 171.141 24.498 169.917 24.9783C171.384 25.2348 172.049 26.169 172.049 27.7215C172.049 30.1885 170.279 31.195 167.385 31.195H162.49ZM167.365 24.3138C168.714 24.3138 169.562 23.7152 169.562 22.6955C169.562 21.7416 168.931 21.2285 167.418 21.2285H164.622V24.3138H167.365ZM167.516 29.2346C169.154 29.2346 169.898 28.7083 169.898 27.5636C169.898 26.419 169.049 25.9782 167.549 25.9782H164.622V29.2346H167.516Z" fill="white"/>
<path d="M184.943 22.235L181.108 28.5702H180.036L176.115 22.3205V31.195H173.983V19.2681H176.674L180.628 25.7611L184.549 19.2681H187.068V31.195H184.937V22.235H184.943Z" fill="white"/>
<path d="M197.226 26.0308H191.739V29.2346H198.041V31.195H189.614V19.2681H197.857V21.2285H191.739V24.0704H197.226V26.0308Z" fill="white"/>
<path d="M209.764 29.8794C209.165 30.5965 207.6 31.3793 205.541 31.3793C201.659 31.3596 199.067 29.0637 199.067 25.2152C199.067 21.6233 201.62 19.084 205.574 19.084C207.448 19.084 208.83 19.6629 209.527 20.1563V23.1232C208.81 22.0641 207.363 21.0444 205.574 21.0444C202.968 21.0444 201.363 22.7285 201.363 25.2349C201.363 27.5506 202.778 29.3729 205.521 29.4255C207.6 29.4255 209.067 28.4716 209.764 27.2611V29.8794Z" fill="white"/>
<path d="M220.796 21.2285H216.777V31.195H214.645V21.2285H210.691V19.2681H220.796V21.2285Z" fill="white"/>
<path d="M229.915 26.0308H224.428V29.2346H230.731V31.195H222.297V19.2681H230.54V21.2285H224.422V24.0704H229.908V26.0308H229.915Z" fill="white"/>
</svg>
