<svg width="166" height="56" viewBox="0 0 166 56" fill="none" xmlns="http://www.w3.org/2000/svg">
<mask id="mask0_622_39" style="mask-type:luminance" maskUnits="userSpaceOnUse" x="0" y="0" width="166" height="56">
<path d="M166 0H0V55.6477H166V0Z" fill="white"/>
</mask>
<g mask="url(#mask0_622_39)">
<path d="M29.9646 55.6442C54.9532 42.6266 59.5134 27.4567 64.2517 7.7076L51.3643 15.2702C50.9342 28.7852 43.5563 40.8379 29.9498 48.4897C10.7152 35.012 4.70167 19.4338 10.4409 14.7062C13.2141 12.4203 18.3824 12.4575 24.737 20.6065L28.2591 17.4448C18.3453 2.07453 8.17932 4.16746 4.23453 7.42558C-4.619 14.7582 -1.18585 34.9377 29.9646 55.6442Z" fill="white"/>
<path d="M29.9646 55.6442C54.9532 42.6266 59.5134 27.4567 64.2517 7.7076L51.3643 15.2702C50.9342 28.7852 43.5563 40.8379 29.9498 48.4897C10.7152 35.012 4.70167 19.4338 10.4409 14.7062C13.2141 12.4203 18.3824 12.4575 24.737 20.6065L28.2591 17.4448C18.3453 2.07453 8.17932 4.16746 4.23453 7.42558C-4.619 14.7582 -1.18585 34.9377 29.9646 55.6442Z" fill="white"/>
<path d="M83.0639 14.6886C83.0639 12.8406 81.5216 11.7422 78.9338 11.7422C74.4922 11.7422 71.3853 14.941 71.3853 19.5127C71.3853 23.706 74.5144 26.8676 78.6668 26.8676C80.7578 26.8676 83.012 25.9844 83.012 24.0473V23.1122C82.1519 23.936 80.5577 24.5 79.0598 24.5C75.9974 24.5 74.1659 22.474 74.1659 19.0749C74.1659 16.1507 76.1309 14.1098 78.9486 14.1098C80.3129 14.1098 82.0852 14.5179 83.0566 15.646V14.6886H83.0639Z" fill="white"/>
<path d="M132.309 48.3737C134.014 48.3737 135.712 48.0397 136.765 47.728C136.61 46.0285 136.765 43.0449 136.765 38.6068C136.765 37.2561 136.031 36.6178 134.452 36.6178H134.066C134.066 40.4845 133.881 43.4234 134.066 45.3456L133.977 45.3679C133.643 45.4496 132.969 45.5906 132.153 45.5906C130.247 45.5906 129.321 45.123 129.321 43.0746V38.5993C129.321 37.2486 128.586 36.6104 127.007 36.6104H126.621V42.9559C126.621 46.6445 128.43 48.3589 132.309 48.3589V48.3737Z" fill="white"/>
<path d="M108.563 26.7334H109.164V17.1224C109.164 15.7716 108.43 15.1333 106.85 15.1333H106.465V19.668H101.689V17.115C101.689 15.7642 100.956 15.126 99.3757 15.126H98.9909V24.737C98.9909 26.0358 99.7172 26.726 101.082 26.726H101.682V21.709H106.457V24.7445C106.457 26.0432 107.184 26.7334 108.548 26.7334H108.563Z" fill="white"/>
<path d="M116.735 30.5487C120.227 30.5487 122.481 28.5151 122.481 25.3609V19.906C122.481 16.6627 120.799 14.874 117.736 14.874C114.859 14.874 111.767 16.6479 111.767 20.5442C111.767 23.5277 113.695 25.3757 116.794 25.3757C119.1 25.3757 119.783 23.7578 119.783 23.7578V25.3015C119.783 27.1198 118.626 28.1588 116.617 28.1588C114.814 28.1588 113.614 27.7951 112.731 26.9863V27.9956C112.731 29.5022 114.377 30.5487 116.727 30.5487H116.735ZM117.017 23.2012C115.563 23.2012 114.555 22.0508 114.555 20.4032C114.555 18.5701 115.719 17.2341 117.328 17.2341C118.789 17.2341 119.657 18.3029 119.657 20.0915C119.657 21.9766 118.618 23.1937 117.017 23.1937V23.2012Z" fill="white"/>
<path d="M127.159 30.4572H127.96V25.1359L128.182 25.5144C128.805 26.5757 129.881 26.9913 131.06 26.9913C134.27 26.9913 136.265 24.5347 136.265 20.579C136.265 17.0537 133.543 14.8643 131.015 14.8643C128.487 14.8643 125.224 15.9924 125.224 21.388V28.535C125.224 29.7818 126.225 30.4498 127.159 30.4498V30.4572ZM130.555 17.2392C132.55 17.2392 133.477 18.5454 133.477 21.3508C133.477 23.2805 132.439 24.6312 130.948 24.6312C129.08 24.6312 127.915 23.1692 127.915 20.809C127.915 18.6122 128.924 17.2466 130.555 17.2466V17.2392Z" fill="white"/>
<path d="M143.987 14.874C140.51 14.874 138.263 17.3381 138.263 21.1528C138.263 24.0547 140.139 26.9936 143.728 26.9936C147.317 26.9936 149.459 24.5371 149.459 20.7372C149.459 17.8204 147.583 14.874 143.995 14.874H143.987ZM143.987 24.6039C142.074 24.6039 141.066 23.268 141.066 20.7372C141.066 18.5923 142.082 17.2639 143.728 17.2639C145.641 17.2639 146.649 18.6071 146.649 21.1528C146.649 23.3125 145.656 24.6039 143.987 24.6039Z" fill="white"/>
<path d="M162.953 15.1328H162.16C160.484 18.0123 158.853 23.2596 158.853 23.2596C158.853 23.2596 157.926 20.4319 157.837 20.1647C157.147 18.0421 156.205 15.1328 153.773 15.1328H152.795C152.246 17.8046 151.616 21.9756 151.616 25.1223C151.616 26.1837 152.446 26.7328 153.269 26.7328H154.262C154.27 24.6103 154.492 21.1295 154.767 18.7249L154.819 18.287C154.819 18.287 154.982 18.5393 155.101 18.8807C155.553 20.1944 156.561 23.3411 156.643 23.5861C157.525 26.1985 158.222 26.7255 159.045 26.7255H159.646C160.335 25.2633 161.737 20.3354 162.745 18.287C162.745 18.287 163.041 20.4838 163.19 25.115C163.227 26.154 163.776 26.7255 164.844 26.7255H165.993C165.956 24.2986 165.712 21.2112 165.274 17.5448C165.066 15.8973 164.325 15.1328 162.938 15.1328H162.953Z" fill="white"/>
<path d="M75.4696 36.623H74.9579C73.601 38.5007 72.296 41.4175 71.5915 43.362C70.8649 45.351 70.5905 46.6127 70.5905 46.9392C70.5905 47.8595 70.9464 48.2231 71.8511 48.2231H73.0003C73.423 45.4549 74.4093 42.3081 75.5808 39.9777L75.6846 39.7699L75.7958 39.9777C77.1231 42.5678 77.6866 44.9353 78.0649 46.9169C78.1538 47.4587 78.7248 48.2231 79.6962 48.2231H81.1421C80.8381 45.0318 78.8879 40.1781 77.2937 37.7512C76.7079 36.8828 76.2853 36.623 75.4696 36.623Z" fill="white"/>
<path d="M85.2689 48.2215H85.8695V43.1822H87.612V43.2936C87.8567 45.8838 89.6363 48.4887 93.0695 48.4887C96.5027 48.4887 98.7936 46.0321 98.7936 42.2322C98.7936 39.3155 96.9177 36.3691 93.329 36.3691C90.3704 36.3691 88.2868 38.1355 87.7529 41.0967L87.738 41.1932H85.8769V38.6179C85.8769 37.2671 85.1428 36.6289 83.5634 36.6289H83.1779V46.2399C83.1779 47.5388 83.9045 48.2215 85.2689 48.2215ZM93.0695 38.7515C94.9823 38.7515 95.9915 40.0948 95.9915 42.6405C95.9915 44.8002 94.9973 46.0916 93.329 46.0916C91.4159 46.0916 90.4074 44.7556 90.4074 42.2248C90.4074 40.08 91.4233 38.7515 93.0695 38.7515Z" fill="white"/>
<path d="M102.473 34.1142C100.783 35.747 100.79 39.0051 100.798 41.3875V41.855C100.798 45.0538 102.281 48.4677 106.44 48.4677C109.769 48.4677 111.839 46.1596 111.839 42.4487C111.839 39.109 109.762 36.7786 106.789 36.7786C105.484 36.7786 103.586 37.3204 102.911 38.8567L102.881 38.9309H102.74V38.8047C102.792 37.9364 102.926 36.9344 103.972 35.9844C104.987 35.0345 106.626 35.0345 107.939 35.0345H108.917C109.896 35.0345 110.526 34.5299 110.526 33.7505V32.667H108.227C106.44 32.667 103.986 32.667 102.473 34.1217V34.1142ZM106.136 39.0571C107.471 39.0571 109.058 39.7102 109.058 42.8199C109.058 44.8683 108.079 46.1373 106.507 46.1373C104.579 46.1373 103.519 44.8014 103.519 42.3745C103.519 40.3855 104.572 39.0571 106.136 39.0571Z" fill="white"/>
<path d="M119.147 48.487C122.817 48.487 124.13 46.535 124.13 44.7019C124.13 43.8706 123.529 42.7426 122.379 42.2008L122.156 42.0969L122.371 41.9856C123.358 41.4809 123.907 40.6422 123.907 39.6329C123.907 36.6716 120.481 36.3525 119.013 36.3525C117.062 36.3525 115.431 36.8349 114.379 37.258V44.5461C114.379 46.0155 115.001 48.4795 119.147 48.4795V48.487ZM117.033 38.6978L117.115 38.6755C117.841 38.4528 118.316 38.386 119.08 38.386C120.125 38.386 121.192 38.5568 121.192 39.7962C121.192 40.85 120.562 41.2954 119.08 41.2954H117.033V38.6978ZM117.033 43.1136H119.191C120.741 43.1136 121.371 43.5738 121.371 44.7019C121.371 45.7632 120.466 46.446 119.065 46.446C118.279 46.446 117.041 45.9636 117.041 44.6573V43.1136H117.033Z" fill="white"/>
<path d="M91.4553 26.8892C93.1608 26.8892 94.8588 26.5554 95.9114 26.2436C95.7557 24.544 95.9114 21.5606 95.9114 17.1224C95.9114 15.7716 95.1776 15.1333 93.5982 15.1333H93.2126C93.2126 19.0001 93.0273 21.9316 93.2126 23.8613L93.1237 23.8835C92.79 23.9652 92.1152 24.1062 91.2996 24.1062C89.3939 24.1062 88.467 23.6386 88.467 21.5903V17.115C88.467 15.7642 87.7329 15.126 86.1536 15.126H85.768V21.4715C85.768 25.16 87.5772 26.8744 91.4553 26.8744V26.8892Z" fill="white"/>
<path d="M64.2526 7.70539L51.3652 15.268C25.8131 -0.280356 23.2031 45.0587 6.11141 33.6738C4.55425 31.4176 3.31595 29.2357 2.38165 27.1501C21.772 45.7192 20.593 -22.1594 64.2526 7.70539Z" fill="white"/>
<path d="M64.2526 7.69954L51.3652 15.2622C25.8131 -0.286216 23.2031 45.0528 6.11141 33.668C4.55425 31.4118 3.31595 29.2298 2.38165 27.1443C21.772 45.7134 20.593 -22.1653 64.2526 7.69954Z" fill="white"/>
<path d="M64.2526 7.69954L51.3652 15.2622C25.8131 -0.286216 23.2031 45.0528 6.11141 33.668C4.55425 31.4118 3.31595 29.2298 2.38165 27.1443C21.772 45.7134 20.593 -22.1653 64.2526 7.69954Z" fill="white"/>
</g>
</svg>
