<svg width="247" height="83" viewBox="0 0 247 83" fill="none" xmlns="http://www.w3.org/2000/svg">
<mask id="mask0_419_1233" style="mask-type:luminance" maskUnits="userSpaceOnUse" x="0" y="0" width="247" height="83">
<path d="M246.712 0H0V82.7045H246.712V0Z" fill="white"/>
</mask>
<g mask="url(#mask0_419_1233)">
<path d="M44.5339 82.7045C81.6724 63.3575 88.4498 40.8118 95.4919 11.4604L76.3385 22.7001C75.6993 42.7862 64.7341 60.6992 44.5119 72.0713C15.9251 52.0406 6.98771 28.8881 15.5175 21.8618C19.639 18.4645 27.3203 18.5197 36.7645 30.6309L41.9992 25.932C27.265 3.08846 12.1562 6.199 6.29343 11.0413C-6.86484 21.9391 -1.76243 51.9303 44.5339 82.7045Z" fill="white"/>
<path d="M44.5339 82.7045C81.6724 63.3575 88.4498 40.8118 95.4919 11.4604L76.3385 22.7001C75.6993 42.7862 64.7341 60.6992 44.5119 72.0713C15.9251 52.0406 6.98771 28.8881 15.5175 21.8618C19.639 18.4645 27.3203 18.5197 36.7645 30.6309L41.9992 25.932C27.265 3.08846 12.1562 6.199 6.29343 11.0413C-6.86484 21.9391 -1.76243 51.9303 44.5339 82.7045Z" fill="white"/>
<path d="M123.451 21.8299C123.451 19.0834 121.159 17.4509 117.313 17.4509C110.711 17.4509 106.094 22.205 106.094 28.9996C106.094 35.2317 110.744 39.9306 116.916 39.9306C120.023 39.9306 123.374 38.618 123.374 35.739V34.3493C122.095 35.5736 119.726 36.4119 117.5 36.4119C112.948 36.4119 110.226 33.4007 110.226 28.3489C110.226 24.003 113.147 20.9697 117.335 20.9697C119.362 20.9697 121.996 21.5762 123.44 23.2529V21.8299H123.451Z" fill="white"/>
<path d="M196.639 71.8948C199.174 71.8948 201.697 71.3984 203.263 70.9351C203.031 68.4093 203.263 63.975 203.263 57.379C203.263 55.3715 202.172 54.4229 199.824 54.4229H199.251C199.251 60.1696 198.976 64.5376 199.251 67.3944L199.119 67.4275C198.623 67.5489 197.62 67.7584 196.408 67.7584C193.575 67.7584 192.198 67.0636 192.198 64.0192V57.3679C192.198 55.3604 191.106 54.4119 188.76 54.4119H188.187V63.8427C188.187 69.3248 190.875 71.8728 196.639 71.8728V71.8948Z" fill="white"/>
<path d="M161.349 39.7287H162.242V25.4447C162.242 23.4371 161.151 22.4885 158.803 22.4885H158.23V29.2279H151.133V25.4336C151.133 23.4261 150.042 22.4775 147.694 22.4775H147.122V36.7616C147.122 38.6918 148.201 39.7177 150.23 39.7177H151.121V32.2613H158.218V36.7727C158.218 38.7029 159.299 39.7287 161.326 39.7287H161.349Z" fill="white"/>
<path d="M173.493 45.4014C178.684 45.4014 182.034 42.379 182.034 37.6912V29.5841C182.034 24.7638 179.534 22.1055 174.982 22.1055C170.705 22.1055 166.11 24.7418 166.11 30.5326C166.11 34.9667 168.976 37.7132 173.582 37.7132C177.009 37.7132 178.024 35.3086 178.024 35.3086V37.6029C178.024 40.3054 176.304 41.8496 173.318 41.8496C170.639 41.8496 168.855 41.309 167.543 40.1069V41.6069C167.543 43.8461 169.989 45.4014 173.482 45.4014H173.493ZM173.913 34.4814C171.752 34.4814 170.254 32.7717 170.254 30.3231C170.254 27.5986 171.984 25.6131 174.375 25.6131C176.547 25.6131 177.836 27.2015 177.836 29.8598C177.836 32.6614 176.293 34.4704 173.913 34.4704V34.4814Z" fill="white"/>
<path d="M188.985 45.269H190.177V37.3603L190.506 37.9229C191.433 39.5001 193.031 40.1179 194.783 40.1179C199.555 40.1179 202.519 36.4668 202.519 30.5878C202.519 25.3484 198.474 22.0945 194.717 22.0945C190.959 22.0945 186.11 23.7711 186.11 31.7901V42.4122C186.11 44.2652 187.598 45.2579 188.985 45.2579V45.269ZM194.033 25.6241C196.998 25.6241 198.376 27.5655 198.376 31.7349C198.376 34.6028 196.833 36.6103 194.618 36.6103C191.841 36.6103 190.11 34.4374 190.11 30.9297C190.11 27.6647 191.609 25.6352 194.033 25.6352V25.6241Z" fill="white"/>
<path d="M213.996 22.1055C208.827 22.1055 205.488 25.7676 205.488 31.4371C205.488 35.7499 208.276 40.1178 213.61 40.1178C218.944 40.1178 222.129 36.4669 222.129 30.8194C222.129 26.4845 219.341 22.1055 214.007 22.1055H213.996ZM213.996 36.5661C211.153 36.5661 209.654 34.5807 209.654 30.8194C209.654 27.6317 211.164 25.6573 213.61 25.6573C216.453 25.6573 217.951 27.6537 217.951 31.4371C217.951 34.6468 216.475 36.5661 213.996 36.5661Z" fill="white"/>
<path d="M242.182 22.4885H241.003C238.512 26.7681 236.089 34.5666 236.089 34.5666C236.089 34.5666 234.711 30.3641 234.579 29.967C233.553 26.8123 232.154 22.4885 228.539 22.4885H227.085C226.269 26.4593 225.333 32.6584 225.333 37.3351C225.333 38.9125 226.567 39.7286 227.79 39.7286H229.266C229.278 36.5741 229.608 31.4009 230.016 27.8272L230.093 27.1763C230.093 27.1763 230.336 27.5513 230.513 28.0587C231.184 30.0111 232.682 34.6879 232.804 35.0519C234.115 38.9345 235.151 39.7177 236.375 39.7177H237.268C238.292 37.5447 240.375 30.2207 241.874 27.1763C241.874 27.1763 242.314 30.4412 242.536 37.3242C242.59 38.8684 243.406 39.7177 244.993 39.7177H246.7C246.646 36.1108 246.282 31.5222 245.632 26.0733C245.324 23.6247 244.222 22.4885 242.16 22.4885H242.182Z" fill="white"/>
<path d="M112.163 54.4336H111.403C109.386 57.2242 107.447 61.5592 106.4 64.4491C105.32 67.4052 104.912 69.2803 104.912 69.7656C104.912 71.1333 105.441 71.6738 106.786 71.6738H108.494C109.122 67.5596 110.588 62.8828 112.329 59.4193L112.483 59.1105L112.648 59.4193C114.621 63.2688 115.458 66.7874 116.021 69.7325C116.153 70.5377 117.001 71.6738 118.445 71.6738H120.594C120.142 66.9308 117.244 59.7172 114.875 56.1103C114.004 54.8196 113.376 54.4336 112.163 54.4336Z" fill="white"/>
<path d="M126.728 71.6655H127.62V64.176H130.21V64.3415C130.574 68.1911 133.219 72.0626 138.321 72.0626C143.424 72.0626 146.829 68.4116 146.829 62.7641C146.829 58.4293 144.04 54.0503 138.707 54.0503C134.31 54.0503 131.213 56.6755 130.42 61.0765L130.398 61.2199H127.631V57.3924C127.631 55.3849 126.54 54.4363 124.193 54.4363H123.62V68.7204C123.62 70.6508 124.7 71.6655 126.728 71.6655ZM138.321 57.591C141.164 57.591 142.664 59.5874 142.664 63.3708C142.664 66.5806 141.186 68.4999 138.707 68.4999C135.864 68.4999 134.365 66.5144 134.365 62.753C134.365 59.5654 135.875 57.591 138.321 57.591Z" fill="white"/>
<path d="M152.297 50.6929C149.785 53.1195 149.796 57.9618 149.807 61.5025V62.1974C149.807 66.9515 152.011 72.0253 158.193 72.0253C163.141 72.0253 166.216 68.5949 166.216 63.0798C166.216 58.1162 163.13 54.6527 158.711 54.6527C156.771 54.6527 153.951 55.4579 152.947 57.7413L152.904 57.8514H152.693V57.664C152.771 56.3734 152.97 54.8843 154.524 53.4724C156.034 52.0606 158.469 52.0606 160.42 52.0606H161.874C163.329 52.0606 164.265 51.3106 164.265 50.1523V48.542H160.849C158.193 48.542 154.545 48.542 152.297 50.7039V50.6929ZM157.741 58.039C159.725 58.039 162.084 59.0097 162.084 63.6314C162.084 66.6757 160.629 68.5618 158.292 68.5618C155.427 68.5618 153.851 66.5763 153.851 62.9695C153.851 60.0134 155.416 58.039 157.741 58.039Z" fill="white"/>
<path d="M177.077 72.0627C182.531 72.0627 184.483 69.1617 184.483 66.4372C184.483 65.2018 183.59 63.5253 181.881 62.7201L181.55 62.5657L181.87 62.4003C183.336 61.6502 184.152 60.4037 184.152 58.9037C184.152 54.5025 179.061 54.0283 176.878 54.0283C173.979 54.0283 171.556 54.7452 169.991 55.374V66.2057C169.991 68.3896 170.916 72.0516 177.077 72.0516V72.0627ZM173.936 57.5138L174.058 57.4807C175.137 57.1498 175.842 57.0505 176.978 57.0505C178.531 57.0505 180.118 57.3043 180.118 59.1463C180.118 60.7125 179.181 61.3744 176.978 61.3744H173.936V57.5138ZM173.936 64.0768H177.143C179.446 64.0768 180.383 64.7607 180.383 66.4372C180.383 68.0146 179.038 69.0294 176.955 69.0294C175.788 69.0294 173.947 68.3124 173.947 66.3711V64.0768H173.936Z" fill="white"/>
<path d="M135.922 39.9603C138.457 39.9603 140.981 39.4641 142.545 39.0008C142.314 36.4748 142.545 32.0407 142.545 25.4447C142.545 23.4371 141.454 22.4885 139.107 22.4885H138.534C138.534 28.2353 138.259 32.5922 138.534 35.46L138.402 35.4931C137.906 35.6145 136.903 35.8241 135.691 35.8241C132.859 35.8241 131.481 35.1291 131.481 32.0849V25.4336C131.481 23.4261 130.39 22.4775 128.043 22.4775H127.47V31.9084C127.47 37.3903 130.159 39.9383 135.922 39.9383V39.9603Z" fill="white"/>
<path d="M95.4926 11.4519L76.3392 22.6916C38.3633 -0.41667 34.4842 66.9669 9.08228 50.0466C6.76802 46.6934 4.92763 43.4506 3.53906 40.351C32.3572 67.9486 30.605 -32.9337 95.4926 11.4519Z" fill="white"/>
<path d="M95.4926 11.4465L76.3392 22.6862C38.3633 -0.422041 34.4842 66.9616 9.08228 50.0412C6.76802 46.688 4.92763 43.4452 3.53906 40.3456C32.3572 67.9432 30.605 -32.9391 95.4926 11.4465Z" fill="white"/>
<path d="M95.4926 11.4465L76.3392 22.6862C38.3633 -0.422041 34.4842 66.9616 9.08228 50.0412C6.76802 46.688 4.92763 43.4452 3.53906 40.3456C32.3572 67.9432 30.605 -32.9391 95.4926 11.4465Z" fill="white"/>
</g>
</svg>
