<svg width="64" height="64" viewBox="0 0 64 64" fill="none" xmlns="http://www.w3.org/2000/svg">
<path d="M64 0H0V64H64V0Z" fill="#FF0033"/>
<path d="M19.4734 4.92346L14.769 14.6898L10.0663 4.92346H4.92822V19.6919H8.52891V9.12292L13.1281 18.051H16.41L21.0108 9.12292V19.6919H24.6114V4.92346H19.4734Z" fill="white"/>
<path d="M42.6387 4.92346V7.86389H49.0697L49.0552 19.6887H52.6559L52.672 7.86389H59.1047V4.92346H42.6387Z" fill="white"/>
<path d="M55.4943 54.1526C55.4037 54.7416 55.1674 55.2255 54.7888 55.5896C54.4311 55.9343 53.9456 56.1787 53.3453 56.3162C52.7513 56.4538 51.8823 56.5314 50.9615 56.5314C50.0407 56.5314 49.162 56.4085 48.4499 56.1641C47.7589 55.9278 47.2119 55.5152 46.8236 54.9374C46.4336 54.3565 46.2361 53.5182 46.2361 52.4437V50.9338C46.2361 49.8592 46.4336 49.021 46.8236 48.44C47.2103 47.8639 47.7573 47.4512 48.4483 47.2133C49.1604 46.9706 50.0051 46.846 50.9599 46.846C51.9147 46.846 52.7497 46.9253 53.3436 47.0612C53.9424 47.1988 54.4295 47.4448 54.7871 47.7878C55.1658 48.1536 55.4021 48.6374 55.4927 49.2265H59.095C58.9963 48.0079 58.5804 46.969 57.8603 46.1388C57.2016 45.3798 56.2905 44.8248 55.1545 44.4865C54.0508 44.158 52.6008 43.9849 50.9599 43.9849C49.2348 43.9849 47.7363 44.2325 46.508 44.7228C45.2603 45.2196 44.2926 46.0482 43.6291 47.1858C42.9931 48.2766 42.6597 49.733 42.6387 51.5164V51.6814V51.6944V51.8578C42.6613 53.6428 42.9947 55.0976 43.6291 56.1884C44.2926 57.326 45.2603 58.1546 46.508 58.6514C47.7363 59.1401 49.2348 59.3893 50.9599 59.3893C52.685 59.3893 54.0508 59.2162 55.1545 58.8877C56.2905 58.5494 57.2016 57.9944 57.8603 57.2354C58.5804 56.4052 58.9963 55.3663 59.095 54.1477H55.4911L55.4943 54.1526Z" fill="white"/>
</svg>
