<svg width="36" height="36" viewBox="0 0 36 36" fill="none" xmlns="http://www.w3.org/2000/svg">
<path d="M17.7559 18.1754C19.1355 18.1754 20.3821 17.5988 21.2796 16.683C22.1772 15.7673 22.7423 14.4953 22.7423 13.0877C22.7423 11.6801 22.1772 10.4082 21.2796 9.4924C20.3821 8.57661 19.1355 8 17.7559 8C16.3763 8 15.1297 8.57661 14.2322 9.4924C13.3347 10.4082 12.7695 11.6801 12.7695 13.0877C12.7695 14.4953 13.3347 15.7673 14.2322 16.683C15.1297 17.5988 16.3929 18.1754 17.7559 18.1754ZM16.1603 11.4427C16.5758 11.0187 17.1409 10.7643 17.7559 10.7643C18.3875 10.7643 18.9526 11.0187 19.3515 11.4427C19.7671 11.8667 20.0164 12.4433 20.0164 13.0708C20.0164 13.7152 19.7671 14.2918 19.3515 14.6988C18.936 15.1228 18.3709 15.3772 17.7559 15.3772C17.1243 15.3772 16.5592 15.1228 16.1603 14.6988C15.7447 14.2749 15.4954 13.6982 15.4954 13.0708C15.4954 12.4433 15.7613 11.8667 16.1603 11.4427Z" fill="white"/>
<path d="M24.471 20.2276L23.0083 18.1925C22.9252 18.0738 22.759 18.0569 22.6593 18.1586C21.2797 19.3627 19.5843 20.1428 17.756 20.1428C15.9277 20.1428 14.2323 19.3627 12.8527 18.1586C12.753 18.0738 12.5868 18.0908 12.5037 18.1925L11.041 20.2276C10.9745 20.3294 10.9912 20.465 11.0743 20.5498C12.3042 21.5674 13.7337 22.2627 15.2296 22.6188L12.138 28.1814C12.0549 28.334 12.1713 28.5376 12.3375 28.5376H15.3626C15.4623 28.5376 15.5454 28.4867 15.5786 28.3849L17.7394 23.4668L19.9002 28.3849C19.9334 28.4697 20.0165 28.5376 20.1162 28.5376H23.1413C23.3241 28.5376 23.4239 28.351 23.3408 28.1814L20.2492 22.6188C21.7451 22.2627 23.1745 21.5843 24.4045 20.5498C24.5375 20.465 24.5541 20.3294 24.471 20.2276Z" fill="white"/>
</svg>
