<svg width="231" height="142" viewBox="0 0 231 142" fill="none" xmlns="http://www.w3.org/2000/svg">
<path fill-rule="evenodd" clip-rule="evenodd" d="M90.7396 84.6478C96.6315 84.6478 101.964 85.887 106.736 88.3667C111.507 90.8464 115.249 94.2701 117.959 98.6361C120.669 103.002 122.028 107.897 122.028 113.324C122.028 118.751 120.673 123.646 117.959 128.012C115.245 132.378 111.507 135.801 106.736 138.281C101.964 140.761 96.6315 142 90.7396 142C84.8479 142 79.5162 140.761 74.7452 138.281C69.974 135.801 66.2314 132.378 63.5215 128.012C60.8079 123.646 59.453 118.751 59.453 113.324C59.453 107.897 60.8079 103.006 63.5215 98.6361C66.2314 94.27 69.9741 90.8464 74.7452 88.3667C79.5162 85.8871 84.8479 84.6479 90.7396 84.6478ZM90.7396 100.921C88.4445 100.921 86.4365 101.439 84.7171 102.473C82.9977 103.508 81.6812 104.968 80.7677 106.851C79.8542 108.737 79.3983 110.894 79.3983 113.324C79.3983 115.754 79.8542 117.911 80.7677 119.797C81.6812 121.683 82.9977 123.144 84.7171 124.175C86.4365 125.209 88.4445 125.725 90.7396 125.725C93.0346 125.725 95.0426 125.209 96.7621 124.175C98.4816 123.14 99.7995 121.684 100.713 119.797C101.623 117.911 102.082 115.754 102.082 113.324C102.082 110.894 101.627 108.737 100.713 106.851C99.7995 104.964 98.4817 103.508 96.7621 102.473C95.0426 101.439 93.0347 100.921 90.7396 100.921Z" fill="white"/>
<path d="M19.5529 104.801H34.807V86.2H54.3599V140.453H34.807V121.85H19.5529V140.453H0V86.2H19.5529V104.801Z" fill="white"/>
<path d="M192.673 113.324H194.239L210.273 86.2H231V140.453H211.835V113.327H210.268L194.236 140.453H173.512V86.2H192.673V113.324Z" fill="white"/>
<path d="M169.75 103.248H146.674V140.448H127.121V86.2H169.75V103.248Z" fill="white"/>
<path d="M85.6893 56.8542H96.3633V43.8351H110.051V81.8099H96.3633V68.7876H85.6893V81.8099H72.0016V43.8351H85.6893V56.8542Z" fill="white"/>
<path fill-rule="evenodd" clip-rule="evenodd" d="M154.534 81.8099H141.012L139.458 75.2987H127.235L125.682 81.8099H112.377L122.779 43.8351H144.132L154.534 81.8099ZM129.564 65.5368H137.131L134.606 54.9554H132.089L129.564 65.5368Z" fill="white"/>
<path d="M59.8216 0C63.871 0 67.1299 0.66114 70.1429 1.98076C73.1561 3.30047 75.5984 5.1455 77.4792 7.5149C79.3597 9.88399 80.591 12.6221 81.1744 15.7326H66.6114C66.2084 14.7936 65.6789 13.9992 65.0228 13.3453C64.3664 12.695 63.6069 12.2031 62.751 11.8798C61.8912 11.5527 60.9155 11.3945 59.8216 11.3945C58.3633 11.3945 57.0469 11.7663 55.8802 12.5038C54.7133 13.2455 53.7993 14.2774 53.143 15.5971C52.4868 16.9165 52.1565 18.4069 52.1564 20.0723C52.1564 21.7381 52.4866 23.2294 53.143 24.5491C53.7993 25.8688 54.7133 26.8992 55.8802 27.6408C57.047 28.3823 58.3593 28.7517 59.8216 28.7517C60.9882 28.7517 62.0399 28.5537 62.9687 28.1545C63.9014 27.7552 64.693 27.1693 65.3532 26.3896C66.0095 25.6138 66.52 24.6818 66.8846 23.5942H81.4476C80.7913 26.884 79.5049 29.7787 77.5857 32.2736C75.6666 34.7683 73.195 36.7043 70.1668 38.0772C67.1384 39.4501 63.6873 40.1383 59.8184 40.1383L59.8216 40.1462C55.7722 40.1462 52.1027 39.2678 48.8171 37.5146C45.5314 35.7614 42.9401 33.3569 41.0439 30.2991C39.1441 27.2453 38.1955 23.8335 38.1955 20.0723C38.1956 16.3111 39.144 12.9032 41.0439 9.84548C42.9401 6.7916 45.5354 4.38481 48.8171 2.63156C52.1027 0.878304 55.7721 3.06859e-05 59.8216 0Z" fill="white"/>
<path fill-rule="evenodd" clip-rule="evenodd" d="M209.102 10.854H214.575C217.822 10.854 220.69 11.4437 223.17 12.6189C225.653 13.7939 227.576 15.4478 228.946 17.581C230.316 19.7146 231 22.1764 231 24.9604C231 27.7441 230.316 30.2047 228.946 32.3382C227.576 34.4716 225.653 36.1268 223.17 37.3019C220.686 38.477 217.822 39.0652 214.575 39.0652H195.415V1.08729H209.102V10.854ZM208.553 28.7517H213.206C213.973 28.7516 214.664 28.5879 215.285 28.2648C215.907 27.9377 216.398 27.4884 216.763 26.9065C217.127 26.3284 217.312 25.6782 217.312 24.9557C217.312 23.8719 216.92 22.9663 216.134 22.2437C215.347 21.5215 214.372 21.1613 213.206 21.1612H208.553V28.7517Z" fill="white"/>
<path fill-rule="evenodd" clip-rule="evenodd" d="M21.9025 1.08729C24.6387 1.08734 26.9913 1.5127 28.964 2.36052C30.9368 3.2124 32.4418 4.3694 33.482 5.83354C34.5223 7.29778 35.0453 8.9527 35.0453 10.7973C35.0451 12.6416 34.5065 14.2962 33.428 15.6538C32.3495 17.0112 30.7917 18.0304 28.7463 18.7187V18.9882C31.0107 19.4597 32.8063 20.419 34.1381 21.864C35.4701 23.3092 36.1382 25.1387 36.1382 27.3445C36.1382 29.6607 35.5817 31.6959 34.4686 33.4491C33.3554 35.2021 31.6279 36.5788 29.2944 37.5714C26.957 38.5676 24.0402 39.062 20.5363 39.0621H0V1.08729H21.9025ZM13.1348 29.8359H18.7745L18.7776 29.839C19.5069 29.839 20.1485 29.714 20.6935 29.4592C21.2422 29.2082 21.6679 28.835 21.9787 28.3483C22.2896 27.8615 22.4426 27.2718 22.4426 26.5834C22.4426 25.8952 22.2858 25.3091 21.9787 24.8186C21.668 24.3322 21.2381 23.9601 20.6935 23.7092C20.1447 23.4582 19.5069 23.3279 18.7776 23.3279H13.1348V29.8359ZM13.1348 16.2778H18.8857C19.9064 16.2777 20.7085 16.0147 21.2956 15.4899C21.879 14.9651 22.1709 14.2349 22.171 13.2917C22.171 12.6756 22.032 12.1433 21.7595 11.6907C21.487 11.2381 21.1029 10.896 20.6078 10.6602C20.1167 10.4246 19.5416 10.3057 18.8857 10.3056H13.1348V16.2778Z" fill="white"/>
<path d="M119.149 13.0223H107.925V39.0621H94.2377V13.0223H83.014V1.08729H119.149V13.0223Z" fill="white"/>
<path fill-rule="evenodd" clip-rule="evenodd" d="M158.854 39.0621H145.33L143.776 32.5509H131.553L129.999 39.0621H116.696L127.097 1.08729H148.451L158.854 39.0621ZM133.882 22.789H141.449L138.924 12.2076H136.406L133.882 22.789Z" fill="white"/>
<path d="M192.534 13.0223H181.312V39.0621H167.623V13.0223H156.401V1.08729H192.534V13.0223Z" fill="white"/>
</svg>
