<svg width="138" height="17" viewBox="0 0 138 17" fill="none" xmlns="http://www.w3.org/2000/svg">
<path d="M134.52 1.08487C133.226 -0.111297 131.128 -0.111297 129.833 1.08487L128.185 2.60894L126.536 1.08487C125.242 -0.111297 123.144 -0.111297 121.849 1.08487C120.555 2.28103 120.555 4.22076 121.849 5.41692L123.498 6.94098L128.185 11.273L134.52 5.41692C135.814 4.22076 135.814 2.28219 134.52 1.08487Z" fill="#FF5B00"/>
<path d="M11.2846 8.16651C11.2846 10.4503 9.05362 11.6026 5.90459 11.6026C1.98985 11.6037 0.437192 9.90531 0 7.62034H3.17152C3.4126 8.93432 4.2645 9.39959 5.83964 9.39959C7.436 9.39959 8.11427 8.87424 8.11427 7.96444C8.11427 7.29705 7.76451 6.77174 6.36425 6.77174H4.35194V4.54797H6.03576C7.34731 4.54797 7.74205 4.16349 7.74205 3.45687C7.74205 2.68907 7.2174 2.14294 5.686 2.14294C4.61426 2.14294 3.65243 2.42581 3.41135 3.57811H0.24108C0.634555 1.6176 2.07729 0 5.72972 0C8.74757 0 10.8911 1.13151 10.8911 3.25482C10.8911 4.38632 10.279 5.07446 9.40338 5.47858C10.585 5.92309 11.2846 6.87333 11.2846 8.16651Z" fill="#007FDB"/>
<path d="M27.2271 8.63198V14.1706H24.0994V11.3603H15.0669V14.1706H11.9404V8.63198H14.0839C14.4998 8.30868 14.7622 7.66216 14.9583 6.52949L16.0513 0.242676H25.04V8.63198H27.2271ZM21.9121 8.63198V2.97215H18.7194L18.0636 6.67147C17.9099 7.58132 17.6913 8.18746 17.3853 8.63198H21.9121Z" fill="#007FDB"/>
<path d="M40.9284 5.80187C40.9284 9.21834 38.5662 11.6037 35.4385 11.6037C33.7322 11.6037 32.4856 10.9168 31.6336 9.86492V16.415H28.5059V0.242466H31.6336V1.79887C32.4656 0.727401 33.7559 0 35.4397 0C38.5225 0 40.9284 2.36462 40.9284 5.80187ZM37.7581 5.80187C37.7581 3.98221 36.4678 2.7491 34.7177 2.7491C32.9677 2.7491 31.6336 3.98221 31.6336 5.80187C31.6336 7.64115 32.9677 8.85465 34.7177 8.85465C36.4453 8.85348 37.7581 7.64115 37.7581 5.80187Z" fill="#007FDB"/>
<path d="M54.5009 0.242466L54.4784 11.3601H51.3506V9.86492C50.5199 10.9156 49.2733 11.6037 47.5895 11.6037C44.4405 11.6037 42.0996 9.21834 42.0996 5.80187C42.1009 2.36462 44.4842 0 47.5682 0C49.2745 0 50.5424 0.727401 51.3731 1.79887V0.242466H54.5009ZM51.3731 5.80187C51.3731 3.98221 50.039 2.74911 48.289 2.74911C46.539 2.74911 45.2486 3.98221 45.2486 5.80187C45.2486 7.64115 46.5602 8.85466 48.289 8.85466C50.039 8.85348 51.3731 7.64115 51.3731 5.80187Z" fill="#007FDB"/>
<path d="M66.7497 8.14707C66.7497 10.4309 64.8472 11.3615 62.375 11.3615H56.0107V0.242676H61.8279C64.2337 0.242676 66.1362 0.829211 66.1362 3.05298C66.1362 4.20526 65.4801 4.81143 64.5837 5.35755C65.9838 5.74088 66.7497 6.73155 66.7497 8.14707ZM61.5668 2.50685H59.1398V4.64979H61.5668C62.6386 4.64979 62.9886 4.28608 62.9886 3.5991C62.9886 2.87055 62.6386 2.50685 61.5668 2.50685ZM63.5789 7.8838C63.5789 7.09524 63.1855 6.71191 62.1352 6.71191H59.1385V9.09731H62.1352C63.2282 9.09731 63.5789 8.69206 63.5789 7.8838Z" fill="#007FDB"/>
<path d="M67.665 5.80187C67.665 2.50664 70.3109 0 73.9409 0C76.8709 0 79.4741 1.63722 79.9326 4.46715H76.7178C76.3452 3.25481 75.2086 2.66828 73.9396 2.66828C72.0371 2.66828 70.8114 3.96259 70.834 5.80187C70.8114 7.6619 72.081 8.93543 73.9183 8.93543C75.2086 8.93543 76.3452 8.3293 76.7178 7.11579H79.9326C79.4521 10.0474 76.805 11.6037 73.9183 11.6037C70.3109 11.6037 67.665 9.09711 67.665 5.80187Z" fill="#007FDB"/>
<path d="M92.6943 0.242676V11.3603H89.5667V7.41853L89.7637 4.12329L84.8001 11.3603H81.1914V0.242676H84.319V4.18448L84.1653 7.43928L89.1082 0.242676H92.6943Z" fill="#007FDB"/>
<path d="M104.503 2.97215H100.786V11.3615H97.6584V2.97215H93.9619V0.242676H100.785H104.502V2.97215H104.503Z" fill="#007FDB"/>
<path d="M117.231 0.242676V11.3603H114.104V7.41853L114.301 4.12329L109.337 11.3603H105.729V0.242676H108.856V4.18448L108.703 7.43928L113.645 0.242676H117.231Z" fill="#007FDB"/>
<path d="M123.498 6.94224L121.848 5.41815C120.554 4.22198 120.554 2.28226 121.848 1.08609C123.143 -0.110077 125.241 -0.110077 126.535 1.08609L128.184 2.61016L123.498 6.94224Z" fill="#FF8150"/>
</svg>
