<svg width="138" height="21" viewBox="0 0 138 21" fill="none" xmlns="http://www.w3.org/2000/svg">
<g clip-path="url(#clip0_524_2797)">
<mask id="mask0_524_2797" style="mask-type:luminance" maskUnits="userSpaceOnUse" x="0" y="-1" width="21" height="22">
<path d="M0 -0.000244141H20.2941V20.9998H0V-0.000244141Z" fill="white"/>
</mask>
<g mask="url(#mask0_524_2797)">
<path d="M10.1471 20.9998C15.7511 20.9998 20.2941 16.2987 20.2941 10.4998C20.2941 4.70077 15.7511 -0.000244141 10.1471 -0.000244141C4.54299 -0.000244141 0 4.70077 0 10.4998C0 16.2987 4.54299 20.9998 10.1471 20.9998Z" fill="#FF5226"/>
<path d="M11.792 17.1138V5.87179H10.5176C9.59893 5.87179 8.90217 6.07339 8.42864 6.47729C7.95511 6.86649 7.71834 7.38519 7.71834 8.03409C7.71834 8.52409 7.80155 8.94199 7.96864 9.28779C8.13573 9.63359 8.37993 9.95069 8.6999 10.2391C9.02055 10.5275 9.4244 10.8446 9.91214 11.1904L11.1237 12.0332L7.57223 17.1145H4.89746L8.28252 12.358L9.8702 13.828L8.6167 13.0062C7.98638 12.5825 7.38597 12.113 6.81999 11.6013C6.31805 11.1393 5.93517 10.6353 5.67067 10.0879C5.40617 9.53979 5.27358 8.89858 5.27358 8.16358C5.27358 6.89518 5.71261 5.87179 6.58999 5.09339C7.48158 4.30099 8.78378 3.90479 10.4966 3.90479H14.2781V17.1138H11.792Z" fill="white"/>
</g>
<path d="M32.1715 20.9998C26.5737 20.9998 22.0244 16.3105 22.0244 10.5187C22.0244 4.72616 26.5737 -0.000244141 32.1715 -0.000244141C37.7686 -0.000244141 42.3185 4.72616 42.3185 10.5187C42.3185 16.3105 37.7686 20.9998 32.1715 20.9998Z" fill="#FF5226"/>
<path d="M30.5994 1.42017L19.2793 19.6972H24.4685L31.0079 9.16217L30.8483 9.08727L29.0354 16.6263L32.8737 17.3263L36.8188 12.1953L36.6051 12.0854L35.2724 17.9136L43.6356 16.2644L41.9296 13.3566L38.9152 14.0706L39.271 14.4941L40.6747 8.40757L37.4046 6.14517L33.1226 11.7172L33.3357 11.8278L35.0945 4.52677L30.5994 1.42017Z" fill="#FFDD00"/>
<path d="M30.5994 1.42017L19.2793 19.6972H24.4685L31.0079 9.16217L30.8483 9.08727L29.0354 16.6263L32.8737 17.3263L36.8188 12.1953L36.6051 12.0854L35.2724 17.9136L38.6345 17.2507L40.6747 8.40757L37.4047 6.14517L33.1226 11.7172L33.3357 11.8278L35.0945 4.52677L30.5994 1.42017Z" fill="#FFDD00"/>
<path d="M46.2077 17.1142L52.5172 3.90524H57.3221L58.3044 11.9475L63.1722 3.90454H67.9359V17.1142H63.2771V10.0232L58.9517 17.1142H54.2929L53.3952 9.95814L49.9682 17.1142H46.2077ZM82.2474 14.4983C82.2474 14.9456 82.2548 15.3852 82.2683 15.8171C82.2825 16.2497 82.3103 16.6746 82.3522 17.0925H78.0269C77.9242 16.885 77.8404 16.668 77.7766 16.4443C77.6914 16.1483 77.6354 15.8441 77.6095 15.5364C77.1637 16.0838 76.5995 16.5374 75.9169 16.8979C75.2486 17.2444 74.2941 17.4173 73.0548 17.4173C71.8013 17.4173 70.7981 17.1142 70.0459 16.5094C69.3078 15.9039 68.9391 15.0968 68.9391 14.0874C68.9391 13.1508 69.1962 12.4305 69.7117 11.9258C70.2414 11.4071 71.0626 11.0466 72.1774 10.845C73.2916 10.628 74.7189 10.5202 76.4602 10.5202H77.5466V10.2822C77.5466 9.82164 77.3585 9.46814 76.9824 9.22314C76.6063 8.97814 75.9027 8.85564 74.8725 8.85564C73.8557 8.85564 72.9087 8.99284 72.0306 9.26654C71.1674 9.52554 70.4639 9.78524 69.9207 10.0449V7.14764C70.5336 6.91664 71.3555 6.68634 72.3864 6.45604C73.4309 6.21104 74.6215 6.08854 75.9589 6.08854C77.3098 6.08854 78.4517 6.21804 79.3852 6.47774C80.3187 6.72274 81.029 7.14764 81.5161 7.75314C82.0038 8.34394 82.2474 9.16574 82.2474 10.2178V14.4983ZM83.6679 6.41334H87.9933L88.2436 8.25014C88.7733 7.52984 89.4064 7.00414 90.1452 6.67234C90.8832 6.34054 91.7328 6.17534 92.6941 6.17534C93.7805 6.17534 94.7553 6.37694 95.6192 6.78014C96.4639 7.16713 97.1769 7.80747 97.6662 8.61834C98.1681 9.43944 98.4184 10.4775 98.4184 11.7312C98.4184 12.9849 98.1681 14.03 97.6662 14.8658C97.1791 15.6876 96.4965 16.3078 95.6192 16.725C94.7411 17.1436 93.7386 17.3522 92.6102 17.3522C91.8025 17.3576 91.0012 17.2034 90.2493 16.8979C89.5248 16.5815 88.8984 16.0838 88.3694 15.4069V19.9037H83.6679V6.41264V6.41334ZM112.04 11.7312C112.04 10.6644 112.319 9.71314 112.877 8.87734C113.448 8.04154 114.255 7.38634 115.3 6.91034C116.358 6.42034 117.605 6.17534 119.04 6.17534C120.53 6.17534 121.777 6.44134 122.779 6.97474C123.796 7.50814 124.506 8.26484 124.91 9.24484C125.328 10.2248 125.384 11.3854 125.077 12.7259H116.825C116.992 13.3454 117.362 13.8137 117.933 14.1308C118.518 14.4339 119.381 14.5851 120.523 14.5851C121.317 14.5851 122.055 14.513 122.738 14.3681C123.38 14.2213 124.014 14.0412 124.639 13.8284V16.4009C124.04 16.6893 123.371 16.9196 122.633 17.0925C121.909 17.2654 120.955 17.3522 119.771 17.3522C117.166 17.3522 115.223 16.8552 113.942 15.8605C112.674 14.8518 112.04 13.4756 112.04 11.7312ZM125.475 6.41264H137.405V9.18044H133.686V17.0925H128.985V9.18044H125.475V6.41264ZM99.3167 6.41264H104.018V11.2552L108.468 6.41264H112.521L108.384 10.866L113.378 17.0925H107.695L104.018 12.3794V17.0925H99.3167V6.41264ZM119.061 8.59664C118.42 8.59664 117.912 8.79124 117.535 9.18044C117.159 9.55494 116.916 10.0379 116.804 10.6287H120.941C120.927 10.0379 120.774 9.55494 120.481 9.17974C120.189 8.79124 119.715 8.59664 119.061 8.59664ZM93.6134 11.7312C93.6134 10.866 93.3834 10.1814 92.9234 9.67744C92.4783 9.15874 91.837 8.89904 91.0016 8.89904C90.2358 8.89904 89.5945 9.14404 89.0797 9.63404C88.5642 10.11 88.3065 10.8086 88.3065 11.7312C88.3065 12.6538 88.5568 13.3671 89.0587 13.8718C89.5742 14.3618 90.2216 14.6068 91.0016 14.6068C91.8654 14.6068 92.5128 14.3471 92.9444 13.8284C93.3902 13.3097 93.6134 12.6104 93.6134 11.7312ZM77.5466 12.4872H76.4811C75.4644 12.4872 74.7331 12.5747 74.2873 12.7476C73.8557 12.9205 73.6399 13.2516 73.6399 13.7416C73.6399 14.1595 73.7793 14.4696 74.0573 14.6712C74.3502 14.8588 74.6979 14.9526 75.1025 14.9526C75.7154 14.9526 76.2166 14.8371 76.6063 14.6068C77.0101 14.3618 77.324 14.0804 77.5466 13.7633V12.4872Z" fill="black"/>
</g>
<defs>
<clipPath id="clip0_524_2797">
<rect width="138" height="21" fill="white" transform="translate(0 -0.000244141)"/>
</clipPath>
</defs>
</svg>
