<svg width="143" height="23" viewBox="0 0 143 23" fill="none" xmlns="http://www.w3.org/2000/svg">
<path d="M132.862 11.3738C132.862 10.4677 134.078 9.73676 135.672 9.73676C137.335 9.73676 139.032 10.5381 140.18 11.8443L142.254 9.26694C140.283 7.48966 138.277 6.5668 135.775 6.5668C132.656 6.5668 129.434 8.02996 129.434 11.3738C129.434 15.4847 132.93 15.7807 135.775 16.025C137.369 16.1458 138.775 16.2687 138.775 17.3311C138.775 18.4802 137.164 19.0024 135.741 19.0024C134.095 19.0024 132.313 18.2889 131.011 16.7036L128.8 19.0903C130.565 21.285 133.119 22.2428 135.621 22.2428C138.758 22.2428 142.202 20.7273 142.202 17.2613C142.202 13.3417 138.672 12.9591 135.964 12.6805C134.267 12.506 132.862 12.3497 132.862 11.3738ZM117.094 12.3497C117.66 10.9039 118.876 10.0677 120.676 10.0677C122.492 10.0677 123.572 10.9556 124.035 12.3497H117.094ZM120.847 6.5668C116.563 6.5668 113.117 9.96295 113.117 14.4222C113.117 18.6198 116.168 22.2428 120.658 22.2428C123.366 22.2428 125.56 20.9186 127.12 18.6547L124.755 16.617C123.915 17.9231 122.407 18.6896 120.607 18.6896C118.773 18.6896 116.871 17.2962 116.717 15.2404H127.908V14.0216C127.874 9.71931 124.995 6.5668 120.847 6.5668ZM77.0053 6.5668C72.7205 6.5668 69.2757 9.96295 69.2757 14.4222C69.2757 18.6198 72.3267 22.2428 76.8169 22.2428C79.525 22.2428 81.7189 20.9186 83.2784 18.6547L80.9134 16.617C80.0735 17.9231 78.5655 18.6896 76.7654 18.6896C74.9316 18.6896 73.0291 17.2962 72.8752 15.2404H84.0668V14.0216C84.0496 9.71931 81.1532 6.5668 77.0053 6.5668ZM107.942 21.7025H111.369V7.10642H107.942V21.7032V21.7025ZM109.655 0C108.267 0 107.084 1.18463 107.084 2.66457C107.084 4.12774 108.233 5.20833 109.724 5.20833C111.181 5.20833 112.243 4.16331 112.243 2.7176C112.226 1.23698 111.061 0 109.655 0ZM59.9693 6.54935C58.3583 6.54935 56.9018 7.03729 55.6674 7.89036V0.174506H52.2397V14.4222C52.2397 18.7587 55.719 22.2428 59.9522 22.2428C64.2197 22.2428 67.7161 18.7768 67.7161 14.3873C67.699 10.0153 64.2713 6.54935 59.9693 6.54935ZM42.1451 6.79298C38.3229 7.19367 35.2032 10.5381 35.2032 14.527C35.2032 18.7419 38.7518 22.2777 42.8991 22.2777C47.0292 22.2777 50.5943 18.7419 50.5943 14.527C50.5943 12.7329 49.9599 11.0778 48.9317 9.77166L41.3224 0.191956H36.883L42.1451 6.79298ZM15.5795 15.4149L12.4426 7.10642H10.0445L6.89036 15.4149L3.73693 7.10642H0L5.5185 21.7381H7.91794L11.226 13.0289L14.5684 21.7374H16.9672L22.4692 7.10642H18.7501L15.5795 15.4149ZM89.2939 10.4334V7.10642H85.8662V21.7032H89.2939V15.5377C89.2939 12.5416 92.448 10.7127 95.5842 10.7127V7.10709H95.2412C92.5848 7.10709 90.6651 8.08298 89.2939 10.4341V10.4334ZM100.178 10.4334V7.10642H96.7499V21.7032H100.178V15.5377C100.178 12.5416 103.331 10.7127 106.467 10.7127V7.10709H106.125C103.485 7.10709 101.566 8.08298 100.178 10.4341V10.4334ZM30.0104 21.7025H33.4375V0.191956H30.0098V21.7032L30.0104 21.7025ZM42.9162 18.7587C40.5505 18.7587 38.6315 16.8257 38.6315 14.4222C38.6315 12.0013 40.5505 10.0677 42.8991 10.0677C45.2813 10.0677 47.2182 12.0006 47.2182 14.4222C47.2182 16.8257 45.2813 18.7587 42.9162 18.7587ZM59.9522 18.7587C59.389 18.7599 58.8312 18.648 58.3107 18.4296C57.7902 18.2112 57.3173 17.8905 56.9192 17.4859C56.521 17.0814 56.2055 16.6009 55.9907 16.0722C55.7759 15.5434 55.666 14.9768 55.6674 14.4048C55.6674 12.0188 57.5012 10.0677 59.9693 10.0677C62.4375 10.0677 64.2713 12.0188 64.2713 14.3873C64.2713 16.8606 62.3172 18.7587 59.9522 18.7587ZM24.0631 21.7025H27.4907V7.10642H24.0631V21.7032V21.7025ZM25.7429 0C24.3545 0 23.1888 1.18463 23.1888 2.68269C23.1888 4.19821 24.406 5.22578 25.7429 5.22578C27.2337 5.22578 28.365 3.97135 28.365 2.61289C28.3478 1.23698 27.165 0 25.7429 0ZM73.2518 12.3497C73.8347 10.9039 75.0347 10.0677 76.8169 10.0677C78.6507 10.0677 79.7649 10.9556 80.2274 12.3497H73.2518Z" fill="#18191E"/>
</svg>
