<svg width="59" height="59" viewBox="0 0 59 59" fill="none" xmlns="http://www.w3.org/2000/svg">
<path d="M47.6538 0C46.7511 0 45.8853 0.358619 45.247 0.996964C44.6086 1.63531 44.25 2.50109 44.25 3.40385V7.94231H39.7115C38.8088 7.94231 37.943 8.30093 37.3047 8.93927C36.6663 9.57762 36.3077 10.4434 36.3077 11.3462C36.3077 12.2489 36.6663 13.1147 37.3047 13.753C37.943 14.3914 38.8088 14.75 39.7115 14.75H44.25V19.2885C44.25 20.1912 44.6086 21.057 45.247 21.6953C45.8853 22.3337 46.7511 22.6923 47.6538 22.6923C48.5566 22.6923 49.4224 22.3337 50.0607 21.6953C50.6991 21.057 51.0577 20.1912 51.0577 19.2885V14.75H55.5962C56.4989 14.75 57.3647 14.3914 58.003 13.753C58.6414 13.1147 59 12.2489 59 11.3462C59 10.4434 58.6414 9.57762 58.003 8.93927C57.3647 8.30093 56.4989 7.94231 55.5962 7.94231H51.0577V3.40385C51.0577 2.50109 50.6991 1.63531 50.0607 0.996964C49.4224 0.358619 48.5566 0 47.6538 0ZM9.07692 4.53846C6.66957 4.53846 4.36082 5.49478 2.65857 7.19703C0.956316 8.89928 0 11.208 0 13.6154V49.9231C0 52.3304 0.956316 54.6392 2.65857 56.3414C4.36082 58.0437 6.66957 59 9.07692 59H45.3846C47.792 59 50.1007 58.0437 51.803 56.3414C53.5052 54.6392 54.4615 52.3304 54.4615 49.9231V26.3639C52.6719 28.2344 50.2386 29.3554 47.6538 29.5C45.3172 29.3768 43.0938 28.4549 41.3556 26.8885C39.6174 25.3221 38.4698 23.2063 38.1049 20.8951C35.7937 20.5302 33.6779 19.3826 32.1115 17.6444C30.5451 15.9062 29.6232 13.6828 29.5 11.3462C29.6446 8.76144 30.7656 6.32814 32.6361 4.53846H9.07692ZM13.6154 13.6154C14.8191 13.6154 15.9734 14.0935 16.8246 14.9447C17.6757 15.7958 18.1538 16.9502 18.1538 18.1538C18.1538 19.3575 17.6757 20.5119 16.8246 21.363C15.9734 22.2141 14.8191 22.6923 13.6154 22.6923C12.4117 22.6923 11.2573 22.2141 10.4062 21.363C9.55508 20.5119 9.07692 19.3575 9.07692 18.1538C9.07692 16.9502 9.55508 15.7958 10.4062 14.9447C11.2573 14.0935 12.4117 13.6154 13.6154 13.6154ZM36.3077 28.1702C36.6062 28.1703 36.9018 28.2293 37.1775 28.3437C37.4532 28.4582 37.7036 28.626 37.9143 28.8374L46.9912 37.9143C47.4154 38.3396 47.6537 38.9157 47.6538 39.5164V49.9231C47.6538 50.5249 47.4148 51.1021 46.9892 51.5277C46.5636 51.9532 45.9865 52.1923 45.3846 52.1923H9.07692C8.47509 52.1923 7.8979 51.9532 7.47234 51.5277C7.04677 51.1021 6.80769 50.5249 6.80769 49.9231V39.5164C6.80782 38.9157 7.0461 38.3396 7.47031 37.9143L12.0088 33.3758C12.2196 33.1645 12.47 32.9969 12.7457 32.8825C13.0214 32.7681 13.3169 32.7092 13.6154 32.7092C13.9139 32.7092 14.2094 32.7681 14.4851 32.8825C14.7608 32.9969 15.0112 33.1645 15.222 33.3758L21.0857 39.2395C21.2965 39.4509 21.5469 39.6185 21.8226 39.7329C22.0983 39.8473 22.3938 39.9062 22.6923 39.9062C22.9908 39.9062 23.2863 39.8473 23.562 39.7329C23.8377 39.6185 24.0881 39.4509 24.2989 39.2395L34.7011 28.8374C34.9118 28.626 35.1622 28.4582 35.4379 28.3437C35.7136 28.2293 36.0092 28.1703 36.3077 28.1702Z" fill="white"/>
</svg>
