<svg width="58" height="52" viewBox="0 0 58 52" fill="none" xmlns="http://www.w3.org/2000/svg">
<path d="M37.7 2.89658e-07C39.1633 -0.000461007 40.5726 0.550063 41.6456 1.54121C42.7185 2.53236 43.3758 3.89088 43.4855 5.34444L43.5 5.77778C43.5001 6.48536 43.7609 7.16831 44.2329 7.69707C44.7049 8.22584 45.3553 8.56366 46.0607 8.64644L46.4 8.66667H49.3C51.5191 8.66654 53.6544 9.51116 55.269 11.0277C56.8835 12.5443 57.8553 14.6181 57.9855 16.8249L58 17.3333V43.3333C58.0001 45.5439 57.1523 47.671 55.6299 49.2794C54.1075 50.8878 52.0257 51.8559 49.8104 51.9856L49.3 52H8.7C6.48089 52.0001 4.34561 51.1555 2.73104 49.639C1.11648 48.1224 0.144688 46.0486 0.0145003 43.8418L1.35042e-08 43.3333V17.3333C-0.000123603 15.1227 0.847743 12.9956 2.37012 11.3872C3.8925 9.77887 5.97431 8.8108 8.1896 8.68111L8.7 8.66667H11.6C12.3691 8.66667 13.1068 8.3623 13.6506 7.82053C14.1945 7.27876 14.5 6.54396 14.5 5.77778C14.4995 4.32011 15.0522 2.91614 16.0471 1.84731C17.0421 0.778471 18.4059 0.12377 19.865 0.0144451L20.3 2.89658e-07H37.7ZM29 20.2222C26.8441 20.222 24.765 21.0193 23.1656 22.4593C21.5662 23.8994 20.5605 25.8797 20.3435 28.0164L20.3116 28.4556L20.3 28.8889L20.3116 29.3222C20.3967 31.0158 20.9787 32.6473 21.9854 34.0146C22.9921 35.3819 24.3794 36.425 25.9754 37.0147C27.5713 37.6043 29.3059 37.7146 30.9642 37.332C32.6224 36.9493 34.1316 36.0904 35.3047 34.8617C36.4778 33.633 37.2633 32.0885 37.564 30.4195C37.8646 28.7505 37.6671 27.0303 36.996 25.4719C36.3249 23.9136 35.2096 22.5856 33.7883 21.6525C32.3671 20.7194 30.7022 20.2221 29 20.2222Z" fill="white"/>
</svg>
