<svg width="25" height="25" viewBox="0 0 25 25" fill="none" xmlns="http://www.w3.org/2000/svg">
<rect width="25" height="25" rx="12.5" transform="matrix(1 0 0 -1 0 25)" fill="white" fill-opacity="0.16"/>
<path d="M7.00027 6.87584C6.99597 7.03214 7.0424 7.18529 7.13185 7.30979C7.22129 7.43429 7.34835 7.52262 7.49187 7.56009C8.64583 7.86818 9.68132 8.54663 10.4561 9.50226C11.231 10.4579 11.7071 11.6438 11.8192 12.8972H11.0947C10.8682 12.8973 10.6467 12.9682 10.458 13.1008C10.2693 13.2335 10.1218 13.4221 10.0339 13.6431C9.92982 13.8826 9.89336 14.1489 9.92893 14.4099C9.96451 14.6709 10.0706 14.9155 10.2345 15.1142L13.087 18.5765C13.1939 18.7093 13.3267 18.8159 13.4764 18.889C13.626 18.9621 13.7889 19 13.9538 19C14.1186 19 14.2815 18.9621 14.4311 18.889C14.5808 18.8159 14.7136 18.7093 14.8205 18.5765L17.6795 15.1142C17.8462 14.9129 17.9534 14.6643 17.9879 14.3991C18.0224 14.134 17.9827 13.864 17.8736 13.6225C17.7857 13.4016 17.6382 13.213 17.4495 13.0803C17.2609 12.9476 17.0393 12.8768 16.8128 12.8767H16.056C15.9201 11.0181 15.1307 9.28093 13.8434 8.00788C12.5562 6.73483 10.8646 6.01842 9.10249 6C8.55945 6.00101 8.01856 6.07224 7.49187 6.21212C7.34835 6.24958 7.22129 6.33791 7.13185 6.46241C7.0424 6.58691 6.99597 6.74006 7.00027 6.89637L7.00027 6.87584Z" fill="white"/>
</svg>
