<svg width="16" height="16" viewBox="0 0 16 16" fill="none" xmlns="http://www.w3.org/2000/svg">
<path d="M4.86094 3.27193C6.95033 3.09035 9.05154 3.09035 11.1409 3.27193L12.1483 3.3586C12.4713 3.38678 12.7819 3.496 13.0515 3.67617C13.321 3.85633 13.5407 4.1016 13.6903 4.38926C13.7077 4.42476 13.7112 4.46553 13.7 4.50346C13.6887 4.54139 13.6636 4.57369 13.6296 4.59393L9.45227 7.1806C9.01262 7.45279 8.50686 7.59948 7.98979 7.60477C7.47272 7.61006 6.96407 7.47374 6.51894 7.2106L2.31427 4.72526C2.28113 4.70652 2.25591 4.6764 2.24328 4.64048C2.23065 4.60456 2.23148 4.56529 2.24561 4.52993C2.38186 4.2069 2.60367 3.92718 2.88714 3.72089C3.17061 3.5146 3.505 3.38957 3.85427 3.35926L4.86094 3.27193Z" fill="#35A2EB"/>
<path d="M2.24129 5.8446C2.21747 5.83048 2.19048 5.82258 2.16281 5.82161C2.13514 5.82064 2.10767 5.82663 2.08292 5.83904C2.05817 5.85145 2.03693 5.86988 2.02115 5.89263C2.00537 5.91538 1.99556 5.94173 1.99262 5.96926C1.82358 7.64782 1.86479 9.34092 2.11529 11.0093C2.18007 11.4366 2.38668 11.8298 2.70191 12.1256C3.01714 12.4213 3.42266 12.6025 3.85329 12.6399L4.85995 12.7273C6.94995 12.9093 9.05129 12.9093 11.1413 12.7273L12.148 12.6406C12.5788 12.6029 12.9843 12.4214 13.2995 12.1253C13.6146 11.8291 13.8209 11.4356 13.8853 11.0079C14.143 9.291 14.1791 7.54806 13.9926 5.82193C13.9894 5.79428 13.9792 5.7679 13.9631 5.74523C13.9469 5.72256 13.9253 5.70432 13.9003 5.69222C13.8752 5.68012 13.8475 5.67455 13.8197 5.67601C13.7919 5.67747 13.7649 5.68593 13.7413 5.7006L9.97795 8.02993C9.38328 8.39796 8.69926 8.59629 7.99996 8.60346C7.30065 8.61063 6.61271 8.42636 6.01062 8.0706L2.24129 5.8446Z" fill="#35A2EB"/>
</svg>
