<svg width="238" height="34" viewBox="0 0 238 34" fill="none" xmlns="http://www.w3.org/2000/svg">
<path d="M7.21851 0.00238232C7.21851 0.00238232 0 0.00237687 0 7.21851V25.9086C0 25.9086 0 33.1271 7.21851 33.1271H25.9086C25.9086 33.1271 33.1271 33.1271 33.1271 25.9086V7.21851C33.1271 7.21851 33.1271 0 25.9086 0H7.21851V0.00238232Z" fill="black"/>
<path d="M19.1797 11.3357L14.1555 9.59589C14.7934 8.73433 15.5692 8.04651 16.3594 7.64905L20.0746 5.73792L25.0963 7.44199L21.543 9.22937C20.6886 9.65777 19.8556 10.4051 19.1797 11.3357ZM25.0773 12.9017L21.5335 14.6843C21.255 14.8247 20.9766 14.9985 20.7076 15.2008C20.7552 14.9056 20.779 14.6153 20.779 14.3345V14.1417C20.779 13.2278 20.5363 12.4709 20.0722 11.9449C20.2412 11.7188 20.422 11.5118 20.6077 11.3261L25.0749 12.8993L25.0773 12.9017ZM25.0606 15.058L21.5168 16.8406C21.0861 17.0572 20.6696 17.15 20.3007 17.1119C20.7148 16.6288 21.1789 16.2503 21.6573 16.01L24.18 14.7414L25.0606 15.0603V15.058ZM20.7719 19.7918V19.599C20.7719 19.3896 20.76 19.1873 20.7338 18.9921L25.013 20.5343L21.5097 22.2955C21.0099 22.5478 20.5339 22.6311 20.1222 22.5407C20.5458 21.6077 20.7695 20.6605 20.7719 19.7918ZM8.18412 24.8135L11.6018 23.0952C11.9255 22.931 12.2444 22.7096 12.549 22.4383L12.9655 22.5835L13.0345 22.6073L13.0726 22.5883L16.9187 20.6533C17.1971 20.5129 17.4756 20.3392 17.7445 20.1369C17.6969 20.432 17.6755 20.7223 17.6731 21.0032V21.196C17.6731 22.0766 17.8992 22.8144 18.3348 23.338C17.8754 23.933 17.3423 24.3947 16.7878 24.6731L13.1012 26.5271L8.18412 24.8135ZM12.9584 27.7124L7.94374 25.9655V25.0563L12.9584 26.8032V27.7124ZM7.95326 20.4939V19.6061L12.9679 21.3792V22.2551L7.95326 20.4939ZM9.10517 18.9683L13.0464 20.3344L13.1131 20.3059L16.9353 18.3828C17.3661 18.1662 17.7826 18.0734 18.1515 18.1115C17.7374 18.5946 17.2733 18.9731 16.7949 19.2134L13.0726 21.0865L8.17222 19.3848L9.10755 18.9659L9.10517 18.9683ZM7.95564 18.2376V17.4713L12.9703 19.2182V19.9941L7.95564 18.2376ZM11.5994 15.4959C11.9612 15.315 12.3158 15.196 12.6585 15.1436L17.4375 16.8096C17.2233 16.8763 17.0044 16.9643 16.7854 17.0762L13.0917 18.935L8.1746 17.2214L11.6018 15.4983L11.5994 15.4959ZM7.96278 12.7708V11.9997L12.9774 13.7252V14.532L7.96278 12.7708ZM17.7612 16.5954L12.8227 14.8747V14.8057L12.9774 14.8628L13.0226 14.8795L16.9449 12.9279C17.4661 12.6661 17.9564 12.5875 18.38 12.6946C17.9254 13.6585 17.685 14.6415 17.6827 15.5459V15.7386C17.6827 16.0409 17.7088 16.3265 17.7612 16.5954ZM19.5224 14.7319C19.5224 15.2436 19.4105 15.8005 19.1963 16.3598C19.025 16.0433 18.9369 15.6411 18.9369 15.1817V15.0389C18.9369 14.5272 19.0488 13.9703 19.263 13.411C19.4343 13.7276 19.5224 14.1298 19.5224 14.5867V14.7319ZM18.9298 20.639V20.4939C18.9298 19.9822 19.044 19.4253 19.2558 18.866C19.4272 19.1825 19.5153 19.5847 19.5153 20.0441V20.1892C19.5153 20.7009 19.4034 21.2578 19.1892 21.8171C19.0178 21.5006 18.9298 21.0984 18.9298 20.639ZM11.6065 10.0409C12.4253 9.62921 13.2226 9.54828 13.8509 9.81484L13.9675 9.86245H13.9699L17.9516 11.2381C17.5779 11.2928 17.1852 11.4213 16.7925 11.6189L13.1393 13.4562L8.1984 11.7569L11.6065 10.0409ZM25.4914 8.62723V7.25159L20.0484 5.40234L16.219 7.37535C15.3646 7.80375 14.5292 8.55107 13.8556 9.48403C13.1631 9.23651 12.3229 9.33647 11.4685 9.76487L7.65576 11.6831V12.9898L12.5133 14.6938V14.858C12.1706 14.9223 11.8184 15.0437 11.4614 15.2222L7.64862 17.1405V18.459L8.70057 18.8279L7.64386 19.2872V20.7152L12.2134 22.3193C11.9707 22.524 11.7184 22.6906 11.4637 22.8191L7.63672 24.7445V26.1868L12.9584 28.0408L13.025 28.0646L13.075 28.0385L16.9092 26.1106C17.7636 25.6799 18.599 24.9349 19.2725 24.002C19.9651 24.2495 20.8076 24.1495 21.6596 23.7211L25.4724 21.8029V20.3772L25.3915 20.3463L20.6672 18.6446C20.6672 18.6446 20.6648 18.628 20.6624 18.6208C20.9909 18.5542 21.3264 18.4352 21.6668 18.2638L25.4795 16.3455V14.8914L25.4391 14.8676L24.5585 14.5487L25.4819 14.0845V12.7184L25.4557 12.7113L20.8623 11.0953C21.1194 10.8763 21.3859 10.6931 21.662 10.555L25.489 8.62961L25.4914 8.62723Z" fill="#E5FF92" stroke="#DCFF00" stroke-width="0.300999" stroke-miterlimit="10"/>
<path d="M48.7068 25.0352C52.8052 25.0352 55.6207 22.798 55.6207 19.5041C55.6207 17.2669 54.3141 15.808 51.9246 15.4558C53.9119 14.9036 54.9162 13.3685 54.9162 11.4574C54.9162 8.54188 52.4791 6.55459 48.883 6.55459C45.2868 6.55459 42.7497 8.48952 42.3213 12.1357H45.4629C45.8413 10.2007 46.7457 9.22018 48.7568 9.22018C50.5418 9.22018 51.5724 10.1246 51.5724 11.7097C51.5724 13.2947 50.7679 14.3752 48.7068 14.3752H46.7219V16.6886H48.7568C51.2463 16.6886 52.1745 17.493 52.1745 19.328C52.1745 21.163 50.994 22.3458 48.7306 22.3458C46.165 22.3458 45.2868 20.8893 44.9845 18.952H41.793C42.1952 22.5981 44.5323 25.0352 48.7068 25.0352ZM64.3696 25.0352C68.2418 25.0352 71.1311 22.3696 71.1311 18.2737V18.0714C71.1311 14.0492 68.2394 11.3598 64.3934 11.3598C60.5473 11.3598 57.6318 14.0754 57.6318 18.1475V18.3498C57.6318 22.3482 60.4973 25.0376 64.3696 25.0376M64.3934 22.6719C62.08 22.6719 60.7472 20.9869 60.7472 18.2975V18.0952C60.7472 15.3796 62.13 13.7469 64.3934 13.7469C66.6567 13.7469 68.0133 15.4058 68.0133 18.1213V18.2975C68.0133 20.9869 66.6567 22.6719 64.3934 22.6719ZM77.3144 19.5041C77.4643 17.8191 77.5405 15.6081 77.5904 13.8969H81.4865V24.7829H84.5019V11.6359H74.9248C74.9248 11.6359 74.8487 16.7886 74.6488 19.0019C74.4465 21.0392 74.0966 22.3696 73.0899 22.3696C72.6876 22.3696 72.4853 22.2697 72.4853 22.2697V24.8091C72.4853 24.8091 72.8138 24.9852 73.592 24.9852C76.0553 24.9852 76.9621 23.0741 77.312 19.5041M93.9814 25.0352C97.8537 25.0352 100.743 22.3696 100.743 18.2737V18.0714C100.743 14.0492 97.8513 11.3598 94.0052 11.3598C90.1592 11.3598 87.2437 14.0754 87.2437 18.1475V18.3498C87.2437 22.3482 90.1092 25.0376 93.9814 25.0376M94.0076 22.6719C91.6943 22.6719 90.3615 20.9869 90.3615 18.2975V18.0952C90.3615 15.3796 91.7442 13.7469 94.0076 13.7469C96.271 13.7469 97.6276 15.4058 97.6276 18.1213V18.2975C97.6276 20.9869 96.2686 22.6719 94.0076 22.6719ZM112.938 11.6359H101.852V13.8992H105.874V24.7853H108.916V13.8992H112.938V11.6359ZM120.78 25.0352C124.652 25.0352 127.542 22.3696 127.542 18.2737V18.0714C127.542 14.0492 124.65 11.3598 120.804 11.3598C116.958 11.3598 114.04 14.0754 114.04 18.1475V18.3498C114.04 22.3482 116.906 25.0376 120.778 25.0376M120.804 22.6719C118.491 22.6719 117.158 20.9869 117.158 18.2975V18.0952C117.158 15.3796 118.541 13.7469 120.804 13.7469C123.067 13.7469 124.424 15.4058 124.424 18.1213V18.2975C124.424 20.9869 123.067 22.6719 120.804 22.6719ZM136.064 25.0352C139.432 25.0352 141.669 23.5263 142.098 20.7608H139.156C138.93 22.0436 137.976 22.7719 136.141 22.7719C133.877 22.7719 132.621 21.3629 132.521 18.8758H142.15V17.9952C142.15 13.2947 139.208 11.3574 135.941 11.3574C132.195 11.3574 129.405 14.073 129.405 18.1451V18.3474C129.405 22.4958 132.195 25.0352 136.067 25.0352M132.571 16.8409C132.873 14.8036 134.103 13.5732 135.938 13.5732C137.773 13.5732 138.98 14.5775 139.132 16.8409H132.571ZM160.148 9.39868V15.2059H157.634C155.397 15.2059 154.217 14.2753 154.217 12.2904V12.1904C154.217 10.0794 155.473 9.40106 157.611 9.40106H160.15L160.148 9.39868ZM158.01 17.5692H160.148V24.7853H163.491V6.81163H157.608C153.736 6.81163 150.92 8.34434 150.92 12.1166V12.2166C150.92 15.0821 152.579 16.5648 154.866 17.0432L149.511 24.7853H153.158L158.01 17.5692ZM173.318 25.0352C177.165 25.0352 180.08 22.472 180.08 18.2737V18.1213C180.08 14.3491 177.643 11.5597 173.997 11.5597C171.507 11.5597 169.925 12.7402 169.044 14.4514H168.918C169.244 10.7553 170.603 8.4443 174.297 8.242L174.949 8.19203C177.136 8.06589 178.117 7.86597 178.897 7.53753V5.15039C178.117 5.42647 176.886 5.52643 175.001 5.62877L174.197 5.65257C168.466 5.92865 166.578 10.2769 166.578 16.0865V17.017C166.578 22.5481 169.268 25.0352 173.316 25.0352M173.345 22.6719C171.031 22.6719 169.699 21.013 169.699 18.3974V18.2713C169.699 15.5557 171.131 13.9468 173.468 13.9468C175.806 13.9468 176.962 15.5295 176.962 18.1951V18.2951C176.962 21.0606 175.606 22.6695 173.342 22.6695M186.266 19.5041C186.418 17.8191 186.492 15.6081 186.542 13.8969H190.438V24.7829H193.456V11.6359H183.878C183.878 11.6359 183.802 16.7886 183.602 19.0019C183.402 21.0392 183.05 22.3696 182.044 22.3696C181.641 22.3696 181.439 22.2697 181.439 22.2697V24.8091C181.439 24.8091 181.765 24.9852 182.546 24.9852C185.009 24.9852 185.913 23.0741 186.266 19.5041ZM202.933 25.0352C206.805 25.0352 209.694 22.3696 209.694 18.2737V18.0714C209.694 14.0492 206.803 11.3598 202.957 11.3598C199.11 11.3598 196.195 14.0754 196.195 18.1475V18.3498C196.195 22.3482 199.06 25.0376 202.933 25.0376M202.959 22.6719C200.646 22.6719 199.313 20.9869 199.313 18.2975V18.0952C199.313 15.3796 200.696 13.7469 202.959 13.7469C205.222 13.7469 206.579 15.4058 206.579 18.1213V18.2975C206.579 20.9869 205.222 22.6719 202.959 22.6719ZM220.404 24.7853H223.924L218.393 17.7215L223.498 11.6383H220.178L215.478 17.4692V11.6383H212.436V24.7853H215.478V18.3498L220.404 24.7853ZM231.24 25.0352C235.113 25.0352 238.002 22.3696 238.002 18.2737V18.0714C238.002 14.0492 235.11 11.3598 231.264 11.3598C227.418 11.3598 224.503 14.0754 224.503 18.1475V18.3498C224.503 22.3482 227.368 25.0376 231.24 25.0376M231.264 22.6719C228.951 22.6719 227.618 20.9869 227.618 18.2975V18.0952C227.618 15.3796 229.001 13.7469 231.264 13.7469C233.527 13.7469 234.884 15.4058 234.884 18.1213V18.2975C234.884 20.9869 233.527 22.6719 231.264 22.6719Z" fill="black"/>
</svg>
