<svg width="37" height="49" viewBox="0 0 37 49" fill="none" xmlns="http://www.w3.org/2000/svg">
<path d="M15.0205 31.9181C15.0205 30.3301 15.2731 28.9236 15.7784 27.6986C16.3296 26.4736 16.9957 25.3847 17.7765 24.4319C18.6034 23.4792 19.4761 22.5944 20.3948 21.7778C21.3135 20.9611 22.1633 20.1898 22.9441 19.4639C23.771 18.6926 24.437 17.8986 24.9423 17.0819C25.4935 16.2653 25.7691 15.3579 25.7691 14.3597C25.7691 12.7264 25.0801 11.4106 23.702 10.4125C22.37 9.41435 20.5785 8.91528 18.3277 8.91528C16.1688 8.91528 14.2396 9.36898 12.54 10.2764C10.8405 11.1384 9.43948 12.3634 8.33706 13.9514L0 9.11944C1.83737 6.35185 4.38672 4.15139 7.64805 2.51806C10.9094 0.839352 14.8597 0 19.4991 0C22.9441 0 25.9758 0.499073 28.594 1.49722C31.2123 2.45 33.2564 3.85648 34.7263 5.71667C36.2421 7.57685 37 9.86805 37 12.5903C37 14.3597 36.7244 15.925 36.1732 17.2861C35.622 18.6472 34.91 19.8268 34.0372 20.825C33.1645 21.8231 32.2228 22.7532 31.2123 23.6153C30.2477 24.4773 29.329 25.3167 28.4562 26.1333C27.5835 26.95 26.8485 27.812 26.2514 28.7194C25.7002 29.6268 25.4246 30.6931 25.4246 31.9181H15.0205ZM20.257 49C18.3277 49 16.743 48.3875 15.5028 47.1625C14.2626 45.9375 13.6425 44.4856 13.6425 42.8069C13.6425 41.0829 14.2626 39.6537 15.5028 38.5194C16.743 37.3398 18.3277 36.75 20.257 36.75C22.2322 36.75 23.8169 37.3398 25.0112 38.5194C26.2514 39.6537 26.8715 41.0829 26.8715 42.8069C26.8715 44.4856 26.2514 45.9375 25.0112 47.1625C23.8169 48.3875 22.2322 49 20.257 49Z" fill="#E7E0D4"/>
</svg>
