<svg width="24" height="24" viewBox="0 0 24 24" fill="none" xmlns="http://www.w3.org/2000/svg">
<rect width="23.5207" height="23.5207" rx="11.7604" transform="matrix(1 0 0 -1 0 23.5215)" fill="white" fill-opacity="0.16"/>
<path d="M6.5862 6.4702C6.58215 6.61725 6.62583 6.76134 6.70999 6.87847C6.79414 6.9956 6.91368 7.07871 7.0487 7.11396C8.13438 7.40382 9.1086 8.04212 9.83758 8.94121C10.5666 9.84029 11.0145 10.9561 11.12 12.1353H10.4384C10.2252 12.1354 10.0168 12.202 9.83929 12.3268C9.66175 12.4517 9.52298 12.6291 9.44035 12.837C9.3424 13.0624 9.30809 13.3129 9.34156 13.5585C9.37503 13.804 9.47484 14.0341 9.629 14.2211L12.3128 17.4785C12.4133 17.6034 12.5383 17.7037 12.6791 17.7725C12.8199 17.8413 12.9731 17.877 13.1282 17.877C13.2833 17.877 13.4366 17.8413 13.5774 17.7725C13.7182 17.7037 13.8432 17.6034 13.9437 17.4785L16.6335 14.2211C16.7904 14.0317 16.8912 13.7978 16.9237 13.5483C16.9561 13.2989 16.9187 13.0449 16.8161 12.8177C16.7335 12.6098 16.5947 12.4324 16.4172 12.3075C16.2396 12.1827 16.0312 12.1161 15.8181 12.116H15.1061C14.9783 10.3674 14.2355 8.73297 13.0244 7.53525C11.8133 6.33754 10.2219 5.66351 8.56402 5.64618C8.05311 5.64713 7.54423 5.71415 7.0487 5.84575C6.91368 5.881 6.79414 5.9641 6.70999 6.08123C6.62583 6.19836 6.58215 6.34245 6.5862 6.48951L6.5862 6.4702Z" fill="white"/>
</svg>
