<svg width="257" height="306" viewBox="0 0 257 306" fill="none" xmlns="http://www.w3.org/2000/svg">
<path d="M153.707 12.2308C153.707 18.9856 159.183 24.4615 165.938 24.4615H177.228H59.624H70.914C77.6688 24.4615 83.1447 18.9856 83.1447 12.2308V12.2308C83.1447 5.4759 88.6206 0 95.3755 0H141.476C148.231 0 153.707 5.4759 153.707 12.2308V12.2308Z" fill="#D9D9D9"/>
<path d="M153.707 12.2308C153.707 18.9856 159.183 24.4615 165.938 24.4615H177.228H59.624H70.914C77.6688 24.4615 83.1447 18.9856 83.1447 12.2308V12.2308C83.1447 5.4759 88.6206 0 95.3755 0H141.476C148.231 0 153.707 5.4759 153.707 12.2308V12.2308Z" fill="url(#paint0_radial_202_63169)"/>
<path d="M0.351562 71.5024C0.351562 45.5221 21.4127 24.4609 47.393 24.4609H194.162C220.142 24.4609 241.204 45.5221 241.204 71.5024V94.7879V129.951L256.257 165.115L241.204 200.278V235.442V258.727C241.204 284.707 220.142 305.769 194.162 305.769H47.393C21.4127 305.769 0.351562 284.707 0.351562 258.727V235.442V209.924C0.351562 203.56 1.64297 197.262 4.14762 191.411L15.4048 165.115L4.14762 138.819C1.64297 132.968 0.351562 126.67 0.351562 120.306V94.7879V71.5024Z" fill="#EBE2D4"/>
<path d="M255.127 162.478L255.88 164.235L255.448 164.421L255.744 165.114L255.448 165.809L255.88 165.993L255.128 167.752L254.695 167.567L253.942 169.325L254.375 169.51L253.622 171.268L253.19 171.083L252.438 172.842L252.87 173.026L252.117 174.785L251.685 174.6L250.932 176.357L251.364 176.543L250.612 178.301L250.18 178.116L249.427 179.874L249.859 180.06L249.106 181.817L248.674 181.632L247.922 183.391L248.354 183.575L247.601 185.333L247.169 185.148L246.416 186.907L246.849 187.092L246.096 188.851L245.663 188.665L244.911 190.423L245.343 190.607L244.591 192.366L244.158 192.182L243.405 193.939L243.838 194.125L243.085 195.883L242.652 195.697L241.9 197.456L242.333 197.641L241.58 199.399L241.147 199.214L240.771 200.093L240.733 200.182V201.255H241.204V203.209H240.733V205.162H241.204V207.115H240.733V209.069H241.204V211.022H240.733V212.977H241.204V214.93H240.733V216.883H241.204V218.837H240.733V220.79H241.204V222.744H240.733V224.697H241.204V226.65H240.733V228.604H241.204V230.558H240.733V232.512H241.204V234.465H240.733V236.412H241.204V238.353H240.733V240.293H241.204V242.233H240.733V244.174H241.204V246.114H240.733V248.055H241.204V249.995H240.733V251.936H241.204V253.876H240.733V255.816H241.204V257.757H240.733V258.728C240.733 259.034 240.731 259.34 240.725 259.646L241.193 259.653C241.181 260.271 241.158 260.886 241.122 261.498L240.653 261.472C240.618 262.082 240.571 262.69 240.512 263.294L240.979 263.339C240.92 263.955 240.845 264.566 240.762 265.175L240.299 265.112C240.216 265.718 240.122 266.321 240.016 266.919L240.478 267C240.37 267.608 240.247 268.212 240.116 268.812L239.66 268.713C239.53 269.31 239.388 269.902 239.235 270.49L239.688 270.607C239.533 271.205 239.365 271.798 239.187 272.387L238.739 272.251C238.562 272.836 238.374 273.416 238.175 273.99L238.616 274.144C238.414 274.727 238.202 275.305 237.978 275.877L237.541 275.706C237.318 276.275 237.085 276.838 236.841 277.396L237.268 277.582C237.02 278.147 236.764 278.707 236.495 279.26L236.074 279.055C235.807 279.604 235.531 280.148 235.243 280.685L235.655 280.905C235.364 281.449 235.062 281.985 234.75 282.516L234.348 282.279C234.039 282.805 233.72 283.325 233.391 283.838L233.786 284.092C233.453 284.611 233.108 285.12 232.756 285.625L232.373 285.357C232.024 285.858 231.665 286.35 231.297 286.836L231.669 287.118C231.297 287.609 230.917 288.094 230.526 288.569L230.164 288.271C229.777 288.743 229.38 289.207 228.975 289.662L229.323 289.973C228.914 290.433 228.497 290.885 228.07 291.329L227.733 291.005C227.311 291.444 226.879 291.875 226.439 292.298L226.764 292.636C226.32 293.062 225.867 293.48 225.407 293.889L225.097 293.54C224.641 293.945 224.178 294.341 223.707 294.729L224.005 295.09C223.529 295.481 223.045 295.861 222.554 296.233L222.271 295.862C221.786 296.23 221.293 296.589 220.793 296.938L221.06 297.32C220.555 297.673 220.045 298.018 219.526 298.351L219.272 297.955C218.76 298.284 218.241 298.603 217.715 298.912L217.95 299.314C217.42 299.626 216.883 299.929 216.34 300.22L216.119 299.808C215.582 300.095 215.039 300.373 214.49 300.64L214.694 301.061C214.142 301.329 213.582 301.586 213.018 301.833L212.83 301.406C212.273 301.65 211.71 301.884 211.142 302.106L211.312 302.543C210.74 302.767 210.162 302.979 209.579 303.181L209.426 302.739C208.851 302.939 208.27 303.127 207.686 303.305L207.82 303.751C207.232 303.929 206.64 304.098 206.042 304.254L205.925 303.8C205.337 303.953 204.744 304.095 204.147 304.226L204.247 304.681C203.647 304.812 203.044 304.934 202.436 305.042L202.354 304.58C201.756 304.686 201.153 304.781 200.547 304.864L200.61 305.326C200.002 305.41 199.389 305.484 198.773 305.544L198.729 305.077C198.125 305.136 197.517 305.183 196.906 305.219L196.933 305.687C196.321 305.722 195.706 305.746 195.088 305.758L195.08 305.289C194.775 305.295 194.469 305.298 194.162 305.298H193.222V305.769H191.34V305.298H189.458V305.769H187.576V305.298H185.694V305.769H183.812V305.298H181.932V305.769H180.05V305.298H178.168V305.769H176.286V305.298H174.404V305.769H172.523V305.298H170.642V305.769H168.76V305.298H166.878V305.769H164.996V305.298H163.115V305.769H161.233V305.298H159.352V305.769H157.47V305.298H155.588V305.769H153.706V305.298H151.825V305.769H149.943V305.298H148.062V305.769H146.18V305.298H144.298V305.769H142.417V305.298H140.535V305.769H138.653V305.298H136.771V305.769H134.89V305.298H133.009V305.769H131.127V305.298H129.245V305.769H127.363V305.298H125.481V305.769H123.6V305.298H121.719V305.769H119.837V305.298H117.955V305.769H116.073V305.298H114.191V305.769H112.311V305.298H110.429V305.769H108.547V305.298H106.665V305.769H104.783V305.298H102.902V305.769H101.021V305.298H99.1387V305.769H97.2568V305.298H95.375V305.769H93.4932V305.298H91.6123V305.769H89.7305V305.298H87.8486V305.769H85.9668V305.298H84.085V305.769H82.2041V305.298H80.3223V305.769H78.4404V305.298H76.5586V305.769H74.6768V305.298H72.7949V305.769H70.9141V305.298H69.0322V305.769H67.1504V305.298H65.2686V305.769H63.3867V305.298H61.5059V305.769H59.624V305.298H57.7422V305.769H55.8604V305.298H53.9785V305.769H52.0967V305.298H50.2158V305.769H48.334V305.298H47.3926C47.0862 305.298 46.7805 305.295 46.4756 305.289L46.4658 305.758C45.8482 305.746 45.2336 305.722 44.6221 305.687L44.6494 305.219C44.0386 305.183 43.4304 305.136 42.8262 305.077L42.7803 305.544C42.1646 305.484 41.5528 305.41 40.9443 305.326L41.0078 304.864C40.4018 304.781 39.7995 304.686 39.2012 304.58L39.1191 305.043H39.1182C38.5102 304.935 37.9072 304.812 37.3076 304.681L37.4082 304.226C36.8113 304.095 36.2179 303.953 35.6299 303.8L35.5117 304.254C34.914 304.098 34.3216 303.929 33.7334 303.751L33.8691 303.305C33.2844 303.128 32.7047 302.939 32.1299 302.739L31.9756 303.181C31.3927 302.979 30.8144 302.767 30.2422 302.543L30.4141 302.106C29.8455 301.884 29.282 301.65 28.7246 301.406L28.5371 301.833C27.9722 301.586 27.4124 301.329 26.8594 301.061L27.0654 300.64C26.5163 300.373 25.9724 300.095 25.4355 299.808L25.2148 300.22C24.6711 299.928 24.1342 299.626 23.6035 299.314L23.8408 298.912C23.3147 298.603 22.7949 298.284 22.2822 297.955L22.0283 298.351C21.5094 298.018 20.9989 297.673 20.4941 297.32L20.7627 296.938C20.2627 296.589 19.7696 296.23 19.2842 295.862L19.001 296.234C18.5098 295.862 18.0257 295.481 17.5498 295.09L17.8486 294.729C17.3774 294.341 16.9135 293.945 16.458 293.54L16.1475 293.889C15.6872 293.479 15.2339 293.063 14.79 292.636L15.1152 292.298C14.6759 291.875 14.2448 291.444 13.8223 291.005L13.4844 291.329C13.0574 290.885 12.6399 290.432 12.2305 289.972L12.5801 289.662C12.175 289.207 11.7788 288.743 11.3916 288.271L11.0283 288.569C10.6375 288.094 10.257 287.609 9.88477 287.118L10.2588 286.836C9.89071 286.35 9.53182 285.858 9.18262 285.357L8.79883 285.625C8.44639 285.12 8.10143 284.61 7.76855 284.091L8.16504 283.838C7.83616 283.325 7.51706 282.805 7.20801 282.279L6.80469 282.516C6.49297 281.985 6.19065 281.448 5.89941 280.904L6.3125 280.685C6.02497 280.148 5.7473 279.604 5.48047 279.055L5.05859 279.26C4.78988 278.707 4.53356 278.147 4.28613 277.582L4.71387 277.396C4.46972 276.838 4.23637 276.275 4.01367 275.706L3.57617 275.877C3.35203 275.305 3.14059 274.726 2.93848 274.144L3.38086 273.99C3.18156 273.415 2.9926 272.836 2.81543 272.251L2.36816 272.386C2.18998 271.798 2.02173 271.205 1.86621 270.607L2.32031 270.49C2.16731 269.902 2.02489 269.31 1.89453 268.713L1.43848 268.812C1.3075 268.212 1.18403 267.609 1.07617 267.001L1.54004 266.919C1.43387 266.321 1.33894 265.718 1.25586 265.112L0.792969 265.175C0.70956 264.566 0.6351 263.955 0.575195 263.339L1.04297 263.294C0.984182 262.69 0.93685 262.082 0.901367 261.472L0.432617 261.498C0.397077 260.886 0.37326 260.271 0.361328 259.653L0.831055 259.646L0.822266 258.728V257.757H0.351562V255.816H0.822266V253.876H0.351562V251.936H0.822266V249.995H0.351562V248.055H0.822266V246.114H0.351562V244.174H0.822266V242.233H0.351562V240.293H0.822266V238.353H0.351562V236.412H0.822266V234.53H0.351562V232.708H0.822266V230.885H0.351562V229.062H0.822266V227.239H0.351562V225.417H0.822266V223.594H0.351562V221.771H0.822266V219.949H0.351562V218.126H0.822266V216.304H0.351562V214.48H0.822266V212.658H0.351562V210.835H0.822266V209.924C0.822267 209.61 0.824714 209.296 0.831055 208.982L0.361328 208.973C0.374167 208.338 0.400039 207.704 0.438477 207.071L0.907227 207.1C0.945321 206.473 0.996236 205.847 1.05957 205.223L0.591797 205.175C0.655873 204.543 0.735703 203.914 0.825195 203.286L1.28809 203.353C1.37668 202.731 1.47819 202.111 1.5918 201.494L1.13086 201.409C1.2457 200.785 1.37272 200.164 1.5127 199.545L1.96973 199.648C2.10822 199.036 2.25868 198.427 2.42188 197.82L1.9707 197.698C2.13552 197.086 2.30942 196.476 2.49902 195.87L2.5 195.871L2.94824 196.012C3.13571 195.413 3.33606 194.817 3.54785 194.226L3.10449 194.067C3.31817 193.471 3.5442 192.878 3.78223 192.289L4.21777 192.466L4.58008 191.596L4.93164 190.774L4.49902 190.589L5.20312 188.945L5.63574 189.131L6.33887 187.487L5.90625 187.302L6.61035 185.658L7.04297 185.844L7.74609 184.2L7.31348 184.015L8.0166 182.371L8.01758 182.372L8.4502 182.557L9.15332 180.913L8.7207 180.729L9.42383 179.084L9.4248 179.085L9.85645 179.27L10.5605 177.626L10.1279 177.441L10.8311 175.797L10.832 175.798L11.2637 175.982L11.9678 174.339L11.5352 174.154L12.2383 172.511L12.6709 172.695L13.375 171.052L12.9424 170.867L13.6455 169.224L14.0781 169.408L14.7822 167.766L14.3496 167.58L15.0527 165.937L15.4854 166.122L15.8369 165.3L15.917 165.115L15.8369 164.93L15.4854 164.107L15.0527 164.292L14.3496 162.648L14.7822 162.465L14.0781 160.821L13.6455 161.005L12.9424 159.361L13.375 159.178L12.6709 157.534L12.2383 157.718L11.5352 156.074L11.9678 155.891L11.2637 154.247L10.8311 154.432L10.1279 152.787L10.5605 152.604L9.85645 150.96L9.42383 151.145L8.7207 149.5L9.15332 149.316L8.4502 147.673L8.0166 147.858L7.31348 146.214L7.74609 146.029L7.04297 144.386L6.60938 144.571L5.90625 142.927L6.33887 142.742L5.63574 141.099L5.20215 141.284L4.49902 139.64L4.93164 139.455L4.58008 138.634L4.21777 137.764L3.78223 137.939C3.54421 137.351 3.31816 136.758 3.10449 136.161L3.54785 136.004C3.33606 135.412 3.13571 134.817 2.94824 134.218L2.49902 134.358C2.30944 133.753 2.13551 133.143 1.9707 132.53L2.42188 132.409C2.25868 131.803 2.10822 131.193 1.96973 130.581L1.5127 130.684C1.3728 130.065 1.24564 129.444 1.13086 128.82L1.5918 128.735C1.47819 128.118 1.37668 127.499 1.28809 126.877L0.825195 126.942C0.735717 126.315 0.655859 125.685 0.591797 125.054L1.05957 125.007C0.996237 124.383 0.94532 123.757 0.907227 123.13L0.438477 123.157C0.400053 122.525 0.374153 121.891 0.361328 121.256L0.831055 121.247L0.822266 120.306V119.395H0.351562V117.571H0.822266V115.749H0.351562V113.926H0.822266V112.104H0.351562V110.281H0.822266V108.458H0.351562V106.636H0.822266V104.812H0.351562V102.99H0.822266V101.167H0.351562V99.3447H0.822266V97.5215H0.351562V95.6992H0.822266V93.8174H0.351562V91.877H0.822266V89.9365H0.351562V87.9961H0.822266V86.0557H0.351562V84.1152H0.822266V82.1748H0.351562V80.2344H0.822266V78.2939H0.351562V76.3535H0.822266V74.4131H0.351562V72.4727H0.822266V71.502C0.822268 71.1956 0.825164 70.8899 0.831055 70.585L0.361328 70.5752C0.373267 69.9576 0.397095 69.343 0.432617 68.7314L0.901367 68.7578C0.936851 68.1471 0.984181 67.5396 1.04297 66.9355L0.575195 66.8896C0.635113 66.274 0.709547 65.6622 0.792969 65.0537L1.25586 65.1172C1.33895 64.5112 1.43387 63.9089 1.54004 63.3105L1.07715 63.2285L1.07617 63.2275C1.18405 62.6196 1.30749 62.0166 1.43848 61.417L1.89453 61.5176C2.02491 60.9207 2.16728 60.3273 2.32031 59.7393L1.86621 59.6211C2.02174 59.0235 2.18997 58.4309 2.36816 57.8428L2.81543 57.9785C2.9926 57.3938 3.18156 56.814 3.38086 56.2393L2.93848 56.085C3.1406 55.5021 3.35202 54.9238 3.57617 54.3516L4.01367 54.5234C4.23637 53.9549 4.46971 53.3914 4.71387 52.834L4.28613 52.6465C4.53357 52.0816 4.78987 51.5218 5.05859 50.9688L5.48047 51.1748C5.7473 50.6257 6.02497 50.0817 6.3125 49.5449L5.89941 49.3242C6.19066 48.7805 6.49296 48.2436 6.80469 47.7129L7.20801 47.9502C7.51705 47.424 7.83617 46.9043 8.16504 46.3916L7.76855 46.1377C8.10144 45.6187 8.44638 45.1083 8.79883 44.6035L9.18262 44.8721C9.53181 44.372 9.89072 43.879 10.2588 43.3936L9.88477 43.1104C10.2572 42.6192 10.6383 42.135 11.0293 41.6592L11.3916 41.958C11.7788 41.4867 12.175 41.0229 12.5801 40.5674L12.2305 40.2568C12.6399 39.7964 13.0574 39.3434 13.4844 38.8994L13.8223 39.2246C14.2448 38.7853 14.6759 38.3542 15.1152 37.9316L14.79 37.5938C15.234 37.1668 15.687 36.7493 16.1475 36.3398L16.458 36.6895C16.9135 36.2844 17.3774 35.8882 17.8486 35.501L17.5498 35.1387C18.0257 34.7477 18.5098 34.3665 19.001 33.9941L19.2842 34.3682C19.7697 34.0001 20.2626 33.6412 20.7627 33.292L20.4941 32.9082C20.9989 32.5558 21.5094 32.2108 22.0283 31.8779L22.2822 32.2744C22.7949 31.9455 23.3147 31.6264 23.8408 31.3174L23.6035 30.9141C24.1342 30.6023 24.6711 30.3 25.2148 30.0088L25.4355 30.4219C25.9724 30.1343 26.5163 29.8567 27.0654 29.5898L26.8594 29.168C27.4124 28.8992 27.9722 28.6429 28.5371 28.3955L28.7246 28.8232C29.282 28.5791 29.8455 28.3457 30.4141 28.123L30.2422 27.6855C30.8144 27.4614 31.3927 27.25 31.9756 27.0479L32.1299 27.4902C32.7047 27.2909 33.2844 27.102 33.8691 26.9248L33.7334 26.4775C34.3215 26.2993 34.9141 26.1311 35.5117 25.9756L35.6299 26.4297C36.2179 26.2767 36.8113 26.1343 37.4082 26.0039L37.3076 25.5479C37.9072 25.4169 38.5103 25.2934 39.1182 25.1855L39.1191 25.1865L39.2012 25.6494C39.7995 25.5432 40.4018 25.4483 41.0078 25.3652L40.9443 24.9023C41.5528 24.8189 42.1646 24.7445 42.7803 24.6846L42.8262 25.1523C43.4303 25.0936 44.0378 25.0462 44.6484 25.0107L44.6221 24.542C45.2336 24.5065 45.8482 24.4826 46.4658 24.4707L46.4756 24.9404C46.7805 24.9345 47.0862 24.9316 47.3926 24.9316H48.334V24.4609H50.2158V24.9316H52.0977V24.4609H53.9785V24.9316H55.8604V24.4609H57.7422V24.9316H59.624V24.4609H61.5059V24.9316H63.3867V24.4609H65.2686V24.9316H67.1504V24.4609H69.0322V24.9316H70.9141V24.4609H72.7959V24.9316H74.6768V24.4609H76.5586V24.9316H78.4404V24.4609H80.3223V24.9316H82.2041V24.4609H84.085V24.9316H85.9668V24.4609H87.8486V24.9316H89.7305V24.4609H91.6123V24.9316H93.4932V24.4609H95.375V24.9316H97.2568V24.4609H99.1387V24.9316H101.021V24.4609H102.902V24.9316H104.783V24.4609H106.665V24.9316H108.547V24.4609H110.429V24.9316H112.311V24.4609H114.191V24.9316H116.073V24.4609H117.955V24.9316H119.837V24.4609H121.719V24.9316H123.6V24.4609H125.481V24.9316H127.363V24.4609H129.245V24.9316H131.127V24.4609H133.009V24.9316H134.89V24.4609H136.771V24.9316H138.653V24.4609H140.535V24.9316H142.417V24.4609H144.298V24.9316H146.18V24.4609H148.062V24.9316H149.943V24.4609H151.825V24.9316H153.707V24.4609H155.588V24.9316H157.47V24.4609H159.352V24.9316H161.233V24.4609H163.115V24.9316H164.996V24.4609H166.878V24.9316H168.76V24.4609H170.642V24.9316H172.523V24.4609H174.405V24.9316H176.286V24.4609H178.168V24.9316H180.05V24.4609H181.932V24.9316H183.813V24.4609H185.694V24.9316H187.576V24.4609H189.458V24.9316H191.34V24.4609H193.222V24.9316H194.162C194.469 24.9316 194.775 24.9345 195.08 24.9404L195.088 24.4707C195.706 24.4826 196.321 24.5065 196.933 24.542L196.906 25.0107C197.517 25.0462 198.125 25.0935 198.729 25.1523L198.773 24.6846C199.389 24.7445 200.002 24.8189 200.61 24.9023L200.547 25.3652C201.153 25.4483 201.756 25.5432 202.354 25.6494L202.436 25.1865C203.044 25.2944 203.647 25.4168 204.247 25.5479L204.147 26.0039C204.744 26.1343 205.337 26.2767 205.925 26.4297L206.042 25.9756C206.64 26.1311 207.232 26.2994 207.82 26.4775L207.686 26.9248C208.27 27.102 208.851 27.2909 209.426 27.4902L209.579 27.0479C210.162 27.2499 210.74 27.4615 211.312 27.6855L211.142 28.123C211.71 28.3457 212.273 28.5792 212.83 28.8232L213.018 28.3955C213.582 28.6428 214.142 28.8994 214.694 29.168L214.49 29.5898C215.039 29.8567 215.582 30.1344 216.119 30.4219L216.34 30.0088C216.883 30.2999 217.42 30.6025 217.95 30.9141L217.714 31.3174C218.24 31.6264 218.76 31.9456 219.272 32.2744L219.526 31.8779C220.045 32.2107 220.555 32.5559 221.06 32.9082L220.793 33.292C221.293 33.6411 221.786 34.0002 222.271 34.3682L222.554 33.9951C223.045 34.3674 223.529 34.7478 224.005 35.1387L223.707 35.501C224.178 35.8881 224.641 36.2845 225.097 36.6895L225.407 36.3398C225.867 36.7491 226.321 37.166 226.765 37.5928L226.439 37.9316C226.879 38.3543 227.311 38.7851 227.733 39.2246L228.07 38.8994C228.497 39.3431 228.914 39.7958 229.323 40.2559L228.975 40.5674C229.38 41.0229 229.777 41.4867 230.164 41.958L230.525 41.6592C230.916 42.1349 231.297 42.6193 231.669 43.1104L231.297 43.3936C231.665 43.879 232.024 44.372 232.373 44.8721L232.756 44.6035C233.108 45.108 233.453 45.618 233.786 46.1367V46.1377L233.391 46.3916C233.72 46.9043 234.039 47.424 234.348 47.9502L234.75 47.7129C235.062 48.2435 235.363 48.7806 235.654 49.3242L235.243 49.5449C235.531 50.0817 235.807 50.6257 236.074 51.1748L236.495 50.9688C236.764 51.5218 237.02 52.0816 237.268 52.6465L236.841 52.834C237.085 53.3914 237.318 53.9549 237.541 54.5234L237.978 54.3516C238.202 54.9239 238.414 55.502 238.616 56.085L238.175 56.2393C238.374 56.814 238.562 57.3938 238.739 57.9785L239.187 57.8428C239.365 58.4309 239.533 59.0235 239.688 59.6211L239.235 59.7393C239.388 60.3273 239.53 60.9207 239.66 61.5176L240.116 61.417C240.247 62.0168 240.37 62.6203 240.478 63.2285L240.016 63.3105C240.122 63.9088 240.216 64.5112 240.299 65.1172L240.762 65.0537C240.845 65.6622 240.92 66.274 240.979 66.8896L240.512 66.9355C240.571 67.5397 240.618 68.1471 240.653 68.7578L241.122 68.7314C241.158 69.343 241.181 69.9576 241.193 70.5752H241.194L240.725 70.585C240.731 70.8899 240.733 71.1956 240.733 71.502V72.4727H241.204V74.4131H240.733V76.3535H241.204V78.2939H240.733V80.2344H241.204V82.1748H240.733V84.1152H241.204V86.0557H240.733V87.9961H241.204V89.9365H240.733V91.877H241.204V93.8174H240.733V95.7646H241.204V97.7178H240.733V99.6719H241.204V101.625H240.733V103.579H241.204V105.532H240.733V107.485H241.204V109.439H240.733V111.393H241.204V113.347H240.733V115.3H241.204V117.253H240.733V119.207H241.204V121.16H240.733V123.114H241.204V125.067H240.733V127.021H241.204V128.975H240.733V130.048L240.771 130.137L241.147 131.016L241.58 130.83V130.829L242.333 132.588V132.589L241.9 132.773L242.653 134.532L243.085 134.347V134.346L243.838 136.104V136.104L243.405 136.29L244.158 138.048L244.591 137.863V137.862L245.343 139.621H245.344L244.911 139.807L245.663 141.564L246.096 141.38V141.379L246.849 143.137V143.138L246.416 143.322L247.169 145.081L247.601 144.896L248.354 146.653V146.654L247.922 146.839L248.674 148.598L249.106 148.412V148.411L249.858 150.17H249.859L249.427 150.355L250.18 152.113L250.611 151.929L251.364 153.686V153.687L250.932 153.872L251.685 155.63L252.117 155.445V155.444L252.869 157.203H252.87L252.438 157.388L253.19 159.146L253.622 158.961L254.375 160.719V160.72L253.942 160.904L254.695 162.663L255.127 162.478Z" stroke="black" stroke-opacity="0.28" stroke-width="0.940828" stroke-dasharray="1.88 1.88"/>
<rect opacity="0.3" x="28.1062" y="47.5114" width="188.166" height="233.325" rx="23.9911" stroke="#441500" stroke-width="0.940828" stroke-dasharray="8.47 8.47"/>
<defs>
<radialGradient id="paint0_radial_202_63169" cx="0" cy="0" r="1" gradientTransform="matrix(131.065 24.302 -92.0531 90.1598 81.6654 7.52483)" gradientUnits="userSpaceOnUse">
<stop stop-color="#441500"/>
<stop offset="1" stop-color="#AA3500"/>
</radialGradient>
</defs>
</svg>
