<svg width="15" height="10" viewBox="0 0 15 10" fill="none" xmlns="http://www.w3.org/2000/svg">
<g clip-path="url(#clip0_82_6629)">
<path fill-rule="evenodd" clip-rule="evenodd" d="M10.487 9.10702C10.3417 8.96086 10.2601 8.76313 10.2601 8.55702C10.2601 8.3509 10.3417 8.15317 10.487 8.00702L12.715 5.77902H1.25999C1.15554 5.78276 1.05141 5.76542 0.953807 5.72804C0.856207 5.69065 0.767139 5.63399 0.691922 5.56142C0.616706 5.48885 0.556881 5.40187 0.516021 5.30567C0.47516 5.20948 0.454102 5.10603 0.454102 5.00152C0.454102 4.897 0.47516 4.79355 0.516021 4.69736C0.556881 4.60116 0.616706 4.51418 0.691922 4.44161C0.767139 4.36905 0.856207 4.31238 0.953807 4.27499C1.05141 4.23761 1.15554 4.22027 1.25999 4.22402H12.715L10.487 1.99602C10.3463 1.84909 10.2687 1.65291 10.271 1.44951C10.2732 1.2461 10.3549 1.05164 10.4988 0.907803C10.6426 0.763963 10.8371 0.682181 11.0405 0.679977C11.2439 0.677774 11.4401 0.755325 11.587 0.896015L14.514 3.82302C15.165 4.47302 15.165 5.52902 14.514 6.18002L11.587 9.10702C11.4408 9.25235 11.2431 9.33393 11.037 9.33393C10.8309 9.33393 10.6331 9.25235 10.487 9.10702Z" fill="#141414"/>
</g>
<defs>
<clipPath id="clip0_82_6629">
<rect width="15" height="10" fill="white"/>
</clipPath>
</defs>
</svg>
