<svg width="17" height="29" viewBox="0 0 17 29" fill="none" xmlns="http://www.w3.org/2000/svg">
<path d="M3.36866 28.4261L16.5691 15.5712C16.7258 15.4182 16.837 15.2524 16.9028 15.0739C16.9686 14.8953 17.001 14.704 17 14.5C17 14.296 16.9671 14.1047 16.9013 13.9261C16.8355 13.7476 16.7247 13.5818 16.5691 13.4288L3.36866 0.53562C3.00307 0.17854 2.54608 0 1.99769 0C1.44931 0 0.979261 0.191293 0.587557 0.573879C0.195852 0.956464 0 1.40281 0 1.91293C0 2.42304 0.195852 2.86939 0.587557 3.25198L12.1037 14.5L0.587557 25.748C0.221966 26.1051 0.0391693 26.5453 0.0391693 27.0687C0.0391693 27.5921 0.235022 28.0446 0.626726 28.4261C1.01843 28.8087 1.47542 29 1.99769 29C2.51997 29 2.97695 28.8087 3.36866 28.4261Z" fill="#0077FF"/>
</svg>
