<svg width="846" height="70" viewBox="0 0 846 70" fill="none" xmlns="http://www.w3.org/2000/svg">
<rect width="69.7253" height="13.9451" rx="6.97253" fill="white"/>
<rect x="97.0344" width="69.7253" height="13.9451" rx="6.97253" fill="white"/>
<circle cx="201.041" cy="6.97253" r="6.97253" fill="white"/>
<circle cx="256.821" cy="6.97253" r="6.97253" fill="white"/>
<circle cx="298.076" cy="6.97253" r="6.97253" fill="white"/>
<circle cx="353.856" cy="6.97253" r="6.97253" fill="white"/>
<circle cx="423" cy="6.97253" r="6.97253" fill="white"/>
<rect x="485.172" width="69.7253" height="13.9451" rx="6.97253" fill="white"/>
<circle cx="589.179" cy="6.97253" r="6.97253" fill="white"/>
<circle cx="644.959" cy="6.97253" r="6.97253" fill="white"/>
<rect x="679.24" width="69.7253" height="13.9451" rx="6.97253" fill="white"/>
<rect x="776.275" width="69.7253" height="13.9451" rx="6.97253" fill="white"/>
<circle cx="34.8626" cy="34.8624" r="6.97253" fill="white"/>
<circle cx="104.007" cy="34.8624" r="6.97253" fill="white"/>
<circle cx="159.787" cy="34.8624" r="6.97253" fill="white"/>
<circle cx="201.041" cy="34.8624" r="6.97253" fill="white"/>
<circle cx="228.931" cy="34.8624" r="6.97253" fill="white"/>
<circle cx="256.821" cy="34.8624" r="6.97253" fill="white"/>
<circle cx="298.076" cy="34.8624" r="6.97253" fill="white"/>
<circle cx="325.966" cy="34.8624" r="6.97253" fill="white"/>
<rect x="388.137" y="27.8899" width="69.7253" height="13.9451" rx="6.97253" fill="white"/>
<circle cx="520.034" cy="34.8624" r="6.97253" fill="white"/>
<circle cx="589.179" cy="34.8624" r="6.97253" fill="white"/>
<circle cx="617.069" cy="34.8624" r="6.97253" fill="white"/>
<circle cx="644.959" cy="34.8624" r="6.97253" fill="white"/>
<rect x="679.24" y="27.8899" width="69.7253" height="13.9451" rx="6.97253" fill="white"/>
<rect x="776.275" y="27.8899" width="69.7253" height="13.9451" rx="6.97253" fill="white"/>
<circle cx="34.8626" cy="62.7526" r="6.97253" fill="white"/>
<rect x="97.0344" y="55.78" width="69.7253" height="13.9451" rx="6.97253" fill="white"/>
<circle cx="256.821" cy="62.7526" r="6.97253" fill="white"/>
<circle cx="298.076" cy="62.7526" r="6.97253" fill="white"/>
<circle cx="353.856" cy="62.7526" r="6.97253" fill="white"/>
<circle cx="395.11" cy="62.7526" r="6.97253" fill="white"/>
<circle cx="450.89" cy="62.7526" r="6.97253" fill="white"/>
<circle cx="520.034" cy="62.7526" r="6.97253" fill="white"/>
<circle cx="589.179" cy="62.7526" r="6.97253" fill="white"/>
<circle cx="644.959" cy="62.7526" r="6.97253" fill="white"/>
<circle cx="686.213" cy="62.7526" r="6.97253" fill="white"/>
<rect x="776.275" y="55.78" width="69.7253" height="13.9451" rx="6.97253" fill="white"/>
</svg>
