<svg width="1280" height="233" viewBox="0 0 1280 233" fill="none" xmlns="http://www.w3.org/2000/svg">
<rect width="105.495" height="21.0989" rx="10.5495" fill="#FFC800"/>
<circle cx="137.143" cy="10.5495" r="10.5495" fill="#FFC800"/>
<circle cx="179.34" cy="10.5495" r="10.5495" fill="#FFC800"/>
<circle cx="221.539" cy="10.5495" r="10.5495" fill="#FFC800"/>
<circle cx="293.627" cy="10.5495" r="10.5495" fill="#FFC800"/>
<circle cx="335.824" cy="10.5495" r="10.5495" fill="#FFC800"/>
<circle cx="407.912" cy="10.5495" r="10.5495" fill="#FFC800"/>
<rect x="439.561" width="105.495" height="21.0989" rx="10.5495" fill="#FFC800"/>
<circle cx="576.703" cy="10.5495" r="10.5495" fill="#FFC800"/>
<circle cx="618.901" cy="10.5495" r="10.5495" fill="#FFC800"/>
<circle cx="690.989" cy="10.5495" r="10.5495" fill="#FFC800"/>
<rect x="722.637" width="105.495" height="21.0989" rx="10.5495" fill="#FFC800"/>
<circle cx="889.671" cy="10.5495" r="10.5495" fill="#FFC800"/>
<rect x="921.319" width="105.495" height="21.0989" rx="10.5495" fill="#FFC800"/>
<rect x="1047.91" width="105.495" height="21.0989" rx="10.5495" fill="#FFC800"/>
<rect x="1174.51" width="105.495" height="21.0989" rx="10.5495" fill="#FFC800"/>
<rect y="42.1978" width="105.495" height="21.0989" rx="10.5495" fill="#FFC800"/>
<circle cx="137.143" cy="52.7472" r="10.5495" fill="#FFC800"/>
<rect x="219.78" y="42.1978" width="105.495" height="21.0989" rx="10.5495" fill="#FFC800"/>
<circle cx="407.912" cy="52.7472" r="10.5495" fill="#FFC800"/>
<circle cx="450.11" cy="52.7472" r="10.5495" fill="#FFC800"/>
<rect x="481.758" y="42.1978" width="105.495" height="21.0989" rx="10.5495" fill="#FFC800"/>
<circle cx="618.901" cy="52.7472" r="10.5495" fill="#FFC800"/>
<circle cx="661.099" cy="52.7472" r="10.5495" fill="#FFC800"/>
<rect x="743.736" y="42.1978" width="105.495" height="21.0989" rx="10.5495" fill="#FFC800"/>
<rect x="921.319" y="42.1978" width="105.495" height="21.0989" rx="10.5495" fill="#FFC800"/>
<rect x="1047.91" y="42.1978" width="105.495" height="21.0989" rx="10.5495" fill="#FFC800"/>
<rect x="1174.51" y="42.1978" width="105.495" height="21.0989" rx="10.5495" fill="#FFC800"/>
<circle cx="10.5495" cy="94.9451" r="10.5495" fill="#FFC800"/>
<rect x="42.1978" y="84.3958" width="105.495" height="21.0989" rx="10.5495" fill="#FFC800"/>
<rect x="168.791" y="84.3958" width="105.495" height="21.0989" rx="10.5495" fill="#FFC800"/>
<rect x="334.066" y="84.3958" width="105.495" height="21.0989" rx="10.5495" fill="#FFC800"/>
<circle cx="471.209" cy="94.9452" r="10.5495" fill="#FFC800"/>
<rect x="502.857" y="84.3958" width="105.495" height="21.0989" rx="10.5495" fill="#FFC800"/>
<rect x="629.451" y="84.3958" width="105.495" height="21.0989" rx="10.5495" fill="#FFC800"/>
<circle cx="805.275" cy="94.9452" r="10.5495" fill="#FFC800"/>
<rect x="836.923" y="84.3958" width="105.495" height="21.0989" rx="10.5495" fill="#FFC800"/>
<circle cx="974.066" cy="94.9452" r="10.5495" fill="#FFC800"/>
<rect x="1005.71" y="84.3958" width="105.495" height="21.0989" rx="10.5495" fill="#FFC800"/>
<circle cx="1142.86" cy="94.9452" r="10.5495" fill="#FFC800"/>
<rect x="1174.51" y="84.3958" width="105.495" height="21.0989" rx="10.5495" fill="#FFC800"/>
<rect y="126.593" width="105.495" height="21.0989" rx="10.5495" fill="white"/>
<rect x="146.813" y="126.593" width="105.495" height="21.0989" rx="10.5495" fill="white"/>
<circle cx="304.176" cy="137.143" r="10.5495" fill="white"/>
<circle cx="388.571" cy="137.143" r="10.5495" fill="white"/>
<circle cx="450.989" cy="137.143" r="10.5495" fill="white"/>
<circle cx="535.384" cy="137.143" r="10.5495" fill="white"/>
<circle cx="640" cy="137.143" r="10.5495" fill="white"/>
<rect x="734.066" y="126.593" width="105.495" height="21.0989" rx="10.5495" fill="white"/>
<circle cx="891.428" cy="137.143" r="10.5495" fill="white"/>
<circle cx="975.824" cy="137.143" r="10.5495" fill="white"/>
<rect x="1027.69" y="126.593" width="105.495" height="21.0989" rx="10.5495" fill="white"/>
<rect x="1174.51" y="126.593" width="105.495" height="21.0989" rx="10.5495" fill="white"/>
<circle cx="52.7472" cy="179.34" r="10.5495" fill="white"/>
<circle cx="157.362" cy="179.34" r="10.5495" fill="white"/>
<circle cx="241.758" cy="179.34" r="10.5495" fill="white"/>
<circle cx="304.176" cy="179.34" r="10.5495" fill="white"/>
<circle cx="346.374" cy="179.34" r="10.5495" fill="white"/>
<circle cx="388.571" cy="179.34" r="10.5495" fill="white"/>
<circle cx="450.989" cy="179.34" r="10.5495" fill="white"/>
<circle cx="493.187" cy="179.34" r="10.5495" fill="white"/>
<rect x="587.253" y="168.791" width="105.495" height="21.0989" rx="10.5495" fill="white"/>
<circle cx="786.813" cy="179.34" r="10.5495" fill="white"/>
<circle cx="891.428" cy="179.34" r="10.5495" fill="white"/>
<circle cx="933.627" cy="179.34" r="10.5495" fill="white"/>
<circle cx="975.824" cy="179.34" r="10.5495" fill="white"/>
<rect x="1027.69" y="168.791" width="105.495" height="21.0989" rx="10.5495" fill="white"/>
<rect x="1174.51" y="168.791" width="105.495" height="21.0989" rx="10.5495" fill="white"/>
<circle cx="52.7472" cy="221.538" r="10.5495" fill="white"/>
<rect x="146.813" y="210.989" width="105.495" height="21.0989" rx="10.5495" fill="white"/>
<circle cx="388.571" cy="221.538" r="10.5495" fill="white"/>
<circle cx="450.989" cy="221.538" r="10.5495" fill="white"/>
<circle cx="535.384" cy="221.538" r="10.5495" fill="white"/>
<circle cx="597.802" cy="221.538" r="10.5495" fill="white"/>
<circle cx="682.198" cy="221.538" r="10.5495" fill="white"/>
<circle cx="786.813" cy="221.538" r="10.5495" fill="white"/>
<circle cx="891.428" cy="221.538" r="10.5495" fill="white"/>
<circle cx="975.824" cy="221.538" r="10.5495" fill="white"/>
<circle cx="1038.24" cy="221.538" r="10.5495" fill="white"/>
<rect x="1174.51" y="210.989" width="105.495" height="21.0989" rx="10.5495" fill="white"/>
</svg>
