<svg width="522" height="91" viewBox="0 0 522 91" fill="none" xmlns="http://www.w3.org/2000/svg">
<circle cx="7" cy="13.232" r="7" fill="#FFC800"/>
<path d="M62.456 14.88H39V12.512H62.456V14.88Z" fill="white"/>
<path d="M80.2332 22.688C78.4839 22.688 77.0119 22.2187 75.8172 21.28C74.6439 20.32 73.8759 19.0293 73.5132 17.408H75.8493C76.0626 18.112 76.5319 18.7307 77.2573 19.264C78.0039 19.7973 79.0279 20.064 80.3293 20.064C81.6519 20.064 82.7186 19.6587 83.5293 18.848C84.3613 18.016 84.8519 16.9493 85.0013 15.648H78.2173V13.728H85.0013C84.8519 12.4267 84.3719 11.3707 83.5612 10.56C82.7506 9.74933 81.6839 9.344 80.3613 9.344C79.0599 9.344 78.0359 9.61067 77.2892 10.144C76.5639 10.6773 76.0839 11.296 75.8493 12H73.5132C73.8759 10.3573 74.6546 9.06667 75.8493 8.128C77.0439 7.18933 78.5159 6.72 80.2653 6.72C81.7799 6.72 83.0813 7.08267 84.1693 7.808C85.2573 8.512 86.0999 9.472 86.6973 10.688C87.2946 11.8827 87.5933 13.2267 87.5933 14.72C87.5933 16.192 87.2946 17.536 86.6973 18.752C86.0999 19.9467 85.2466 20.9067 84.1373 21.632C83.0493 22.336 81.7479 22.688 80.2332 22.688Z" fill="white"/>
<path d="M89.1598 6.976H101.64V9.6H96.6797V22.432H94.1198V9.6H89.1598V6.976Z" fill="white"/>
<path d="M110.721 6.72C112.235 6.72 113.547 7.072 114.657 7.776C115.787 8.48 116.662 9.44 117.281 10.656C117.921 11.8507 118.241 13.1947 118.241 14.688C118.241 16.1813 117.921 17.536 117.281 18.752C116.662 19.9467 115.787 20.9067 114.657 21.632C113.547 22.336 112.235 22.688 110.721 22.688C109.227 22.688 107.915 22.336 106.785 21.632C105.654 20.9067 104.769 19.9467 104.129 18.752C103.51 17.536 103.201 16.1813 103.201 14.688C103.201 13.1947 103.51 11.8507 104.129 10.656C104.769 9.44 105.654 8.48 106.785 7.776C107.915 7.072 109.227 6.72 110.721 6.72ZM110.721 9.472C109.227 9.472 108.033 9.952 107.137 10.912C106.241 11.872 105.793 13.1307 105.793 14.688C105.793 16.2453 106.241 17.5147 107.137 18.496C108.033 19.456 109.227 19.936 110.721 19.936C112.214 19.936 113.409 19.456 114.305 18.496C115.201 17.5147 115.649 16.2453 115.649 14.688C115.649 13.1307 115.201 11.872 114.305 10.912C113.409 9.952 112.214 9.472 110.721 9.472Z" fill="white"/>
<path d="M132.033 22.432H129.536V6.976H133.024L137.664 16L142.305 6.976H145.632V22.432H143.073V10.496L138.08 19.936H137.024L132.033 10.496V22.432Z" fill="white"/>
<path d="M165.688 6.976V22.432H163.128V6.976H165.688ZM152.471 6.976V12.384H155.383C157.09 12.384 158.477 12.7573 159.544 13.504C160.61 14.2293 161.144 15.4773 161.144 17.248C161.144 18.4213 160.888 19.392 160.376 20.16C159.864 20.928 159.181 21.504 158.327 21.888C157.474 22.2507 156.514 22.432 155.448 22.432H149.911V6.976H152.471ZM155.32 14.592H152.471V19.84H155.256C156.28 19.84 157.09 19.648 157.688 19.264C158.306 18.8587 158.616 18.176 158.616 17.216C158.616 16.3413 158.349 15.6907 157.815 15.264C157.303 14.816 156.472 14.592 155.32 14.592Z" fill="white"/>
<path d="M170.934 11.968C170.401 11.968 169.931 11.776 169.526 11.392C169.121 11.008 168.918 10.528 168.918 9.952C168.918 9.376 169.121 8.896 169.526 8.512C169.931 8.128 170.401 7.936 170.934 7.936C171.489 7.936 171.958 8.128 172.342 8.512C172.726 8.896 172.918 9.376 172.918 9.952C172.918 10.528 172.726 11.008 172.342 11.392C171.958 11.776 171.489 11.968 170.934 11.968ZM170.934 22.72C170.401 22.72 169.931 22.528 169.526 22.144C169.121 21.76 168.918 21.28 168.918 20.704C168.918 20.128 169.121 19.648 169.526 19.264C169.931 18.88 170.401 18.688 170.934 18.688C171.489 18.688 171.958 18.88 172.342 19.264C172.726 19.648 172.918 20.128 172.918 20.704C172.918 21.28 172.726 21.76 172.342 22.144C171.958 22.528 171.489 22.72 170.934 22.72Z" fill="white"/>
<path d="M193.857 22.432V15.712H186.721V22.432H184.161V6.976H186.721V13.12H193.857V6.976H196.417V22.432H193.857Z" fill="white"/>
<path d="M211.413 22.496C210.687 22.496 210.09 22.2933 209.621 21.888C209.151 21.4613 208.874 20.8213 208.789 19.968C208.255 20.8213 207.615 21.472 206.869 21.92C206.143 22.3467 205.279 22.56 204.277 22.56C202.933 22.56 201.845 22.208 201.013 21.504C200.181 20.8 199.765 19.7547 199.765 18.368C199.765 17.4933 199.925 16.768 200.245 16.192C200.565 15.5947 201.045 15.0933 201.685 14.688C202.325 14.2827 203.114 13.8987 204.053 13.536L208.629 11.744C208.543 10.848 208.202 10.2293 207.605 9.888C207.029 9.54667 206.335 9.376 205.525 9.376C204.671 9.376 203.946 9.55733 203.349 9.92C202.773 10.2613 202.421 10.8053 202.293 11.552H199.893C200.042 10.4213 200.394 9.504 200.949 8.8C201.503 8.096 202.186 7.57333 202.997 7.232C203.807 6.89067 204.65 6.72 205.525 6.72C207.253 6.72 208.629 7.17867 209.653 8.096C210.677 8.992 211.178 10.4 211.157 12.32L211.093 18.24C211.093 18.8587 211.178 19.2853 211.349 19.52C211.519 19.7547 211.797 19.872 212.181 19.872H212.789V22.432C212.575 22.4533 212.341 22.464 212.085 22.464C211.85 22.4853 211.626 22.496 211.413 22.496ZM202.325 17.92C202.325 18.624 202.559 19.1467 203.029 19.488C203.519 19.808 204.191 19.968 205.045 19.968C205.813 19.968 206.506 19.8613 207.125 19.648C207.743 19.4133 208.223 19.104 208.565 18.72L208.629 13.696L205.781 14.848C204.543 15.3387 203.658 15.7973 203.125 16.224C202.591 16.6507 202.325 17.216 202.325 17.92Z" fill="white"/>
<path d="M217.971 6.976V19.84H223.667V6.976H226.228V19.84H231.923V6.976H234.484V22.432H215.411V6.976H217.971Z" fill="white"/>
<path d="M241.346 6.976V18.24L248.803 6.976H251.299V22.432H248.738V10.976L241.154 22.432H238.786V6.976H241.346Z" fill="white"/>
<path d="M266.159 6.976V18.24L273.615 6.976H276.111V22.432H273.551V10.976L265.967 22.432H263.599V6.976H266.159Z" fill="white"/>
<path d="M278.428 26.464V19.84H279.771C280.838 18.7093 281.617 17.1307 282.107 15.104C282.619 13.056 282.886 10.3467 282.908 6.976H292.38V19.84H294.684V26.464H292.219V22.432H280.891V26.464H278.428ZM285.083 9.568C285.019 11.7227 284.806 13.6533 284.443 15.36C284.081 17.0667 283.473 18.56 282.62 19.84H289.82V9.568H285.083Z" fill="white"/>
<path d="M310.186 17.728C309.952 18.5813 309.568 19.392 309.034 20.16C308.501 20.9067 307.776 21.5147 306.858 21.984C305.941 22.4533 304.778 22.688 303.37 22.688C301.941 22.688 300.682 22.336 299.594 21.632C298.506 20.9067 297.653 19.936 297.034 18.72C296.437 17.504 296.138 16.16 296.138 14.688C296.138 13.1947 296.437 11.8507 297.034 10.656C297.653 9.46133 298.506 8.512 299.594 7.808C300.682 7.08267 301.941 6.72 303.37 6.72C304.842 6.72 306.112 7.072 307.178 7.776C308.245 8.48 309.066 9.45067 309.642 10.688C310.24 11.9253 310.538 13.3333 310.538 14.912C310.538 14.976 310.538 15.04 310.538 15.104C310.538 15.168 310.538 15.232 310.538 15.296H298.73C298.837 16.7253 299.296 17.8773 300.106 18.752C300.938 19.6267 302.026 20.064 303.37 20.064C304.565 20.064 305.525 19.8613 306.25 19.456C306.976 19.0293 307.509 18.4533 307.85 17.728H310.186ZM303.37 9.344C302.069 9.344 301.024 9.71733 300.234 10.464C299.466 11.1893 298.986 12.1813 298.794 13.44H307.882C307.733 12.3093 307.296 11.3493 306.57 10.56C305.866 9.74933 304.8 9.344 303.37 9.344Z" fill="white"/>
<path d="M316.315 6.976V18.24L323.771 6.976H326.267V22.432H323.707V10.976L316.123 22.432H313.755V6.976H316.315Z" fill="white"/>
<path d="M341.128 6.976V18.24L348.584 6.976H351.08V22.432H348.52V10.976L340.936 22.432H338.568V6.976H341.128Z" fill="white"/>
<path d="M374.1 22.496C373.375 22.496 372.778 22.2933 372.308 21.888C371.839 21.4613 371.562 20.8213 371.476 19.968C370.943 20.8213 370.303 21.472 369.556 21.92C368.831 22.3467 367.967 22.56 366.964 22.56C365.62 22.56 364.532 22.208 363.7 21.504C362.868 20.8 362.452 19.7547 362.452 18.368C362.452 17.4933 362.612 16.768 362.932 16.192C363.252 15.5947 363.732 15.0933 364.372 14.688C365.012 14.2827 365.802 13.8987 366.74 13.536L371.316 11.744C371.231 10.848 370.89 10.2293 370.292 9.888C369.716 9.54667 369.023 9.376 368.212 9.376C367.359 9.376 366.634 9.55733 366.036 9.92C365.46 10.2613 365.108 10.8053 364.98 11.552H362.58C362.73 10.4213 363.082 9.504 363.636 8.8C364.191 8.096 364.874 7.57333 365.684 7.232C366.495 6.89067 367.338 6.72 368.212 6.72C369.94 6.72 371.316 7.17867 372.34 8.096C373.364 8.992 373.866 10.4 373.844 12.32L373.78 18.24C373.78 18.8587 373.866 19.2853 374.036 19.52C374.207 19.7547 374.484 19.872 374.868 19.872H375.476V22.432C375.263 22.4533 375.028 22.464 374.772 22.464C374.538 22.4853 374.314 22.496 374.1 22.496ZM365.012 17.92C365.012 18.624 365.247 19.1467 365.716 19.488C366.207 19.808 366.879 19.968 367.732 19.968C368.5 19.968 369.194 19.8613 369.812 19.648C370.431 19.4133 370.911 19.104 371.252 18.72L371.316 13.696L368.468 14.848C367.231 15.3387 366.346 15.7973 365.812 16.224C365.279 16.6507 365.012 17.216 365.012 17.92Z" fill="white"/>
<path d="M380.595 22.432H378.099V6.976H381.587L386.227 16L390.867 6.976H394.195V22.432H391.635V10.496L386.643 19.936H385.587L380.595 10.496V22.432Z" fill="white"/>
<path d="M405.866 7.136C407.295 7.136 408.501 7.456 409.482 8.096C410.485 8.736 411.253 9.62133 411.786 10.752C412.319 11.8827 412.586 13.1947 412.586 14.688C412.586 16.1813 412.298 17.536 411.722 18.752C411.167 19.9467 410.346 20.9067 409.258 21.632C408.17 22.336 406.815 22.688 405.194 22.688C403.594 22.688 402.229 22.3147 401.098 21.568C399.989 20.8 399.135 19.7013 398.538 18.272C397.962 16.8213 397.674 15.0613 397.674 12.992C397.674 10.7307 397.866 8.75733 398.25 7.072C398.655 5.36533 399.381 3.98933 400.426 2.944C401.471 1.89867 402.954 1.23733 404.874 0.960001L411.306 0V2.784L405.29 3.744C404.095 3.936 403.157 4.288 402.474 4.8C401.791 5.312 401.29 5.99467 400.97 6.848C400.671 7.68 400.469 8.69333 400.362 9.888C401.023 8.88533 401.823 8.18133 402.762 7.776C403.701 7.34933 404.735 7.136 405.866 7.136ZM405.386 9.728C404.277 9.728 403.295 9.89867 402.442 10.24C401.589 10.56 400.885 11.0933 400.33 11.84V13.888C400.33 15.8293 400.757 17.3227 401.61 18.368C402.485 19.4133 403.679 19.936 405.194 19.936C406.645 19.936 407.807 19.488 408.682 18.592C409.557 17.6747 409.994 16.3733 409.994 14.688C409.994 13.0027 409.567 11.7547 408.714 10.944C407.882 10.1333 406.773 9.728 405.386 9.728Z" fill="white"/>
<path d="M418.44 6.976V18.24L425.896 6.976H428.392V22.432H425.832V10.976L418.248 22.432H415.88V6.976H418.44Z" fill="white"/>
<path d="M444.853 26.464V22.432H432.693V6.976H435.253V19.84H442.453V6.976H445.013V19.84H447.317V26.464H444.853Z" fill="white"/>
<path d="M452.315 6.976V18.24L459.771 6.976H462.267V22.432H459.707V10.976L452.123 22.432H449.755V6.976H452.315Z" fill="white"/>
<path d="M469.128 6.976V18.24L476.584 6.976H479.08V22.432H476.52V10.976L468.936 22.432H466.568V6.976H469.128Z" fill="white"/>
<rect y="41.02" width="116.91" height="13" rx="6.5" fill="#FFC800"/>
<path d="M165.366 44.624H141.91V42.256H165.366V44.624Z" fill="white"/>
<path d="M183.143 52.432C181.394 52.432 179.922 51.9627 178.727 51.024C177.554 50.064 176.786 48.7733 176.423 47.152H178.759C178.973 47.856 179.442 48.4747 180.167 49.008C180.914 49.5413 181.938 49.808 183.239 49.808C184.562 49.808 185.629 49.4027 186.439 48.592C187.271 47.76 187.762 46.6933 187.911 45.392H181.127V43.472H187.911C187.762 42.1707 187.282 41.1147 186.471 40.304C185.661 39.4933 184.594 39.088 183.271 39.088C181.97 39.088 180.946 39.3547 180.199 39.888C179.474 40.4213 178.994 41.04 178.759 41.744H176.423C176.786 40.1013 177.565 38.8107 178.759 37.872C179.954 36.9333 181.426 36.464 183.175 36.464C184.69 36.464 185.991 36.8267 187.079 37.552C188.167 38.256 189.01 39.216 189.607 40.432C190.205 41.6267 190.503 42.9707 190.503 44.464C190.503 45.936 190.205 47.28 189.607 48.496C189.01 49.6907 188.157 50.6507 187.047 51.376C185.959 52.08 184.658 52.432 183.143 52.432Z" fill="white"/>
<path d="M192.07 36.72H204.55V39.344H199.59V52.176H197.03V39.344H192.07V36.72Z" fill="white"/>
<path d="M213.631 36.464C215.146 36.464 216.458 36.816 217.567 37.52C218.698 38.224 219.572 39.184 220.191 40.4C220.831 41.5947 221.151 42.9387 221.151 44.432C221.151 45.9253 220.831 47.28 220.191 48.496C219.572 49.6907 218.698 50.6507 217.567 51.376C216.458 52.08 215.146 52.432 213.631 52.432C212.138 52.432 210.826 52.08 209.695 51.376C208.564 50.6507 207.679 49.6907 207.039 48.496C206.42 47.28 206.111 45.9253 206.111 44.432C206.111 42.9387 206.42 41.5947 207.039 40.4C207.679 39.184 208.564 38.224 209.695 37.52C210.826 36.816 212.138 36.464 213.631 36.464ZM213.631 39.216C212.138 39.216 210.943 39.696 210.047 40.656C209.151 41.616 208.703 42.8747 208.703 44.432C208.703 45.9893 209.151 47.2587 210.047 48.24C210.943 49.2 212.138 49.68 213.631 49.68C215.124 49.68 216.319 49.2 217.215 48.24C218.111 47.2587 218.559 45.9893 218.559 44.432C218.559 42.8747 218.111 41.616 217.215 40.656C216.319 39.696 215.124 39.216 213.631 39.216Z" fill="white"/>
<path d="M242.143 52.176V45.456H235.007V52.176H232.447V36.72H235.007V42.864H242.143V36.72H244.703V52.176H242.143Z" fill="white"/>
<path d="M259.698 52.24C258.973 52.24 258.375 52.0373 257.906 51.632C257.437 51.2053 257.159 50.5653 257.074 49.712C256.541 50.5653 255.901 51.216 255.154 51.664C254.429 52.0907 253.565 52.304 252.562 52.304C251.218 52.304 250.13 51.952 249.298 51.248C248.466 50.544 248.05 49.4987 248.05 48.112C248.05 47.2373 248.21 46.512 248.53 45.936C248.85 45.3387 249.33 44.8373 249.97 44.432C250.61 44.0267 251.399 43.6427 252.338 43.28L256.914 41.488C256.829 40.592 256.487 39.9733 255.89 39.632C255.314 39.2907 254.621 39.12 253.81 39.12C252.957 39.12 252.231 39.3013 251.634 39.664C251.058 40.0053 250.706 40.5493 250.578 41.296H248.178C248.327 40.1653 248.679 39.248 249.234 38.544C249.789 37.84 250.471 37.3173 251.282 36.976C252.093 36.6347 252.935 36.464 253.81 36.464C255.538 36.464 256.914 36.9227 257.938 37.84C258.962 38.736 259.463 40.144 259.442 42.064L259.378 47.984C259.378 48.6027 259.463 49.0293 259.634 49.264C259.805 49.4987 260.082 49.616 260.466 49.616H261.074V52.176C260.861 52.1973 260.626 52.208 260.37 52.208C260.135 52.2293 259.911 52.24 259.698 52.24ZM250.61 47.664C250.61 48.368 250.845 48.8907 251.314 49.232C251.805 49.552 252.477 49.712 253.33 49.712C254.098 49.712 254.791 49.6053 255.41 49.392C256.029 49.1573 256.509 48.848 256.85 48.464L256.914 43.44L254.066 44.592C252.829 45.0827 251.943 45.5413 251.41 45.968C250.877 46.3947 250.61 46.96 250.61 47.664Z" fill="white"/>
<path d="M266.257 36.72V49.584H271.953V36.72H274.513V49.584H280.209V36.72H282.769V52.176H263.697V36.72H266.257Z" fill="white"/>
<path d="M301.056 52.176H295.072V36.72H300.8C302.378 36.72 303.637 37.072 304.576 37.776C305.514 38.48 305.984 39.4827 305.984 40.784C305.984 41.5947 305.781 42.288 305.376 42.864C304.97 43.44 304.437 43.8133 303.776 43.984C304.65 44.1333 305.354 44.5173 305.888 45.136C306.442 45.7333 306.72 46.5547 306.72 47.6C306.72 49.0933 306.229 50.2347 305.248 51.024C304.288 51.792 302.89 52.176 301.056 52.176ZM297.568 39.216V43.312H300.8C301.653 43.312 302.304 43.152 302.752 42.832C303.221 42.4907 303.456 41.9573 303.456 41.232C303.456 40.5493 303.253 40.048 302.848 39.728C302.442 39.3867 301.802 39.216 300.928 39.216H297.568ZM297.568 45.072V49.68H300.8C301.994 49.68 302.848 49.4987 303.36 49.136C303.893 48.752 304.16 48.1653 304.16 47.376C304.16 46.5653 303.893 45.9787 303.36 45.616C302.826 45.2533 301.994 45.072 300.864 45.072H297.568Z" fill="white"/>
<path d="M322.971 47.472C322.737 48.3253 322.353 49.136 321.819 49.904C321.286 50.6507 320.561 51.2587 319.643 51.728C318.726 52.1973 317.563 52.432 316.155 52.432C314.726 52.432 313.467 52.08 312.379 51.376C311.291 50.6507 310.438 49.68 309.819 48.464C309.222 47.248 308.923 45.904 308.923 44.432C308.923 42.9387 309.222 41.5947 309.819 40.4C310.438 39.2053 311.291 38.256 312.379 37.552C313.467 36.8267 314.726 36.464 316.155 36.464C317.627 36.464 318.897 36.816 319.963 37.52C321.03 38.224 321.851 39.1947 322.427 40.432C323.025 41.6693 323.323 43.0773 323.323 44.656C323.323 44.72 323.323 44.784 323.323 44.848C323.323 44.912 323.323 44.976 323.323 45.04H311.515C311.622 46.4693 312.081 47.6213 312.891 48.496C313.723 49.3707 314.811 49.808 316.155 49.808C317.35 49.808 318.31 49.6053 319.035 49.2C319.761 48.7733 320.294 48.1973 320.635 47.472H322.971ZM316.155 39.088C314.854 39.088 313.809 39.4613 313.019 40.208C312.251 40.9333 311.771 41.9253 311.579 43.184H320.667C320.518 42.0533 320.081 41.0933 319.355 40.304C318.651 39.4933 317.585 39.088 316.155 39.088Z" fill="white"/>
<path d="M335.084 52.176L329.1 44.528V52.176H326.54V36.72H329.1V43.984L335.276 36.72H338.22L331.852 43.984L338.284 52.176H335.084Z" fill="white"/>
<path d="M339.257 36.72H351.737V39.344H346.777V52.176H344.217V39.344H339.257V36.72Z" fill="white"/>
<path d="M360.818 36.464C362.333 36.464 363.645 36.816 364.754 37.52C365.885 38.224 366.76 39.184 367.378 40.4C368.018 41.5947 368.338 42.9387 368.338 44.432C368.338 45.9253 368.018 47.28 367.378 48.496C366.76 49.6907 365.885 50.6507 364.754 51.376C363.645 52.08 362.333 52.432 360.818 52.432C359.325 52.432 358.013 52.08 356.882 51.376C355.752 50.6507 354.866 49.6907 354.226 48.496C353.608 47.28 353.298 45.9253 353.298 44.432C353.298 42.9387 353.608 41.5947 354.226 40.4C354.866 39.184 355.752 38.224 356.882 37.52C358.013 36.816 359.325 36.464 360.818 36.464ZM360.818 39.216C359.325 39.216 358.13 39.696 357.234 40.656C356.338 41.616 355.89 42.8747 355.89 44.432C355.89 45.9893 356.338 47.2587 357.234 48.24C358.13 49.2 359.325 49.68 360.818 49.68C362.312 49.68 363.506 49.2 364.402 48.24C365.298 47.2587 365.746 45.9893 365.746 44.432C365.746 42.8747 365.298 41.616 364.402 40.656C363.506 39.696 362.312 39.216 360.818 39.216Z" fill="white"/>
<path d="M374.066 39.408C374.557 38.4053 375.218 37.6693 376.05 37.2C376.882 36.7093 377.927 36.464 379.186 36.464C380.658 36.464 381.927 36.8053 382.994 37.488C384.061 38.1493 384.871 39.0773 385.426 40.272C386.002 41.4453 386.29 42.7893 386.29 44.304C386.29 45.8187 386.002 47.1947 385.426 48.432C384.871 49.648 384.061 50.6187 382.994 51.344C381.949 52.0693 380.69 52.432 379.218 52.432C378.066 52.432 377.074 52.2293 376.242 51.824C375.41 51.3973 374.727 50.736 374.194 49.84V58.576H371.634V36.72H374.066V39.408ZM378.77 49.744C380.434 49.744 381.671 49.232 382.482 48.208C383.293 47.184 383.698 45.8827 383.698 44.304C383.698 42.7253 383.282 41.4773 382.45 40.56C381.639 39.6213 380.402 39.152 378.738 39.152C377.607 39.152 376.658 39.3227 375.89 39.664C375.122 39.984 374.557 40.5173 374.194 41.264V47.696C374.557 48.4213 375.122 48.944 375.89 49.264C376.679 49.584 377.639 49.744 378.77 49.744Z" fill="white"/>
<path d="M400.097 39.408C400.588 38.4053 401.249 37.6693 402.081 37.2C402.913 36.7093 403.959 36.464 405.217 36.464C406.689 36.464 407.959 36.8053 409.025 37.488C410.092 38.1493 410.903 39.0773 411.457 40.272C412.033 41.4453 412.321 42.7893 412.321 44.304C412.321 45.8187 412.033 47.1947 411.457 48.432C410.903 49.648 410.092 50.6187 409.025 51.344C407.98 52.0693 406.721 52.432 405.249 52.432C404.097 52.432 403.105 52.2293 402.273 51.824C401.441 51.3973 400.759 50.736 400.225 49.84V58.576H397.665V36.72H400.097V39.408ZM404.801 49.744C406.465 49.744 407.703 49.232 408.513 48.208C409.324 47.184 409.729 45.8827 409.729 44.304C409.729 42.7253 409.313 41.4773 408.481 40.56C407.671 39.6213 406.433 39.152 404.769 39.152C403.639 39.152 402.689 39.3227 401.921 39.664C401.153 39.984 400.588 40.5173 400.225 41.264V47.696C400.588 48.4213 401.153 48.944 401.921 49.264C402.711 49.584 403.671 49.744 404.801 49.744Z" fill="white"/>
<path d="M426.417 52.24C425.691 52.24 425.094 52.0373 424.625 51.632C424.155 51.2053 423.878 50.5653 423.793 49.712C423.259 50.5653 422.619 51.216 421.873 51.664C421.147 52.0907 420.283 52.304 419.281 52.304C417.937 52.304 416.849 51.952 416.017 51.248C415.185 50.544 414.769 49.4987 414.769 48.112C414.769 47.2373 414.929 46.512 415.249 45.936C415.569 45.3387 416.049 44.8373 416.689 44.432C417.329 44.0267 418.118 43.6427 419.057 43.28L423.633 41.488C423.547 40.592 423.206 39.9733 422.609 39.632C422.033 39.2907 421.339 39.12 420.529 39.12C419.675 39.12 418.95 39.3013 418.353 39.664C417.777 40.0053 417.425 40.5493 417.297 41.296H414.897C415.046 40.1653 415.398 39.248 415.953 38.544C416.507 37.84 417.19 37.3173 418.001 36.976C418.811 36.6347 419.654 36.464 420.529 36.464C422.257 36.464 423.633 36.9227 424.657 37.84C425.681 38.736 426.182 40.144 426.161 42.064L426.097 47.984C426.097 48.6027 426.182 49.0293 426.353 49.264C426.523 49.4987 426.801 49.616 427.185 49.616H427.793V52.176C427.579 52.1973 427.345 52.208 427.089 52.208C426.854 52.2293 426.63 52.24 426.417 52.24ZM417.329 47.664C417.329 48.368 417.563 48.8907 418.033 49.232C418.523 49.552 419.195 49.712 420.049 49.712C420.817 49.712 421.51 49.6053 422.129 49.392C422.747 49.1573 423.227 48.848 423.569 48.464L423.633 43.44L420.785 44.592C419.547 45.0827 418.662 45.5413 418.129 45.968C417.595 46.3947 417.329 46.96 417.329 47.664Z" fill="white"/>
<path d="M435.279 49.808C436.303 49.808 437.146 49.6053 437.807 49.2C438.469 48.7947 438.799 48.1867 438.799 47.376C438.799 46.5653 438.511 45.9893 437.935 45.648C437.381 45.2853 436.57 45.104 435.503 45.104H433.199V43.344H435.439C436.421 43.344 437.146 43.1627 437.615 42.8C438.106 42.416 438.351 41.8827 438.351 41.2C438.351 39.792 437.359 39.088 435.375 39.088C434.394 39.088 433.583 39.3013 432.943 39.728C432.325 40.1547 431.941 40.7733 431.791 41.584H429.519C429.733 39.984 430.362 38.736 431.407 37.84C432.474 36.9227 433.818 36.464 435.439 36.464C437.039 36.464 438.319 36.848 439.279 37.616C440.261 38.384 440.751 39.4613 440.751 40.848C440.751 41.6373 440.517 42.3307 440.047 42.928C439.599 43.504 439.034 43.8773 438.351 44.048C439.226 44.1973 439.919 44.5813 440.431 45.2C440.965 45.8187 441.231 46.6187 441.231 47.6C441.231 48.6453 440.965 49.5307 440.431 50.256C439.898 50.9813 439.183 51.5253 438.287 51.888C437.413 52.2507 436.431 52.432 435.343 52.432C433.722 52.432 432.367 52.016 431.279 51.184C430.213 50.3307 429.594 49.0293 429.423 47.28H431.695C431.802 48.1333 432.165 48.7733 432.783 49.2C433.402 49.6053 434.234 49.808 435.279 49.808Z" fill="white"/>
<path d="M450.493 52.176H444.509V36.72H450.237C451.816 36.72 453.074 37.072 454.013 37.776C454.952 38.48 455.421 39.4827 455.421 40.784C455.421 41.5947 455.219 42.288 454.813 42.864C454.408 43.44 453.874 43.8133 453.213 43.984C454.088 44.1333 454.792 44.5173 455.325 45.136C455.88 45.7333 456.157 46.5547 456.157 47.6C456.157 49.0933 455.666 50.2347 454.685 51.024C453.725 51.792 452.328 52.176 450.493 52.176ZM447.005 39.216V43.312H450.237C451.09 43.312 451.741 43.152 452.189 42.832C452.658 42.4907 452.893 41.9573 452.893 41.232C452.893 40.5493 452.69 40.048 452.285 39.728C451.88 39.3867 451.24 39.216 450.365 39.216H447.005ZM447.005 45.072V49.68H450.237C451.432 49.68 452.285 49.4987 452.797 49.136C453.33 48.752 453.597 48.1653 453.597 47.376C453.597 46.5653 453.33 45.9787 452.797 45.616C452.264 45.2533 451.432 45.072 450.301 45.072H447.005Z" fill="white"/>
<path d="M461.913 36.72V47.984L469.369 36.72H471.865V52.176H469.305V40.72L461.721 52.176H459.353V36.72H461.913Z" fill="white"/>
<path d="M474.757 36.72H487.237V39.344H482.277V52.176H479.717V39.344H474.757V36.72Z" fill="white"/>
<path d="M492.663 36.72V47.984L500.119 36.72H502.615V52.176H500.055V40.72L492.471 52.176H490.103V36.72H492.663Z" fill="white"/>
<path d="M505.507 52.176L510.851 45.872C509.977 45.8507 509.166 45.6907 508.419 45.392C507.673 45.072 507.075 44.5813 506.627 43.92C506.201 43.2587 505.987 42.3947 505.987 41.328C505.987 40.3253 506.233 39.4827 506.723 38.8C507.214 38.1173 507.886 37.6053 508.739 37.264C509.593 36.9013 510.542 36.72 511.587 36.72H517.347V52.176H514.787V45.872H513.891L508.739 52.176H505.507ZM511.779 44.112H514.787V39.312H511.843C510.841 39.312 510.041 39.4827 509.443 39.824C508.867 40.1653 508.579 40.784 508.579 41.68C508.579 42.512 508.878 43.1307 509.475 43.536C510.094 43.92 510.862 44.112 511.779 44.112Z" fill="white"/>
<path d="M0 90.336V68.576H12.96V72.288H3.424V76.896H7.072C9.41867 76.896 11.2 77.472 12.416 78.624C13.632 79.7547 14.24 81.3334 14.24 83.36C14.24 84.704 13.952 85.9094 13.376 86.976C12.8213 88.0214 12 88.8427 10.912 89.44C9.84533 90.0374 8.52267 90.336 6.944 90.336H0ZM6.56 79.68H3.424V86.624H6.56C7.86133 86.624 8.88533 86.336 9.632 85.76C10.4 85.184 10.784 84.3094 10.784 83.136C10.784 81.984 10.4 81.12 9.632 80.544C8.88533 79.968 7.86133 79.68 6.56 79.68Z" fill="white"/>
<path d="M20.6947 74.656V85.024L27.4788 74.656H30.5828V90.336H27.3507V79.84L20.5347 90.336H17.4307V74.656H20.6947Z" fill="white"/>
<path d="M32.9565 86.88C33.0845 86.9014 33.2338 86.9227 33.4045 86.944C33.5965 86.9654 33.7992 86.976 34.0125 86.976C34.6952 86.976 35.1965 86.6027 35.5165 85.856C35.8365 85.088 36.0818 83.9147 36.2525 82.336C36.3592 81.3334 36.4445 80.192 36.5085 78.912C36.5938 77.632 36.6578 76.2134 36.7005 74.656H46.9405V90.336H43.7085V78.016H39.4205C39.3992 78.8054 39.3565 79.6374 39.2925 80.512C39.2498 81.3654 39.1965 82.1654 39.1325 82.912C38.9832 84.7467 38.7485 86.2294 38.4285 87.36C38.1085 88.4694 37.6605 89.28 37.0845 89.792C36.5085 90.2827 35.7405 90.528 34.7805 90.528C34.4392 90.528 34.1085 90.5067 33.7885 90.464C33.4685 90.4214 33.1912 90.3574 32.9565 90.272V86.88Z" fill="white"/>
<path d="M62.101 90.4C61.269 90.4 60.597 90.1867 60.085 89.76C59.573 89.312 59.2637 88.64 59.157 87.744C58.6877 88.6187 58.0797 89.2907 57.333 89.76C56.5863 90.2294 55.6797 90.464 54.613 90.464C53.2263 90.464 52.1063 90.0907 51.253 89.344C50.421 88.5974 50.005 87.5307 50.005 86.144C50.005 85.2267 50.1757 84.4694 50.517 83.872C50.8797 83.2747 51.4023 82.7734 52.085 82.368C52.7677 81.9414 53.5997 81.5467 54.581 81.184L58.901 79.584C58.8157 78.8374 58.5063 78.3254 57.973 78.048C57.4397 77.7707 56.7997 77.632 56.053 77.632C55.221 77.632 54.5383 77.7814 54.005 78.08C53.4717 78.3787 53.141 78.848 53.013 79.488H50.197C50.3463 78.336 50.6983 77.376 51.253 76.608C51.8077 75.84 52.5117 75.2747 53.365 74.912C54.2183 74.528 55.157 74.336 56.181 74.336C57.973 74.336 59.413 74.816 60.501 75.776C61.589 76.7147 62.1223 78.176 62.101 80.16L62.005 85.728C62.005 86.304 62.0903 86.7094 62.261 86.944C62.453 87.1574 62.7517 87.264 63.157 87.264H63.637V90.336C63.4023 90.3574 63.1463 90.368 62.869 90.368C62.5917 90.3894 62.3357 90.4 62.101 90.4ZM53.173 85.44C53.173 86.0374 53.397 86.4854 53.845 86.784C54.3143 87.0614 54.9223 87.2 55.669 87.2C56.373 87.2 57.013 87.104 57.589 86.912C58.165 86.6987 58.5917 86.432 58.869 86.112L58.933 81.792L56.085 82.88C55.0397 83.2854 54.293 83.6694 53.845 84.032C53.397 84.3734 53.173 84.8427 53.173 85.44Z" fill="white"/>
<path d="M69.2885 74.656V85.024L76.0725 74.656H79.1765V90.336H75.9445V79.84L69.1285 90.336H66.0245V74.656H69.2885ZM70.7285 69.568C70.9205 70.08 71.1872 70.464 71.5285 70.72C71.8698 70.976 72.3285 71.104 72.9045 71.104C73.4805 71.104 73.9392 70.976 74.2805 70.72C74.6218 70.464 74.8885 70.08 75.0805 69.568H77.2885C77.2032 70.7627 76.7978 71.744 76.0725 72.512C75.3685 73.2587 74.3125 73.632 72.9045 73.632C71.4752 73.632 70.4085 73.2587 69.7045 72.512C69.0005 71.744 68.6058 70.7627 68.5205 69.568H70.7285Z" fill="white"/>
<path d="M92.8142 90.336V83.936H86.3822V90.336H83.1182V74.656H86.3822V80.576H92.8142V74.656H96.0782V90.336H92.8142Z" fill="white"/>
<rect x="121.078" y="73.052" width="116.91" height="13" rx="6.5" fill="#FFC800"/>
<path d="M269.996 87.712C268.076 87.712 266.498 87.2 265.26 86.176C264.044 85.1307 263.287 83.7334 262.988 81.984H265.868C266.082 82.6454 266.519 83.232 267.18 83.744C267.842 84.2347 268.78 84.48 269.996 84.48C271.191 84.48 272.162 84.1387 272.908 83.456C273.676 82.752 274.146 81.8134 274.316 80.64H268.044V78.432H274.316C274.124 77.28 273.666 76.3627 272.94 75.68C272.215 74.976 271.255 74.624 270.06 74.624C268.844 74.624 267.895 74.88 267.212 75.392C266.551 75.8827 266.103 76.4694 265.868 77.152H262.988C263.287 75.3814 264.055 73.984 265.292 72.96C266.551 71.9147 268.119 71.392 269.996 71.392C271.554 71.392 272.887 71.7547 273.996 72.48C275.127 73.2054 276.002 74.1867 276.62 75.424C277.239 76.64 277.548 78.016 277.548 79.552C277.548 81.0667 277.239 82.4427 276.62 83.68C276.002 84.9174 275.127 85.8987 273.996 86.624C272.887 87.3494 271.554 87.712 269.996 87.712Z" fill="white"/>
<path d="M279.013 71.712H291.749V75.104H287.013V87.392H283.749V75.104H279.013V71.712Z" fill="white"/>
<path d="M301.046 71.392C302.624 71.392 303.99 71.7547 305.142 72.48C306.315 73.184 307.222 74.1547 307.862 75.392C308.502 76.608 308.822 77.984 308.822 79.52C308.822 81.056 308.502 82.4427 307.862 83.68C307.222 84.9174 306.315 85.8987 305.142 86.624C303.99 87.3494 302.624 87.712 301.046 87.712C299.467 87.712 298.091 87.3494 296.918 86.624C295.766 85.8987 294.87 84.9174 294.23 83.68C293.59 82.4427 293.27 81.056 293.27 79.52C293.27 77.984 293.59 76.608 294.23 75.392C294.87 74.1547 295.766 73.184 296.918 72.48C298.091 71.7547 299.467 71.392 301.046 71.392ZM301.046 74.912C299.68 74.912 298.582 75.3387 297.75 76.192C296.939 77.024 296.534 78.1334 296.534 79.52C296.534 80.928 296.939 82.0587 297.75 82.912C298.582 83.7654 299.68 84.192 301.046 84.192C302.411 84.192 303.499 83.7654 304.31 82.912C305.142 82.0587 305.558 80.928 305.558 79.52C305.558 78.1334 305.142 77.024 304.31 76.192C303.499 75.3387 302.411 74.912 301.046 74.912Z" fill="white"/>
<path d="M326.259 87.392H319.603V71.712H325.971C327.614 71.712 328.894 72.0747 329.811 72.8C330.728 73.5254 331.187 74.5387 331.187 75.84C331.187 76.6294 330.995 77.312 330.611 77.888C330.248 78.4427 329.758 78.8374 329.139 79.072C329.95 79.2854 330.611 79.7014 331.123 80.32C331.635 80.9174 331.891 81.7067 331.891 82.688C331.891 84.224 331.39 85.3974 330.387 86.208C329.406 86.9974 328.03 87.392 326.259 87.392ZM322.771 74.752V78.304H325.683C326.472 78.304 327.07 78.1654 327.475 77.888C327.88 77.5894 328.083 77.1307 328.083 76.512C328.083 75.8934 327.902 75.4454 327.539 75.168C327.176 74.8907 326.59 74.752 325.779 74.752H322.771ZM322.771 80.352V84.32H325.843C326.846 84.32 327.582 84.16 328.051 83.84C328.52 83.52 328.755 83.0187 328.755 82.336C328.755 81.632 328.52 81.1307 328.051 80.832C327.582 80.512 326.867 80.352 325.907 80.352H322.771Z" fill="white"/>
<path d="M351.654 71.712V87.392H348.422V71.712H351.654ZM338.086 71.712V76.992H340.71C342.48 76.992 343.91 77.3654 344.998 78.112C346.107 78.8587 346.662 80.1387 346.662 81.952C346.662 83.1894 346.395 84.2134 345.862 85.024C345.35 85.8134 344.646 86.4107 343.75 86.816C342.875 87.2 341.883 87.392 340.774 87.392H334.822V71.712H338.086ZM340.614 79.616H338.086V84.128H340.55C341.51 84.128 342.246 83.9574 342.758 83.616C343.27 83.2534 343.526 82.6774 343.526 81.888C343.526 81.1414 343.302 80.576 342.854 80.192C342.406 79.808 341.659 79.616 340.614 79.616Z" fill="white"/>
<circle cx="383.654" cy="79.552" r="7" fill="#FFC800"/>
</svg>
