<svg width="22" height="22" viewBox="0 0 22 22" fill="none" xmlns="http://www.w3.org/2000/svg">
<path opacity="0.4" d="M11 15.9042C11.8252 15.9042 12.4942 15.2352 12.4942 14.41C12.4942 13.5848 11.8252 12.9158 11 12.9158C10.1748 12.9158 9.50586 13.5848 9.50586 14.41C9.50586 15.2352 10.1748 15.9042 11 15.9042Z" fill="white" fill-opacity="0.1"/>
<path d="M15.2627 8.65334H6.73766C2.97933 8.65334 1.8335 9.79917 1.8335 13.5575V15.2625C1.8335 19.0208 2.97933 20.1667 6.73766 20.1667H15.2627C19.021 20.1667 20.1668 19.0208 20.1668 15.2625V13.5575C20.1668 9.79917 19.021 8.65334 15.2627 8.65334ZM11.0002 17.1783C9.46933 17.1783 8.23183 15.9317 8.23183 14.41C8.23183 12.8883 9.46933 11.6417 11.0002 11.6417C12.531 11.6417 13.7685 12.8883 13.7685 14.41C13.7685 15.9317 12.531 17.1783 11.0002 17.1783Z" fill="white" fill-opacity="0.1"/>
<path opacity="0.4" d="M6.5265 8.66249V7.58999C6.5265 4.90416 7.28733 3.11666 10.9998 3.11666C14.969 3.11666 15.4732 5.05083 15.4732 6.73749C15.4732 7.09499 15.7573 7.37916 16.1148 7.37916C16.4723 7.37916 16.7565 7.09499 16.7565 6.73749C16.7565 3.48333 14.8223 1.83333 10.9998 1.83333C5.839 1.83333 5.24316 5.11499 5.24316 7.58999V8.73583C5.62816 8.68999 6.059 8.66249 6.5265 8.66249Z" fill="white" fill-opacity="0.1"/>
</svg>
