<svg width="44" height="44" viewBox="0 0 44 44" fill="none" xmlns="http://www.w3.org/2000/svg">
<g clip-path="url(#clip0_7_1877)">
<path d="M21.9963 43.9949C34.1429 43.9949 43.9896 34.1463 43.9896 21.9975C43.9896 9.8486 34.1429 0 21.9963 0C9.8497 0 0.00292969 9.8486 0.00292969 21.9975C0.00292969 34.1463 9.8497 43.9949 21.9963 43.9949Z" fill="#FFC800"/>
<path d="M31.4613 38.3866C23.9923 42.6973 15.8919 43.4699 10.7178 40.8877C17.3422 44.8356 25.8478 45.1771 32.9969 41.0499C40.1461 36.9184 44.1045 29.3811 43.9979 21.6687C43.6481 27.4434 38.9304 34.0759 31.4613 38.3866Z" fill="#141414"/>
<path d="M24.7859 1.61332C26.3002 4.23389 22.6403 9.18482 16.6087 12.6633C10.5772 16.1417 4.46463 16.8417 2.95034 14.2168C2.88636 14.0931 2.82664 13.9565 2.78398 13.8156C2.39155 12.595 2.86076 11.0158 3.99114 9.35127C4.17456 9.09092 4.36225 8.83484 4.5542 8.58302C6.26044 6.35938 8.42309 4.43022 10.9995 2.94495C13.5759 1.4554 16.3272 0.550576 19.1041 0.183525C19.4283 0.136577 19.744 0.102433 20.0511 0.0810932C22.0559 -0.068288 23.6555 0.315835 24.5171 1.26334C24.6195 1.37858 24.7091 1.49381 24.7859 1.61332Z" fill="#141414"/>
<path d="M34.1359 4.45156C36.7805 9.03117 31.4443 17.0593 22.2221 22.3859C12.9999 27.7124 3.37669 28.3184 0.736287 23.7388C0.296931 22.9748 0.0623242 22.1255 0.0154027 21.2121C-0.0997682 24.2894 0.429165 27.4179 1.66192 30.3884C1.84534 30.8323 2.04582 31.2719 2.2591 31.7072C2.26763 31.7243 2.28043 31.7457 2.28896 31.7627C3.08663 33.1413 4.26393 34.2254 5.73129 35.0107C10.9055 37.7807 19.6542 36.8289 27.8356 32.1042C36.0127 27.3795 41.2125 20.2817 41.4044 14.4174C41.4599 12.7614 41.1144 11.2036 40.3252 9.82502C40.0266 9.37688 39.7152 8.93727 39.3868 8.519C37.4459 6.0094 35.0316 4.01195 32.3486 2.58643C33.095 3.07725 33.7008 3.69612 34.1359 4.45156C34.1359 4.45156 34.1401 4.45583 34.1401 4.4601L34.1359 4.45156Z" fill="#141414"/>
<path d="M22.0012 43.9949C34.1478 43.9949 43.9946 34.1463 43.9946 21.9975C43.9946 9.8486 34.1478 0 22.0012 0C9.85458 0 0.0078125 9.8486 0.0078125 21.9975C0.0078125 34.1463 9.85458 43.9949 22.0012 43.9949Z" fill="url(#paint0_radial_7_1877)"/>
</g>
<defs>
<radialGradient id="paint0_radial_7_1877" cx="0" cy="0" r="1" gradientUnits="userSpaceOnUse" gradientTransform="translate(21.9991 21.9993) scale(21.9929 22.0055)">
<stop offset="0.5" stop-color="white" stop-opacity="0"/>
<stop offset="1" stop-color="white" stop-opacity="0.35"/>
</radialGradient>
<clipPath id="clip0_7_1877">
<rect width="44" height="44" fill="white"/>
</clipPath>
</defs>
</svg>
