<svg width="639" height="78" viewBox="0 0 639 78" fill="none" xmlns="http://www.w3.org/2000/svg">
<g clip-path="url(#clip0_316_170980)">
<path fill-rule="evenodd" clip-rule="evenodd" d="M624.782 78L616.992 70.9938H630.513L638.662 78H624.782ZM609.594 64.34L577.563 35.5319H595.127L614.687 51.9889H608.411L622.775 64.34H609.594ZM581.3 27.9996H571.549L567.131 24.0644H571.92L563.376 16.5993H572.625L581.498 24.0644H576.709L581.3 27.9996ZM590.084 78L564.488 51.9889H558.212L570.05 64.34H563.461L551.938 51.9889H545.662L569.264 78H555.384L519.02 35.5319H530.729L535.479 40.7669H541.468L546.58 46.2464H552.708L547.455 40.7669H553.444L548.293 35.5319H560.001L603.964 78H590.084ZM552.765 24.0644H524.032L501.786 0H510.304L516.42 6.31467H534.012L537.514 9.6292H541.985L553.458 20.2667H548.752L552.765 24.0644ZM533.043 9.6292H519.629L529.931 20.2667H544.047L533.043 9.6292ZM494.429 6.31467L491.675 3.10668H483.02L485.632 6.31467H481.234L489.383 16.5993H494.007L496.994 20.2667H506.405L503.257 16.5993H512.506L515.816 20.2667H511.11L514.454 24.0644H495.298L492.289 20.2667H487.584L484.758 16.5993H480.134L472.438 6.31467H476.836L474.364 3.10668H478.692L476.231 0H493.267L496.002 3.10668H500.33L503.225 6.31467H494.429ZM454.647 20.2667H478.173L480.932 24.0644H447.41L433.638 0H463.453L465.709 3.10668H444.072L448.091 9.6292H465.976L468.389 13.0555H450.203L454.647 20.2667ZM423.465 24.0644L413.778 3.10668H405.123L403.824 0H429.379L431.089 3.10668H422.433L433.043 24.0644H423.465ZM394.732 24.0644L391.097 13.0555H386.551L387.643 16.5993H383.019L384.068 20.2667H379.362L380.365 24.0644H370.788L365.491 0H374.01L377.458 13.0555H382.004L381.024 9.6292H385.495L384.474 6.31467H388.872L386.788 0H395.306L404.31 24.0644H394.732ZM356.422 24.0644L354.725 13.0555H341.086L342.055 24.0644H332.477L331.418 0H339.936L340.784 9.6292H354.197L352.714 0H361.232L365.999 24.0644H356.422ZM322.899 3.10668H309.917L308.533 24.0644H298.955L301.603 0H327.159L327.297 6.31467H322.899V3.10668ZM326.37 78H312.49L313.917 40.7669H301.942L299.237 70.9938H292.476L291.67 78H277.791L280.06 64.34H286.649L287.539 58.013H293.969L296.555 35.5319H325.827L326.37 78ZM270.969 3.10668L269.246 9.6292H287.13L286.527 13.0555H268.341L266.436 20.2667H289.962L289.378 24.0644H255.855L263.27 0H293.085L292.606 3.10668H270.969ZM249.33 3.10668L241.489 24.0644H231.911L240.675 3.10668H232.02L233.456 0H259.012L257.986 3.10668H249.33ZM225.637 51.9889H219.362L216.821 58.013H223.25L218.108 70.9938H211.346L208.392 78H166.753L191.176 35.5319H226.302L224.094 40.7669H230.083L225.637 51.9889ZM191.105 58.013L184.304 70.9938H204.586L210.392 58.013H191.105ZM200.142 40.7669L194.262 51.9889H213.087L218.107 40.7669H200.142ZM221.741 6.31467H212.945L214.71 3.10668H206.055L204.149 6.31467H199.75L193.412 16.5993H198.036L195.857 20.2667H205.268L207.286 16.5993H216.535L214.678 20.2667H209.973L207.967 24.0644H188.811L191.152 20.2667H186.447L188.788 16.5993H184.163L190.954 6.31467H195.352L197.4 3.10668H201.727L203.642 0H220.679L219.038 3.10668H223.365L221.741 6.31467ZM164.867 24.0644L172.864 13.0555H168.317L165.665 16.5993H161.04L158.215 20.2667H153.51L150.5 24.0644H140.922L161.05 0H169.568L159.224 13.0555H163.77L166.409 9.6292H170.881L173.361 6.31467H177.759L182.346 0H190.864L174.445 24.0644H164.867ZM145.584 13.0555H141.038L137.918 16.5993H119.419L112.19 24.0644H102.612L126.976 0H152.532L149.796 3.10668H154.124L145.584 13.0555ZM132.486 3.10668L122.851 13.0555H136.491L145.469 3.10668H132.486ZM88.2453 24.0644L110.848 3.10668H97.8657L73.8784 24.0644H64.301L92.4783 0H122.717L97.8228 24.0644H88.2453ZM68.4023 40.7669H74.3906L79.9435 35.5319H91.6521L48.7754 78H34.8956L62.4868 51.9889H56.2118L42.7947 64.34H36.2038L49.9369 51.9889H43.662L14.076 78H0.196289L50.6716 35.5319H62.3802L56.4259 40.7669H62.4141L56.3217 46.2464H62.4495L68.4023 40.7669ZM109.215 35.5319L99.2191 46.2464H111.476L83.4747 78H55.7153L97.5063 35.5319H109.215ZM76.1312 70.9938H82.8919L100.137 51.9889H93.8619L76.1312 70.9938ZM138.487 35.5319L104.294 78H90.4141L126.778 35.5319H138.487ZM227.335 64.34H240.516L238.391 70.9938H258.672L261.824 58.013H242.538L244.463 51.9889H263.286L266.011 40.7669H248.048L246.297 46.2464H234.041L236.072 40.7669H242.059L243.865 35.5319H273.137L272 40.7669H277.987L275.836 51.9889H269.562L268.253 58.013H274.681L272.193 70.9938H265.433L263.911 78H229.211L231.629 70.9938H224.869L227.335 64.34ZM373.799 40.7669H343.857L344.861 51.9889H369.963L371.118 58.013H345.4L346.561 70.9938H380.365L381.888 78H333.309L331.68 35.5319H372.661L373.799 40.7669ZM421.705 40.7669H409.727L423.526 78H409.647L397.751 40.7669H385.775L384.37 35.5319H419.497L421.705 40.7669ZM433.681 40.7669H439.668L437.059 35.5319H454.623L457.634 40.7669H463.62L466.912 46.2464H473.041L492.926 78H479.046L471.191 64.34H451.418L458.226 78H444.347L430.143 46.2464H436.272L433.681 40.7669ZM448.264 58.013H467.552L460.785 46.2464H454.655L451.644 40.7669H445.657L448.529 46.2464H442.399L448.264 58.013ZM513.166 35.5319L517.514 40.7669H487.575L495.463 51.9889H520.563L525.413 58.013H499.697L508.821 70.9938H542.624L548.444 78H499.865L472.185 35.5319H513.166Z" fill="black"/>
</g>
<defs>
<clipPath id="clip0_316_170980">
<rect width="639" height="78" fill="white"/>
</clipPath>
</defs>
</svg>
