<svg width="836" height="98" viewBox="0 0 836 98" fill="none" xmlns="http://www.w3.org/2000/svg">
<path fill-rule="evenodd" clip-rule="evenodd" d="M816.782 98L777.322 64.4709H768.664L786.915 80.716H777.807L760.006 64.4709H751.348L787.954 98H768.737L712.201 42.9092H728.32L735.633 49.7576H743.884L751.75 56.9363H760.199L752.133 49.7576H760.384L752.499 42.9092H768.618L836 98H816.782ZM750.106 32.8769H710.661L676.362 0H687.969L697.322 8.57936H721.34L726.688 13.096H732.799L750.376 27.6557H743.924L750.106 32.8769ZM720.578 13.096H702.246L718.117 27.6557H737.473L720.578 13.096ZM667.299 8.57936L663.054 4.21624H651.248L655.289 8.57936H649.285L661.962 22.6246H668.296L672.953 27.6557H685.858L680.964 22.6246H693.631L698.761 27.6557H692.31L697.512 32.8769H671.215L666.502 27.6557H660.05L655.627 22.6246H649.294L637.275 8.57936H643.28L639.444 4.21624H645.347L641.541 0H664.755L668.956 4.21624H674.859L679.308 8.57936H667.299ZM614.887 27.6557H647.147L651.492 32.8769H605.472L583.506 0H624.13L627.64 4.21624H598.128L604.476 13.096H628.919L632.703 17.7753H607.822L614.887 27.6557ZM585.749 32.8769H572.6L556.811 4.21624H545.006L542.881 0H577.702L580.42 4.21624H568.616L585.749 32.8769ZM533.154 32.8769L526.959 17.7753H520.739L522.615 22.6246H516.28L518.108 27.6557H511.657L513.432 32.8769H500.283L490.648 0H502.256L508.298 17.7753H514.518L512.818 13.096H518.929L517.181 8.57936H523.186L519.666 0H531.273L546.303 32.8769H533.154ZM480.56 32.8769L477.197 17.7753H458.536L460.837 32.8769H447.689L444.221 0H455.827L457.823 13.096H476.155L473.238 0H484.845L493.709 32.8769H480.56ZM432.86 4.21624H415.153L414.817 32.8769H401.669L403.596 0H438.417L439.12 8.57936H433.116L432.86 4.21624ZM405.927 42.9092H446.227L451.633 98H432.413L430.389 49.7576H413.89L413.327 89.4903H403.975L403.587 98H384.368L386.124 80.716H395.234L395.813 72.3881H404.692L405.927 42.9092ZM362.032 4.21624L360.054 13.096H384.496L383.893 17.7753H359.013L356.812 27.6557H389.071L388.52 32.8769H342.499L351.363 0H391.988L391.544 4.21624H362.032ZM332.52 4.21624L322.777 32.8769H309.629L320.715 4.21624H308.91L310.738 0H345.56L344.325 4.21624H332.52ZM295.009 8.57936H283L285.301 4.21624H273.496L270.99 8.57936H264.985L256.588 22.6246H262.922L260.033 27.6557H272.938L275.59 22.6246H288.259L285.841 27.6557H279.389L276.757 32.8769H250.459L253.581 27.6557H247.129L250.255 22.6246H243.92L252.975 8.57936H258.98L261.691 4.21624H267.593L270.114 0H293.328L291.203 4.21624H297.105L295.009 8.57936ZM217.588 32.8769L228.387 17.7753H222.166L218.585 22.6246H212.25L208.418 27.6557H201.966L197.866 32.8769H184.717L212.078 0H223.686L209.726 17.7753H215.945L219.511 13.096H225.622L228.956 8.57936H234.961L241.096 0H252.703L230.736 32.8769H217.588ZM191.065 17.7753H184.844L180.581 22.6246H155.245L145.271 32.8769H132.123L165.65 0H200.472L196.764 4.21624H202.667L191.065 17.7753ZM173.155 4.21624L159.963 17.7753H178.624L190.862 4.21624H173.155ZM112.4 32.8769L143.642 4.21624H125.936L92.6768 32.8769H79.5284L119.222 0H159.847L125.548 32.8769H112.4ZM75.6471 49.7576H83.8966L75.8267 56.9363H84.2758L92.1461 49.7576H100.396L107.714 42.9092H123.834L67.2643 98H48.0456L84.6732 64.4709H76.0155L58.2051 80.716H49.0962L67.357 64.4709H58.6994L19.2187 98H0L67.4158 42.9092H83.5348L75.6471 49.7576ZM148.013 42.9092L134.97 56.9363H151.868L115.311 98H76.8732L131.894 42.9092H148.013ZM104.699 89.4903H114.051L136.622 64.4709H127.964L104.699 89.4903ZM188.313 42.9092L144.138 98H124.92L172.193 42.9092H188.313ZM309.21 42.9092L306.643 49.7576H314.891L309.784 64.4709H301.126L298.159 72.3881H307.035L301.098 89.4903H291.747L288.277 98H230.621L260.851 42.9092H309.21ZM292.469 64.4709L298.392 49.7576H273.642L266.493 64.4709H292.469ZM282.394 89.4903L289.28 72.3881H262.647L254.337 89.4903H282.394ZM313.254 80.716H331.471L329.156 89.4903H357.213L360.302 72.3881H333.67L335.758 64.4709H361.733L364.391 49.7576H339.641L337.747 56.9363H320.848L323.142 49.7576H331.392L333.389 42.9092H373.688L372.641 49.7576H380.891L379.049 64.4709H370.391L369.18 72.3881H378.058L375.918 89.4903H366.565L365.15 98H317.104L319.803 89.4903H310.451L313.254 80.716ZM512.888 49.7576H471.639L474.288 64.4709H508.92L511.225 72.3881H475.713L478.793 89.4903H525.555L528.506 98H461.242L454.287 42.9092H510.705L512.888 49.7576ZM575.183 42.9092L578.887 49.7576H562.388L586.162 98H566.943L545.887 49.7576H529.388L526.825 42.9092H575.183ZM595.386 49.7576H603.637L599.363 42.9092H623.542L628.386 49.7576H636.635L641.913 56.9363H650.362L682.254 98H663.035L650.282 80.716H622.956L634.207 98H614.988L591.218 56.9363H599.668L595.386 49.7576ZM617.759 72.3881H644.392L633.464 56.9363H625.014L620.136 49.7576H611.887L616.566 56.9363H608.117L617.759 72.3881ZM704.14 42.9092L710.884 49.7576H669.635L682.083 64.4709H716.715L724.292 72.3881H688.781L703.25 89.4903H750.011L759.127 98H691.862L647.721 42.9092H704.14Z" fill="#1A1A1A"/>
</svg>
