<svg width="24" height="24" viewBox="0 0 24 24" fill="none" xmlns="http://www.w3.org/2000/svg">
<path d="M5.29986 14.46C5.64986 14.81 5.84986 15.51 5.73986 16L5.21986 18.25C5.17986 18.45 4.90698 20.5603 5.04986 20.95C5.15986 21.25 5.32986 21.48 5.55986 21.65C6.16986 22.1 7.11986 21.99 8.22986 21.34L11.1599 19.6C11.6199 19.33 12.3799 19.33 12.8399 19.6L15.7699 21.34C16.4299 21.73 17.0299 21.92 17.5399 21.92C17.8899 21.92 18.1899 21.83 18.4399 21.65C19.0599 21.2 19.2399 20.26 18.9499 19.01L18.2599 16C18.1399 15.51 18.3399 14.82 18.6999 14.46L21.1199 12.03C21.8799 11.27 22.1799 10.46 21.9599 9.76C21.7299 9.06 21.0199 8.58 19.9599 8.4L18.9499 8.23C18.3199 8.12 16.6199 7.84 16.3299 7.67C16.0399 7.5 15.7699 7.25 15.6399 6.99L13.9199 3.54C13.4199 2.55 12.7399 2 11.9999 2C11.2599 2 10.5799 2.55 10.0799 3.54L8.35986 6.99C8.14986 7.4 7.59986 7.8 7.14986 7.88L4.02986 8.4C2.96986 8.58 2.25986 9.06 2.02986 9.76C1.80986 10.46 2.10986 11.27 2.86986 12.03L5.29986 14.46Z" fill="#FFC800"/>
</svg>
